G04 #@! TF.GenerationSoftware,KiCad,Pcbnew,7.0.3-24-g09febce4ce*
G04 #@! TF.CreationDate,2023-05-24T02:24:53-07:00*
G04 #@! TF.ProjectId,t962,74393632-2e6b-4696-9361-645f70636258,2.0*
G04 #@! TF.SameCoordinates,Original*
G04 #@! TF.FileFunction,Copper,L1,Top*
G04 #@! TF.FilePolarity,Positive*
%FSLAX46Y46*%
G04 Gerber Fmt 4.6, Leading zero omitted, Abs format (unit mm)*
G04 Created by KiCad (PCBNEW 7.0.3-24-g09febce4ce) date 2023-05-24 02:24:53*
%MOMM*%
%LPD*%
G01*
G04 APERTURE LIST*
G04 Aperture macros list*
%AMRoundRect*
0 Rectangle with rounded corners*
0 $1 Rounding radius*
0 $2 $3 $4 $5 $6 $7 $8 $9 X,Y pos of 4 corners*
0 Add a 4 corners polygon primitive as box body*
4,1,4,$2,$3,$4,$5,$6,$7,$8,$9,$2,$3,0*
0 Add four circle primitives for the rounded corners*
1,1,$1+$1,$2,$3*
1,1,$1+$1,$4,$5*
1,1,$1+$1,$6,$7*
1,1,$1+$1,$8,$9*
0 Add four rect primitives between the rounded corners*
20,1,$1+$1,$2,$3,$4,$5,0*
20,1,$1+$1,$4,$5,$6,$7,0*
20,1,$1+$1,$6,$7,$8,$9,0*
20,1,$1+$1,$8,$9,$2,$3,0*%
G04 Aperture macros list end*
G04 #@! TA.AperFunction,ComponentPad*
%ADD10RoundRect,0.250000X0.600000X0.750000X-0.600000X0.750000X-0.600000X-0.750000X0.600000X-0.750000X0*%
G04 #@! TD*
G04 #@! TA.AperFunction,ComponentPad*
%ADD11O,1.700000X2.000000*%
G04 #@! TD*
G04 #@! TA.AperFunction,ComponentPad*
%ADD12RoundRect,0.250000X-0.750000X0.600000X-0.750000X-0.600000X0.750000X-0.600000X0.750000X0.600000X0*%
G04 #@! TD*
G04 #@! TA.AperFunction,ComponentPad*
%ADD13O,2.000000X1.700000*%
G04 #@! TD*
G04 #@! TA.AperFunction,SMDPad,CuDef*
%ADD14RoundRect,0.062500X0.350000X0.062500X-0.350000X0.062500X-0.350000X-0.062500X0.350000X-0.062500X0*%
G04 #@! TD*
G04 #@! TA.AperFunction,SMDPad,CuDef*
%ADD15RoundRect,0.062500X0.062500X0.350000X-0.062500X0.350000X-0.062500X-0.350000X0.062500X-0.350000X0*%
G04 #@! TD*
G04 #@! TA.AperFunction,SMDPad,CuDef*
%ADD16R,2.600000X2.600000*%
G04 #@! TD*
G04 #@! TA.AperFunction,SMDPad,CuDef*
%ADD17RoundRect,0.200000X0.275000X-0.200000X0.275000X0.200000X-0.275000X0.200000X-0.275000X-0.200000X0*%
G04 #@! TD*
G04 #@! TA.AperFunction,SMDPad,CuDef*
%ADD18RoundRect,0.218750X-0.256250X0.218750X-0.256250X-0.218750X0.256250X-0.218750X0.256250X0.218750X0*%
G04 #@! TD*
G04 #@! TA.AperFunction,SMDPad,CuDef*
%ADD19RoundRect,0.225000X-0.250000X0.225000X-0.250000X-0.225000X0.250000X-0.225000X0.250000X0.225000X0*%
G04 #@! TD*
G04 #@! TA.AperFunction,SMDPad,CuDef*
%ADD20R,1.150000X0.600000*%
G04 #@! TD*
G04 #@! TA.AperFunction,SMDPad,CuDef*
%ADD21R,1.150000X0.300000*%
G04 #@! TD*
G04 #@! TA.AperFunction,ComponentPad*
%ADD22O,2.100000X1.050000*%
G04 #@! TD*
G04 #@! TA.AperFunction,ComponentPad*
%ADD23O,2.000000X1.000000*%
G04 #@! TD*
G04 #@! TA.AperFunction,SMDPad,CuDef*
%ADD24RoundRect,0.200000X0.200000X0.275000X-0.200000X0.275000X-0.200000X-0.275000X0.200000X-0.275000X0*%
G04 #@! TD*
G04 #@! TA.AperFunction,ComponentPad*
%ADD25R,1.700000X1.700000*%
G04 #@! TD*
G04 #@! TA.AperFunction,ComponentPad*
%ADD26O,1.700000X1.700000*%
G04 #@! TD*
G04 #@! TA.AperFunction,SMDPad,CuDef*
%ADD27RoundRect,0.150000X0.512500X0.150000X-0.512500X0.150000X-0.512500X-0.150000X0.512500X-0.150000X0*%
G04 #@! TD*
G04 #@! TA.AperFunction,SMDPad,CuDef*
%ADD28R,2.000000X1.500000*%
G04 #@! TD*
G04 #@! TA.AperFunction,SMDPad,CuDef*
%ADD29R,2.000000X3.800000*%
G04 #@! TD*
G04 #@! TA.AperFunction,ComponentPad*
%ADD30R,2.100000X2.100000*%
G04 #@! TD*
G04 #@! TA.AperFunction,ComponentPad*
%ADD31C,2.100000*%
G04 #@! TD*
G04 #@! TA.AperFunction,ComponentPad*
%ADD32C,6.000000*%
G04 #@! TD*
G04 #@! TA.AperFunction,SMDPad,CuDef*
%ADD33R,0.900000X1.000000*%
G04 #@! TD*
G04 #@! TA.AperFunction,SMDPad,CuDef*
%ADD34RoundRect,0.200000X-0.200000X-0.275000X0.200000X-0.275000X0.200000X0.275000X-0.200000X0.275000X0*%
G04 #@! TD*
G04 #@! TA.AperFunction,SMDPad,CuDef*
%ADD35RoundRect,0.200000X-0.275000X0.200000X-0.275000X-0.200000X0.275000X-0.200000X0.275000X0.200000X0*%
G04 #@! TD*
G04 #@! TA.AperFunction,SMDPad,CuDef*
%ADD36R,0.700000X0.300000*%
G04 #@! TD*
G04 #@! TA.AperFunction,SMDPad,CuDef*
%ADD37R,2.600000X2.300000*%
G04 #@! TD*
G04 #@! TA.AperFunction,SMDPad,CuDef*
%ADD38RoundRect,0.225000X-0.225000X-0.250000X0.225000X-0.250000X0.225000X0.250000X-0.225000X0.250000X0*%
G04 #@! TD*
G04 #@! TA.AperFunction,SMDPad,CuDef*
%ADD39RoundRect,0.225000X0.250000X-0.225000X0.250000X0.225000X-0.250000X0.225000X-0.250000X-0.225000X0*%
G04 #@! TD*
G04 #@! TA.AperFunction,SMDPad,CuDef*
%ADD40R,0.700000X0.450000*%
G04 #@! TD*
G04 #@! TA.AperFunction,ViaPad*
%ADD41C,0.600000*%
G04 #@! TD*
G04 #@! TA.AperFunction,Conductor*
%ADD42C,0.800000*%
G04 #@! TD*
G04 #@! TA.AperFunction,Conductor*
%ADD43C,0.250000*%
G04 #@! TD*
G04 #@! TA.AperFunction,Conductor*
%ADD44C,0.500000*%
G04 #@! TD*
G04 #@! TA.AperFunction,Conductor*
%ADD45C,0.200000*%
G04 #@! TD*
G04 #@! TA.AperFunction,Conductor*
%ADD46C,0.300000*%
G04 #@! TD*
G04 #@! TA.AperFunction,Conductor*
%ADD47C,0.400000*%
G04 #@! TD*
G04 #@! TA.AperFunction,Conductor*
%ADD48C,1.000000*%
G04 #@! TD*
G04 APERTURE END LIST*
D10*
X164900000Y-43500000D03*
D11*
X162400000Y-43500000D03*
X149800000Y-62300000D03*
D10*
X152300000Y-62300000D03*
D12*
X131800000Y-34400000D03*
D13*
X131800000Y-36900000D03*
D14*
X151187500Y-54112500D03*
X151187500Y-53612500D03*
X151187500Y-53112500D03*
X151187500Y-52612500D03*
X151187500Y-52112500D03*
X151187500Y-51612500D03*
D15*
X150500000Y-50925000D03*
X150000000Y-50925000D03*
X149500000Y-50925000D03*
X149000000Y-50925000D03*
X148500000Y-50925000D03*
X148000000Y-50925000D03*
D14*
X147312500Y-51612500D03*
X147312500Y-52112500D03*
X147312500Y-52612500D03*
X147312500Y-53112500D03*
X147312500Y-53612500D03*
X147312500Y-54112500D03*
D15*
X148000000Y-54800000D03*
X148500000Y-54800000D03*
X149000000Y-54800000D03*
X149500000Y-54800000D03*
X150000000Y-54800000D03*
X150500000Y-54800000D03*
D16*
X149250000Y-52862500D03*
D17*
X145100000Y-37125000D03*
X145100000Y-35475000D03*
X143500000Y-37125000D03*
X143500000Y-35475000D03*
D18*
X143500000Y-32512500D03*
X143500000Y-34087500D03*
X145100000Y-32512500D03*
X145100000Y-34087500D03*
D19*
X145900000Y-53225000D03*
X145900000Y-54775000D03*
D20*
X161545000Y-56400000D03*
X161545000Y-55600000D03*
D21*
X161545000Y-54450000D03*
X161545000Y-53450000D03*
X161545000Y-52950000D03*
X161545000Y-51950000D03*
X161545000Y-51450000D03*
X161545000Y-52450000D03*
X161545000Y-53950000D03*
X161545000Y-54950000D03*
D20*
X161545000Y-50800000D03*
X161545000Y-50000000D03*
D22*
X162120000Y-57520000D03*
D23*
X166300000Y-57520000D03*
D22*
X162120000Y-48880000D03*
D23*
X166300000Y-48880000D03*
D24*
X155025000Y-56600000D03*
X153375000Y-56600000D03*
D17*
X158500000Y-46125000D03*
X158500000Y-44475000D03*
D25*
X165862000Y-61468000D03*
D26*
X165862000Y-64008000D03*
X165862000Y-66548000D03*
D27*
X155437500Y-53850000D03*
X155437500Y-52900000D03*
X155437500Y-51950000D03*
X153162500Y-51950000D03*
X153162500Y-52900000D03*
X153162500Y-53850000D03*
D25*
X130300000Y-73700000D03*
D26*
X130300000Y-71160000D03*
D28*
X138750000Y-41100000D03*
X138750000Y-43400000D03*
X138750000Y-45700000D03*
D29*
X145050000Y-43400000D03*
D30*
X130800000Y-64640000D03*
D31*
X130800000Y-62100000D03*
X130800000Y-59560000D03*
X130800000Y-57020000D03*
X130800000Y-54480000D03*
X130800000Y-51940000D03*
X130800000Y-49400000D03*
X130800000Y-46860000D03*
D32*
X137900000Y-72100000D03*
X163900000Y-72100000D03*
X137900000Y-35100000D03*
X163900000Y-35100000D03*
D33*
X157100000Y-64350000D03*
X158700000Y-64350000D03*
X157100000Y-60250000D03*
X158700000Y-60250000D03*
D24*
X149025000Y-46000000D03*
X147375000Y-46000000D03*
D34*
X147375000Y-47500000D03*
X149025000Y-47500000D03*
D35*
X147100000Y-40375000D03*
X147100000Y-42025000D03*
D34*
X147375000Y-49000000D03*
X149025000Y-49000000D03*
D33*
X157100000Y-70900000D03*
X158700000Y-70900000D03*
X157100000Y-66800000D03*
X158700000Y-66800000D03*
D36*
X143920000Y-64600000D03*
X140080000Y-64600000D03*
X143920000Y-65100000D03*
X140080000Y-65100000D03*
X143920000Y-65600000D03*
X140080000Y-65600000D03*
X143920000Y-66100000D03*
X140080000Y-66100000D03*
X143920000Y-66600000D03*
X140080000Y-66600000D03*
D37*
X142000000Y-65600000D03*
D38*
X152375000Y-49000000D03*
X150825000Y-49000000D03*
D39*
X138200000Y-59175000D03*
X138200000Y-57625000D03*
D38*
X136825000Y-66500000D03*
X138375000Y-66500000D03*
D39*
X138300000Y-64975000D03*
X138300000Y-63425000D03*
D25*
X154400000Y-33750000D03*
D26*
X151860000Y-33750000D03*
X149320000Y-33750000D03*
D25*
X158200000Y-56700000D03*
D26*
X158200000Y-54160000D03*
X158200000Y-51620000D03*
X158200000Y-49080000D03*
D25*
X153600000Y-73300000D03*
D26*
X151060000Y-73300000D03*
X148520000Y-73300000D03*
X145980000Y-73300000D03*
X143440000Y-73300000D03*
D17*
X148600000Y-39025000D03*
X148600000Y-37375000D03*
D36*
X143820000Y-47800000D03*
X139980000Y-47800000D03*
X143820000Y-48300000D03*
X139980000Y-48300000D03*
X143820000Y-48800000D03*
X139980000Y-48800000D03*
X143820000Y-49300000D03*
X139980000Y-49300000D03*
X143820000Y-49800000D03*
X139980000Y-49800000D03*
D37*
X141900000Y-48800000D03*
D36*
X143820000Y-52700000D03*
X139980000Y-52700000D03*
X143820000Y-53200000D03*
X139980000Y-53200000D03*
X143820000Y-53700000D03*
X139980000Y-53700000D03*
X143820000Y-54200000D03*
X139980000Y-54200000D03*
X143820000Y-54700000D03*
X139980000Y-54700000D03*
D37*
X141900000Y-53700000D03*
D36*
X143820000Y-58700000D03*
X139980000Y-58700000D03*
X143820000Y-59200000D03*
X139980000Y-59200000D03*
X143820000Y-59700000D03*
X139980000Y-59700000D03*
X143820000Y-60200000D03*
X139980000Y-60200000D03*
X143820000Y-60700000D03*
X139980000Y-60700000D03*
D37*
X141900000Y-59700000D03*
D39*
X136700000Y-48175000D03*
X136700000Y-46625000D03*
X147100000Y-38962500D03*
X147100000Y-37412500D03*
D38*
X136725000Y-54600000D03*
X138275000Y-54600000D03*
D39*
X138200000Y-53075000D03*
X138200000Y-51525000D03*
D38*
X136725000Y-60700000D03*
X138275000Y-60700000D03*
X150825000Y-47500000D03*
X152375000Y-47500000D03*
X136725000Y-49700000D03*
X138275000Y-49700000D03*
D40*
X148565001Y-40350000D03*
X148565001Y-41650000D03*
X150565001Y-41000000D03*
D41*
X150400000Y-36650000D03*
X154250000Y-48950000D03*
X148000000Y-75500000D03*
X159700000Y-60100000D03*
X157500000Y-44450000D03*
X151100000Y-59200000D03*
X144350000Y-55350000D03*
X154175500Y-52900000D03*
X167200000Y-50300000D03*
X167200000Y-56100000D03*
X165200000Y-50200000D03*
X165200000Y-56100000D03*
X162900000Y-54900000D03*
X162900000Y-51700000D03*
X155150000Y-55000000D03*
X129100000Y-60850000D03*
X129100000Y-55750000D03*
X129050000Y-50700000D03*
X128900000Y-67100000D03*
X149850000Y-71100000D03*
X155450000Y-75350000D03*
X130500000Y-39100000D03*
X133050000Y-38850000D03*
X140250000Y-41100000D03*
X147100000Y-36550000D03*
X148550000Y-42450000D03*
X147750000Y-44450000D03*
X155750000Y-62000000D03*
X144650000Y-63350000D03*
X132850000Y-49850000D03*
X151550000Y-39150000D03*
X156100000Y-31900000D03*
X146500000Y-31700000D03*
X141891041Y-31790637D03*
X136200000Y-42300000D03*
X132550000Y-55700000D03*
X137150000Y-62000000D03*
X132550000Y-61000000D03*
X160650000Y-64200000D03*
X162250000Y-59050000D03*
X164150000Y-60550000D03*
X160200000Y-47500000D03*
X162700000Y-47300000D03*
X167100000Y-47100000D03*
X166800000Y-59100000D03*
X149700000Y-64500000D03*
X142750000Y-44600000D03*
X142962774Y-41975061D03*
X145900000Y-46600000D03*
X144900500Y-59724393D03*
X156200000Y-63124451D03*
X155100000Y-46400000D03*
X152600000Y-45700000D03*
X146800000Y-57400000D03*
X150000000Y-57100000D03*
X150000000Y-60400000D03*
X152300000Y-60200000D03*
X152600000Y-55100000D03*
X154800000Y-50200000D03*
X146600000Y-61000000D03*
X144400000Y-51400000D03*
X146800000Y-54800000D03*
X144691785Y-40723973D03*
X147100000Y-50650000D03*
X143700000Y-40600000D03*
X146488000Y-51187033D03*
X150700000Y-46700000D03*
X146400000Y-49000000D03*
X145000000Y-45900000D03*
X141200000Y-55450002D03*
X138400000Y-67450000D03*
X141200000Y-61450016D03*
X141199972Y-62750000D03*
X141200000Y-56823497D03*
X140686285Y-50986285D03*
X141500000Y-67350002D03*
X140581383Y-47050000D03*
X160751019Y-49723240D03*
X160590479Y-50764075D03*
X160500000Y-55600000D03*
X156550000Y-52900000D03*
X160366955Y-52235500D03*
X135400000Y-49700000D03*
X139800000Y-58100000D03*
X139500000Y-63400000D03*
X135500000Y-54600000D03*
X142299311Y-51399311D03*
X149800000Y-41700000D03*
X157500000Y-39379990D03*
X144681609Y-65513445D03*
X139371416Y-51602802D03*
X139200000Y-47400000D03*
X137000000Y-41100000D03*
X135600000Y-66500000D03*
X135400000Y-60700000D03*
X150900000Y-69600000D03*
X158700000Y-62225000D03*
X158700000Y-68775000D03*
X134675000Y-45475000D03*
X155700000Y-65000000D03*
X142049500Y-46936993D03*
X142950000Y-57925000D03*
X143000000Y-63950000D03*
X145375000Y-68475000D03*
X136800000Y-45000000D03*
X151800000Y-41800000D03*
D42*
X156200000Y-63124451D02*
X154924451Y-64400000D01*
X154924451Y-64400000D02*
X151847918Y-64400000D01*
X151847918Y-64400000D02*
X149800000Y-62352082D01*
D43*
X157100000Y-60250000D02*
X158000000Y-59350000D01*
X158000000Y-59350000D02*
X160250000Y-59350000D01*
X160250000Y-59350000D02*
X162368000Y-61468000D01*
X162368000Y-61468000D02*
X165862000Y-61468000D01*
X151860000Y-34090000D02*
X148600000Y-37350000D01*
X147100000Y-42025000D02*
X148125000Y-41000000D01*
X148125000Y-41000000D02*
X149200000Y-41000000D01*
X149200000Y-41000000D02*
X150300000Y-39900000D01*
X150300000Y-39900000D02*
X150300000Y-37850000D01*
X150300000Y-37850000D02*
X154400000Y-33750000D01*
X148600000Y-37375000D02*
X149400000Y-38175000D01*
X149400000Y-38175000D02*
X149400000Y-39515001D01*
X149400000Y-39515001D02*
X148565001Y-40350000D01*
X147100000Y-38962500D02*
X148537500Y-38962500D01*
X145100000Y-37125000D02*
X143500000Y-37125000D01*
X146937500Y-38962500D02*
X145100000Y-37125000D01*
D44*
X147100000Y-40375000D02*
X147100000Y-38962500D01*
D45*
X145600000Y-50250001D02*
X145600000Y-52000000D01*
X145600000Y-52000000D02*
X145125000Y-52475000D01*
X145125000Y-52475000D02*
X145125000Y-56325000D01*
D43*
X146488000Y-51187033D02*
X146488000Y-51748508D01*
X146488000Y-51748508D02*
X146851992Y-52112500D01*
X146851992Y-52112500D02*
X147312500Y-52112500D01*
X147100000Y-50650000D02*
X147112500Y-50662500D01*
X147112500Y-50662500D02*
X147112500Y-51612500D01*
X147312500Y-53112500D02*
X146012500Y-53112500D01*
D45*
X140951471Y-56223497D02*
X145023497Y-56223497D01*
X145023497Y-56223497D02*
X145025000Y-56225000D01*
X145025000Y-56225000D02*
X145600000Y-56800000D01*
X145600000Y-56800000D02*
X145600000Y-62100000D01*
X139980000Y-54700000D02*
X139980000Y-55266004D01*
X139980000Y-55266004D02*
X140944482Y-56230486D01*
X140944482Y-56230486D02*
X140951471Y-56223497D01*
D42*
X138400000Y-67450000D02*
X138275000Y-67575000D01*
X138275000Y-67575000D02*
X133885000Y-67575000D01*
X133885000Y-67575000D02*
X130300000Y-71160000D01*
D44*
X138400000Y-67450000D02*
X138400000Y-66512500D01*
X141199972Y-62750000D02*
X140337500Y-62750000D01*
X140337500Y-62750000D02*
X138287500Y-60700000D01*
X138400000Y-54600000D02*
X140623497Y-56823497D01*
X140623497Y-56823497D02*
X141200000Y-56823497D01*
D45*
X139980000Y-53700000D02*
X138900000Y-53700000D01*
X138900000Y-53700000D02*
X138287500Y-53087500D01*
X138287500Y-53087500D02*
X132192500Y-53087500D01*
X132192500Y-53087500D02*
X130800000Y-54480000D01*
X139980000Y-48800000D02*
X138896814Y-48800000D01*
X138896814Y-48800000D02*
X138284314Y-48187500D01*
X138284314Y-48187500D02*
X132012500Y-48187500D01*
X132012500Y-48187500D02*
X130800000Y-49400000D01*
X157000000Y-49506346D02*
X157000000Y-47625000D01*
X157000000Y-47625000D02*
X158500000Y-46125000D01*
D44*
X151100000Y-61100000D02*
X152300000Y-62300000D01*
X151100000Y-59200000D02*
X151100000Y-61100000D01*
D46*
X144520000Y-54250000D02*
X144520000Y-55180000D01*
X144520000Y-55180000D02*
X144350000Y-55350000D01*
X144470000Y-54200000D02*
X144520000Y-54250000D01*
X143820000Y-54200000D02*
X144470000Y-54200000D01*
D47*
X139371416Y-51602802D02*
X139554899Y-51786285D01*
X139554899Y-51786285D02*
X141912337Y-51786285D01*
X141912337Y-51786285D02*
X142299311Y-51399311D01*
D42*
X140581383Y-47050000D02*
X140581383Y-43431383D01*
X140581383Y-43431383D02*
X140550000Y-43400000D01*
D44*
X140686285Y-50986285D02*
X139956981Y-50986285D01*
X139956981Y-50986285D02*
X138670696Y-49700000D01*
X138670696Y-49700000D02*
X138287500Y-49700000D01*
D48*
X138750000Y-43400000D02*
X140550000Y-43400000D01*
X140550000Y-43400000D02*
X141200000Y-43400000D01*
D46*
X144575000Y-53095000D02*
X144575000Y-51575000D01*
X144575000Y-51575000D02*
X144400000Y-51400000D01*
X144575000Y-53095000D02*
X144470000Y-53200000D01*
X144470000Y-53200000D02*
X143820000Y-53200000D01*
D48*
X141200000Y-43400000D02*
X145050000Y-43400000D01*
X138750000Y-45700000D02*
X138050000Y-45000000D01*
X138050000Y-45000000D02*
X136800000Y-45000000D01*
X131800000Y-36900000D02*
X131800000Y-40000000D01*
X131800000Y-40000000D02*
X136800000Y-45000000D01*
D46*
X155437500Y-51950000D02*
X157870000Y-51950000D01*
X155437500Y-53850000D02*
X157890000Y-53850000D01*
D43*
X150300000Y-45200000D02*
X151600000Y-46500000D01*
X154175500Y-52900000D02*
X154175500Y-51475500D01*
X152600000Y-50500000D02*
X151600000Y-49500000D01*
X154175500Y-51475500D02*
X153200000Y-50500000D01*
X151600000Y-49500000D02*
X151600000Y-46500000D01*
X153200000Y-50500000D02*
X152600000Y-50500000D01*
X151187500Y-53112500D02*
X152040749Y-53112500D01*
X152040749Y-53112500D02*
X152778249Y-53850000D01*
X151187500Y-52612500D02*
X151748008Y-52612500D01*
X151748008Y-52612500D02*
X152410508Y-51950000D01*
X152410508Y-51950000D02*
X153162500Y-51950000D01*
X147412500Y-47500000D02*
X148175000Y-46737500D01*
X148175000Y-46737500D02*
X148175000Y-45425000D01*
X148175000Y-45425000D02*
X148400000Y-45200000D01*
X148400000Y-45200000D02*
X150300000Y-45200000D01*
D44*
X153162500Y-52900000D02*
X154175500Y-52900000D01*
D46*
X160677616Y-52985500D02*
X160550000Y-52985500D01*
X160550000Y-52985500D02*
X159565500Y-52985500D01*
X161545000Y-53950000D02*
X160677616Y-53950000D01*
X160550000Y-53822384D02*
X160550000Y-52985500D01*
X160677616Y-53950000D02*
X160550000Y-53822384D01*
X161545000Y-53450000D02*
X162470000Y-53450000D01*
X162470000Y-53450000D02*
X162470000Y-52450000D01*
X162470000Y-52450000D02*
X161545000Y-52450000D01*
X161545000Y-52950000D02*
X160713116Y-52950000D01*
X159565500Y-52985500D02*
X158200000Y-51620000D01*
X160713116Y-52950000D02*
X160677616Y-52985500D01*
X161545000Y-52450000D02*
X160581455Y-52450000D01*
X160581455Y-52450000D02*
X160366955Y-52235500D01*
X151187500Y-53612500D02*
X151690748Y-53612500D01*
X151690748Y-53612500D02*
X152120000Y-54041752D01*
X152120000Y-54620000D02*
X152600000Y-55100000D01*
X152120000Y-54041752D02*
X152120000Y-54620000D01*
X147500000Y-61200000D02*
X147500000Y-70082943D01*
X147500000Y-70082943D02*
X144780000Y-72802943D01*
X144780000Y-72802943D02*
X144780000Y-74080000D01*
X144780000Y-74080000D02*
X145200000Y-74500000D01*
X145200000Y-74500000D02*
X147320000Y-74500000D01*
X147320000Y-74500000D02*
X148520000Y-73300000D01*
X148000000Y-61407106D02*
X148000000Y-71280000D01*
X148000000Y-71280000D02*
X145980000Y-73300000D01*
D44*
X160751019Y-49723240D02*
X160200000Y-49172221D01*
X160200000Y-49172221D02*
X160200000Y-47500000D01*
D43*
X155650000Y-66500000D02*
X157100000Y-65050000D01*
X151150000Y-73300000D02*
X155650000Y-68800000D01*
X155650000Y-68800000D02*
X155650000Y-66500000D01*
X157100000Y-65050000D02*
X157100000Y-64350000D01*
D45*
X145600000Y-50250001D02*
X145600000Y-48600000D01*
X145600000Y-48600000D02*
X146600000Y-47600000D01*
X146600000Y-47600000D02*
X146600000Y-43800000D01*
X146600000Y-43800000D02*
X147200000Y-43200000D01*
X147200000Y-43200000D02*
X147200000Y-42087500D01*
D46*
X149000000Y-54800000D02*
X149000000Y-60407106D01*
X149000000Y-60407106D02*
X148000000Y-61407106D01*
X143820000Y-49300000D02*
X142400000Y-49300000D01*
X143820000Y-48800000D02*
X141900000Y-48800000D01*
X143820000Y-48300000D02*
X142400000Y-48300000D01*
X143820000Y-53700000D02*
X141900000Y-53700000D01*
X143820000Y-53200000D02*
X142400000Y-53200000D01*
X143820000Y-54200000D02*
X142400000Y-54200000D01*
D44*
X141900000Y-48800000D02*
X141900000Y-47086493D01*
X141900000Y-47086493D02*
X142049500Y-46936993D01*
X142299311Y-53300689D02*
X142299311Y-51399311D01*
X141900000Y-58975000D02*
X142950000Y-57925000D01*
X142000000Y-64950000D02*
X143000000Y-63950000D01*
D46*
X144376107Y-59200000D02*
X143820000Y-59200000D01*
X144900500Y-59724393D02*
X144376107Y-59200000D01*
X144900500Y-59724393D02*
X144876107Y-59700000D01*
X144876107Y-59700000D02*
X143820000Y-59700000D01*
X143920000Y-65600000D02*
X144595054Y-65600000D01*
X144595054Y-65600000D02*
X144681609Y-65513445D01*
X143920000Y-65100000D02*
X144268164Y-65100000D01*
X144268164Y-65100000D02*
X144681609Y-65513445D01*
D44*
X151800000Y-41800000D02*
X151365001Y-41800000D01*
X151365001Y-41800000D02*
X150565001Y-41000000D01*
D46*
X148500000Y-54800000D02*
X148500000Y-60200000D01*
X148500000Y-60200000D02*
X147500000Y-61200000D01*
X151187500Y-53612500D02*
X150000000Y-53612500D01*
X151187500Y-51612500D02*
X151187500Y-52112500D01*
X150500000Y-50925000D02*
X151187500Y-51612500D01*
X150812500Y-50087500D02*
X150500000Y-50400000D01*
X150500000Y-50400000D02*
X150500000Y-50925000D01*
D43*
X144691785Y-40723973D02*
X144691785Y-40566480D01*
X144691785Y-40566480D02*
X142700000Y-38574695D01*
X142700000Y-38574695D02*
X142700000Y-36507538D01*
X143992462Y-36200000D02*
X144300000Y-35892462D01*
X142700000Y-36507538D02*
X143007538Y-36200000D01*
X143007538Y-36200000D02*
X143992462Y-36200000D01*
X144300000Y-35892462D02*
X144300000Y-33312500D01*
X144300000Y-33312500D02*
X145100000Y-32512500D01*
X143700000Y-40600000D02*
X142000000Y-38900000D01*
X142000000Y-38900000D02*
X142000000Y-34012500D01*
X142000000Y-34012500D02*
X143500000Y-32512500D01*
D45*
X141900000Y-47775000D02*
X142049500Y-47625500D01*
X142049500Y-47625500D02*
X142049500Y-46936993D01*
X141900000Y-53000000D02*
X142299311Y-52600689D01*
X142299311Y-52600689D02*
X142299311Y-51399311D01*
D43*
X145100000Y-35475000D02*
X145100000Y-34087500D01*
X143500000Y-35475000D02*
X143500000Y-34087500D01*
X149500000Y-50925000D02*
X149500000Y-49867875D01*
X149500000Y-49867875D02*
X148987500Y-49355375D01*
X148987500Y-49355375D02*
X148987500Y-49000000D01*
X149750000Y-49481479D02*
X150000000Y-49731479D01*
X150000000Y-49731479D02*
X150000000Y-50925000D01*
D44*
X150812500Y-47500000D02*
X150812500Y-49000000D01*
X150700000Y-46700000D02*
X150700000Y-47387500D01*
X145050000Y-43400000D02*
X145050000Y-45850000D01*
X145050000Y-45850000D02*
X145000000Y-45900000D01*
X146400000Y-49000000D02*
X147412500Y-49000000D01*
D45*
X143419998Y-55450002D02*
X141200000Y-55450002D01*
X143820000Y-54700000D02*
X143820000Y-55050000D01*
X143820000Y-55050000D02*
X143419998Y-55450002D01*
X143920000Y-66600000D02*
X143920000Y-67050000D01*
X144470001Y-61090001D02*
X144109986Y-61450016D01*
X144470001Y-60300001D02*
X144470001Y-61090001D01*
X141200000Y-61450016D02*
X144109986Y-61450016D01*
X143820000Y-60200000D02*
X144370000Y-60200000D01*
X144370000Y-60200000D02*
X144470001Y-60300001D01*
X143619998Y-67350002D02*
X141500000Y-67350002D01*
X143920000Y-67050000D02*
X143619998Y-67350002D01*
D44*
X145050000Y-42462500D02*
X147100000Y-40412500D01*
D46*
X150812500Y-50087500D02*
X150812500Y-49000000D01*
D43*
X148987500Y-47500000D02*
X148987500Y-46000000D01*
X149750000Y-48262500D02*
X148987500Y-47500000D01*
X149750000Y-49481479D02*
X149750000Y-48262500D01*
D44*
X161027779Y-50000000D02*
X160751019Y-49723240D01*
X161545000Y-50000000D02*
X161027779Y-50000000D01*
X160590479Y-50764075D02*
X158906404Y-49080000D01*
X158906404Y-49080000D02*
X158200000Y-49080000D01*
D45*
X161545000Y-54450000D02*
X160300000Y-54450000D01*
X160300000Y-54450000D02*
X159200000Y-55550000D01*
X159200000Y-55550000D02*
X156075000Y-55550000D01*
X156075000Y-55550000D02*
X155025000Y-56600000D01*
X161530925Y-51464075D02*
X160300529Y-51464075D01*
X160300529Y-51464075D02*
X159066454Y-50230000D01*
X159066454Y-50230000D02*
X157723654Y-50230000D01*
X157723654Y-50230000D02*
X157000000Y-49506346D01*
D44*
X160626404Y-50800000D02*
X160590479Y-50764075D01*
X161545000Y-50800000D02*
X160626404Y-50800000D01*
X161495000Y-56450000D02*
X158450000Y-56450000D01*
X161545000Y-55600000D02*
X160500000Y-55600000D01*
D46*
X166287500Y-48915000D02*
X162107500Y-48915000D01*
X166287500Y-57555000D02*
X166287500Y-48915000D01*
X162107500Y-57555000D02*
X166287500Y-57555000D01*
D45*
X143820000Y-48300000D02*
X143820000Y-48800000D01*
X143820000Y-48800000D02*
X143820000Y-49300000D01*
X143820000Y-49300000D02*
X143820000Y-49800000D01*
X140900000Y-52700000D02*
X139980000Y-52700000D01*
X143820000Y-54200000D02*
X143820000Y-53700000D01*
X143820000Y-53700000D02*
X143820000Y-53200000D01*
X143820000Y-59700000D02*
X141900000Y-59700000D01*
X143820000Y-60700000D02*
X142900000Y-60700000D01*
X140900000Y-58700000D02*
X139980000Y-58700000D01*
X143920000Y-65100000D02*
X142500000Y-65100000D01*
X143920000Y-65600000D02*
X142000000Y-65600000D01*
X141000000Y-64600000D02*
X140080000Y-64600000D01*
X143820000Y-49800000D02*
X142900000Y-49800000D01*
X143820000Y-59200000D02*
X142400000Y-59200000D01*
X139980000Y-58700000D02*
X139980000Y-58280000D01*
X139980000Y-58280000D02*
X139800000Y-58100000D01*
X140080000Y-64600000D02*
X140080000Y-63980000D01*
X140080000Y-63980000D02*
X139500000Y-63400000D01*
X148565001Y-41650000D02*
X149750000Y-41650000D01*
X149750000Y-41650000D02*
X149800000Y-41700000D01*
X157487500Y-39392490D02*
X157500000Y-39379990D01*
X157400000Y-39279990D02*
X157500000Y-39379990D01*
X139980000Y-47800000D02*
X140900000Y-47800000D01*
X139371416Y-51602802D02*
X139980000Y-52211386D01*
X139980000Y-52700000D02*
X139980000Y-52211386D01*
X139600000Y-47800000D02*
X139200000Y-47400000D01*
X139980000Y-47800000D02*
X139600000Y-47800000D01*
X138750000Y-41100000D02*
X137000000Y-41100000D01*
X138787500Y-66100000D02*
X138387500Y-66500000D01*
X140080000Y-66100000D02*
X138787500Y-66100000D01*
X138787500Y-60200000D02*
X138287500Y-60700000D01*
X139980000Y-60200000D02*
X138787500Y-60200000D01*
X138687500Y-54200000D02*
X138287500Y-54600000D01*
X139980000Y-54200000D02*
X138687500Y-54200000D01*
X138687500Y-49300000D02*
X138287500Y-49700000D01*
X139980000Y-49300000D02*
X138687500Y-49300000D01*
X143920000Y-66100000D02*
X143920000Y-66600000D01*
X139980000Y-60700000D02*
X139980000Y-61266020D01*
X139980000Y-61266020D02*
X140863998Y-62150018D01*
X139980000Y-50150000D02*
X139980000Y-49800000D01*
X140080001Y-50250001D02*
X139980000Y-50150000D01*
X145600000Y-50250001D02*
X140080001Y-50250001D01*
X145549982Y-62150018D02*
X145600000Y-62100000D01*
X140863998Y-62150018D02*
X145549982Y-62150018D01*
X141180004Y-68050004D02*
X144419996Y-68050004D01*
X144419996Y-68050004D02*
X145600000Y-66870000D01*
X140080000Y-66950000D02*
X141180004Y-68050004D01*
X145600000Y-66870000D02*
X145600000Y-62100000D01*
X140080000Y-66600000D02*
X140080000Y-66950000D01*
D43*
X154650000Y-73300000D02*
X153600000Y-73300000D01*
X154750000Y-73300000D02*
X154650000Y-73300000D01*
X157100000Y-70950000D02*
X154750000Y-73300000D01*
X157100000Y-66800000D02*
X157100000Y-70900000D01*
X165012001Y-65698001D02*
X165862000Y-66548000D01*
X157501999Y-65698001D02*
X165012001Y-65698001D01*
X157100000Y-66800000D02*
X157100000Y-66100000D01*
X157100000Y-66100000D02*
X157501999Y-65698001D01*
X157100000Y-60250000D02*
X157100000Y-64350000D01*
D45*
X138200000Y-51512500D02*
X139025010Y-52337510D01*
X139330000Y-53200000D02*
X139025010Y-52895010D01*
X139025010Y-52895010D02*
X139025010Y-52337510D01*
X139980000Y-53200000D02*
X139330000Y-53200000D01*
X138200000Y-51512500D02*
X131227500Y-51512500D01*
X139980000Y-48300000D02*
X138962500Y-48300000D01*
X137275000Y-46612500D02*
X136700000Y-46612500D01*
X138962500Y-48300000D02*
X137275000Y-46612500D01*
X136700000Y-46612500D02*
X131047500Y-46612500D01*
X138712500Y-59700000D02*
X138200000Y-59187500D01*
X139980000Y-59700000D02*
X138712500Y-59700000D01*
X138200000Y-59187500D02*
X131172500Y-59187500D01*
X138200000Y-57612500D02*
X139025010Y-58437510D01*
X139025010Y-58895010D02*
X139025010Y-58437510D01*
X139330000Y-59200000D02*
X139025010Y-58895010D01*
X139980000Y-59200000D02*
X139330000Y-59200000D01*
X138200000Y-57612500D02*
X131392500Y-57612500D01*
X138300000Y-63412500D02*
X139125010Y-64237510D01*
X139125010Y-64795010D02*
X139125010Y-64237510D01*
X139430000Y-65100000D02*
X139125010Y-64795010D01*
X140080000Y-65100000D02*
X139430000Y-65100000D01*
X132112500Y-63412500D02*
X130800000Y-62100000D01*
X138300000Y-63412500D02*
X132112500Y-63412500D01*
X138912500Y-65600000D02*
X138300000Y-64987500D01*
X140080000Y-65600000D02*
X138912500Y-65600000D01*
X138300000Y-64987500D02*
X131147500Y-64987500D01*
G04 #@! TA.AperFunction,Conductor*
G36*
X160108737Y-59749502D02*
G01*
X160129711Y-59766405D01*
X162062580Y-61699274D01*
X162078968Y-61719454D01*
X162084930Y-61728579D01*
X162084932Y-61728582D01*
X162113221Y-61750600D01*
X162119078Y-61755773D01*
X162121879Y-61758574D01*
X162121886Y-61758580D01*
X162140037Y-61771539D01*
X162142110Y-61773084D01*
X162156304Y-61784132D01*
X162184880Y-61806375D01*
X162191860Y-61810152D01*
X162199015Y-61813649D01*
X162199020Y-61813653D01*
X162239486Y-61825699D01*
X162250946Y-61829111D01*
X162253428Y-61829907D01*
X162274566Y-61837163D01*
X162304673Y-61847500D01*
X162304680Y-61847500D01*
X162312485Y-61848803D01*
X162320407Y-61849790D01*
X162320409Y-61849791D01*
X162320410Y-61849790D01*
X162320411Y-61849791D01*
X162335546Y-61849165D01*
X162374510Y-61847553D01*
X162377104Y-61847500D01*
X164631501Y-61847500D01*
X164699622Y-61867502D01*
X164746115Y-61921158D01*
X164757501Y-61973500D01*
X164757501Y-62343072D01*
X164772265Y-62417300D01*
X164828516Y-62501484D01*
X164912697Y-62557733D01*
X164912699Y-62557734D01*
X164986933Y-62572500D01*
X165163755Y-62572499D01*
X165231873Y-62592501D01*
X165278366Y-62646156D01*
X165288471Y-62716430D01*
X165258978Y-62781011D01*
X165223723Y-62809312D01*
X165116704Y-62867228D01*
X165116698Y-62867232D01*
X164939097Y-63005465D01*
X164786674Y-63171041D01*
X164663580Y-63359451D01*
X164573179Y-63565543D01*
X164573176Y-63565550D01*
X164525455Y-63753999D01*
X164525456Y-63754000D01*
X165430884Y-63754000D01*
X165402507Y-63798156D01*
X165362000Y-63936111D01*
X165362000Y-64079889D01*
X165402507Y-64217844D01*
X165430884Y-64262000D01*
X164525455Y-64262000D01*
X164573176Y-64450449D01*
X164573179Y-64450456D01*
X164663580Y-64656548D01*
X164786674Y-64844958D01*
X164939100Y-65010537D01*
X165045137Y-65093070D01*
X165086608Y-65150695D01*
X165090341Y-65221593D01*
X165055151Y-65283255D01*
X164992211Y-65316103D01*
X164967746Y-65318501D01*
X159685572Y-65318501D01*
X159617451Y-65298499D01*
X159570958Y-65244843D01*
X159560854Y-65174569D01*
X159584703Y-65116992D01*
X159600445Y-65095962D01*
X159651494Y-64959093D01*
X159657999Y-64898597D01*
X159658000Y-64898585D01*
X159658000Y-64604000D01*
X158572000Y-64604000D01*
X158503879Y-64583998D01*
X158457386Y-64530342D01*
X158446000Y-64478000D01*
X158446000Y-63342000D01*
X158954000Y-63342000D01*
X158954000Y-64096000D01*
X159658000Y-64096000D01*
X159658000Y-63801414D01*
X159657999Y-63801402D01*
X159651494Y-63740906D01*
X159600444Y-63604035D01*
X159600444Y-63604034D01*
X159512904Y-63487095D01*
X159395965Y-63399555D01*
X159259093Y-63348505D01*
X159198597Y-63342000D01*
X158954000Y-63342000D01*
X158446000Y-63342000D01*
X158201402Y-63342000D01*
X158140906Y-63348505D01*
X158004035Y-63399555D01*
X158004034Y-63399555D01*
X157887094Y-63487096D01*
X157817917Y-63579505D01*
X157761081Y-63622051D01*
X157690265Y-63627115D01*
X157660918Y-63614650D01*
X157660768Y-63615015D01*
X157649304Y-63610266D01*
X157580917Y-63596663D01*
X157518008Y-63563755D01*
X157482877Y-63502059D01*
X157479500Y-63473084D01*
X157479500Y-61126914D01*
X157499502Y-61058793D01*
X157553158Y-61012300D01*
X157580920Y-61003335D01*
X157598028Y-60999931D01*
X157649301Y-60989734D01*
X157649304Y-60989731D01*
X157660767Y-60984985D01*
X157661485Y-60986720D01*
X157714785Y-60970023D01*
X157783254Y-60988798D01*
X157817918Y-61020494D01*
X157887095Y-61112904D01*
X158004034Y-61200444D01*
X158140906Y-61251494D01*
X158201402Y-61257999D01*
X158201415Y-61258000D01*
X158446000Y-61258000D01*
X158446000Y-60504000D01*
X158954000Y-60504000D01*
X158954000Y-61258000D01*
X159198585Y-61258000D01*
X159198597Y-61257999D01*
X159259093Y-61251494D01*
X159395964Y-61200444D01*
X159395965Y-61200444D01*
X159512904Y-61112904D01*
X159600444Y-60995965D01*
X159600444Y-60995964D01*
X159651494Y-60859093D01*
X159657999Y-60798597D01*
X159658000Y-60798585D01*
X159658000Y-60504000D01*
X158954000Y-60504000D01*
X158446000Y-60504000D01*
X158446000Y-60122000D01*
X158466002Y-60053879D01*
X158519658Y-60007386D01*
X158572000Y-59996000D01*
X159658000Y-59996000D01*
X159658000Y-59855500D01*
X159678002Y-59787379D01*
X159731658Y-59740886D01*
X159784000Y-59729500D01*
X160040616Y-59729500D01*
X160108737Y-59749502D01*
G37*
G04 #@! TD.AperFunction*
G04 #@! TA.AperFunction,Conductor*
G36*
X137672614Y-31370502D02*
G01*
X137719107Y-31424158D01*
X137729211Y-31494432D01*
X137699717Y-31559012D01*
X137639991Y-31597396D01*
X137611087Y-31602327D01*
X137532817Y-31606428D01*
X137169646Y-31663948D01*
X136814489Y-31759112D01*
X136814476Y-31759116D01*
X136471219Y-31890880D01*
X136471211Y-31890884D01*
X136143602Y-32057809D01*
X136143596Y-32057812D01*
X135835227Y-32258068D01*
X135835222Y-32258072D01*
X135604287Y-32445078D01*
X137033538Y-33874329D01*
X136975523Y-33912232D01*
X136792632Y-34080596D01*
X136673914Y-34233123D01*
X135245078Y-32804287D01*
X135058072Y-33035222D01*
X135058068Y-33035227D01*
X134857812Y-33343596D01*
X134857809Y-33343602D01*
X134690884Y-33671211D01*
X134690880Y-33671219D01*
X134559116Y-34014476D01*
X134559112Y-34014489D01*
X134463948Y-34369646D01*
X134406428Y-34732817D01*
X134387186Y-35099992D01*
X134387186Y-35100007D01*
X134406428Y-35467182D01*
X134463948Y-35830353D01*
X134559112Y-36185510D01*
X134559116Y-36185523D01*
X134690880Y-36528780D01*
X134690884Y-36528788D01*
X134857809Y-36856397D01*
X134857812Y-36856403D01*
X135058077Y-37164784D01*
X135058081Y-37164789D01*
X135245077Y-37395710D01*
X135245078Y-37395711D01*
X136673913Y-35966875D01*
X136792632Y-36119404D01*
X136975523Y-36287768D01*
X137033537Y-36325670D01*
X135604287Y-37754920D01*
X135604288Y-37754921D01*
X135835210Y-37941918D01*
X135835215Y-37941922D01*
X136143596Y-38142187D01*
X136143602Y-38142190D01*
X136471211Y-38309115D01*
X136471219Y-38309119D01*
X136814476Y-38440883D01*
X136814489Y-38440887D01*
X137169646Y-38536051D01*
X137532817Y-38593571D01*
X137899993Y-38612814D01*
X137900007Y-38612814D01*
X138267182Y-38593571D01*
X138630353Y-38536051D01*
X138985510Y-38440887D01*
X138985523Y-38440883D01*
X139328780Y-38309119D01*
X139328788Y-38309115D01*
X139656397Y-38142190D01*
X139656403Y-38142187D01*
X139964782Y-37941924D01*
X140195711Y-37754920D01*
X138766461Y-36325670D01*
X138824477Y-36287768D01*
X139007368Y-36119404D01*
X139126085Y-35966876D01*
X140554920Y-37395711D01*
X140741924Y-37164782D01*
X140942187Y-36856403D01*
X140942190Y-36856397D01*
X141109115Y-36528788D01*
X141109119Y-36528780D01*
X141240883Y-36185523D01*
X141240887Y-36185510D01*
X141336051Y-35830353D01*
X141370051Y-35615684D01*
X141400463Y-35551531D01*
X141460731Y-35514003D01*
X141531721Y-35515017D01*
X141590893Y-35554249D01*
X141619461Y-35619245D01*
X141620500Y-35635394D01*
X141620500Y-38847573D01*
X141617818Y-38873430D01*
X141615580Y-38884099D01*
X141617905Y-38902746D01*
X141620016Y-38919683D01*
X141620500Y-38927473D01*
X141620500Y-38931443D01*
X141622907Y-38945870D01*
X141624170Y-38953440D01*
X141624544Y-38956013D01*
X141631247Y-39009781D01*
X141633517Y-39017406D01*
X141636099Y-39024927D01*
X141661875Y-39072556D01*
X141663065Y-39074869D01*
X141679108Y-39107683D01*
X141686874Y-39123568D01*
X141686875Y-39123569D01*
X141691493Y-39130038D01*
X141696376Y-39136312D01*
X141736242Y-39173011D01*
X141738096Y-39174790D01*
X142433053Y-39869747D01*
X143107045Y-40543739D01*
X143141071Y-40606051D01*
X143142872Y-40616387D01*
X143159771Y-40744752D01*
X143215644Y-40879641D01*
X143215649Y-40879649D01*
X143304525Y-40995474D01*
X143420350Y-41084350D01*
X143420357Y-41084355D01*
X143555246Y-41140228D01*
X143700000Y-41159285D01*
X143722060Y-41156380D01*
X143792204Y-41167318D01*
X143845304Y-41214444D01*
X143864496Y-41282798D01*
X143843687Y-41350676D01*
X143843270Y-41351304D01*
X143810266Y-41400697D01*
X143795500Y-41474930D01*
X143795500Y-42519500D01*
X143775498Y-42587621D01*
X143721842Y-42634114D01*
X143669500Y-42645500D01*
X140111996Y-42645500D01*
X140043875Y-42625498D01*
X139997382Y-42571842D01*
X139993459Y-42559692D01*
X139989734Y-42550699D01*
X139945430Y-42484394D01*
X139924215Y-42416642D01*
X139942998Y-42348175D01*
X139989818Y-42303800D01*
X139995966Y-42300443D01*
X140112904Y-42212904D01*
X140200444Y-42095965D01*
X140200444Y-42095964D01*
X140251494Y-41959093D01*
X140257999Y-41898597D01*
X140258000Y-41898585D01*
X140258000Y-41354000D01*
X137242000Y-41354000D01*
X137242000Y-41898597D01*
X137248505Y-41959093D01*
X137299555Y-42095964D01*
X137299555Y-42095965D01*
X137387095Y-42212904D01*
X137504036Y-42300445D01*
X137510184Y-42303802D01*
X137560389Y-42354001D01*
X137575483Y-42423375D01*
X137554569Y-42484394D01*
X137510266Y-42550697D01*
X137495500Y-42624930D01*
X137495500Y-42624933D01*
X137495500Y-43379065D01*
X137495501Y-44119500D01*
X137475499Y-44187621D01*
X137421843Y-44234114D01*
X137369501Y-44245500D01*
X137164715Y-44245500D01*
X137096594Y-44225498D01*
X137075620Y-44208595D01*
X133713025Y-40846000D01*
X137242000Y-40846000D01*
X138496000Y-40846000D01*
X138496000Y-39842000D01*
X139004000Y-39842000D01*
X139004000Y-40846000D01*
X140258000Y-40846000D01*
X140258000Y-40301414D01*
X140257999Y-40301402D01*
X140251494Y-40240906D01*
X140200444Y-40104035D01*
X140200444Y-40104034D01*
X140112904Y-39987095D01*
X139995965Y-39899555D01*
X139859093Y-39848505D01*
X139798597Y-39842000D01*
X139004000Y-39842000D01*
X138496000Y-39842000D01*
X137701402Y-39842000D01*
X137640906Y-39848505D01*
X137504035Y-39899555D01*
X137504034Y-39899555D01*
X137387095Y-39987095D01*
X137299555Y-40104034D01*
X137299555Y-40104035D01*
X137248505Y-40240906D01*
X137242000Y-40301402D01*
X137242000Y-40846000D01*
X133713025Y-40846000D01*
X132591405Y-39724380D01*
X132557379Y-39662068D01*
X132554500Y-39635285D01*
X132554500Y-37890944D01*
X132574502Y-37822823D01*
X132602612Y-37791902D01*
X132679586Y-37731368D01*
X132715659Y-37703000D01*
X132853792Y-37543587D01*
X132959259Y-37360913D01*
X133028248Y-37161580D01*
X133034190Y-37120251D01*
X133058267Y-36952794D01*
X133054335Y-36870244D01*
X133048231Y-36742098D01*
X132998501Y-36537110D01*
X132910876Y-36345238D01*
X132788522Y-36173416D01*
X132635862Y-36027855D01*
X132571721Y-35986634D01*
X132525229Y-35932979D01*
X132515125Y-35862705D01*
X132544618Y-35798125D01*
X132604345Y-35759741D01*
X132627037Y-35755289D01*
X132704324Y-35747393D01*
X132872525Y-35691657D01*
X133023339Y-35598634D01*
X133023345Y-35598629D01*
X133148629Y-35473345D01*
X133148634Y-35473339D01*
X133241657Y-35322525D01*
X133297393Y-35154321D01*
X133297394Y-35154318D01*
X133307999Y-35050516D01*
X133308000Y-35050516D01*
X133308000Y-34654000D01*
X132231116Y-34654000D01*
X132259493Y-34609844D01*
X132300000Y-34471889D01*
X132300000Y-34328111D01*
X132259493Y-34190156D01*
X132231116Y-34146000D01*
X133308000Y-34146000D01*
X133308000Y-33749483D01*
X133297394Y-33645681D01*
X133297393Y-33645678D01*
X133241657Y-33477474D01*
X133148634Y-33326660D01*
X133148629Y-33326654D01*
X133023345Y-33201370D01*
X133023339Y-33201365D01*
X132872525Y-33108342D01*
X132704321Y-33052606D01*
X132704318Y-33052605D01*
X132600516Y-33042000D01*
X132054000Y-33042000D01*
X132054000Y-33966325D01*
X131942315Y-33915320D01*
X131835763Y-33900000D01*
X131764237Y-33900000D01*
X131657685Y-33915320D01*
X131545999Y-33966325D01*
X131546000Y-33042000D01*
X130999483Y-33042000D01*
X130895681Y-33052605D01*
X130895678Y-33052606D01*
X130727473Y-33108343D01*
X130689935Y-33131496D01*
X130621455Y-33150232D01*
X130553717Y-33128971D01*
X130508226Y-33074463D01*
X130499426Y-33004014D01*
X130503081Y-32988127D01*
X130521325Y-32927189D01*
X130531214Y-32757412D01*
X130501682Y-32589930D01*
X130501680Y-32589925D01*
X130501680Y-32589924D01*
X130434325Y-32433777D01*
X130430801Y-32429043D01*
X130332767Y-32297360D01*
X130202489Y-32188044D01*
X130050514Y-32111719D01*
X129885033Y-32072500D01*
X129757624Y-32072500D01*
X129757621Y-32072500D01*
X129631084Y-32087290D01*
X129471277Y-32145455D01*
X129329183Y-32238911D01*
X129212483Y-32362607D01*
X129212480Y-32362611D01*
X129127452Y-32509884D01*
X129127450Y-32509890D01*
X129086852Y-32645500D01*
X129078675Y-32672812D01*
X129069352Y-32832876D01*
X129068786Y-32842588D01*
X129089557Y-32960387D01*
X129098319Y-33010074D01*
X129098319Y-33010075D01*
X129165674Y-33166222D01*
X129165677Y-33166226D01*
X129267233Y-33302640D01*
X129397511Y-33411956D01*
X129549486Y-33488281D01*
X129714967Y-33527500D01*
X129714969Y-33527500D01*
X129842379Y-33527500D01*
X129875229Y-33523660D01*
X129968915Y-33512710D01*
X130128724Y-33454544D01*
X130129171Y-33454249D01*
X130129525Y-33454141D01*
X130135283Y-33451250D01*
X130135776Y-33452233D01*
X130197073Y-33433521D01*
X130265403Y-33452794D01*
X130312467Y-33505950D01*
X130323321Y-33576112D01*
X130318024Y-33599145D01*
X130302607Y-33645671D01*
X130302605Y-33645681D01*
X130292000Y-33749483D01*
X130292000Y-34146000D01*
X131368884Y-34146000D01*
X131340507Y-34190156D01*
X131300000Y-34328111D01*
X131300000Y-34471889D01*
X131340507Y-34609844D01*
X131368884Y-34654000D01*
X130292000Y-34654000D01*
X130292000Y-35050516D01*
X130302605Y-35154318D01*
X130302606Y-35154321D01*
X130358342Y-35322525D01*
X130451365Y-35473339D01*
X130451370Y-35473345D01*
X130576654Y-35598629D01*
X130576660Y-35598634D01*
X130727474Y-35691657D01*
X130895675Y-35747393D01*
X130968962Y-35754880D01*
X131034697Y-35781702D01*
X131075496Y-35839805D01*
X131078405Y-35910742D01*
X131042502Y-35971991D01*
X131034045Y-35979270D01*
X130884342Y-36096999D01*
X130884334Y-36097006D01*
X130746212Y-36256407D01*
X130746206Y-36256415D01*
X130640743Y-36439083D01*
X130640739Y-36439092D01*
X130571753Y-36638417D01*
X130571750Y-36638425D01*
X130541732Y-36847205D01*
X130551768Y-37057893D01*
X130551769Y-37057904D01*
X130601498Y-37262886D01*
X130601498Y-37262888D01*
X130601499Y-37262890D01*
X130689124Y-37454762D01*
X130811478Y-37626584D01*
X130811481Y-37626587D01*
X130811486Y-37626593D01*
X130964135Y-37772143D01*
X130987619Y-37787235D01*
X131034113Y-37840890D01*
X131045500Y-37893234D01*
X131045500Y-39935853D01*
X131044170Y-39954113D01*
X131040685Y-39977903D01*
X131040685Y-39977908D01*
X131045259Y-40030205D01*
X131045499Y-40035689D01*
X131045499Y-40043937D01*
X131045500Y-40043948D01*
X131049219Y-40075763D01*
X131049405Y-40077584D01*
X131056056Y-40153609D01*
X131057541Y-40160801D01*
X131057470Y-40160815D01*
X131059076Y-40168057D01*
X131059147Y-40168041D01*
X131060840Y-40175184D01*
X131086936Y-40246887D01*
X131087537Y-40248616D01*
X131111535Y-40321036D01*
X131114637Y-40327687D01*
X131114571Y-40327717D01*
X131117805Y-40334398D01*
X131117870Y-40334366D01*
X131121164Y-40340925D01*
X131163103Y-40404692D01*
X131164088Y-40406237D01*
X131204130Y-40471155D01*
X131208679Y-40476908D01*
X131208622Y-40476953D01*
X131213313Y-40482710D01*
X131213369Y-40482664D01*
X131218088Y-40488288D01*
X131273587Y-40540648D01*
X131274901Y-40541925D01*
X136221130Y-45488154D01*
X136233103Y-45502008D01*
X136247461Y-45521294D01*
X136287687Y-45555047D01*
X136291717Y-45558741D01*
X136297559Y-45564583D01*
X136297562Y-45564586D01*
X136311602Y-45575687D01*
X136322716Y-45584475D01*
X136324081Y-45585586D01*
X136382573Y-45634667D01*
X136382577Y-45634669D01*
X136388708Y-45638702D01*
X136388667Y-45638763D01*
X136394924Y-45642748D01*
X136394963Y-45642686D01*
X136401204Y-45646535D01*
X136401209Y-45646539D01*
X136452062Y-45670252D01*
X136470356Y-45678783D01*
X136472006Y-45679582D01*
X136476628Y-45681903D01*
X136528526Y-45730351D01*
X136545992Y-45799165D01*
X136523481Y-45866499D01*
X136468141Y-45910973D01*
X136420078Y-45920500D01*
X136404128Y-45920500D01*
X136347027Y-45926640D01*
X136217833Y-45974826D01*
X136217832Y-45974827D01*
X136107458Y-46057454D01*
X136107457Y-46057455D01*
X136107456Y-46057456D01*
X136054647Y-46128000D01*
X136024824Y-46167838D01*
X136023225Y-46172124D01*
X136021767Y-46176033D01*
X135979222Y-46232868D01*
X135912702Y-46257679D01*
X135903713Y-46258000D01*
X132036567Y-46258000D01*
X131968446Y-46237998D01*
X131933354Y-46204271D01*
X131916599Y-46180342D01*
X131803122Y-46018281D01*
X131803121Y-46018280D01*
X131803118Y-46018276D01*
X131641727Y-45856885D01*
X131641722Y-45856881D01*
X131641722Y-45856880D01*
X131641719Y-45856878D01*
X131454742Y-45725954D01*
X131454740Y-45725953D01*
X131454741Y-45725953D01*
X131247873Y-45629489D01*
X131247868Y-45629487D01*
X131027392Y-45570411D01*
X130800000Y-45550517D01*
X130572607Y-45570411D01*
X130352131Y-45629487D01*
X130352127Y-45629489D01*
X130145260Y-45725953D01*
X130145258Y-45725954D01*
X129958285Y-45856874D01*
X129958276Y-45856881D01*
X129796881Y-46018276D01*
X129796874Y-46018285D01*
X129665954Y-46205258D01*
X129665953Y-46205260D01*
X129569489Y-46412127D01*
X129569487Y-46412131D01*
X129510411Y-46632607D01*
X129490517Y-46860000D01*
X129510411Y-47087392D01*
X129569487Y-47307868D01*
X129569489Y-47307873D01*
X129665953Y-47514741D01*
X129684274Y-47540906D01*
X129796878Y-47701719D01*
X129796880Y-47701721D01*
X129796881Y-47701722D01*
X129796885Y-47701727D01*
X129958272Y-47863114D01*
X129958277Y-47863118D01*
X129958281Y-47863122D01*
X130145258Y-47994046D01*
X130191920Y-48015805D01*
X130245205Y-48062723D01*
X130264666Y-48131000D01*
X130244124Y-48198960D01*
X130191921Y-48244194D01*
X130145266Y-48265950D01*
X130145258Y-48265954D01*
X129958285Y-48396874D01*
X129958276Y-48396881D01*
X129796881Y-48558276D01*
X129796874Y-48558285D01*
X129665954Y-48745258D01*
X129665953Y-48745260D01*
X129569489Y-48952127D01*
X129569487Y-48952131D01*
X129510411Y-49172607D01*
X129493977Y-49360451D01*
X129490517Y-49400000D01*
X129494891Y-49450000D01*
X129510411Y-49627392D01*
X129569487Y-49847868D01*
X129569489Y-49847873D01*
X129665953Y-50054741D01*
X129665954Y-50054742D01*
X129796878Y-50241719D01*
X129796880Y-50241721D01*
X129796881Y-50241722D01*
X129796885Y-50241727D01*
X129958272Y-50403114D01*
X129958277Y-50403118D01*
X129958281Y-50403122D01*
X130145258Y-50534046D01*
X130191920Y-50555805D01*
X130245205Y-50602723D01*
X130264666Y-50671000D01*
X130244124Y-50738960D01*
X130191921Y-50784194D01*
X130145266Y-50805950D01*
X130145258Y-50805954D01*
X129958285Y-50936874D01*
X129958276Y-50936881D01*
X129796881Y-51098276D01*
X129796874Y-51098285D01*
X129665954Y-51285258D01*
X129665953Y-51285260D01*
X129569489Y-51492127D01*
X129569487Y-51492131D01*
X129510411Y-51712607D01*
X129490517Y-51939999D01*
X129510411Y-52167392D01*
X129569487Y-52387868D01*
X129569489Y-52387873D01*
X129665953Y-52594741D01*
X129687783Y-52625917D01*
X129796878Y-52781719D01*
X129796880Y-52781721D01*
X129796881Y-52781722D01*
X129796885Y-52781727D01*
X129958272Y-52943114D01*
X129958277Y-52943118D01*
X129958281Y-52943122D01*
X130145258Y-53074046D01*
X130191920Y-53095805D01*
X130245205Y-53142723D01*
X130264666Y-53211000D01*
X130244124Y-53278960D01*
X130191921Y-53324194D01*
X130145266Y-53345950D01*
X130145258Y-53345954D01*
X129958285Y-53476874D01*
X129958276Y-53476881D01*
X129796881Y-53638276D01*
X129796874Y-53638285D01*
X129665954Y-53825258D01*
X129665953Y-53825260D01*
X129569489Y-54032127D01*
X129569487Y-54032131D01*
X129510411Y-54252607D01*
X129490517Y-54479999D01*
X129510411Y-54707392D01*
X129569487Y-54927868D01*
X129569489Y-54927873D01*
X129665953Y-55134741D01*
X129665954Y-55134742D01*
X129796878Y-55321719D01*
X129796880Y-55321721D01*
X129796881Y-55321722D01*
X129796885Y-55321727D01*
X129958272Y-55483114D01*
X129958277Y-55483118D01*
X129958281Y-55483122D01*
X130145258Y-55614046D01*
X130191920Y-55635805D01*
X130245205Y-55682723D01*
X130264666Y-55751000D01*
X130244124Y-55818960D01*
X130191921Y-55864194D01*
X130145266Y-55885950D01*
X130145258Y-55885954D01*
X129958285Y-56016874D01*
X129958276Y-56016881D01*
X129796881Y-56178276D01*
X129796874Y-56178285D01*
X129665954Y-56365258D01*
X129665953Y-56365260D01*
X129569489Y-56572127D01*
X129569487Y-56572131D01*
X129510411Y-56792607D01*
X129490517Y-57020000D01*
X129510411Y-57247392D01*
X129569487Y-57467868D01*
X129569489Y-57467873D01*
X129665953Y-57674741D01*
X129679826Y-57694553D01*
X129796878Y-57861719D01*
X129796880Y-57861721D01*
X129796881Y-57861722D01*
X129796885Y-57861727D01*
X129958272Y-58023114D01*
X129958277Y-58023118D01*
X129958281Y-58023122D01*
X130145258Y-58154046D01*
X130191920Y-58175805D01*
X130245205Y-58222723D01*
X130264666Y-58291000D01*
X130244124Y-58358960D01*
X130191921Y-58404194D01*
X130145266Y-58425950D01*
X130145258Y-58425954D01*
X129958285Y-58556874D01*
X129958276Y-58556881D01*
X129796881Y-58718276D01*
X129796874Y-58718285D01*
X129665954Y-58905258D01*
X129665953Y-58905260D01*
X129569489Y-59112127D01*
X129569487Y-59112131D01*
X129510411Y-59332607D01*
X129490517Y-59560000D01*
X129510411Y-59787392D01*
X129569487Y-60007868D01*
X129569489Y-60007873D01*
X129665953Y-60214741D01*
X129690771Y-60250184D01*
X129796878Y-60401719D01*
X129796880Y-60401721D01*
X129796881Y-60401722D01*
X129796885Y-60401727D01*
X129958272Y-60563114D01*
X129958277Y-60563118D01*
X129958281Y-60563122D01*
X130145258Y-60694046D01*
X130191920Y-60715805D01*
X130245205Y-60762723D01*
X130264666Y-60831000D01*
X130244124Y-60898960D01*
X130191921Y-60944194D01*
X130145266Y-60965950D01*
X130145258Y-60965954D01*
X129958285Y-61096874D01*
X129958276Y-61096881D01*
X129796881Y-61258276D01*
X129796874Y-61258285D01*
X129665954Y-61445258D01*
X129665953Y-61445260D01*
X129569489Y-61652127D01*
X129569487Y-61652131D01*
X129510411Y-61872607D01*
X129490517Y-62099999D01*
X129510411Y-62327392D01*
X129569487Y-62547868D01*
X129569489Y-62547873D01*
X129665953Y-62754741D01*
X129665954Y-62754742D01*
X129796878Y-62941719D01*
X129796880Y-62941721D01*
X129796881Y-62941722D01*
X129796885Y-62941727D01*
X129958274Y-63103116D01*
X129958277Y-63103118D01*
X129958281Y-63103122D01*
X129962801Y-63106287D01*
X130007129Y-63161740D01*
X130014441Y-63232359D01*
X129982412Y-63295721D01*
X129921212Y-63331708D01*
X129890533Y-63335500D01*
X129724936Y-63335500D01*
X129724926Y-63335501D01*
X129650699Y-63350265D01*
X129566515Y-63406516D01*
X129510266Y-63490697D01*
X129495500Y-63564930D01*
X129495500Y-65715063D01*
X129495501Y-65715073D01*
X129510265Y-65789300D01*
X129566516Y-65873484D01*
X129650697Y-65929733D01*
X129650699Y-65929734D01*
X129724933Y-65944500D01*
X131875066Y-65944499D01*
X131875069Y-65944498D01*
X131875073Y-65944498D01*
X131924326Y-65934701D01*
X131949301Y-65929734D01*
X132033484Y-65873484D01*
X132089734Y-65789301D01*
X132104500Y-65715067D01*
X132104500Y-65468000D01*
X132124502Y-65399879D01*
X132178158Y-65353386D01*
X132230500Y-65342000D01*
X136232631Y-65342000D01*
X136300752Y-65362002D01*
X136347245Y-65415658D01*
X136357349Y-65485932D01*
X136327855Y-65550512D01*
X136293724Y-65576274D01*
X136294358Y-65577302D01*
X136142271Y-65671109D01*
X136142265Y-65671114D01*
X136021114Y-65792265D01*
X136021109Y-65792271D01*
X135931152Y-65938115D01*
X135877257Y-66100758D01*
X135877255Y-66100770D01*
X135867000Y-66201147D01*
X135867000Y-66246000D01*
X136953000Y-66246000D01*
X137021121Y-66266002D01*
X137067614Y-66319658D01*
X137079000Y-66372000D01*
X137079000Y-66628000D01*
X137058998Y-66696121D01*
X137005342Y-66742614D01*
X136953000Y-66754000D01*
X135867000Y-66754000D01*
X135867000Y-66794500D01*
X135846998Y-66862621D01*
X135793342Y-66909114D01*
X135741000Y-66920500D01*
X133971168Y-66920500D01*
X133955001Y-66918714D01*
X133954977Y-66918972D01*
X133947084Y-66918225D01*
X133875704Y-66920469D01*
X133873726Y-66920500D01*
X133843819Y-66920500D01*
X133836537Y-66921419D01*
X133830624Y-66921885D01*
X133781801Y-66923419D01*
X133781795Y-66923420D01*
X133761376Y-66929352D01*
X133742026Y-66933359D01*
X133720939Y-66936023D01*
X133720936Y-66936024D01*
X133675520Y-66954005D01*
X133669905Y-66955927D01*
X133622999Y-66969555D01*
X133604704Y-66980375D01*
X133586957Y-66989070D01*
X133567185Y-66996899D01*
X133527668Y-67025608D01*
X133522708Y-67028867D01*
X133480663Y-67053734D01*
X133465634Y-67068763D01*
X133450605Y-67081599D01*
X133433404Y-67094097D01*
X133402260Y-67131741D01*
X133398265Y-67136132D01*
X130513803Y-70020592D01*
X130451491Y-70054618D01*
X130408217Y-70055256D01*
X130408145Y-70056037D01*
X130402350Y-70055500D01*
X130402347Y-70055500D01*
X130197653Y-70055500D01*
X129996444Y-70093112D01*
X129996439Y-70093113D01*
X129805577Y-70167054D01*
X129805566Y-70167059D01*
X129631536Y-70274814D01*
X129480266Y-70412715D01*
X129356913Y-70576063D01*
X129265671Y-70759301D01*
X129209654Y-70956180D01*
X129190768Y-71159995D01*
X129190768Y-71160004D01*
X129209654Y-71363819D01*
X129249498Y-71503855D01*
X129265672Y-71560701D01*
X129356912Y-71743935D01*
X129356913Y-71743936D01*
X129480266Y-71907284D01*
X129631538Y-72045186D01*
X129631539Y-72045187D01*
X129734395Y-72108873D01*
X129781783Y-72161740D01*
X129793066Y-72231834D01*
X129764662Y-72296901D01*
X129705589Y-72336283D01*
X129668065Y-72342000D01*
X129401402Y-72342000D01*
X129340906Y-72348505D01*
X129204035Y-72399555D01*
X129204034Y-72399555D01*
X129087095Y-72487095D01*
X128999555Y-72604034D01*
X128999555Y-72604035D01*
X128948505Y-72740906D01*
X128942000Y-72801402D01*
X128942000Y-73446000D01*
X129868884Y-73446000D01*
X129840507Y-73490156D01*
X129800000Y-73628111D01*
X129800000Y-73771889D01*
X129840507Y-73909844D01*
X129868884Y-73954000D01*
X128942000Y-73954000D01*
X128942000Y-74598597D01*
X128948505Y-74659093D01*
X128999555Y-74795964D01*
X128999555Y-74795965D01*
X129087095Y-74912904D01*
X129204034Y-75000444D01*
X129340906Y-75051494D01*
X129401402Y-75057999D01*
X129401415Y-75058000D01*
X130046000Y-75058000D01*
X130046000Y-74133674D01*
X130157685Y-74184680D01*
X130264237Y-74200000D01*
X130335763Y-74200000D01*
X130442315Y-74184680D01*
X130553999Y-74133674D01*
X130554000Y-75058000D01*
X131198585Y-75058000D01*
X131198597Y-75057999D01*
X131259093Y-75051494D01*
X131395964Y-75000444D01*
X131395965Y-75000444D01*
X131512904Y-74912904D01*
X131600444Y-74795965D01*
X131600444Y-74795964D01*
X131651494Y-74659093D01*
X131657999Y-74598597D01*
X131658000Y-74598585D01*
X131658000Y-73954000D01*
X130731116Y-73954000D01*
X130759493Y-73909844D01*
X130800000Y-73771889D01*
X130800000Y-73628111D01*
X130759493Y-73490156D01*
X130731116Y-73446000D01*
X131658000Y-73446000D01*
X131658000Y-72801414D01*
X131657999Y-72801402D01*
X131651494Y-72740906D01*
X131600444Y-72604035D01*
X131600444Y-72604034D01*
X131512904Y-72487095D01*
X131395965Y-72399555D01*
X131259093Y-72348505D01*
X131198597Y-72342000D01*
X130931935Y-72342000D01*
X130863814Y-72321998D01*
X130817321Y-72268342D01*
X130807217Y-72198068D01*
X130836711Y-72133488D01*
X130865605Y-72108873D01*
X130957268Y-72052117D01*
X130968462Y-72045186D01*
X131119732Y-71907285D01*
X131243088Y-71743935D01*
X131334328Y-71560701D01*
X131390345Y-71363821D01*
X131409232Y-71160000D01*
X131408245Y-71149354D01*
X131401874Y-71080596D01*
X131399116Y-71050837D01*
X131412746Y-70981164D01*
X131435480Y-70950121D01*
X134119197Y-68266405D01*
X134181510Y-68232379D01*
X134208293Y-68229500D01*
X138188833Y-68229500D01*
X138204999Y-68231285D01*
X138205024Y-68231028D01*
X138212916Y-68231774D01*
X138212916Y-68231773D01*
X138212917Y-68231774D01*
X138228853Y-68231273D01*
X138284297Y-68229531D01*
X138286275Y-68229500D01*
X138316174Y-68229500D01*
X138316178Y-68229500D01*
X138323457Y-68228579D01*
X138329356Y-68228114D01*
X138378200Y-68226580D01*
X138398612Y-68220649D01*
X138417968Y-68216640D01*
X138439061Y-68213976D01*
X138484477Y-68195993D01*
X138490083Y-68194074D01*
X138536999Y-68180445D01*
X138555299Y-68169621D01*
X138573050Y-68160925D01*
X138592814Y-68153101D01*
X138632346Y-68124378D01*
X138637290Y-68121132D01*
X138679336Y-68096267D01*
X138694369Y-68081233D01*
X138709397Y-68068397D01*
X138726597Y-68055902D01*
X138757737Y-68018258D01*
X138761716Y-68013885D01*
X138891919Y-67883684D01*
X138967833Y-67785815D01*
X139033508Y-67634050D01*
X139059377Y-67470722D01*
X139043815Y-67306090D01*
X138987799Y-67150501D01*
X138987796Y-67150498D01*
X138987521Y-67149955D01*
X138987431Y-67149479D01*
X138985114Y-67143042D01*
X138986152Y-67142668D01*
X138974413Y-67080179D01*
X138998919Y-67017236D01*
X139008454Y-67004499D01*
X139025175Y-66982163D01*
X139073360Y-66852973D01*
X139079500Y-66795864D01*
X139079500Y-66580499D01*
X139099502Y-66512379D01*
X139153158Y-66465886D01*
X139205500Y-66454500D01*
X139349500Y-66454500D01*
X139417621Y-66474502D01*
X139464114Y-66528158D01*
X139475500Y-66580499D01*
X139475500Y-66775063D01*
X139475501Y-66775073D01*
X139490265Y-66849300D01*
X139546516Y-66933484D01*
X139630697Y-66989734D01*
X139648662Y-66993307D01*
X139711572Y-67026213D01*
X139732427Y-67058965D01*
X139735103Y-67057518D01*
X139740071Y-67066698D01*
X139763047Y-67109155D01*
X139764117Y-67111131D01*
X139765308Y-67113445D01*
X139787501Y-67158840D01*
X139791811Y-67164878D01*
X139796380Y-67170748D01*
X139796381Y-67170749D01*
X139833577Y-67204990D01*
X139835409Y-67206748D01*
X140379105Y-67750444D01*
X140894094Y-68265433D01*
X140910476Y-68285605D01*
X140915583Y-68293420D01*
X140941823Y-68313843D01*
X140947673Y-68319011D01*
X140950108Y-68321446D01*
X140950111Y-68321449D01*
X140950113Y-68321450D01*
X140966978Y-68333491D01*
X140969061Y-68335043D01*
X141008948Y-68366089D01*
X141008950Y-68366089D01*
X141015480Y-68369623D01*
X141022151Y-68372884D01*
X141022156Y-68372888D01*
X141053529Y-68382228D01*
X141070587Y-68387307D01*
X141073069Y-68388101D01*
X141120848Y-68404504D01*
X141120855Y-68404504D01*
X141128195Y-68405729D01*
X141135546Y-68406645D01*
X141135548Y-68406646D01*
X141135549Y-68406645D01*
X141135550Y-68406646D01*
X141149295Y-68406077D01*
X141186038Y-68404557D01*
X141188633Y-68404504D01*
X144370162Y-68404504D01*
X144396018Y-68407185D01*
X144405143Y-68409099D01*
X144438130Y-68404987D01*
X144445919Y-68404504D01*
X144449370Y-68404504D01*
X144449373Y-68404504D01*
X144469836Y-68401088D01*
X144472396Y-68400716D01*
X144494180Y-68398000D01*
X144522547Y-68394465D01*
X144522551Y-68394462D01*
X144529690Y-68392337D01*
X144536692Y-68389933D01*
X144536694Y-68389933D01*
X144574223Y-68369623D01*
X144581128Y-68365886D01*
X144583425Y-68364702D01*
X144628836Y-68342503D01*
X144628841Y-68342497D01*
X144634883Y-68338183D01*
X144640740Y-68333625D01*
X144640745Y-68333623D01*
X144674998Y-68296413D01*
X144676733Y-68294604D01*
X145815432Y-67155905D01*
X145835599Y-67139527D01*
X145843416Y-67134421D01*
X145863843Y-67108174D01*
X145868991Y-67102346D01*
X145871442Y-67099896D01*
X145883521Y-67082976D01*
X145885015Y-67080972D01*
X145916085Y-67041056D01*
X145916088Y-67041045D01*
X145919627Y-67034506D01*
X145922884Y-67027847D01*
X145923030Y-67027357D01*
X145937312Y-66979381D01*
X145938083Y-66976975D01*
X145954500Y-66929156D01*
X145954500Y-66929149D01*
X145955724Y-66921810D01*
X145956642Y-66914452D01*
X145954554Y-66863973D01*
X145954500Y-66861369D01*
X145954500Y-62165549D01*
X145954985Y-62157747D01*
X145956642Y-62144453D01*
X145954554Y-62093984D01*
X145954500Y-62091380D01*
X145954500Y-56849834D01*
X145957182Y-56823974D01*
X145957282Y-56823497D01*
X145959095Y-56814853D01*
X145954983Y-56781866D01*
X145954500Y-56774076D01*
X145954500Y-56770627D01*
X145954500Y-56770623D01*
X145951081Y-56750138D01*
X145950712Y-56747602D01*
X145947327Y-56720443D01*
X145944461Y-56697449D01*
X145944459Y-56697446D01*
X145942341Y-56690330D01*
X145939929Y-56683305D01*
X145939929Y-56683302D01*
X145928048Y-56661348D01*
X145915872Y-56638848D01*
X145914693Y-56636559D01*
X145892499Y-56591160D01*
X145892496Y-56591157D01*
X145888176Y-56585107D01*
X145883617Y-56579249D01*
X145875880Y-56572127D01*
X145846422Y-56545009D01*
X145844589Y-56543250D01*
X145516403Y-56215064D01*
X145482379Y-56152753D01*
X145479500Y-56125970D01*
X145479500Y-55859000D01*
X145499502Y-55790879D01*
X145553158Y-55744386D01*
X145605500Y-55733000D01*
X145646000Y-55733000D01*
X145646000Y-55029000D01*
X146154000Y-55029000D01*
X146154000Y-55733000D01*
X146198853Y-55733000D01*
X146198852Y-55732999D01*
X146299229Y-55722744D01*
X146299241Y-55722742D01*
X146461884Y-55668847D01*
X146607728Y-55578890D01*
X146607734Y-55578885D01*
X146728885Y-55457734D01*
X146728890Y-55457728D01*
X146818847Y-55311884D01*
X146872742Y-55149241D01*
X146872744Y-55149229D01*
X146882999Y-55048852D01*
X146883000Y-55048852D01*
X146883000Y-55029000D01*
X146154000Y-55029000D01*
X145646000Y-55029000D01*
X145646000Y-54647000D01*
X145666002Y-54578879D01*
X145719658Y-54532386D01*
X145772000Y-54521000D01*
X146889572Y-54521000D01*
X146937408Y-54494879D01*
X146964191Y-54492000D01*
X147494500Y-54492000D01*
X147562621Y-54512002D01*
X147609114Y-54565658D01*
X147620500Y-54618000D01*
X147620500Y-55187148D01*
X147626577Y-55233309D01*
X147673824Y-55334631D01*
X147752868Y-55413675D01*
X147752869Y-55413675D01*
X147752871Y-55413677D01*
X147854189Y-55460922D01*
X147900356Y-55467000D01*
X147969500Y-55467000D01*
X148037621Y-55487002D01*
X148084114Y-55540658D01*
X148095500Y-55593000D01*
X148095500Y-59980259D01*
X148075498Y-60048380D01*
X148058596Y-60069354D01*
X147191465Y-60936485D01*
X147191462Y-60936487D01*
X147191462Y-60936488D01*
X147178650Y-60949301D01*
X147168673Y-60959278D01*
X147168671Y-60959281D01*
X147158543Y-60979157D01*
X147148218Y-60996007D01*
X147135094Y-61014070D01*
X147135093Y-61014074D01*
X147128197Y-61035297D01*
X147120634Y-61053557D01*
X147110502Y-61073444D01*
X147110501Y-61073445D01*
X147107009Y-61095491D01*
X147102397Y-61114701D01*
X147095500Y-61135931D01*
X147095500Y-69863202D01*
X147075498Y-69931323D01*
X147058595Y-69952297D01*
X144623772Y-72387119D01*
X144561460Y-72421145D01*
X144490644Y-72416080D01*
X144441976Y-72383361D01*
X144362906Y-72297468D01*
X144185301Y-72159232D01*
X144185300Y-72159231D01*
X143987371Y-72052117D01*
X143987369Y-72052116D01*
X143774512Y-71979043D01*
X143774501Y-71979040D01*
X143694000Y-71965606D01*
X143694000Y-72866325D01*
X143582315Y-72815320D01*
X143475763Y-72800000D01*
X143404237Y-72800000D01*
X143297685Y-72815320D01*
X143186000Y-72866325D01*
X143186000Y-71965607D01*
X143185999Y-71965606D01*
X143105498Y-71979040D01*
X143105487Y-71979043D01*
X142892630Y-72052116D01*
X142892628Y-72052117D01*
X142694699Y-72159231D01*
X142694698Y-72159232D01*
X142517097Y-72297465D01*
X142364674Y-72463041D01*
X142241580Y-72651451D01*
X142151179Y-72857543D01*
X142151176Y-72857550D01*
X142103455Y-73045999D01*
X142103456Y-73046000D01*
X143008884Y-73046000D01*
X142980507Y-73090156D01*
X142940000Y-73228111D01*
X142940000Y-73371889D01*
X142980507Y-73509844D01*
X143008884Y-73554000D01*
X142103455Y-73554000D01*
X142151176Y-73742449D01*
X142151179Y-73742456D01*
X142241580Y-73948548D01*
X142364674Y-74136958D01*
X142517097Y-74302534D01*
X142694698Y-74440767D01*
X142694699Y-74440768D01*
X142892628Y-74547882D01*
X142892630Y-74547883D01*
X143105483Y-74620955D01*
X143105492Y-74620957D01*
X143186000Y-74634391D01*
X143186000Y-73733674D01*
X143297685Y-73784680D01*
X143404237Y-73800000D01*
X143475763Y-73800000D01*
X143582315Y-73784680D01*
X143694000Y-73733674D01*
X143694000Y-74634390D01*
X143774507Y-74620957D01*
X143774516Y-74620955D01*
X143987369Y-74547883D01*
X143987371Y-74547882D01*
X144185300Y-74440768D01*
X144185309Y-74440762D01*
X144313098Y-74341299D01*
X144379140Y-74315242D01*
X144448785Y-74329027D01*
X144479584Y-74351634D01*
X144868674Y-74740723D01*
X144959277Y-74831326D01*
X144979160Y-74841457D01*
X144996014Y-74851785D01*
X145014071Y-74864905D01*
X145035293Y-74871799D01*
X145053560Y-74879365D01*
X145073445Y-74889498D01*
X145095488Y-74892989D01*
X145114704Y-74897602D01*
X145135934Y-74904500D01*
X145135935Y-74904500D01*
X147384065Y-74904500D01*
X147384066Y-74904500D01*
X147405297Y-74897601D01*
X147424506Y-74892989D01*
X147446555Y-74889498D01*
X147446559Y-74889496D01*
X147466431Y-74879370D01*
X147484708Y-74871799D01*
X147505929Y-74864905D01*
X147523992Y-74851780D01*
X147540835Y-74841458D01*
X147560723Y-74831326D01*
X147576330Y-74815717D01*
X147576335Y-74815714D01*
X147583512Y-74808536D01*
X147583515Y-74808535D01*
X148020519Y-74371529D01*
X148082829Y-74337506D01*
X148153645Y-74342570D01*
X148155130Y-74343135D01*
X148177069Y-74351634D01*
X148216444Y-74366888D01*
X148417653Y-74404500D01*
X148417655Y-74404500D01*
X148622345Y-74404500D01*
X148622347Y-74404500D01*
X148823556Y-74366888D01*
X149014427Y-74292944D01*
X149188462Y-74185186D01*
X149339732Y-74047285D01*
X149463088Y-73883935D01*
X149554328Y-73700701D01*
X149610345Y-73503821D01*
X149617766Y-73423732D01*
X149629232Y-73300004D01*
X149629232Y-73299995D01*
X149610345Y-73096180D01*
X149596068Y-73046000D01*
X149554328Y-72899299D01*
X149463088Y-72716065D01*
X149396385Y-72627736D01*
X149339733Y-72552715D01*
X149188463Y-72414814D01*
X149014433Y-72307059D01*
X149014428Y-72307057D01*
X149014427Y-72307056D01*
X149008423Y-72304730D01*
X148823559Y-72233113D01*
X148823560Y-72233113D01*
X148823557Y-72233112D01*
X148823556Y-72233112D01*
X148622347Y-72195500D01*
X148417653Y-72195500D01*
X148241288Y-72228468D01*
X148216439Y-72233113D01*
X148025577Y-72307054D01*
X148025566Y-72307059D01*
X147851536Y-72414814D01*
X147700266Y-72552715D01*
X147576913Y-72716063D01*
X147485671Y-72899301D01*
X147429654Y-73096180D01*
X147410768Y-73299995D01*
X147410768Y-73300004D01*
X147429654Y-73503819D01*
X147479047Y-73677419D01*
X147478451Y-73748413D01*
X147446953Y-73800995D01*
X147189355Y-74058595D01*
X147127043Y-74092620D01*
X147100259Y-74095500D01*
X147016364Y-74095500D01*
X146948243Y-74075498D01*
X146901750Y-74021842D01*
X146891646Y-73951568D01*
X146915813Y-73893569D01*
X146923087Y-73883936D01*
X146923086Y-73883936D01*
X146923088Y-73883935D01*
X147014328Y-73700701D01*
X147070345Y-73503821D01*
X147077766Y-73423732D01*
X147089232Y-73300004D01*
X147089232Y-73299995D01*
X147070345Y-73096182D01*
X147070345Y-73096179D01*
X147020951Y-72922576D01*
X147021547Y-72851585D01*
X147053043Y-72799005D01*
X148308534Y-71543515D01*
X148308533Y-71543515D01*
X148331326Y-71520723D01*
X148331327Y-71520720D01*
X148335718Y-71516330D01*
X148339918Y-71503858D01*
X148341463Y-71500826D01*
X148351789Y-71483979D01*
X148364904Y-71465929D01*
X148371800Y-71444705D01*
X148379368Y-71426435D01*
X148380065Y-71425067D01*
X148389498Y-71406555D01*
X148392989Y-71384502D01*
X148397603Y-71365286D01*
X148404499Y-71344066D01*
X148404499Y-71314432D01*
X148404500Y-71314407D01*
X148404500Y-62502630D01*
X148695500Y-62502630D01*
X148710525Y-62659969D01*
X148710528Y-62659984D01*
X148769953Y-62862370D01*
X148866607Y-63049851D01*
X148866611Y-63049858D01*
X148996994Y-63215652D01*
X148997006Y-63215665D01*
X149152344Y-63350266D01*
X149156413Y-63353792D01*
X149339087Y-63459259D01*
X149538420Y-63528248D01*
X149538423Y-63528248D01*
X149538425Y-63528249D01*
X149747205Y-63558267D01*
X149747206Y-63558266D01*
X149747207Y-63558267D01*
X149957902Y-63548231D01*
X149979788Y-63542921D01*
X150050704Y-63546298D01*
X150098590Y-63576274D01*
X151324182Y-64801866D01*
X151334354Y-64814562D01*
X151334553Y-64814399D01*
X151339608Y-64820509D01*
X151391691Y-64869418D01*
X151393080Y-64870764D01*
X151414234Y-64891918D01*
X151420041Y-64896422D01*
X151424538Y-64900264D01*
X151460155Y-64933710D01*
X151460158Y-64933712D01*
X151460160Y-64933713D01*
X151478782Y-64943951D01*
X151495307Y-64954805D01*
X151512102Y-64967833D01*
X151556937Y-64987234D01*
X151562242Y-64989833D01*
X151588920Y-65004499D01*
X151605062Y-65013374D01*
X151605064Y-65013374D01*
X151605065Y-65013375D01*
X151625655Y-65018661D01*
X151644358Y-65025064D01*
X151663867Y-65033507D01*
X151698397Y-65038976D01*
X151712110Y-65041148D01*
X151717901Y-65042346D01*
X151765235Y-65054500D01*
X151786492Y-65054500D01*
X151806202Y-65056051D01*
X151807680Y-65056285D01*
X151827196Y-65059376D01*
X151875822Y-65054780D01*
X151881754Y-65054500D01*
X154838284Y-65054500D01*
X154854450Y-65056285D01*
X154854475Y-65056028D01*
X154862367Y-65056774D01*
X154862367Y-65056773D01*
X154862368Y-65056774D01*
X154878304Y-65056273D01*
X154933748Y-65054531D01*
X154935726Y-65054500D01*
X154965625Y-65054500D01*
X154965629Y-65054500D01*
X154972908Y-65053579D01*
X154978807Y-65053114D01*
X155027651Y-65051580D01*
X155048063Y-65045649D01*
X155067419Y-65041640D01*
X155088512Y-65038976D01*
X155133928Y-65020993D01*
X155139534Y-65019074D01*
X155186450Y-65005445D01*
X155204750Y-64994621D01*
X155222501Y-64985925D01*
X155242265Y-64978101D01*
X155281797Y-64949378D01*
X155286741Y-64946132D01*
X155290429Y-64943951D01*
X155328787Y-64921267D01*
X155343820Y-64906233D01*
X155358848Y-64893397D01*
X155376048Y-64880902D01*
X155407193Y-64843253D01*
X155411161Y-64838891D01*
X156180407Y-64069645D01*
X156242717Y-64035621D01*
X156313532Y-64040686D01*
X156370368Y-64083233D01*
X156395179Y-64149753D01*
X156395500Y-64158742D01*
X156395500Y-64875063D01*
X156395501Y-64875073D01*
X156410265Y-64949301D01*
X156454450Y-65015427D01*
X156475665Y-65083180D01*
X156456882Y-65151647D01*
X156438780Y-65174524D01*
X155418724Y-66194580D01*
X155398551Y-66210964D01*
X155389419Y-66216930D01*
X155389416Y-66216933D01*
X155367394Y-66245227D01*
X155362231Y-66251073D01*
X155361902Y-66251404D01*
X155359414Y-66253891D01*
X155346456Y-66272039D01*
X155344903Y-66274122D01*
X155311628Y-66316876D01*
X155307835Y-66323884D01*
X155304347Y-66331020D01*
X155288888Y-66382942D01*
X155288094Y-66385420D01*
X155270499Y-66436675D01*
X155269194Y-66444495D01*
X155268207Y-66452410D01*
X155270036Y-66496619D01*
X155270436Y-66506289D01*
X155270446Y-66506514D01*
X155270500Y-66509119D01*
X155270500Y-68590615D01*
X155250498Y-68658736D01*
X155233595Y-68679710D01*
X151649833Y-72263471D01*
X151587521Y-72297497D01*
X151516705Y-72292432D01*
X151515222Y-72291868D01*
X151363557Y-72233112D01*
X151293813Y-72220075D01*
X151162347Y-72195500D01*
X150957653Y-72195500D01*
X150781288Y-72228468D01*
X150756439Y-72233113D01*
X150565577Y-72307054D01*
X150565566Y-72307059D01*
X150391536Y-72414814D01*
X150240266Y-72552715D01*
X150116913Y-72716063D01*
X150025671Y-72899301D01*
X149969654Y-73096180D01*
X149950768Y-73299995D01*
X149950768Y-73300004D01*
X149969654Y-73503819D01*
X150018535Y-73675616D01*
X150025672Y-73700701D01*
X150116912Y-73883935D01*
X150116913Y-73883936D01*
X150240266Y-74047284D01*
X150391536Y-74185185D01*
X150565566Y-74292940D01*
X150565568Y-74292940D01*
X150565573Y-74292944D01*
X150756444Y-74366888D01*
X150957653Y-74404500D01*
X150957655Y-74404500D01*
X151162345Y-74404500D01*
X151162347Y-74404500D01*
X151363556Y-74366888D01*
X151554427Y-74292944D01*
X151728462Y-74185186D01*
X151879732Y-74047285D01*
X152003088Y-73883935D01*
X152094328Y-73700701D01*
X152150345Y-73503821D01*
X152157766Y-73423732D01*
X152169232Y-73300004D01*
X152169232Y-73299995D01*
X152150345Y-73096182D01*
X152150345Y-73096179D01*
X152113055Y-72965117D01*
X152113651Y-72894124D01*
X152145148Y-72841544D01*
X152280407Y-72706285D01*
X152342717Y-72672261D01*
X152413532Y-72677326D01*
X152470368Y-72719873D01*
X152495179Y-72786393D01*
X152495500Y-72795382D01*
X152495500Y-74175063D01*
X152495501Y-74175073D01*
X152510265Y-74249300D01*
X152566516Y-74333484D01*
X152650697Y-74389733D01*
X152650699Y-74389734D01*
X152724933Y-74404500D01*
X154475066Y-74404499D01*
X154475069Y-74404498D01*
X154475073Y-74404498D01*
X154524326Y-74394701D01*
X154549301Y-74389734D01*
X154633484Y-74333484D01*
X154689734Y-74249301D01*
X154704500Y-74175067D01*
X154704500Y-73799375D01*
X154724502Y-73731255D01*
X154778158Y-73684762D01*
X154814910Y-73674345D01*
X154859783Y-73668752D01*
X154859784Y-73668751D01*
X154859788Y-73668751D01*
X154867386Y-73666488D01*
X154874923Y-73663901D01*
X154874923Y-73663900D01*
X154874927Y-73663900D01*
X154922568Y-73638116D01*
X154924852Y-73636940D01*
X154973568Y-73613126D01*
X154973570Y-73613123D01*
X154980018Y-73608520D01*
X154986312Y-73603620D01*
X154986316Y-73603619D01*
X155023032Y-73563733D01*
X155024791Y-73561901D01*
X156895288Y-71691404D01*
X156957601Y-71657378D01*
X156984384Y-71654499D01*
X157575064Y-71654499D01*
X157575066Y-71654499D01*
X157575069Y-71654498D01*
X157575072Y-71654498D01*
X157587099Y-71652105D01*
X157649301Y-71639734D01*
X157649304Y-71639731D01*
X157660767Y-71634985D01*
X157661485Y-71636720D01*
X157714785Y-71620023D01*
X157783254Y-71638798D01*
X157817918Y-71670494D01*
X157887095Y-71762904D01*
X158004034Y-71850444D01*
X158140906Y-71901494D01*
X158201402Y-71907999D01*
X158201415Y-71908000D01*
X158446000Y-71908000D01*
X158446000Y-71154000D01*
X158954000Y-71154000D01*
X158954000Y-71908000D01*
X159198585Y-71908000D01*
X159198597Y-71907999D01*
X159259093Y-71901494D01*
X159395964Y-71850444D01*
X159395965Y-71850444D01*
X159512904Y-71762904D01*
X159600444Y-71645965D01*
X159600444Y-71645964D01*
X159651494Y-71509093D01*
X159657999Y-71448597D01*
X159658000Y-71448585D01*
X159658000Y-71154000D01*
X158954000Y-71154000D01*
X158446000Y-71154000D01*
X158446000Y-69892000D01*
X158954000Y-69892000D01*
X158954000Y-70646000D01*
X159658000Y-70646000D01*
X159658000Y-70351414D01*
X159657999Y-70351402D01*
X159651494Y-70290906D01*
X159600444Y-70154035D01*
X159600444Y-70154034D01*
X159512904Y-70037095D01*
X159395965Y-69949555D01*
X159259093Y-69898505D01*
X159198597Y-69892000D01*
X158954000Y-69892000D01*
X158446000Y-69892000D01*
X158201402Y-69892000D01*
X158140906Y-69898505D01*
X158004035Y-69949555D01*
X158004034Y-69949555D01*
X157887094Y-70037096D01*
X157817917Y-70129505D01*
X157761081Y-70172051D01*
X157690265Y-70177115D01*
X157660918Y-70164650D01*
X157660768Y-70165015D01*
X157649304Y-70160266D01*
X157580917Y-70146663D01*
X157518008Y-70113755D01*
X157482877Y-70052059D01*
X157479500Y-70023084D01*
X157479500Y-67676914D01*
X157499502Y-67608793D01*
X157553158Y-67562300D01*
X157580920Y-67553335D01*
X157598028Y-67549931D01*
X157649301Y-67539734D01*
X157649304Y-67539731D01*
X157660767Y-67534985D01*
X157661485Y-67536720D01*
X157714785Y-67520023D01*
X157783254Y-67538798D01*
X157817918Y-67570494D01*
X157887095Y-67662904D01*
X158004034Y-67750444D01*
X158140906Y-67801494D01*
X158201402Y-67807999D01*
X158201415Y-67808000D01*
X158446000Y-67808000D01*
X158446000Y-67054000D01*
X158954000Y-67054000D01*
X158954000Y-67808000D01*
X159198585Y-67808000D01*
X159198597Y-67807999D01*
X159259093Y-67801494D01*
X159395964Y-67750444D01*
X159395965Y-67750444D01*
X159512904Y-67662904D01*
X159600444Y-67545965D01*
X159600444Y-67545964D01*
X159651494Y-67409093D01*
X159657999Y-67348597D01*
X159658000Y-67348585D01*
X159658000Y-67054000D01*
X158954000Y-67054000D01*
X158446000Y-67054000D01*
X158446000Y-66672000D01*
X158466002Y-66603879D01*
X158519658Y-66557386D01*
X158572000Y-66546000D01*
X159658000Y-66546000D01*
X159658000Y-66251414D01*
X159657999Y-66251404D01*
X159654297Y-66216972D01*
X159666902Y-66147103D01*
X159715279Y-66095140D01*
X159779575Y-66077501D01*
X164680680Y-66077501D01*
X164748801Y-66097503D01*
X164795294Y-66151159D01*
X164805398Y-66221433D01*
X164801870Y-66237982D01*
X164771654Y-66344180D01*
X164752768Y-66547995D01*
X164752768Y-66548004D01*
X164771654Y-66751819D01*
X164820479Y-66923420D01*
X164827672Y-66948701D01*
X164918912Y-67131935D01*
X164924640Y-67139520D01*
X165042266Y-67295284D01*
X165193536Y-67433185D01*
X165367566Y-67540940D01*
X165367568Y-67540940D01*
X165367573Y-67540944D01*
X165558444Y-67614888D01*
X165759653Y-67652500D01*
X165759655Y-67652500D01*
X165964345Y-67652500D01*
X165964347Y-67652500D01*
X166165556Y-67614888D01*
X166356427Y-67540944D01*
X166530462Y-67433186D01*
X166681732Y-67295285D01*
X166687086Y-67288196D01*
X166742728Y-67214513D01*
X166805088Y-67131935D01*
X166896328Y-66948701D01*
X166952345Y-66751821D01*
X166963819Y-66628000D01*
X166971232Y-66548004D01*
X166971232Y-66547995D01*
X166952345Y-66344180D01*
X166948601Y-66331020D01*
X166896328Y-66147299D01*
X166805088Y-65964065D01*
X166721971Y-65854000D01*
X166681733Y-65800715D01*
X166530463Y-65662814D01*
X166356433Y-65555059D01*
X166356425Y-65555055D01*
X166293589Y-65530712D01*
X166237295Y-65487452D01*
X166213325Y-65420624D01*
X166229290Y-65351446D01*
X166280121Y-65301881D01*
X166298196Y-65294048D01*
X166409365Y-65255884D01*
X166409371Y-65255882D01*
X166607300Y-65148768D01*
X166607301Y-65148767D01*
X166784902Y-65010534D01*
X166937325Y-64844958D01*
X167060419Y-64656548D01*
X167150820Y-64450456D01*
X167150823Y-64450449D01*
X167198544Y-64262000D01*
X166293116Y-64262000D01*
X166321493Y-64217844D01*
X166362000Y-64079889D01*
X166362000Y-63936111D01*
X166321493Y-63798156D01*
X166293116Y-63754000D01*
X167198544Y-63754000D01*
X167198544Y-63753999D01*
X167150823Y-63565550D01*
X167150820Y-63565543D01*
X167060419Y-63359451D01*
X166937325Y-63171041D01*
X166784902Y-63005465D01*
X166607303Y-62867233D01*
X166500275Y-62809313D01*
X166449885Y-62759299D01*
X166434533Y-62689982D01*
X166459094Y-62623369D01*
X166515769Y-62580610D01*
X166560244Y-62572499D01*
X166737066Y-62572499D01*
X166737069Y-62572498D01*
X166737073Y-62572498D01*
X166786326Y-62562701D01*
X166811301Y-62557734D01*
X166895484Y-62501484D01*
X166951734Y-62417301D01*
X166966500Y-62343067D01*
X166966499Y-60592934D01*
X166966498Y-60592930D01*
X166966498Y-60592926D01*
X166951734Y-60518699D01*
X166919976Y-60471171D01*
X166895484Y-60434516D01*
X166850018Y-60404136D01*
X166811302Y-60378266D01*
X166737067Y-60363500D01*
X164986936Y-60363500D01*
X164986926Y-60363501D01*
X164912699Y-60378265D01*
X164828515Y-60434516D01*
X164772266Y-60518697D01*
X164757500Y-60592930D01*
X164757500Y-60962500D01*
X164737498Y-61030621D01*
X164683842Y-61077114D01*
X164631500Y-61088500D01*
X162577384Y-61088500D01*
X162509263Y-61068498D01*
X162488289Y-61051595D01*
X160555419Y-59118725D01*
X160539029Y-59098542D01*
X160533068Y-59089418D01*
X160533067Y-59089417D01*
X160504770Y-59067393D01*
X160498923Y-59062229D01*
X160496113Y-59059419D01*
X160496112Y-59059418D01*
X160496111Y-59059417D01*
X160496106Y-59059413D01*
X160477974Y-59046467D01*
X160475889Y-59044912D01*
X160433120Y-59011625D01*
X160426140Y-59007848D01*
X160418977Y-59004346D01*
X160367063Y-58988890D01*
X160364584Y-58988096D01*
X160313326Y-58970499D01*
X160305504Y-58969194D01*
X160297589Y-58968207D01*
X160253056Y-58970049D01*
X160243475Y-58970446D01*
X160240881Y-58970500D01*
X158052422Y-58970500D01*
X158026564Y-58967818D01*
X158023806Y-58967239D01*
X158015898Y-58965581D01*
X157993756Y-58968342D01*
X157980321Y-58970016D01*
X157972533Y-58970500D01*
X157968557Y-58970500D01*
X157961811Y-58971625D01*
X157946540Y-58974173D01*
X157943968Y-58974547D01*
X157890215Y-58981248D01*
X157882622Y-58983508D01*
X157875068Y-58986101D01*
X157827424Y-59011884D01*
X157825111Y-59013074D01*
X157776432Y-59036874D01*
X157769978Y-59041481D01*
X157763684Y-59046380D01*
X157726987Y-59086242D01*
X157725185Y-59088120D01*
X157354709Y-59458595D01*
X157292397Y-59492621D01*
X157265614Y-59495500D01*
X156624936Y-59495500D01*
X156624926Y-59495501D01*
X156550699Y-59510265D01*
X156466515Y-59566516D01*
X156410266Y-59650697D01*
X156395500Y-59724930D01*
X156395500Y-60775063D01*
X156395501Y-60775073D01*
X156410265Y-60849300D01*
X156466516Y-60933484D01*
X156550697Y-60989733D01*
X156550699Y-60989734D01*
X156615795Y-61002682D01*
X156619081Y-61003336D01*
X156681991Y-61036243D01*
X156717123Y-61097938D01*
X156720500Y-61126915D01*
X156720500Y-62449482D01*
X156700498Y-62517603D01*
X156646842Y-62564096D01*
X156576568Y-62574200D01*
X156537298Y-62561749D01*
X156423468Y-62503751D01*
X156423463Y-62503749D01*
X156262088Y-62467677D01*
X156262083Y-62467676D01*
X156096799Y-62472871D01*
X155937997Y-62519007D01*
X155795668Y-62603181D01*
X155795661Y-62603186D01*
X154690253Y-63708595D01*
X154627941Y-63742621D01*
X154601158Y-63745500D01*
X153177300Y-63745500D01*
X153109179Y-63725498D01*
X153062686Y-63671842D01*
X153052582Y-63601568D01*
X153082076Y-63536988D01*
X153133267Y-63501445D01*
X153135247Y-63500705D01*
X153144267Y-63497342D01*
X153260404Y-63410404D01*
X153347342Y-63294267D01*
X153398040Y-63158342D01*
X153404500Y-63098255D01*
X153404499Y-61501746D01*
X153398040Y-61441658D01*
X153347342Y-61305733D01*
X153260404Y-61189596D01*
X153144267Y-61102658D01*
X153144265Y-61102657D01*
X153144266Y-61102657D01*
X153008349Y-61051962D01*
X153008344Y-61051960D01*
X153008342Y-61051960D01*
X153000831Y-61051152D01*
X152948262Y-61045500D01*
X152948255Y-61045500D01*
X151811161Y-61045500D01*
X151743040Y-61025498D01*
X151722070Y-61008599D01*
X151641404Y-60927933D01*
X151607379Y-60865620D01*
X151604500Y-60838838D01*
X151604500Y-60342588D01*
X153168786Y-60342588D01*
X153195200Y-60492390D01*
X153198319Y-60510074D01*
X153198319Y-60510075D01*
X153265674Y-60666222D01*
X153265677Y-60666226D01*
X153367233Y-60802640D01*
X153497511Y-60911956D01*
X153649486Y-60988281D01*
X153814967Y-61027500D01*
X153814969Y-61027500D01*
X153942379Y-61027500D01*
X153975229Y-61023660D01*
X154068915Y-61012710D01*
X154228724Y-60954544D01*
X154370812Y-60861092D01*
X154487518Y-60737391D01*
X154572550Y-60590110D01*
X154621325Y-60427189D01*
X154631214Y-60257412D01*
X154601682Y-60089930D01*
X154601680Y-60089925D01*
X154601680Y-60089924D01*
X154534325Y-59933777D01*
X154520899Y-59915743D01*
X154432767Y-59797360D01*
X154302489Y-59688044D01*
X154150514Y-59611719D01*
X153985033Y-59572500D01*
X153857624Y-59572500D01*
X153857621Y-59572500D01*
X153731084Y-59587290D01*
X153571277Y-59645455D01*
X153429183Y-59738911D01*
X153312483Y-59862607D01*
X153312480Y-59862611D01*
X153227452Y-60009884D01*
X153227450Y-60009890D01*
X153188843Y-60138849D01*
X153178675Y-60172812D01*
X153170402Y-60314852D01*
X153168786Y-60342588D01*
X151604500Y-60342588D01*
X151604500Y-59456072D01*
X151614091Y-59407854D01*
X151618181Y-59397979D01*
X151640228Y-59344754D01*
X151659285Y-59200000D01*
X151640228Y-59055246D01*
X151584355Y-58920358D01*
X151495474Y-58804526D01*
X151495472Y-58804524D01*
X151495471Y-58804523D01*
X151379649Y-58715649D01*
X151379641Y-58715644D01*
X151244752Y-58659771D01*
X151100000Y-58640715D01*
X150955247Y-58659771D01*
X150889283Y-58687095D01*
X150820358Y-58715645D01*
X150820357Y-58715646D01*
X150820356Y-58715646D01*
X150704526Y-58804526D01*
X150615646Y-58920356D01*
X150615645Y-58920358D01*
X150588413Y-58986101D01*
X150559771Y-59055247D01*
X150540715Y-59199999D01*
X150540715Y-59200000D01*
X150559771Y-59344753D01*
X150559772Y-59344754D01*
X150585909Y-59407854D01*
X150595500Y-59456072D01*
X150595500Y-61032215D01*
X150592621Y-61058994D01*
X150591611Y-61063635D01*
X150591611Y-61063640D01*
X150594668Y-61106395D01*
X150579576Y-61175769D01*
X150529373Y-61225970D01*
X150459999Y-61241061D01*
X150405989Y-61224501D01*
X150378001Y-61208342D01*
X150260913Y-61140741D01*
X150061580Y-61071752D01*
X150061578Y-61071751D01*
X150061574Y-61071750D01*
X149852794Y-61041732D01*
X149642106Y-61051768D01*
X149642095Y-61051769D01*
X149437113Y-61101498D01*
X149437111Y-61101498D01*
X149286295Y-61170374D01*
X149260481Y-61182163D01*
X149245236Y-61189125D01*
X149073416Y-61311478D01*
X149073412Y-61311481D01*
X148927851Y-61464142D01*
X148813816Y-61641586D01*
X148766979Y-61758580D01*
X148746801Y-61808984D01*
X148735419Y-61837414D01*
X148695500Y-62044528D01*
X148695500Y-62502630D01*
X148404500Y-62502630D01*
X148404500Y-61626845D01*
X148424502Y-61558724D01*
X148441405Y-61537750D01*
X148874656Y-61104499D01*
X149308535Y-60670620D01*
X149331326Y-60647829D01*
X149341457Y-60627943D01*
X149351784Y-60611092D01*
X149364905Y-60593034D01*
X149371803Y-60571802D01*
X149379371Y-60553536D01*
X149389497Y-60533664D01*
X149389497Y-60533662D01*
X149389498Y-60533661D01*
X149392990Y-60511610D01*
X149397603Y-60492398D01*
X149404500Y-60471172D01*
X149404500Y-60343040D01*
X149404500Y-56854000D01*
X152467001Y-56854000D01*
X152467001Y-56932221D01*
X152473481Y-57003553D01*
X152524633Y-57167706D01*
X152613578Y-57314840D01*
X152613586Y-57314850D01*
X152735149Y-57436413D01*
X152735159Y-57436421D01*
X152882293Y-57525366D01*
X153046446Y-57576518D01*
X153117781Y-57582999D01*
X153120999Y-57582999D01*
X153121000Y-57582998D01*
X153121000Y-56854000D01*
X152467001Y-56854000D01*
X149404500Y-56854000D01*
X149404500Y-56346000D01*
X152467000Y-56346000D01*
X153121000Y-56346000D01*
X153121000Y-55617000D01*
X153117768Y-55617001D01*
X153046446Y-55623481D01*
X152882293Y-55674633D01*
X152735159Y-55763578D01*
X152735149Y-55763586D01*
X152613586Y-55885149D01*
X152613578Y-55885159D01*
X152524633Y-56032293D01*
X152473481Y-56196446D01*
X152473481Y-56196447D01*
X152467000Y-56267777D01*
X152467000Y-56346000D01*
X149404500Y-56346000D01*
X149404500Y-55593000D01*
X149424502Y-55524879D01*
X149478158Y-55478386D01*
X149530500Y-55467000D01*
X149599637Y-55467000D01*
X149599644Y-55467000D01*
X149645811Y-55460922D01*
X149696750Y-55437168D01*
X149766941Y-55426507D01*
X149803248Y-55437168D01*
X149854189Y-55460922D01*
X149900356Y-55467000D01*
X149900363Y-55467000D01*
X150099637Y-55467000D01*
X150099644Y-55467000D01*
X150145811Y-55460922D01*
X150196750Y-55437168D01*
X150266941Y-55426507D01*
X150303248Y-55437168D01*
X150354189Y-55460922D01*
X150400356Y-55467000D01*
X150400363Y-55467000D01*
X150599637Y-55467000D01*
X150599644Y-55467000D01*
X150645811Y-55460922D01*
X150747129Y-55413677D01*
X150826177Y-55334629D01*
X150873422Y-55233311D01*
X150879500Y-55187144D01*
X150879500Y-54618000D01*
X150899502Y-54549879D01*
X150953158Y-54503386D01*
X151005500Y-54492000D01*
X151574637Y-54492000D01*
X151574644Y-54492000D01*
X151620811Y-54485922D01*
X151722129Y-54438677D01*
X151801177Y-54359629D01*
X151848422Y-54258311D01*
X151854500Y-54212144D01*
X151854500Y-54212132D01*
X151854770Y-54208021D01*
X151855937Y-54208097D01*
X151874502Y-54144872D01*
X151903797Y-54113030D01*
X151944386Y-54081885D01*
X151944388Y-54081882D01*
X152022018Y-53980713D01*
X152079356Y-53938845D01*
X152150227Y-53934623D01*
X152212130Y-53969387D01*
X152245411Y-54032099D01*
X152246430Y-54037706D01*
X152260501Y-54126553D01*
X152318673Y-54240723D01*
X152409276Y-54331326D01*
X152438076Y-54346000D01*
X152523445Y-54389498D01*
X152618166Y-54404500D01*
X152618168Y-54404500D01*
X153706832Y-54404500D01*
X153706834Y-54404500D01*
X153801555Y-54389498D01*
X153915723Y-54331326D01*
X154006326Y-54240723D01*
X154064498Y-54126555D01*
X154079500Y-54031834D01*
X154079500Y-53668166D01*
X154069286Y-53603678D01*
X154078385Y-53533271D01*
X154124107Y-53478957D01*
X154177285Y-53459049D01*
X154315577Y-53440843D01*
X154385723Y-53451782D01*
X154421116Y-53476670D01*
X154487697Y-53543251D01*
X154521723Y-53605563D01*
X154523052Y-53652051D01*
X154520500Y-53668166D01*
X154520500Y-54031834D01*
X154520547Y-54032130D01*
X154535501Y-54126553D01*
X154593673Y-54240723D01*
X154684276Y-54331326D01*
X154713076Y-54346000D01*
X154798445Y-54389498D01*
X154893166Y-54404500D01*
X154893168Y-54404500D01*
X155981832Y-54404500D01*
X155981834Y-54404500D01*
X156076555Y-54389498D01*
X156190723Y-54331326D01*
X156230645Y-54291403D01*
X156292954Y-54257380D01*
X156319739Y-54254500D01*
X156984661Y-54254500D01*
X157052782Y-54274502D01*
X157099275Y-54328158D01*
X157107309Y-54358330D01*
X157108584Y-54358092D01*
X157109654Y-54363819D01*
X157151816Y-54512002D01*
X157165672Y-54560701D01*
X157256912Y-54743935D01*
X157277186Y-54770783D01*
X157380266Y-54907284D01*
X157456066Y-54976385D01*
X157492932Y-55037060D01*
X157491143Y-55108034D01*
X157451267Y-55166774D01*
X157385963Y-55194630D01*
X157371180Y-55195500D01*
X156124834Y-55195500D01*
X156098977Y-55192818D01*
X156097137Y-55192432D01*
X156089851Y-55190904D01*
X156069283Y-55193468D01*
X156056865Y-55195016D01*
X156049077Y-55195500D01*
X156045619Y-55195500D01*
X156025155Y-55198914D01*
X156022582Y-55199289D01*
X155972448Y-55205538D01*
X155965299Y-55207666D01*
X155958304Y-55210069D01*
X155913847Y-55234127D01*
X155911535Y-55235317D01*
X155866158Y-55257501D01*
X155860108Y-55261820D01*
X155854248Y-55266382D01*
X155820031Y-55303553D01*
X155818228Y-55305432D01*
X155290064Y-55833595D01*
X155227752Y-55867621D01*
X155200969Y-55870500D01*
X154770259Y-55870500D01*
X154770244Y-55870501D01*
X154739547Y-55873379D01*
X154739544Y-55873380D01*
X154610232Y-55918628D01*
X154610225Y-55918631D01*
X154499991Y-55999988D01*
X154447501Y-56071109D01*
X154390955Y-56114041D01*
X154320176Y-56119587D01*
X154257634Y-56085986D01*
X154229018Y-56039009D01*
X154228495Y-56039245D01*
X154226607Y-56035051D01*
X154225827Y-56033770D01*
X154225368Y-56032297D01*
X154225367Y-56032295D01*
X154136421Y-55885159D01*
X154136413Y-55885149D01*
X154014850Y-55763586D01*
X154014840Y-55763578D01*
X153867706Y-55674633D01*
X153703552Y-55623481D01*
X153632223Y-55617000D01*
X153629000Y-55617000D01*
X153629000Y-57582999D01*
X153632222Y-57582999D01*
X153703553Y-57576518D01*
X153867706Y-57525366D01*
X154014840Y-57436421D01*
X154014850Y-57436413D01*
X154136413Y-57314850D01*
X154136421Y-57314840D01*
X154225365Y-57167706D01*
X154225825Y-57166233D01*
X154226455Y-57165286D01*
X154228495Y-57160755D01*
X154229248Y-57161094D01*
X154265185Y-57107145D01*
X154330241Y-57078717D01*
X154400340Y-57089974D01*
X154447500Y-57128889D01*
X154488426Y-57184342D01*
X154499991Y-57200011D01*
X154610225Y-57281368D01*
X154610232Y-57281371D01*
X154739546Y-57326620D01*
X154739549Y-57326621D01*
X154770251Y-57329500D01*
X155279748Y-57329499D01*
X155310451Y-57326621D01*
X155439773Y-57281369D01*
X155550010Y-57200010D01*
X155631369Y-57089773D01*
X155676621Y-56960451D01*
X155679500Y-56929749D01*
X155679499Y-56499028D01*
X155699501Y-56430909D01*
X155716399Y-56409938D01*
X156184934Y-55941404D01*
X156247247Y-55907379D01*
X156274030Y-55904500D01*
X156716000Y-55904500D01*
X156784121Y-55924502D01*
X156830614Y-55978158D01*
X156842000Y-56030500D01*
X156842000Y-56446000D01*
X157768884Y-56446000D01*
X157740507Y-56490156D01*
X157700000Y-56628111D01*
X157700000Y-56771889D01*
X157740507Y-56909844D01*
X157768884Y-56954000D01*
X156842000Y-56954000D01*
X156842000Y-57598597D01*
X156848505Y-57659093D01*
X156899555Y-57795964D01*
X156899555Y-57795965D01*
X156987095Y-57912904D01*
X157104034Y-58000444D01*
X157240906Y-58051494D01*
X157301402Y-58057999D01*
X157301415Y-58058000D01*
X157946000Y-58058000D01*
X157946000Y-57133674D01*
X158057685Y-57184680D01*
X158164237Y-57200000D01*
X158235763Y-57200000D01*
X158342315Y-57184680D01*
X158454000Y-57133674D01*
X158454000Y-58058000D01*
X159098585Y-58058000D01*
X159098597Y-58057999D01*
X159159093Y-58051494D01*
X159295964Y-58000444D01*
X159295965Y-58000444D01*
X159412904Y-57912904D01*
X159500444Y-57795965D01*
X159500444Y-57795964D01*
X159551494Y-57659093D01*
X159557999Y-57598597D01*
X159558000Y-57598585D01*
X159558000Y-56954000D01*
X158631116Y-56954000D01*
X158659493Y-56909844D01*
X158700000Y-56771889D01*
X158700000Y-56628111D01*
X158659493Y-56490156D01*
X158631116Y-56446000D01*
X159558000Y-56446000D01*
X159558000Y-55801414D01*
X159557999Y-55801407D01*
X159553952Y-55763769D01*
X159566556Y-55693900D01*
X159590132Y-55661206D01*
X159726384Y-55524953D01*
X159788694Y-55490929D01*
X159859509Y-55495994D01*
X159916345Y-55538541D01*
X159940399Y-55597603D01*
X159959771Y-55744752D01*
X160015644Y-55879641D01*
X160015649Y-55879649D01*
X160104525Y-55995474D01*
X160220350Y-56084350D01*
X160220357Y-56084355D01*
X160355246Y-56140228D01*
X160500000Y-56159285D01*
X160500001Y-56159285D01*
X160596812Y-56146540D01*
X160605044Y-56146000D01*
X160889790Y-56146000D01*
X160914371Y-56148420D01*
X160944933Y-56154500D01*
X161673001Y-56154499D01*
X161741121Y-56174501D01*
X161787614Y-56228157D01*
X161799000Y-56280499D01*
X161799000Y-56528000D01*
X161778998Y-56596121D01*
X161725342Y-56642614D01*
X161673000Y-56654000D01*
X160462000Y-56654000D01*
X160462000Y-56748597D01*
X160468505Y-56809093D01*
X160519555Y-56945964D01*
X160519555Y-56945965D01*
X160607095Y-57062904D01*
X160724034Y-57150444D01*
X160724036Y-57150445D01*
X160762659Y-57164850D01*
X160819495Y-57207396D01*
X160844307Y-57273916D01*
X160837558Y-57324518D01*
X160834980Y-57331886D01*
X160830234Y-57345450D01*
X160810568Y-57520000D01*
X160830234Y-57694551D01*
X160888251Y-57860352D01*
X160888252Y-57860354D01*
X160981705Y-58009085D01*
X161105914Y-58133294D01*
X161210226Y-58198837D01*
X161254648Y-58226749D01*
X161420447Y-58284765D01*
X161458043Y-58289001D01*
X161551224Y-58299500D01*
X161551226Y-58299500D01*
X162688776Y-58299500D01*
X162773090Y-58290000D01*
X162819553Y-58284765D01*
X162985352Y-58226749D01*
X163134085Y-58133294D01*
X163258294Y-58009085D01*
X163258296Y-58009080D01*
X163260003Y-58006942D01*
X163261462Y-58005917D01*
X163263298Y-58004082D01*
X163263619Y-58004403D01*
X163318113Y-57966153D01*
X163358515Y-57959500D01*
X165123288Y-57959500D01*
X165191409Y-57979502D01*
X165224354Y-58010256D01*
X165247461Y-58041294D01*
X165296167Y-58082163D01*
X165382571Y-58154666D01*
X165382573Y-58154667D01*
X165540189Y-58233824D01*
X165711812Y-58274500D01*
X165711814Y-58274500D01*
X166843944Y-58274500D01*
X166942373Y-58262995D01*
X166975184Y-58259160D01*
X167140924Y-58198836D01*
X167288285Y-58101915D01*
X167409322Y-57973623D01*
X167414380Y-57964861D01*
X167465761Y-57915868D01*
X167535475Y-57902430D01*
X167601386Y-57928816D01*
X167642569Y-57986647D01*
X167649500Y-58027860D01*
X167649500Y-71804493D01*
X167629498Y-71872614D01*
X167575842Y-71919107D01*
X167505568Y-71929211D01*
X167440988Y-71899717D01*
X167402604Y-71839991D01*
X167397673Y-71811087D01*
X167393571Y-71732817D01*
X167336051Y-71369646D01*
X167240887Y-71014489D01*
X167240883Y-71014476D01*
X167109119Y-70671219D01*
X167109115Y-70671211D01*
X166942190Y-70343602D01*
X166942187Y-70343596D01*
X166741922Y-70035215D01*
X166741918Y-70035210D01*
X166554921Y-69804288D01*
X166554920Y-69804287D01*
X165126084Y-71233122D01*
X165007368Y-71080596D01*
X164824477Y-70912232D01*
X164766461Y-70874328D01*
X166195711Y-69445078D01*
X166195710Y-69445077D01*
X165964789Y-69258081D01*
X165964784Y-69258077D01*
X165656403Y-69057812D01*
X165656397Y-69057809D01*
X165328788Y-68890884D01*
X165328780Y-68890880D01*
X164985523Y-68759116D01*
X164985510Y-68759112D01*
X164630353Y-68663948D01*
X164267182Y-68606428D01*
X163900007Y-68587186D01*
X163899993Y-68587186D01*
X163532817Y-68606428D01*
X163169646Y-68663948D01*
X162814489Y-68759112D01*
X162814476Y-68759116D01*
X162471219Y-68890880D01*
X162471211Y-68890884D01*
X162143602Y-69057809D01*
X162143596Y-69057812D01*
X161835227Y-69258068D01*
X161835222Y-69258072D01*
X161604287Y-69445078D01*
X163033538Y-70874329D01*
X162975523Y-70912232D01*
X162792632Y-71080596D01*
X162673914Y-71233123D01*
X161245078Y-69804287D01*
X161058072Y-70035222D01*
X161058068Y-70035227D01*
X160857812Y-70343596D01*
X160857809Y-70343602D01*
X160690884Y-70671211D01*
X160690880Y-70671219D01*
X160559116Y-71014476D01*
X160559112Y-71014489D01*
X160463948Y-71369646D01*
X160406428Y-71732817D01*
X160387186Y-72099992D01*
X160387186Y-72100007D01*
X160406428Y-72467182D01*
X160463948Y-72830353D01*
X160559112Y-73185510D01*
X160559116Y-73185523D01*
X160690880Y-73528780D01*
X160690884Y-73528788D01*
X160857809Y-73856397D01*
X160857812Y-73856403D01*
X161058077Y-74164784D01*
X161058081Y-74164789D01*
X161245077Y-74395710D01*
X161245078Y-74395711D01*
X162673913Y-72966875D01*
X162792632Y-73119404D01*
X162975523Y-73287768D01*
X163033537Y-73325670D01*
X161604287Y-74754920D01*
X161604288Y-74754921D01*
X161835210Y-74941918D01*
X161835215Y-74941922D01*
X162143596Y-75142187D01*
X162143602Y-75142190D01*
X162471211Y-75309115D01*
X162471219Y-75309119D01*
X162814476Y-75440883D01*
X162814489Y-75440887D01*
X163169646Y-75536051D01*
X163532817Y-75593571D01*
X163611087Y-75597673D01*
X163678068Y-75621213D01*
X163721689Y-75677228D01*
X163728101Y-75747934D01*
X163695269Y-75810883D01*
X163633615Y-75846088D01*
X163604493Y-75849500D01*
X138195507Y-75849500D01*
X138127386Y-75829498D01*
X138080893Y-75775842D01*
X138070789Y-75705568D01*
X138100283Y-75640988D01*
X138160009Y-75602604D01*
X138188913Y-75597673D01*
X138267182Y-75593571D01*
X138630353Y-75536051D01*
X138985510Y-75440887D01*
X138985523Y-75440883D01*
X139328780Y-75309119D01*
X139328788Y-75309115D01*
X139656397Y-75142190D01*
X139656403Y-75142187D01*
X139964782Y-74941924D01*
X140195711Y-74754920D01*
X138766461Y-73325670D01*
X138824477Y-73287768D01*
X139007368Y-73119404D01*
X139126085Y-72966876D01*
X140554920Y-74395711D01*
X140741924Y-74164782D01*
X140942187Y-73856403D01*
X140942190Y-73856397D01*
X141109115Y-73528788D01*
X141109119Y-73528780D01*
X141240883Y-73185523D01*
X141240887Y-73185510D01*
X141336051Y-72830353D01*
X141393571Y-72467182D01*
X141412814Y-72100007D01*
X141412814Y-72099992D01*
X141393571Y-71732817D01*
X141336051Y-71369646D01*
X141240887Y-71014489D01*
X141240883Y-71014476D01*
X141109119Y-70671219D01*
X141109115Y-70671211D01*
X140942190Y-70343602D01*
X140942187Y-70343596D01*
X140741922Y-70035215D01*
X140741918Y-70035210D01*
X140554921Y-69804288D01*
X140554920Y-69804287D01*
X139126084Y-71233122D01*
X139007368Y-71080596D01*
X138824477Y-70912232D01*
X138766461Y-70874328D01*
X140195711Y-69445078D01*
X140195710Y-69445077D01*
X139964789Y-69258081D01*
X139964784Y-69258077D01*
X139656403Y-69057812D01*
X139656397Y-69057809D01*
X139328788Y-68890884D01*
X139328780Y-68890880D01*
X138985523Y-68759116D01*
X138985510Y-68759112D01*
X138630353Y-68663948D01*
X138267182Y-68606428D01*
X137900007Y-68587186D01*
X137899993Y-68587186D01*
X137532817Y-68606428D01*
X137169646Y-68663948D01*
X136814489Y-68759112D01*
X136814476Y-68759116D01*
X136471219Y-68890880D01*
X136471211Y-68890884D01*
X136143602Y-69057809D01*
X136143596Y-69057812D01*
X135835227Y-69258068D01*
X135835222Y-69258072D01*
X135604287Y-69445078D01*
X137033538Y-70874329D01*
X136975523Y-70912232D01*
X136792632Y-71080596D01*
X136673914Y-71233123D01*
X135245078Y-69804287D01*
X135058072Y-70035222D01*
X135058068Y-70035227D01*
X134857812Y-70343596D01*
X134857809Y-70343602D01*
X134690884Y-70671211D01*
X134690880Y-70671219D01*
X134559116Y-71014476D01*
X134559112Y-71014489D01*
X134463948Y-71369646D01*
X134406428Y-71732817D01*
X134387186Y-72099992D01*
X134387186Y-72100007D01*
X134406428Y-72467182D01*
X134463948Y-72830353D01*
X134559112Y-73185510D01*
X134559116Y-73185523D01*
X134690880Y-73528780D01*
X134690884Y-73528788D01*
X134857809Y-73856397D01*
X134857812Y-73856403D01*
X135058077Y-74164784D01*
X135058081Y-74164789D01*
X135245077Y-74395710D01*
X135245078Y-74395711D01*
X136673913Y-72966875D01*
X136792632Y-73119404D01*
X136975523Y-73287768D01*
X137033537Y-73325670D01*
X135604287Y-74754920D01*
X135604288Y-74754921D01*
X135835210Y-74941918D01*
X135835215Y-74941922D01*
X136143596Y-75142187D01*
X136143602Y-75142190D01*
X136471211Y-75309115D01*
X136471219Y-75309119D01*
X136814476Y-75440883D01*
X136814489Y-75440887D01*
X137169646Y-75536051D01*
X137532817Y-75593571D01*
X137611087Y-75597673D01*
X137678068Y-75621213D01*
X137721689Y-75677228D01*
X137728101Y-75747934D01*
X137695269Y-75810883D01*
X137633615Y-75846088D01*
X137604493Y-75849500D01*
X128276500Y-75849500D01*
X128208379Y-75829498D01*
X128161886Y-75775842D01*
X128150500Y-75723500D01*
X128150500Y-31476500D01*
X128170502Y-31408379D01*
X128224158Y-31361886D01*
X128276500Y-31350500D01*
X137604493Y-31350500D01*
X137672614Y-31370502D01*
G37*
G04 #@! TD.AperFunction*
G04 #@! TA.AperFunction,Conductor*
G36*
X167610883Y-72304730D02*
G01*
X167646088Y-72366384D01*
X167649500Y-72395506D01*
X167649500Y-75723500D01*
X167629498Y-75791621D01*
X167575842Y-75838114D01*
X167523500Y-75849500D01*
X164195507Y-75849500D01*
X164127386Y-75829498D01*
X164080893Y-75775842D01*
X164070789Y-75705568D01*
X164100283Y-75640988D01*
X164160009Y-75602604D01*
X164188913Y-75597673D01*
X164267182Y-75593571D01*
X164630353Y-75536051D01*
X164985510Y-75440887D01*
X164985523Y-75440883D01*
X165328780Y-75309119D01*
X165328788Y-75309115D01*
X165656397Y-75142190D01*
X165656403Y-75142187D01*
X165964782Y-74941924D01*
X166195711Y-74754920D01*
X164766461Y-73325670D01*
X164824477Y-73287768D01*
X165007368Y-73119404D01*
X165126085Y-72966876D01*
X166554920Y-74395711D01*
X166741924Y-74164782D01*
X166942187Y-73856403D01*
X166942190Y-73856397D01*
X167109115Y-73528788D01*
X167109119Y-73528780D01*
X167240883Y-73185523D01*
X167240887Y-73185510D01*
X167336051Y-72830353D01*
X167393571Y-72467182D01*
X167397673Y-72388912D01*
X167421212Y-72321931D01*
X167477228Y-72278310D01*
X167547934Y-72271898D01*
X167610883Y-72304730D01*
G37*
G04 #@! TD.AperFunction*
G04 #@! TA.AperFunction,Conductor*
G36*
X136200752Y-59562002D02*
G01*
X136247245Y-59615658D01*
X136257349Y-59685932D01*
X136227855Y-59750512D01*
X136193724Y-59776274D01*
X136194358Y-59777302D01*
X136042271Y-59871109D01*
X136042265Y-59871114D01*
X135921114Y-59992265D01*
X135921109Y-59992271D01*
X135831152Y-60138115D01*
X135777257Y-60300758D01*
X135777255Y-60300770D01*
X135767000Y-60401147D01*
X135767000Y-60446000D01*
X136853000Y-60446000D01*
X136921121Y-60466002D01*
X136967614Y-60519658D01*
X136979000Y-60572000D01*
X136979000Y-61683000D01*
X136998853Y-61683000D01*
X136998852Y-61682999D01*
X137099229Y-61672744D01*
X137099241Y-61672742D01*
X137261884Y-61618847D01*
X137407728Y-61528890D01*
X137407734Y-61528885D01*
X137528885Y-61407734D01*
X137528892Y-61407725D01*
X137561521Y-61354826D01*
X137614306Y-61307347D01*
X137684381Y-61295944D01*
X137744270Y-61320103D01*
X137757125Y-61329726D01*
X137817835Y-61375174D01*
X137817836Y-61375174D01*
X137817837Y-61375175D01*
X137947027Y-61423360D01*
X138004136Y-61429500D01*
X138251339Y-61429500D01*
X138319460Y-61449502D01*
X138340434Y-61466405D01*
X139932832Y-63058803D01*
X139949732Y-63079773D01*
X139952304Y-63083775D01*
X139952309Y-63083779D01*
X139991802Y-63118000D01*
X139995082Y-63121053D01*
X140006279Y-63132250D01*
X140018950Y-63141735D01*
X140022426Y-63144536D01*
X140061942Y-63178777D01*
X140066261Y-63180749D01*
X140089425Y-63194492D01*
X140093233Y-63197343D01*
X140118396Y-63206728D01*
X140142203Y-63215608D01*
X140146360Y-63217330D01*
X140179270Y-63232359D01*
X140193904Y-63239042D01*
X140198601Y-63239717D01*
X140224709Y-63246380D01*
X140229158Y-63248040D01*
X140281315Y-63251770D01*
X140285738Y-63252245D01*
X140301417Y-63254500D01*
X140317232Y-63254500D01*
X140321728Y-63254661D01*
X140340428Y-63255997D01*
X140373860Y-63258389D01*
X140378503Y-63257378D01*
X140405284Y-63254500D01*
X140943900Y-63254500D01*
X140992117Y-63264090D01*
X141055218Y-63290228D01*
X141199972Y-63309285D01*
X141344726Y-63290228D01*
X141479615Y-63234355D01*
X141595446Y-63145474D01*
X141684327Y-63029643D01*
X141740200Y-62894754D01*
X141759257Y-62750000D01*
X141757912Y-62739787D01*
X141751119Y-62688182D01*
X141745692Y-62646963D01*
X141756631Y-62576816D01*
X141803759Y-62523717D01*
X141870614Y-62504518D01*
X145119500Y-62504518D01*
X145187621Y-62524520D01*
X145234114Y-62578176D01*
X145245500Y-62630518D01*
X145245500Y-66670970D01*
X145225498Y-66739091D01*
X145208596Y-66760065D01*
X144310060Y-67658600D01*
X144247750Y-67692624D01*
X144220967Y-67695504D01*
X144080024Y-67695504D01*
X144011903Y-67675502D01*
X143965410Y-67621846D01*
X143955306Y-67551572D01*
X143984800Y-67486992D01*
X143990914Y-67480423D01*
X144135435Y-67335902D01*
X144155608Y-67319521D01*
X144163416Y-67314421D01*
X144183842Y-67288176D01*
X144189001Y-67282337D01*
X144191442Y-67279897D01*
X144203526Y-67262970D01*
X144205028Y-67260955D01*
X144236085Y-67221056D01*
X144236087Y-67221048D01*
X144239624Y-67214513D01*
X144242884Y-67207847D01*
X144253928Y-67170750D01*
X144257312Y-67159381D01*
X144258083Y-67156975D01*
X144274500Y-67109156D01*
X144274500Y-67109149D01*
X144275723Y-67101821D01*
X144276422Y-67096218D01*
X144276865Y-67095196D01*
X144278616Y-67087741D01*
X144279853Y-67083681D01*
X144281630Y-67084222D01*
X144304698Y-67031095D01*
X144358171Y-66995293D01*
X144357836Y-66994483D01*
X144361891Y-66992803D01*
X144363693Y-66991597D01*
X144366593Y-66990855D01*
X144369299Y-66989734D01*
X144369301Y-66989734D01*
X144453484Y-66933484D01*
X144509734Y-66849301D01*
X144524500Y-66775067D01*
X144524499Y-66424934D01*
X144524498Y-66424931D01*
X144524498Y-66424926D01*
X144514484Y-66374580D01*
X144514484Y-66325421D01*
X144524500Y-66275067D01*
X144524499Y-66257126D01*
X144544498Y-66189009D01*
X144574991Y-66156256D01*
X144632901Y-66112906D01*
X144720445Y-65995963D01*
X144771494Y-65859093D01*
X144777999Y-65798597D01*
X144778000Y-65798585D01*
X144778000Y-65750000D01*
X144466988Y-65750000D01*
X144398867Y-65729998D01*
X144396986Y-65728765D01*
X144369301Y-65710266D01*
X144369298Y-65710265D01*
X144315574Y-65699579D01*
X144252665Y-65666671D01*
X144217533Y-65604976D01*
X144221333Y-65534082D01*
X144262859Y-65476496D01*
X144328926Y-65450501D01*
X144340156Y-65450000D01*
X144778000Y-65450000D01*
X144778000Y-65401413D01*
X144777999Y-65401406D01*
X144773920Y-65363471D01*
X144773920Y-65336526D01*
X144777999Y-65298590D01*
X144778000Y-65298586D01*
X144778000Y-65250000D01*
X144340151Y-65250000D01*
X144272030Y-65229998D01*
X144225537Y-65176342D01*
X144215433Y-65106068D01*
X144244927Y-65041488D01*
X144304653Y-65003104D01*
X144315571Y-65000421D01*
X144329506Y-64997649D01*
X144369301Y-64989734D01*
X144369302Y-64989733D01*
X144369303Y-64989733D01*
X144396986Y-64971236D01*
X144464739Y-64950020D01*
X144466989Y-64950000D01*
X144778000Y-64950000D01*
X144778000Y-64901414D01*
X144777999Y-64901402D01*
X144771494Y-64840906D01*
X144720444Y-64704035D01*
X144720444Y-64704034D01*
X144632904Y-64587095D01*
X144574989Y-64543740D01*
X144532443Y-64486904D01*
X144524499Y-64442873D01*
X144524499Y-64424936D01*
X144524498Y-64424927D01*
X144509734Y-64350699D01*
X144464155Y-64282486D01*
X144453484Y-64266516D01*
X144453483Y-64266515D01*
X144369302Y-64210266D01*
X144295069Y-64195500D01*
X143807126Y-64195500D01*
X143739005Y-64175498D01*
X143706258Y-64145010D01*
X143662902Y-64087094D01*
X143545965Y-63999555D01*
X143409093Y-63948505D01*
X143348597Y-63942000D01*
X142254000Y-63942000D01*
X142254000Y-65346000D01*
X143722000Y-65346000D01*
X143790121Y-65366002D01*
X143836614Y-65419658D01*
X143841884Y-65443885D01*
X143878404Y-65480405D01*
X143912430Y-65542717D01*
X143907365Y-65613532D01*
X143864818Y-65670368D01*
X143798298Y-65695179D01*
X143789310Y-65695500D01*
X143544936Y-65695500D01*
X143544926Y-65695501D01*
X143470699Y-65710265D01*
X143386515Y-65766516D01*
X143365478Y-65798001D01*
X143311002Y-65843529D01*
X143260713Y-65854000D01*
X141872000Y-65854000D01*
X141803879Y-65833998D01*
X141757386Y-65780342D01*
X141746000Y-65728000D01*
X141746000Y-63942000D01*
X140651399Y-63942000D01*
X140583070Y-63949347D01*
X140582901Y-63947781D01*
X140547098Y-63947779D01*
X140546930Y-63949347D01*
X140478600Y-63942000D01*
X140230000Y-63942000D01*
X140230000Y-64569500D01*
X140209998Y-64637621D01*
X140156342Y-64684114D01*
X140104000Y-64695500D01*
X140056000Y-64695500D01*
X139987879Y-64675498D01*
X139941386Y-64621842D01*
X139930000Y-64569500D01*
X139930000Y-63942000D01*
X139681402Y-63942000D01*
X139620904Y-63948505D01*
X139490242Y-63997238D01*
X139419426Y-64002302D01*
X139357116Y-63968277D01*
X139066405Y-63677566D01*
X139032379Y-63615254D01*
X139029500Y-63588471D01*
X139029500Y-63154140D01*
X139029499Y-63154128D01*
X139023360Y-63097027D01*
X138975175Y-62967837D01*
X138975173Y-62967835D01*
X138975173Y-62967833D01*
X138975172Y-62967832D01*
X138920465Y-62894754D01*
X138892544Y-62857456D01*
X138828232Y-62809312D01*
X138782167Y-62774827D01*
X138782166Y-62774826D01*
X138715601Y-62749999D01*
X138652973Y-62726640D01*
X138645834Y-62725872D01*
X138595871Y-62720500D01*
X138595864Y-62720500D01*
X138004136Y-62720500D01*
X138004128Y-62720500D01*
X137947027Y-62726640D01*
X137817833Y-62774826D01*
X137817832Y-62774827D01*
X137707458Y-62857454D01*
X137707457Y-62857455D01*
X137707456Y-62857456D01*
X137679535Y-62894754D01*
X137624824Y-62967838D01*
X137623225Y-62972124D01*
X137621767Y-62976033D01*
X137579222Y-63032868D01*
X137512702Y-63057679D01*
X137503713Y-63058000D01*
X132311529Y-63058000D01*
X132243408Y-63037998D01*
X132222434Y-63021095D01*
X132003438Y-62802099D01*
X131969412Y-62739787D01*
X131974477Y-62668972D01*
X131978332Y-62659767D01*
X132030512Y-62547870D01*
X132089589Y-62327389D01*
X132109483Y-62100000D01*
X132089589Y-61872611D01*
X132089442Y-61872064D01*
X132030512Y-61652131D01*
X132030512Y-61652130D01*
X131934046Y-61445259D01*
X131846267Y-61319898D01*
X131803125Y-61258285D01*
X131803118Y-61258276D01*
X131641727Y-61096885D01*
X131641722Y-61096881D01*
X131641722Y-61096880D01*
X131641719Y-61096878D01*
X131454742Y-60965954D01*
X131454740Y-60965953D01*
X131454737Y-60965951D01*
X131429107Y-60954000D01*
X135767000Y-60954000D01*
X135767000Y-60998852D01*
X135777255Y-61099229D01*
X135777257Y-61099241D01*
X135831152Y-61261884D01*
X135921109Y-61407728D01*
X135921114Y-61407734D01*
X136042265Y-61528885D01*
X136042271Y-61528890D01*
X136188115Y-61618847D01*
X136350758Y-61672742D01*
X136350770Y-61672744D01*
X136451147Y-61682999D01*
X136451147Y-61683000D01*
X136471000Y-61683000D01*
X136471000Y-60954000D01*
X135767000Y-60954000D01*
X131429107Y-60954000D01*
X131408080Y-60944195D01*
X131354794Y-60897278D01*
X131335333Y-60829001D01*
X131355874Y-60761041D01*
X131408080Y-60715805D01*
X131422718Y-60708978D01*
X131454742Y-60694046D01*
X131641719Y-60563122D01*
X131803122Y-60401719D01*
X131934046Y-60214742D01*
X132030512Y-60007870D01*
X132089589Y-59787389D01*
X132100995Y-59657015D01*
X132126857Y-59590900D01*
X132184361Y-59549261D01*
X132226515Y-59542000D01*
X136132631Y-59542000D01*
X136200752Y-59562002D01*
G37*
G04 #@! TD.AperFunction*
G04 #@! TA.AperFunction,Conductor*
G36*
X136200752Y-53462002D02*
G01*
X136247245Y-53515658D01*
X136257349Y-53585932D01*
X136227855Y-53650512D01*
X136193724Y-53676274D01*
X136194358Y-53677302D01*
X136042271Y-53771109D01*
X136042265Y-53771114D01*
X135921114Y-53892265D01*
X135921109Y-53892271D01*
X135831152Y-54038115D01*
X135777257Y-54200758D01*
X135777255Y-54200770D01*
X135767000Y-54301147D01*
X135767000Y-54346000D01*
X136853000Y-54346000D01*
X136921121Y-54366002D01*
X136967614Y-54419658D01*
X136979000Y-54472000D01*
X136979000Y-55583000D01*
X136998853Y-55583000D01*
X136998852Y-55582999D01*
X137099229Y-55572744D01*
X137099241Y-55572742D01*
X137261884Y-55518847D01*
X137407728Y-55428890D01*
X137407734Y-55428885D01*
X137528885Y-55307734D01*
X137528892Y-55307725D01*
X137561521Y-55254826D01*
X137614306Y-55207347D01*
X137684381Y-55195944D01*
X137744270Y-55220103D01*
X137776392Y-55244149D01*
X137817835Y-55275174D01*
X137817836Y-55275174D01*
X137817837Y-55275175D01*
X137947027Y-55323360D01*
X138004136Y-55329500D01*
X138363839Y-55329500D01*
X138431960Y-55349502D01*
X138452934Y-55366405D01*
X140218829Y-57132300D01*
X140235729Y-57153270D01*
X140238301Y-57157272D01*
X140269932Y-57184680D01*
X140277799Y-57191497D01*
X140281079Y-57194550D01*
X140292276Y-57205747D01*
X140304947Y-57215232D01*
X140308423Y-57218033D01*
X140347939Y-57252274D01*
X140352258Y-57254246D01*
X140375422Y-57267989D01*
X140379230Y-57270840D01*
X140404393Y-57280225D01*
X140428200Y-57289105D01*
X140432357Y-57290827D01*
X140445934Y-57297027D01*
X140479901Y-57312539D01*
X140484598Y-57313214D01*
X140510706Y-57319877D01*
X140515155Y-57321537D01*
X140567289Y-57325265D01*
X140571750Y-57325744D01*
X140582140Y-57327238D01*
X140587412Y-57327997D01*
X140587414Y-57327997D01*
X140603220Y-57327997D01*
X140607716Y-57328158D01*
X140626013Y-57329466D01*
X140659857Y-57331887D01*
X140664499Y-57330877D01*
X140691284Y-57327997D01*
X140943928Y-57327997D01*
X140992145Y-57337587D01*
X141055246Y-57363725D01*
X141127623Y-57373253D01*
X141199999Y-57382782D01*
X141199999Y-57382781D01*
X141200000Y-57382782D01*
X141344754Y-57363725D01*
X141479643Y-57307852D01*
X141595474Y-57218971D01*
X141684355Y-57103140D01*
X141740228Y-56968251D01*
X141759285Y-56823497D01*
X141751622Y-56765287D01*
X141745718Y-56720443D01*
X141756657Y-56650294D01*
X141803786Y-56597196D01*
X141870640Y-56577997D01*
X144824468Y-56577997D01*
X144892589Y-56597999D01*
X144913557Y-56614896D01*
X145208597Y-56909936D01*
X145242620Y-56972245D01*
X145245500Y-56999028D01*
X145245500Y-61669518D01*
X145225498Y-61737639D01*
X145171842Y-61784132D01*
X145119500Y-61795518D01*
X144570012Y-61795518D01*
X144501891Y-61775516D01*
X144455398Y-61721860D01*
X144445294Y-61651586D01*
X144474788Y-61587006D01*
X144480902Y-61580437D01*
X144685436Y-61375903D01*
X144705609Y-61359522D01*
X144713417Y-61354422D01*
X144733843Y-61328177D01*
X144739002Y-61322338D01*
X144741443Y-61319898D01*
X144753527Y-61302971D01*
X144755029Y-61300956D01*
X144786086Y-61261057D01*
X144786088Y-61261049D01*
X144789625Y-61254514D01*
X144792885Y-61247848D01*
X144807313Y-61199382D01*
X144808084Y-61196976D01*
X144824501Y-61149157D01*
X144824501Y-61149150D01*
X144825726Y-61141809D01*
X144826643Y-61134454D01*
X144825328Y-61102658D01*
X144824554Y-61083977D01*
X144824501Y-61081381D01*
X144824501Y-60349835D01*
X144827183Y-60323975D01*
X144829096Y-60314854D01*
X144824984Y-60281867D01*
X144824501Y-60274077D01*
X144824501Y-60270628D01*
X144824501Y-60270624D01*
X144821082Y-60250139D01*
X144820713Y-60247603D01*
X144816617Y-60214741D01*
X144814462Y-60197450D01*
X144814460Y-60197447D01*
X144812342Y-60190331D01*
X144809930Y-60183306D01*
X144809930Y-60183303D01*
X144785873Y-60138849D01*
X144784694Y-60136560D01*
X144762500Y-60091161D01*
X144762497Y-60091158D01*
X144758177Y-60085108D01*
X144753618Y-60079250D01*
X144726057Y-60053879D01*
X144716424Y-60045010D01*
X144714567Y-60043228D01*
X144710135Y-60038796D01*
X144676109Y-59976484D01*
X144673952Y-59936228D01*
X144677999Y-59898590D01*
X144678000Y-59898585D01*
X144678000Y-59850000D01*
X144463290Y-59850000D01*
X144439648Y-59846054D01*
X144439454Y-59847218D01*
X144421843Y-59844279D01*
X144414453Y-59843357D01*
X144365452Y-59845385D01*
X144296563Y-59828216D01*
X144290241Y-59824258D01*
X144269301Y-59810266D01*
X144215574Y-59799579D01*
X144152665Y-59766671D01*
X144117533Y-59704976D01*
X144121333Y-59634082D01*
X144162859Y-59576496D01*
X144228926Y-59550501D01*
X144240156Y-59550000D01*
X144678000Y-59550000D01*
X144678000Y-59501413D01*
X144677999Y-59501406D01*
X144673920Y-59463471D01*
X144673920Y-59436526D01*
X144677999Y-59398590D01*
X144678000Y-59398586D01*
X144678000Y-59350000D01*
X144240151Y-59350000D01*
X144172030Y-59329998D01*
X144125537Y-59276342D01*
X144115433Y-59206068D01*
X144144927Y-59141488D01*
X144204653Y-59103104D01*
X144215571Y-59100421D01*
X144229506Y-59097649D01*
X144269301Y-59089734D01*
X144269302Y-59089733D01*
X144269303Y-59089733D01*
X144296986Y-59071236D01*
X144364739Y-59050020D01*
X144366989Y-59050000D01*
X144678000Y-59050000D01*
X144678000Y-59001414D01*
X144677999Y-59001402D01*
X144671494Y-58940906D01*
X144620444Y-58804035D01*
X144620444Y-58804034D01*
X144532904Y-58687095D01*
X144474989Y-58643740D01*
X144432443Y-58586904D01*
X144424499Y-58542873D01*
X144424499Y-58524936D01*
X144424498Y-58524927D01*
X144409734Y-58450699D01*
X144381292Y-58408133D01*
X144353484Y-58366516D01*
X144339659Y-58357278D01*
X144269302Y-58310266D01*
X144195069Y-58295500D01*
X143707126Y-58295500D01*
X143639005Y-58275498D01*
X143606258Y-58245010D01*
X143562902Y-58187094D01*
X143445965Y-58099555D01*
X143309093Y-58048505D01*
X143248597Y-58042000D01*
X142154000Y-58042000D01*
X142154000Y-59446000D01*
X143622000Y-59446000D01*
X143690121Y-59466002D01*
X143736614Y-59519658D01*
X143741884Y-59543885D01*
X143778404Y-59580405D01*
X143812430Y-59642717D01*
X143807365Y-59713532D01*
X143764818Y-59770368D01*
X143698298Y-59795179D01*
X143689310Y-59795500D01*
X143444936Y-59795500D01*
X143444926Y-59795501D01*
X143370699Y-59810265D01*
X143286515Y-59866516D01*
X143265478Y-59898001D01*
X143211002Y-59943529D01*
X143160713Y-59954000D01*
X141772000Y-59954000D01*
X141703879Y-59933998D01*
X141657386Y-59880342D01*
X141646000Y-59828000D01*
X141646000Y-58042000D01*
X140551399Y-58042000D01*
X140483070Y-58049347D01*
X140482901Y-58047781D01*
X140447098Y-58047779D01*
X140446930Y-58049347D01*
X140378600Y-58042000D01*
X140130000Y-58042000D01*
X140130000Y-58669500D01*
X140109998Y-58737621D01*
X140056342Y-58784114D01*
X140004000Y-58795500D01*
X139956000Y-58795500D01*
X139887879Y-58775498D01*
X139841386Y-58721842D01*
X139830000Y-58669500D01*
X139830000Y-58042000D01*
X139581402Y-58042000D01*
X139520906Y-58048505D01*
X139384035Y-58099555D01*
X139384031Y-58099557D01*
X139359549Y-58117884D01*
X139293028Y-58142693D01*
X139223655Y-58127600D01*
X139194948Y-58106109D01*
X138966405Y-57877566D01*
X138932379Y-57815254D01*
X138929500Y-57788471D01*
X138929500Y-57354140D01*
X138929499Y-57354128D01*
X138928566Y-57345447D01*
X138923360Y-57297027D01*
X138875175Y-57167837D01*
X138875173Y-57167835D01*
X138875173Y-57167833D01*
X138875172Y-57167832D01*
X138818056Y-57091536D01*
X138792544Y-57057456D01*
X138720539Y-57003553D01*
X138682167Y-56974827D01*
X138682166Y-56974826D01*
X138650929Y-56963175D01*
X138552973Y-56926640D01*
X138545834Y-56925872D01*
X138495871Y-56920500D01*
X138495864Y-56920500D01*
X137904136Y-56920500D01*
X137904128Y-56920500D01*
X137847027Y-56926640D01*
X137717833Y-56974826D01*
X137717832Y-56974827D01*
X137607458Y-57057454D01*
X137607457Y-57057455D01*
X137607456Y-57057456D01*
X137584966Y-57087499D01*
X137524824Y-57167838D01*
X137523225Y-57172124D01*
X137521767Y-57176033D01*
X137479222Y-57232868D01*
X137412702Y-57257679D01*
X137403713Y-57258000D01*
X132226165Y-57258000D01*
X132158044Y-57237998D01*
X132111551Y-57184342D01*
X132100645Y-57121018D01*
X132103361Y-57089974D01*
X132109483Y-57020000D01*
X132089589Y-56792611D01*
X132083698Y-56770627D01*
X132060300Y-56683301D01*
X132030512Y-56572130D01*
X131934046Y-56365259D01*
X131803122Y-56178281D01*
X131803121Y-56178280D01*
X131803118Y-56178276D01*
X131641727Y-56016885D01*
X131641722Y-56016881D01*
X131641722Y-56016880D01*
X131641719Y-56016878D01*
X131454742Y-55885954D01*
X131454740Y-55885953D01*
X131454737Y-55885951D01*
X131408080Y-55864195D01*
X131354794Y-55817278D01*
X131335333Y-55749001D01*
X131355874Y-55681041D01*
X131408080Y-55635805D01*
X131422718Y-55628978D01*
X131454742Y-55614046D01*
X131641719Y-55483122D01*
X131803122Y-55321719D01*
X131934046Y-55134742D01*
X132030512Y-54927870D01*
X132050305Y-54854000D01*
X135767000Y-54854000D01*
X135767000Y-54898852D01*
X135777255Y-54999229D01*
X135777257Y-54999241D01*
X135831152Y-55161884D01*
X135921109Y-55307728D01*
X135921114Y-55307734D01*
X136042265Y-55428885D01*
X136042271Y-55428890D01*
X136188115Y-55518847D01*
X136350758Y-55572742D01*
X136350770Y-55572744D01*
X136451147Y-55582999D01*
X136451147Y-55583000D01*
X136471000Y-55583000D01*
X136471000Y-54854000D01*
X135767000Y-54854000D01*
X132050305Y-54854000D01*
X132089589Y-54707389D01*
X132109483Y-54480000D01*
X132089589Y-54252611D01*
X132085572Y-54237621D01*
X132051065Y-54108835D01*
X132030512Y-54032130D01*
X131978338Y-53920244D01*
X131967678Y-53850053D01*
X131996658Y-53785241D01*
X132003439Y-53777899D01*
X132143054Y-53638285D01*
X132302434Y-53478904D01*
X132364747Y-53444879D01*
X132391530Y-53442000D01*
X136132631Y-53442000D01*
X136200752Y-53462002D01*
G37*
G04 #@! TD.AperFunction*
G04 #@! TA.AperFunction,Conductor*
G36*
X165191409Y-49339502D02*
G01*
X165224354Y-49370256D01*
X165247461Y-49401294D01*
X165305506Y-49450000D01*
X165382571Y-49514666D01*
X165382573Y-49514667D01*
X165540189Y-49593824D01*
X165711812Y-49634500D01*
X165757000Y-49634500D01*
X165825121Y-49654502D01*
X165871614Y-49708158D01*
X165883000Y-49760500D01*
X165883000Y-56639500D01*
X165862998Y-56707621D01*
X165809342Y-56754114D01*
X165759691Y-56764914D01*
X165759713Y-56765287D01*
X165757345Y-56765424D01*
X165757000Y-56765500D01*
X165756056Y-56765500D01*
X165624816Y-56780839D01*
X165624814Y-56780840D01*
X165459080Y-56841162D01*
X165459073Y-56841165D01*
X165311714Y-56938085D01*
X165190679Y-57066375D01*
X165190678Y-57066376D01*
X165185090Y-57076054D01*
X165178482Y-57087500D01*
X165127102Y-57136493D01*
X165069364Y-57150500D01*
X163403072Y-57150500D01*
X163334951Y-57130498D01*
X163296385Y-57091536D01*
X163258294Y-57030914D01*
X163134085Y-56906705D01*
X162985354Y-56813252D01*
X162985352Y-56813251D01*
X162819549Y-56755233D01*
X162818141Y-56755075D01*
X162817293Y-56754718D01*
X162812647Y-56753658D01*
X162812832Y-56752844D01*
X162752690Y-56727567D01*
X162712501Y-56669040D01*
X162710334Y-56598077D01*
X162746876Y-56537207D01*
X162777584Y-56516348D01*
X162877781Y-56468096D01*
X162977775Y-56375316D01*
X163045978Y-56257184D01*
X163076331Y-56124197D01*
X163066138Y-55988172D01*
X163016303Y-55861195D01*
X162960457Y-55791166D01*
X162931256Y-55754548D01*
X162926052Y-55751000D01*
X162818550Y-55677707D01*
X162818548Y-55677706D01*
X162818546Y-55677705D01*
X162720849Y-55647570D01*
X162688203Y-55637500D01*
X162586090Y-55637500D01*
X162545196Y-55643663D01*
X162519277Y-55647570D01*
X162448936Y-55637943D01*
X162394966Y-55591816D01*
X162374502Y-55523832D01*
X162374499Y-55522977D01*
X162374499Y-55274936D01*
X162374498Y-55274927D01*
X162364484Y-55224580D01*
X162364484Y-55175421D01*
X162374500Y-55125067D01*
X162374499Y-54774934D01*
X162374498Y-54774931D01*
X162374498Y-54774926D01*
X162364484Y-54724580D01*
X162364484Y-54675421D01*
X162374500Y-54625067D01*
X162374499Y-54274934D01*
X162374498Y-54274931D01*
X162374498Y-54274926D01*
X162364484Y-54224580D01*
X162364484Y-54175421D01*
X162374500Y-54125067D01*
X162374499Y-53982281D01*
X162394501Y-53914162D01*
X162448156Y-53867669D01*
X162480787Y-53857833D01*
X162596555Y-53839498D01*
X162710723Y-53781326D01*
X162801326Y-53690723D01*
X162859498Y-53576555D01*
X162859991Y-53573445D01*
X162879542Y-53450000D01*
X162876051Y-53427957D01*
X162874500Y-53408248D01*
X162874500Y-52491751D01*
X162876051Y-52472041D01*
X162879542Y-52450000D01*
X162859498Y-52323445D01*
X162826310Y-52258311D01*
X162801326Y-52209276D01*
X162710723Y-52118673D01*
X162596553Y-52060501D01*
X162527538Y-52049571D01*
X162516236Y-52047781D01*
X162480788Y-52042166D01*
X162416636Y-52011755D01*
X162379109Y-51951487D01*
X162374499Y-51917721D01*
X162374499Y-51774934D01*
X162374498Y-51774931D01*
X162374498Y-51774926D01*
X162364484Y-51724580D01*
X162364484Y-51675421D01*
X162374500Y-51625067D01*
X162374499Y-51274934D01*
X162374498Y-51274931D01*
X162374498Y-51274926D01*
X162364484Y-51224580D01*
X162364484Y-51175421D01*
X162374500Y-51125067D01*
X162374499Y-50878532D01*
X162394501Y-50810414D01*
X162448156Y-50763921D01*
X162518430Y-50753816D01*
X162537626Y-50758129D01*
X162551797Y-50762500D01*
X162551800Y-50762500D01*
X162653906Y-50762500D01*
X162653910Y-50762500D01*
X162754883Y-50747281D01*
X162877781Y-50688096D01*
X162977775Y-50595316D01*
X163045978Y-50477184D01*
X163076331Y-50344197D01*
X163066138Y-50208172D01*
X163016303Y-50081195D01*
X162931255Y-49974547D01*
X162818550Y-49897707D01*
X162818547Y-49897706D01*
X162818544Y-49897704D01*
X162795244Y-49890517D01*
X162736047Y-49851324D01*
X162707436Y-49786347D01*
X162718496Y-49716217D01*
X162765715Y-49663200D01*
X162812758Y-49646831D01*
X162812647Y-49646342D01*
X162817067Y-49645332D01*
X162818290Y-49644907D01*
X162819553Y-49644765D01*
X162985352Y-49586749D01*
X163134085Y-49493294D01*
X163258294Y-49369085D01*
X163258296Y-49369080D01*
X163260003Y-49366942D01*
X163261462Y-49365917D01*
X163263298Y-49364082D01*
X163263619Y-49364403D01*
X163318113Y-49326153D01*
X163358515Y-49319500D01*
X165123288Y-49319500D01*
X165191409Y-49339502D01*
G37*
G04 #@! TD.AperFunction*
G04 #@! TA.AperFunction,Conductor*
G36*
X167601386Y-49288816D02*
G01*
X167642569Y-49346647D01*
X167649500Y-49387860D01*
X167649500Y-57017347D01*
X167629498Y-57085468D01*
X167575842Y-57131961D01*
X167505568Y-57142065D01*
X167440988Y-57112571D01*
X167422433Y-57092589D01*
X167352539Y-56998706D01*
X167217428Y-56885333D01*
X167059811Y-56806176D01*
X166888188Y-56765500D01*
X166888186Y-56765500D01*
X166818000Y-56765500D01*
X166749879Y-56745498D01*
X166703386Y-56691842D01*
X166692000Y-56639500D01*
X166692000Y-49760500D01*
X166712002Y-49692379D01*
X166765658Y-49645886D01*
X166818000Y-49634500D01*
X166843944Y-49634500D01*
X166942373Y-49622995D01*
X166975184Y-49619160D01*
X167140924Y-49558836D01*
X167288285Y-49461915D01*
X167409322Y-49333623D01*
X167414380Y-49324861D01*
X167465761Y-49275868D01*
X167535475Y-49262430D01*
X167601386Y-49288816D01*
G37*
G04 #@! TD.AperFunction*
G04 #@! TA.AperFunction,Conductor*
G36*
X144733595Y-54684985D02*
G01*
X144767620Y-54747297D01*
X144770500Y-54774081D01*
X144770500Y-55742997D01*
X144750498Y-55811118D01*
X144696842Y-55857611D01*
X144644500Y-55868997D01*
X143806531Y-55868997D01*
X143738410Y-55848995D01*
X143691917Y-55795339D01*
X143681813Y-55725065D01*
X143711307Y-55660485D01*
X143717421Y-55653916D01*
X144035435Y-55335902D01*
X144055608Y-55319521D01*
X144063416Y-55314421D01*
X144083842Y-55288176D01*
X144089001Y-55282337D01*
X144091442Y-55279897D01*
X144103526Y-55262970D01*
X144105028Y-55260955D01*
X144136085Y-55221056D01*
X144136087Y-55221048D01*
X144139624Y-55214513D01*
X144142880Y-55207852D01*
X144142884Y-55207848D01*
X144150628Y-55181835D01*
X144189233Y-55122254D01*
X144246808Y-55094207D01*
X144269301Y-55089734D01*
X144353484Y-55033484D01*
X144409734Y-54949301D01*
X144424500Y-54875067D01*
X144424499Y-54857126D01*
X144444498Y-54789009D01*
X144474991Y-54756256D01*
X144532902Y-54712905D01*
X144532902Y-54712904D01*
X144543632Y-54698572D01*
X144600467Y-54656026D01*
X144671283Y-54650960D01*
X144733595Y-54684985D01*
G37*
G04 #@! TD.AperFunction*
G04 #@! TA.AperFunction,Conductor*
G36*
X157385552Y-52374502D02*
G01*
X157402314Y-52387383D01*
X157531538Y-52505186D01*
X157592405Y-52542873D01*
X157705566Y-52612940D01*
X157705568Y-52612940D01*
X157705573Y-52612944D01*
X157896444Y-52686888D01*
X158097653Y-52724500D01*
X158097655Y-52724500D01*
X158302345Y-52724500D01*
X158302347Y-52724500D01*
X158503556Y-52686888D01*
X158564868Y-52663134D01*
X158635613Y-52657177D01*
X158698349Y-52690414D01*
X158699480Y-52691530D01*
X158974640Y-52966689D01*
X159234174Y-53226223D01*
X159324777Y-53316826D01*
X159344660Y-53326957D01*
X159361514Y-53337285D01*
X159379571Y-53350405D01*
X159400793Y-53357299D01*
X159419060Y-53364865D01*
X159438945Y-53374998D01*
X159460988Y-53378489D01*
X159480204Y-53383102D01*
X159501434Y-53390000D01*
X159533666Y-53390000D01*
X160019500Y-53390000D01*
X160087621Y-53410002D01*
X160134114Y-53463658D01*
X160145500Y-53516000D01*
X160145500Y-53886452D01*
X160152395Y-53907674D01*
X160157009Y-53926892D01*
X160160501Y-53948936D01*
X160160501Y-53948938D01*
X160170630Y-53968816D01*
X160178194Y-53987076D01*
X160180231Y-53993344D01*
X160182262Y-54064311D01*
X160145603Y-54125111D01*
X160115741Y-54145483D01*
X160091160Y-54157500D01*
X160085108Y-54161820D01*
X160079248Y-54166382D01*
X160045031Y-54203553D01*
X160043227Y-54205432D01*
X159548661Y-54700000D01*
X159311250Y-54937411D01*
X159248937Y-54971436D01*
X159178122Y-54966372D01*
X159121286Y-54923825D01*
X159096475Y-54857305D01*
X159111566Y-54787931D01*
X159121605Y-54772383D01*
X159143088Y-54743935D01*
X159234328Y-54560701D01*
X159290345Y-54363821D01*
X159298529Y-54275498D01*
X159309232Y-54160004D01*
X159309232Y-54159995D01*
X159290345Y-53956180D01*
X159288285Y-53948939D01*
X159234328Y-53759299D01*
X159143088Y-53576065D01*
X159079605Y-53492000D01*
X159019733Y-53412715D01*
X158868463Y-53274814D01*
X158694433Y-53167059D01*
X158694428Y-53167057D01*
X158694427Y-53167056D01*
X158660726Y-53154000D01*
X158503559Y-53093113D01*
X158503560Y-53093113D01*
X158503557Y-53093112D01*
X158503556Y-53093112D01*
X158302347Y-53055500D01*
X158097653Y-53055500D01*
X157914515Y-53089734D01*
X157896439Y-53093113D01*
X157705577Y-53167054D01*
X157705566Y-53167059D01*
X157531536Y-53274814D01*
X157380377Y-53412615D01*
X157316560Y-53443726D01*
X157295491Y-53445500D01*
X156688120Y-53445500D01*
X156619999Y-53425498D01*
X156573506Y-53371842D01*
X156563402Y-53301568D01*
X156567123Y-53284347D01*
X156604993Y-53154000D01*
X155309500Y-53154000D01*
X155241379Y-53133998D01*
X155194886Y-53080342D01*
X155183500Y-53028000D01*
X155183500Y-52772000D01*
X155203502Y-52703879D01*
X155257158Y-52657386D01*
X155309500Y-52646000D01*
X156604993Y-52646000D01*
X156604992Y-52645999D01*
X156567123Y-52515653D01*
X156567326Y-52444657D01*
X156605879Y-52385041D01*
X156670544Y-52355732D01*
X156688120Y-52354500D01*
X157317431Y-52354500D01*
X157385552Y-52374502D01*
G37*
G04 #@! TD.AperFunction*
G04 #@! TA.AperFunction,Conductor*
G36*
X135971834Y-48562002D02*
G01*
X136018327Y-48615658D01*
X136021763Y-48623954D01*
X136022129Y-48624934D01*
X136024825Y-48632163D01*
X136070137Y-48692692D01*
X136094948Y-48759212D01*
X136079857Y-48828586D01*
X136047430Y-48867028D01*
X136042274Y-48871105D01*
X135921114Y-48992265D01*
X135921109Y-48992271D01*
X135831152Y-49138115D01*
X135777257Y-49300758D01*
X135777255Y-49300770D01*
X135767000Y-49401147D01*
X135767000Y-49446000D01*
X136853000Y-49446000D01*
X136921121Y-49466002D01*
X136967614Y-49519658D01*
X136979000Y-49572000D01*
X136979000Y-50683000D01*
X136998853Y-50683000D01*
X136998852Y-50682999D01*
X137099229Y-50672744D01*
X137099241Y-50672742D01*
X137261884Y-50618847D01*
X137407728Y-50528890D01*
X137407734Y-50528885D01*
X137528885Y-50407734D01*
X137528892Y-50407725D01*
X137561521Y-50354826D01*
X137614306Y-50307347D01*
X137684381Y-50295944D01*
X137744270Y-50320103D01*
X137755117Y-50328223D01*
X137817835Y-50375174D01*
X137817836Y-50375174D01*
X137817837Y-50375175D01*
X137947027Y-50423360D01*
X138004136Y-50429500D01*
X138004141Y-50429500D01*
X138545859Y-50429500D01*
X138545864Y-50429500D01*
X138602973Y-50423360D01*
X138602974Y-50423359D01*
X138610809Y-50422517D01*
X138611121Y-50425426D01*
X138668233Y-50428475D01*
X138715437Y-50458212D01*
X139552313Y-51295088D01*
X139569213Y-51316058D01*
X139571785Y-51320060D01*
X139606999Y-51350573D01*
X139611283Y-51354285D01*
X139614563Y-51357338D01*
X139625760Y-51368535D01*
X139638431Y-51378020D01*
X139641907Y-51380821D01*
X139681423Y-51415062D01*
X139685742Y-51417034D01*
X139708906Y-51430777D01*
X139712714Y-51433628D01*
X139737877Y-51443013D01*
X139761684Y-51451893D01*
X139765841Y-51453615D01*
X139798817Y-51468674D01*
X139813385Y-51475327D01*
X139818082Y-51476002D01*
X139844190Y-51482665D01*
X139848639Y-51484325D01*
X139900796Y-51488055D01*
X139905219Y-51488530D01*
X139920898Y-51490785D01*
X139936713Y-51490785D01*
X139941209Y-51490946D01*
X139959909Y-51492282D01*
X139993341Y-51494674D01*
X139997984Y-51493663D01*
X140024765Y-51490785D01*
X140430213Y-51490785D01*
X140478430Y-51500375D01*
X140541531Y-51526513D01*
X140686285Y-51545570D01*
X140831039Y-51526513D01*
X140965928Y-51470640D01*
X141081759Y-51381759D01*
X141170640Y-51265928D01*
X141226513Y-51131039D01*
X141245570Y-50986285D01*
X141226513Y-50841531D01*
X141200494Y-50778718D01*
X141192906Y-50708130D01*
X141224685Y-50644643D01*
X141285743Y-50608415D01*
X141316904Y-50604501D01*
X145119500Y-50604501D01*
X145187621Y-50624503D01*
X145234114Y-50678159D01*
X145245500Y-50730501D01*
X145245500Y-51800969D01*
X145225498Y-51869090D01*
X145208595Y-51890064D01*
X144909569Y-52189090D01*
X144889397Y-52205473D01*
X144881586Y-52210576D01*
X144881585Y-52210577D01*
X144861172Y-52236803D01*
X144856006Y-52242653D01*
X144853558Y-52245101D01*
X144841494Y-52261997D01*
X144839941Y-52264080D01*
X144808912Y-52303947D01*
X144805378Y-52310476D01*
X144802115Y-52317152D01*
X144787700Y-52365569D01*
X144786907Y-52368046D01*
X144770499Y-52415845D01*
X144769277Y-52423170D01*
X144768357Y-52430545D01*
X144770446Y-52481014D01*
X144770500Y-52483618D01*
X144770500Y-52625917D01*
X144750498Y-52694038D01*
X144696842Y-52740531D01*
X144626568Y-52750635D01*
X144561988Y-52721141D01*
X144543633Y-52701427D01*
X144532904Y-52687096D01*
X144474989Y-52643740D01*
X144432443Y-52586904D01*
X144424499Y-52542873D01*
X144424499Y-52524936D01*
X144424498Y-52524927D01*
X144409734Y-52450699D01*
X144391339Y-52423170D01*
X144353484Y-52366516D01*
X144352067Y-52365569D01*
X144269302Y-52310266D01*
X144195069Y-52295500D01*
X143707126Y-52295500D01*
X143639005Y-52275498D01*
X143606258Y-52245010D01*
X143562902Y-52187094D01*
X143445965Y-52099555D01*
X143309093Y-52048505D01*
X143248597Y-52042000D01*
X142154000Y-52042000D01*
X142154000Y-53446000D01*
X143670000Y-53446000D01*
X143670000Y-53230499D01*
X143690002Y-53162378D01*
X143743658Y-53115885D01*
X143795997Y-53104499D01*
X143844001Y-53104499D01*
X143912121Y-53124501D01*
X143958614Y-53178157D01*
X143970000Y-53230499D01*
X143970000Y-54169500D01*
X143949998Y-54237621D01*
X143896342Y-54284114D01*
X143844000Y-54295500D01*
X143796000Y-54295500D01*
X143727879Y-54275498D01*
X143681386Y-54221842D01*
X143670000Y-54169500D01*
X143670000Y-53954000D01*
X141772000Y-53954000D01*
X141703879Y-53933998D01*
X141657386Y-53880342D01*
X141646000Y-53828000D01*
X141646000Y-52042000D01*
X140551399Y-52042000D01*
X140483070Y-52049347D01*
X140482901Y-52047781D01*
X140447098Y-52047779D01*
X140446930Y-52049347D01*
X140378600Y-52042000D01*
X140130000Y-52042000D01*
X140130000Y-52669500D01*
X140109998Y-52737621D01*
X140056342Y-52784114D01*
X140004000Y-52795500D01*
X139956000Y-52795500D01*
X139887879Y-52775498D01*
X139841386Y-52721842D01*
X139830000Y-52669500D01*
X139830000Y-52042000D01*
X139581402Y-52042000D01*
X139520904Y-52048505D01*
X139390242Y-52097238D01*
X139319426Y-52102302D01*
X139257116Y-52068277D01*
X138966405Y-51777566D01*
X138932379Y-51715254D01*
X138929500Y-51688471D01*
X138929500Y-51254140D01*
X138929499Y-51254128D01*
X138928652Y-51246247D01*
X138923360Y-51197027D01*
X138875175Y-51067837D01*
X138875173Y-51067835D01*
X138875173Y-51067833D01*
X138875172Y-51067832D01*
X138814125Y-50986285D01*
X138792544Y-50957456D01*
X138725666Y-50907391D01*
X138682167Y-50874827D01*
X138682166Y-50874826D01*
X138603949Y-50845653D01*
X138552973Y-50826640D01*
X138545834Y-50825872D01*
X138495871Y-50820500D01*
X138495864Y-50820500D01*
X137904136Y-50820500D01*
X137904128Y-50820500D01*
X137847027Y-50826640D01*
X137717833Y-50874826D01*
X137717832Y-50874827D01*
X137607458Y-50957454D01*
X137607457Y-50957455D01*
X137607456Y-50957456D01*
X137585875Y-50986285D01*
X137524824Y-51067838D01*
X137523225Y-51072124D01*
X137521767Y-51076033D01*
X137479222Y-51132868D01*
X137412702Y-51157679D01*
X137403713Y-51158000D01*
X131910529Y-51158000D01*
X131842408Y-51137998D01*
X131807314Y-51104268D01*
X131803121Y-51098279D01*
X131641727Y-50936885D01*
X131641722Y-50936881D01*
X131641722Y-50936880D01*
X131641719Y-50936878D01*
X131454742Y-50805954D01*
X131454740Y-50805953D01*
X131454737Y-50805951D01*
X131408080Y-50784195D01*
X131354794Y-50737278D01*
X131335333Y-50669001D01*
X131355874Y-50601041D01*
X131408080Y-50555805D01*
X131428924Y-50546085D01*
X131454742Y-50534046D01*
X131641719Y-50403122D01*
X131803122Y-50241719D01*
X131934046Y-50054742D01*
X131981023Y-49954000D01*
X135767000Y-49954000D01*
X135767000Y-49998852D01*
X135777255Y-50099229D01*
X135777257Y-50099241D01*
X135831152Y-50261884D01*
X135921109Y-50407728D01*
X135921114Y-50407734D01*
X136042265Y-50528885D01*
X136042271Y-50528890D01*
X136188115Y-50618847D01*
X136350758Y-50672742D01*
X136350770Y-50672744D01*
X136451147Y-50682999D01*
X136451147Y-50683000D01*
X136471000Y-50683000D01*
X136471000Y-49954000D01*
X135767000Y-49954000D01*
X131981023Y-49954000D01*
X132030512Y-49847870D01*
X132089589Y-49627389D01*
X132109483Y-49400000D01*
X132089589Y-49172611D01*
X132083530Y-49150000D01*
X132056736Y-49050000D01*
X132030512Y-48952130D01*
X131978338Y-48840244D01*
X131967678Y-48770053D01*
X131996658Y-48705241D01*
X132003439Y-48697899D01*
X132051339Y-48650000D01*
X132122434Y-48578904D01*
X132184747Y-48544879D01*
X132211530Y-48542000D01*
X135903713Y-48542000D01*
X135971834Y-48562002D01*
G37*
G04 #@! TD.AperFunction*
G04 #@! TA.AperFunction,Conductor*
G36*
X163672614Y-31370502D02*
G01*
X163719107Y-31424158D01*
X163729211Y-31494432D01*
X163699717Y-31559012D01*
X163639991Y-31597396D01*
X163611087Y-31602327D01*
X163532817Y-31606428D01*
X163169646Y-31663948D01*
X162814489Y-31759112D01*
X162814476Y-31759116D01*
X162471219Y-31890880D01*
X162471211Y-31890884D01*
X162143602Y-32057809D01*
X162143596Y-32057812D01*
X161835227Y-32258068D01*
X161835222Y-32258072D01*
X161604287Y-32445078D01*
X163033538Y-33874329D01*
X162975523Y-33912232D01*
X162792632Y-34080596D01*
X162673914Y-34233123D01*
X161245078Y-32804287D01*
X161058072Y-33035222D01*
X161058068Y-33035227D01*
X160857812Y-33343596D01*
X160857809Y-33343602D01*
X160690884Y-33671211D01*
X160690880Y-33671219D01*
X160559116Y-34014476D01*
X160559112Y-34014489D01*
X160463948Y-34369646D01*
X160406428Y-34732817D01*
X160387186Y-35099992D01*
X160387186Y-35100007D01*
X160406428Y-35467182D01*
X160463948Y-35830353D01*
X160559112Y-36185510D01*
X160559116Y-36185523D01*
X160690880Y-36528780D01*
X160690884Y-36528788D01*
X160857809Y-36856397D01*
X160857812Y-36856403D01*
X161058077Y-37164784D01*
X161058081Y-37164789D01*
X161245077Y-37395710D01*
X161245078Y-37395711D01*
X162673913Y-35966875D01*
X162792632Y-36119404D01*
X162975523Y-36287768D01*
X163033537Y-36325670D01*
X161604287Y-37754920D01*
X161604288Y-37754921D01*
X161835210Y-37941918D01*
X161835215Y-37941922D01*
X162143596Y-38142187D01*
X162143602Y-38142190D01*
X162471211Y-38309115D01*
X162471219Y-38309119D01*
X162814476Y-38440883D01*
X162814489Y-38440887D01*
X163169646Y-38536051D01*
X163532817Y-38593571D01*
X163899993Y-38612814D01*
X163900007Y-38612814D01*
X164267182Y-38593571D01*
X164630353Y-38536051D01*
X164985510Y-38440887D01*
X164985523Y-38440883D01*
X165328780Y-38309119D01*
X165328788Y-38309115D01*
X165656397Y-38142190D01*
X165656403Y-38142187D01*
X165964782Y-37941924D01*
X166195711Y-37754920D01*
X164766461Y-36325670D01*
X164824477Y-36287768D01*
X165007368Y-36119404D01*
X165126085Y-35966876D01*
X166554920Y-37395711D01*
X166741924Y-37164782D01*
X166942187Y-36856403D01*
X166942190Y-36856397D01*
X167109115Y-36528788D01*
X167109119Y-36528780D01*
X167240883Y-36185523D01*
X167240887Y-36185510D01*
X167336051Y-35830353D01*
X167393571Y-35467182D01*
X167397673Y-35388912D01*
X167421212Y-35321931D01*
X167477228Y-35278310D01*
X167547934Y-35271898D01*
X167610883Y-35304730D01*
X167646088Y-35366384D01*
X167649500Y-35395506D01*
X167649500Y-48377347D01*
X167629498Y-48445468D01*
X167575842Y-48491961D01*
X167505568Y-48502065D01*
X167440988Y-48472571D01*
X167422433Y-48452589D01*
X167352539Y-48358706D01*
X167217428Y-48245333D01*
X167059811Y-48166176D01*
X167059810Y-48166176D01*
X166888188Y-48125500D01*
X165756059Y-48125500D01*
X165756056Y-48125500D01*
X165624816Y-48140839D01*
X165624814Y-48140840D01*
X165459080Y-48201162D01*
X165459073Y-48201165D01*
X165311714Y-48298085D01*
X165190679Y-48426375D01*
X165190678Y-48426376D01*
X165189196Y-48428944D01*
X165178482Y-48447500D01*
X165127102Y-48496493D01*
X165069364Y-48510500D01*
X163403072Y-48510500D01*
X163334951Y-48490498D01*
X163296385Y-48451536D01*
X163258294Y-48390914D01*
X163134085Y-48266705D01*
X162985354Y-48173252D01*
X162985352Y-48173251D01*
X162819551Y-48115234D01*
X162688776Y-48100500D01*
X162688774Y-48100500D01*
X161551226Y-48100500D01*
X161551224Y-48100500D01*
X161420448Y-48115234D01*
X161254647Y-48173251D01*
X161254645Y-48173252D01*
X161105914Y-48266705D01*
X160981705Y-48390914D01*
X160888252Y-48539645D01*
X160888251Y-48539647D01*
X160830234Y-48705448D01*
X160810568Y-48880000D01*
X160830234Y-49054551D01*
X160837557Y-49075478D01*
X160841176Y-49146382D01*
X160805887Y-49207987D01*
X160762661Y-49235148D01*
X160724038Y-49249553D01*
X160724034Y-49249555D01*
X160607095Y-49337095D01*
X160519555Y-49454034D01*
X160519555Y-49454035D01*
X160468505Y-49590906D01*
X160463872Y-49633998D01*
X160436702Y-49699590D01*
X160378383Y-49740081D01*
X160307432Y-49742614D01*
X160249499Y-49709624D01*
X159789428Y-49249553D01*
X159311067Y-48771192D01*
X159294172Y-48750228D01*
X159291600Y-48746225D01*
X159291598Y-48746223D01*
X159268081Y-48725845D01*
X159238457Y-48683750D01*
X159236924Y-48684514D01*
X159234329Y-48679302D01*
X159234328Y-48679299D01*
X159143088Y-48496065D01*
X159090462Y-48426377D01*
X159019733Y-48332715D01*
X158868463Y-48194814D01*
X158694433Y-48087059D01*
X158694428Y-48087057D01*
X158694427Y-48087056D01*
X158660868Y-48074055D01*
X158503559Y-48013113D01*
X158503560Y-48013113D01*
X158503557Y-48013112D01*
X158503556Y-48013112D01*
X158302347Y-47975500D01*
X158097653Y-47975500D01*
X157896444Y-48013112D01*
X157896439Y-48013113D01*
X157705577Y-48087054D01*
X157705569Y-48087058D01*
X157546830Y-48185345D01*
X157478383Y-48204199D01*
X157410608Y-48183055D01*
X157365023Y-48128626D01*
X157354500Y-48078217D01*
X157354500Y-47824028D01*
X157374502Y-47755907D01*
X157391401Y-47734937D01*
X158309934Y-46816403D01*
X158372246Y-46782378D01*
X158399029Y-46779499D01*
X158829739Y-46779499D01*
X158829748Y-46779499D01*
X158860451Y-46776621D01*
X158989773Y-46731369D01*
X159100010Y-46650010D01*
X159181369Y-46539773D01*
X159226033Y-46412131D01*
X159226620Y-46410454D01*
X159226620Y-46410453D01*
X159226621Y-46410451D01*
X159229500Y-46379749D01*
X159229499Y-45870252D01*
X159226621Y-45839549D01*
X159186872Y-45725953D01*
X159181371Y-45710232D01*
X159181368Y-45710225D01*
X159100011Y-45599991D01*
X159099348Y-45599502D01*
X159028889Y-45547500D01*
X158985958Y-45490956D01*
X158980412Y-45420176D01*
X159014013Y-45357634D01*
X159060990Y-45329018D01*
X159060755Y-45328495D01*
X159064947Y-45326608D01*
X159066233Y-45325825D01*
X159067706Y-45325365D01*
X159214840Y-45236421D01*
X159214850Y-45236413D01*
X159336413Y-45114850D01*
X159336421Y-45114840D01*
X159425366Y-44967706D01*
X159476518Y-44803553D01*
X159476518Y-44803552D01*
X159483000Y-44732222D01*
X159483000Y-44729000D01*
X157517001Y-44729000D01*
X157517001Y-44732221D01*
X157523481Y-44803553D01*
X157574633Y-44967706D01*
X157663578Y-45114840D01*
X157663586Y-45114850D01*
X157785149Y-45236413D01*
X157785159Y-45236421D01*
X157932295Y-45325367D01*
X157932297Y-45325368D01*
X157933770Y-45325827D01*
X157934713Y-45326455D01*
X157939245Y-45328495D01*
X157938905Y-45329248D01*
X157992857Y-45365188D01*
X158021283Y-45430245D01*
X158010024Y-45500344D01*
X157971109Y-45547501D01*
X157899988Y-45599991D01*
X157818631Y-45710225D01*
X157818628Y-45710232D01*
X157773379Y-45839545D01*
X157770500Y-45870248D01*
X157770500Y-46300969D01*
X157750498Y-46369090D01*
X157733595Y-46390064D01*
X156784569Y-47339090D01*
X156764397Y-47355473D01*
X156756586Y-47360576D01*
X156756585Y-47360577D01*
X156736172Y-47386803D01*
X156731006Y-47392653D01*
X156728558Y-47395101D01*
X156716494Y-47411997D01*
X156714941Y-47414080D01*
X156683912Y-47453947D01*
X156680378Y-47460476D01*
X156677115Y-47467152D01*
X156662700Y-47515569D01*
X156661907Y-47518046D01*
X156645499Y-47565845D01*
X156644277Y-47573170D01*
X156643357Y-47580545D01*
X156645446Y-47631014D01*
X156645500Y-47633618D01*
X156645500Y-49456511D01*
X156642818Y-49482368D01*
X156640904Y-49491492D01*
X156642526Y-49504500D01*
X156645016Y-49524481D01*
X156645500Y-49532268D01*
X156645500Y-49535730D01*
X156648914Y-49556193D01*
X156649289Y-49558766D01*
X156655538Y-49608894D01*
X156657658Y-49616016D01*
X156660071Y-49623045D01*
X156684117Y-49667477D01*
X156685308Y-49669791D01*
X156707501Y-49715186D01*
X156711811Y-49721224D01*
X156716383Y-49727097D01*
X156753566Y-49761327D01*
X156755421Y-49763106D01*
X157102086Y-50109771D01*
X157437743Y-50445428D01*
X157454130Y-50465606D01*
X157459232Y-50473416D01*
X157464079Y-50477188D01*
X157485467Y-50493835D01*
X157491311Y-50498996D01*
X157493757Y-50501442D01*
X157499085Y-50505246D01*
X157510641Y-50513498D01*
X157512728Y-50515054D01*
X157535605Y-50532859D01*
X157577077Y-50590484D01*
X157580812Y-50661382D01*
X157545623Y-50723044D01*
X157534150Y-50732840D01*
X157531544Y-50734808D01*
X157380266Y-50872715D01*
X157256913Y-51036063D01*
X157165671Y-51219301D01*
X157109654Y-51416180D01*
X157109654Y-51416182D01*
X157108269Y-51431129D01*
X157082066Y-51497113D01*
X157024348Y-51538455D01*
X156982807Y-51545500D01*
X156319739Y-51545500D01*
X156251618Y-51525498D01*
X156230648Y-51508599D01*
X156190723Y-51468674D01*
X156190722Y-51468673D01*
X156076553Y-51410501D01*
X156011836Y-51400251D01*
X155981834Y-51395500D01*
X154893166Y-51395500D01*
X154872827Y-51398721D01*
X154798444Y-51410501D01*
X154724105Y-51448379D01*
X154654328Y-51461483D01*
X154588544Y-51434782D01*
X154547638Y-51376754D01*
X154546141Y-51372063D01*
X154541987Y-51358111D01*
X154539400Y-51350576D01*
X154539400Y-51350573D01*
X154538023Y-51348029D01*
X154513614Y-51302923D01*
X154512422Y-51300608D01*
X154488626Y-51251932D01*
X154488624Y-51251930D01*
X154488624Y-51251929D01*
X154484021Y-51245482D01*
X154479121Y-51239186D01*
X154439256Y-51202487D01*
X154437393Y-51200699D01*
X153505419Y-50268725D01*
X153489029Y-50248542D01*
X153483068Y-50239418D01*
X153483067Y-50239417D01*
X153454770Y-50217393D01*
X153448923Y-50212229D01*
X153446113Y-50209419D01*
X153446112Y-50209418D01*
X153446111Y-50209417D01*
X153446106Y-50209413D01*
X153427974Y-50196467D01*
X153425889Y-50194912D01*
X153383120Y-50161625D01*
X153376140Y-50157848D01*
X153368977Y-50154346D01*
X153317063Y-50138890D01*
X153314584Y-50138096D01*
X153263326Y-50120499D01*
X153255504Y-50119194D01*
X153247589Y-50118207D01*
X153203056Y-50120049D01*
X153193475Y-50120446D01*
X153190881Y-50120500D01*
X153029245Y-50120500D01*
X152961124Y-50100498D01*
X152914631Y-50046842D01*
X152904527Y-49976568D01*
X152934021Y-49911988D01*
X152963098Y-49887259D01*
X153057728Y-49828890D01*
X153057734Y-49828885D01*
X153178885Y-49707734D01*
X153178890Y-49707728D01*
X153268847Y-49561884D01*
X153322742Y-49399241D01*
X153322744Y-49399229D01*
X153332999Y-49298852D01*
X153333000Y-49298852D01*
X153333000Y-49254000D01*
X152247000Y-49254000D01*
X152178879Y-49233998D01*
X152132386Y-49180342D01*
X152121000Y-49128000D01*
X152121000Y-47754000D01*
X152629000Y-47754000D01*
X152629000Y-48746000D01*
X153333000Y-48746000D01*
X153333000Y-48701147D01*
X153322744Y-48600770D01*
X153322742Y-48600758D01*
X153268847Y-48438115D01*
X153193616Y-48316147D01*
X153174879Y-48247668D01*
X153193616Y-48183853D01*
X153268847Y-48061884D01*
X153322742Y-47899241D01*
X153322744Y-47899229D01*
X153332999Y-47798852D01*
X153333000Y-47798852D01*
X153333000Y-47754000D01*
X152629000Y-47754000D01*
X152121000Y-47754000D01*
X152121000Y-46517000D01*
X152629000Y-46517000D01*
X152629000Y-47246000D01*
X153333000Y-47246000D01*
X153333000Y-47201147D01*
X153322744Y-47100770D01*
X153322742Y-47100758D01*
X153268847Y-46938115D01*
X153178890Y-46792271D01*
X153178885Y-46792265D01*
X153057734Y-46671114D01*
X153057728Y-46671109D01*
X152911884Y-46581152D01*
X152749241Y-46527257D01*
X152749229Y-46527255D01*
X152648852Y-46517000D01*
X152629000Y-46517000D01*
X152121000Y-46517000D01*
X152097948Y-46517000D01*
X152097948Y-46515922D01*
X152033173Y-46500419D01*
X151984022Y-46449187D01*
X151970806Y-46406692D01*
X151968752Y-46390220D01*
X151968752Y-46390218D01*
X151968750Y-46390214D01*
X151966486Y-46382609D01*
X151963900Y-46375075D01*
X151963900Y-46375073D01*
X151939373Y-46329751D01*
X151938126Y-46327447D01*
X151936934Y-46325132D01*
X151913125Y-46276430D01*
X151908522Y-46269983D01*
X151903621Y-46263686D01*
X151897444Y-46258000D01*
X151863756Y-46226987D01*
X151861901Y-46225207D01*
X150605418Y-44968724D01*
X150589029Y-44948542D01*
X150583068Y-44939418D01*
X150583067Y-44939417D01*
X150554770Y-44917393D01*
X150548923Y-44912229D01*
X150546113Y-44909419D01*
X150546112Y-44909418D01*
X150546111Y-44909417D01*
X150546106Y-44909413D01*
X150527974Y-44896467D01*
X150525889Y-44894912D01*
X150483120Y-44861625D01*
X150476140Y-44857848D01*
X150468977Y-44854346D01*
X150417063Y-44838890D01*
X150414584Y-44838096D01*
X150363326Y-44820499D01*
X150355504Y-44819194D01*
X150347589Y-44818207D01*
X150303056Y-44820049D01*
X150293475Y-44820446D01*
X150290881Y-44820500D01*
X148452427Y-44820500D01*
X148426568Y-44817818D01*
X148415898Y-44815580D01*
X148392593Y-44818486D01*
X148380316Y-44820016D01*
X148372526Y-44820500D01*
X148368553Y-44820500D01*
X148346561Y-44824169D01*
X148343988Y-44824544D01*
X148290218Y-44831247D01*
X148282610Y-44833512D01*
X148275068Y-44836101D01*
X148227424Y-44861884D01*
X148225111Y-44863074D01*
X148176432Y-44886874D01*
X148169978Y-44891481D01*
X148163684Y-44896380D01*
X148126998Y-44936230D01*
X148125196Y-44938108D01*
X148012624Y-45050679D01*
X147950312Y-45084705D01*
X147879497Y-45079640D01*
X147871818Y-45076484D01*
X147867708Y-45074634D01*
X147703552Y-45023481D01*
X147632223Y-45017000D01*
X147629000Y-45017000D01*
X147629000Y-46128000D01*
X147608998Y-46196121D01*
X147555342Y-46242614D01*
X147503000Y-46254000D01*
X147247000Y-46254000D01*
X147178879Y-46233998D01*
X147132386Y-46180342D01*
X147121000Y-46128000D01*
X147121000Y-45017000D01*
X147117766Y-45017001D01*
X147091900Y-45019351D01*
X147022249Y-45005594D01*
X146971092Y-44956365D01*
X146954500Y-44893868D01*
X146954500Y-44221000D01*
X157517000Y-44221000D01*
X158246000Y-44221000D01*
X158246000Y-43567000D01*
X158754000Y-43567000D01*
X158754000Y-44221000D01*
X159482999Y-44221000D01*
X159482999Y-44217778D01*
X159476518Y-44146446D01*
X159425366Y-43982293D01*
X159336421Y-43835159D01*
X159336413Y-43835149D01*
X159214850Y-43713586D01*
X159214840Y-43713578D01*
X159196730Y-43702630D01*
X161295500Y-43702630D01*
X161310525Y-43859969D01*
X161310528Y-43859984D01*
X161369953Y-44062370D01*
X161466607Y-44249851D01*
X161466611Y-44249858D01*
X161596994Y-44415652D01*
X161597006Y-44415665D01*
X161756407Y-44553787D01*
X161756413Y-44553792D01*
X161939087Y-44659259D01*
X162138420Y-44728248D01*
X162138423Y-44728248D01*
X162138425Y-44728249D01*
X162347205Y-44758267D01*
X162347206Y-44758266D01*
X162347207Y-44758267D01*
X162557902Y-44748231D01*
X162762890Y-44698501D01*
X162954762Y-44610876D01*
X163126584Y-44488522D01*
X163272145Y-44335862D01*
X163313366Y-44271720D01*
X163367018Y-44225230D01*
X163437292Y-44215125D01*
X163501873Y-44244618D01*
X163540258Y-44304343D01*
X163544709Y-44327036D01*
X163552605Y-44404318D01*
X163552606Y-44404321D01*
X163608342Y-44572525D01*
X163701365Y-44723339D01*
X163701370Y-44723345D01*
X163826654Y-44848629D01*
X163826660Y-44848634D01*
X163977474Y-44941657D01*
X164145678Y-44997393D01*
X164145681Y-44997394D01*
X164249483Y-45007999D01*
X164249483Y-45008000D01*
X164646000Y-45008000D01*
X164646000Y-43933674D01*
X164757685Y-43984680D01*
X164864237Y-44000000D01*
X164935763Y-44000000D01*
X165042315Y-43984680D01*
X165154000Y-43933674D01*
X165154000Y-45008000D01*
X165550517Y-45008000D01*
X165550516Y-45007999D01*
X165654318Y-44997394D01*
X165654321Y-44997393D01*
X165822525Y-44941657D01*
X165973339Y-44848634D01*
X165973345Y-44848629D01*
X166098629Y-44723345D01*
X166098634Y-44723339D01*
X166191657Y-44572525D01*
X166247393Y-44404321D01*
X166247394Y-44404318D01*
X166257999Y-44300516D01*
X166258000Y-44300516D01*
X166258000Y-43754000D01*
X165331116Y-43754000D01*
X165359493Y-43709844D01*
X165400000Y-43571889D01*
X165400000Y-43428111D01*
X165359493Y-43290156D01*
X165331116Y-43246000D01*
X166258000Y-43246000D01*
X166258000Y-42699483D01*
X166247394Y-42595681D01*
X166247393Y-42595678D01*
X166191657Y-42427474D01*
X166168651Y-42390176D01*
X166149914Y-42321697D01*
X166171173Y-42253958D01*
X166225680Y-42208466D01*
X166296129Y-42199665D01*
X166304929Y-42201421D01*
X166414967Y-42227500D01*
X166414969Y-42227500D01*
X166542379Y-42227500D01*
X166575229Y-42223660D01*
X166668915Y-42212710D01*
X166828724Y-42154544D01*
X166970812Y-42061092D01*
X166973407Y-42058342D01*
X167010767Y-42018742D01*
X167087518Y-41937391D01*
X167172550Y-41790110D01*
X167221325Y-41627189D01*
X167231214Y-41457412D01*
X167201682Y-41289930D01*
X167201680Y-41289925D01*
X167201680Y-41289924D01*
X167134325Y-41133777D01*
X167123657Y-41119447D01*
X167032767Y-40997360D01*
X166902489Y-40888044D01*
X166750514Y-40811719D01*
X166585033Y-40772500D01*
X166457624Y-40772500D01*
X166457621Y-40772500D01*
X166331084Y-40787290D01*
X166171277Y-40845455D01*
X166029183Y-40938911D01*
X165912483Y-41062607D01*
X165912480Y-41062611D01*
X165827452Y-41209884D01*
X165827450Y-41209890D01*
X165778675Y-41372811D01*
X165768786Y-41542588D01*
X165783703Y-41627187D01*
X165798319Y-41710074D01*
X165798319Y-41710075D01*
X165858345Y-41849231D01*
X165866960Y-41919703D01*
X165836107Y-41983646D01*
X165775582Y-42020757D01*
X165704602Y-42019255D01*
X165703017Y-42018742D01*
X165654321Y-42002606D01*
X165654318Y-42002605D01*
X165550516Y-41992000D01*
X165154000Y-41992000D01*
X165154000Y-43066325D01*
X165042315Y-43015320D01*
X164935763Y-43000000D01*
X164864237Y-43000000D01*
X164757685Y-43015320D01*
X164646000Y-43066325D01*
X164646000Y-41992000D01*
X164249483Y-41992000D01*
X164145681Y-42002605D01*
X164145678Y-42002606D01*
X163977474Y-42058342D01*
X163826660Y-42151365D01*
X163826654Y-42151370D01*
X163701370Y-42276654D01*
X163701365Y-42276660D01*
X163608342Y-42427474D01*
X163552606Y-42595678D01*
X163552605Y-42595681D01*
X163545118Y-42668963D01*
X163518296Y-42734698D01*
X163460192Y-42775496D01*
X163389255Y-42778405D01*
X163328007Y-42742500D01*
X163320729Y-42734044D01*
X163203005Y-42584347D01*
X163203003Y-42584344D01*
X163203000Y-42584341D01*
X163202997Y-42584338D01*
X163202993Y-42584334D01*
X163043592Y-42446212D01*
X163043584Y-42446206D01*
X162860916Y-42340743D01*
X162860918Y-42340743D01*
X162860913Y-42340741D01*
X162661580Y-42271752D01*
X162661578Y-42271751D01*
X162661574Y-42271750D01*
X162452794Y-42241732D01*
X162242106Y-42251768D01*
X162242095Y-42251769D01*
X162037113Y-42301498D01*
X162037111Y-42301498D01*
X161845236Y-42389125D01*
X161673416Y-42511478D01*
X161673412Y-42511481D01*
X161527851Y-42664142D01*
X161413816Y-42841586D01*
X161335419Y-43037414D01*
X161295500Y-43244528D01*
X161295500Y-43702630D01*
X159196730Y-43702630D01*
X159067706Y-43624633D01*
X158903552Y-43573481D01*
X158832223Y-43567000D01*
X158754000Y-43567000D01*
X158246000Y-43567000D01*
X158246000Y-43566999D01*
X158167778Y-43567000D01*
X158096446Y-43573481D01*
X157932293Y-43624633D01*
X157785159Y-43713578D01*
X157785149Y-43713586D01*
X157663586Y-43835149D01*
X157663578Y-43835159D01*
X157574633Y-43982293D01*
X157523481Y-44146446D01*
X157523481Y-44146447D01*
X157517000Y-44217777D01*
X157517000Y-44221000D01*
X146954500Y-44221000D01*
X146954500Y-43999029D01*
X146974502Y-43930908D01*
X146991400Y-43909938D01*
X147415433Y-43485904D01*
X147435611Y-43469519D01*
X147443416Y-43464421D01*
X147463842Y-43438176D01*
X147469001Y-43432337D01*
X147471442Y-43429897D01*
X147483526Y-43412970D01*
X147485028Y-43410955D01*
X147516085Y-43371056D01*
X147516087Y-43371048D01*
X147519624Y-43364513D01*
X147522884Y-43357847D01*
X147537312Y-43309381D01*
X147538083Y-43306975D01*
X147554500Y-43259156D01*
X147554500Y-43259149D01*
X147555725Y-43251808D01*
X147556642Y-43244453D01*
X147554554Y-43193984D01*
X147554500Y-43191380D01*
X147554500Y-42721009D01*
X147574502Y-42652888D01*
X147605679Y-42619630D01*
X147700010Y-42550010D01*
X147714332Y-42530605D01*
X147781369Y-42439773D01*
X147796034Y-42397862D01*
X147837411Y-42340172D01*
X147903411Y-42314009D01*
X147959574Y-42325030D01*
X147960595Y-42322296D01*
X148105907Y-42376494D01*
X148166403Y-42382999D01*
X148166416Y-42383000D01*
X148340001Y-42383000D01*
X148340001Y-41875000D01*
X148790001Y-41875000D01*
X148790001Y-42383000D01*
X148963586Y-42383000D01*
X148963598Y-42382999D01*
X149024094Y-42376494D01*
X149160965Y-42325444D01*
X149160966Y-42325444D01*
X149277905Y-42237904D01*
X149365445Y-42120965D01*
X149365445Y-42120964D01*
X149416495Y-41984093D01*
X149423000Y-41923597D01*
X149423001Y-41923585D01*
X149423001Y-41875000D01*
X148790001Y-41875000D01*
X148340001Y-41875000D01*
X148340001Y-41551000D01*
X148360003Y-41482879D01*
X148413659Y-41436386D01*
X148466001Y-41425000D01*
X149423001Y-41425000D01*
X149423001Y-41376416D01*
X149422888Y-41374307D01*
X149423001Y-41373828D01*
X149423001Y-41373035D01*
X149423189Y-41373035D01*
X149439218Y-41305213D01*
X149456002Y-41282233D01*
X149473033Y-41263732D01*
X149474767Y-41261925D01*
X149745408Y-40991284D01*
X149807718Y-40957260D01*
X149878533Y-40962325D01*
X149935369Y-41004872D01*
X149960180Y-41071392D01*
X149960501Y-41080380D01*
X149960501Y-41250063D01*
X149960502Y-41250073D01*
X149975266Y-41324300D01*
X150031517Y-41408484D01*
X150115698Y-41464733D01*
X150115700Y-41464734D01*
X150189934Y-41479500D01*
X150278839Y-41479499D01*
X150346959Y-41499500D01*
X150367934Y-41516404D01*
X150960333Y-42108803D01*
X150977233Y-42129773D01*
X150979805Y-42133775D01*
X150979810Y-42133779D01*
X151019303Y-42168000D01*
X151022583Y-42171053D01*
X151033780Y-42182250D01*
X151046451Y-42191735D01*
X151049927Y-42194536D01*
X151089443Y-42228777D01*
X151093762Y-42230749D01*
X151116926Y-42244492D01*
X151120734Y-42247343D01*
X151132601Y-42251769D01*
X151169704Y-42265608D01*
X151173861Y-42267330D01*
X151194292Y-42276660D01*
X151221405Y-42289042D01*
X151226102Y-42289717D01*
X151252210Y-42296380D01*
X151256659Y-42298040D01*
X151308816Y-42301770D01*
X151313239Y-42302245D01*
X151328918Y-42304500D01*
X151344733Y-42304500D01*
X151349229Y-42304661D01*
X151367929Y-42305997D01*
X151401361Y-42308389D01*
X151406004Y-42307378D01*
X151432785Y-42304500D01*
X151543928Y-42304500D01*
X151592145Y-42314090D01*
X151655246Y-42340228D01*
X151800000Y-42359285D01*
X151944754Y-42340228D01*
X152079643Y-42284355D01*
X152195474Y-42195474D01*
X152284355Y-42079643D01*
X152340228Y-41944754D01*
X152359285Y-41800000D01*
X152340228Y-41655246D01*
X152284355Y-41520358D01*
X152195474Y-41404526D01*
X152195472Y-41404524D01*
X152195471Y-41404523D01*
X152079649Y-41315649D01*
X152079641Y-41315644D01*
X151944752Y-41259771D01*
X151800000Y-41240715D01*
X151655245Y-41259772D01*
X151650289Y-41261825D01*
X151579699Y-41269411D01*
X151516213Y-41237629D01*
X151512981Y-41234509D01*
X151206405Y-40927933D01*
X151172379Y-40865621D01*
X151169500Y-40838838D01*
X151169500Y-40749936D01*
X151169499Y-40749927D01*
X151154735Y-40675699D01*
X151098484Y-40591515D01*
X151014303Y-40535266D01*
X150940070Y-40520500D01*
X150940068Y-40520500D01*
X150745784Y-40520500D01*
X150701752Y-40512556D01*
X150673343Y-40501960D01*
X150539206Y-40492366D01*
X150472686Y-40467555D01*
X150430139Y-40410719D01*
X150425075Y-40339903D01*
X150459098Y-40277594D01*
X150531276Y-40205416D01*
X150551453Y-40189031D01*
X150560582Y-40183068D01*
X150582611Y-40154762D01*
X150587770Y-40148923D01*
X150590581Y-40146113D01*
X150603558Y-40127936D01*
X150605068Y-40125911D01*
X150638375Y-40083119D01*
X150638376Y-40083113D01*
X150642158Y-40076127D01*
X150645653Y-40068979D01*
X150645652Y-40068978D01*
X150661123Y-40017010D01*
X150661882Y-40014642D01*
X150679500Y-39963327D01*
X150679500Y-39963323D01*
X150680809Y-39955478D01*
X150681792Y-39947592D01*
X150681541Y-39941515D01*
X150679553Y-39893475D01*
X150679500Y-39890879D01*
X150679500Y-38059383D01*
X150699502Y-37991262D01*
X150716400Y-37970293D01*
X153795289Y-34891403D01*
X153857601Y-34857378D01*
X153884384Y-34854499D01*
X155275064Y-34854499D01*
X155275066Y-34854499D01*
X155275069Y-34854498D01*
X155275072Y-34854498D01*
X155313051Y-34846944D01*
X155349301Y-34839734D01*
X155433484Y-34783484D01*
X155489734Y-34699301D01*
X155504500Y-34625067D01*
X155504499Y-32874934D01*
X155504498Y-32874930D01*
X155504498Y-32874926D01*
X155489734Y-32800699D01*
X155489733Y-32800697D01*
X155433484Y-32716516D01*
X155383494Y-32683113D01*
X155349302Y-32660266D01*
X155275067Y-32645500D01*
X153524936Y-32645500D01*
X153524926Y-32645501D01*
X153450699Y-32660265D01*
X153366515Y-32716516D01*
X153310266Y-32800697D01*
X153295500Y-32874930D01*
X153295500Y-34265615D01*
X153275498Y-34333736D01*
X153258595Y-34354710D01*
X150068724Y-37544580D01*
X150048551Y-37560964D01*
X150039419Y-37566930D01*
X150039416Y-37566933D01*
X150017394Y-37595227D01*
X150012231Y-37601073D01*
X150011285Y-37602019D01*
X150009414Y-37603891D01*
X149996456Y-37622039D01*
X149994903Y-37624122D01*
X149961628Y-37666876D01*
X149957835Y-37673884D01*
X149954347Y-37681020D01*
X149938888Y-37732942D01*
X149938094Y-37735420D01*
X149920499Y-37786675D01*
X149919194Y-37794495D01*
X149918207Y-37802411D01*
X149919990Y-37845509D01*
X149902820Y-37914398D01*
X149851132Y-37963069D01*
X149781336Y-37976068D01*
X149715591Y-37949269D01*
X149708760Y-37943416D01*
X149663756Y-37901987D01*
X149661901Y-37900207D01*
X149366403Y-37604709D01*
X149332378Y-37542398D01*
X149329499Y-37515615D01*
X149329499Y-37209384D01*
X149349501Y-37141263D01*
X149366404Y-37120289D01*
X150458840Y-36027853D01*
X151604990Y-34881702D01*
X151667300Y-34847679D01*
X151717232Y-34846944D01*
X151757653Y-34854500D01*
X151757656Y-34854500D01*
X151962345Y-34854500D01*
X151962347Y-34854500D01*
X152163556Y-34816888D01*
X152354427Y-34742944D01*
X152528462Y-34635186D01*
X152679732Y-34497285D01*
X152803088Y-34333935D01*
X152894328Y-34150701D01*
X152950345Y-33953821D01*
X152962424Y-33823466D01*
X152969232Y-33750004D01*
X152969232Y-33749995D01*
X152950345Y-33546180D01*
X152936068Y-33496000D01*
X152894328Y-33349299D01*
X152803088Y-33166065D01*
X152745730Y-33090110D01*
X152679733Y-33002715D01*
X152528463Y-32864814D01*
X152354433Y-32757059D01*
X152354428Y-32757057D01*
X152354427Y-32757056D01*
X152261965Y-32721236D01*
X152163559Y-32683113D01*
X152163560Y-32683113D01*
X152163557Y-32683112D01*
X152163556Y-32683112D01*
X151962347Y-32645500D01*
X151757653Y-32645500D01*
X151556444Y-32683112D01*
X151556439Y-32683113D01*
X151365577Y-32757054D01*
X151365566Y-32757059D01*
X151191536Y-32864814D01*
X151040266Y-33002715D01*
X150916912Y-33166064D01*
X150916908Y-33166069D01*
X150840002Y-33320518D01*
X150791733Y-33372582D01*
X150722979Y-33390284D01*
X150655568Y-33368004D01*
X150610905Y-33312817D01*
X150609432Y-33308938D01*
X150518419Y-33101451D01*
X150395325Y-32913041D01*
X150242902Y-32747465D01*
X150065301Y-32609232D01*
X150065300Y-32609231D01*
X149867371Y-32502117D01*
X149867369Y-32502116D01*
X149654512Y-32429043D01*
X149654501Y-32429040D01*
X149574000Y-32415606D01*
X149574000Y-33316325D01*
X149462315Y-33265320D01*
X149355763Y-33250000D01*
X149284237Y-33250000D01*
X149177685Y-33265320D01*
X149066000Y-33316325D01*
X149066000Y-32415606D01*
X149065999Y-32415606D01*
X148985498Y-32429040D01*
X148985487Y-32429043D01*
X148772630Y-32502116D01*
X148772628Y-32502117D01*
X148574699Y-32609231D01*
X148574698Y-32609232D01*
X148397097Y-32747465D01*
X148244674Y-32913041D01*
X148121580Y-33101451D01*
X148031179Y-33307543D01*
X148031176Y-33307550D01*
X147983455Y-33495999D01*
X147983456Y-33496000D01*
X148888884Y-33496000D01*
X148860507Y-33540156D01*
X148820000Y-33678111D01*
X148820000Y-33821889D01*
X148860507Y-33959844D01*
X148888884Y-34004000D01*
X147983455Y-34004000D01*
X148031176Y-34192449D01*
X148031179Y-34192456D01*
X148121580Y-34398548D01*
X148244674Y-34586958D01*
X148397097Y-34752534D01*
X148574698Y-34890767D01*
X148574699Y-34890768D01*
X148772628Y-34997882D01*
X148772630Y-34997883D01*
X148985483Y-35070955D01*
X148985492Y-35070957D01*
X149066000Y-35084391D01*
X149066000Y-34183674D01*
X149177685Y-34234680D01*
X149284237Y-34250000D01*
X149355763Y-34250000D01*
X149462315Y-34234680D01*
X149574000Y-34183674D01*
X149574000Y-35084390D01*
X149654507Y-35070957D01*
X149654516Y-35070955D01*
X149867369Y-34997883D01*
X149867371Y-34997882D01*
X150065300Y-34890768D01*
X150065301Y-34890767D01*
X150242902Y-34752534D01*
X150395325Y-34586958D01*
X150518419Y-34398548D01*
X150610916Y-34187680D01*
X150612538Y-34188391D01*
X150649051Y-34136816D01*
X150714889Y-34110248D01*
X150784640Y-34123492D01*
X150836157Y-34172343D01*
X150840002Y-34179481D01*
X150916908Y-34333930D01*
X150916910Y-34333933D01*
X150920732Y-34338993D01*
X150945825Y-34405408D01*
X150931028Y-34474845D01*
X150909280Y-34504024D01*
X148729709Y-36683595D01*
X148667397Y-36717621D01*
X148640614Y-36720500D01*
X148270259Y-36720500D01*
X148270244Y-36720501D01*
X148239547Y-36723379D01*
X148239544Y-36723380D01*
X148110232Y-36768628D01*
X148101884Y-36773041D01*
X148100945Y-36771264D01*
X148045561Y-36791487D01*
X147976293Y-36775917D01*
X147933749Y-36735283D01*
X147933441Y-36735527D01*
X147931704Y-36733330D01*
X147930196Y-36731890D01*
X147928886Y-36729766D01*
X147807734Y-36608614D01*
X147807728Y-36608609D01*
X147661884Y-36518652D01*
X147499241Y-36464757D01*
X147499229Y-36464755D01*
X147398852Y-36454500D01*
X147354000Y-36454500D01*
X147354000Y-37540500D01*
X147333998Y-37608621D01*
X147280342Y-37655114D01*
X147228000Y-37666500D01*
X146972000Y-37666500D01*
X146903879Y-37646498D01*
X146857386Y-37592842D01*
X146846000Y-37540500D01*
X146846000Y-36454500D01*
X146801147Y-36454500D01*
X146700770Y-36464755D01*
X146700758Y-36464757D01*
X146538115Y-36518652D01*
X146392271Y-36608609D01*
X146392265Y-36608614D01*
X146271114Y-36729765D01*
X146271109Y-36729771D01*
X146181152Y-36875615D01*
X146127257Y-37038258D01*
X146127255Y-37038270D01*
X146117000Y-37138647D01*
X146117000Y-37301116D01*
X146096998Y-37369237D01*
X146043342Y-37415730D01*
X145973068Y-37425834D01*
X145908488Y-37396340D01*
X145901905Y-37390211D01*
X145866404Y-37354710D01*
X145832378Y-37292398D01*
X145829499Y-37265615D01*
X145829499Y-36870260D01*
X145829498Y-36870244D01*
X145826621Y-36839549D01*
X145786713Y-36725498D01*
X145781371Y-36710232D01*
X145781368Y-36710225D01*
X145700010Y-36599989D01*
X145589774Y-36518631D01*
X145589767Y-36518628D01*
X145460453Y-36473379D01*
X145460455Y-36473379D01*
X145435889Y-36471075D01*
X145429749Y-36470500D01*
X145429748Y-36470500D01*
X144770259Y-36470500D01*
X144770244Y-36470501D01*
X144739547Y-36473379D01*
X144739544Y-36473380D01*
X144610232Y-36518628D01*
X144610225Y-36518631D01*
X144499989Y-36599989D01*
X144430370Y-36694321D01*
X144373825Y-36737254D01*
X144328991Y-36745500D01*
X144283883Y-36745500D01*
X144215762Y-36725498D01*
X144169269Y-36671842D01*
X144159165Y-36601568D01*
X144188659Y-36536988D01*
X144210663Y-36516958D01*
X144216026Y-36513127D01*
X144216030Y-36513126D01*
X144216033Y-36513122D01*
X144222491Y-36508511D01*
X144228774Y-36503620D01*
X144228778Y-36503619D01*
X144265494Y-36463733D01*
X144267229Y-36461925D01*
X144531276Y-36197878D01*
X144551453Y-36181493D01*
X144560582Y-36175530D01*
X144573205Y-36159310D01*
X144630825Y-36117839D01*
X144701724Y-36114102D01*
X144714252Y-36117769D01*
X144739549Y-36126621D01*
X144770251Y-36129500D01*
X145429748Y-36129499D01*
X145460451Y-36126621D01*
X145589773Y-36081369D01*
X145700010Y-36000010D01*
X145781369Y-35889773D01*
X145826621Y-35760451D01*
X145829500Y-35729749D01*
X145829499Y-35220252D01*
X145826621Y-35189549D01*
X145795286Y-35099998D01*
X145781371Y-35060232D01*
X145781368Y-35060225D01*
X145700010Y-34949989D01*
X145627934Y-34896795D01*
X145585002Y-34840250D01*
X145579455Y-34769471D01*
X145613056Y-34706929D01*
X145627247Y-34694547D01*
X145694330Y-34644330D01*
X145775883Y-34535387D01*
X145823441Y-34407881D01*
X145824445Y-34398548D01*
X145829499Y-34351533D01*
X145829500Y-34351516D01*
X145829500Y-33823483D01*
X145829499Y-33823466D01*
X145823442Y-33767123D01*
X145823440Y-33767115D01*
X145790242Y-33678111D01*
X145775883Y-33639613D01*
X145757748Y-33615387D01*
X145694330Y-33530669D01*
X145585390Y-33449119D01*
X145585386Y-33449116D01*
X145502108Y-33418055D01*
X145445272Y-33375509D01*
X145420462Y-33308988D01*
X145435554Y-33239614D01*
X145485756Y-33189412D01*
X145502108Y-33181945D01*
X145544683Y-33166065D01*
X145585387Y-33150883D01*
X145694330Y-33069330D01*
X145775883Y-32960387D01*
X145823441Y-32832881D01*
X145829500Y-32776522D01*
X145829500Y-32248478D01*
X145829499Y-32248466D01*
X145823442Y-32192123D01*
X145823440Y-32192115D01*
X145781945Y-32080865D01*
X145775883Y-32064613D01*
X145770790Y-32057809D01*
X145694330Y-31955669D01*
X145585390Y-31874119D01*
X145585385Y-31874116D01*
X145457884Y-31826559D01*
X145457876Y-31826557D01*
X145401533Y-31820500D01*
X145401522Y-31820500D01*
X144798478Y-31820500D01*
X144798466Y-31820500D01*
X144742123Y-31826557D01*
X144742115Y-31826559D01*
X144614614Y-31874116D01*
X144614609Y-31874119D01*
X144505669Y-31955669D01*
X144424119Y-32064609D01*
X144424116Y-32064614D01*
X144418055Y-32080865D01*
X144375508Y-32137701D01*
X144308988Y-32162511D01*
X144239614Y-32147419D01*
X144189412Y-32097216D01*
X144181945Y-32080865D01*
X144175883Y-32064614D01*
X144175883Y-32064613D01*
X144170790Y-32057809D01*
X144094330Y-31955669D01*
X143985390Y-31874119D01*
X143985385Y-31874116D01*
X143857884Y-31826559D01*
X143857876Y-31826557D01*
X143801533Y-31820500D01*
X143801522Y-31820500D01*
X143198478Y-31820500D01*
X143198466Y-31820500D01*
X143142123Y-31826557D01*
X143142115Y-31826559D01*
X143014614Y-31874116D01*
X143014609Y-31874119D01*
X142905669Y-31955669D01*
X142824119Y-32064609D01*
X142824116Y-32064614D01*
X142776559Y-32192115D01*
X142776557Y-32192123D01*
X142770500Y-32248466D01*
X142770500Y-32653115D01*
X142750498Y-32721236D01*
X142733599Y-32742205D01*
X142238414Y-33237391D01*
X141768724Y-33707081D01*
X141748551Y-33723464D01*
X141739419Y-33729430D01*
X141739416Y-33729433D01*
X141717394Y-33757727D01*
X141712231Y-33763573D01*
X141711285Y-33764519D01*
X141709414Y-33766391D01*
X141696456Y-33784539D01*
X141694903Y-33786622D01*
X141661628Y-33829376D01*
X141657835Y-33836384D01*
X141654347Y-33843520D01*
X141638888Y-33895442D01*
X141638094Y-33897920D01*
X141620499Y-33949175D01*
X141619194Y-33956995D01*
X141618207Y-33964910D01*
X141620446Y-34019014D01*
X141620500Y-34021619D01*
X141620500Y-34564605D01*
X141600498Y-34632726D01*
X141546842Y-34679219D01*
X141476568Y-34689323D01*
X141411988Y-34659829D01*
X141373604Y-34600103D01*
X141370051Y-34584315D01*
X141336051Y-34369646D01*
X141240887Y-34014489D01*
X141240883Y-34014476D01*
X141109119Y-33671219D01*
X141109115Y-33671211D01*
X140942190Y-33343602D01*
X140942187Y-33343596D01*
X140741922Y-33035215D01*
X140741918Y-33035210D01*
X140554921Y-32804288D01*
X140554920Y-32804287D01*
X139126084Y-34233122D01*
X139007368Y-34080596D01*
X138824477Y-33912232D01*
X138766461Y-33874328D01*
X140195711Y-32445078D01*
X140195710Y-32445077D01*
X139964789Y-32258081D01*
X139964784Y-32258077D01*
X139656403Y-32057812D01*
X139656397Y-32057809D01*
X139328788Y-31890884D01*
X139328780Y-31890880D01*
X138985523Y-31759116D01*
X138985510Y-31759112D01*
X138630353Y-31663948D01*
X138267182Y-31606428D01*
X138188913Y-31602327D01*
X138121932Y-31578787D01*
X138078311Y-31522772D01*
X138071899Y-31452066D01*
X138104731Y-31389117D01*
X138166385Y-31353912D01*
X138195507Y-31350500D01*
X163604493Y-31350500D01*
X163672614Y-31370502D01*
G37*
G04 #@! TD.AperFunction*
G04 #@! TA.AperFunction,Conductor*
G36*
X143737622Y-44174502D02*
G01*
X143784115Y-44228158D01*
X143795501Y-44280500D01*
X143795501Y-45325072D01*
X143810265Y-45399300D01*
X143866516Y-45483484D01*
X143950697Y-45539733D01*
X143950699Y-45539734D01*
X144024933Y-45554500D01*
X144354352Y-45554499D01*
X144422471Y-45574501D01*
X144468964Y-45628156D01*
X144479069Y-45698430D01*
X144470761Y-45728715D01*
X144459772Y-45755245D01*
X144459771Y-45755246D01*
X144440715Y-45899999D01*
X144440715Y-45900000D01*
X144459771Y-46044752D01*
X144515644Y-46179641D01*
X144515649Y-46179649D01*
X144604525Y-46295474D01*
X144720350Y-46384350D01*
X144720357Y-46384355D01*
X144855246Y-46440228D01*
X144923297Y-46449187D01*
X144999999Y-46459285D01*
X144999999Y-46459284D01*
X145000000Y-46459285D01*
X145144754Y-46440228D01*
X145279643Y-46384355D01*
X145395474Y-46295474D01*
X145484355Y-46179643D01*
X145540228Y-46044754D01*
X145559285Y-45900000D01*
X145556370Y-45877865D01*
X145555614Y-45852432D01*
X145558389Y-45813640D01*
X145557379Y-45808995D01*
X145554500Y-45782216D01*
X145554500Y-45680499D01*
X145574502Y-45612378D01*
X145628158Y-45565885D01*
X145680500Y-45554499D01*
X146075064Y-45554499D01*
X146075066Y-45554499D01*
X146094919Y-45550550D01*
X146165630Y-45556877D01*
X146221698Y-45600431D01*
X146245318Y-45667383D01*
X146245499Y-45674129D01*
X146245499Y-47400970D01*
X146225497Y-47469091D01*
X146208594Y-47490065D01*
X145384569Y-48314090D01*
X145364397Y-48330473D01*
X145356586Y-48335576D01*
X145356585Y-48335577D01*
X145336172Y-48361803D01*
X145331006Y-48367653D01*
X145328558Y-48370101D01*
X145316494Y-48386997D01*
X145314941Y-48389080D01*
X145283912Y-48428947D01*
X145280378Y-48435476D01*
X145277115Y-48442152D01*
X145262700Y-48490569D01*
X145261907Y-48493046D01*
X145245499Y-48540845D01*
X145244277Y-48548170D01*
X145243357Y-48555545D01*
X145243837Y-48567132D01*
X145245255Y-48601413D01*
X145245446Y-48606014D01*
X145245500Y-48608618D01*
X145245500Y-49769501D01*
X145225498Y-49837622D01*
X145171842Y-49884115D01*
X145119500Y-49895501D01*
X144736690Y-49895501D01*
X144668569Y-49875499D01*
X144622076Y-49821843D01*
X144611972Y-49751569D01*
X144641466Y-49686989D01*
X144647595Y-49680406D01*
X144678000Y-49650001D01*
X144678000Y-49601413D01*
X144677999Y-49601406D01*
X144673920Y-49563471D01*
X144673920Y-49536526D01*
X144677999Y-49498590D01*
X144678000Y-49498586D01*
X144678000Y-49450000D01*
X143970000Y-49450000D01*
X143970000Y-49650001D01*
X144000405Y-49680406D01*
X144034431Y-49742718D01*
X144029366Y-49813533D01*
X143986819Y-49870369D01*
X143920299Y-49895180D01*
X143911310Y-49895501D01*
X143796000Y-49895501D01*
X143727879Y-49875499D01*
X143681386Y-49821843D01*
X143670000Y-49769501D01*
X143670000Y-49054000D01*
X141772000Y-49054000D01*
X141703879Y-49033998D01*
X141657386Y-48980342D01*
X141650786Y-48950000D01*
X143970000Y-48950000D01*
X143970000Y-49150000D01*
X144678000Y-49150000D01*
X144678000Y-49101413D01*
X144677999Y-49101406D01*
X144673920Y-49063471D01*
X144673920Y-49036526D01*
X144677999Y-48998590D01*
X144678000Y-48998586D01*
X144678000Y-48950000D01*
X143970000Y-48950000D01*
X141650786Y-48950000D01*
X141646000Y-48928000D01*
X141646000Y-47142000D01*
X142154000Y-47142000D01*
X142154000Y-48546000D01*
X143670000Y-48546000D01*
X143670000Y-48330499D01*
X143690002Y-48262378D01*
X143743658Y-48215885D01*
X143795997Y-48204499D01*
X143911311Y-48204499D01*
X143979431Y-48224501D01*
X144025924Y-48278157D01*
X144036028Y-48348431D01*
X144006534Y-48413011D01*
X144000405Y-48419594D01*
X143970000Y-48449999D01*
X143970000Y-48650000D01*
X144678000Y-48650000D01*
X144678000Y-48601413D01*
X144677999Y-48601406D01*
X144673920Y-48563471D01*
X144673920Y-48536526D01*
X144677999Y-48498590D01*
X144678000Y-48498586D01*
X144678000Y-48450000D01*
X144240151Y-48450000D01*
X144172030Y-48429998D01*
X144125537Y-48376342D01*
X144115433Y-48306068D01*
X144144927Y-48241488D01*
X144204653Y-48203104D01*
X144215571Y-48200421D01*
X144229506Y-48197649D01*
X144269301Y-48189734D01*
X144269302Y-48189733D01*
X144269303Y-48189733D01*
X144296986Y-48171236D01*
X144364739Y-48150020D01*
X144366989Y-48150000D01*
X144678000Y-48150000D01*
X144678000Y-48101414D01*
X144677999Y-48101402D01*
X144671494Y-48040906D01*
X144620444Y-47904035D01*
X144620444Y-47904034D01*
X144532904Y-47787095D01*
X144474989Y-47743740D01*
X144432443Y-47686904D01*
X144424499Y-47642873D01*
X144424499Y-47624936D01*
X144424498Y-47624927D01*
X144409734Y-47550699D01*
X144387104Y-47516831D01*
X144353484Y-47466516D01*
X144344445Y-47460476D01*
X144269302Y-47410266D01*
X144195069Y-47395500D01*
X143707126Y-47395500D01*
X143639005Y-47375498D01*
X143606258Y-47345010D01*
X143562902Y-47287094D01*
X143445965Y-47199555D01*
X143309093Y-47148505D01*
X143248597Y-47142000D01*
X142154000Y-47142000D01*
X141646000Y-47142000D01*
X141361883Y-47142000D01*
X141293762Y-47121998D01*
X141247269Y-47068342D01*
X141235883Y-47016000D01*
X141235883Y-44280500D01*
X141255885Y-44212379D01*
X141309541Y-44165886D01*
X141361883Y-44154500D01*
X143669501Y-44154500D01*
X143737622Y-44174502D01*
G37*
G04 #@! TD.AperFunction*
G04 #@! TA.AperFunction,Conductor*
G36*
X139781308Y-46704702D02*
G01*
X139847010Y-46710579D01*
X139903080Y-46754131D01*
X139926702Y-46821082D01*
X139926883Y-46827832D01*
X139926883Y-47016000D01*
X139906881Y-47084121D01*
X139853225Y-47130614D01*
X139800883Y-47142000D01*
X139581402Y-47142000D01*
X139520906Y-47148505D01*
X139384035Y-47199555D01*
X139384034Y-47199555D01*
X139267095Y-47287095D01*
X139179555Y-47404034D01*
X139179555Y-47404035D01*
X139128505Y-47540906D01*
X139122000Y-47601402D01*
X139122000Y-47653971D01*
X139101998Y-47722092D01*
X139048342Y-47768585D01*
X138978068Y-47778689D01*
X138913488Y-47749195D01*
X138906905Y-47743066D01*
X138083433Y-46919594D01*
X138049407Y-46857282D01*
X138054472Y-46786467D01*
X138097019Y-46729631D01*
X138163539Y-46704820D01*
X138172528Y-46704499D01*
X139775064Y-46704499D01*
X139775066Y-46704499D01*
X139776297Y-46704254D01*
X139776954Y-46704312D01*
X139781229Y-46703892D01*
X139781308Y-46704702D01*
G37*
G04 #@! TD.AperFunction*
G04 #@! TA.AperFunction,Conductor*
G36*
X167591621Y-31370502D02*
G01*
X167638114Y-31424158D01*
X167649500Y-31476500D01*
X167649500Y-34804493D01*
X167629498Y-34872614D01*
X167575842Y-34919107D01*
X167505568Y-34929211D01*
X167440988Y-34899717D01*
X167402604Y-34839991D01*
X167397673Y-34811087D01*
X167393571Y-34732817D01*
X167336051Y-34369646D01*
X167240887Y-34014489D01*
X167240883Y-34014476D01*
X167109119Y-33671219D01*
X167109115Y-33671211D01*
X166942190Y-33343602D01*
X166942187Y-33343596D01*
X166741922Y-33035215D01*
X166741918Y-33035210D01*
X166554921Y-32804288D01*
X166554920Y-32804287D01*
X165126084Y-34233122D01*
X165007368Y-34080596D01*
X164824477Y-33912232D01*
X164766461Y-33874328D01*
X166195711Y-32445078D01*
X166195710Y-32445077D01*
X165964789Y-32258081D01*
X165964784Y-32258077D01*
X165656403Y-32057812D01*
X165656397Y-32057809D01*
X165328788Y-31890884D01*
X165328780Y-31890880D01*
X164985523Y-31759116D01*
X164985510Y-31759112D01*
X164630353Y-31663948D01*
X164267182Y-31606428D01*
X164188913Y-31602327D01*
X164121932Y-31578787D01*
X164078311Y-31522772D01*
X164071899Y-31452066D01*
X164104731Y-31389117D01*
X164166385Y-31353912D01*
X164195507Y-31350500D01*
X167523500Y-31350500D01*
X167591621Y-31370502D01*
G37*
G04 #@! TD.AperFunction*
M02*
