M48
;DRILL file {KiCad 5.0.1-5.0.1} date Sun 02 Dec 2018 11:25:24 PM PST
;FORMAT={3:3/ absolute / metric / suppress leading zeros}
FMAT,2
METRIC,TZ
T1C0.400
T2C0.600
T3C0.850
T4C1.000
T5C1.100
T6C3.000
T7C1.200
%
G90
G05
M71
T1
X134675Y-45475
X135400Y-49700
X135400Y-60700
X135500Y-54600
X135800Y-66500
X136800Y-45000
X137000Y-41100
X138400Y-68000
X139200Y-47400
X139371Y-51603
X139500Y-63400
X139800Y-58100
X141200Y-63300
X141200Y-46300
X141200Y-51500
X141200Y-55450
X141200Y-57400
X141200Y-61450
X141500Y-67350
X142775Y-46900
X142900Y-52000
X142950Y-57925
X143000Y-63950
X144682Y-65513
X145375Y-68475
X145700Y-37400
X146900Y-55100
X148175Y-60025
X148300Y-52100
X149450Y-69575
X149700Y-38400
X149800Y-41700
X150100Y-44000
X151100Y-51400
X152300Y-40400
X152600Y-49400
X152775Y-45582
X153400Y-53300
X154100Y-38400
X154200Y-40200
X154725Y-42700
X155076Y-49076
X155200Y-53300
X155450Y-64775
X157300Y-52925
X157487Y-44200
X157500Y-39380
X157700Y-58700
X158700Y-62225
X158700Y-65600
X158700Y-68775
X161200Y-52700
T3
X163737Y-51500
X163737Y-56500
T4
X130300Y-71160
X130300Y-73700
X163700Y-43500
X163700Y-46000
X143440Y-73300
X145980Y-73300
X148520Y-73300
X151060Y-73300
X153600Y-73300
X153260Y-55300
X155800Y-55300
X158340Y-55300
X160880Y-55300
X149800Y-62300
X152300Y-62300
X148120Y-33700
X150660Y-33700
X153200Y-33700
X131800Y-34400
X131800Y-36900
T5
X130800Y-46860
X130800Y-49400
X130800Y-51940
X130800Y-54480
X130800Y-57020
X130800Y-59560
X130800Y-62100
X130800Y-64640
T6
X163900Y-72100
X137900Y-35100
X163900Y-35100
X137900Y-72100
T7
X153900Y-60300
X129800Y-32800
X165700Y-47600
T2
X166088Y-50500G85X166788Y-50500
G05
X166788Y-57500G85X166088Y-57500
G05
T0
M30
