M48
; DRILL file {KiCad 7.0.3-24-g09febce4ce} date Wed 24 May 2023 02:24:56 AM PDT
; FORMAT={-:-/ absolute / inch / decimal}
; #@! TF.CreationDate,2023-05-24T02:24:56-07:00
; #@! TF.GenerationSoftware,Kicad,Pcbnew,7.0.3-24-g09febce4ce
; #@! TF.FileFunction,Plated,1,2,PTH
FMAT,2
INCH
; #@! TA.AperFunction,Plated,PTH,ViaDrill
T1C0.0118
; #@! TA.AperFunction,Plated,PTH,ComponentDrill
T2C0.0236
; #@! TA.AperFunction,Plated,PTH,ComponentDrill
T3C0.0394
; #@! TA.AperFunction,Plated,PTH,ComponentDrill
T4C0.0433
; #@! TA.AperFunction,Plated,PTH,ComponentDrill
T5C0.1181
%
G90
G05
T1
X5.0748Y-2.6417
X5.0807Y-1.9961
X5.0827Y-2.1949
X5.0827Y-2.3957
X5.1378Y-1.5394
X5.2185Y-2.1929
X5.2185Y-2.4016
X5.2303Y-1.9626
X5.2382Y-1.5295
X5.3022Y-1.7904
X5.3307Y-1.9567
X5.3307Y-2.3898
X5.3346Y-2.1496
X5.3386Y-2.6181
X5.3622Y-1.6654
X5.3858Y-1.7717
X5.3937Y-1.6181
X5.3996Y-2.4409
X5.4488Y-2.6555
X5.4803Y-1.8661
X5.4871Y-2.0316
X5.4921Y-2.4961
X5.5039Y-2.2874
X5.5217Y-1.6181
X5.5347Y-1.8524
X5.5388Y-2.0073
X5.5591Y-2.4705
X5.5591Y-2.1831
X5.5591Y-2.2371
X5.5591Y-2.4193
X5.5709Y-2.6516
X5.5863Y-1.2516
X5.5925Y-1.8479
X5.6023Y-2.0236
X5.6201Y-1.7559
X5.628Y-2.2805
X5.6285Y-1.6526
X5.6299Y-2.5177
X5.6575Y-1.5984
X5.6831Y-2.1791
X5.685Y-2.0236
X5.6949Y-2.4941
X5.6961Y-2.5793
X5.6965Y-1.6033
X5.7047Y-2.3514
X5.7087Y-1.8071
X5.7234Y-2.6959
X5.7441Y-1.8346
X5.7638Y-1.9291
X5.7672Y-2.0152
X5.7677Y-1.248
X5.7717Y-2.4016
X5.7795Y-2.1575
X5.7795Y-2.2598
X5.7913Y-1.439
X5.7913Y-1.9941
X5.8169Y-1.75
X5.8268Y-2.9724
X5.8484Y-1.6713
X5.8937Y-2.5394
X5.8976Y-1.6417
X5.8996Y-2.7992
X5.9055Y-2.248
X5.9055Y-2.378
X5.9213Y-1.4429
X5.9331Y-1.8386
X5.9409Y-2.7402
X5.9488Y-2.3307
X5.9665Y-1.5413
X5.9764Y-1.6457
X5.9961Y-2.3701
X6.0079Y-1.7992
X6.0079Y-2.1693
X6.0699Y-2.0827
X6.0728Y-1.9272
X6.0945Y-1.9764
X6.1063Y-1.8268
X6.1083Y-2.1654
X6.1201Y-2.9665
X6.1299Y-2.5591
X6.1319Y-2.4409
X6.1457Y-1.2559
X6.1496Y-2.4852
X6.1634Y-2.0827
X6.2008Y-1.5504
X6.2008Y-1.75
X6.248Y-2.4498
X6.248Y-2.7077
X6.2874Y-2.3661
X6.3071Y-1.8701
X6.3137Y-2.0565
X6.3189Y-2.189
X6.3225Y-1.9986
X6.3248Y-2.5276
X6.3288Y-1.9576
X6.3878Y-2.3248
X6.4055Y-1.8622
X6.4134Y-2.0354
X6.4134Y-2.1614
X6.4626Y-2.3839
X6.5039Y-1.9764
X6.5039Y-2.2087
X6.5669Y-2.3268
X6.5787Y-1.8543
X6.5827Y-1.9803
X6.5827Y-2.2087
T3
X5.1299Y-2.8016
X5.1299Y-2.9016
X5.189Y-1.3543
X5.189Y-1.4528
X5.6472Y-2.8858
X5.7472Y-2.8858
X5.8472Y-2.8858
X5.8787Y-1.3287
X5.8976Y-2.4528
X5.9472Y-2.8858
X5.9787Y-1.3287
X5.9961Y-2.4528
X6.0472Y-2.8858
X6.0787Y-1.3287
X6.2283Y-1.9323
X6.2283Y-2.0323
X6.2283Y-2.1323
X6.2283Y-2.2323
X6.3937Y-1.7126
X6.4921Y-1.7126
X6.53Y-2.42
X6.53Y-2.52
X6.53Y-2.62
T4
X5.1496Y-1.8449
X5.1496Y-1.9449
X5.1496Y-2.0449
X5.1496Y-2.1449
X5.1496Y-2.2449
X5.1496Y-2.3449
X5.1496Y-2.4449
X5.1496Y-2.5449
T5
X5.4291Y-1.3819
X5.4291Y-2.8386
X6.4528Y-1.3819
X6.4528Y-2.8386
T2
G00X6.361Y-1.9244
M15
G01X6.4043Y-1.9244
M16
G05
G00X6.361Y-2.2646
M15
G01X6.4043Y-2.2646
M16
G05
G00X6.5315Y-1.9244
M15
G01X6.563Y-1.9244
M16
G05
G00X6.5315Y-2.2646
M15
G01X6.563Y-2.2646
M16
G05
T0
M30
