G04 #@! TF.GenerationSoftware,KiCad,Pcbnew,5.1.0-5.1.0*
G04 #@! TF.CreationDate,2019-03-27T16:13:27-07:00*
G04 #@! TF.ProjectId,t962,74393632-2e6b-4696-9361-645f70636258,1.2.3*
G04 #@! TF.SameCoordinates,Original*
G04 #@! TF.FileFunction,Legend,Bot*
G04 #@! TF.FilePolarity,Positive*
%FSLAX46Y46*%
G04 Gerber Fmt 4.6, Leading zero omitted, Abs format (unit mm)*
G04 Created by KiCad (PCBNEW 5.1.0-5.1.0) date 2019-03-27 16:13:27*
%MOMM*%
%LPD*%
G04 APERTURE LIST*
%ADD10C,0.150000*%
%ADD11C,0.300000*%
%ADD12C,0.100000*%
G04 APERTURE END LIST*
D10*
X164044190Y-67000380D02*
X164044190Y-66000380D01*
X163615619Y-66952761D02*
X163472761Y-67000380D01*
X163234666Y-67000380D01*
X163139428Y-66952761D01*
X163091809Y-66905142D01*
X163044190Y-66809904D01*
X163044190Y-66714666D01*
X163091809Y-66619428D01*
X163139428Y-66571809D01*
X163234666Y-66524190D01*
X163425142Y-66476571D01*
X163520380Y-66428952D01*
X163568000Y-66381333D01*
X163615619Y-66286095D01*
X163615619Y-66190857D01*
X163568000Y-66095619D01*
X163520380Y-66048000D01*
X163425142Y-66000380D01*
X163187047Y-66000380D01*
X163044190Y-66048000D01*
X162615619Y-67000380D02*
X162615619Y-66000380D01*
X162234666Y-66000380D01*
X162139428Y-66048000D01*
X162091809Y-66095619D01*
X162044190Y-66190857D01*
X162044190Y-66333714D01*
X162091809Y-66428952D01*
X162139428Y-66476571D01*
X162234666Y-66524190D01*
X162615619Y-66524190D01*
X163829904Y-63508000D02*
X163925142Y-63460380D01*
X164068000Y-63460380D01*
X164210857Y-63508000D01*
X164306095Y-63603238D01*
X164353714Y-63698476D01*
X164401333Y-63888952D01*
X164401333Y-64031809D01*
X164353714Y-64222285D01*
X164306095Y-64317523D01*
X164210857Y-64412761D01*
X164068000Y-64460380D01*
X163972761Y-64460380D01*
X163829904Y-64412761D01*
X163782285Y-64365142D01*
X163782285Y-64031809D01*
X163972761Y-64031809D01*
X163353714Y-64460380D02*
X163353714Y-63460380D01*
X162782285Y-64460380D01*
X162782285Y-63460380D01*
X162306095Y-64460380D02*
X162306095Y-63460380D01*
X162068000Y-63460380D01*
X161925142Y-63508000D01*
X161829904Y-63603238D01*
X161782285Y-63698476D01*
X161734666Y-63888952D01*
X161734666Y-64031809D01*
X161782285Y-64222285D01*
X161829904Y-64317523D01*
X161925142Y-64412761D01*
X162068000Y-64460380D01*
X162306095Y-64460380D01*
X163615619Y-61920380D02*
X163948952Y-61444190D01*
X164187047Y-61920380D02*
X164187047Y-60920380D01*
X163806095Y-60920380D01*
X163710857Y-60968000D01*
X163663238Y-61015619D01*
X163615619Y-61110857D01*
X163615619Y-61253714D01*
X163663238Y-61348952D01*
X163710857Y-61396571D01*
X163806095Y-61444190D01*
X164187047Y-61444190D01*
X163234666Y-61872761D02*
X163091809Y-61920380D01*
X162853714Y-61920380D01*
X162758476Y-61872761D01*
X162710857Y-61825142D01*
X162663238Y-61729904D01*
X162663238Y-61634666D01*
X162710857Y-61539428D01*
X162758476Y-61491809D01*
X162853714Y-61444190D01*
X163044190Y-61396571D01*
X163139428Y-61348952D01*
X163187047Y-61301333D01*
X163234666Y-61206095D01*
X163234666Y-61110857D01*
X163187047Y-61015619D01*
X163139428Y-60968000D01*
X163044190Y-60920380D01*
X162806095Y-60920380D01*
X162663238Y-60968000D01*
X162377523Y-60920380D02*
X161806095Y-60920380D01*
X162091809Y-61920380D02*
X162091809Y-60920380D01*
D11*
X159019285Y-41828571D02*
X159019285Y-42900000D01*
X159090714Y-43114285D01*
X159233571Y-43257142D01*
X159447857Y-43328571D01*
X159590714Y-43328571D01*
X157662142Y-42328571D02*
X157662142Y-43328571D01*
X158019285Y-41757142D02*
X158376428Y-42828571D01*
X157447857Y-42828571D01*
X156876428Y-43185714D02*
X156805000Y-43257142D01*
X156876428Y-43328571D01*
X156947857Y-43257142D01*
X156876428Y-43185714D01*
X156876428Y-43328571D01*
X156876428Y-42400000D02*
X156805000Y-42471428D01*
X156876428Y-42542857D01*
X156947857Y-42471428D01*
X156876428Y-42400000D01*
X156876428Y-42542857D01*
X158662142Y-45878571D02*
X159519285Y-45878571D01*
X159090714Y-45878571D02*
X159090714Y-44378571D01*
X159233571Y-44592857D01*
X159376428Y-44735714D01*
X159519285Y-44807142D01*
X156876428Y-45307142D02*
X155733571Y-45307142D01*
X153090714Y-44450000D02*
X153233571Y-44378571D01*
X153447857Y-44378571D01*
X153662142Y-44450000D01*
X153805000Y-44592857D01*
X153876428Y-44735714D01*
X153947857Y-45021428D01*
X153947857Y-45235714D01*
X153876428Y-45521428D01*
X153805000Y-45664285D01*
X153662142Y-45807142D01*
X153447857Y-45878571D01*
X153305000Y-45878571D01*
X153090714Y-45807142D01*
X153019285Y-45735714D01*
X153019285Y-45235714D01*
X153305000Y-45235714D01*
X152376428Y-45878571D02*
X152376428Y-44378571D01*
X151519285Y-45878571D01*
X151519285Y-44378571D01*
X150805000Y-45878571D02*
X150805000Y-44378571D01*
X150447857Y-44378571D01*
X150233571Y-44450000D01*
X150090714Y-44592857D01*
X150019285Y-44735714D01*
X149947857Y-45021428D01*
X149947857Y-45235714D01*
X150019285Y-45521428D01*
X150090714Y-45664285D01*
X150233571Y-45807142D01*
X150447857Y-45878571D01*
X150805000Y-45878571D01*
X159519285Y-47071428D02*
X159447857Y-47000000D01*
X159305000Y-46928571D01*
X158947857Y-46928571D01*
X158805000Y-47000000D01*
X158733571Y-47071428D01*
X158662142Y-47214285D01*
X158662142Y-47357142D01*
X158733571Y-47571428D01*
X159590714Y-48428571D01*
X158662142Y-48428571D01*
X156876428Y-47857142D02*
X155733571Y-47857142D01*
X153876428Y-47857142D02*
X152733571Y-47857142D01*
X153305000Y-48428571D02*
X153305000Y-47285714D01*
X152162142Y-46928571D02*
X151233571Y-46928571D01*
X151733571Y-47500000D01*
X151519285Y-47500000D01*
X151376428Y-47571428D01*
X151305000Y-47642857D01*
X151233571Y-47785714D01*
X151233571Y-48142857D01*
X151305000Y-48285714D01*
X151376428Y-48357142D01*
X151519285Y-48428571D01*
X151947857Y-48428571D01*
X152090714Y-48357142D01*
X152162142Y-48285714D01*
X150590714Y-48285714D02*
X150519285Y-48357142D01*
X150590714Y-48428571D01*
X150662142Y-48357142D01*
X150590714Y-48285714D01*
X150590714Y-48428571D01*
X150019285Y-46928571D02*
X149090714Y-46928571D01*
X149590714Y-47500000D01*
X149376428Y-47500000D01*
X149233571Y-47571428D01*
X149162142Y-47642857D01*
X149090714Y-47785714D01*
X149090714Y-48142857D01*
X149162142Y-48285714D01*
X149233571Y-48357142D01*
X149376428Y-48428571D01*
X149805000Y-48428571D01*
X149947857Y-48357142D01*
X150019285Y-48285714D01*
X148662142Y-46928571D02*
X148162142Y-48428571D01*
X147662142Y-46928571D01*
D10*
X157278690Y-33777380D02*
X157278690Y-34491666D01*
X157326309Y-34634523D01*
X157421547Y-34729761D01*
X157564404Y-34777380D01*
X157659642Y-34777380D01*
X156278690Y-34777380D02*
X156850119Y-34777380D01*
X156564404Y-34777380D02*
X156564404Y-33777380D01*
X156659642Y-33920238D01*
X156754880Y-34015476D01*
X156850119Y-34063095D01*
X155850119Y-34682142D02*
X155802500Y-34729761D01*
X155850119Y-34777380D01*
X155897738Y-34729761D01*
X155850119Y-34682142D01*
X155850119Y-34777380D01*
X155850119Y-34158333D02*
X155802500Y-34205952D01*
X155850119Y-34253571D01*
X155897738Y-34205952D01*
X155850119Y-34158333D01*
X155850119Y-34253571D01*
X157040595Y-36427380D02*
X157612023Y-36427380D01*
X157326309Y-36427380D02*
X157326309Y-35427380D01*
X157421547Y-35570238D01*
X157516785Y-35665476D01*
X157612023Y-35713095D01*
X155850119Y-36046428D02*
X155088214Y-36046428D01*
X153850119Y-36427380D02*
X153850119Y-35427380D01*
X153612023Y-35427380D01*
X153469166Y-35475000D01*
X153373928Y-35570238D01*
X153326309Y-35665476D01*
X153278690Y-35855952D01*
X153278690Y-35998809D01*
X153326309Y-36189285D01*
X153373928Y-36284523D01*
X153469166Y-36379761D01*
X153612023Y-36427380D01*
X153850119Y-36427380D01*
X152183452Y-36522619D02*
X152278690Y-36475000D01*
X152373928Y-36379761D01*
X152516785Y-36236904D01*
X152612023Y-36189285D01*
X152707261Y-36189285D01*
X152659642Y-36427380D02*
X152754880Y-36379761D01*
X152850119Y-36284523D01*
X152897738Y-36094047D01*
X152897738Y-35760714D01*
X152850119Y-35570238D01*
X152754880Y-35475000D01*
X152659642Y-35427380D01*
X152469166Y-35427380D01*
X152373928Y-35475000D01*
X152278690Y-35570238D01*
X152231071Y-35760714D01*
X152231071Y-36094047D01*
X152278690Y-36284523D01*
X152373928Y-36379761D01*
X152469166Y-36427380D01*
X152659642Y-36427380D01*
X157612023Y-37172619D02*
X157564404Y-37125000D01*
X157469166Y-37077380D01*
X157231071Y-37077380D01*
X157135833Y-37125000D01*
X157088214Y-37172619D01*
X157040595Y-37267857D01*
X157040595Y-37363095D01*
X157088214Y-37505952D01*
X157659642Y-38077380D01*
X157040595Y-38077380D01*
X155850119Y-37696428D02*
X155088214Y-37696428D01*
X153516785Y-37553571D02*
X153850119Y-37553571D01*
X153850119Y-38077380D02*
X153850119Y-37077380D01*
X153373928Y-37077380D01*
X153040595Y-37791666D02*
X152564404Y-37791666D01*
X153135833Y-38077380D02*
X152802500Y-37077380D01*
X152469166Y-38077380D01*
X152135833Y-38077380D02*
X152135833Y-37077380D01*
X151564404Y-38077380D01*
X151564404Y-37077380D01*
X150326309Y-38077380D02*
X150326309Y-37077380D01*
X149945357Y-37077380D01*
X149850119Y-37125000D01*
X149802500Y-37172619D01*
X149754880Y-37267857D01*
X149754880Y-37410714D01*
X149802500Y-37505952D01*
X149850119Y-37553571D01*
X149945357Y-37601190D01*
X150326309Y-37601190D01*
X149421547Y-37077380D02*
X149183452Y-38077380D01*
X148992976Y-37363095D01*
X148802500Y-38077380D01*
X148564404Y-37077380D01*
X148183452Y-38077380D02*
X148183452Y-37077380D01*
X147850119Y-37791666D01*
X147516785Y-37077380D01*
X147516785Y-38077380D01*
X145992976Y-38458333D02*
X146040595Y-38410714D01*
X146135833Y-38267857D01*
X146183452Y-38172619D01*
X146231071Y-38029761D01*
X146278690Y-37791666D01*
X146278690Y-37601190D01*
X146231071Y-37363095D01*
X146183452Y-37220238D01*
X146135833Y-37125000D01*
X146040595Y-36982142D01*
X145992976Y-36934523D01*
X145612023Y-38077380D02*
X145612023Y-37077380D01*
X145373928Y-37077380D01*
X145231071Y-37125000D01*
X145135833Y-37220238D01*
X145088214Y-37315476D01*
X145040595Y-37505952D01*
X145040595Y-37648809D01*
X145088214Y-37839285D01*
X145135833Y-37934523D01*
X145231071Y-38029761D01*
X145373928Y-38077380D01*
X145612023Y-38077380D01*
X144659642Y-37791666D02*
X144183452Y-37791666D01*
X144754880Y-38077380D02*
X144421547Y-37077380D01*
X144088214Y-38077380D01*
X143183452Y-37982142D02*
X143231071Y-38029761D01*
X143373928Y-38077380D01*
X143469166Y-38077380D01*
X143612023Y-38029761D01*
X143707261Y-37934523D01*
X143754880Y-37839285D01*
X143802500Y-37648809D01*
X143802500Y-37505952D01*
X143754880Y-37315476D01*
X143707261Y-37220238D01*
X143612023Y-37125000D01*
X143469166Y-37077380D01*
X143373928Y-37077380D01*
X143231071Y-37125000D01*
X143183452Y-37172619D01*
X142564404Y-37077380D02*
X142469166Y-37077380D01*
X142373928Y-37125000D01*
X142326309Y-37172619D01*
X142278690Y-37267857D01*
X142231071Y-37458333D01*
X142231071Y-37696428D01*
X142278690Y-37886904D01*
X142326309Y-37982142D01*
X142373928Y-38029761D01*
X142469166Y-38077380D01*
X142564404Y-38077380D01*
X142659642Y-38029761D01*
X142707261Y-37982142D01*
X142754880Y-37886904D01*
X142802500Y-37696428D01*
X142802500Y-37458333D01*
X142754880Y-37267857D01*
X142707261Y-37172619D01*
X142659642Y-37125000D01*
X142564404Y-37077380D01*
X141897738Y-38458333D02*
X141850119Y-38410714D01*
X141754880Y-38267857D01*
X141707261Y-38172619D01*
X141659642Y-38029761D01*
X141612023Y-37791666D01*
X141612023Y-37601190D01*
X141659642Y-37363095D01*
X141707261Y-37220238D01*
X141754880Y-37125000D01*
X141850119Y-36982142D01*
X141897738Y-36934523D01*
X157659642Y-38727380D02*
X157040595Y-38727380D01*
X157373928Y-39108333D01*
X157231071Y-39108333D01*
X157135833Y-39155952D01*
X157088214Y-39203571D01*
X157040595Y-39298809D01*
X157040595Y-39536904D01*
X157088214Y-39632142D01*
X157135833Y-39679761D01*
X157231071Y-39727380D01*
X157516785Y-39727380D01*
X157612023Y-39679761D01*
X157659642Y-39632142D01*
X155850119Y-39346428D02*
X155088214Y-39346428D01*
X153326309Y-38775000D02*
X153421547Y-38727380D01*
X153564404Y-38727380D01*
X153707261Y-38775000D01*
X153802500Y-38870238D01*
X153850119Y-38965476D01*
X153897738Y-39155952D01*
X153897738Y-39298809D01*
X153850119Y-39489285D01*
X153802500Y-39584523D01*
X153707261Y-39679761D01*
X153564404Y-39727380D01*
X153469166Y-39727380D01*
X153326309Y-39679761D01*
X153278690Y-39632142D01*
X153278690Y-39298809D01*
X153469166Y-39298809D01*
X152850119Y-39727380D02*
X152850119Y-38727380D01*
X152278690Y-39727380D01*
X152278690Y-38727380D01*
X151802500Y-39727380D02*
X151802500Y-38727380D01*
X151564404Y-38727380D01*
X151421547Y-38775000D01*
X151326309Y-38870238D01*
X151278690Y-38965476D01*
X151231071Y-39155952D01*
X151231071Y-39298809D01*
X151278690Y-39489285D01*
X151326309Y-39584523D01*
X151421547Y-39679761D01*
X151564404Y-39727380D01*
X151802500Y-39727380D01*
D11*
X159469285Y-65103571D02*
X159469285Y-66175000D01*
X159540714Y-66389285D01*
X159683571Y-66532142D01*
X159897857Y-66603571D01*
X160040714Y-66603571D01*
X158897857Y-65103571D02*
X157969285Y-65103571D01*
X158469285Y-65675000D01*
X158255000Y-65675000D01*
X158112142Y-65746428D01*
X158040714Y-65817857D01*
X157969285Y-65960714D01*
X157969285Y-66317857D01*
X158040714Y-66460714D01*
X158112142Y-66532142D01*
X158255000Y-66603571D01*
X158683571Y-66603571D01*
X158826428Y-66532142D01*
X158897857Y-66460714D01*
X157326428Y-66460714D02*
X157255000Y-66532142D01*
X157326428Y-66603571D01*
X157397857Y-66532142D01*
X157326428Y-66460714D01*
X157326428Y-66603571D01*
X157326428Y-65675000D02*
X157255000Y-65746428D01*
X157326428Y-65817857D01*
X157397857Y-65746428D01*
X157326428Y-65675000D01*
X157326428Y-65817857D01*
X154683571Y-66603571D02*
X155540714Y-66603571D01*
X155112142Y-66603571D02*
X155112142Y-65103571D01*
X155255000Y-65317857D01*
X155397857Y-65460714D01*
X155540714Y-65532142D01*
X154112142Y-65246428D02*
X154040714Y-65175000D01*
X153897857Y-65103571D01*
X153540714Y-65103571D01*
X153397857Y-65175000D01*
X153326428Y-65246428D01*
X153255000Y-65389285D01*
X153255000Y-65532142D01*
X153326428Y-65746428D01*
X154183571Y-66603571D01*
X153255000Y-66603571D01*
X152826428Y-65103571D02*
X152326428Y-66603571D01*
X151826428Y-65103571D01*
X150183571Y-66603571D02*
X150183571Y-65603571D01*
X150183571Y-65103571D02*
X150255000Y-65175000D01*
X150183571Y-65246428D01*
X150112142Y-65175000D01*
X150183571Y-65103571D01*
X150183571Y-65246428D01*
X149469285Y-65603571D02*
X149469285Y-66603571D01*
X149469285Y-65746428D02*
X149397857Y-65675000D01*
X149255000Y-65603571D01*
X149040714Y-65603571D01*
X148897857Y-65675000D01*
X148826428Y-65817857D01*
X148826428Y-66603571D01*
X159469285Y-67653571D02*
X159469285Y-68725000D01*
X159540714Y-68939285D01*
X159683571Y-69082142D01*
X159897857Y-69153571D01*
X160040714Y-69153571D01*
X158040714Y-67653571D02*
X158755000Y-67653571D01*
X158826428Y-68367857D01*
X158755000Y-68296428D01*
X158612142Y-68225000D01*
X158255000Y-68225000D01*
X158112142Y-68296428D01*
X158040714Y-68367857D01*
X157969285Y-68510714D01*
X157969285Y-68867857D01*
X158040714Y-69010714D01*
X158112142Y-69082142D01*
X158255000Y-69153571D01*
X158612142Y-69153571D01*
X158755000Y-69082142D01*
X158826428Y-69010714D01*
X157326428Y-69010714D02*
X157255000Y-69082142D01*
X157326428Y-69153571D01*
X157397857Y-69082142D01*
X157326428Y-69010714D01*
X157326428Y-69153571D01*
X157326428Y-68225000D02*
X157255000Y-68296428D01*
X157326428Y-68367857D01*
X157397857Y-68296428D01*
X157326428Y-68225000D01*
X157326428Y-68367857D01*
X154969285Y-68367857D02*
X155469285Y-68367857D01*
X155469285Y-69153571D02*
X155469285Y-67653571D01*
X154755000Y-67653571D01*
X153540714Y-69153571D02*
X153540714Y-68367857D01*
X153612142Y-68225000D01*
X153755000Y-68153571D01*
X154040714Y-68153571D01*
X154183571Y-68225000D01*
X153540714Y-69082142D02*
X153683571Y-69153571D01*
X154040714Y-69153571D01*
X154183571Y-69082142D01*
X154255000Y-68939285D01*
X154255000Y-68796428D01*
X154183571Y-68653571D01*
X154040714Y-68582142D01*
X153683571Y-68582142D01*
X153540714Y-68510714D01*
X152826428Y-68153571D02*
X152826428Y-69153571D01*
X152826428Y-68296428D02*
X152755000Y-68225000D01*
X152612142Y-68153571D01*
X152397857Y-68153571D01*
X152255000Y-68225000D01*
X152183571Y-68367857D01*
X152183571Y-69153571D01*
X150112142Y-69153571D02*
X150255000Y-69082142D01*
X150326428Y-69010714D01*
X150397857Y-68867857D01*
X150397857Y-68439285D01*
X150326428Y-68296428D01*
X150255000Y-68225000D01*
X150112142Y-68153571D01*
X149897857Y-68153571D01*
X149755000Y-68225000D01*
X149683571Y-68296428D01*
X149612142Y-68439285D01*
X149612142Y-68867857D01*
X149683571Y-69010714D01*
X149755000Y-69082142D01*
X149897857Y-69153571D01*
X150112142Y-69153571D01*
X148326428Y-68153571D02*
X148326428Y-69153571D01*
X148969285Y-68153571D02*
X148969285Y-68939285D01*
X148897857Y-69082142D01*
X148755000Y-69153571D01*
X148540714Y-69153571D01*
X148397857Y-69082142D01*
X148326428Y-69010714D01*
X147826428Y-68153571D02*
X147255000Y-68153571D01*
X147612142Y-67653571D02*
X147612142Y-68939285D01*
X147540714Y-69082142D01*
X147397857Y-69153571D01*
X147255000Y-69153571D01*
X159469285Y-70203571D02*
X159469285Y-71275000D01*
X159540714Y-71489285D01*
X159683571Y-71632142D01*
X159897857Y-71703571D01*
X160040714Y-71703571D01*
X158112142Y-70203571D02*
X158397857Y-70203571D01*
X158540714Y-70275000D01*
X158612142Y-70346428D01*
X158755000Y-70560714D01*
X158826428Y-70846428D01*
X158826428Y-71417857D01*
X158755000Y-71560714D01*
X158683571Y-71632142D01*
X158540714Y-71703571D01*
X158255000Y-71703571D01*
X158112142Y-71632142D01*
X158040714Y-71560714D01*
X157969285Y-71417857D01*
X157969285Y-71060714D01*
X158040714Y-70917857D01*
X158112142Y-70846428D01*
X158255000Y-70775000D01*
X158540714Y-70775000D01*
X158683571Y-70846428D01*
X158755000Y-70917857D01*
X158826428Y-71060714D01*
X157326428Y-71560714D02*
X157255000Y-71632142D01*
X157326428Y-71703571D01*
X157397857Y-71632142D01*
X157326428Y-71560714D01*
X157326428Y-71703571D01*
X157326428Y-70775000D02*
X157255000Y-70846428D01*
X157326428Y-70917857D01*
X157397857Y-70846428D01*
X157326428Y-70775000D01*
X157326428Y-70917857D01*
X154683571Y-71703571D02*
X155540714Y-71703571D01*
X155112142Y-71703571D02*
X155112142Y-70203571D01*
X155255000Y-70417857D01*
X155397857Y-70560714D01*
X155540714Y-70632142D01*
X154112142Y-70346428D02*
X154040714Y-70275000D01*
X153897857Y-70203571D01*
X153540714Y-70203571D01*
X153397857Y-70275000D01*
X153326428Y-70346428D01*
X153255000Y-70489285D01*
X153255000Y-70632142D01*
X153326428Y-70846428D01*
X154183571Y-71703571D01*
X153255000Y-71703571D01*
X152826428Y-70203571D02*
X152326428Y-71703571D01*
X151826428Y-70203571D01*
X149969285Y-71703571D02*
X150112142Y-71632142D01*
X150183571Y-71560714D01*
X150255000Y-71417857D01*
X150255000Y-70989285D01*
X150183571Y-70846428D01*
X150112142Y-70775000D01*
X149969285Y-70703571D01*
X149755000Y-70703571D01*
X149612142Y-70775000D01*
X149540714Y-70846428D01*
X149469285Y-70989285D01*
X149469285Y-71417857D01*
X149540714Y-71560714D01*
X149612142Y-71632142D01*
X149755000Y-71703571D01*
X149969285Y-71703571D01*
X148183571Y-70703571D02*
X148183571Y-71703571D01*
X148826428Y-70703571D02*
X148826428Y-71489285D01*
X148755000Y-71632142D01*
X148612142Y-71703571D01*
X148397857Y-71703571D01*
X148255000Y-71632142D01*
X148183571Y-71560714D01*
X147683571Y-70703571D02*
X147112142Y-70703571D01*
X147469285Y-70203571D02*
X147469285Y-71489285D01*
X147397857Y-71632142D01*
X147255000Y-71703571D01*
X147112142Y-71703571D01*
X145319285Y-39178571D02*
X145319285Y-40250000D01*
X145390714Y-40464285D01*
X145533571Y-40607142D01*
X145747857Y-40678571D01*
X145890714Y-40678571D01*
X143819285Y-40678571D02*
X144676428Y-40678571D01*
X144247857Y-40678571D02*
X144247857Y-39178571D01*
X144390714Y-39392857D01*
X144533571Y-39535714D01*
X144676428Y-39607142D01*
X142890714Y-39178571D02*
X142747857Y-39178571D01*
X142605000Y-39250000D01*
X142533571Y-39321428D01*
X142462142Y-39464285D01*
X142390714Y-39750000D01*
X142390714Y-40107142D01*
X142462142Y-40392857D01*
X142533571Y-40535714D01*
X142605000Y-40607142D01*
X142747857Y-40678571D01*
X142890714Y-40678571D01*
X143033571Y-40607142D01*
X143105000Y-40535714D01*
X143176428Y-40392857D01*
X143247857Y-40107142D01*
X143247857Y-39750000D01*
X143176428Y-39464285D01*
X143105000Y-39321428D01*
X143033571Y-39250000D01*
X142890714Y-39178571D01*
X141747857Y-40535714D02*
X141676428Y-40607142D01*
X141747857Y-40678571D01*
X141819285Y-40607142D01*
X141747857Y-40535714D01*
X141747857Y-40678571D01*
X141747857Y-39750000D02*
X141676428Y-39821428D01*
X141747857Y-39892857D01*
X141819285Y-39821428D01*
X141747857Y-39750000D01*
X141747857Y-39892857D01*
X139462142Y-41250000D02*
X139533571Y-41178571D01*
X139676428Y-40964285D01*
X139747857Y-40821428D01*
X139819285Y-40607142D01*
X139890714Y-40250000D01*
X139890714Y-39964285D01*
X139819285Y-39607142D01*
X139747857Y-39392857D01*
X139676428Y-39250000D01*
X139533571Y-39035714D01*
X139462142Y-38964285D01*
X138890714Y-39178571D02*
X138890714Y-40392857D01*
X138819285Y-40535714D01*
X138747857Y-40607142D01*
X138605000Y-40678571D01*
X138319285Y-40678571D01*
X138176428Y-40607142D01*
X138105000Y-40535714D01*
X138033571Y-40392857D01*
X138033571Y-39178571D01*
X137390714Y-40607142D02*
X137176428Y-40678571D01*
X136819285Y-40678571D01*
X136676428Y-40607142D01*
X136605000Y-40535714D01*
X136533571Y-40392857D01*
X136533571Y-40250000D01*
X136605000Y-40107142D01*
X136676428Y-40035714D01*
X136819285Y-39964285D01*
X137105000Y-39892857D01*
X137247857Y-39821428D01*
X137319285Y-39750000D01*
X137390714Y-39607142D01*
X137390714Y-39464285D01*
X137319285Y-39321428D01*
X137247857Y-39250000D01*
X137105000Y-39178571D01*
X136747857Y-39178571D01*
X136533571Y-39250000D01*
X135390714Y-39892857D02*
X135176428Y-39964285D01*
X135105000Y-40035714D01*
X135033571Y-40178571D01*
X135033571Y-40392857D01*
X135105000Y-40535714D01*
X135176428Y-40607142D01*
X135319285Y-40678571D01*
X135890714Y-40678571D01*
X135890714Y-39178571D01*
X135390714Y-39178571D01*
X135247857Y-39250000D01*
X135176428Y-39321428D01*
X135105000Y-39464285D01*
X135105000Y-39607142D01*
X135176428Y-39750000D01*
X135247857Y-39821428D01*
X135390714Y-39892857D01*
X135890714Y-39892857D01*
X134533571Y-41250000D02*
X134462142Y-41178571D01*
X134319285Y-40964285D01*
X134247857Y-40821428D01*
X134176428Y-40607142D01*
X134105000Y-40250000D01*
X134105000Y-39964285D01*
X134176428Y-39607142D01*
X134247857Y-39392857D01*
X134319285Y-39250000D01*
X134462142Y-39035714D01*
X134533571Y-38964285D01*
X144962142Y-43228571D02*
X145819285Y-43228571D01*
X145390714Y-43228571D02*
X145390714Y-41728571D01*
X145533571Y-41942857D01*
X145676428Y-42085714D01*
X145819285Y-42157142D01*
X143176428Y-42657142D02*
X142033571Y-42657142D01*
X139390714Y-41800000D02*
X139533571Y-41728571D01*
X139747857Y-41728571D01*
X139962142Y-41800000D01*
X140105000Y-41942857D01*
X140176428Y-42085714D01*
X140247857Y-42371428D01*
X140247857Y-42585714D01*
X140176428Y-42871428D01*
X140105000Y-43014285D01*
X139962142Y-43157142D01*
X139747857Y-43228571D01*
X139605000Y-43228571D01*
X139390714Y-43157142D01*
X139319285Y-43085714D01*
X139319285Y-42585714D01*
X139605000Y-42585714D01*
X138676428Y-43228571D02*
X138676428Y-41728571D01*
X137819285Y-43228571D01*
X137819285Y-41728571D01*
X137105000Y-43228571D02*
X137105000Y-41728571D01*
X136747857Y-41728571D01*
X136533571Y-41800000D01*
X136390714Y-41942857D01*
X136319285Y-42085714D01*
X136247857Y-42371428D01*
X136247857Y-42585714D01*
X136319285Y-42871428D01*
X136390714Y-43014285D01*
X136533571Y-43157142D01*
X136747857Y-43228571D01*
X137105000Y-43228571D01*
X145819285Y-44421428D02*
X145747857Y-44350000D01*
X145605000Y-44278571D01*
X145247857Y-44278571D01*
X145105000Y-44350000D01*
X145033571Y-44421428D01*
X144962142Y-44564285D01*
X144962142Y-44707142D01*
X145033571Y-44921428D01*
X145890714Y-45778571D01*
X144962142Y-45778571D01*
X143176428Y-45207142D02*
X142033571Y-45207142D01*
X140176428Y-45778571D02*
X140176428Y-44278571D01*
X139819285Y-44278571D01*
X139605000Y-44350000D01*
X139462142Y-44492857D01*
X139390714Y-44635714D01*
X139319285Y-44921428D01*
X139319285Y-45135714D01*
X139390714Y-45421428D01*
X139462142Y-45564285D01*
X139605000Y-45707142D01*
X139819285Y-45778571D01*
X140176428Y-45778571D01*
X138676428Y-45207142D02*
X137533571Y-45207142D01*
X138105000Y-45778571D02*
X138105000Y-44635714D01*
X145890714Y-46828571D02*
X144962142Y-46828571D01*
X145462142Y-47400000D01*
X145247857Y-47400000D01*
X145105000Y-47471428D01*
X145033571Y-47542857D01*
X144962142Y-47685714D01*
X144962142Y-48042857D01*
X145033571Y-48185714D01*
X145105000Y-48257142D01*
X145247857Y-48328571D01*
X145676428Y-48328571D01*
X145819285Y-48257142D01*
X145890714Y-48185714D01*
X143176428Y-47757142D02*
X142033571Y-47757142D01*
X140176428Y-48328571D02*
X140176428Y-46828571D01*
X139819285Y-46828571D01*
X139605000Y-46900000D01*
X139462142Y-47042857D01*
X139390714Y-47185714D01*
X139319285Y-47471428D01*
X139319285Y-47685714D01*
X139390714Y-47971428D01*
X139462142Y-48114285D01*
X139605000Y-48257142D01*
X139819285Y-48328571D01*
X140176428Y-48328571D01*
X138676428Y-47757142D02*
X137533571Y-47757142D01*
X145105000Y-49878571D02*
X145105000Y-50878571D01*
X145462142Y-49307142D02*
X145819285Y-50378571D01*
X144890714Y-50378571D01*
X143176428Y-50307142D02*
X142033571Y-50307142D01*
X140176428Y-50307142D02*
X139033571Y-50307142D01*
X139605000Y-50878571D02*
X139605000Y-49735714D01*
X137605000Y-49378571D02*
X138319285Y-49378571D01*
X138390714Y-50092857D01*
X138319285Y-50021428D01*
X138176428Y-49950000D01*
X137819285Y-49950000D01*
X137676428Y-50021428D01*
X137605000Y-50092857D01*
X137533571Y-50235714D01*
X137533571Y-50592857D01*
X137605000Y-50735714D01*
X137676428Y-50807142D01*
X137819285Y-50878571D01*
X138176428Y-50878571D01*
X138319285Y-50807142D01*
X138390714Y-50735714D01*
X137105000Y-49378571D02*
X136605000Y-50878571D01*
X136105000Y-49378571D01*
X145519285Y-52703571D02*
X145519285Y-53775000D01*
X145590714Y-53989285D01*
X145733571Y-54132142D01*
X145947857Y-54203571D01*
X146090714Y-54203571D01*
X144947857Y-52703571D02*
X143947857Y-52703571D01*
X144590714Y-54203571D01*
X143376428Y-54060714D02*
X143305000Y-54132142D01*
X143376428Y-54203571D01*
X143447857Y-54132142D01*
X143376428Y-54060714D01*
X143376428Y-54203571D01*
X143376428Y-53275000D02*
X143305000Y-53346428D01*
X143376428Y-53417857D01*
X143447857Y-53346428D01*
X143376428Y-53275000D01*
X143376428Y-53417857D01*
X145162142Y-56753571D02*
X146019285Y-56753571D01*
X145590714Y-56753571D02*
X145590714Y-55253571D01*
X145733571Y-55467857D01*
X145876428Y-55610714D01*
X146019285Y-55682142D01*
X143376428Y-56182142D02*
X142233571Y-56182142D01*
X140376428Y-56753571D02*
X140376428Y-55253571D01*
X139519285Y-56753571D01*
X139519285Y-55253571D01*
X139162142Y-56896428D02*
X138019285Y-56896428D01*
X137662142Y-56753571D02*
X137662142Y-55253571D01*
X137019285Y-56682142D02*
X136805000Y-56753571D01*
X136447857Y-56753571D01*
X136305000Y-56682142D01*
X136233571Y-56610714D01*
X136162142Y-56467857D01*
X136162142Y-56325000D01*
X136233571Y-56182142D01*
X136305000Y-56110714D01*
X136447857Y-56039285D01*
X136733571Y-55967857D01*
X136876428Y-55896428D01*
X136947857Y-55825000D01*
X137019285Y-55682142D01*
X137019285Y-55539285D01*
X136947857Y-55396428D01*
X136876428Y-55325000D01*
X136733571Y-55253571D01*
X136376428Y-55253571D01*
X136162142Y-55325000D01*
X135519285Y-56753571D02*
X135519285Y-55253571D01*
X134947857Y-55253571D01*
X134805000Y-55325000D01*
X134733571Y-55396428D01*
X134662142Y-55539285D01*
X134662142Y-55753571D01*
X134733571Y-55896428D01*
X134805000Y-55967857D01*
X134947857Y-56039285D01*
X135519285Y-56039285D01*
X146019285Y-57946428D02*
X145947857Y-57875000D01*
X145805000Y-57803571D01*
X145447857Y-57803571D01*
X145305000Y-57875000D01*
X145233571Y-57946428D01*
X145162142Y-58089285D01*
X145162142Y-58232142D01*
X145233571Y-58446428D01*
X146090714Y-59303571D01*
X145162142Y-59303571D01*
X143376428Y-58732142D02*
X142233571Y-58732142D01*
X140376428Y-59303571D02*
X140376428Y-57803571D01*
X139519285Y-59303571D01*
X139519285Y-57803571D01*
X139162142Y-59446428D02*
X138019285Y-59446428D01*
X136805000Y-59303571D02*
X137305000Y-58589285D01*
X137662142Y-59303571D02*
X137662142Y-57803571D01*
X137090714Y-57803571D01*
X136947857Y-57875000D01*
X136876428Y-57946428D01*
X136805000Y-58089285D01*
X136805000Y-58303571D01*
X136876428Y-58446428D01*
X136947857Y-58517857D01*
X137090714Y-58589285D01*
X137662142Y-58589285D01*
X136233571Y-59232142D02*
X136019285Y-59303571D01*
X135662142Y-59303571D01*
X135519285Y-59232142D01*
X135447857Y-59160714D01*
X135376428Y-59017857D01*
X135376428Y-58875000D01*
X135447857Y-58732142D01*
X135519285Y-58660714D01*
X135662142Y-58589285D01*
X135947857Y-58517857D01*
X136090714Y-58446428D01*
X136162142Y-58375000D01*
X136233571Y-58232142D01*
X136233571Y-58089285D01*
X136162142Y-57946428D01*
X136090714Y-57875000D01*
X135947857Y-57803571D01*
X135590714Y-57803571D01*
X135376428Y-57875000D01*
X134947857Y-57803571D02*
X134090714Y-57803571D01*
X134519285Y-59303571D02*
X134519285Y-57803571D01*
X146090714Y-60353571D02*
X145162142Y-60353571D01*
X145662142Y-60925000D01*
X145447857Y-60925000D01*
X145305000Y-60996428D01*
X145233571Y-61067857D01*
X145162142Y-61210714D01*
X145162142Y-61567857D01*
X145233571Y-61710714D01*
X145305000Y-61782142D01*
X145447857Y-61853571D01*
X145876428Y-61853571D01*
X146019285Y-61782142D01*
X146090714Y-61710714D01*
X143376428Y-61282142D02*
X142233571Y-61282142D01*
X140590714Y-60353571D02*
X139733571Y-60353571D01*
X140162142Y-61853571D02*
X140162142Y-60353571D01*
X139376428Y-60353571D02*
X138376428Y-61853571D01*
X138376428Y-60353571D02*
X139376428Y-61853571D01*
X137805000Y-61853571D02*
X137805000Y-60353571D01*
X137447857Y-60353571D01*
X137233571Y-60425000D01*
X137090714Y-60567857D01*
X137019285Y-60710714D01*
X136947857Y-60996428D01*
X136947857Y-61210714D01*
X137019285Y-61496428D01*
X137090714Y-61639285D01*
X137233571Y-61782142D01*
X137447857Y-61853571D01*
X137805000Y-61853571D01*
X136019285Y-60353571D02*
X135876428Y-60353571D01*
X135733571Y-60425000D01*
X135662142Y-60496428D01*
X135590714Y-60639285D01*
X135519285Y-60925000D01*
X135519285Y-61282142D01*
X135590714Y-61567857D01*
X135662142Y-61710714D01*
X135733571Y-61782142D01*
X135876428Y-61853571D01*
X136019285Y-61853571D01*
X136162142Y-61782142D01*
X136233571Y-61710714D01*
X136305000Y-61567857D01*
X136376428Y-61282142D01*
X136376428Y-60925000D01*
X136305000Y-60639285D01*
X136233571Y-60496428D01*
X136162142Y-60425000D01*
X136019285Y-60353571D01*
X145305000Y-63403571D02*
X145305000Y-64403571D01*
X145662142Y-62832142D02*
X146019285Y-63903571D01*
X145090714Y-63903571D01*
X143376428Y-63832142D02*
X142233571Y-63832142D01*
X139519285Y-64403571D02*
X140019285Y-63689285D01*
X140376428Y-64403571D02*
X140376428Y-62903571D01*
X139805000Y-62903571D01*
X139662142Y-62975000D01*
X139590714Y-63046428D01*
X139519285Y-63189285D01*
X139519285Y-63403571D01*
X139590714Y-63546428D01*
X139662142Y-63617857D01*
X139805000Y-63689285D01*
X140376428Y-63689285D01*
X139019285Y-62903571D02*
X138019285Y-64403571D01*
X138019285Y-62903571D02*
X139019285Y-64403571D01*
X137447857Y-64403571D02*
X137447857Y-62903571D01*
X137090714Y-62903571D01*
X136876428Y-62975000D01*
X136733571Y-63117857D01*
X136662142Y-63260714D01*
X136590714Y-63546428D01*
X136590714Y-63760714D01*
X136662142Y-64046428D01*
X136733571Y-64189285D01*
X136876428Y-64332142D01*
X137090714Y-64403571D01*
X137447857Y-64403571D01*
X135662142Y-62903571D02*
X135519285Y-62903571D01*
X135376428Y-62975000D01*
X135305000Y-63046428D01*
X135233571Y-63189285D01*
X135162142Y-63475000D01*
X135162142Y-63832142D01*
X135233571Y-64117857D01*
X135305000Y-64260714D01*
X135376428Y-64332142D01*
X135519285Y-64403571D01*
X135662142Y-64403571D01*
X135805000Y-64332142D01*
X135876428Y-64260714D01*
X135947857Y-64117857D01*
X136019285Y-63832142D01*
X136019285Y-63475000D01*
X135947857Y-63189285D01*
X135876428Y-63046428D01*
X135805000Y-62975000D01*
X135662142Y-62903571D01*
X145233571Y-65453571D02*
X145947857Y-65453571D01*
X146019285Y-66167857D01*
X145947857Y-66096428D01*
X145805000Y-66025000D01*
X145447857Y-66025000D01*
X145305000Y-66096428D01*
X145233571Y-66167857D01*
X145162142Y-66310714D01*
X145162142Y-66667857D01*
X145233571Y-66810714D01*
X145305000Y-66882142D01*
X145447857Y-66953571D01*
X145805000Y-66953571D01*
X145947857Y-66882142D01*
X146019285Y-66810714D01*
X143376428Y-66382142D02*
X142233571Y-66382142D01*
X139590714Y-65525000D02*
X139733571Y-65453571D01*
X139947857Y-65453571D01*
X140162142Y-65525000D01*
X140305000Y-65667857D01*
X140376428Y-65810714D01*
X140447857Y-66096428D01*
X140447857Y-66310714D01*
X140376428Y-66596428D01*
X140305000Y-66739285D01*
X140162142Y-66882142D01*
X139947857Y-66953571D01*
X139805000Y-66953571D01*
X139590714Y-66882142D01*
X139519285Y-66810714D01*
X139519285Y-66310714D01*
X139805000Y-66310714D01*
X138876428Y-66953571D02*
X138876428Y-65453571D01*
X138019285Y-66953571D01*
X138019285Y-65453571D01*
X137305000Y-66953571D02*
X137305000Y-65453571D01*
X136947857Y-65453571D01*
X136733571Y-65525000D01*
X136590714Y-65667857D01*
X136519285Y-65810714D01*
X136447857Y-66096428D01*
X136447857Y-66310714D01*
X136519285Y-66596428D01*
X136590714Y-66739285D01*
X136733571Y-66882142D01*
X136947857Y-66953571D01*
X137305000Y-66953571D01*
D12*
X161686095Y-57469142D02*
X161733714Y-57516761D01*
X161876571Y-57564380D01*
X161971809Y-57564380D01*
X162114666Y-57516761D01*
X162209904Y-57421523D01*
X162257523Y-57326285D01*
X162305142Y-57135809D01*
X162305142Y-56992952D01*
X162257523Y-56802476D01*
X162209904Y-56707238D01*
X162114666Y-56612000D01*
X161971809Y-56564380D01*
X161876571Y-56564380D01*
X161733714Y-56612000D01*
X161686095Y-56659619D01*
X161114666Y-57564380D02*
X161209904Y-57516761D01*
X161257523Y-57469142D01*
X161305142Y-57373904D01*
X161305142Y-57088190D01*
X161257523Y-56992952D01*
X161209904Y-56945333D01*
X161114666Y-56897714D01*
X160971809Y-56897714D01*
X160876571Y-56945333D01*
X160828952Y-56992952D01*
X160781333Y-57088190D01*
X160781333Y-57373904D01*
X160828952Y-57469142D01*
X160876571Y-57516761D01*
X160971809Y-57564380D01*
X161114666Y-57564380D01*
X160352761Y-56897714D02*
X160352761Y-57897714D01*
X160352761Y-56945333D02*
X160257523Y-56897714D01*
X160067047Y-56897714D01*
X159971809Y-56945333D01*
X159924190Y-56992952D01*
X159876571Y-57088190D01*
X159876571Y-57373904D01*
X159924190Y-57469142D01*
X159971809Y-57516761D01*
X160067047Y-57564380D01*
X160257523Y-57564380D01*
X160352761Y-57516761D01*
X159543238Y-56897714D02*
X159305142Y-57564380D01*
X159067047Y-56897714D02*
X159305142Y-57564380D01*
X159400380Y-57802476D01*
X159448000Y-57850095D01*
X159543238Y-57897714D01*
X158686095Y-57564380D02*
X158686095Y-56897714D01*
X158686095Y-57088190D02*
X158638476Y-56992952D01*
X158590857Y-56945333D01*
X158495619Y-56897714D01*
X158400380Y-56897714D01*
X158067047Y-57564380D02*
X158067047Y-56897714D01*
X158067047Y-56564380D02*
X158114666Y-56612000D01*
X158067047Y-56659619D01*
X158019428Y-56612000D01*
X158067047Y-56564380D01*
X158067047Y-56659619D01*
X157162285Y-56897714D02*
X157162285Y-57707238D01*
X157209904Y-57802476D01*
X157257523Y-57850095D01*
X157352761Y-57897714D01*
X157495619Y-57897714D01*
X157590857Y-57850095D01*
X157162285Y-57516761D02*
X157257523Y-57564380D01*
X157448000Y-57564380D01*
X157543238Y-57516761D01*
X157590857Y-57469142D01*
X157638476Y-57373904D01*
X157638476Y-57088190D01*
X157590857Y-56992952D01*
X157543238Y-56945333D01*
X157448000Y-56897714D01*
X157257523Y-56897714D01*
X157162285Y-56945333D01*
X156686095Y-57564380D02*
X156686095Y-56564380D01*
X156257523Y-57564380D02*
X156257523Y-57040571D01*
X156305142Y-56945333D01*
X156400380Y-56897714D01*
X156543238Y-56897714D01*
X156638476Y-56945333D01*
X156686095Y-56992952D01*
X155924190Y-56897714D02*
X155543238Y-56897714D01*
X155781333Y-56564380D02*
X155781333Y-57421523D01*
X155733714Y-57516761D01*
X155638476Y-57564380D01*
X155543238Y-57564380D01*
X153638476Y-56802476D02*
X153733714Y-56754857D01*
X153924190Y-56754857D01*
X154019428Y-56802476D01*
X154114666Y-56897714D01*
X154162285Y-56992952D01*
X154162285Y-57183428D01*
X154114666Y-57278666D01*
X154019428Y-57373904D01*
X153924190Y-57421523D01*
X153733714Y-57421523D01*
X153638476Y-57373904D01*
X153828952Y-56421523D02*
X154067047Y-56469142D01*
X154305142Y-56612000D01*
X154448000Y-56850095D01*
X154495619Y-57088190D01*
X154448000Y-57326285D01*
X154305142Y-57564380D01*
X154067047Y-57707238D01*
X153828952Y-57754857D01*
X153590857Y-57707238D01*
X153352761Y-57564380D01*
X153209904Y-57326285D01*
X153162285Y-57088190D01*
X153209904Y-56850095D01*
X153352761Y-56612000D01*
X153590857Y-56469142D01*
X153828952Y-56421523D01*
X152019428Y-56659619D02*
X151971809Y-56612000D01*
X151876571Y-56564380D01*
X151638476Y-56564380D01*
X151543238Y-56612000D01*
X151495619Y-56659619D01*
X151448000Y-56754857D01*
X151448000Y-56850095D01*
X151495619Y-56992952D01*
X152067047Y-57564380D01*
X151448000Y-57564380D01*
X150828952Y-56564380D02*
X150733714Y-56564380D01*
X150638476Y-56612000D01*
X150590857Y-56659619D01*
X150543238Y-56754857D01*
X150495619Y-56945333D01*
X150495619Y-57183428D01*
X150543238Y-57373904D01*
X150590857Y-57469142D01*
X150638476Y-57516761D01*
X150733714Y-57564380D01*
X150828952Y-57564380D01*
X150924190Y-57516761D01*
X150971809Y-57469142D01*
X151019428Y-57373904D01*
X151067047Y-57183428D01*
X151067047Y-56945333D01*
X151019428Y-56754857D01*
X150971809Y-56659619D01*
X150924190Y-56612000D01*
X150828952Y-56564380D01*
X149543238Y-57564380D02*
X150114666Y-57564380D01*
X149828952Y-57564380D02*
X149828952Y-56564380D01*
X149924190Y-56707238D01*
X150019428Y-56802476D01*
X150114666Y-56850095D01*
X148971809Y-56992952D02*
X149067047Y-56945333D01*
X149114666Y-56897714D01*
X149162285Y-56802476D01*
X149162285Y-56754857D01*
X149114666Y-56659619D01*
X149067047Y-56612000D01*
X148971809Y-56564380D01*
X148781333Y-56564380D01*
X148686095Y-56612000D01*
X148638476Y-56659619D01*
X148590857Y-56754857D01*
X148590857Y-56802476D01*
X148638476Y-56897714D01*
X148686095Y-56945333D01*
X148781333Y-56992952D01*
X148971809Y-56992952D01*
X149067047Y-57040571D01*
X149114666Y-57088190D01*
X149162285Y-57183428D01*
X149162285Y-57373904D01*
X149114666Y-57469142D01*
X149067047Y-57516761D01*
X148971809Y-57564380D01*
X148781333Y-57564380D01*
X148686095Y-57516761D01*
X148638476Y-57469142D01*
X148590857Y-57373904D01*
X148590857Y-57183428D01*
X148638476Y-57088190D01*
X148686095Y-57040571D01*
X148781333Y-56992952D01*
X160828952Y-58878666D02*
X160352761Y-58878666D01*
X160924190Y-59164380D02*
X160590857Y-58164380D01*
X160257523Y-59164380D01*
X159495619Y-59164380D02*
X159495619Y-58640571D01*
X159543238Y-58545333D01*
X159638476Y-58497714D01*
X159828952Y-58497714D01*
X159924190Y-58545333D01*
X159495619Y-59116761D02*
X159590857Y-59164380D01*
X159828952Y-59164380D01*
X159924190Y-59116761D01*
X159971809Y-59021523D01*
X159971809Y-58926285D01*
X159924190Y-58831047D01*
X159828952Y-58783428D01*
X159590857Y-58783428D01*
X159495619Y-58735809D01*
X159019428Y-59164380D02*
X159019428Y-58497714D01*
X159019428Y-58688190D02*
X158971809Y-58592952D01*
X158924190Y-58545333D01*
X158828952Y-58497714D01*
X158733714Y-58497714D01*
X158257523Y-59164380D02*
X158352761Y-59116761D01*
X158400380Y-59069142D01*
X158448000Y-58973904D01*
X158448000Y-58688190D01*
X158400380Y-58592952D01*
X158352761Y-58545333D01*
X158257523Y-58497714D01*
X158114666Y-58497714D01*
X158019428Y-58545333D01*
X157971809Y-58592952D01*
X157924190Y-58688190D01*
X157924190Y-58973904D01*
X157971809Y-59069142D01*
X158019428Y-59116761D01*
X158114666Y-59164380D01*
X158257523Y-59164380D01*
X157495619Y-58497714D02*
X157495619Y-59164380D01*
X157495619Y-58592952D02*
X157448000Y-58545333D01*
X157352761Y-58497714D01*
X157209904Y-58497714D01*
X157114666Y-58545333D01*
X157067047Y-58640571D01*
X157067047Y-59164380D01*
X155924190Y-58164380D02*
X155686095Y-59164380D01*
X155495619Y-58450095D01*
X155305142Y-59164380D01*
X155067047Y-58164380D01*
X154686095Y-59164380D02*
X154686095Y-58497714D01*
X154686095Y-58164380D02*
X154733714Y-58212000D01*
X154686095Y-58259619D01*
X154638476Y-58212000D01*
X154686095Y-58164380D01*
X154686095Y-58259619D01*
X154067047Y-59164380D02*
X154162285Y-59116761D01*
X154209904Y-59021523D01*
X154209904Y-58164380D01*
X153543238Y-59164380D02*
X153638476Y-59116761D01*
X153686095Y-59021523D01*
X153686095Y-58164380D01*
X153162285Y-59164380D02*
X153162285Y-58497714D01*
X153162285Y-58164380D02*
X153209904Y-58212000D01*
X153162285Y-58259619D01*
X153114666Y-58212000D01*
X153162285Y-58164380D01*
X153162285Y-58259619D01*
X152257523Y-59164380D02*
X152257523Y-58640571D01*
X152305142Y-58545333D01*
X152400380Y-58497714D01*
X152590857Y-58497714D01*
X152686095Y-58545333D01*
X152257523Y-59116761D02*
X152352761Y-59164380D01*
X152590857Y-59164380D01*
X152686095Y-59116761D01*
X152733714Y-59021523D01*
X152733714Y-58926285D01*
X152686095Y-58831047D01*
X152590857Y-58783428D01*
X152352761Y-58783428D01*
X152257523Y-58735809D01*
X151781333Y-59164380D02*
X151781333Y-58497714D01*
X151781333Y-58592952D02*
X151733714Y-58545333D01*
X151638476Y-58497714D01*
X151495619Y-58497714D01*
X151400380Y-58545333D01*
X151352761Y-58640571D01*
X151352761Y-59164380D01*
X151352761Y-58640571D02*
X151305142Y-58545333D01*
X151209904Y-58497714D01*
X151067047Y-58497714D01*
X150971809Y-58545333D01*
X150924190Y-58640571D01*
X150924190Y-59164380D01*
X150495619Y-59116761D02*
X150400380Y-59164380D01*
X150209904Y-59164380D01*
X150114666Y-59116761D01*
X150067047Y-59021523D01*
X150067047Y-58973904D01*
X150114666Y-58878666D01*
X150209904Y-58831047D01*
X150352761Y-58831047D01*
X150448000Y-58783428D01*
X150495619Y-58688190D01*
X150495619Y-58640571D01*
X150448000Y-58545333D01*
X150352761Y-58497714D01*
X150209904Y-58497714D01*
X150114666Y-58545333D01*
M02*
