G04 #@! TF.GenerationSoftware,KiCad,Pcbnew,5.0.1-5.0.1*
G04 #@! TF.CreationDate,2018-12-02T23:25:31-08:00*
G04 #@! TF.ProjectId,t962,743936322E6B696361645F7063620000,1.1*
G04 #@! TF.SameCoordinates,Original*
G04 #@! TF.FileFunction,Soldermask,Top*
G04 #@! TF.FilePolarity,Negative*
%FSLAX46Y46*%
G04 Gerber Fmt 4.6, Leading zero omitted, Abs format (unit mm)*
G04 Created by KiCad (PCBNEW 5.0.1-5.0.1) date Sun 02 Dec 2018 11:25:31 PM PST*
%MOMM*%
%LPD*%
G01*
G04 APERTURE LIST*
%ADD10C,0.100000*%
G04 APERTURE END LIST*
D10*
G36*
X164789941Y-69166248D02*
X164789943Y-69166249D01*
X164789944Y-69166249D01*
X165345190Y-69396239D01*
X165345191Y-69396240D01*
X165844902Y-69730136D01*
X166269864Y-70155098D01*
X166269866Y-70155101D01*
X166603761Y-70654810D01*
X166813017Y-71160000D01*
X166833752Y-71210059D01*
X166951000Y-71799501D01*
X166951000Y-72400499D01*
X166840994Y-72953534D01*
X166833751Y-72989944D01*
X166603761Y-73545190D01*
X166536090Y-73646467D01*
X166269864Y-74044902D01*
X165844902Y-74469864D01*
X165844899Y-74469866D01*
X165345190Y-74803761D01*
X164789944Y-75033751D01*
X164789943Y-75033751D01*
X164789941Y-75033752D01*
X164200499Y-75151000D01*
X163599501Y-75151000D01*
X163010059Y-75033752D01*
X163010057Y-75033751D01*
X163010056Y-75033751D01*
X162454810Y-74803761D01*
X161955101Y-74469866D01*
X161955098Y-74469864D01*
X161530136Y-74044902D01*
X161263910Y-73646467D01*
X161196239Y-73545190D01*
X160966249Y-72989944D01*
X160959007Y-72953534D01*
X160849000Y-72400499D01*
X160849000Y-71799501D01*
X160966248Y-71210059D01*
X160986983Y-71160000D01*
X161196239Y-70654810D01*
X161530134Y-70155101D01*
X161530136Y-70155098D01*
X161955098Y-69730136D01*
X162454809Y-69396240D01*
X162454810Y-69396239D01*
X163010056Y-69166249D01*
X163010057Y-69166249D01*
X163010059Y-69166248D01*
X163599501Y-69049000D01*
X164200499Y-69049000D01*
X164789941Y-69166248D01*
X164789941Y-69166248D01*
G37*
G36*
X138789941Y-69166248D02*
X138789943Y-69166249D01*
X138789944Y-69166249D01*
X139345190Y-69396239D01*
X139345191Y-69396240D01*
X139844902Y-69730136D01*
X140269864Y-70155098D01*
X140269866Y-70155101D01*
X140603761Y-70654810D01*
X140813017Y-71160000D01*
X140833752Y-71210059D01*
X140951000Y-71799501D01*
X140951000Y-72400499D01*
X140840994Y-72953534D01*
X140833751Y-72989944D01*
X140603761Y-73545190D01*
X140536090Y-73646467D01*
X140269864Y-74044902D01*
X139844902Y-74469864D01*
X139844899Y-74469866D01*
X139345190Y-74803761D01*
X138789944Y-75033751D01*
X138789943Y-75033751D01*
X138789941Y-75033752D01*
X138200499Y-75151000D01*
X137599501Y-75151000D01*
X137010059Y-75033752D01*
X137010057Y-75033751D01*
X137010056Y-75033751D01*
X136454810Y-74803761D01*
X135955101Y-74469866D01*
X135955098Y-74469864D01*
X135530136Y-74044902D01*
X135263910Y-73646467D01*
X135196239Y-73545190D01*
X134966249Y-72989944D01*
X134959007Y-72953534D01*
X134849000Y-72400499D01*
X134849000Y-71799501D01*
X134966248Y-71210059D01*
X134986983Y-71160000D01*
X135196239Y-70654810D01*
X135530134Y-70155101D01*
X135530136Y-70155098D01*
X135955098Y-69730136D01*
X136454809Y-69396240D01*
X136454810Y-69396239D01*
X137010056Y-69166249D01*
X137010057Y-69166249D01*
X137010059Y-69166248D01*
X137599501Y-69049000D01*
X138200499Y-69049000D01*
X138789941Y-69166248D01*
X138789941Y-69166248D01*
G37*
G36*
X131201000Y-74601000D02*
X129399000Y-74601000D01*
X129399000Y-72799000D01*
X131201000Y-72799000D01*
X131201000Y-74601000D01*
X131201000Y-74601000D01*
G37*
G36*
X148630442Y-72405518D02*
X148696627Y-72412037D01*
X148809853Y-72446384D01*
X148866467Y-72463557D01*
X149005087Y-72537652D01*
X149022991Y-72547222D01*
X149058729Y-72576552D01*
X149160186Y-72659814D01*
X149243448Y-72761271D01*
X149272778Y-72797009D01*
X149272779Y-72797011D01*
X149356443Y-72953533D01*
X149356443Y-72953534D01*
X149407963Y-73123373D01*
X149425359Y-73300000D01*
X149407963Y-73476627D01*
X149387164Y-73545191D01*
X149356443Y-73646467D01*
X149282348Y-73785087D01*
X149272778Y-73802991D01*
X149243448Y-73838729D01*
X149160186Y-73940186D01*
X149058729Y-74023448D01*
X149022991Y-74052778D01*
X149022989Y-74052779D01*
X148866467Y-74136443D01*
X148809853Y-74153616D01*
X148696627Y-74187963D01*
X148630443Y-74194481D01*
X148564260Y-74201000D01*
X148475740Y-74201000D01*
X148409557Y-74194481D01*
X148343373Y-74187963D01*
X148230147Y-74153616D01*
X148173533Y-74136443D01*
X148017011Y-74052779D01*
X148017009Y-74052778D01*
X147981271Y-74023448D01*
X147879814Y-73940186D01*
X147796552Y-73838729D01*
X147767222Y-73802991D01*
X147757652Y-73785087D01*
X147683557Y-73646467D01*
X147652836Y-73545191D01*
X147632037Y-73476627D01*
X147614641Y-73300000D01*
X147632037Y-73123373D01*
X147683557Y-72953534D01*
X147683557Y-72953533D01*
X147767221Y-72797011D01*
X147767222Y-72797009D01*
X147796552Y-72761271D01*
X147879814Y-72659814D01*
X147981271Y-72576552D01*
X148017009Y-72547222D01*
X148034913Y-72537652D01*
X148173533Y-72463557D01*
X148230147Y-72446384D01*
X148343373Y-72412037D01*
X148409558Y-72405518D01*
X148475740Y-72399000D01*
X148564260Y-72399000D01*
X148630442Y-72405518D01*
X148630442Y-72405518D01*
G37*
G36*
X154501000Y-74201000D02*
X152699000Y-74201000D01*
X152699000Y-72399000D01*
X154501000Y-72399000D01*
X154501000Y-74201000D01*
X154501000Y-74201000D01*
G37*
G36*
X151170442Y-72405518D02*
X151236627Y-72412037D01*
X151349853Y-72446384D01*
X151406467Y-72463557D01*
X151545087Y-72537652D01*
X151562991Y-72547222D01*
X151598729Y-72576552D01*
X151700186Y-72659814D01*
X151783448Y-72761271D01*
X151812778Y-72797009D01*
X151812779Y-72797011D01*
X151896443Y-72953533D01*
X151896443Y-72953534D01*
X151947963Y-73123373D01*
X151965359Y-73300000D01*
X151947963Y-73476627D01*
X151927164Y-73545191D01*
X151896443Y-73646467D01*
X151822348Y-73785087D01*
X151812778Y-73802991D01*
X151783448Y-73838729D01*
X151700186Y-73940186D01*
X151598729Y-74023448D01*
X151562991Y-74052778D01*
X151562989Y-74052779D01*
X151406467Y-74136443D01*
X151349853Y-74153616D01*
X151236627Y-74187963D01*
X151170443Y-74194481D01*
X151104260Y-74201000D01*
X151015740Y-74201000D01*
X150949557Y-74194481D01*
X150883373Y-74187963D01*
X150770147Y-74153616D01*
X150713533Y-74136443D01*
X150557011Y-74052779D01*
X150557009Y-74052778D01*
X150521271Y-74023448D01*
X150419814Y-73940186D01*
X150336552Y-73838729D01*
X150307222Y-73802991D01*
X150297652Y-73785087D01*
X150223557Y-73646467D01*
X150192836Y-73545191D01*
X150172037Y-73476627D01*
X150154641Y-73300000D01*
X150172037Y-73123373D01*
X150223557Y-72953534D01*
X150223557Y-72953533D01*
X150307221Y-72797011D01*
X150307222Y-72797009D01*
X150336552Y-72761271D01*
X150419814Y-72659814D01*
X150521271Y-72576552D01*
X150557009Y-72547222D01*
X150574913Y-72537652D01*
X150713533Y-72463557D01*
X150770147Y-72446384D01*
X150883373Y-72412037D01*
X150949558Y-72405518D01*
X151015740Y-72399000D01*
X151104260Y-72399000D01*
X151170442Y-72405518D01*
X151170442Y-72405518D01*
G37*
G36*
X146090442Y-72405518D02*
X146156627Y-72412037D01*
X146269853Y-72446384D01*
X146326467Y-72463557D01*
X146465087Y-72537652D01*
X146482991Y-72547222D01*
X146518729Y-72576552D01*
X146620186Y-72659814D01*
X146703448Y-72761271D01*
X146732778Y-72797009D01*
X146732779Y-72797011D01*
X146816443Y-72953533D01*
X146816443Y-72953534D01*
X146867963Y-73123373D01*
X146885359Y-73300000D01*
X146867963Y-73476627D01*
X146847164Y-73545191D01*
X146816443Y-73646467D01*
X146742348Y-73785087D01*
X146732778Y-73802991D01*
X146703448Y-73838729D01*
X146620186Y-73940186D01*
X146518729Y-74023448D01*
X146482991Y-74052778D01*
X146482989Y-74052779D01*
X146326467Y-74136443D01*
X146269853Y-74153616D01*
X146156627Y-74187963D01*
X146090443Y-74194481D01*
X146024260Y-74201000D01*
X145935740Y-74201000D01*
X145869557Y-74194481D01*
X145803373Y-74187963D01*
X145690147Y-74153616D01*
X145633533Y-74136443D01*
X145477011Y-74052779D01*
X145477009Y-74052778D01*
X145441271Y-74023448D01*
X145339814Y-73940186D01*
X145256552Y-73838729D01*
X145227222Y-73802991D01*
X145217652Y-73785087D01*
X145143557Y-73646467D01*
X145112836Y-73545191D01*
X145092037Y-73476627D01*
X145074641Y-73300000D01*
X145092037Y-73123373D01*
X145143557Y-72953534D01*
X145143557Y-72953533D01*
X145227221Y-72797011D01*
X145227222Y-72797009D01*
X145256552Y-72761271D01*
X145339814Y-72659814D01*
X145441271Y-72576552D01*
X145477009Y-72547222D01*
X145494913Y-72537652D01*
X145633533Y-72463557D01*
X145690147Y-72446384D01*
X145803373Y-72412037D01*
X145869558Y-72405518D01*
X145935740Y-72399000D01*
X146024260Y-72399000D01*
X146090442Y-72405518D01*
X146090442Y-72405518D01*
G37*
G36*
X143550442Y-72405518D02*
X143616627Y-72412037D01*
X143729853Y-72446384D01*
X143786467Y-72463557D01*
X143925087Y-72537652D01*
X143942991Y-72547222D01*
X143978729Y-72576552D01*
X144080186Y-72659814D01*
X144163448Y-72761271D01*
X144192778Y-72797009D01*
X144192779Y-72797011D01*
X144276443Y-72953533D01*
X144276443Y-72953534D01*
X144327963Y-73123373D01*
X144345359Y-73300000D01*
X144327963Y-73476627D01*
X144307164Y-73545191D01*
X144276443Y-73646467D01*
X144202348Y-73785087D01*
X144192778Y-73802991D01*
X144163448Y-73838729D01*
X144080186Y-73940186D01*
X143978729Y-74023448D01*
X143942991Y-74052778D01*
X143942989Y-74052779D01*
X143786467Y-74136443D01*
X143729853Y-74153616D01*
X143616627Y-74187963D01*
X143550443Y-74194481D01*
X143484260Y-74201000D01*
X143395740Y-74201000D01*
X143329557Y-74194481D01*
X143263373Y-74187963D01*
X143150147Y-74153616D01*
X143093533Y-74136443D01*
X142937011Y-74052779D01*
X142937009Y-74052778D01*
X142901271Y-74023448D01*
X142799814Y-73940186D01*
X142716552Y-73838729D01*
X142687222Y-73802991D01*
X142677652Y-73785087D01*
X142603557Y-73646467D01*
X142572836Y-73545191D01*
X142552037Y-73476627D01*
X142534641Y-73300000D01*
X142552037Y-73123373D01*
X142603557Y-72953534D01*
X142603557Y-72953533D01*
X142687221Y-72797011D01*
X142687222Y-72797009D01*
X142716552Y-72761271D01*
X142799814Y-72659814D01*
X142901271Y-72576552D01*
X142937009Y-72547222D01*
X142954913Y-72537652D01*
X143093533Y-72463557D01*
X143150147Y-72446384D01*
X143263373Y-72412037D01*
X143329558Y-72405518D01*
X143395740Y-72399000D01*
X143484260Y-72399000D01*
X143550442Y-72405518D01*
X143550442Y-72405518D01*
G37*
G36*
X130410443Y-70265519D02*
X130476627Y-70272037D01*
X130589853Y-70306384D01*
X130646467Y-70323557D01*
X130785087Y-70397652D01*
X130802991Y-70407222D01*
X130838729Y-70436552D01*
X130940186Y-70519814D01*
X131023448Y-70621271D01*
X131052778Y-70657009D01*
X131052779Y-70657011D01*
X131136443Y-70813533D01*
X131136443Y-70813534D01*
X131187963Y-70983373D01*
X131205359Y-71160000D01*
X131187963Y-71336627D01*
X131153616Y-71449853D01*
X131136443Y-71506467D01*
X131062348Y-71645087D01*
X131052778Y-71662991D01*
X131023448Y-71698729D01*
X130940186Y-71800186D01*
X130838729Y-71883448D01*
X130802991Y-71912778D01*
X130802989Y-71912779D01*
X130646467Y-71996443D01*
X130589853Y-72013616D01*
X130476627Y-72047963D01*
X130410443Y-72054481D01*
X130344260Y-72061000D01*
X130255740Y-72061000D01*
X130189557Y-72054481D01*
X130123373Y-72047963D01*
X130010147Y-72013616D01*
X129953533Y-71996443D01*
X129797011Y-71912779D01*
X129797009Y-71912778D01*
X129761271Y-71883448D01*
X129659814Y-71800186D01*
X129576552Y-71698729D01*
X129547222Y-71662991D01*
X129537652Y-71645087D01*
X129463557Y-71506467D01*
X129446384Y-71449853D01*
X129412037Y-71336627D01*
X129394641Y-71160000D01*
X129412037Y-70983373D01*
X129463557Y-70813534D01*
X129463557Y-70813533D01*
X129547221Y-70657011D01*
X129547222Y-70657009D01*
X129576552Y-70621271D01*
X129659814Y-70519814D01*
X129761271Y-70436552D01*
X129797009Y-70407222D01*
X129814913Y-70397652D01*
X129953533Y-70323557D01*
X130010147Y-70306384D01*
X130123373Y-70272037D01*
X130189557Y-70265519D01*
X130255740Y-70259000D01*
X130344260Y-70259000D01*
X130410443Y-70265519D01*
X130410443Y-70265519D01*
G37*
G36*
X157601000Y-71451000D02*
X156599000Y-71451000D01*
X156599000Y-70349000D01*
X157601000Y-70349000D01*
X157601000Y-71451000D01*
X157601000Y-71451000D01*
G37*
G36*
X159201000Y-71451000D02*
X158199000Y-71451000D01*
X158199000Y-70349000D01*
X159201000Y-70349000D01*
X159201000Y-71451000D01*
X159201000Y-71451000D01*
G37*
G36*
X157601000Y-67351000D02*
X156599000Y-67351000D01*
X156599000Y-66249000D01*
X157601000Y-66249000D01*
X157601000Y-67351000D01*
X157601000Y-67351000D01*
G37*
G36*
X159201000Y-67351000D02*
X158199000Y-67351000D01*
X158199000Y-66249000D01*
X159201000Y-66249000D01*
X159201000Y-67351000D01*
X159201000Y-67351000D01*
G37*
G36*
X137154591Y-65978085D02*
X137188569Y-65988393D01*
X137219887Y-66005133D01*
X137247339Y-66027661D01*
X137269867Y-66055113D01*
X137286607Y-66086431D01*
X137296915Y-66120409D01*
X137301000Y-66161890D01*
X137301000Y-66838110D01*
X137296915Y-66879591D01*
X137286607Y-66913569D01*
X137269867Y-66944887D01*
X137247339Y-66972339D01*
X137219887Y-66994867D01*
X137188569Y-67011607D01*
X137154591Y-67021915D01*
X137113110Y-67026000D01*
X136511890Y-67026000D01*
X136470409Y-67021915D01*
X136436431Y-67011607D01*
X136405113Y-66994867D01*
X136377661Y-66972339D01*
X136355133Y-66944887D01*
X136338393Y-66913569D01*
X136328085Y-66879591D01*
X136324000Y-66838110D01*
X136324000Y-66161890D01*
X136328085Y-66120409D01*
X136338393Y-66086431D01*
X136355133Y-66055113D01*
X136377661Y-66027661D01*
X136405113Y-66005133D01*
X136436431Y-65988393D01*
X136470409Y-65978085D01*
X136511890Y-65974000D01*
X137113110Y-65974000D01*
X137154591Y-65978085D01*
X137154591Y-65978085D01*
G37*
G36*
X138729591Y-65978085D02*
X138763569Y-65988393D01*
X138794887Y-66005133D01*
X138822339Y-66027661D01*
X138844867Y-66055113D01*
X138861607Y-66086431D01*
X138871915Y-66120409D01*
X138876000Y-66161890D01*
X138876000Y-66838110D01*
X138871915Y-66879591D01*
X138861607Y-66913569D01*
X138844867Y-66944887D01*
X138822339Y-66972339D01*
X138794887Y-66994867D01*
X138763569Y-67011607D01*
X138729591Y-67021915D01*
X138688110Y-67026000D01*
X138086890Y-67026000D01*
X138045409Y-67021915D01*
X138011431Y-67011607D01*
X137980113Y-66994867D01*
X137952661Y-66972339D01*
X137930133Y-66944887D01*
X137913393Y-66913569D01*
X137903085Y-66879591D01*
X137899000Y-66838110D01*
X137899000Y-66161890D01*
X137903085Y-66120409D01*
X137913393Y-66086431D01*
X137930133Y-66055113D01*
X137952661Y-66027661D01*
X137980113Y-66005133D01*
X138011431Y-65988393D01*
X138045409Y-65978085D01*
X138086890Y-65974000D01*
X138688110Y-65974000D01*
X138729591Y-65978085D01*
X138729591Y-65978085D01*
G37*
G36*
X144321000Y-66801000D02*
X139679000Y-66801000D01*
X139679000Y-64399000D01*
X144321000Y-64399000D01*
X144321000Y-66801000D01*
X144321000Y-66801000D01*
G37*
G36*
X131901000Y-65741000D02*
X129699000Y-65741000D01*
X129699000Y-63539000D01*
X131901000Y-63539000D01*
X131901000Y-65741000D01*
X131901000Y-65741000D01*
G37*
G36*
X138679591Y-64503085D02*
X138713569Y-64513393D01*
X138744887Y-64530133D01*
X138772339Y-64552661D01*
X138794867Y-64580113D01*
X138811607Y-64611431D01*
X138821915Y-64645409D01*
X138826000Y-64686890D01*
X138826000Y-65288110D01*
X138821915Y-65329591D01*
X138811607Y-65363569D01*
X138794867Y-65394887D01*
X138772339Y-65422339D01*
X138744887Y-65444867D01*
X138713569Y-65461607D01*
X138679591Y-65471915D01*
X138638110Y-65476000D01*
X137961890Y-65476000D01*
X137920409Y-65471915D01*
X137886431Y-65461607D01*
X137855113Y-65444867D01*
X137827661Y-65422339D01*
X137805133Y-65394887D01*
X137788393Y-65363569D01*
X137778085Y-65329591D01*
X137774000Y-65288110D01*
X137774000Y-64686890D01*
X137778085Y-64645409D01*
X137788393Y-64611431D01*
X137805133Y-64580113D01*
X137827661Y-64552661D01*
X137855113Y-64530133D01*
X137886431Y-64513393D01*
X137920409Y-64503085D01*
X137961890Y-64499000D01*
X138638110Y-64499000D01*
X138679591Y-64503085D01*
X138679591Y-64503085D01*
G37*
G36*
X157601000Y-64901000D02*
X156599000Y-64901000D01*
X156599000Y-63799000D01*
X157601000Y-63799000D01*
X157601000Y-64901000D01*
X157601000Y-64901000D01*
G37*
G36*
X159201000Y-64901000D02*
X158199000Y-64901000D01*
X158199000Y-63799000D01*
X159201000Y-63799000D01*
X159201000Y-64901000D01*
X159201000Y-64901000D01*
G37*
G36*
X138679591Y-62928085D02*
X138713569Y-62938393D01*
X138744887Y-62955133D01*
X138772339Y-62977661D01*
X138794867Y-63005113D01*
X138811607Y-63036431D01*
X138821915Y-63070409D01*
X138826000Y-63111890D01*
X138826000Y-63713110D01*
X138821915Y-63754591D01*
X138811607Y-63788569D01*
X138794867Y-63819887D01*
X138772339Y-63847339D01*
X138744887Y-63869867D01*
X138713569Y-63886607D01*
X138679591Y-63896915D01*
X138638110Y-63901000D01*
X137961890Y-63901000D01*
X137920409Y-63896915D01*
X137886431Y-63886607D01*
X137855113Y-63869867D01*
X137827661Y-63847339D01*
X137805133Y-63819887D01*
X137788393Y-63788569D01*
X137778085Y-63754591D01*
X137774000Y-63713110D01*
X137774000Y-63111890D01*
X137778085Y-63070409D01*
X137788393Y-63036431D01*
X137805133Y-63005113D01*
X137827661Y-62977661D01*
X137855113Y-62955133D01*
X137886431Y-62938393D01*
X137920409Y-62928085D01*
X137961890Y-62924000D01*
X138638110Y-62924000D01*
X138679591Y-62928085D01*
X138679591Y-62928085D01*
G37*
G36*
X149976627Y-61262037D02*
X150089853Y-61296384D01*
X150146467Y-61313557D01*
X150285087Y-61387652D01*
X150302991Y-61397222D01*
X150338729Y-61426552D01*
X150440186Y-61509814D01*
X150496541Y-61578484D01*
X150552778Y-61647009D01*
X150636443Y-61803534D01*
X150687963Y-61973374D01*
X150701000Y-62105743D01*
X150701000Y-62494258D01*
X150687963Y-62626627D01*
X150653616Y-62739853D01*
X150636443Y-62796467D01*
X150568274Y-62924000D01*
X150552778Y-62952991D01*
X150532532Y-62977661D01*
X150440186Y-63090186D01*
X150302989Y-63202779D01*
X150146466Y-63286443D01*
X150105733Y-63298799D01*
X149976626Y-63337963D01*
X149800000Y-63355359D01*
X149623373Y-63337963D01*
X149494266Y-63298799D01*
X149453533Y-63286443D01*
X149297011Y-63202779D01*
X149297009Y-63202778D01*
X149254749Y-63168096D01*
X149159814Y-63090186D01*
X149047221Y-62952989D01*
X148963557Y-62796466D01*
X148946384Y-62739852D01*
X148912037Y-62626626D01*
X148899000Y-62494257D01*
X148899000Y-62105742D01*
X148912037Y-61973373D01*
X148963557Y-61803534D01*
X148963557Y-61803533D01*
X149047222Y-61647008D01*
X149159812Y-61509817D01*
X149254750Y-61431904D01*
X149297010Y-61397222D01*
X149314914Y-61387652D01*
X149453534Y-61313557D01*
X149510148Y-61296384D01*
X149623374Y-61262037D01*
X149800000Y-61244641D01*
X149976627Y-61262037D01*
X149976627Y-61262037D01*
G37*
G36*
X153058600Y-61252989D02*
X153091649Y-61263014D01*
X153122106Y-61279294D01*
X153148799Y-61301201D01*
X153170706Y-61327894D01*
X153186986Y-61358351D01*
X153197011Y-61391400D01*
X153201000Y-61431904D01*
X153201000Y-63168096D01*
X153197011Y-63208600D01*
X153186986Y-63241649D01*
X153170706Y-63272106D01*
X153148799Y-63298799D01*
X153122106Y-63320706D01*
X153091649Y-63336986D01*
X153058600Y-63347011D01*
X153018096Y-63351000D01*
X151581904Y-63351000D01*
X151541400Y-63347011D01*
X151508351Y-63336986D01*
X151477894Y-63320706D01*
X151451201Y-63298799D01*
X151429294Y-63272106D01*
X151413014Y-63241649D01*
X151402989Y-63208600D01*
X151399000Y-63168096D01*
X151399000Y-61431904D01*
X151402989Y-61391400D01*
X151413014Y-61358351D01*
X151429294Y-61327894D01*
X151451201Y-61301201D01*
X151477894Y-61279294D01*
X151508351Y-61263014D01*
X151541400Y-61252989D01*
X151581904Y-61249000D01*
X153018096Y-61249000D01*
X153058600Y-61252989D01*
X153058600Y-61252989D01*
G37*
G36*
X131014795Y-61020156D02*
X131121150Y-61041311D01*
X131191990Y-61070654D01*
X131321516Y-61124305D01*
X131321519Y-61124307D01*
X131473713Y-61226000D01*
X131501850Y-61244801D01*
X131655199Y-61398150D01*
X131775695Y-61578484D01*
X131858689Y-61778851D01*
X131901000Y-61991560D01*
X131901000Y-62208440D01*
X131858689Y-62421149D01*
X131775695Y-62621516D01*
X131775693Y-62621519D01*
X131658797Y-62796466D01*
X131655199Y-62801850D01*
X131501850Y-62955199D01*
X131501847Y-62955201D01*
X131501846Y-62955202D01*
X131329427Y-63070409D01*
X131321516Y-63075695D01*
X131213107Y-63120599D01*
X131121150Y-63158689D01*
X131014794Y-63179845D01*
X130908440Y-63201000D01*
X130691560Y-63201000D01*
X130585206Y-63179845D01*
X130478850Y-63158689D01*
X130386893Y-63120599D01*
X130278484Y-63075695D01*
X130270573Y-63070409D01*
X130098154Y-62955202D01*
X130098153Y-62955201D01*
X130098150Y-62955199D01*
X129944801Y-62801850D01*
X129941204Y-62796466D01*
X129824307Y-62621519D01*
X129824305Y-62621516D01*
X129741311Y-62421149D01*
X129699000Y-62208440D01*
X129699000Y-61991560D01*
X129741311Y-61778851D01*
X129824305Y-61578484D01*
X129944801Y-61398150D01*
X130098150Y-61244801D01*
X130126288Y-61226000D01*
X130278481Y-61124307D01*
X130278484Y-61124305D01*
X130408010Y-61070654D01*
X130478850Y-61041311D01*
X130585205Y-61020156D01*
X130691560Y-60999000D01*
X130908440Y-60999000D01*
X131014795Y-61020156D01*
X131014795Y-61020156D01*
G37*
G36*
X137054591Y-60178085D02*
X137088569Y-60188393D01*
X137119887Y-60205133D01*
X137147339Y-60227661D01*
X137169867Y-60255113D01*
X137186607Y-60286431D01*
X137196915Y-60320409D01*
X137201000Y-60361890D01*
X137201000Y-61038110D01*
X137196915Y-61079591D01*
X137186607Y-61113569D01*
X137169867Y-61144887D01*
X137147339Y-61172339D01*
X137119887Y-61194867D01*
X137088569Y-61211607D01*
X137054591Y-61221915D01*
X137013110Y-61226000D01*
X136411890Y-61226000D01*
X136370409Y-61221915D01*
X136336431Y-61211607D01*
X136305113Y-61194867D01*
X136277661Y-61172339D01*
X136255133Y-61144887D01*
X136238393Y-61113569D01*
X136228085Y-61079591D01*
X136224000Y-61038110D01*
X136224000Y-60361890D01*
X136228085Y-60320409D01*
X136238393Y-60286431D01*
X136255133Y-60255113D01*
X136277661Y-60227661D01*
X136305113Y-60205133D01*
X136336431Y-60188393D01*
X136370409Y-60178085D01*
X136411890Y-60174000D01*
X137013110Y-60174000D01*
X137054591Y-60178085D01*
X137054591Y-60178085D01*
G37*
G36*
X138629591Y-60178085D02*
X138663569Y-60188393D01*
X138694887Y-60205133D01*
X138722339Y-60227661D01*
X138744867Y-60255113D01*
X138761607Y-60286431D01*
X138771915Y-60320409D01*
X138776000Y-60361890D01*
X138776000Y-61038110D01*
X138771915Y-61079591D01*
X138761607Y-61113569D01*
X138744867Y-61144887D01*
X138722339Y-61172339D01*
X138694887Y-61194867D01*
X138663569Y-61211607D01*
X138629591Y-61221915D01*
X138588110Y-61226000D01*
X137986890Y-61226000D01*
X137945409Y-61221915D01*
X137911431Y-61211607D01*
X137880113Y-61194867D01*
X137852661Y-61172339D01*
X137830133Y-61144887D01*
X137813393Y-61113569D01*
X137803085Y-61079591D01*
X137799000Y-61038110D01*
X137799000Y-60361890D01*
X137803085Y-60320409D01*
X137813393Y-60286431D01*
X137830133Y-60255113D01*
X137852661Y-60227661D01*
X137880113Y-60205133D01*
X137911431Y-60188393D01*
X137945409Y-60178085D01*
X137986890Y-60174000D01*
X138588110Y-60174000D01*
X138629591Y-60178085D01*
X138629591Y-60178085D01*
G37*
G36*
X154089890Y-59674017D02*
X154208361Y-59723089D01*
X154314992Y-59794338D01*
X154405662Y-59885008D01*
X154476911Y-59991639D01*
X154525983Y-60110110D01*
X154551000Y-60235881D01*
X154551000Y-60364119D01*
X154525983Y-60489890D01*
X154476911Y-60608361D01*
X154405662Y-60714992D01*
X154314992Y-60805662D01*
X154208361Y-60876911D01*
X154089890Y-60925983D01*
X153964119Y-60951000D01*
X153835881Y-60951000D01*
X153710110Y-60925983D01*
X153591639Y-60876911D01*
X153485008Y-60805662D01*
X153394338Y-60714992D01*
X153323089Y-60608361D01*
X153274017Y-60489890D01*
X153249000Y-60364119D01*
X153249000Y-60235881D01*
X153274017Y-60110110D01*
X153323089Y-59991639D01*
X153394338Y-59885008D01*
X153485008Y-59794338D01*
X153591639Y-59723089D01*
X153710110Y-59674017D01*
X153835881Y-59649000D01*
X153964119Y-59649000D01*
X154089890Y-59674017D01*
X154089890Y-59674017D01*
G37*
G36*
X144221000Y-60901000D02*
X139579000Y-60901000D01*
X139579000Y-58499000D01*
X144221000Y-58499000D01*
X144221000Y-60901000D01*
X144221000Y-60901000D01*
G37*
G36*
X157601000Y-60801000D02*
X156599000Y-60801000D01*
X156599000Y-59699000D01*
X157601000Y-59699000D01*
X157601000Y-60801000D01*
X157601000Y-60801000D01*
G37*
G36*
X159201000Y-60801000D02*
X158199000Y-60801000D01*
X158199000Y-59699000D01*
X159201000Y-59699000D01*
X159201000Y-60801000D01*
X159201000Y-60801000D01*
G37*
G36*
X131014795Y-58480156D02*
X131121150Y-58501311D01*
X131191990Y-58530654D01*
X131321516Y-58584305D01*
X131321519Y-58584307D01*
X131493169Y-58699000D01*
X131501850Y-58704801D01*
X131655199Y-58858150D01*
X131655201Y-58858153D01*
X131655202Y-58858154D01*
X131775693Y-59038481D01*
X131775695Y-59038484D01*
X131858689Y-59238851D01*
X131901000Y-59451560D01*
X131901000Y-59668440D01*
X131858689Y-59881149D01*
X131775695Y-60081516D01*
X131775693Y-60081519D01*
X131672551Y-60235882D01*
X131655199Y-60261850D01*
X131501850Y-60415199D01*
X131321516Y-60535695D01*
X131191990Y-60589346D01*
X131121150Y-60618689D01*
X131014794Y-60639845D01*
X130908440Y-60661000D01*
X130691560Y-60661000D01*
X130585206Y-60639845D01*
X130478850Y-60618689D01*
X130408010Y-60589346D01*
X130278484Y-60535695D01*
X130098150Y-60415199D01*
X129944801Y-60261850D01*
X129927450Y-60235882D01*
X129824307Y-60081519D01*
X129824305Y-60081516D01*
X129741311Y-59881149D01*
X129699000Y-59668440D01*
X129699000Y-59451560D01*
X129741311Y-59238851D01*
X129824305Y-59038484D01*
X129824307Y-59038481D01*
X129944798Y-58858154D01*
X129944799Y-58858153D01*
X129944801Y-58858150D01*
X130098150Y-58704801D01*
X130106832Y-58699000D01*
X130278481Y-58584307D01*
X130278484Y-58584305D01*
X130408010Y-58530654D01*
X130478850Y-58501311D01*
X130585205Y-58480156D01*
X130691560Y-58459000D01*
X130908440Y-58459000D01*
X131014795Y-58480156D01*
X131014795Y-58480156D01*
G37*
G36*
X138579591Y-58703085D02*
X138613569Y-58713393D01*
X138644887Y-58730133D01*
X138672339Y-58752661D01*
X138694867Y-58780113D01*
X138711607Y-58811431D01*
X138721915Y-58845409D01*
X138726000Y-58886890D01*
X138726000Y-59488110D01*
X138721915Y-59529591D01*
X138711607Y-59563569D01*
X138694867Y-59594887D01*
X138672339Y-59622339D01*
X138644887Y-59644867D01*
X138613569Y-59661607D01*
X138579591Y-59671915D01*
X138538110Y-59676000D01*
X137861890Y-59676000D01*
X137820409Y-59671915D01*
X137786431Y-59661607D01*
X137755113Y-59644867D01*
X137727661Y-59622339D01*
X137705133Y-59594887D01*
X137688393Y-59563569D01*
X137678085Y-59529591D01*
X137674000Y-59488110D01*
X137674000Y-58886890D01*
X137678085Y-58845409D01*
X137688393Y-58811431D01*
X137705133Y-58780113D01*
X137727661Y-58752661D01*
X137755113Y-58730133D01*
X137786431Y-58713393D01*
X137820409Y-58703085D01*
X137861890Y-58699000D01*
X138538110Y-58699000D01*
X138579591Y-58703085D01*
X138579591Y-58703085D01*
G37*
G36*
X167438500Y-57461886D02*
X167439102Y-57474138D01*
X167441649Y-57500000D01*
X167439102Y-57525862D01*
X167438500Y-57538114D01*
X167438500Y-57611407D01*
X167429543Y-57628165D01*
X167425410Y-57639715D01*
X167391855Y-57750333D01*
X167338319Y-57850491D01*
X167331405Y-57863426D01*
X167250053Y-57962553D01*
X167150926Y-58043905D01*
X167150924Y-58043906D01*
X167037833Y-58104355D01*
X166996927Y-58116763D01*
X166915118Y-58141580D01*
X166851355Y-58147860D01*
X166819474Y-58151000D01*
X166055526Y-58151000D01*
X166023645Y-58147860D01*
X165959882Y-58141580D01*
X165878073Y-58116763D01*
X165837167Y-58104355D01*
X165724076Y-58043906D01*
X165724074Y-58043905D01*
X165624947Y-57962553D01*
X165543595Y-57863426D01*
X165536681Y-57850491D01*
X165483145Y-57750333D01*
X165449590Y-57639715D01*
X165440212Y-57617076D01*
X165436500Y-57611520D01*
X165436500Y-57538114D01*
X165435898Y-57525862D01*
X165433351Y-57500000D01*
X165435898Y-57474138D01*
X165436500Y-57461886D01*
X165436500Y-56249000D01*
X167438500Y-56249000D01*
X167438500Y-57461886D01*
X167438500Y-57461886D01*
G37*
G36*
X131014794Y-55940155D02*
X131121150Y-55961311D01*
X131191990Y-55990654D01*
X131321516Y-56044305D01*
X131321519Y-56044307D01*
X131459410Y-56136443D01*
X131501850Y-56164801D01*
X131655199Y-56318150D01*
X131655201Y-56318153D01*
X131655202Y-56318154D01*
X131775693Y-56498481D01*
X131775695Y-56498484D01*
X131858689Y-56698851D01*
X131901000Y-56911560D01*
X131901000Y-57128440D01*
X131899382Y-57136574D01*
X131858689Y-57341150D01*
X131845752Y-57372382D01*
X131775695Y-57541516D01*
X131655199Y-57721850D01*
X131501850Y-57875199D01*
X131501847Y-57875201D01*
X131501846Y-57875202D01*
X131389574Y-57950220D01*
X131321516Y-57995695D01*
X131205126Y-58043905D01*
X131121150Y-58078689D01*
X131029522Y-58096915D01*
X130908440Y-58121000D01*
X130691560Y-58121000D01*
X130570478Y-58096915D01*
X130478850Y-58078689D01*
X130394874Y-58043905D01*
X130278484Y-57995695D01*
X130210426Y-57950220D01*
X130098154Y-57875202D01*
X130098153Y-57875201D01*
X130098150Y-57875199D01*
X129944801Y-57721850D01*
X129824305Y-57541516D01*
X129754248Y-57372382D01*
X129741311Y-57341150D01*
X129700618Y-57136574D01*
X129699000Y-57128440D01*
X129699000Y-56911560D01*
X129741311Y-56698851D01*
X129824305Y-56498484D01*
X129824307Y-56498481D01*
X129944798Y-56318154D01*
X129944799Y-56318153D01*
X129944801Y-56318150D01*
X130098150Y-56164801D01*
X130140591Y-56136443D01*
X130278481Y-56044307D01*
X130278484Y-56044305D01*
X130408010Y-55990654D01*
X130478850Y-55961311D01*
X130585206Y-55940155D01*
X130691560Y-55919000D01*
X130908440Y-55919000D01*
X131014794Y-55940155D01*
X131014794Y-55940155D01*
G37*
G36*
X138579591Y-57128085D02*
X138613569Y-57138393D01*
X138644887Y-57155133D01*
X138672339Y-57177661D01*
X138694867Y-57205113D01*
X138711607Y-57236431D01*
X138721915Y-57270409D01*
X138726000Y-57311890D01*
X138726000Y-57913110D01*
X138721915Y-57954591D01*
X138711607Y-57988569D01*
X138694867Y-58019887D01*
X138672339Y-58047339D01*
X138644887Y-58069867D01*
X138613569Y-58086607D01*
X138579591Y-58096915D01*
X138538110Y-58101000D01*
X137861890Y-58101000D01*
X137820409Y-58096915D01*
X137786431Y-58086607D01*
X137755113Y-58069867D01*
X137727661Y-58047339D01*
X137705133Y-58019887D01*
X137688393Y-57988569D01*
X137678085Y-57954591D01*
X137674000Y-57913110D01*
X137674000Y-57311890D01*
X137678085Y-57270409D01*
X137688393Y-57236431D01*
X137705133Y-57205113D01*
X137727661Y-57177661D01*
X137755113Y-57155133D01*
X137786431Y-57138393D01*
X137820409Y-57128085D01*
X137861890Y-57124000D01*
X138538110Y-57124000D01*
X138579591Y-57128085D01*
X138579591Y-57128085D01*
G37*
G36*
X163963849Y-50753820D02*
X163963852Y-50753821D01*
X163963851Y-50753821D01*
X164105074Y-50812317D01*
X164208330Y-50881311D01*
X164232174Y-50897243D01*
X164340257Y-51005326D01*
X164340259Y-51005329D01*
X164425183Y-51132426D01*
X164440916Y-51170409D01*
X164483680Y-51273651D01*
X164513500Y-51423569D01*
X164513500Y-51576431D01*
X164483680Y-51726349D01*
X164483679Y-51726351D01*
X164425183Y-51867574D01*
X164390228Y-51919887D01*
X164340257Y-51994674D01*
X164232174Y-52102757D01*
X164232171Y-52102759D01*
X164105074Y-52187683D01*
X164054778Y-52208516D01*
X164033169Y-52220067D01*
X164014227Y-52235612D01*
X163998682Y-52254554D01*
X163987131Y-52276165D01*
X163980018Y-52299614D01*
X163977616Y-52324000D01*
X163980018Y-52348387D01*
X163987131Y-52371836D01*
X163998683Y-52393447D01*
X164014228Y-52412389D01*
X164033170Y-52427934D01*
X164054781Y-52439485D01*
X164078230Y-52446598D01*
X164102616Y-52449000D01*
X164463500Y-52449000D01*
X164463500Y-55551000D01*
X164102616Y-55551000D01*
X164078230Y-55553402D01*
X164054781Y-55560515D01*
X164033170Y-55572066D01*
X164014228Y-55587612D01*
X163998682Y-55606554D01*
X163987131Y-55628165D01*
X163980018Y-55651614D01*
X163977616Y-55676000D01*
X163980018Y-55700386D01*
X163987131Y-55723835D01*
X163998682Y-55745446D01*
X164014228Y-55764388D01*
X164033170Y-55779934D01*
X164054778Y-55791484D01*
X164105074Y-55812317D01*
X164105075Y-55812318D01*
X164232174Y-55897243D01*
X164340257Y-56005326D01*
X164340259Y-56005329D01*
X164425183Y-56132426D01*
X164438593Y-56164801D01*
X164483680Y-56273651D01*
X164513500Y-56423569D01*
X164513500Y-56576431D01*
X164483680Y-56726349D01*
X164483679Y-56726351D01*
X164425183Y-56867574D01*
X164366035Y-56956095D01*
X164340257Y-56994674D01*
X164232174Y-57102757D01*
X164232171Y-57102759D01*
X164105074Y-57187683D01*
X163996750Y-57232552D01*
X163963849Y-57246180D01*
X163813931Y-57276000D01*
X163661069Y-57276000D01*
X163511151Y-57246180D01*
X163478250Y-57232552D01*
X163369926Y-57187683D01*
X163242829Y-57102759D01*
X163242826Y-57102757D01*
X163134743Y-56994674D01*
X163108965Y-56956095D01*
X163049817Y-56867574D01*
X162991321Y-56726351D01*
X162991320Y-56726349D01*
X162961500Y-56576431D01*
X162961500Y-56423569D01*
X162991320Y-56273651D01*
X163036407Y-56164801D01*
X163049817Y-56132426D01*
X163134741Y-56005329D01*
X163134743Y-56005326D01*
X163242826Y-55897243D01*
X163369925Y-55812318D01*
X163369926Y-55812317D01*
X163420222Y-55791484D01*
X163441831Y-55779933D01*
X163460773Y-55764388D01*
X163476318Y-55745446D01*
X163487869Y-55723835D01*
X163494982Y-55700386D01*
X163497384Y-55676000D01*
X163494982Y-55651613D01*
X163487869Y-55628164D01*
X163476317Y-55606553D01*
X163460772Y-55587611D01*
X163441830Y-55572066D01*
X163420219Y-55560515D01*
X163396770Y-55553402D01*
X163372384Y-55551000D01*
X163011500Y-55551000D01*
X163011500Y-52449000D01*
X163372384Y-52449000D01*
X163396770Y-52446598D01*
X163420219Y-52439485D01*
X163441830Y-52427934D01*
X163460772Y-52412388D01*
X163476318Y-52393446D01*
X163487869Y-52371835D01*
X163494982Y-52348386D01*
X163497384Y-52324000D01*
X163494982Y-52299614D01*
X163487869Y-52276165D01*
X163476318Y-52254554D01*
X163460772Y-52235612D01*
X163441830Y-52220066D01*
X163420222Y-52208516D01*
X163369926Y-52187683D01*
X163242829Y-52102759D01*
X163242826Y-52102757D01*
X163134743Y-51994674D01*
X163084772Y-51919887D01*
X163049817Y-51867574D01*
X162991321Y-51726351D01*
X162991320Y-51726349D01*
X162961500Y-51576431D01*
X162961500Y-51423569D01*
X162991320Y-51273651D01*
X163034084Y-51170409D01*
X163049817Y-51132426D01*
X163134741Y-51005329D01*
X163134743Y-51005326D01*
X163242826Y-50897243D01*
X163266670Y-50881311D01*
X163369926Y-50812317D01*
X163511149Y-50753821D01*
X163511148Y-50753821D01*
X163511151Y-50753820D01*
X163661069Y-50724000D01*
X163813931Y-50724000D01*
X163963849Y-50753820D01*
X163963849Y-50753820D01*
G37*
G36*
X158450443Y-54405519D02*
X158516627Y-54412037D01*
X158629853Y-54446384D01*
X158686467Y-54463557D01*
X158752775Y-54499000D01*
X158842991Y-54547222D01*
X158878729Y-54576552D01*
X158980186Y-54659814D01*
X159063448Y-54761271D01*
X159092778Y-54797009D01*
X159092779Y-54797011D01*
X159176443Y-54953533D01*
X159184347Y-54979591D01*
X159227963Y-55123373D01*
X159245359Y-55300000D01*
X159227963Y-55476627D01*
X159202516Y-55560515D01*
X159176443Y-55646467D01*
X159160657Y-55676000D01*
X159092778Y-55802991D01*
X159085124Y-55812317D01*
X158980186Y-55940186D01*
X158878729Y-56023448D01*
X158842991Y-56052778D01*
X158842989Y-56052779D01*
X158686467Y-56136443D01*
X158629853Y-56153616D01*
X158516627Y-56187963D01*
X158450442Y-56194482D01*
X158384260Y-56201000D01*
X158295740Y-56201000D01*
X158229558Y-56194482D01*
X158163373Y-56187963D01*
X158050147Y-56153616D01*
X157993533Y-56136443D01*
X157837011Y-56052779D01*
X157837009Y-56052778D01*
X157801271Y-56023448D01*
X157699814Y-55940186D01*
X157594876Y-55812317D01*
X157587222Y-55802991D01*
X157519343Y-55676000D01*
X157503557Y-55646467D01*
X157477484Y-55560515D01*
X157452037Y-55476627D01*
X157434641Y-55300000D01*
X157452037Y-55123373D01*
X157495653Y-54979591D01*
X157503557Y-54953533D01*
X157587221Y-54797011D01*
X157587222Y-54797009D01*
X157616552Y-54761271D01*
X157699814Y-54659814D01*
X157801271Y-54576552D01*
X157837009Y-54547222D01*
X157927225Y-54499000D01*
X157993533Y-54463557D01*
X158050147Y-54446384D01*
X158163373Y-54412037D01*
X158229557Y-54405519D01*
X158295740Y-54399000D01*
X158384260Y-54399000D01*
X158450443Y-54405519D01*
X158450443Y-54405519D01*
G37*
G36*
X160990443Y-54405519D02*
X161056627Y-54412037D01*
X161169853Y-54446384D01*
X161226467Y-54463557D01*
X161292775Y-54499000D01*
X161382991Y-54547222D01*
X161418729Y-54576552D01*
X161520186Y-54659814D01*
X161603448Y-54761271D01*
X161632778Y-54797009D01*
X161632779Y-54797011D01*
X161716443Y-54953533D01*
X161724347Y-54979591D01*
X161767963Y-55123373D01*
X161785359Y-55300000D01*
X161767963Y-55476627D01*
X161742516Y-55560515D01*
X161716443Y-55646467D01*
X161700657Y-55676000D01*
X161632778Y-55802991D01*
X161625124Y-55812317D01*
X161520186Y-55940186D01*
X161418729Y-56023448D01*
X161382991Y-56052778D01*
X161382989Y-56052779D01*
X161226467Y-56136443D01*
X161169853Y-56153616D01*
X161056627Y-56187963D01*
X160990442Y-56194482D01*
X160924260Y-56201000D01*
X160835740Y-56201000D01*
X160769558Y-56194482D01*
X160703373Y-56187963D01*
X160590147Y-56153616D01*
X160533533Y-56136443D01*
X160377011Y-56052779D01*
X160377009Y-56052778D01*
X160341271Y-56023448D01*
X160239814Y-55940186D01*
X160134876Y-55812317D01*
X160127222Y-55802991D01*
X160059343Y-55676000D01*
X160043557Y-55646467D01*
X160017484Y-55560515D01*
X159992037Y-55476627D01*
X159974641Y-55300000D01*
X159992037Y-55123373D01*
X160035653Y-54979591D01*
X160043557Y-54953533D01*
X160127221Y-54797011D01*
X160127222Y-54797009D01*
X160156552Y-54761271D01*
X160239814Y-54659814D01*
X160341271Y-54576552D01*
X160377009Y-54547222D01*
X160467225Y-54499000D01*
X160533533Y-54463557D01*
X160590147Y-54446384D01*
X160703373Y-54412037D01*
X160769557Y-54405519D01*
X160835740Y-54399000D01*
X160924260Y-54399000D01*
X160990443Y-54405519D01*
X160990443Y-54405519D01*
G37*
G36*
X155910443Y-54405519D02*
X155976627Y-54412037D01*
X156089853Y-54446384D01*
X156146467Y-54463557D01*
X156212775Y-54499000D01*
X156302991Y-54547222D01*
X156338729Y-54576552D01*
X156440186Y-54659814D01*
X156523448Y-54761271D01*
X156552778Y-54797009D01*
X156552779Y-54797011D01*
X156636443Y-54953533D01*
X156644347Y-54979591D01*
X156687963Y-55123373D01*
X156705359Y-55300000D01*
X156687963Y-55476627D01*
X156662516Y-55560515D01*
X156636443Y-55646467D01*
X156620657Y-55676000D01*
X156552778Y-55802991D01*
X156545124Y-55812317D01*
X156440186Y-55940186D01*
X156338729Y-56023448D01*
X156302991Y-56052778D01*
X156302989Y-56052779D01*
X156146467Y-56136443D01*
X156089853Y-56153616D01*
X155976627Y-56187963D01*
X155910442Y-56194482D01*
X155844260Y-56201000D01*
X155755740Y-56201000D01*
X155689558Y-56194482D01*
X155623373Y-56187963D01*
X155510147Y-56153616D01*
X155453533Y-56136443D01*
X155297011Y-56052779D01*
X155297009Y-56052778D01*
X155261271Y-56023448D01*
X155159814Y-55940186D01*
X155054876Y-55812317D01*
X155047222Y-55802991D01*
X154979343Y-55676000D01*
X154963557Y-55646467D01*
X154937484Y-55560515D01*
X154912037Y-55476627D01*
X154894641Y-55300000D01*
X154912037Y-55123373D01*
X154955653Y-54979591D01*
X154963557Y-54953533D01*
X155047221Y-54797011D01*
X155047222Y-54797009D01*
X155076552Y-54761271D01*
X155159814Y-54659814D01*
X155261271Y-54576552D01*
X155297009Y-54547222D01*
X155387225Y-54499000D01*
X155453533Y-54463557D01*
X155510147Y-54446384D01*
X155623373Y-54412037D01*
X155689557Y-54405519D01*
X155755740Y-54399000D01*
X155844260Y-54399000D01*
X155910443Y-54405519D01*
X155910443Y-54405519D01*
G37*
G36*
X154161000Y-56201000D02*
X152359000Y-56201000D01*
X152359000Y-54399000D01*
X154161000Y-54399000D01*
X154161000Y-56201000D01*
X154161000Y-56201000D01*
G37*
G36*
X167438500Y-55801000D02*
X165436500Y-55801000D01*
X165436500Y-54199000D01*
X167438500Y-54199000D01*
X167438500Y-55801000D01*
X167438500Y-55801000D01*
G37*
G36*
X130954238Y-53388110D02*
X131121150Y-53421311D01*
X131191990Y-53450654D01*
X131321516Y-53504305D01*
X131321519Y-53504307D01*
X131466230Y-53601000D01*
X131501850Y-53624801D01*
X131655199Y-53778150D01*
X131775695Y-53958484D01*
X131792477Y-53999000D01*
X131858689Y-54158850D01*
X131864175Y-54186431D01*
X131901000Y-54371560D01*
X131901000Y-54588440D01*
X131858689Y-54801149D01*
X131775695Y-55001516D01*
X131775693Y-55001519D01*
X131694273Y-55123373D01*
X131655199Y-55181850D01*
X131501850Y-55335199D01*
X131321516Y-55455695D01*
X131191990Y-55509346D01*
X131121150Y-55538689D01*
X131047183Y-55553402D01*
X130908440Y-55581000D01*
X130691560Y-55581000D01*
X130552817Y-55553402D01*
X130478850Y-55538689D01*
X130408010Y-55509346D01*
X130278484Y-55455695D01*
X130098150Y-55335199D01*
X129944801Y-55181850D01*
X129905728Y-55123373D01*
X129824307Y-55001519D01*
X129824305Y-55001516D01*
X129741311Y-54801149D01*
X129699000Y-54588440D01*
X129699000Y-54371560D01*
X129735825Y-54186431D01*
X129741311Y-54158850D01*
X129807523Y-53999000D01*
X129824305Y-53958484D01*
X129944801Y-53778150D01*
X130098150Y-53624801D01*
X130133771Y-53601000D01*
X130278481Y-53504307D01*
X130278484Y-53504305D01*
X130408010Y-53450654D01*
X130478850Y-53421311D01*
X130645762Y-53388110D01*
X130691560Y-53379000D01*
X130908440Y-53379000D01*
X130954238Y-53388110D01*
X130954238Y-53388110D01*
G37*
G36*
X138629591Y-54078085D02*
X138663569Y-54088393D01*
X138694887Y-54105133D01*
X138722339Y-54127661D01*
X138744867Y-54155113D01*
X138761607Y-54186431D01*
X138771915Y-54220409D01*
X138776000Y-54261890D01*
X138776000Y-54938110D01*
X138771915Y-54979591D01*
X138761607Y-55013569D01*
X138744867Y-55044887D01*
X138722339Y-55072339D01*
X138694887Y-55094867D01*
X138663569Y-55111607D01*
X138629591Y-55121915D01*
X138588110Y-55126000D01*
X137986890Y-55126000D01*
X137945409Y-55121915D01*
X137911431Y-55111607D01*
X137880113Y-55094867D01*
X137852661Y-55072339D01*
X137830133Y-55044887D01*
X137813393Y-55013569D01*
X137803085Y-54979591D01*
X137799000Y-54938110D01*
X137799000Y-54261890D01*
X137803085Y-54220409D01*
X137813393Y-54186431D01*
X137830133Y-54155113D01*
X137852661Y-54127661D01*
X137880113Y-54105133D01*
X137911431Y-54088393D01*
X137945409Y-54078085D01*
X137986890Y-54074000D01*
X138588110Y-54074000D01*
X138629591Y-54078085D01*
X138629591Y-54078085D01*
G37*
G36*
X137054591Y-54078085D02*
X137088569Y-54088393D01*
X137119887Y-54105133D01*
X137147339Y-54127661D01*
X137169867Y-54155113D01*
X137186607Y-54186431D01*
X137196915Y-54220409D01*
X137201000Y-54261890D01*
X137201000Y-54938110D01*
X137196915Y-54979591D01*
X137186607Y-55013569D01*
X137169867Y-55044887D01*
X137147339Y-55072339D01*
X137119887Y-55094867D01*
X137088569Y-55111607D01*
X137054591Y-55121915D01*
X137013110Y-55126000D01*
X136411890Y-55126000D01*
X136370409Y-55121915D01*
X136336431Y-55111607D01*
X136305113Y-55094867D01*
X136277661Y-55072339D01*
X136255133Y-55044887D01*
X136238393Y-55013569D01*
X136228085Y-54979591D01*
X136224000Y-54938110D01*
X136224000Y-54261890D01*
X136228085Y-54220409D01*
X136238393Y-54186431D01*
X136255133Y-54155113D01*
X136277661Y-54127661D01*
X136305113Y-54105133D01*
X136336431Y-54088393D01*
X136370409Y-54078085D01*
X136411890Y-54074000D01*
X137013110Y-54074000D01*
X137054591Y-54078085D01*
X137054591Y-54078085D01*
G37*
G36*
X144221000Y-54901000D02*
X139579000Y-54901000D01*
X139579000Y-52499000D01*
X144221000Y-52499000D01*
X144221000Y-54901000D01*
X144221000Y-54901000D01*
G37*
G36*
X167438500Y-53801000D02*
X165436500Y-53801000D01*
X165436500Y-52199000D01*
X167438500Y-52199000D01*
X167438500Y-53801000D01*
X167438500Y-53801000D01*
G37*
G36*
X138579591Y-52603085D02*
X138613569Y-52613393D01*
X138644887Y-52630133D01*
X138672339Y-52652661D01*
X138694867Y-52680113D01*
X138711607Y-52711431D01*
X138721915Y-52745409D01*
X138726000Y-52786890D01*
X138726000Y-53388110D01*
X138721915Y-53429591D01*
X138711607Y-53463569D01*
X138694867Y-53494887D01*
X138672339Y-53522339D01*
X138644887Y-53544867D01*
X138613569Y-53561607D01*
X138579591Y-53571915D01*
X138538110Y-53576000D01*
X137861890Y-53576000D01*
X137820409Y-53571915D01*
X137786431Y-53561607D01*
X137755113Y-53544867D01*
X137727661Y-53522339D01*
X137705133Y-53494887D01*
X137688393Y-53463569D01*
X137678085Y-53429591D01*
X137674000Y-53388110D01*
X137674000Y-52786890D01*
X137678085Y-52745409D01*
X137688393Y-52711431D01*
X137705133Y-52680113D01*
X137727661Y-52652661D01*
X137755113Y-52630133D01*
X137786431Y-52613393D01*
X137820409Y-52603085D01*
X137861890Y-52599000D01*
X138538110Y-52599000D01*
X138579591Y-52603085D01*
X138579591Y-52603085D01*
G37*
G36*
X131014794Y-50860155D02*
X131121150Y-50881311D01*
X131159608Y-50897241D01*
X131321516Y-50964305D01*
X131321519Y-50964307D01*
X131491165Y-51077661D01*
X131501850Y-51084801D01*
X131655199Y-51238150D01*
X131655201Y-51238153D01*
X131655202Y-51238154D01*
X131678919Y-51273649D01*
X131775695Y-51418484D01*
X131829346Y-51548010D01*
X131841118Y-51576429D01*
X131858689Y-51618851D01*
X131901000Y-51831560D01*
X131901000Y-52048440D01*
X131890195Y-52102759D01*
X131858689Y-52261150D01*
X131831827Y-52326000D01*
X131775695Y-52461516D01*
X131775693Y-52461519D01*
X131674214Y-52613393D01*
X131655199Y-52641850D01*
X131501850Y-52795199D01*
X131501847Y-52795201D01*
X131501846Y-52795202D01*
X131321519Y-52915693D01*
X131321516Y-52915695D01*
X131236281Y-52951000D01*
X131121150Y-52998689D01*
X131014795Y-53019844D01*
X130908440Y-53041000D01*
X130691560Y-53041000D01*
X130585205Y-53019844D01*
X130478850Y-52998689D01*
X130363719Y-52951000D01*
X130278484Y-52915695D01*
X130278481Y-52915693D01*
X130098154Y-52795202D01*
X130098153Y-52795201D01*
X130098150Y-52795199D01*
X129944801Y-52641850D01*
X129925787Y-52613393D01*
X129824307Y-52461519D01*
X129824305Y-52461516D01*
X129768173Y-52326000D01*
X129741311Y-52261150D01*
X129709805Y-52102759D01*
X129699000Y-52048440D01*
X129699000Y-51831560D01*
X129741311Y-51618851D01*
X129758883Y-51576429D01*
X129770654Y-51548010D01*
X129824305Y-51418484D01*
X129921081Y-51273649D01*
X129944798Y-51238154D01*
X129944799Y-51238153D01*
X129944801Y-51238150D01*
X130098150Y-51084801D01*
X130108836Y-51077661D01*
X130278481Y-50964307D01*
X130278484Y-50964305D01*
X130440392Y-50897241D01*
X130478850Y-50881311D01*
X130585206Y-50860155D01*
X130691560Y-50839000D01*
X130908440Y-50839000D01*
X131014794Y-50860155D01*
X131014794Y-50860155D01*
G37*
G36*
X155776000Y-52176000D02*
X155326000Y-52176000D01*
X155301614Y-52178402D01*
X155278165Y-52185515D01*
X155256554Y-52197066D01*
X155237612Y-52212612D01*
X155222066Y-52231554D01*
X155210515Y-52253165D01*
X155203402Y-52276614D01*
X155201000Y-52301000D01*
X155201000Y-52326000D01*
X154799000Y-52326000D01*
X154799000Y-52301000D01*
X154796598Y-52276614D01*
X154789485Y-52253165D01*
X154777934Y-52231554D01*
X154762388Y-52212612D01*
X154743446Y-52197066D01*
X154721835Y-52185515D01*
X154698386Y-52178402D01*
X154674000Y-52176000D01*
X154224000Y-52176000D01*
X154224000Y-51574000D01*
X155776000Y-51574000D01*
X155776000Y-52176000D01*
X155776000Y-52176000D01*
G37*
G36*
X138579591Y-51028085D02*
X138613569Y-51038393D01*
X138644887Y-51055133D01*
X138672339Y-51077661D01*
X138694867Y-51105113D01*
X138711607Y-51136431D01*
X138721915Y-51170409D01*
X138726000Y-51211890D01*
X138726000Y-51813110D01*
X138721915Y-51854591D01*
X138711607Y-51888569D01*
X138694867Y-51919887D01*
X138672339Y-51947339D01*
X138644887Y-51969867D01*
X138613569Y-51986607D01*
X138579591Y-51996915D01*
X138538110Y-52001000D01*
X137861890Y-52001000D01*
X137820409Y-51996915D01*
X137786431Y-51986607D01*
X137755113Y-51969867D01*
X137727661Y-51947339D01*
X137705133Y-51919887D01*
X137688393Y-51888569D01*
X137678085Y-51854591D01*
X137674000Y-51813110D01*
X137674000Y-51211890D01*
X137678085Y-51170409D01*
X137688393Y-51136431D01*
X137705133Y-51105113D01*
X137727661Y-51077661D01*
X137755113Y-51055133D01*
X137786431Y-51038393D01*
X137820409Y-51028085D01*
X137861890Y-51024000D01*
X138538110Y-51024000D01*
X138579591Y-51028085D01*
X138579591Y-51028085D01*
G37*
G36*
X166851355Y-49852140D02*
X166915118Y-49858420D01*
X166996927Y-49883237D01*
X167037833Y-49895645D01*
X167086239Y-49921519D01*
X167150926Y-49956095D01*
X167250053Y-50037447D01*
X167331405Y-50136574D01*
X167331406Y-50136576D01*
X167391855Y-50249667D01*
X167425410Y-50360285D01*
X167434788Y-50382924D01*
X167438500Y-50388480D01*
X167438500Y-50461886D01*
X167439102Y-50474138D01*
X167441649Y-50500000D01*
X167439102Y-50525862D01*
X167438500Y-50538114D01*
X167438500Y-51751000D01*
X165436500Y-51751000D01*
X165436500Y-50538114D01*
X165435898Y-50525862D01*
X165433351Y-50500000D01*
X165435898Y-50474138D01*
X165436500Y-50461886D01*
X165436500Y-50388593D01*
X165445457Y-50371835D01*
X165449590Y-50360285D01*
X165483145Y-50249667D01*
X165543594Y-50136576D01*
X165543595Y-50136574D01*
X165624947Y-50037447D01*
X165724074Y-49956095D01*
X165788761Y-49921519D01*
X165837167Y-49895645D01*
X165878073Y-49883237D01*
X165959882Y-49858420D01*
X166023645Y-49852140D01*
X166055526Y-49849000D01*
X166819474Y-49849000D01*
X166851355Y-49852140D01*
X166851355Y-49852140D01*
G37*
G36*
X131014794Y-48320155D02*
X131121150Y-48341311D01*
X131191990Y-48370654D01*
X131321516Y-48424305D01*
X131321519Y-48424307D01*
X131499371Y-48543144D01*
X131501850Y-48544801D01*
X131655199Y-48698150D01*
X131655201Y-48698153D01*
X131655202Y-48698154D01*
X131723922Y-48801000D01*
X131775695Y-48878484D01*
X131858689Y-49078851D01*
X131901000Y-49291560D01*
X131901000Y-49508440D01*
X131858689Y-49721149D01*
X131775695Y-49921516D01*
X131655199Y-50101850D01*
X131501850Y-50255199D01*
X131321516Y-50375695D01*
X131191990Y-50429346D01*
X131121150Y-50458689D01*
X131043483Y-50474138D01*
X130908440Y-50501000D01*
X130691560Y-50501000D01*
X130556517Y-50474138D01*
X130478850Y-50458689D01*
X130408010Y-50429346D01*
X130278484Y-50375695D01*
X130098150Y-50255199D01*
X129944801Y-50101850D01*
X129824305Y-49921516D01*
X129741311Y-49721149D01*
X129699000Y-49508440D01*
X129699000Y-49291560D01*
X129741311Y-49078851D01*
X129824305Y-48878484D01*
X129876078Y-48801000D01*
X129944798Y-48698154D01*
X129944799Y-48698153D01*
X129944801Y-48698150D01*
X130098150Y-48544801D01*
X130100630Y-48543144D01*
X130278481Y-48424307D01*
X130278484Y-48424305D01*
X130408010Y-48370654D01*
X130478850Y-48341311D01*
X130585206Y-48320155D01*
X130691560Y-48299000D01*
X130908440Y-48299000D01*
X131014794Y-48320155D01*
X131014794Y-48320155D01*
G37*
G36*
X155201000Y-49749000D02*
X155203402Y-49773386D01*
X155210515Y-49796835D01*
X155222066Y-49818446D01*
X155237612Y-49837388D01*
X155256554Y-49852934D01*
X155278165Y-49864485D01*
X155301614Y-49871598D01*
X155326000Y-49874000D01*
X155776000Y-49874000D01*
X155776000Y-50476000D01*
X154224000Y-50476000D01*
X154224000Y-49874000D01*
X154674000Y-49874000D01*
X154698386Y-49871598D01*
X154721835Y-49864485D01*
X154743446Y-49852934D01*
X154762388Y-49837388D01*
X154777934Y-49818446D01*
X154789485Y-49796835D01*
X154796598Y-49773386D01*
X154799000Y-49749000D01*
X154799000Y-49724000D01*
X155201000Y-49724000D01*
X155201000Y-49749000D01*
X155201000Y-49749000D01*
G37*
G36*
X138629591Y-49178085D02*
X138663569Y-49188393D01*
X138694887Y-49205133D01*
X138722339Y-49227661D01*
X138744867Y-49255113D01*
X138761607Y-49286431D01*
X138771915Y-49320409D01*
X138776000Y-49361890D01*
X138776000Y-50038110D01*
X138771915Y-50079591D01*
X138761607Y-50113569D01*
X138744867Y-50144887D01*
X138722339Y-50172339D01*
X138694887Y-50194867D01*
X138663569Y-50211607D01*
X138629591Y-50221915D01*
X138588110Y-50226000D01*
X137986890Y-50226000D01*
X137945409Y-50221915D01*
X137911431Y-50211607D01*
X137880113Y-50194867D01*
X137852661Y-50172339D01*
X137830133Y-50144887D01*
X137813393Y-50113569D01*
X137803085Y-50079591D01*
X137799000Y-50038110D01*
X137799000Y-49361890D01*
X137803085Y-49320409D01*
X137813393Y-49286431D01*
X137830133Y-49255113D01*
X137852661Y-49227661D01*
X137880113Y-49205133D01*
X137911431Y-49188393D01*
X137945409Y-49178085D01*
X137986890Y-49174000D01*
X138588110Y-49174000D01*
X138629591Y-49178085D01*
X138629591Y-49178085D01*
G37*
G36*
X137054591Y-49178085D02*
X137088569Y-49188393D01*
X137119887Y-49205133D01*
X137147339Y-49227661D01*
X137169867Y-49255113D01*
X137186607Y-49286431D01*
X137196915Y-49320409D01*
X137201000Y-49361890D01*
X137201000Y-50038110D01*
X137196915Y-50079591D01*
X137186607Y-50113569D01*
X137169867Y-50144887D01*
X137147339Y-50172339D01*
X137119887Y-50194867D01*
X137088569Y-50211607D01*
X137054591Y-50221915D01*
X137013110Y-50226000D01*
X136411890Y-50226000D01*
X136370409Y-50221915D01*
X136336431Y-50211607D01*
X136305113Y-50194867D01*
X136277661Y-50172339D01*
X136255133Y-50144887D01*
X136238393Y-50113569D01*
X136228085Y-50079591D01*
X136224000Y-50038110D01*
X136224000Y-49361890D01*
X136228085Y-49320409D01*
X136238393Y-49286431D01*
X136255133Y-49255113D01*
X136277661Y-49227661D01*
X136305113Y-49205133D01*
X136336431Y-49188393D01*
X136370409Y-49178085D01*
X136411890Y-49174000D01*
X137013110Y-49174000D01*
X137054591Y-49178085D01*
X137054591Y-49178085D01*
G37*
G36*
X144221000Y-50001000D02*
X139579000Y-50001000D01*
X139579000Y-47599000D01*
X144221000Y-47599000D01*
X144221000Y-50001000D01*
X144221000Y-50001000D01*
G37*
G36*
X150938248Y-45024482D02*
X150943144Y-45024000D01*
X151256860Y-45024000D01*
X151270293Y-45025323D01*
X151277312Y-45027452D01*
X151283775Y-45030907D01*
X151289442Y-45035558D01*
X151294093Y-45041225D01*
X151297548Y-45047688D01*
X151299677Y-45054707D01*
X151301000Y-45068140D01*
X151301000Y-45874000D01*
X151303402Y-45898386D01*
X151310515Y-45921835D01*
X151322066Y-45943446D01*
X151337612Y-45962388D01*
X151356554Y-45977934D01*
X151378165Y-45989485D01*
X151401614Y-45996598D01*
X151426000Y-45999000D01*
X152231860Y-45999000D01*
X152245293Y-46000323D01*
X152252312Y-46002452D01*
X152258775Y-46005907D01*
X152264442Y-46010558D01*
X152269093Y-46016225D01*
X152272548Y-46022688D01*
X152274677Y-46029707D01*
X152276000Y-46043140D01*
X152276000Y-46356856D01*
X152275518Y-46361752D01*
X152275519Y-46386257D01*
X152276000Y-46388674D01*
X152276000Y-48526000D01*
X152276120Y-48526000D01*
X152275518Y-48538248D01*
X152276000Y-48543144D01*
X152276000Y-48856860D01*
X152274677Y-48870293D01*
X152272548Y-48877312D01*
X152269093Y-48883775D01*
X152264442Y-48889442D01*
X152258775Y-48894093D01*
X152252312Y-48897548D01*
X152245293Y-48899677D01*
X152231860Y-48901000D01*
X151426000Y-48901000D01*
X151401614Y-48903402D01*
X151378165Y-48910515D01*
X151356554Y-48922066D01*
X151337612Y-48937612D01*
X151322066Y-48956554D01*
X151310515Y-48978165D01*
X151303402Y-49001614D01*
X151301000Y-49026000D01*
X151301000Y-49831860D01*
X151299677Y-49845293D01*
X151297548Y-49852312D01*
X151294093Y-49858775D01*
X151289442Y-49864442D01*
X151283775Y-49869093D01*
X151277312Y-49872548D01*
X151270293Y-49874677D01*
X151256860Y-49876000D01*
X150943144Y-49876000D01*
X150938248Y-49875518D01*
X150913743Y-49875519D01*
X150911326Y-49876000D01*
X148774000Y-49876000D01*
X148774000Y-49876120D01*
X148761752Y-49875518D01*
X148756856Y-49876000D01*
X148443140Y-49876000D01*
X148429707Y-49874677D01*
X148422688Y-49872548D01*
X148416225Y-49869093D01*
X148410558Y-49864442D01*
X148405907Y-49858775D01*
X148402452Y-49852312D01*
X148400323Y-49845293D01*
X148399000Y-49831860D01*
X148399000Y-49026000D01*
X148396598Y-49001614D01*
X148389485Y-48978165D01*
X148377934Y-48956554D01*
X148362388Y-48937612D01*
X148343446Y-48922066D01*
X148321835Y-48910515D01*
X148298386Y-48903402D01*
X148274000Y-48901000D01*
X147468140Y-48901000D01*
X147454707Y-48899677D01*
X147447688Y-48897548D01*
X147441225Y-48894093D01*
X147435558Y-48889442D01*
X147430907Y-48883775D01*
X147427452Y-48877312D01*
X147425323Y-48870293D01*
X147424000Y-48856860D01*
X147424000Y-48543144D01*
X147424482Y-48538248D01*
X147424481Y-48513743D01*
X147424000Y-48511326D01*
X147424000Y-46374000D01*
X147423880Y-46374000D01*
X147424482Y-46361752D01*
X147424000Y-46356856D01*
X147424000Y-46043140D01*
X147425323Y-46029707D01*
X147427452Y-46022688D01*
X147430907Y-46016225D01*
X147435558Y-46010558D01*
X147441225Y-46005907D01*
X147447688Y-46002452D01*
X147454707Y-46000323D01*
X147468140Y-45999000D01*
X148274000Y-45999000D01*
X148298386Y-45996598D01*
X148321835Y-45989485D01*
X148343446Y-45977934D01*
X148362388Y-45962388D01*
X148377934Y-45943446D01*
X148389485Y-45921835D01*
X148396598Y-45898386D01*
X148399000Y-45874000D01*
X148399000Y-45068140D01*
X148400323Y-45054707D01*
X148402452Y-45047688D01*
X148405907Y-45041225D01*
X148410558Y-45035558D01*
X148416225Y-45030907D01*
X148422688Y-45027452D01*
X148429707Y-45025323D01*
X148443140Y-45024000D01*
X148756856Y-45024000D01*
X148761752Y-45024482D01*
X148786257Y-45024481D01*
X148788674Y-45024000D01*
X150926000Y-45024000D01*
X150926000Y-45023880D01*
X150938248Y-45024482D01*
X150938248Y-45024482D01*
G37*
G36*
X137079591Y-47703085D02*
X137113569Y-47713393D01*
X137144887Y-47730133D01*
X137172339Y-47752661D01*
X137194867Y-47780113D01*
X137211607Y-47811431D01*
X137221915Y-47845409D01*
X137226000Y-47886890D01*
X137226000Y-48488110D01*
X137221915Y-48529591D01*
X137211607Y-48563569D01*
X137194867Y-48594887D01*
X137172339Y-48622339D01*
X137144887Y-48644867D01*
X137113569Y-48661607D01*
X137079591Y-48671915D01*
X137038110Y-48676000D01*
X136361890Y-48676000D01*
X136320409Y-48671915D01*
X136286431Y-48661607D01*
X136255113Y-48644867D01*
X136227661Y-48622339D01*
X136205133Y-48594887D01*
X136188393Y-48563569D01*
X136178085Y-48529591D01*
X136174000Y-48488110D01*
X136174000Y-47886890D01*
X136178085Y-47845409D01*
X136188393Y-47811431D01*
X136205133Y-47780113D01*
X136227661Y-47752661D01*
X136255113Y-47730133D01*
X136286431Y-47713393D01*
X136320409Y-47703085D01*
X136361890Y-47699000D01*
X137038110Y-47699000D01*
X137079591Y-47703085D01*
X137079591Y-47703085D01*
G37*
G36*
X165889890Y-46974017D02*
X166008361Y-47023089D01*
X166008364Y-47023091D01*
X166063357Y-47059836D01*
X166114992Y-47094338D01*
X166205662Y-47185008D01*
X166276911Y-47291639D01*
X166325983Y-47410110D01*
X166351000Y-47535881D01*
X166351000Y-47664119D01*
X166325983Y-47789890D01*
X166276911Y-47908361D01*
X166205662Y-48014992D01*
X166114992Y-48105662D01*
X166008361Y-48176911D01*
X165889890Y-48225983D01*
X165764119Y-48251000D01*
X165635881Y-48251000D01*
X165510110Y-48225983D01*
X165391639Y-48176911D01*
X165285008Y-48105662D01*
X165194338Y-48014992D01*
X165123089Y-47908361D01*
X165074017Y-47789890D01*
X165049000Y-47664119D01*
X165049000Y-47535881D01*
X165074017Y-47410110D01*
X165123089Y-47291639D01*
X165194338Y-47185008D01*
X165285008Y-47094338D01*
X165336644Y-47059836D01*
X165391636Y-47023091D01*
X165391639Y-47023089D01*
X165510110Y-46974017D01*
X165635881Y-46949000D01*
X165764119Y-46949000D01*
X165889890Y-46974017D01*
X165889890Y-46974017D01*
G37*
G36*
X131014795Y-45780156D02*
X131121150Y-45801311D01*
X131191990Y-45830654D01*
X131321516Y-45884305D01*
X131321519Y-45884307D01*
X131498335Y-46002452D01*
X131501850Y-46004801D01*
X131655199Y-46158150D01*
X131655201Y-46158153D01*
X131655202Y-46158154D01*
X131733129Y-46274780D01*
X131775695Y-46338484D01*
X131829346Y-46468010D01*
X131842183Y-46499000D01*
X131858689Y-46538851D01*
X131901000Y-46751560D01*
X131901000Y-46968440D01*
X131858689Y-47181149D01*
X131775695Y-47381516D01*
X131775693Y-47381519D01*
X131672551Y-47535882D01*
X131655199Y-47561850D01*
X131501850Y-47715199D01*
X131501847Y-47715201D01*
X131501846Y-47715202D01*
X131321519Y-47835693D01*
X131321516Y-47835695D01*
X131197919Y-47886890D01*
X131121150Y-47918689D01*
X131014795Y-47939844D01*
X130908440Y-47961000D01*
X130691560Y-47961000D01*
X130585205Y-47939844D01*
X130478850Y-47918689D01*
X130402081Y-47886890D01*
X130278484Y-47835695D01*
X130278481Y-47835693D01*
X130098154Y-47715202D01*
X130098153Y-47715201D01*
X130098150Y-47715199D01*
X129944801Y-47561850D01*
X129927450Y-47535882D01*
X129824307Y-47381519D01*
X129824305Y-47381516D01*
X129741311Y-47181149D01*
X129699000Y-46968440D01*
X129699000Y-46751560D01*
X129741311Y-46538851D01*
X129757818Y-46499000D01*
X129770654Y-46468010D01*
X129824305Y-46338484D01*
X129866871Y-46274780D01*
X129944798Y-46158154D01*
X129944799Y-46158153D01*
X129944801Y-46158150D01*
X130098150Y-46004801D01*
X130101666Y-46002452D01*
X130278481Y-45884307D01*
X130278484Y-45884305D01*
X130408010Y-45830654D01*
X130478850Y-45801311D01*
X130585205Y-45780156D01*
X130691560Y-45759000D01*
X130908440Y-45759000D01*
X131014795Y-45780156D01*
X131014795Y-45780156D01*
G37*
G36*
X137079591Y-46128085D02*
X137113569Y-46138393D01*
X137144887Y-46155133D01*
X137172339Y-46177661D01*
X137194867Y-46205113D01*
X137211607Y-46236431D01*
X137221915Y-46270409D01*
X137226000Y-46311890D01*
X137226000Y-46913110D01*
X137221915Y-46954591D01*
X137211607Y-46988569D01*
X137194867Y-47019887D01*
X137172339Y-47047339D01*
X137144887Y-47069867D01*
X137113569Y-47086607D01*
X137079591Y-47096915D01*
X137038110Y-47101000D01*
X136361890Y-47101000D01*
X136320409Y-47096915D01*
X136286431Y-47086607D01*
X136255113Y-47069867D01*
X136227661Y-47047339D01*
X136205133Y-47019887D01*
X136188393Y-46988569D01*
X136178085Y-46954591D01*
X136174000Y-46913110D01*
X136174000Y-46311890D01*
X136178085Y-46270409D01*
X136188393Y-46236431D01*
X136205133Y-46205113D01*
X136227661Y-46177661D01*
X136255113Y-46155133D01*
X136286431Y-46138393D01*
X136320409Y-46128085D01*
X136361890Y-46124000D01*
X137038110Y-46124000D01*
X137079591Y-46128085D01*
X137079591Y-46128085D01*
G37*
G36*
X164608600Y-45102989D02*
X164641649Y-45113014D01*
X164672106Y-45129294D01*
X164698799Y-45151201D01*
X164720706Y-45177894D01*
X164736986Y-45208351D01*
X164747011Y-45241400D01*
X164751000Y-45281904D01*
X164751000Y-46718096D01*
X164747011Y-46758600D01*
X164736986Y-46791649D01*
X164720706Y-46822106D01*
X164698799Y-46848799D01*
X164672106Y-46870706D01*
X164641649Y-46886986D01*
X164608600Y-46897011D01*
X164568096Y-46901000D01*
X162831904Y-46901000D01*
X162791400Y-46897011D01*
X162758351Y-46886986D01*
X162727894Y-46870706D01*
X162701201Y-46848799D01*
X162679294Y-46822106D01*
X162663014Y-46791649D01*
X162652989Y-46758600D01*
X162649000Y-46718096D01*
X162649000Y-45281904D01*
X162652989Y-45241400D01*
X162663014Y-45208351D01*
X162679294Y-45177894D01*
X162701201Y-45151201D01*
X162727894Y-45129294D01*
X162758351Y-45113014D01*
X162791400Y-45102989D01*
X162831904Y-45099000D01*
X164568096Y-45099000D01*
X164608600Y-45102989D01*
X164608600Y-45102989D01*
G37*
G36*
X139801000Y-46501000D02*
X137699000Y-46501000D01*
X137699000Y-44899000D01*
X139801000Y-44899000D01*
X139801000Y-46501000D01*
X139801000Y-46501000D01*
G37*
G36*
X146101000Y-45351000D02*
X143999000Y-45351000D01*
X143999000Y-41449000D01*
X146101000Y-41449000D01*
X146101000Y-45351000D01*
X146101000Y-45351000D01*
G37*
G36*
X163960443Y-42605519D02*
X164026627Y-42612037D01*
X164139853Y-42646384D01*
X164196467Y-42663557D01*
X164274249Y-42705133D01*
X164352991Y-42747222D01*
X164362606Y-42755113D01*
X164490186Y-42859814D01*
X164573448Y-42961271D01*
X164602778Y-42997009D01*
X164602779Y-42997011D01*
X164686443Y-43153533D01*
X164686443Y-43153534D01*
X164737963Y-43323373D01*
X164755359Y-43500000D01*
X164737963Y-43676627D01*
X164727352Y-43711607D01*
X164686443Y-43846467D01*
X164612348Y-43985087D01*
X164602778Y-44002991D01*
X164573448Y-44038729D01*
X164490186Y-44140186D01*
X164388729Y-44223448D01*
X164352991Y-44252778D01*
X164352989Y-44252779D01*
X164196467Y-44336443D01*
X164139853Y-44353616D01*
X164026627Y-44387963D01*
X163960442Y-44394482D01*
X163894260Y-44401000D01*
X163505740Y-44401000D01*
X163439558Y-44394482D01*
X163373373Y-44387963D01*
X163260147Y-44353616D01*
X163203533Y-44336443D01*
X163047011Y-44252779D01*
X163047009Y-44252778D01*
X163011271Y-44223448D01*
X162909814Y-44140186D01*
X162826552Y-44038729D01*
X162797222Y-44002991D01*
X162787652Y-43985087D01*
X162713557Y-43846467D01*
X162672648Y-43711607D01*
X162662037Y-43676627D01*
X162644641Y-43500000D01*
X162662037Y-43323373D01*
X162713557Y-43153534D01*
X162713557Y-43153533D01*
X162797221Y-42997011D01*
X162797222Y-42997009D01*
X162826552Y-42961271D01*
X162909814Y-42859814D01*
X163037394Y-42755113D01*
X163047009Y-42747222D01*
X163125751Y-42705133D01*
X163203533Y-42663557D01*
X163260147Y-42646384D01*
X163373373Y-42612037D01*
X163439558Y-42605518D01*
X163505740Y-42599000D01*
X163894260Y-42599000D01*
X163960443Y-42605519D01*
X163960443Y-42605519D01*
G37*
G36*
X139801000Y-44201000D02*
X137699000Y-44201000D01*
X137699000Y-42599000D01*
X139801000Y-42599000D01*
X139801000Y-44201000D01*
X139801000Y-44201000D01*
G37*
G36*
X151029591Y-42678085D02*
X151063569Y-42688393D01*
X151094887Y-42705133D01*
X151122339Y-42727661D01*
X151144867Y-42755113D01*
X151161607Y-42786431D01*
X151171915Y-42820409D01*
X151176000Y-42861890D01*
X151176000Y-43538110D01*
X151171915Y-43579591D01*
X151161607Y-43613569D01*
X151144867Y-43644887D01*
X151122339Y-43672339D01*
X151094887Y-43694867D01*
X151063569Y-43711607D01*
X151029591Y-43721915D01*
X150988110Y-43726000D01*
X150386890Y-43726000D01*
X150345409Y-43721915D01*
X150311431Y-43711607D01*
X150280113Y-43694867D01*
X150252661Y-43672339D01*
X150230133Y-43644887D01*
X150213393Y-43613569D01*
X150203085Y-43579591D01*
X150199000Y-43538110D01*
X150199000Y-42861890D01*
X150203085Y-42820409D01*
X150213393Y-42786431D01*
X150230133Y-42755113D01*
X150252661Y-42727661D01*
X150280113Y-42705133D01*
X150311431Y-42688393D01*
X150345409Y-42678085D01*
X150386890Y-42674000D01*
X150988110Y-42674000D01*
X151029591Y-42678085D01*
X151029591Y-42678085D01*
G37*
G36*
X149454591Y-42678085D02*
X149488569Y-42688393D01*
X149519887Y-42705133D01*
X149547339Y-42727661D01*
X149569867Y-42755113D01*
X149586607Y-42786431D01*
X149596915Y-42820409D01*
X149601000Y-42861890D01*
X149601000Y-43538110D01*
X149596915Y-43579591D01*
X149586607Y-43613569D01*
X149569867Y-43644887D01*
X149547339Y-43672339D01*
X149519887Y-43694867D01*
X149488569Y-43711607D01*
X149454591Y-43721915D01*
X149413110Y-43726000D01*
X148811890Y-43726000D01*
X148770409Y-43721915D01*
X148736431Y-43711607D01*
X148705113Y-43694867D01*
X148677661Y-43672339D01*
X148655133Y-43644887D01*
X148638393Y-43613569D01*
X148628085Y-43579591D01*
X148624000Y-43538110D01*
X148624000Y-42861890D01*
X148628085Y-42820409D01*
X148638393Y-42786431D01*
X148655133Y-42755113D01*
X148677661Y-42727661D01*
X148705113Y-42705133D01*
X148736431Y-42688393D01*
X148770409Y-42678085D01*
X148811890Y-42674000D01*
X149413110Y-42674000D01*
X149454591Y-42678085D01*
X149454591Y-42678085D01*
G37*
G36*
X154029591Y-42678085D02*
X154063569Y-42688393D01*
X154094887Y-42705133D01*
X154122339Y-42727661D01*
X154144867Y-42755113D01*
X154161607Y-42786431D01*
X154171915Y-42820409D01*
X154176000Y-42861890D01*
X154176000Y-43538110D01*
X154171915Y-43579591D01*
X154161607Y-43613569D01*
X154144867Y-43644887D01*
X154122339Y-43672339D01*
X154094887Y-43694867D01*
X154063569Y-43711607D01*
X154029591Y-43721915D01*
X153988110Y-43726000D01*
X153386890Y-43726000D01*
X153345409Y-43721915D01*
X153311431Y-43711607D01*
X153280113Y-43694867D01*
X153252661Y-43672339D01*
X153230133Y-43644887D01*
X153213393Y-43613569D01*
X153203085Y-43579591D01*
X153199000Y-43538110D01*
X153199000Y-42861890D01*
X153203085Y-42820409D01*
X153213393Y-42786431D01*
X153230133Y-42755113D01*
X153252661Y-42727661D01*
X153280113Y-42705133D01*
X153311431Y-42688393D01*
X153345409Y-42678085D01*
X153386890Y-42674000D01*
X153988110Y-42674000D01*
X154029591Y-42678085D01*
X154029591Y-42678085D01*
G37*
G36*
X152454591Y-42678085D02*
X152488569Y-42688393D01*
X152519887Y-42705133D01*
X152547339Y-42727661D01*
X152569867Y-42755113D01*
X152586607Y-42786431D01*
X152596915Y-42820409D01*
X152601000Y-42861890D01*
X152601000Y-43538110D01*
X152596915Y-43579591D01*
X152586607Y-43613569D01*
X152569867Y-43644887D01*
X152547339Y-43672339D01*
X152519887Y-43694867D01*
X152488569Y-43711607D01*
X152454591Y-43721915D01*
X152413110Y-43726000D01*
X151811890Y-43726000D01*
X151770409Y-43721915D01*
X151736431Y-43711607D01*
X151705113Y-43694867D01*
X151677661Y-43672339D01*
X151655133Y-43644887D01*
X151638393Y-43613569D01*
X151628085Y-43579591D01*
X151624000Y-43538110D01*
X151624000Y-42861890D01*
X151628085Y-42820409D01*
X151638393Y-42786431D01*
X151655133Y-42755113D01*
X151677661Y-42727661D01*
X151705113Y-42705133D01*
X151736431Y-42688393D01*
X151770409Y-42678085D01*
X151811890Y-42674000D01*
X152413110Y-42674000D01*
X152454591Y-42678085D01*
X152454591Y-42678085D01*
G37*
G36*
X157829591Y-41878085D02*
X157863569Y-41888393D01*
X157894887Y-41905133D01*
X157922339Y-41927661D01*
X157944867Y-41955113D01*
X157961607Y-41986431D01*
X157971915Y-42020409D01*
X157976000Y-42061890D01*
X157976000Y-42738110D01*
X157971915Y-42779591D01*
X157961607Y-42813569D01*
X157944867Y-42844887D01*
X157922339Y-42872339D01*
X157894887Y-42894867D01*
X157863569Y-42911607D01*
X157829591Y-42921915D01*
X157788110Y-42926000D01*
X157186890Y-42926000D01*
X157145409Y-42921915D01*
X157111431Y-42911607D01*
X157080113Y-42894867D01*
X157052661Y-42872339D01*
X157030133Y-42844887D01*
X157013393Y-42813569D01*
X157003085Y-42779591D01*
X156999000Y-42738110D01*
X156999000Y-42061890D01*
X157003085Y-42020409D01*
X157013393Y-41986431D01*
X157030133Y-41955113D01*
X157052661Y-41927661D01*
X157080113Y-41905133D01*
X157111431Y-41888393D01*
X157145409Y-41878085D01*
X157186890Y-41874000D01*
X157788110Y-41874000D01*
X157829591Y-41878085D01*
X157829591Y-41878085D01*
G37*
G36*
X156254591Y-41878085D02*
X156288569Y-41888393D01*
X156319887Y-41905133D01*
X156347339Y-41927661D01*
X156369867Y-41955113D01*
X156386607Y-41986431D01*
X156396915Y-42020409D01*
X156401000Y-42061890D01*
X156401000Y-42738110D01*
X156396915Y-42779591D01*
X156386607Y-42813569D01*
X156369867Y-42844887D01*
X156347339Y-42872339D01*
X156319887Y-42894867D01*
X156288569Y-42911607D01*
X156254591Y-42921915D01*
X156213110Y-42926000D01*
X155611890Y-42926000D01*
X155570409Y-42921915D01*
X155536431Y-42911607D01*
X155505113Y-42894867D01*
X155477661Y-42872339D01*
X155455133Y-42844887D01*
X155438393Y-42813569D01*
X155428085Y-42779591D01*
X155424000Y-42738110D01*
X155424000Y-42061890D01*
X155428085Y-42020409D01*
X155438393Y-41986431D01*
X155455133Y-41955113D01*
X155477661Y-41927661D01*
X155505113Y-41905133D01*
X155536431Y-41888393D01*
X155570409Y-41878085D01*
X155611890Y-41874000D01*
X156213110Y-41874000D01*
X156254591Y-41878085D01*
X156254591Y-41878085D01*
G37*
G36*
X147479591Y-41503085D02*
X147513569Y-41513393D01*
X147544887Y-41530133D01*
X147572339Y-41552661D01*
X147594867Y-41580113D01*
X147611607Y-41611431D01*
X147621915Y-41645409D01*
X147626000Y-41686890D01*
X147626000Y-42288110D01*
X147621915Y-42329591D01*
X147611607Y-42363569D01*
X147594867Y-42394887D01*
X147572339Y-42422339D01*
X147544887Y-42444867D01*
X147513569Y-42461607D01*
X147479591Y-42471915D01*
X147438110Y-42476000D01*
X146761890Y-42476000D01*
X146720409Y-42471915D01*
X146686431Y-42461607D01*
X146655113Y-42444867D01*
X146627661Y-42422339D01*
X146605133Y-42394887D01*
X146588393Y-42363569D01*
X146578085Y-42329591D01*
X146574000Y-42288110D01*
X146574000Y-41686890D01*
X146578085Y-41645409D01*
X146588393Y-41611431D01*
X146605133Y-41580113D01*
X146627661Y-41552661D01*
X146655113Y-41530133D01*
X146686431Y-41513393D01*
X146720409Y-41503085D01*
X146761890Y-41499000D01*
X147438110Y-41499000D01*
X147479591Y-41503085D01*
X147479591Y-41503085D01*
G37*
G36*
X152459592Y-41178085D02*
X152493570Y-41188393D01*
X152524888Y-41205133D01*
X152552340Y-41227661D01*
X152574868Y-41255113D01*
X152591608Y-41286431D01*
X152601916Y-41320409D01*
X152606001Y-41361890D01*
X152606001Y-42038110D01*
X152601916Y-42079591D01*
X152591608Y-42113569D01*
X152574868Y-42144887D01*
X152552340Y-42172339D01*
X152524888Y-42194867D01*
X152493570Y-42211607D01*
X152459592Y-42221915D01*
X152418111Y-42226000D01*
X151816891Y-42226000D01*
X151775410Y-42221915D01*
X151741432Y-42211607D01*
X151710114Y-42194867D01*
X151682662Y-42172339D01*
X151660134Y-42144887D01*
X151643394Y-42113569D01*
X151633086Y-42079591D01*
X151629001Y-42038110D01*
X151629001Y-41361890D01*
X151633086Y-41320409D01*
X151643394Y-41286431D01*
X151660134Y-41255113D01*
X151682662Y-41227661D01*
X151710114Y-41205133D01*
X151741432Y-41188393D01*
X151775410Y-41178085D01*
X151816891Y-41174000D01*
X152418111Y-41174000D01*
X152459592Y-41178085D01*
X152459592Y-41178085D01*
G37*
G36*
X154034592Y-41178085D02*
X154068570Y-41188393D01*
X154099888Y-41205133D01*
X154127340Y-41227661D01*
X154149868Y-41255113D01*
X154166608Y-41286431D01*
X154176916Y-41320409D01*
X154181001Y-41361890D01*
X154181001Y-42038110D01*
X154176916Y-42079591D01*
X154166608Y-42113569D01*
X154149868Y-42144887D01*
X154127340Y-42172339D01*
X154099888Y-42194867D01*
X154068570Y-42211607D01*
X154034592Y-42221915D01*
X153993111Y-42226000D01*
X153391891Y-42226000D01*
X153350410Y-42221915D01*
X153316432Y-42211607D01*
X153285114Y-42194867D01*
X153257662Y-42172339D01*
X153235134Y-42144887D01*
X153218394Y-42113569D01*
X153208086Y-42079591D01*
X153204001Y-42038110D01*
X153204001Y-41361890D01*
X153208086Y-41320409D01*
X153218394Y-41286431D01*
X153235134Y-41255113D01*
X153257662Y-41227661D01*
X153285114Y-41205133D01*
X153316432Y-41188393D01*
X153350410Y-41178085D01*
X153391891Y-41174000D01*
X153993111Y-41174000D01*
X154034592Y-41178085D01*
X154034592Y-41178085D01*
G37*
G36*
X148966001Y-41926000D02*
X148164001Y-41926000D01*
X148164001Y-41374000D01*
X148966001Y-41374000D01*
X148966001Y-41926000D01*
X148966001Y-41926000D01*
G37*
G36*
X139801000Y-41901000D02*
X137699000Y-41901000D01*
X137699000Y-40299000D01*
X139801000Y-40299000D01*
X139801000Y-41901000D01*
X139801000Y-41901000D01*
G37*
G36*
X157829591Y-40378085D02*
X157863569Y-40388393D01*
X157894887Y-40405133D01*
X157922339Y-40427661D01*
X157944867Y-40455113D01*
X157961607Y-40486431D01*
X157971915Y-40520409D01*
X157976000Y-40561890D01*
X157976000Y-41238110D01*
X157971915Y-41279591D01*
X157961607Y-41313569D01*
X157944867Y-41344887D01*
X157922339Y-41372339D01*
X157894887Y-41394867D01*
X157863569Y-41411607D01*
X157829591Y-41421915D01*
X157788110Y-41426000D01*
X157186890Y-41426000D01*
X157145409Y-41421915D01*
X157111431Y-41411607D01*
X157080113Y-41394867D01*
X157052661Y-41372339D01*
X157030133Y-41344887D01*
X157013393Y-41313569D01*
X157003085Y-41279591D01*
X156999000Y-41238110D01*
X156999000Y-40561890D01*
X157003085Y-40520409D01*
X157013393Y-40486431D01*
X157030133Y-40455113D01*
X157052661Y-40427661D01*
X157080113Y-40405133D01*
X157111431Y-40388393D01*
X157145409Y-40378085D01*
X157186890Y-40374000D01*
X157788110Y-40374000D01*
X157829591Y-40378085D01*
X157829591Y-40378085D01*
G37*
G36*
X156254591Y-40378085D02*
X156288569Y-40388393D01*
X156319887Y-40405133D01*
X156347339Y-40427661D01*
X156369867Y-40455113D01*
X156386607Y-40486431D01*
X156396915Y-40520409D01*
X156401000Y-40561890D01*
X156401000Y-41238110D01*
X156396915Y-41279591D01*
X156386607Y-41313569D01*
X156369867Y-41344887D01*
X156347339Y-41372339D01*
X156319887Y-41394867D01*
X156288569Y-41411607D01*
X156254591Y-41421915D01*
X156213110Y-41426000D01*
X155611890Y-41426000D01*
X155570409Y-41421915D01*
X155536431Y-41411607D01*
X155505113Y-41394867D01*
X155477661Y-41372339D01*
X155455133Y-41344887D01*
X155438393Y-41313569D01*
X155428085Y-41279591D01*
X155424000Y-41238110D01*
X155424000Y-40561890D01*
X155428085Y-40520409D01*
X155438393Y-40486431D01*
X155455133Y-40455113D01*
X155477661Y-40427661D01*
X155505113Y-40405133D01*
X155536431Y-40388393D01*
X155570409Y-40378085D01*
X155611890Y-40374000D01*
X156213110Y-40374000D01*
X156254591Y-40378085D01*
X156254591Y-40378085D01*
G37*
G36*
X150966001Y-41276000D02*
X150164001Y-41276000D01*
X150164001Y-40724000D01*
X150966001Y-40724000D01*
X150966001Y-41276000D01*
X150966001Y-41276000D01*
G37*
G36*
X147479591Y-39928085D02*
X147513569Y-39938393D01*
X147544887Y-39955133D01*
X147572339Y-39977661D01*
X147594867Y-40005113D01*
X147611607Y-40036431D01*
X147621915Y-40070409D01*
X147626000Y-40111890D01*
X147626000Y-40713110D01*
X147621915Y-40754591D01*
X147611607Y-40788569D01*
X147594867Y-40819887D01*
X147572339Y-40847339D01*
X147544887Y-40869867D01*
X147513569Y-40886607D01*
X147479591Y-40896915D01*
X147438110Y-40901000D01*
X146761890Y-40901000D01*
X146720409Y-40896915D01*
X146686431Y-40886607D01*
X146655113Y-40869867D01*
X146627661Y-40847339D01*
X146605133Y-40819887D01*
X146588393Y-40788569D01*
X146578085Y-40754591D01*
X146574000Y-40713110D01*
X146574000Y-40111890D01*
X146578085Y-40070409D01*
X146588393Y-40036431D01*
X146605133Y-40005113D01*
X146627661Y-39977661D01*
X146655113Y-39955133D01*
X146686431Y-39938393D01*
X146720409Y-39928085D01*
X146761890Y-39924000D01*
X147438110Y-39924000D01*
X147479591Y-39928085D01*
X147479591Y-39928085D01*
G37*
G36*
X148966001Y-40626000D02*
X148164001Y-40626000D01*
X148164001Y-40074000D01*
X148966001Y-40074000D01*
X148966001Y-40626000D01*
X148966001Y-40626000D01*
G37*
G36*
X148979591Y-38503085D02*
X149013569Y-38513393D01*
X149044887Y-38530133D01*
X149072339Y-38552661D01*
X149094867Y-38580113D01*
X149111607Y-38611431D01*
X149121915Y-38645409D01*
X149126000Y-38686890D01*
X149126000Y-39288110D01*
X149121915Y-39329591D01*
X149111607Y-39363569D01*
X149094867Y-39394887D01*
X149072339Y-39422339D01*
X149044887Y-39444867D01*
X149013569Y-39461607D01*
X148979591Y-39471915D01*
X148938110Y-39476000D01*
X148261890Y-39476000D01*
X148220409Y-39471915D01*
X148186431Y-39461607D01*
X148155113Y-39444867D01*
X148127661Y-39422339D01*
X148105133Y-39394887D01*
X148088393Y-39363569D01*
X148078085Y-39329591D01*
X148074000Y-39288110D01*
X148074000Y-38686890D01*
X148078085Y-38645409D01*
X148088393Y-38611431D01*
X148105133Y-38580113D01*
X148127661Y-38552661D01*
X148155113Y-38530133D01*
X148186431Y-38513393D01*
X148220409Y-38503085D01*
X148261890Y-38499000D01*
X148938110Y-38499000D01*
X148979591Y-38503085D01*
X148979591Y-38503085D01*
G37*
G36*
X147479591Y-38490585D02*
X147513569Y-38500893D01*
X147544887Y-38517633D01*
X147572339Y-38540161D01*
X147594867Y-38567613D01*
X147611607Y-38598931D01*
X147621915Y-38632909D01*
X147626000Y-38674390D01*
X147626000Y-39275610D01*
X147621915Y-39317091D01*
X147611607Y-39351069D01*
X147594867Y-39382387D01*
X147572339Y-39409839D01*
X147544887Y-39432367D01*
X147513569Y-39449107D01*
X147479591Y-39459415D01*
X147438110Y-39463500D01*
X146761890Y-39463500D01*
X146720409Y-39459415D01*
X146686431Y-39449107D01*
X146655113Y-39432367D01*
X146627661Y-39409839D01*
X146605133Y-39382387D01*
X146588393Y-39351069D01*
X146578085Y-39317091D01*
X146574000Y-39275610D01*
X146574000Y-38674390D01*
X146578085Y-38632909D01*
X146588393Y-38598931D01*
X146605133Y-38567613D01*
X146627661Y-38540161D01*
X146655113Y-38517633D01*
X146686431Y-38500893D01*
X146720409Y-38490585D01*
X146761890Y-38486500D01*
X147438110Y-38486500D01*
X147479591Y-38490585D01*
X147479591Y-38490585D01*
G37*
G36*
X164789941Y-32166248D02*
X164789943Y-32166249D01*
X164789944Y-32166249D01*
X165345190Y-32396239D01*
X165487966Y-32491639D01*
X165844902Y-32730136D01*
X166269864Y-33155098D01*
X166269866Y-33155101D01*
X166603761Y-33654810D01*
X166833751Y-34210056D01*
X166833752Y-34210059D01*
X166859636Y-34340186D01*
X166951000Y-34799503D01*
X166951000Y-35400497D01*
X166833751Y-35989944D01*
X166603761Y-36545190D01*
X166366684Y-36900000D01*
X166269864Y-37044902D01*
X165844902Y-37469864D01*
X165844899Y-37469866D01*
X165345190Y-37803761D01*
X164789944Y-38033751D01*
X164789943Y-38033751D01*
X164789941Y-38033752D01*
X164200499Y-38151000D01*
X163599501Y-38151000D01*
X163010059Y-38033752D01*
X163010057Y-38033751D01*
X163010056Y-38033751D01*
X162454810Y-37803761D01*
X161955101Y-37469866D01*
X161955098Y-37469864D01*
X161530136Y-37044902D01*
X161433316Y-36900000D01*
X161196239Y-36545190D01*
X160966249Y-35989944D01*
X160849000Y-35400497D01*
X160849000Y-34799503D01*
X160940364Y-34340186D01*
X160966248Y-34210059D01*
X160966249Y-34210056D01*
X161196239Y-33654810D01*
X161530134Y-33155101D01*
X161530136Y-33155098D01*
X161955098Y-32730136D01*
X162312034Y-32491639D01*
X162454810Y-32396239D01*
X163010056Y-32166249D01*
X163010057Y-32166249D01*
X163010059Y-32166248D01*
X163599501Y-32049000D01*
X164200499Y-32049000D01*
X164789941Y-32166248D01*
X164789941Y-32166248D01*
G37*
G36*
X138789941Y-32166248D02*
X138789943Y-32166249D01*
X138789944Y-32166249D01*
X139345190Y-32396239D01*
X139487966Y-32491639D01*
X139844902Y-32730136D01*
X140269864Y-33155098D01*
X140269866Y-33155101D01*
X140603761Y-33654810D01*
X140833751Y-34210056D01*
X140833752Y-34210059D01*
X140859636Y-34340186D01*
X140951000Y-34799503D01*
X140951000Y-35400497D01*
X140833751Y-35989944D01*
X140603761Y-36545190D01*
X140366684Y-36900000D01*
X140269864Y-37044902D01*
X139844902Y-37469864D01*
X139844899Y-37469866D01*
X139345190Y-37803761D01*
X138789944Y-38033751D01*
X138789943Y-38033751D01*
X138789941Y-38033752D01*
X138200499Y-38151000D01*
X137599501Y-38151000D01*
X137010059Y-38033752D01*
X137010057Y-38033751D01*
X137010056Y-38033751D01*
X136454810Y-37803761D01*
X135955101Y-37469866D01*
X135955098Y-37469864D01*
X135530136Y-37044902D01*
X135433316Y-36900000D01*
X135196239Y-36545190D01*
X134966249Y-35989944D01*
X134849000Y-35400497D01*
X134849000Y-34799503D01*
X134940364Y-34340186D01*
X134966248Y-34210059D01*
X134966249Y-34210056D01*
X135196239Y-33654810D01*
X135530134Y-33155101D01*
X135530136Y-33155098D01*
X135955098Y-32730136D01*
X136312034Y-32491639D01*
X136454810Y-32396239D01*
X137010056Y-32166249D01*
X137010057Y-32166249D01*
X137010059Y-32166248D01*
X137599501Y-32049000D01*
X138200499Y-32049000D01*
X138789941Y-32166248D01*
X138789941Y-32166248D01*
G37*
G36*
X148979591Y-36928085D02*
X149013569Y-36938393D01*
X149044887Y-36955133D01*
X149072339Y-36977661D01*
X149094867Y-37005113D01*
X149111607Y-37036431D01*
X149121915Y-37070409D01*
X149126000Y-37111890D01*
X149126000Y-37713110D01*
X149121915Y-37754591D01*
X149111607Y-37788569D01*
X149094867Y-37819887D01*
X149072339Y-37847339D01*
X149044887Y-37869867D01*
X149013569Y-37886607D01*
X148979591Y-37896915D01*
X148938110Y-37901000D01*
X148261890Y-37901000D01*
X148220409Y-37896915D01*
X148186431Y-37886607D01*
X148155113Y-37869867D01*
X148127661Y-37847339D01*
X148105133Y-37819887D01*
X148088393Y-37788569D01*
X148078085Y-37754591D01*
X148074000Y-37713110D01*
X148074000Y-37111890D01*
X148078085Y-37070409D01*
X148088393Y-37036431D01*
X148105133Y-37005113D01*
X148127661Y-36977661D01*
X148155113Y-36955133D01*
X148186431Y-36938393D01*
X148220409Y-36928085D01*
X148261890Y-36924000D01*
X148938110Y-36924000D01*
X148979591Y-36928085D01*
X148979591Y-36928085D01*
G37*
G36*
X147479591Y-36915585D02*
X147513569Y-36925893D01*
X147544887Y-36942633D01*
X147572339Y-36965161D01*
X147594867Y-36992613D01*
X147611607Y-37023931D01*
X147621915Y-37057909D01*
X147626000Y-37099390D01*
X147626000Y-37700610D01*
X147621915Y-37742091D01*
X147611607Y-37776069D01*
X147594867Y-37807387D01*
X147572339Y-37834839D01*
X147544887Y-37857367D01*
X147513569Y-37874107D01*
X147479591Y-37884415D01*
X147438110Y-37888500D01*
X146761890Y-37888500D01*
X146720409Y-37884415D01*
X146686431Y-37874107D01*
X146655113Y-37857367D01*
X146627661Y-37834839D01*
X146605133Y-37807387D01*
X146588393Y-37776069D01*
X146578085Y-37742091D01*
X146574000Y-37700610D01*
X146574000Y-37099390D01*
X146578085Y-37057909D01*
X146588393Y-37023931D01*
X146605133Y-36992613D01*
X146627661Y-36965161D01*
X146655113Y-36942633D01*
X146686431Y-36925893D01*
X146720409Y-36915585D01*
X146761890Y-36911500D01*
X147438110Y-36911500D01*
X147479591Y-36915585D01*
X147479591Y-36915585D01*
G37*
G36*
X132060443Y-36005519D02*
X132126627Y-36012037D01*
X132239853Y-36046384D01*
X132296467Y-36063557D01*
X132435087Y-36137652D01*
X132452991Y-36147222D01*
X132488729Y-36176552D01*
X132590186Y-36259814D01*
X132673448Y-36361271D01*
X132702778Y-36397009D01*
X132702779Y-36397011D01*
X132786443Y-36553533D01*
X132786443Y-36553534D01*
X132837963Y-36723373D01*
X132855359Y-36900000D01*
X132837963Y-37076627D01*
X132803616Y-37189853D01*
X132786443Y-37246467D01*
X132712348Y-37385087D01*
X132702778Y-37402991D01*
X132673448Y-37438729D01*
X132590186Y-37540186D01*
X132488729Y-37623448D01*
X132452991Y-37652778D01*
X132452989Y-37652779D01*
X132296467Y-37736443D01*
X132251049Y-37750220D01*
X132126627Y-37787963D01*
X132081089Y-37792448D01*
X131994260Y-37801000D01*
X131605740Y-37801000D01*
X131518911Y-37792448D01*
X131473373Y-37787963D01*
X131348951Y-37750220D01*
X131303533Y-37736443D01*
X131147011Y-37652779D01*
X131147009Y-37652778D01*
X131111271Y-37623448D01*
X131009814Y-37540186D01*
X130926552Y-37438729D01*
X130897222Y-37402991D01*
X130887652Y-37385087D01*
X130813557Y-37246467D01*
X130796384Y-37189853D01*
X130762037Y-37076627D01*
X130744641Y-36900000D01*
X130762037Y-36723373D01*
X130813557Y-36553534D01*
X130813557Y-36553533D01*
X130897221Y-36397011D01*
X130897222Y-36397009D01*
X130926552Y-36361271D01*
X131009814Y-36259814D01*
X131111271Y-36176552D01*
X131147009Y-36147222D01*
X131164913Y-36137652D01*
X131303533Y-36063557D01*
X131360147Y-36046384D01*
X131473373Y-36012037D01*
X131539557Y-36005519D01*
X131605740Y-35999000D01*
X131994260Y-35999000D01*
X132060443Y-36005519D01*
X132060443Y-36005519D01*
G37*
G36*
X132708600Y-33502989D02*
X132741649Y-33513014D01*
X132772106Y-33529294D01*
X132798799Y-33551201D01*
X132820706Y-33577894D01*
X132836986Y-33608351D01*
X132847011Y-33641400D01*
X132851000Y-33681904D01*
X132851000Y-35118096D01*
X132847011Y-35158600D01*
X132836986Y-35191649D01*
X132820706Y-35222106D01*
X132798799Y-35248799D01*
X132772106Y-35270706D01*
X132741649Y-35286986D01*
X132708600Y-35297011D01*
X132668096Y-35301000D01*
X130931904Y-35301000D01*
X130891400Y-35297011D01*
X130858351Y-35286986D01*
X130827894Y-35270706D01*
X130801201Y-35248799D01*
X130779294Y-35222106D01*
X130763014Y-35191649D01*
X130752989Y-35158600D01*
X130749000Y-35118096D01*
X130749000Y-33681904D01*
X130752989Y-33641400D01*
X130763014Y-33608351D01*
X130779294Y-33577894D01*
X130801201Y-33551201D01*
X130827894Y-33529294D01*
X130858351Y-33513014D01*
X130891400Y-33502989D01*
X130931904Y-33499000D01*
X132668096Y-33499000D01*
X132708600Y-33502989D01*
X132708600Y-33502989D01*
G37*
G36*
X154101000Y-34601000D02*
X152299000Y-34601000D01*
X152299000Y-32799000D01*
X154101000Y-32799000D01*
X154101000Y-34601000D01*
X154101000Y-34601000D01*
G37*
G36*
X150770443Y-32805519D02*
X150836627Y-32812037D01*
X150949853Y-32846384D01*
X151006467Y-32863557D01*
X151145087Y-32937652D01*
X151162991Y-32947222D01*
X151198729Y-32976552D01*
X151300186Y-33059814D01*
X151378382Y-33155098D01*
X151412778Y-33197009D01*
X151412779Y-33197011D01*
X151496443Y-33353533D01*
X151513616Y-33410147D01*
X151547963Y-33523373D01*
X151565359Y-33700000D01*
X151547963Y-33876627D01*
X151513616Y-33989853D01*
X151496443Y-34046467D01*
X151422348Y-34185087D01*
X151412778Y-34202991D01*
X151406977Y-34210059D01*
X151300186Y-34340186D01*
X151198729Y-34423448D01*
X151162991Y-34452778D01*
X151162989Y-34452779D01*
X151006467Y-34536443D01*
X150949853Y-34553616D01*
X150836627Y-34587963D01*
X150770442Y-34594482D01*
X150704260Y-34601000D01*
X150615740Y-34601000D01*
X150549558Y-34594482D01*
X150483373Y-34587963D01*
X150370147Y-34553616D01*
X150313533Y-34536443D01*
X150157011Y-34452779D01*
X150157009Y-34452778D01*
X150121271Y-34423448D01*
X150019814Y-34340186D01*
X149913023Y-34210059D01*
X149907222Y-34202991D01*
X149897652Y-34185087D01*
X149823557Y-34046467D01*
X149806384Y-33989853D01*
X149772037Y-33876627D01*
X149754641Y-33700000D01*
X149772037Y-33523373D01*
X149806384Y-33410147D01*
X149823557Y-33353533D01*
X149907221Y-33197011D01*
X149907222Y-33197009D01*
X149941618Y-33155098D01*
X150019814Y-33059814D01*
X150121271Y-32976552D01*
X150157009Y-32947222D01*
X150174913Y-32937652D01*
X150313533Y-32863557D01*
X150370147Y-32846384D01*
X150483373Y-32812037D01*
X150549557Y-32805519D01*
X150615740Y-32799000D01*
X150704260Y-32799000D01*
X150770443Y-32805519D01*
X150770443Y-32805519D01*
G37*
G36*
X148230443Y-32805519D02*
X148296627Y-32812037D01*
X148409853Y-32846384D01*
X148466467Y-32863557D01*
X148605087Y-32937652D01*
X148622991Y-32947222D01*
X148658729Y-32976552D01*
X148760186Y-33059814D01*
X148838382Y-33155098D01*
X148872778Y-33197009D01*
X148872779Y-33197011D01*
X148956443Y-33353533D01*
X148973616Y-33410147D01*
X149007963Y-33523373D01*
X149025359Y-33700000D01*
X149007963Y-33876627D01*
X148973616Y-33989853D01*
X148956443Y-34046467D01*
X148882348Y-34185087D01*
X148872778Y-34202991D01*
X148866977Y-34210059D01*
X148760186Y-34340186D01*
X148658729Y-34423448D01*
X148622991Y-34452778D01*
X148622989Y-34452779D01*
X148466467Y-34536443D01*
X148409853Y-34553616D01*
X148296627Y-34587963D01*
X148230442Y-34594482D01*
X148164260Y-34601000D01*
X148075740Y-34601000D01*
X148009558Y-34594482D01*
X147943373Y-34587963D01*
X147830147Y-34553616D01*
X147773533Y-34536443D01*
X147617011Y-34452779D01*
X147617009Y-34452778D01*
X147581271Y-34423448D01*
X147479814Y-34340186D01*
X147373023Y-34210059D01*
X147367222Y-34202991D01*
X147357652Y-34185087D01*
X147283557Y-34046467D01*
X147266384Y-33989853D01*
X147232037Y-33876627D01*
X147214641Y-33700000D01*
X147232037Y-33523373D01*
X147266384Y-33410147D01*
X147283557Y-33353533D01*
X147367221Y-33197011D01*
X147367222Y-33197009D01*
X147401618Y-33155098D01*
X147479814Y-33059814D01*
X147581271Y-32976552D01*
X147617009Y-32947222D01*
X147634913Y-32937652D01*
X147773533Y-32863557D01*
X147830147Y-32846384D01*
X147943373Y-32812037D01*
X148009557Y-32805519D01*
X148075740Y-32799000D01*
X148164260Y-32799000D01*
X148230443Y-32805519D01*
X148230443Y-32805519D01*
G37*
G36*
X129989890Y-32174017D02*
X130108361Y-32223089D01*
X130214992Y-32294338D01*
X130305662Y-32385008D01*
X130305664Y-32385011D01*
X130305665Y-32385012D01*
X130313167Y-32396240D01*
X130376911Y-32491639D01*
X130425983Y-32610110D01*
X130451000Y-32735881D01*
X130451000Y-32864119D01*
X130425983Y-32989890D01*
X130376911Y-33108361D01*
X130305662Y-33214992D01*
X130214992Y-33305662D01*
X130214989Y-33305664D01*
X130214988Y-33305665D01*
X130143347Y-33353534D01*
X130108361Y-33376911D01*
X129989890Y-33425983D01*
X129864119Y-33451000D01*
X129735881Y-33451000D01*
X129610110Y-33425983D01*
X129491639Y-33376911D01*
X129456653Y-33353534D01*
X129385012Y-33305665D01*
X129385011Y-33305664D01*
X129385008Y-33305662D01*
X129294338Y-33214992D01*
X129223089Y-33108361D01*
X129174017Y-32989890D01*
X129149000Y-32864119D01*
X129149000Y-32735881D01*
X129174017Y-32610110D01*
X129223089Y-32491639D01*
X129286833Y-32396240D01*
X129294335Y-32385012D01*
X129294336Y-32385011D01*
X129294338Y-32385008D01*
X129385008Y-32294338D01*
X129491639Y-32223089D01*
X129610110Y-32174017D01*
X129735881Y-32149000D01*
X129864119Y-32149000D01*
X129989890Y-32174017D01*
X129989890Y-32174017D01*
G37*
M02*
