G04 #@! TF.GenerationSoftware,KiCad,Pcbnew,7.0.3-24-g09febce4ce*
G04 #@! TF.CreationDate,2023-05-24T02:24:53-07:00*
G04 #@! TF.ProjectId,t962,74393632-2e6b-4696-9361-645f70636258,2.0*
G04 #@! TF.SameCoordinates,Original*
G04 #@! TF.FileFunction,Copper,L2,Bot*
G04 #@! TF.FilePolarity,Positive*
%FSLAX46Y46*%
G04 Gerber Fmt 4.6, Leading zero omitted, Abs format (unit mm)*
G04 Created by KiCad (PCBNEW 7.0.3-24-g09febce4ce) date 2023-05-24 02:24:53*
%MOMM*%
%LPD*%
G01*
G04 APERTURE LIST*
G04 Aperture macros list*
%AMRoundRect*
0 Rectangle with rounded corners*
0 $1 Rounding radius*
0 $2 $3 $4 $5 $6 $7 $8 $9 X,Y pos of 4 corners*
0 Add a 4 corners polygon primitive as box body*
4,1,4,$2,$3,$4,$5,$6,$7,$8,$9,$2,$3,0*
0 Add four circle primitives for the rounded corners*
1,1,$1+$1,$2,$3*
1,1,$1+$1,$4,$5*
1,1,$1+$1,$6,$7*
1,1,$1+$1,$8,$9*
0 Add four rect primitives between the rounded corners*
20,1,$1+$1,$2,$3,$4,$5,0*
20,1,$1+$1,$4,$5,$6,$7,0*
20,1,$1+$1,$6,$7,$8,$9,0*
20,1,$1+$1,$8,$9,$2,$3,0*%
G04 Aperture macros list end*
G04 #@! TA.AperFunction,ComponentPad*
%ADD10RoundRect,0.250000X0.600000X0.750000X-0.600000X0.750000X-0.600000X-0.750000X0.600000X-0.750000X0*%
G04 #@! TD*
G04 #@! TA.AperFunction,ComponentPad*
%ADD11O,1.700000X2.000000*%
G04 #@! TD*
G04 #@! TA.AperFunction,ComponentPad*
%ADD12RoundRect,0.250000X-0.750000X0.600000X-0.750000X-0.600000X0.750000X-0.600000X0.750000X0.600000X0*%
G04 #@! TD*
G04 #@! TA.AperFunction,ComponentPad*
%ADD13O,2.000000X1.700000*%
G04 #@! TD*
G04 #@! TA.AperFunction,ComponentPad*
%ADD14O,2.100000X1.050000*%
G04 #@! TD*
G04 #@! TA.AperFunction,ComponentPad*
%ADD15O,2.000000X1.000000*%
G04 #@! TD*
G04 #@! TA.AperFunction,ComponentPad*
%ADD16R,1.700000X1.700000*%
G04 #@! TD*
G04 #@! TA.AperFunction,ComponentPad*
%ADD17O,1.700000X1.700000*%
G04 #@! TD*
G04 #@! TA.AperFunction,ComponentPad*
%ADD18R,2.100000X2.100000*%
G04 #@! TD*
G04 #@! TA.AperFunction,ComponentPad*
%ADD19C,2.100000*%
G04 #@! TD*
G04 #@! TA.AperFunction,ComponentPad*
%ADD20C,6.000000*%
G04 #@! TD*
G04 #@! TA.AperFunction,ViaPad*
%ADD21C,0.600000*%
G04 #@! TD*
G04 #@! TA.AperFunction,Conductor*
%ADD22C,0.800000*%
G04 #@! TD*
G04 #@! TA.AperFunction,Conductor*
%ADD23C,0.250000*%
G04 #@! TD*
G04 #@! TA.AperFunction,Conductor*
%ADD24C,0.500000*%
G04 #@! TD*
G04 #@! TA.AperFunction,Conductor*
%ADD25C,0.200000*%
G04 #@! TD*
G04 #@! TA.AperFunction,Conductor*
%ADD26C,0.300000*%
G04 #@! TD*
G04 APERTURE END LIST*
D10*
X164900000Y-43500000D03*
D11*
X162400000Y-43500000D03*
X149800000Y-62300000D03*
D10*
X152300000Y-62300000D03*
D12*
X131800000Y-34400000D03*
D13*
X131800000Y-36900000D03*
D14*
X162120000Y-57520000D03*
D15*
X166300000Y-57520000D03*
D14*
X162120000Y-48880000D03*
D15*
X166300000Y-48880000D03*
D16*
X165862000Y-61468000D03*
D17*
X165862000Y-64008000D03*
X165862000Y-66548000D03*
D16*
X130300000Y-73700000D03*
D17*
X130300000Y-71160000D03*
D18*
X130800000Y-64640000D03*
D19*
X130800000Y-62100000D03*
X130800000Y-59560000D03*
X130800000Y-57020000D03*
X130800000Y-54480000D03*
X130800000Y-51940000D03*
X130800000Y-49400000D03*
X130800000Y-46860000D03*
D20*
X137900000Y-72100000D03*
X163900000Y-72100000D03*
X137900000Y-35100000D03*
X163900000Y-35100000D03*
D16*
X154400000Y-33750000D03*
D17*
X151860000Y-33750000D03*
X149320000Y-33750000D03*
D16*
X158200000Y-56700000D03*
D17*
X158200000Y-54160000D03*
X158200000Y-51620000D03*
X158200000Y-49080000D03*
D16*
X153600000Y-73300000D03*
D17*
X151060000Y-73300000D03*
X148520000Y-73300000D03*
X145980000Y-73300000D03*
X143440000Y-73300000D03*
D21*
X150400000Y-36650000D03*
X154250000Y-48950000D03*
X148000000Y-75500000D03*
X159700000Y-60100000D03*
X157500000Y-44450000D03*
X151100000Y-59200000D03*
X144350000Y-55350000D03*
X154175500Y-52900000D03*
X167200000Y-50300000D03*
X167200000Y-56100000D03*
X165200000Y-50200000D03*
X165200000Y-56100000D03*
X162900000Y-54900000D03*
X162900000Y-51700000D03*
X155150000Y-55000000D03*
X129100000Y-60850000D03*
X129100000Y-55750000D03*
X129050000Y-50700000D03*
X128900000Y-67100000D03*
X149850000Y-71100000D03*
X155450000Y-75350000D03*
X130500000Y-39100000D03*
X133050000Y-38850000D03*
X140250000Y-41100000D03*
X147100000Y-36550000D03*
X148550000Y-42450000D03*
X147750000Y-44450000D03*
X155750000Y-62000000D03*
X144650000Y-63350000D03*
X132850000Y-49850000D03*
X151550000Y-39150000D03*
X156100000Y-31900000D03*
X146500000Y-31700000D03*
X141891041Y-31790637D03*
X136200000Y-42300000D03*
X132550000Y-55700000D03*
X137150000Y-62000000D03*
X132550000Y-61000000D03*
X160650000Y-64200000D03*
X162250000Y-59050000D03*
X164150000Y-60550000D03*
X160200000Y-47500000D03*
X162700000Y-47300000D03*
X167100000Y-47100000D03*
X166800000Y-59100000D03*
X149700000Y-64500000D03*
X142750000Y-44600000D03*
X142962774Y-41975061D03*
X145900000Y-46600000D03*
X144900500Y-59724393D03*
X156200000Y-63124451D03*
X155100000Y-46400000D03*
X152600000Y-45700000D03*
X146800000Y-57400000D03*
X150000000Y-57100000D03*
X150000000Y-60400000D03*
X152300000Y-60200000D03*
X152600000Y-55100000D03*
X154800000Y-50200000D03*
X146600000Y-61000000D03*
X144400000Y-51400000D03*
X146800000Y-54800000D03*
X144691785Y-40723973D03*
X147100000Y-50650000D03*
X143700000Y-40600000D03*
X146488000Y-51187033D03*
X150700000Y-46700000D03*
X146400000Y-49000000D03*
X145000000Y-45900000D03*
X141200000Y-55450002D03*
X138400000Y-67450000D03*
X141200000Y-61450016D03*
X141199972Y-62750000D03*
X141200000Y-56823497D03*
X140686285Y-50986285D03*
X141500000Y-67350002D03*
X140581383Y-47050000D03*
X160751019Y-49723240D03*
X160590479Y-50764075D03*
X160500000Y-55600000D03*
X156550000Y-52900000D03*
X160366955Y-52235500D03*
X135400000Y-49700000D03*
X139800000Y-58100000D03*
X139500000Y-63400000D03*
X135500000Y-54600000D03*
X142299311Y-51399311D03*
X149800000Y-41700000D03*
X157500000Y-39379990D03*
X144681609Y-65513445D03*
X139371416Y-51602802D03*
X139200000Y-47400000D03*
X137000000Y-41100000D03*
X135600000Y-66500000D03*
X135400000Y-60700000D03*
X150900000Y-69600000D03*
X158700000Y-62225000D03*
X158700000Y-68775000D03*
X134675000Y-45475000D03*
X155700000Y-65000000D03*
X142049500Y-46936993D03*
X142950000Y-57925000D03*
X143000000Y-63950000D03*
X145375000Y-68475000D03*
X136800000Y-45000000D03*
X151800000Y-41800000D03*
D22*
X162400000Y-43500000D02*
X162400000Y-44150000D01*
X164000000Y-58700000D02*
X161700000Y-61000000D01*
X162400000Y-44150000D02*
X164000000Y-45750000D01*
X164000000Y-45750000D02*
X164000000Y-58700000D01*
X161700000Y-61000000D02*
X158324451Y-61000000D01*
X158324451Y-61000000D02*
X156200000Y-63124451D01*
D23*
X146488000Y-51187033D02*
X146475000Y-51174033D01*
X146475000Y-51174033D02*
X146475000Y-50661396D01*
X146475000Y-50661396D02*
X143800000Y-47986396D01*
X143800000Y-40700000D02*
X143700000Y-40600000D01*
X143800000Y-47986396D02*
X143800000Y-40700000D01*
X147100000Y-50650000D02*
X144250000Y-47800000D01*
X144250000Y-47800000D02*
X144250000Y-41165758D01*
X144250000Y-41165758D02*
X144691785Y-40723973D01*
D24*
X151100000Y-59200000D02*
X151100000Y-51900000D01*
X153450000Y-44502953D02*
X151800000Y-42852953D01*
X151100000Y-51900000D02*
X153450000Y-49550000D01*
X153450000Y-49550000D02*
X153450000Y-44502953D01*
X151800000Y-42852953D02*
X151800000Y-41800000D01*
X154175500Y-52900000D02*
X154175500Y-52424500D01*
X154175500Y-52424500D02*
X157520000Y-49080000D01*
X157520000Y-49080000D02*
X158200000Y-49080000D01*
D22*
X136800000Y-45000000D02*
X138050000Y-43750000D01*
X138050000Y-43750000D02*
X140276721Y-43750000D01*
X145550000Y-53800000D02*
X145550000Y-58050000D01*
X140276721Y-43750000D02*
X143075000Y-46548279D01*
X143075000Y-46548279D02*
X143075000Y-50625689D01*
X144050000Y-52300000D02*
X145550000Y-53800000D01*
X143075000Y-50625689D02*
X143400000Y-50950689D01*
X143400000Y-50950689D02*
X143400000Y-51672793D01*
X143400000Y-51672793D02*
X144027207Y-52300000D01*
X144027207Y-52300000D02*
X144050000Y-52300000D01*
X145550000Y-58050000D02*
X149800000Y-62300000D01*
X141199972Y-65200028D02*
X138950000Y-67450000D01*
X138950000Y-67450000D02*
X138400000Y-67450000D01*
D25*
X138950000Y-67450000D02*
X140100000Y-66300000D01*
D22*
X141199972Y-62750000D02*
X141199972Y-65200028D01*
X141199972Y-61450044D02*
X141200000Y-61450016D01*
X141199972Y-62750000D02*
X141199972Y-61450044D01*
X141200000Y-61450016D02*
X141200000Y-56823497D01*
X141200000Y-56823497D02*
X141200000Y-55450002D01*
X140581383Y-47050000D02*
X140581383Y-50881383D01*
X140581383Y-50881383D02*
X140686285Y-50986285D01*
X141200000Y-55450002D02*
X140700000Y-54950002D01*
X140700000Y-54950002D02*
X140700000Y-51000000D01*
X140700000Y-51000000D02*
X140686285Y-50986285D01*
D24*
X143125000Y-49838173D02*
X143125000Y-46475000D01*
X143149311Y-49862484D02*
X143125000Y-49838173D01*
X162900000Y-51700000D02*
X162727779Y-51700000D01*
X162727779Y-51700000D02*
X160751019Y-49723240D01*
X148400000Y-49000000D02*
X150700000Y-46700000D01*
X146400000Y-49000000D02*
X148400000Y-49000000D01*
X145000000Y-47600000D02*
X146400000Y-49000000D01*
X145000000Y-45900000D02*
X145000000Y-47600000D01*
D25*
X140100000Y-66515687D02*
X140100000Y-66300000D01*
X140934315Y-67350002D02*
X140100000Y-66515687D01*
X141500000Y-67350002D02*
X140934315Y-67350002D01*
X140100000Y-66300000D02*
X141199972Y-65200028D01*
D24*
X160500000Y-55600000D02*
X161500000Y-54600000D01*
X161500000Y-54600000D02*
X161500000Y-51673596D01*
X161500000Y-51673596D02*
X160590479Y-50764075D01*
D26*
X160124500Y-52235500D02*
X158200000Y-54160000D01*
X160366955Y-52235500D02*
X160124500Y-52235500D01*
G04 #@! TA.AperFunction,Conductor*
G36*
X137672614Y-31370502D02*
G01*
X137719107Y-31424158D01*
X137729211Y-31494432D01*
X137699717Y-31559012D01*
X137639991Y-31597396D01*
X137611087Y-31602327D01*
X137532817Y-31606428D01*
X137169646Y-31663948D01*
X136814489Y-31759112D01*
X136814476Y-31759116D01*
X136471219Y-31890880D01*
X136471211Y-31890884D01*
X136143602Y-32057809D01*
X136143596Y-32057812D01*
X135835227Y-32258068D01*
X135835222Y-32258072D01*
X135604287Y-32445078D01*
X137033538Y-33874329D01*
X136975523Y-33912232D01*
X136792632Y-34080596D01*
X136673914Y-34233123D01*
X135245078Y-32804287D01*
X135058072Y-33035222D01*
X135058068Y-33035227D01*
X134857812Y-33343596D01*
X134857809Y-33343602D01*
X134690884Y-33671211D01*
X134690880Y-33671219D01*
X134559116Y-34014476D01*
X134559112Y-34014489D01*
X134463948Y-34369646D01*
X134406428Y-34732817D01*
X134387186Y-35099992D01*
X134387186Y-35100007D01*
X134406428Y-35467182D01*
X134463948Y-35830353D01*
X134559112Y-36185510D01*
X134559116Y-36185523D01*
X134690880Y-36528780D01*
X134690884Y-36528788D01*
X134857809Y-36856397D01*
X134857812Y-36856403D01*
X135058077Y-37164784D01*
X135058081Y-37164789D01*
X135245077Y-37395710D01*
X135245078Y-37395711D01*
X136673913Y-35966875D01*
X136792632Y-36119404D01*
X136975523Y-36287768D01*
X137033537Y-36325670D01*
X135604287Y-37754920D01*
X135604288Y-37754921D01*
X135835210Y-37941918D01*
X135835215Y-37941922D01*
X136143596Y-38142187D01*
X136143602Y-38142190D01*
X136471211Y-38309115D01*
X136471219Y-38309119D01*
X136814476Y-38440883D01*
X136814489Y-38440887D01*
X137169646Y-38536051D01*
X137532817Y-38593571D01*
X137899993Y-38612814D01*
X137900007Y-38612814D01*
X138267182Y-38593571D01*
X138630353Y-38536051D01*
X138985510Y-38440887D01*
X138985523Y-38440883D01*
X139328780Y-38309119D01*
X139328788Y-38309115D01*
X139656397Y-38142190D01*
X139656403Y-38142187D01*
X139964782Y-37941924D01*
X140195711Y-37754920D01*
X138766461Y-36325670D01*
X138824477Y-36287768D01*
X139007368Y-36119404D01*
X139126085Y-35966876D01*
X140554920Y-37395711D01*
X140741924Y-37164782D01*
X140942187Y-36856403D01*
X140942190Y-36856397D01*
X141109115Y-36528788D01*
X141109119Y-36528780D01*
X141240883Y-36185523D01*
X141240887Y-36185510D01*
X141336051Y-35830353D01*
X141393571Y-35467182D01*
X141412814Y-35100007D01*
X141412814Y-35099992D01*
X141393571Y-34732817D01*
X141336051Y-34369646D01*
X141240887Y-34014489D01*
X141240883Y-34014476D01*
X141236862Y-34004000D01*
X147983455Y-34004000D01*
X148031176Y-34192449D01*
X148031179Y-34192456D01*
X148121580Y-34398548D01*
X148244674Y-34586958D01*
X148397097Y-34752534D01*
X148574698Y-34890767D01*
X148574699Y-34890768D01*
X148772628Y-34997882D01*
X148772630Y-34997883D01*
X148985483Y-35070955D01*
X148985492Y-35070957D01*
X149066000Y-35084391D01*
X149066000Y-34183674D01*
X149177685Y-34234680D01*
X149284237Y-34250000D01*
X149355763Y-34250000D01*
X149462315Y-34234680D01*
X149574000Y-34183674D01*
X149574000Y-35084390D01*
X149654507Y-35070957D01*
X149654516Y-35070955D01*
X149867369Y-34997883D01*
X149867371Y-34997882D01*
X150065300Y-34890768D01*
X150065301Y-34890767D01*
X150242902Y-34752534D01*
X150395325Y-34586958D01*
X150518419Y-34398548D01*
X150610916Y-34187680D01*
X150612538Y-34188391D01*
X150649051Y-34136816D01*
X150714889Y-34110248D01*
X150784640Y-34123492D01*
X150836157Y-34172343D01*
X150840002Y-34179481D01*
X150916908Y-34333930D01*
X150916912Y-34333935D01*
X151040266Y-34497284D01*
X151191536Y-34635185D01*
X151365566Y-34742940D01*
X151365568Y-34742940D01*
X151365573Y-34742944D01*
X151556444Y-34816888D01*
X151757653Y-34854500D01*
X151757655Y-34854500D01*
X151962345Y-34854500D01*
X151962347Y-34854500D01*
X152163556Y-34816888D01*
X152354427Y-34742944D01*
X152528462Y-34635186D01*
X152539566Y-34625063D01*
X153295500Y-34625063D01*
X153295501Y-34625073D01*
X153310265Y-34699300D01*
X153366516Y-34783484D01*
X153450697Y-34839733D01*
X153450699Y-34839734D01*
X153524933Y-34854500D01*
X155275066Y-34854499D01*
X155275069Y-34854498D01*
X155275073Y-34854498D01*
X155324326Y-34844701D01*
X155349301Y-34839734D01*
X155433484Y-34783484D01*
X155489734Y-34699301D01*
X155504500Y-34625067D01*
X155504499Y-32874934D01*
X155504498Y-32874930D01*
X155504498Y-32874926D01*
X155489734Y-32800699D01*
X155433483Y-32716515D01*
X155349302Y-32660266D01*
X155275067Y-32645500D01*
X153524936Y-32645500D01*
X153524926Y-32645501D01*
X153450699Y-32660265D01*
X153366515Y-32716516D01*
X153310266Y-32800697D01*
X153295500Y-32874930D01*
X153295500Y-34625063D01*
X152539566Y-34625063D01*
X152679732Y-34497285D01*
X152803088Y-34333935D01*
X152894328Y-34150701D01*
X152950345Y-33953821D01*
X152956640Y-33885880D01*
X152969232Y-33750004D01*
X152969232Y-33749995D01*
X152950345Y-33546180D01*
X152936068Y-33496000D01*
X152894328Y-33349299D01*
X152803088Y-33166065D01*
X152745730Y-33090110D01*
X152679733Y-33002715D01*
X152528463Y-32864814D01*
X152354433Y-32757059D01*
X152354428Y-32757057D01*
X152354427Y-32757056D01*
X152329670Y-32747465D01*
X152163559Y-32683113D01*
X152163560Y-32683113D01*
X152163557Y-32683112D01*
X152163556Y-32683112D01*
X151962347Y-32645500D01*
X151757653Y-32645500D01*
X151556444Y-32683112D01*
X151556439Y-32683113D01*
X151365577Y-32757054D01*
X151365566Y-32757059D01*
X151191536Y-32864814D01*
X151040266Y-33002715D01*
X150916912Y-33166064D01*
X150916908Y-33166069D01*
X150840002Y-33320518D01*
X150791733Y-33372582D01*
X150722979Y-33390284D01*
X150655568Y-33368004D01*
X150610905Y-33312817D01*
X150609432Y-33308938D01*
X150518419Y-33101451D01*
X150395325Y-32913041D01*
X150242902Y-32747465D01*
X150065301Y-32609232D01*
X150065300Y-32609231D01*
X149867371Y-32502117D01*
X149867369Y-32502116D01*
X149654512Y-32429043D01*
X149654501Y-32429040D01*
X149574000Y-32415606D01*
X149574000Y-33316325D01*
X149462315Y-33265320D01*
X149355763Y-33250000D01*
X149284237Y-33250000D01*
X149177685Y-33265320D01*
X149066000Y-33316325D01*
X149066000Y-32415606D01*
X149065999Y-32415606D01*
X148985498Y-32429040D01*
X148985487Y-32429043D01*
X148772630Y-32502116D01*
X148772628Y-32502117D01*
X148574699Y-32609231D01*
X148574698Y-32609232D01*
X148397097Y-32747465D01*
X148244674Y-32913041D01*
X148121580Y-33101451D01*
X148031179Y-33307543D01*
X148031176Y-33307550D01*
X147983455Y-33495999D01*
X147983456Y-33496000D01*
X148888884Y-33496000D01*
X148860507Y-33540156D01*
X148820000Y-33678111D01*
X148820000Y-33821889D01*
X148860507Y-33959844D01*
X148888884Y-34004000D01*
X147983455Y-34004000D01*
X141236862Y-34004000D01*
X141109119Y-33671219D01*
X141109115Y-33671211D01*
X140942190Y-33343602D01*
X140942187Y-33343596D01*
X140741922Y-33035215D01*
X140741918Y-33035210D01*
X140554921Y-32804288D01*
X140554920Y-32804287D01*
X139126084Y-34233122D01*
X139007368Y-34080596D01*
X138824477Y-33912232D01*
X138766461Y-33874328D01*
X140195711Y-32445078D01*
X140195710Y-32445077D01*
X139964789Y-32258081D01*
X139964784Y-32258077D01*
X139656403Y-32057812D01*
X139656397Y-32057809D01*
X139328788Y-31890884D01*
X139328780Y-31890880D01*
X138985523Y-31759116D01*
X138985510Y-31759112D01*
X138630353Y-31663948D01*
X138267182Y-31606428D01*
X138188913Y-31602327D01*
X138121932Y-31578787D01*
X138078311Y-31522772D01*
X138071899Y-31452066D01*
X138104731Y-31389117D01*
X138166385Y-31353912D01*
X138195507Y-31350500D01*
X163604493Y-31350500D01*
X163672614Y-31370502D01*
X163719107Y-31424158D01*
X163729211Y-31494432D01*
X163699717Y-31559012D01*
X163639991Y-31597396D01*
X163611087Y-31602327D01*
X163532817Y-31606428D01*
X163169646Y-31663948D01*
X162814489Y-31759112D01*
X162814476Y-31759116D01*
X162471219Y-31890880D01*
X162471211Y-31890884D01*
X162143602Y-32057809D01*
X162143596Y-32057812D01*
X161835227Y-32258068D01*
X161835222Y-32258072D01*
X161604287Y-32445078D01*
X163033538Y-33874329D01*
X162975523Y-33912232D01*
X162792632Y-34080596D01*
X162673914Y-34233123D01*
X161245078Y-32804287D01*
X161058072Y-33035222D01*
X161058068Y-33035227D01*
X160857812Y-33343596D01*
X160857809Y-33343602D01*
X160690884Y-33671211D01*
X160690880Y-33671219D01*
X160559116Y-34014476D01*
X160559112Y-34014489D01*
X160463948Y-34369646D01*
X160406428Y-34732817D01*
X160387186Y-35099992D01*
X160387186Y-35100007D01*
X160406428Y-35467182D01*
X160463948Y-35830353D01*
X160559112Y-36185510D01*
X160559116Y-36185523D01*
X160690880Y-36528780D01*
X160690884Y-36528788D01*
X160857809Y-36856397D01*
X160857812Y-36856403D01*
X161058077Y-37164784D01*
X161058081Y-37164789D01*
X161245077Y-37395710D01*
X161245078Y-37395711D01*
X162673913Y-35966875D01*
X162792632Y-36119404D01*
X162975523Y-36287768D01*
X163033537Y-36325670D01*
X161604287Y-37754920D01*
X161604288Y-37754921D01*
X161835210Y-37941918D01*
X161835215Y-37941922D01*
X162143596Y-38142187D01*
X162143602Y-38142190D01*
X162471211Y-38309115D01*
X162471219Y-38309119D01*
X162814476Y-38440883D01*
X162814489Y-38440887D01*
X163169646Y-38536051D01*
X163532817Y-38593571D01*
X163899993Y-38612814D01*
X163900007Y-38612814D01*
X164267182Y-38593571D01*
X164630353Y-38536051D01*
X164985510Y-38440887D01*
X164985523Y-38440883D01*
X165328780Y-38309119D01*
X165328788Y-38309115D01*
X165656397Y-38142190D01*
X165656403Y-38142187D01*
X165964782Y-37941924D01*
X166195711Y-37754920D01*
X164766461Y-36325670D01*
X164824477Y-36287768D01*
X165007368Y-36119404D01*
X165126085Y-35966876D01*
X166554920Y-37395711D01*
X166741924Y-37164782D01*
X166942187Y-36856403D01*
X166942190Y-36856397D01*
X167109115Y-36528788D01*
X167109119Y-36528780D01*
X167240883Y-36185523D01*
X167240887Y-36185510D01*
X167336051Y-35830353D01*
X167393571Y-35467182D01*
X167397673Y-35388912D01*
X167421212Y-35321931D01*
X167477228Y-35278310D01*
X167547934Y-35271898D01*
X167610883Y-35304730D01*
X167646088Y-35366384D01*
X167649500Y-35395506D01*
X167649500Y-48377347D01*
X167629498Y-48445468D01*
X167575842Y-48491961D01*
X167505568Y-48502065D01*
X167440988Y-48472571D01*
X167422433Y-48452589D01*
X167352539Y-48358706D01*
X167217428Y-48245333D01*
X167059811Y-48166176D01*
X167059810Y-48166176D01*
X166888188Y-48125500D01*
X165756059Y-48125500D01*
X165756056Y-48125500D01*
X165624816Y-48140839D01*
X165624814Y-48140840D01*
X165459080Y-48201162D01*
X165459073Y-48201165D01*
X165311714Y-48298085D01*
X165190679Y-48426375D01*
X165190676Y-48426379D01*
X165102492Y-48579118D01*
X165102490Y-48579124D01*
X165051905Y-48748091D01*
X165041649Y-48924169D01*
X165069127Y-49080004D01*
X165072278Y-49097870D01*
X165072278Y-49097871D01*
X165142134Y-49259815D01*
X165142136Y-49259819D01*
X165247460Y-49401293D01*
X165382571Y-49514666D01*
X165382573Y-49514667D01*
X165540189Y-49593824D01*
X165711812Y-49634500D01*
X165711814Y-49634500D01*
X166843944Y-49634500D01*
X166942373Y-49622995D01*
X166975184Y-49619160D01*
X167140924Y-49558836D01*
X167288285Y-49461915D01*
X167409322Y-49333623D01*
X167414380Y-49324861D01*
X167465761Y-49275868D01*
X167535475Y-49262430D01*
X167601386Y-49288816D01*
X167642569Y-49346647D01*
X167649500Y-49387860D01*
X167649500Y-57017347D01*
X167629498Y-57085468D01*
X167575842Y-57131961D01*
X167505568Y-57142065D01*
X167440988Y-57112571D01*
X167422433Y-57092589D01*
X167352539Y-56998706D01*
X167217428Y-56885333D01*
X167059811Y-56806176D01*
X166888188Y-56765500D01*
X165756059Y-56765500D01*
X165756056Y-56765500D01*
X165624816Y-56780839D01*
X165624814Y-56780840D01*
X165459080Y-56841162D01*
X165459073Y-56841165D01*
X165311714Y-56938085D01*
X165190679Y-57066375D01*
X165190676Y-57066379D01*
X165102492Y-57219118D01*
X165102490Y-57219124D01*
X165051905Y-57388091D01*
X165041649Y-57564169D01*
X165070309Y-57726707D01*
X165072278Y-57737870D01*
X165072278Y-57737871D01*
X165142134Y-57899815D01*
X165142136Y-57899819D01*
X165247460Y-58041293D01*
X165382571Y-58154666D01*
X165382573Y-58154667D01*
X165540189Y-58233824D01*
X165711812Y-58274500D01*
X165711814Y-58274500D01*
X166843944Y-58274500D01*
X166948884Y-58262234D01*
X166975184Y-58259160D01*
X167140924Y-58198836D01*
X167288285Y-58101915D01*
X167409322Y-57973623D01*
X167414380Y-57964861D01*
X167465761Y-57915868D01*
X167535475Y-57902430D01*
X167601386Y-57928816D01*
X167642569Y-57986647D01*
X167649500Y-58027860D01*
X167649500Y-71804493D01*
X167629498Y-71872614D01*
X167575842Y-71919107D01*
X167505568Y-71929211D01*
X167440988Y-71899717D01*
X167402604Y-71839991D01*
X167397673Y-71811087D01*
X167393571Y-71732817D01*
X167336051Y-71369646D01*
X167240887Y-71014489D01*
X167240883Y-71014476D01*
X167109119Y-70671219D01*
X167109115Y-70671211D01*
X166942190Y-70343602D01*
X166942187Y-70343596D01*
X166741922Y-70035215D01*
X166741918Y-70035210D01*
X166554921Y-69804288D01*
X166554920Y-69804287D01*
X165126084Y-71233122D01*
X165007368Y-71080596D01*
X164824477Y-70912232D01*
X164766461Y-70874328D01*
X166195711Y-69445078D01*
X166195710Y-69445077D01*
X165964789Y-69258081D01*
X165964784Y-69258077D01*
X165656403Y-69057812D01*
X165656397Y-69057809D01*
X165328788Y-68890884D01*
X165328780Y-68890880D01*
X164985523Y-68759116D01*
X164985510Y-68759112D01*
X164630353Y-68663948D01*
X164267182Y-68606428D01*
X163900007Y-68587186D01*
X163899993Y-68587186D01*
X163532817Y-68606428D01*
X163169646Y-68663948D01*
X162814489Y-68759112D01*
X162814476Y-68759116D01*
X162471219Y-68890880D01*
X162471211Y-68890884D01*
X162143602Y-69057809D01*
X162143596Y-69057812D01*
X161835227Y-69258068D01*
X161835222Y-69258072D01*
X161604287Y-69445078D01*
X163033538Y-70874329D01*
X162975523Y-70912232D01*
X162792632Y-71080596D01*
X162673914Y-71233123D01*
X161245078Y-69804287D01*
X161058072Y-70035222D01*
X161058068Y-70035227D01*
X160857812Y-70343596D01*
X160857809Y-70343602D01*
X160690884Y-70671211D01*
X160690880Y-70671219D01*
X160559116Y-71014476D01*
X160559112Y-71014489D01*
X160463948Y-71369646D01*
X160406428Y-71732817D01*
X160387186Y-72099992D01*
X160387186Y-72100007D01*
X160406428Y-72467182D01*
X160463948Y-72830353D01*
X160559112Y-73185510D01*
X160559116Y-73185523D01*
X160690880Y-73528780D01*
X160690884Y-73528788D01*
X160857809Y-73856397D01*
X160857812Y-73856403D01*
X161058077Y-74164784D01*
X161058081Y-74164789D01*
X161245077Y-74395710D01*
X161245078Y-74395711D01*
X162673913Y-72966875D01*
X162792632Y-73119404D01*
X162975523Y-73287768D01*
X163033537Y-73325670D01*
X161604287Y-74754920D01*
X161604288Y-74754921D01*
X161835210Y-74941918D01*
X161835215Y-74941922D01*
X162143596Y-75142187D01*
X162143602Y-75142190D01*
X162471211Y-75309115D01*
X162471219Y-75309119D01*
X162814476Y-75440883D01*
X162814489Y-75440887D01*
X163169646Y-75536051D01*
X163532817Y-75593571D01*
X163611087Y-75597673D01*
X163678068Y-75621213D01*
X163721689Y-75677228D01*
X163728101Y-75747934D01*
X163695269Y-75810883D01*
X163633615Y-75846088D01*
X163604493Y-75849500D01*
X138195507Y-75849500D01*
X138127386Y-75829498D01*
X138080893Y-75775842D01*
X138070789Y-75705568D01*
X138100283Y-75640988D01*
X138160009Y-75602604D01*
X138188913Y-75597673D01*
X138267182Y-75593571D01*
X138630353Y-75536051D01*
X138985510Y-75440887D01*
X138985523Y-75440883D01*
X139328780Y-75309119D01*
X139328788Y-75309115D01*
X139656397Y-75142190D01*
X139656403Y-75142187D01*
X139964782Y-74941924D01*
X140195711Y-74754920D01*
X138766461Y-73325670D01*
X138824477Y-73287768D01*
X139007368Y-73119404D01*
X139126085Y-72966876D01*
X140554920Y-74395711D01*
X140741924Y-74164782D01*
X140942187Y-73856403D01*
X140942190Y-73856397D01*
X141096269Y-73554000D01*
X142103455Y-73554000D01*
X142151176Y-73742449D01*
X142151179Y-73742456D01*
X142241580Y-73948548D01*
X142364674Y-74136958D01*
X142517097Y-74302534D01*
X142694698Y-74440767D01*
X142694699Y-74440768D01*
X142892628Y-74547882D01*
X142892630Y-74547883D01*
X143105483Y-74620955D01*
X143105492Y-74620957D01*
X143186000Y-74634391D01*
X143186000Y-73733674D01*
X143297685Y-73784680D01*
X143404237Y-73800000D01*
X143475763Y-73800000D01*
X143582315Y-73784680D01*
X143694000Y-73733674D01*
X143694000Y-74634390D01*
X143774507Y-74620957D01*
X143774516Y-74620955D01*
X143987369Y-74547883D01*
X143987371Y-74547882D01*
X144185300Y-74440768D01*
X144185301Y-74440767D01*
X144362902Y-74302534D01*
X144515325Y-74136958D01*
X144638419Y-73948548D01*
X144730916Y-73737680D01*
X144732538Y-73738391D01*
X144769051Y-73686816D01*
X144834889Y-73660248D01*
X144904640Y-73673492D01*
X144956157Y-73722343D01*
X144960002Y-73729481D01*
X145036908Y-73883930D01*
X145036912Y-73883935D01*
X145160266Y-74047284D01*
X145311536Y-74185185D01*
X145485566Y-74292940D01*
X145485568Y-74292940D01*
X145485573Y-74292944D01*
X145676444Y-74366888D01*
X145877653Y-74404500D01*
X145877655Y-74404500D01*
X146082345Y-74404500D01*
X146082347Y-74404500D01*
X146283556Y-74366888D01*
X146474427Y-74292944D01*
X146648462Y-74185186D01*
X146799732Y-74047285D01*
X146923088Y-73883935D01*
X147014328Y-73700701D01*
X147070345Y-73503821D01*
X147077766Y-73423732D01*
X147089232Y-73300004D01*
X147410768Y-73300004D01*
X147429654Y-73503819D01*
X147443932Y-73554000D01*
X147485672Y-73700701D01*
X147576912Y-73883935D01*
X147576913Y-73883936D01*
X147700266Y-74047284D01*
X147851536Y-74185185D01*
X148025566Y-74292940D01*
X148025568Y-74292940D01*
X148025573Y-74292944D01*
X148216444Y-74366888D01*
X148417653Y-74404500D01*
X148417655Y-74404500D01*
X148622345Y-74404500D01*
X148622347Y-74404500D01*
X148823556Y-74366888D01*
X149014427Y-74292944D01*
X149188462Y-74185186D01*
X149339732Y-74047285D01*
X149463088Y-73883935D01*
X149554328Y-73700701D01*
X149610345Y-73503821D01*
X149617766Y-73423732D01*
X149629232Y-73300004D01*
X149950768Y-73300004D01*
X149969654Y-73503819D01*
X149983932Y-73554000D01*
X150025672Y-73700701D01*
X150116912Y-73883935D01*
X150116913Y-73883936D01*
X150240266Y-74047284D01*
X150391536Y-74185185D01*
X150565566Y-74292940D01*
X150565568Y-74292940D01*
X150565573Y-74292944D01*
X150756444Y-74366888D01*
X150957653Y-74404500D01*
X150957655Y-74404500D01*
X151162345Y-74404500D01*
X151162347Y-74404500D01*
X151363556Y-74366888D01*
X151554427Y-74292944D01*
X151728462Y-74185186D01*
X151739566Y-74175063D01*
X152495500Y-74175063D01*
X152495501Y-74175073D01*
X152510265Y-74249300D01*
X152566516Y-74333484D01*
X152650697Y-74389733D01*
X152650699Y-74389734D01*
X152724933Y-74404500D01*
X154475066Y-74404499D01*
X154475069Y-74404498D01*
X154475073Y-74404498D01*
X154524326Y-74394701D01*
X154549301Y-74389734D01*
X154633484Y-74333484D01*
X154689734Y-74249301D01*
X154704500Y-74175067D01*
X154704499Y-72424934D01*
X154704498Y-72424930D01*
X154704498Y-72424926D01*
X154689734Y-72350699D01*
X154670556Y-72321998D01*
X154633484Y-72266516D01*
X154583494Y-72233113D01*
X154549302Y-72210266D01*
X154475067Y-72195500D01*
X152724936Y-72195500D01*
X152724926Y-72195501D01*
X152650699Y-72210265D01*
X152566515Y-72266516D01*
X152510266Y-72350697D01*
X152495500Y-72424930D01*
X152495500Y-74175063D01*
X151739566Y-74175063D01*
X151879732Y-74047285D01*
X152003088Y-73883935D01*
X152094328Y-73700701D01*
X152150345Y-73503821D01*
X152157766Y-73423732D01*
X152169232Y-73300004D01*
X152169232Y-73299995D01*
X152150345Y-73096180D01*
X152136068Y-73046000D01*
X152094328Y-72899299D01*
X152003088Y-72716065D01*
X151954294Y-72651451D01*
X151879733Y-72552715D01*
X151728463Y-72414814D01*
X151554433Y-72307059D01*
X151554428Y-72307057D01*
X151554427Y-72307056D01*
X151454495Y-72268342D01*
X151363559Y-72233113D01*
X151363560Y-72233113D01*
X151363557Y-72233112D01*
X151363556Y-72233112D01*
X151162347Y-72195500D01*
X150957653Y-72195500D01*
X150763281Y-72231834D01*
X150756439Y-72233113D01*
X150565577Y-72307054D01*
X150565566Y-72307059D01*
X150391536Y-72414814D01*
X150240266Y-72552715D01*
X150116913Y-72716063D01*
X150025671Y-72899301D01*
X149969654Y-73096180D01*
X149950768Y-73299995D01*
X149950768Y-73300004D01*
X149629232Y-73300004D01*
X149629232Y-73299995D01*
X149610345Y-73096180D01*
X149596068Y-73046000D01*
X149554328Y-72899299D01*
X149463088Y-72716065D01*
X149414294Y-72651451D01*
X149339733Y-72552715D01*
X149188463Y-72414814D01*
X149014433Y-72307059D01*
X149014428Y-72307057D01*
X149014427Y-72307056D01*
X148914495Y-72268342D01*
X148823559Y-72233113D01*
X148823560Y-72233113D01*
X148823557Y-72233112D01*
X148823556Y-72233112D01*
X148622347Y-72195500D01*
X148417653Y-72195500D01*
X148223281Y-72231834D01*
X148216439Y-72233113D01*
X148025577Y-72307054D01*
X148025566Y-72307059D01*
X147851536Y-72414814D01*
X147700266Y-72552715D01*
X147576913Y-72716063D01*
X147485671Y-72899301D01*
X147429654Y-73096180D01*
X147410768Y-73299995D01*
X147410768Y-73300004D01*
X147089232Y-73300004D01*
X147089232Y-73299995D01*
X147070345Y-73096180D01*
X147056068Y-73046000D01*
X147014328Y-72899299D01*
X146923088Y-72716065D01*
X146874294Y-72651451D01*
X146799733Y-72552715D01*
X146648463Y-72414814D01*
X146474433Y-72307059D01*
X146474428Y-72307057D01*
X146474427Y-72307056D01*
X146374495Y-72268342D01*
X146283559Y-72233113D01*
X146283560Y-72233113D01*
X146283557Y-72233112D01*
X146283556Y-72233112D01*
X146082347Y-72195500D01*
X145877653Y-72195500D01*
X145683281Y-72231834D01*
X145676439Y-72233113D01*
X145485577Y-72307054D01*
X145485566Y-72307059D01*
X145311536Y-72414814D01*
X145160266Y-72552715D01*
X145036912Y-72716064D01*
X145036908Y-72716069D01*
X144960002Y-72870518D01*
X144911733Y-72922582D01*
X144842979Y-72940284D01*
X144775568Y-72918004D01*
X144730905Y-72862817D01*
X144729432Y-72858938D01*
X144638419Y-72651451D01*
X144515325Y-72463041D01*
X144362902Y-72297465D01*
X144185301Y-72159232D01*
X144185300Y-72159231D01*
X143987371Y-72052117D01*
X143987369Y-72052116D01*
X143774512Y-71979043D01*
X143774501Y-71979040D01*
X143694000Y-71965606D01*
X143694000Y-72866325D01*
X143582315Y-72815320D01*
X143475763Y-72800000D01*
X143404237Y-72800000D01*
X143297685Y-72815320D01*
X143186000Y-72866325D01*
X143186000Y-71965607D01*
X143185999Y-71965606D01*
X143105498Y-71979040D01*
X143105487Y-71979043D01*
X142892630Y-72052116D01*
X142892628Y-72052117D01*
X142694699Y-72159231D01*
X142694698Y-72159232D01*
X142517097Y-72297465D01*
X142364674Y-72463041D01*
X142241580Y-72651451D01*
X142151179Y-72857543D01*
X142151176Y-72857550D01*
X142103455Y-73045999D01*
X142103456Y-73046000D01*
X143008884Y-73046000D01*
X142980507Y-73090156D01*
X142940000Y-73228111D01*
X142940000Y-73371889D01*
X142980507Y-73509844D01*
X143008884Y-73554000D01*
X142103455Y-73554000D01*
X141096269Y-73554000D01*
X141109115Y-73528788D01*
X141109119Y-73528780D01*
X141240883Y-73185523D01*
X141240887Y-73185510D01*
X141336051Y-72830353D01*
X141393571Y-72467182D01*
X141412814Y-72100007D01*
X141412814Y-72099992D01*
X141393571Y-71732817D01*
X141336051Y-71369646D01*
X141240887Y-71014489D01*
X141240883Y-71014476D01*
X141109119Y-70671219D01*
X141109115Y-70671211D01*
X140942190Y-70343602D01*
X140942187Y-70343596D01*
X140741922Y-70035215D01*
X140741918Y-70035210D01*
X140554921Y-69804288D01*
X140554920Y-69804287D01*
X139126084Y-71233122D01*
X139007368Y-71080596D01*
X138824477Y-70912232D01*
X138766461Y-70874328D01*
X140195711Y-69445078D01*
X140195710Y-69445077D01*
X139964789Y-69258081D01*
X139964784Y-69258077D01*
X139656403Y-69057812D01*
X139656397Y-69057809D01*
X139328788Y-68890884D01*
X139328780Y-68890880D01*
X138985523Y-68759116D01*
X138985510Y-68759112D01*
X138630353Y-68663948D01*
X138267182Y-68606428D01*
X137900007Y-68587186D01*
X137899993Y-68587186D01*
X137532817Y-68606428D01*
X137169646Y-68663948D01*
X136814489Y-68759112D01*
X136814476Y-68759116D01*
X136471219Y-68890880D01*
X136471211Y-68890884D01*
X136143602Y-69057809D01*
X136143596Y-69057812D01*
X135835227Y-69258068D01*
X135835222Y-69258072D01*
X135604287Y-69445078D01*
X137033538Y-70874329D01*
X136975523Y-70912232D01*
X136792632Y-71080596D01*
X136673914Y-71233123D01*
X135245078Y-69804287D01*
X135058072Y-70035222D01*
X135058068Y-70035227D01*
X134857812Y-70343596D01*
X134857809Y-70343602D01*
X134690884Y-70671211D01*
X134690880Y-70671219D01*
X134559116Y-71014476D01*
X134559112Y-71014489D01*
X134463948Y-71369646D01*
X134406428Y-71732817D01*
X134387186Y-72099992D01*
X134387186Y-72100007D01*
X134406428Y-72467182D01*
X134463948Y-72830353D01*
X134559112Y-73185510D01*
X134559116Y-73185523D01*
X134690880Y-73528780D01*
X134690884Y-73528788D01*
X134857809Y-73856397D01*
X134857812Y-73856403D01*
X135058077Y-74164784D01*
X135058081Y-74164789D01*
X135245077Y-74395710D01*
X135245078Y-74395711D01*
X136673913Y-72966875D01*
X136792632Y-73119404D01*
X136975523Y-73287768D01*
X137033537Y-73325670D01*
X135604287Y-74754920D01*
X135604288Y-74754921D01*
X135835210Y-74941918D01*
X135835215Y-74941922D01*
X136143596Y-75142187D01*
X136143602Y-75142190D01*
X136471211Y-75309115D01*
X136471219Y-75309119D01*
X136814476Y-75440883D01*
X136814489Y-75440887D01*
X137169646Y-75536051D01*
X137532817Y-75593571D01*
X137611087Y-75597673D01*
X137678068Y-75621213D01*
X137721689Y-75677228D01*
X137728101Y-75747934D01*
X137695269Y-75810883D01*
X137633615Y-75846088D01*
X137604493Y-75849500D01*
X128276500Y-75849500D01*
X128208379Y-75829498D01*
X128161886Y-75775842D01*
X128150500Y-75723500D01*
X128150500Y-74598597D01*
X128942000Y-74598597D01*
X128948505Y-74659093D01*
X128999555Y-74795964D01*
X128999555Y-74795965D01*
X129087095Y-74912904D01*
X129204034Y-75000444D01*
X129340906Y-75051494D01*
X129401402Y-75057999D01*
X129401415Y-75058000D01*
X130046000Y-75058000D01*
X130046000Y-74133674D01*
X130157685Y-74184680D01*
X130264237Y-74200000D01*
X130335763Y-74200000D01*
X130442315Y-74184680D01*
X130553999Y-74133674D01*
X130554000Y-75058000D01*
X131198585Y-75058000D01*
X131198597Y-75057999D01*
X131259093Y-75051494D01*
X131395964Y-75000444D01*
X131395965Y-75000444D01*
X131512904Y-74912904D01*
X131600444Y-74795965D01*
X131600444Y-74795964D01*
X131651494Y-74659093D01*
X131657999Y-74598597D01*
X131658000Y-74598585D01*
X131658000Y-73954000D01*
X130731116Y-73954000D01*
X130759493Y-73909844D01*
X130800000Y-73771889D01*
X130800000Y-73628111D01*
X130759493Y-73490156D01*
X130731116Y-73446000D01*
X131658000Y-73446000D01*
X131658000Y-72801414D01*
X131657999Y-72801402D01*
X131651494Y-72740906D01*
X131600444Y-72604035D01*
X131600444Y-72604034D01*
X131512904Y-72487095D01*
X131395965Y-72399555D01*
X131259093Y-72348505D01*
X131198597Y-72342000D01*
X130931935Y-72342000D01*
X130863814Y-72321998D01*
X130817321Y-72268342D01*
X130807217Y-72198068D01*
X130836711Y-72133488D01*
X130865605Y-72108873D01*
X130957268Y-72052117D01*
X130968462Y-72045186D01*
X131119732Y-71907285D01*
X131243088Y-71743935D01*
X131334328Y-71560701D01*
X131390345Y-71363821D01*
X131409232Y-71160000D01*
X131390345Y-70956179D01*
X131334328Y-70759299D01*
X131243088Y-70576065D01*
X131202538Y-70522368D01*
X131119733Y-70412715D01*
X130968463Y-70274814D01*
X130794433Y-70167059D01*
X130794428Y-70167057D01*
X130794427Y-70167056D01*
X130603559Y-70093113D01*
X130603560Y-70093113D01*
X130603557Y-70093112D01*
X130603556Y-70093112D01*
X130402347Y-70055500D01*
X130197653Y-70055500D01*
X129996444Y-70093112D01*
X129996439Y-70093113D01*
X129805577Y-70167054D01*
X129805566Y-70167059D01*
X129631536Y-70274814D01*
X129480266Y-70412715D01*
X129356913Y-70576063D01*
X129265671Y-70759301D01*
X129209654Y-70956180D01*
X129190768Y-71159995D01*
X129190768Y-71160004D01*
X129209654Y-71363819D01*
X129209655Y-71363821D01*
X129265672Y-71560701D01*
X129356912Y-71743935D01*
X129356913Y-71743936D01*
X129480266Y-71907284D01*
X129631538Y-72045186D01*
X129631539Y-72045187D01*
X129734395Y-72108873D01*
X129781783Y-72161740D01*
X129793066Y-72231834D01*
X129764662Y-72296901D01*
X129705589Y-72336283D01*
X129668065Y-72342000D01*
X129401402Y-72342000D01*
X129340906Y-72348505D01*
X129204035Y-72399555D01*
X129204034Y-72399555D01*
X129087095Y-72487095D01*
X128999555Y-72604034D01*
X128999555Y-72604035D01*
X128948505Y-72740906D01*
X128942000Y-72801402D01*
X128942000Y-73446000D01*
X129868884Y-73446000D01*
X129840507Y-73490156D01*
X129800000Y-73628111D01*
X129800000Y-73771889D01*
X129840507Y-73909844D01*
X129868884Y-73954000D01*
X128942000Y-73954000D01*
X128942000Y-74598597D01*
X128150500Y-74598597D01*
X128150500Y-67408577D01*
X137741600Y-67408577D01*
X137751982Y-67573612D01*
X137751982Y-67573614D01*
X137803084Y-67730887D01*
X137803086Y-67730891D01*
X137891689Y-67870508D01*
X137891690Y-67870509D01*
X137891691Y-67870510D01*
X137998984Y-67971265D01*
X138012236Y-67983709D01*
X138012237Y-67983710D01*
X138157147Y-68063375D01*
X138157149Y-68063376D01*
X138305944Y-68101580D01*
X138317317Y-68104500D01*
X138863833Y-68104500D01*
X138879999Y-68106285D01*
X138880024Y-68106028D01*
X138887916Y-68106774D01*
X138887916Y-68106773D01*
X138887917Y-68106774D01*
X138903853Y-68106273D01*
X138959297Y-68104531D01*
X138961275Y-68104500D01*
X138991174Y-68104500D01*
X138991178Y-68104500D01*
X138998457Y-68103579D01*
X139004356Y-68103114D01*
X139053200Y-68101580D01*
X139073612Y-68095649D01*
X139092968Y-68091640D01*
X139114061Y-68088976D01*
X139159477Y-68070993D01*
X139165083Y-68069074D01*
X139211999Y-68055445D01*
X139230299Y-68044621D01*
X139248050Y-68035925D01*
X139267814Y-68028101D01*
X139307346Y-67999378D01*
X139312290Y-67996132D01*
X139354336Y-67971267D01*
X139369369Y-67956233D01*
X139384397Y-67943397D01*
X139401597Y-67930902D01*
X139432742Y-67893253D01*
X139436710Y-67888891D01*
X140115194Y-67210407D01*
X140177504Y-67176383D01*
X140248319Y-67181448D01*
X140293382Y-67210408D01*
X140648406Y-67565431D01*
X140664793Y-67585610D01*
X140669895Y-67593419D01*
X140696128Y-67613837D01*
X140701976Y-67619001D01*
X140704419Y-67621444D01*
X140704422Y-67621446D01*
X140704425Y-67621449D01*
X140721289Y-67633489D01*
X140723372Y-67635041D01*
X140763259Y-67666087D01*
X140763261Y-67666087D01*
X140769791Y-67669621D01*
X140776462Y-67672882D01*
X140776467Y-67672886D01*
X140807840Y-67682226D01*
X140824898Y-67687305D01*
X140827380Y-67688099D01*
X140875159Y-67704502D01*
X140875166Y-67704502D01*
X140882506Y-67705727D01*
X140889857Y-67706643D01*
X140889859Y-67706644D01*
X140889860Y-67706643D01*
X140889861Y-67706644D01*
X140903606Y-67706075D01*
X140940349Y-67704555D01*
X140942944Y-67704502D01*
X141011361Y-67704502D01*
X141079482Y-67724504D01*
X141100456Y-67741407D01*
X141104524Y-67745475D01*
X141220350Y-67834352D01*
X141220357Y-67834357D01*
X141355246Y-67890230D01*
X141500000Y-67909287D01*
X141644754Y-67890230D01*
X141779643Y-67834357D01*
X141895474Y-67745476D01*
X141984355Y-67629645D01*
X142040228Y-67494756D01*
X142059285Y-67350002D01*
X142040228Y-67205248D01*
X141984355Y-67070360D01*
X141895474Y-66954528D01*
X141895472Y-66954526D01*
X141895471Y-66954525D01*
X141779649Y-66865651D01*
X141779641Y-66865646D01*
X141644752Y-66809773D01*
X141500000Y-66790717D01*
X141355247Y-66809773D01*
X141287802Y-66837710D01*
X141220358Y-66865647D01*
X141220356Y-66865648D01*
X141220357Y-66865648D01*
X141220351Y-66865651D01*
X141155780Y-66915198D01*
X141089559Y-66940798D01*
X141020011Y-66926533D01*
X140989981Y-66904330D01*
X140794721Y-66709069D01*
X140760696Y-66646757D01*
X140765761Y-66575941D01*
X140794720Y-66530881D01*
X141601843Y-65723758D01*
X141614539Y-65713589D01*
X141614374Y-65713390D01*
X141620481Y-65708338D01*
X141620482Y-65708337D01*
X141669408Y-65656234D01*
X141670692Y-65654909D01*
X141691891Y-65633712D01*
X141696394Y-65627904D01*
X141700240Y-65623401D01*
X141733682Y-65587791D01*
X141743922Y-65569164D01*
X141754779Y-65552635D01*
X141767805Y-65535844D01*
X141787212Y-65490995D01*
X141789806Y-65485699D01*
X141813347Y-65442881D01*
X141818631Y-65422298D01*
X141825038Y-65403585D01*
X141833480Y-65384079D01*
X141841122Y-65335821D01*
X141842324Y-65330021D01*
X141854471Y-65282717D01*
X141854472Y-65282710D01*
X141854472Y-65261454D01*
X141856023Y-65241744D01*
X141856344Y-65239714D01*
X141859348Y-65220750D01*
X141854752Y-65172123D01*
X141854472Y-65166191D01*
X141854472Y-64262000D01*
X164525455Y-64262000D01*
X164573176Y-64450449D01*
X164573179Y-64450456D01*
X164663580Y-64656548D01*
X164786674Y-64844958D01*
X164939097Y-65010534D01*
X165116698Y-65148767D01*
X165116699Y-65148768D01*
X165314628Y-65255882D01*
X165314634Y-65255884D01*
X165425803Y-65294048D01*
X165483739Y-65335084D01*
X165510291Y-65400929D01*
X165497030Y-65470676D01*
X165448166Y-65522182D01*
X165430410Y-65530712D01*
X165367574Y-65555055D01*
X165367566Y-65555059D01*
X165193536Y-65662814D01*
X165042266Y-65800715D01*
X164918913Y-65964063D01*
X164827671Y-66147301D01*
X164771654Y-66344180D01*
X164752768Y-66547995D01*
X164752768Y-66548004D01*
X164771654Y-66751819D01*
X164821365Y-66926533D01*
X164827672Y-66948701D01*
X164918912Y-67131935D01*
X164918913Y-67131936D01*
X165042266Y-67295284D01*
X165193536Y-67433185D01*
X165367566Y-67540940D01*
X165367568Y-67540940D01*
X165367573Y-67540944D01*
X165558444Y-67614888D01*
X165759653Y-67652500D01*
X165759655Y-67652500D01*
X165964345Y-67652500D01*
X165964347Y-67652500D01*
X166165556Y-67614888D01*
X166356427Y-67540944D01*
X166530462Y-67433186D01*
X166681732Y-67295285D01*
X166805088Y-67131935D01*
X166896328Y-66948701D01*
X166952345Y-66751821D01*
X166962081Y-66646757D01*
X166971232Y-66548004D01*
X166971232Y-66547995D01*
X166952345Y-66344180D01*
X166952345Y-66344179D01*
X166896328Y-66147299D01*
X166805088Y-65964065D01*
X166736684Y-65873483D01*
X166681733Y-65800715D01*
X166530463Y-65662814D01*
X166356433Y-65555059D01*
X166356425Y-65555055D01*
X166293589Y-65530712D01*
X166237295Y-65487452D01*
X166213325Y-65420624D01*
X166229290Y-65351446D01*
X166280121Y-65301881D01*
X166298196Y-65294048D01*
X166409365Y-65255884D01*
X166409371Y-65255882D01*
X166607300Y-65148768D01*
X166607301Y-65148767D01*
X166784902Y-65010534D01*
X166937325Y-64844958D01*
X167060419Y-64656548D01*
X167150820Y-64450456D01*
X167150823Y-64450449D01*
X167198544Y-64262000D01*
X166293116Y-64262000D01*
X166321493Y-64217844D01*
X166362000Y-64079889D01*
X166362000Y-63936111D01*
X166321493Y-63798156D01*
X166293116Y-63754000D01*
X167198544Y-63754000D01*
X167198544Y-63753999D01*
X167150823Y-63565550D01*
X167150820Y-63565543D01*
X167060419Y-63359451D01*
X166937325Y-63171041D01*
X166784902Y-63005465D01*
X166607303Y-62867233D01*
X166500275Y-62809313D01*
X166449885Y-62759299D01*
X166434533Y-62689982D01*
X166459094Y-62623369D01*
X166515769Y-62580610D01*
X166560244Y-62572499D01*
X166737066Y-62572499D01*
X166737069Y-62572498D01*
X166737073Y-62572498D01*
X166786326Y-62562701D01*
X166811301Y-62557734D01*
X166895484Y-62501484D01*
X166951734Y-62417301D01*
X166966500Y-62343067D01*
X166966499Y-60592934D01*
X166966498Y-60592930D01*
X166966498Y-60592926D01*
X166951734Y-60518699D01*
X166895483Y-60434515D01*
X166811302Y-60378266D01*
X166737067Y-60363500D01*
X164986936Y-60363500D01*
X164986926Y-60363501D01*
X164912699Y-60378265D01*
X164828515Y-60434516D01*
X164772266Y-60518697D01*
X164757500Y-60592930D01*
X164757500Y-62343063D01*
X164757501Y-62343073D01*
X164772265Y-62417300D01*
X164828516Y-62501484D01*
X164912697Y-62557733D01*
X164912699Y-62557734D01*
X164986933Y-62572500D01*
X165163755Y-62572499D01*
X165231873Y-62592501D01*
X165278366Y-62646156D01*
X165288471Y-62716430D01*
X165258978Y-62781011D01*
X165223723Y-62809312D01*
X165116704Y-62867228D01*
X165116698Y-62867232D01*
X164939097Y-63005465D01*
X164786674Y-63171041D01*
X164663580Y-63359451D01*
X164573179Y-63565543D01*
X164573176Y-63565550D01*
X164525455Y-63753999D01*
X164525456Y-63754000D01*
X165430884Y-63754000D01*
X165402507Y-63798156D01*
X165362000Y-63936111D01*
X165362000Y-64079889D01*
X165402507Y-64217844D01*
X165430884Y-64262000D01*
X164525455Y-64262000D01*
X141854472Y-64262000D01*
X141854472Y-61536880D01*
X141854500Y-61536436D01*
X141854500Y-61511446D01*
X141856051Y-61491734D01*
X141859377Y-61470737D01*
X141854780Y-61422100D01*
X141854500Y-61416168D01*
X141854500Y-55536169D01*
X141856285Y-55520002D01*
X141856028Y-55519978D01*
X141856774Y-55512085D01*
X141854531Y-55440703D01*
X141854500Y-55438725D01*
X141854500Y-55408829D01*
X141854500Y-55408824D01*
X141853580Y-55401543D01*
X141853113Y-55395631D01*
X141851580Y-55346802D01*
X141845649Y-55326389D01*
X141841639Y-55307028D01*
X141840360Y-55296901D01*
X141838976Y-55285941D01*
X141820991Y-55240516D01*
X141819077Y-55234927D01*
X141805445Y-55188004D01*
X141794626Y-55169710D01*
X141785928Y-55151957D01*
X141778101Y-55132188D01*
X141778099Y-55132185D01*
X141778098Y-55132183D01*
X141749391Y-55092672D01*
X141746129Y-55087707D01*
X141741522Y-55079917D01*
X141721267Y-55045666D01*
X141721266Y-55045664D01*
X141706238Y-55030636D01*
X141693398Y-55015603D01*
X141680904Y-54998407D01*
X141680902Y-54998405D01*
X141672170Y-54991181D01*
X141643253Y-54967259D01*
X141638881Y-54963280D01*
X141391405Y-54715804D01*
X141357379Y-54653492D01*
X141354500Y-54626709D01*
X141354500Y-51086167D01*
X141356285Y-51070000D01*
X141356028Y-51069976D01*
X141356774Y-51062083D01*
X141354531Y-50990701D01*
X141354500Y-50988723D01*
X141354500Y-50958827D01*
X141354500Y-50958822D01*
X141353580Y-50951541D01*
X141353113Y-50945629D01*
X141351580Y-50896800D01*
X141345649Y-50876387D01*
X141341639Y-50857026D01*
X141338976Y-50835939D01*
X141320995Y-50790526D01*
X141319074Y-50784916D01*
X141318865Y-50784195D01*
X141305445Y-50738001D01*
X141294622Y-50719700D01*
X141285926Y-50701951D01*
X141278101Y-50682186D01*
X141278099Y-50682183D01*
X141278099Y-50682182D01*
X141259947Y-50657198D01*
X141236088Y-50590330D01*
X141235883Y-50583137D01*
X141235883Y-47008824D01*
X141235881Y-47008807D01*
X141220360Y-46885943D01*
X141220359Y-46885941D01*
X141220359Y-46885939D01*
X141179395Y-46782476D01*
X141159485Y-46732187D01*
X141159482Y-46732182D01*
X141062285Y-46598403D01*
X141062283Y-46598400D01*
X140934868Y-46492994D01*
X140785242Y-46422585D01*
X140622812Y-46391600D01*
X140622801Y-46391599D01*
X140457770Y-46401982D01*
X140457768Y-46401982D01*
X140300495Y-46453084D01*
X140300491Y-46453086D01*
X140160874Y-46541689D01*
X140047673Y-46662236D01*
X140047672Y-46662237D01*
X139968007Y-46807147D01*
X139968006Y-46807149D01*
X139926884Y-46967309D01*
X139926883Y-46967319D01*
X139926883Y-50795216D01*
X139925098Y-50811385D01*
X139925355Y-50811410D01*
X139924609Y-50819301D01*
X139926852Y-50890679D01*
X139926883Y-50892658D01*
X139926883Y-50922562D01*
X139927802Y-50929845D01*
X139928268Y-50935759D01*
X139929802Y-50984582D01*
X139929803Y-50984587D01*
X139935733Y-51004997D01*
X139939742Y-51024355D01*
X139942406Y-51045440D01*
X139942407Y-51045444D01*
X139960386Y-51090855D01*
X139962310Y-51096474D01*
X139975935Y-51143375D01*
X139975936Y-51143378D01*
X139975938Y-51143382D01*
X139986764Y-51161689D01*
X139995456Y-51179432D01*
X139999730Y-51190228D01*
X140003282Y-51199197D01*
X140021437Y-51224185D01*
X140045294Y-51291050D01*
X140045500Y-51298244D01*
X140045500Y-54863835D01*
X140043715Y-54880004D01*
X140043972Y-54880029D01*
X140043226Y-54887920D01*
X140045469Y-54959298D01*
X140045500Y-54961277D01*
X140045500Y-54991181D01*
X140046419Y-54998464D01*
X140046885Y-55004378D01*
X140048419Y-55053201D01*
X140048420Y-55053206D01*
X140054350Y-55073616D01*
X140058359Y-55092974D01*
X140061023Y-55114059D01*
X140061024Y-55114063D01*
X140079003Y-55159474D01*
X140080927Y-55165093D01*
X140094552Y-55211994D01*
X140094553Y-55211997D01*
X140094555Y-55212001D01*
X140105381Y-55230308D01*
X140114073Y-55248051D01*
X140121899Y-55267816D01*
X140143030Y-55296901D01*
X140150606Y-55307328D01*
X140153866Y-55312291D01*
X140178732Y-55354337D01*
X140178735Y-55354341D01*
X140193761Y-55369367D01*
X140206601Y-55384399D01*
X140219097Y-55401598D01*
X140256736Y-55432736D01*
X140261117Y-55436722D01*
X140508597Y-55684202D01*
X140542620Y-55746511D01*
X140545500Y-55773294D01*
X140545500Y-61363193D01*
X140545472Y-61363642D01*
X140545472Y-61388618D01*
X140543921Y-61408328D01*
X140540596Y-61429322D01*
X140545192Y-61477944D01*
X140545472Y-61483876D01*
X140545472Y-64876734D01*
X140525470Y-64944855D01*
X140508567Y-64965829D01*
X138715802Y-66758595D01*
X138653490Y-66792620D01*
X138626707Y-66795500D01*
X138358822Y-66795500D01*
X138358819Y-66795500D01*
X138358807Y-66795501D01*
X138235943Y-66811022D01*
X138235938Y-66811024D01*
X138082187Y-66871897D01*
X138082182Y-66871900D01*
X137948403Y-66969097D01*
X137948400Y-66969099D01*
X137842994Y-67096514D01*
X137772585Y-67246140D01*
X137741600Y-67408570D01*
X137741600Y-67408577D01*
X128150500Y-67408577D01*
X128150500Y-62099999D01*
X129490517Y-62099999D01*
X129510411Y-62327392D01*
X129569487Y-62547868D01*
X129569489Y-62547873D01*
X129665953Y-62754741D01*
X129698684Y-62801486D01*
X129796878Y-62941719D01*
X129796880Y-62941721D01*
X129796881Y-62941722D01*
X129796885Y-62941727D01*
X129958274Y-63103116D01*
X129958277Y-63103118D01*
X129958281Y-63103122D01*
X129962801Y-63106287D01*
X130007129Y-63161740D01*
X130014441Y-63232359D01*
X129982412Y-63295721D01*
X129921212Y-63331708D01*
X129890533Y-63335500D01*
X129724936Y-63335500D01*
X129724926Y-63335501D01*
X129650699Y-63350265D01*
X129566515Y-63406516D01*
X129510266Y-63490697D01*
X129495500Y-63564930D01*
X129495500Y-65715063D01*
X129495501Y-65715073D01*
X129510265Y-65789300D01*
X129566516Y-65873484D01*
X129650697Y-65929733D01*
X129650699Y-65929734D01*
X129724933Y-65944500D01*
X131875066Y-65944499D01*
X131875069Y-65944498D01*
X131875073Y-65944498D01*
X131924326Y-65934701D01*
X131949301Y-65929734D01*
X132033484Y-65873484D01*
X132089734Y-65789301D01*
X132104500Y-65715067D01*
X132104499Y-63564934D01*
X132104498Y-63564930D01*
X132104498Y-63564926D01*
X132089734Y-63490699D01*
X132033483Y-63406515D01*
X131949302Y-63350266D01*
X131875069Y-63335500D01*
X131875067Y-63335500D01*
X131709469Y-63335500D01*
X131641348Y-63315498D01*
X131594855Y-63261842D01*
X131584751Y-63191568D01*
X131614245Y-63126988D01*
X131637195Y-63106289D01*
X131641719Y-63103122D01*
X131803122Y-62941719D01*
X131934046Y-62754742D01*
X132030512Y-62547870D01*
X132089589Y-62327389D01*
X132109483Y-62100000D01*
X132089589Y-61872611D01*
X132030512Y-61652130D01*
X131934046Y-61445259D01*
X131803122Y-61258281D01*
X131803121Y-61258280D01*
X131803118Y-61258276D01*
X131641727Y-61096885D01*
X131641722Y-61096881D01*
X131641722Y-61096880D01*
X131641719Y-61096878D01*
X131454742Y-60965954D01*
X131454740Y-60965953D01*
X131454737Y-60965951D01*
X131408080Y-60944195D01*
X131354794Y-60897278D01*
X131335333Y-60829001D01*
X131355874Y-60761041D01*
X131408080Y-60715805D01*
X131422718Y-60708978D01*
X131454742Y-60694046D01*
X131641719Y-60563122D01*
X131803122Y-60401719D01*
X131934046Y-60214742D01*
X132030512Y-60007870D01*
X132089589Y-59787389D01*
X132109483Y-59560000D01*
X132089589Y-59332611D01*
X132030512Y-59112130D01*
X131934046Y-58905259D01*
X131803122Y-58718281D01*
X131803121Y-58718280D01*
X131803118Y-58718276D01*
X131641727Y-58556885D01*
X131641722Y-58556881D01*
X131641722Y-58556880D01*
X131641719Y-58556878D01*
X131454742Y-58425954D01*
X131454740Y-58425953D01*
X131454737Y-58425951D01*
X131408080Y-58404195D01*
X131354794Y-58357278D01*
X131335333Y-58289001D01*
X131355874Y-58221041D01*
X131408080Y-58175805D01*
X131453412Y-58154666D01*
X131454742Y-58154046D01*
X131641719Y-58023122D01*
X131803122Y-57861719D01*
X131934046Y-57674742D01*
X132030512Y-57467870D01*
X132089589Y-57247389D01*
X132109483Y-57020000D01*
X132089589Y-56792611D01*
X132030512Y-56572130D01*
X131934046Y-56365259D01*
X131818330Y-56200000D01*
X131803125Y-56178285D01*
X131803118Y-56178276D01*
X131641727Y-56016885D01*
X131641722Y-56016881D01*
X131641722Y-56016880D01*
X131641719Y-56016878D01*
X131454742Y-55885954D01*
X131454740Y-55885953D01*
X131454737Y-55885951D01*
X131408080Y-55864195D01*
X131354794Y-55817278D01*
X131335333Y-55749001D01*
X131355874Y-55681041D01*
X131408080Y-55635805D01*
X131422718Y-55628978D01*
X131454742Y-55614046D01*
X131641719Y-55483122D01*
X131803122Y-55321719D01*
X131934046Y-55134742D01*
X132030512Y-54927870D01*
X132089589Y-54707389D01*
X132109483Y-54480000D01*
X132089589Y-54252611D01*
X132030512Y-54032130D01*
X131934046Y-53825259D01*
X131803122Y-53638281D01*
X131803121Y-53638280D01*
X131803118Y-53638276D01*
X131641727Y-53476885D01*
X131641722Y-53476881D01*
X131641722Y-53476880D01*
X131641719Y-53476878D01*
X131454742Y-53345954D01*
X131454740Y-53345953D01*
X131454737Y-53345951D01*
X131408080Y-53324195D01*
X131354794Y-53277278D01*
X131335333Y-53209001D01*
X131355874Y-53141041D01*
X131408080Y-53095805D01*
X131423812Y-53088469D01*
X131454742Y-53074046D01*
X131641719Y-52943122D01*
X131803122Y-52781719D01*
X131934046Y-52594742D01*
X132030512Y-52387870D01*
X132089589Y-52167389D01*
X132109483Y-51940000D01*
X132089589Y-51712611D01*
X132030512Y-51492130D01*
X131934046Y-51285259D01*
X131834697Y-51143375D01*
X131803125Y-51098285D01*
X131803118Y-51098276D01*
X131641727Y-50936885D01*
X131641722Y-50936881D01*
X131641722Y-50936880D01*
X131641719Y-50936878D01*
X131454742Y-50805954D01*
X131454740Y-50805953D01*
X131454737Y-50805951D01*
X131408080Y-50784195D01*
X131354794Y-50737278D01*
X131335333Y-50669001D01*
X131355874Y-50601041D01*
X131408080Y-50555805D01*
X131425823Y-50547531D01*
X131454742Y-50534046D01*
X131641719Y-50403122D01*
X131803122Y-50241719D01*
X131934046Y-50054742D01*
X132030512Y-49847870D01*
X132089589Y-49627389D01*
X132109483Y-49400000D01*
X132089589Y-49172611D01*
X132030512Y-48952130D01*
X131934046Y-48745259D01*
X131854784Y-48632062D01*
X131803125Y-48558285D01*
X131803118Y-48558276D01*
X131641727Y-48396885D01*
X131641722Y-48396881D01*
X131641722Y-48396880D01*
X131641719Y-48396878D01*
X131454742Y-48265954D01*
X131454740Y-48265953D01*
X131454737Y-48265951D01*
X131408080Y-48244195D01*
X131354794Y-48197278D01*
X131335333Y-48129001D01*
X131355874Y-48061041D01*
X131408080Y-48015805D01*
X131422718Y-48008978D01*
X131454742Y-47994046D01*
X131641719Y-47863122D01*
X131803122Y-47701719D01*
X131934046Y-47514742D01*
X132030512Y-47307870D01*
X132089589Y-47087389D01*
X132109483Y-46860000D01*
X132089589Y-46632611D01*
X132030512Y-46412130D01*
X131934046Y-46205259D01*
X131803122Y-46018281D01*
X131803121Y-46018280D01*
X131803118Y-46018276D01*
X131641727Y-45856885D01*
X131641722Y-45856881D01*
X131641722Y-45856880D01*
X131641719Y-45856878D01*
X131454742Y-45725954D01*
X131454740Y-45725953D01*
X131454741Y-45725953D01*
X131247873Y-45629489D01*
X131247868Y-45629487D01*
X131027392Y-45570411D01*
X130800000Y-45550517D01*
X130572607Y-45570411D01*
X130352131Y-45629487D01*
X130352127Y-45629489D01*
X130145260Y-45725953D01*
X130145258Y-45725954D01*
X129958285Y-45856874D01*
X129958276Y-45856881D01*
X129796881Y-46018276D01*
X129796874Y-46018285D01*
X129665954Y-46205258D01*
X129665953Y-46205260D01*
X129569489Y-46412127D01*
X129569487Y-46412131D01*
X129510411Y-46632607D01*
X129490517Y-46860000D01*
X129510411Y-47087392D01*
X129569487Y-47307868D01*
X129569489Y-47307873D01*
X129665953Y-47514741D01*
X129665954Y-47514742D01*
X129796878Y-47701719D01*
X129796880Y-47701721D01*
X129796881Y-47701722D01*
X129796885Y-47701727D01*
X129958272Y-47863114D01*
X129958277Y-47863118D01*
X129958281Y-47863122D01*
X130145258Y-47994046D01*
X130191920Y-48015805D01*
X130245205Y-48062723D01*
X130264666Y-48131000D01*
X130244124Y-48198960D01*
X130191921Y-48244194D01*
X130145266Y-48265950D01*
X130145258Y-48265954D01*
X129958285Y-48396874D01*
X129958276Y-48396881D01*
X129796881Y-48558276D01*
X129796874Y-48558285D01*
X129665954Y-48745258D01*
X129665953Y-48745260D01*
X129569489Y-48952127D01*
X129569487Y-48952131D01*
X129510411Y-49172607D01*
X129490517Y-49399999D01*
X129510411Y-49627392D01*
X129569487Y-49847868D01*
X129569489Y-49847873D01*
X129665953Y-50054741D01*
X129678699Y-50072944D01*
X129796878Y-50241719D01*
X129796880Y-50241721D01*
X129796881Y-50241722D01*
X129796885Y-50241727D01*
X129958272Y-50403114D01*
X129958277Y-50403118D01*
X129958281Y-50403122D01*
X130145258Y-50534046D01*
X130191920Y-50555805D01*
X130245205Y-50602723D01*
X130264666Y-50671000D01*
X130244124Y-50738960D01*
X130191921Y-50784194D01*
X130145266Y-50805950D01*
X130145258Y-50805954D01*
X129958285Y-50936874D01*
X129958276Y-50936881D01*
X129796881Y-51098276D01*
X129796874Y-51098285D01*
X129665954Y-51285258D01*
X129665953Y-51285260D01*
X129569489Y-51492127D01*
X129569487Y-51492131D01*
X129510411Y-51712607D01*
X129490517Y-51939999D01*
X129510411Y-52167392D01*
X129569487Y-52387868D01*
X129569489Y-52387873D01*
X129665953Y-52594741D01*
X129678699Y-52612944D01*
X129796878Y-52781719D01*
X129796880Y-52781721D01*
X129796881Y-52781722D01*
X129796885Y-52781727D01*
X129958272Y-52943114D01*
X129958277Y-52943118D01*
X129958281Y-52943122D01*
X130145258Y-53074046D01*
X130191920Y-53095805D01*
X130245205Y-53142723D01*
X130264666Y-53211000D01*
X130244124Y-53278960D01*
X130191921Y-53324194D01*
X130145266Y-53345950D01*
X130145258Y-53345954D01*
X129958285Y-53476874D01*
X129958276Y-53476881D01*
X129796881Y-53638276D01*
X129796874Y-53638285D01*
X129665954Y-53825258D01*
X129665953Y-53825260D01*
X129569489Y-54032127D01*
X129569487Y-54032131D01*
X129510411Y-54252607D01*
X129490517Y-54479999D01*
X129510411Y-54707392D01*
X129569487Y-54927868D01*
X129569489Y-54927873D01*
X129665953Y-55134741D01*
X129665954Y-55134742D01*
X129796878Y-55321719D01*
X129796880Y-55321721D01*
X129796881Y-55321722D01*
X129796885Y-55321727D01*
X129958272Y-55483114D01*
X129958277Y-55483118D01*
X129958281Y-55483122D01*
X130145258Y-55614046D01*
X130191920Y-55635805D01*
X130245205Y-55682723D01*
X130264666Y-55751000D01*
X130244124Y-55818960D01*
X130191921Y-55864194D01*
X130145266Y-55885950D01*
X130145258Y-55885954D01*
X129958285Y-56016874D01*
X129958276Y-56016881D01*
X129796881Y-56178276D01*
X129796874Y-56178285D01*
X129665954Y-56365258D01*
X129665953Y-56365260D01*
X129569489Y-56572127D01*
X129569487Y-56572131D01*
X129510411Y-56792607D01*
X129490517Y-57020000D01*
X129510411Y-57247392D01*
X129569487Y-57467868D01*
X129569489Y-57467873D01*
X129665953Y-57674741D01*
X129679826Y-57694553D01*
X129796878Y-57861719D01*
X129796880Y-57861721D01*
X129796881Y-57861722D01*
X129796885Y-57861727D01*
X129958272Y-58023114D01*
X129958277Y-58023118D01*
X129958281Y-58023122D01*
X130145258Y-58154046D01*
X130191920Y-58175805D01*
X130245205Y-58222723D01*
X130264666Y-58291000D01*
X130244124Y-58358960D01*
X130191921Y-58404194D01*
X130145266Y-58425950D01*
X130145258Y-58425954D01*
X129958285Y-58556874D01*
X129958276Y-58556881D01*
X129796881Y-58718276D01*
X129796874Y-58718285D01*
X129665954Y-58905258D01*
X129665953Y-58905260D01*
X129569489Y-59112127D01*
X129569487Y-59112131D01*
X129510411Y-59332607D01*
X129490517Y-59560000D01*
X129510411Y-59787392D01*
X129569487Y-60007868D01*
X129569489Y-60007873D01*
X129665953Y-60214741D01*
X129665954Y-60214742D01*
X129796878Y-60401719D01*
X129796880Y-60401721D01*
X129796881Y-60401722D01*
X129796885Y-60401727D01*
X129958272Y-60563114D01*
X129958277Y-60563118D01*
X129958281Y-60563122D01*
X130145258Y-60694046D01*
X130191920Y-60715805D01*
X130245205Y-60762723D01*
X130264666Y-60831000D01*
X130244124Y-60898960D01*
X130191921Y-60944194D01*
X130145266Y-60965950D01*
X130145258Y-60965954D01*
X129958285Y-61096874D01*
X129958276Y-61096881D01*
X129796881Y-61258276D01*
X129796874Y-61258285D01*
X129665954Y-61445258D01*
X129665953Y-61445260D01*
X129569489Y-61652127D01*
X129569487Y-61652131D01*
X129510411Y-61872607D01*
X129490517Y-62099999D01*
X128150500Y-62099999D01*
X128150500Y-44979278D01*
X136140623Y-44979278D01*
X136156185Y-45143907D01*
X136156186Y-45143912D01*
X136212200Y-45299497D01*
X136212201Y-45299499D01*
X136273884Y-45390263D01*
X136305152Y-45436272D01*
X136382572Y-45504526D01*
X136429192Y-45545627D01*
X136525583Y-45594739D01*
X136576531Y-45620699D01*
X136576534Y-45620700D01*
X136714676Y-45651579D01*
X136737913Y-45656773D01*
X136737916Y-45656774D01*
X136737916Y-45656773D01*
X136737917Y-45656774D01*
X136903200Y-45651580D01*
X137061999Y-45605445D01*
X137062001Y-45605443D01*
X137062003Y-45605443D01*
X137154877Y-45550517D01*
X137204336Y-45521267D01*
X138284198Y-44441404D01*
X138346510Y-44407380D01*
X138373293Y-44404500D01*
X139953428Y-44404500D01*
X140021549Y-44424502D01*
X140042523Y-44441405D01*
X142383595Y-46782476D01*
X142417620Y-46844788D01*
X142420500Y-46871571D01*
X142420500Y-50539522D01*
X142418715Y-50555691D01*
X142418972Y-50555716D01*
X142418226Y-50563607D01*
X142420469Y-50634985D01*
X142420500Y-50636964D01*
X142420500Y-50666868D01*
X142421419Y-50674151D01*
X142421885Y-50680065D01*
X142423419Y-50728888D01*
X142423420Y-50728893D01*
X142429350Y-50749303D01*
X142433359Y-50768661D01*
X142436023Y-50789746D01*
X142436024Y-50789750D01*
X142454003Y-50835161D01*
X142455927Y-50840780D01*
X142469552Y-50887681D01*
X142469553Y-50887684D01*
X142469555Y-50887688D01*
X142480381Y-50905995D01*
X142489073Y-50923738D01*
X142496899Y-50943503D01*
X142525606Y-50983015D01*
X142528866Y-50987978D01*
X142553732Y-51030024D01*
X142553735Y-51030028D01*
X142568761Y-51045054D01*
X142581601Y-51060086D01*
X142594098Y-51077287D01*
X142631730Y-51108418D01*
X142636123Y-51112415D01*
X142685390Y-51161682D01*
X142708595Y-51184886D01*
X142742620Y-51247198D01*
X142745500Y-51273982D01*
X142745500Y-51586626D01*
X142743715Y-51602795D01*
X142743972Y-51602820D01*
X142743226Y-51610711D01*
X142745469Y-51682089D01*
X142745500Y-51684068D01*
X142745500Y-51713972D01*
X142746419Y-51721255D01*
X142746885Y-51727169D01*
X142748419Y-51775992D01*
X142748420Y-51775997D01*
X142754350Y-51796407D01*
X142758359Y-51815765D01*
X142761023Y-51836850D01*
X142761024Y-51836854D01*
X142779003Y-51882265D01*
X142780927Y-51887884D01*
X142794552Y-51934785D01*
X142794553Y-51934788D01*
X142794555Y-51934792D01*
X142805381Y-51953099D01*
X142814073Y-51970842D01*
X142821899Y-51990607D01*
X142850092Y-52029412D01*
X142850606Y-52030119D01*
X142853866Y-52035082D01*
X142878732Y-52077128D01*
X142878735Y-52077132D01*
X142893761Y-52092158D01*
X142906601Y-52107190D01*
X142919097Y-52124389D01*
X142956736Y-52155527D01*
X142961117Y-52159513D01*
X143262461Y-52460857D01*
X143503474Y-52701870D01*
X143513646Y-52714566D01*
X143513845Y-52714402D01*
X143518897Y-52720509D01*
X143570964Y-52769403D01*
X143572353Y-52770749D01*
X143593523Y-52791919D01*
X143593531Y-52791925D01*
X143599324Y-52796419D01*
X143603840Y-52800276D01*
X143639444Y-52833710D01*
X143658078Y-52843954D01*
X143674594Y-52854804D01*
X143691995Y-52868301D01*
X143697928Y-52873531D01*
X144301272Y-53476874D01*
X144858595Y-54034197D01*
X144892620Y-54096509D01*
X144895500Y-54123292D01*
X144895500Y-57963833D01*
X144893715Y-57980002D01*
X144893972Y-57980027D01*
X144893226Y-57987918D01*
X144895469Y-58059296D01*
X144895500Y-58061275D01*
X144895500Y-58091179D01*
X144896419Y-58098462D01*
X144896885Y-58104376D01*
X144898419Y-58153199D01*
X144898420Y-58153204D01*
X144904350Y-58173614D01*
X144908359Y-58192972D01*
X144911023Y-58214057D01*
X144911024Y-58214061D01*
X144929003Y-58259472D01*
X144930927Y-58265091D01*
X144944552Y-58311992D01*
X144944553Y-58311995D01*
X144944555Y-58311999D01*
X144955381Y-58330306D01*
X144964073Y-58348049D01*
X144971899Y-58367814D01*
X144998331Y-58404195D01*
X145000606Y-58407326D01*
X145003866Y-58412289D01*
X145028732Y-58454335D01*
X145028735Y-58454339D01*
X145043761Y-58469365D01*
X145056601Y-58484397D01*
X145069097Y-58501596D01*
X145106736Y-58532734D01*
X145111117Y-58536720D01*
X146916980Y-60342583D01*
X148658595Y-62084198D01*
X148692621Y-62146510D01*
X148695500Y-62173293D01*
X148695500Y-62502630D01*
X148710525Y-62659969D01*
X148710528Y-62659984D01*
X148769953Y-62862370D01*
X148866607Y-63049851D01*
X148866611Y-63049858D01*
X148996994Y-63215652D01*
X148997006Y-63215665D01*
X149152344Y-63350266D01*
X149156413Y-63353792D01*
X149339087Y-63459259D01*
X149538420Y-63528248D01*
X149538423Y-63528248D01*
X149538425Y-63528249D01*
X149747205Y-63558267D01*
X149747206Y-63558266D01*
X149747207Y-63558267D01*
X149957902Y-63548231D01*
X150162890Y-63498501D01*
X150354762Y-63410876D01*
X150526584Y-63288522D01*
X150672145Y-63135862D01*
X150696319Y-63098246D01*
X151195500Y-63098246D01*
X151195502Y-63098270D01*
X151201959Y-63158339D01*
X151201959Y-63158341D01*
X151252657Y-63294266D01*
X151252658Y-63294267D01*
X151339596Y-63410404D01*
X151455733Y-63497342D01*
X151591658Y-63548040D01*
X151651745Y-63554500D01*
X152948254Y-63554499D01*
X153008342Y-63548040D01*
X153144267Y-63497342D01*
X153260404Y-63410404D01*
X153347342Y-63294267D01*
X153398040Y-63158342D01*
X153403911Y-63103729D01*
X155540623Y-63103729D01*
X155556185Y-63268358D01*
X155556186Y-63268363D01*
X155586943Y-63353793D01*
X155612201Y-63423950D01*
X155679733Y-63523320D01*
X155705152Y-63560723D01*
X155801558Y-63645715D01*
X155829192Y-63670078D01*
X155925583Y-63719190D01*
X155976531Y-63745150D01*
X155976534Y-63745151D01*
X156114676Y-63776030D01*
X156137913Y-63781224D01*
X156137916Y-63781225D01*
X156137916Y-63781224D01*
X156137917Y-63781225D01*
X156303200Y-63776031D01*
X156461999Y-63729896D01*
X156462001Y-63729894D01*
X156462003Y-63729894D01*
X156533167Y-63687807D01*
X156604336Y-63645718D01*
X158558648Y-61691404D01*
X158620960Y-61657380D01*
X158647743Y-61654500D01*
X161613833Y-61654500D01*
X161629999Y-61656285D01*
X161630024Y-61656028D01*
X161637916Y-61656774D01*
X161637916Y-61656773D01*
X161637917Y-61656774D01*
X161653853Y-61656273D01*
X161709297Y-61654531D01*
X161711275Y-61654500D01*
X161741174Y-61654500D01*
X161741178Y-61654500D01*
X161748457Y-61653579D01*
X161754356Y-61653114D01*
X161803200Y-61651580D01*
X161823612Y-61645649D01*
X161842968Y-61641640D01*
X161864061Y-61638976D01*
X161909477Y-61620993D01*
X161915083Y-61619074D01*
X161961999Y-61605445D01*
X161980299Y-61594621D01*
X161998050Y-61585925D01*
X162017814Y-61578101D01*
X162057346Y-61549378D01*
X162062290Y-61546132D01*
X162104336Y-61521267D01*
X162119369Y-61506233D01*
X162134397Y-61493397D01*
X162151597Y-61480902D01*
X162182742Y-61443253D01*
X162186710Y-61438891D01*
X164401868Y-59223732D01*
X164414568Y-59213559D01*
X164414404Y-59213360D01*
X164420504Y-59208312D01*
X164420510Y-59208309D01*
X164469452Y-59156189D01*
X164470736Y-59154864D01*
X164491918Y-59133684D01*
X164496416Y-59127883D01*
X164500260Y-59123382D01*
X164533710Y-59087763D01*
X164543949Y-59069138D01*
X164554805Y-59052611D01*
X164557228Y-59049486D01*
X164567833Y-59035816D01*
X164587230Y-58990988D01*
X164589845Y-58985653D01*
X164599005Y-58968991D01*
X164613375Y-58942853D01*
X164618663Y-58922252D01*
X164625061Y-58903564D01*
X164633507Y-58884051D01*
X164641151Y-58835784D01*
X164642343Y-58830027D01*
X164654500Y-58782683D01*
X164654500Y-58761425D01*
X164656051Y-58741713D01*
X164659376Y-58720722D01*
X164654780Y-58672095D01*
X164654500Y-58666163D01*
X164654500Y-45836167D01*
X164656285Y-45820000D01*
X164656028Y-45819976D01*
X164656774Y-45812083D01*
X164654531Y-45740701D01*
X164654500Y-45738723D01*
X164654500Y-45708827D01*
X164654500Y-45708822D01*
X164653580Y-45701541D01*
X164653113Y-45695629D01*
X164651580Y-45646800D01*
X164645649Y-45626387D01*
X164641639Y-45607026D01*
X164638976Y-45585939D01*
X164620991Y-45540514D01*
X164619077Y-45534925D01*
X164605445Y-45488002D01*
X164594626Y-45469708D01*
X164585928Y-45451955D01*
X164578101Y-45432186D01*
X164578099Y-45432183D01*
X164578099Y-45432182D01*
X164559902Y-45407137D01*
X164549386Y-45392663D01*
X164546131Y-45387707D01*
X164521266Y-45345664D01*
X164521262Y-45345659D01*
X164506240Y-45330637D01*
X164493399Y-45315603D01*
X164480903Y-45298404D01*
X164480902Y-45298403D01*
X164477838Y-45295868D01*
X164443247Y-45267252D01*
X164438875Y-45263273D01*
X164398696Y-45223094D01*
X164364671Y-45160783D01*
X164369736Y-45089968D01*
X164412283Y-45033132D01*
X164478803Y-45008321D01*
X164487792Y-45008000D01*
X164646000Y-45008000D01*
X164646000Y-43933674D01*
X164757685Y-43984680D01*
X164864237Y-44000000D01*
X164935763Y-44000000D01*
X165042315Y-43984680D01*
X165154000Y-43933674D01*
X165154000Y-45008000D01*
X165550517Y-45008000D01*
X165550516Y-45007999D01*
X165654318Y-44997394D01*
X165654321Y-44997393D01*
X165822525Y-44941657D01*
X165973339Y-44848634D01*
X165973345Y-44848629D01*
X166098629Y-44723345D01*
X166098634Y-44723339D01*
X166191657Y-44572525D01*
X166247393Y-44404321D01*
X166247394Y-44404318D01*
X166257999Y-44300516D01*
X166258000Y-44300516D01*
X166258000Y-43754000D01*
X165331116Y-43754000D01*
X165359493Y-43709844D01*
X165400000Y-43571889D01*
X165400000Y-43428111D01*
X165359493Y-43290156D01*
X165331116Y-43246000D01*
X166258000Y-43246000D01*
X166258000Y-42699483D01*
X166247394Y-42595681D01*
X166247393Y-42595678D01*
X166191657Y-42427474D01*
X166168651Y-42390176D01*
X166149914Y-42321697D01*
X166171173Y-42253958D01*
X166225680Y-42208466D01*
X166296129Y-42199665D01*
X166304929Y-42201421D01*
X166414967Y-42227500D01*
X166414969Y-42227500D01*
X166542379Y-42227500D01*
X166575229Y-42223660D01*
X166668915Y-42212710D01*
X166828724Y-42154544D01*
X166970812Y-42061092D01*
X166973407Y-42058342D01*
X167010767Y-42018742D01*
X167087518Y-41937391D01*
X167172550Y-41790110D01*
X167221325Y-41627189D01*
X167231214Y-41457412D01*
X167201682Y-41289930D01*
X167201680Y-41289925D01*
X167201680Y-41289924D01*
X167134325Y-41133777D01*
X167112140Y-41103977D01*
X167032767Y-40997360D01*
X166902489Y-40888044D01*
X166750514Y-40811719D01*
X166585033Y-40772500D01*
X166457624Y-40772500D01*
X166457621Y-40772500D01*
X166331084Y-40787290D01*
X166171277Y-40845455D01*
X166029183Y-40938911D01*
X165912483Y-41062607D01*
X165912480Y-41062611D01*
X165827452Y-41209884D01*
X165827450Y-41209890D01*
X165778675Y-41372811D01*
X165768786Y-41542588D01*
X165783703Y-41627187D01*
X165798319Y-41710074D01*
X165798319Y-41710075D01*
X165858345Y-41849231D01*
X165866960Y-41919703D01*
X165836107Y-41983646D01*
X165775582Y-42020757D01*
X165704602Y-42019255D01*
X165703017Y-42018742D01*
X165654321Y-42002606D01*
X165654318Y-42002605D01*
X165550516Y-41992000D01*
X165154000Y-41992000D01*
X165154000Y-43066325D01*
X165042315Y-43015320D01*
X164935763Y-43000000D01*
X164864237Y-43000000D01*
X164757685Y-43015320D01*
X164646000Y-43066325D01*
X164646000Y-41992000D01*
X164249483Y-41992000D01*
X164145681Y-42002605D01*
X164145678Y-42002606D01*
X163977474Y-42058342D01*
X163826660Y-42151365D01*
X163826654Y-42151370D01*
X163701370Y-42276654D01*
X163701365Y-42276660D01*
X163608342Y-42427474D01*
X163552606Y-42595678D01*
X163552605Y-42595681D01*
X163545118Y-42668963D01*
X163518296Y-42734698D01*
X163460192Y-42775496D01*
X163389255Y-42778405D01*
X163328007Y-42742500D01*
X163320729Y-42734044D01*
X163203005Y-42584347D01*
X163203003Y-42584344D01*
X163203000Y-42584341D01*
X163202997Y-42584338D01*
X163202993Y-42584334D01*
X163043592Y-42446212D01*
X163043584Y-42446206D01*
X162860916Y-42340743D01*
X162860918Y-42340743D01*
X162860913Y-42340741D01*
X162661580Y-42271752D01*
X162661578Y-42271751D01*
X162661574Y-42271750D01*
X162452794Y-42241732D01*
X162242106Y-42251768D01*
X162242095Y-42251769D01*
X162037113Y-42301498D01*
X162037111Y-42301498D01*
X161845236Y-42389125D01*
X161673416Y-42511478D01*
X161673412Y-42511481D01*
X161527851Y-42664142D01*
X161413816Y-42841586D01*
X161335419Y-43037414D01*
X161295500Y-43244528D01*
X161295500Y-43702630D01*
X161310525Y-43859969D01*
X161310528Y-43859984D01*
X161369953Y-44062370D01*
X161466607Y-44249851D01*
X161466611Y-44249858D01*
X161596994Y-44415652D01*
X161597006Y-44415665D01*
X161676949Y-44484936D01*
X161756413Y-44553792D01*
X161939087Y-44659259D01*
X161979855Y-44673368D01*
X162027740Y-44703343D01*
X163308595Y-45984198D01*
X163342621Y-46046510D01*
X163345500Y-46073293D01*
X163345500Y-48173930D01*
X163325498Y-48242051D01*
X163271842Y-48288544D01*
X163201568Y-48298648D01*
X163140063Y-48270558D01*
X163139618Y-48271118D01*
X163137379Y-48269332D01*
X163136988Y-48269154D01*
X163135989Y-48268224D01*
X163134085Y-48266705D01*
X162985354Y-48173252D01*
X162985352Y-48173251D01*
X162819551Y-48115234D01*
X162688776Y-48100500D01*
X162688774Y-48100500D01*
X161551226Y-48100500D01*
X161551224Y-48100500D01*
X161420448Y-48115234D01*
X161254647Y-48173251D01*
X161254645Y-48173252D01*
X161105914Y-48266705D01*
X160981705Y-48390914D01*
X160888252Y-48539645D01*
X160888251Y-48539647D01*
X160830234Y-48705448D01*
X160810568Y-48880000D01*
X160830234Y-49054551D01*
X160888251Y-49220352D01*
X160888252Y-49220354D01*
X160981705Y-49369085D01*
X161105914Y-49493294D01*
X161210226Y-49558837D01*
X161254648Y-49586749D01*
X161420447Y-49644765D01*
X161434444Y-49646342D01*
X161551224Y-49659500D01*
X162375829Y-49659500D01*
X162443950Y-49679502D01*
X162490443Y-49733158D01*
X162500547Y-49803432D01*
X162471053Y-49868012D01*
X162430499Y-49899022D01*
X162362220Y-49931903D01*
X162262223Y-50024686D01*
X162262223Y-50024687D01*
X162194023Y-50142811D01*
X162194021Y-50142818D01*
X162163669Y-50275800D01*
X162163669Y-50275801D01*
X162163669Y-50275803D01*
X162163963Y-50279720D01*
X162173862Y-50411829D01*
X162223697Y-50538805D01*
X162301181Y-50635969D01*
X162308745Y-50645453D01*
X162421450Y-50722293D01*
X162421452Y-50722293D01*
X162421453Y-50722294D01*
X162446841Y-50730125D01*
X162551797Y-50762500D01*
X162551798Y-50762500D01*
X162653906Y-50762500D01*
X162653910Y-50762500D01*
X162754883Y-50747281D01*
X162877781Y-50688096D01*
X162977775Y-50595316D01*
X163041793Y-50484433D01*
X163045976Y-50477188D01*
X163045976Y-50477186D01*
X163045978Y-50477184D01*
X163076331Y-50344197D01*
X163066138Y-50208172D01*
X163016303Y-50081195D01*
X162931255Y-49974547D01*
X162818550Y-49897707D01*
X162818547Y-49897706D01*
X162818544Y-49897704D01*
X162795244Y-49890517D01*
X162736047Y-49851324D01*
X162707436Y-49786347D01*
X162718496Y-49716217D01*
X162765715Y-49663200D01*
X162812758Y-49646831D01*
X162812647Y-49646342D01*
X162817067Y-49645332D01*
X162818290Y-49644907D01*
X162819553Y-49644765D01*
X162985352Y-49586749D01*
X163134085Y-49493294D01*
X163134085Y-49493293D01*
X163139618Y-49488882D01*
X163141319Y-49491015D01*
X163192717Y-49462949D01*
X163263532Y-49468014D01*
X163320368Y-49510561D01*
X163345179Y-49577081D01*
X163345500Y-49586070D01*
X163345500Y-56813929D01*
X163325498Y-56882050D01*
X163271842Y-56928543D01*
X163201568Y-56938647D01*
X163140064Y-56910558D01*
X163139618Y-56911118D01*
X163137376Y-56909330D01*
X163136988Y-56909153D01*
X163135993Y-56908227D01*
X163134085Y-56906705D01*
X162985354Y-56813252D01*
X162985352Y-56813251D01*
X162819549Y-56755233D01*
X162818141Y-56755075D01*
X162817293Y-56754718D01*
X162812647Y-56753658D01*
X162812832Y-56752844D01*
X162752690Y-56727567D01*
X162712501Y-56669040D01*
X162710334Y-56598077D01*
X162746876Y-56537207D01*
X162777584Y-56516348D01*
X162877781Y-56468096D01*
X162977775Y-56375316D01*
X163045978Y-56257184D01*
X163076331Y-56124197D01*
X163066138Y-55988172D01*
X163016303Y-55861195D01*
X162931255Y-55754547D01*
X162818550Y-55677707D01*
X162818548Y-55677706D01*
X162818546Y-55677705D01*
X162725616Y-55649040D01*
X162688203Y-55637500D01*
X162586090Y-55637500D01*
X162518774Y-55647646D01*
X162485115Y-55652719D01*
X162362219Y-55711903D01*
X162262223Y-55804686D01*
X162262223Y-55804687D01*
X162194023Y-55922811D01*
X162194021Y-55922818D01*
X162163669Y-56055800D01*
X162163669Y-56055801D01*
X162173862Y-56191829D01*
X162223697Y-56318805D01*
X162268762Y-56375316D01*
X162308745Y-56425453D01*
X162421450Y-56502293D01*
X162421451Y-56502293D01*
X162429251Y-56507611D01*
X162428037Y-56509390D01*
X162471416Y-56548555D01*
X162490025Y-56617069D01*
X162468638Y-56684768D01*
X162414045Y-56730157D01*
X162364051Y-56740500D01*
X161551224Y-56740500D01*
X161420448Y-56755234D01*
X161254647Y-56813251D01*
X161254645Y-56813252D01*
X161105914Y-56906705D01*
X160981705Y-57030914D01*
X160888252Y-57179645D01*
X160888251Y-57179647D01*
X160830234Y-57345448D01*
X160810568Y-57520000D01*
X160830234Y-57694551D01*
X160888251Y-57860352D01*
X160888252Y-57860354D01*
X160981705Y-58009085D01*
X161105914Y-58133294D01*
X161210226Y-58198837D01*
X161254648Y-58226749D01*
X161420447Y-58284765D01*
X161458043Y-58289001D01*
X161551224Y-58299500D01*
X161551226Y-58299500D01*
X162688776Y-58299500D01*
X162773090Y-58290000D01*
X162819553Y-58284765D01*
X162985352Y-58226749D01*
X163134085Y-58133294D01*
X163134085Y-58133293D01*
X163139618Y-58128882D01*
X163141319Y-58131015D01*
X163192717Y-58102949D01*
X163263532Y-58108014D01*
X163320368Y-58150561D01*
X163345179Y-58217081D01*
X163345500Y-58226070D01*
X163345500Y-58376706D01*
X163325498Y-58444827D01*
X163308595Y-58465801D01*
X161465802Y-60308595D01*
X161403490Y-60342620D01*
X161376707Y-60345500D01*
X158410618Y-60345500D01*
X158394451Y-60343714D01*
X158394427Y-60343972D01*
X158386534Y-60343225D01*
X158315154Y-60345469D01*
X158313176Y-60345500D01*
X158283270Y-60345500D01*
X158275988Y-60346419D01*
X158270075Y-60346885D01*
X158221251Y-60348419D01*
X158200835Y-60354351D01*
X158181479Y-60358359D01*
X158160397Y-60361022D01*
X158160391Y-60361023D01*
X158160390Y-60361024D01*
X158154136Y-60363500D01*
X158114963Y-60379008D01*
X158109348Y-60380930D01*
X158062454Y-60394554D01*
X158062451Y-60394555D01*
X158044155Y-60405376D01*
X158026404Y-60414072D01*
X158006641Y-60421896D01*
X158006636Y-60421899D01*
X157967114Y-60450613D01*
X157962151Y-60453872D01*
X157920116Y-60478731D01*
X157905082Y-60493765D01*
X157890057Y-60506597D01*
X157872858Y-60519094D01*
X157872855Y-60519096D01*
X157841716Y-60556735D01*
X157837721Y-60561126D01*
X155708086Y-62690761D01*
X155708075Y-62690774D01*
X155632166Y-62788636D01*
X155632163Y-62788641D01*
X155566491Y-62940400D01*
X155540624Y-63103728D01*
X155540623Y-63103729D01*
X153403911Y-63103729D01*
X153404500Y-63098255D01*
X153404499Y-61501746D01*
X153398040Y-61441658D01*
X153347342Y-61305733D01*
X153260404Y-61189596D01*
X153144267Y-61102658D01*
X153144265Y-61102657D01*
X153144266Y-61102657D01*
X153008349Y-61051962D01*
X153008344Y-61051960D01*
X153008342Y-61051960D01*
X152978298Y-61048730D01*
X152948256Y-61045500D01*
X151651753Y-61045500D01*
X151651729Y-61045502D01*
X151591660Y-61051959D01*
X151591658Y-61051959D01*
X151455733Y-61102657D01*
X151339596Y-61189596D01*
X151252657Y-61305734D01*
X151201962Y-61441650D01*
X151201960Y-61441658D01*
X151195500Y-61501737D01*
X151195500Y-63098246D01*
X150696319Y-63098246D01*
X150786184Y-62958413D01*
X150864580Y-62762589D01*
X150904500Y-62555467D01*
X150904500Y-62097387D01*
X150904499Y-62097369D01*
X150889474Y-61940030D01*
X150889473Y-61940028D01*
X150889473Y-61940021D01*
X150830047Y-61737632D01*
X150830046Y-61737631D01*
X150830046Y-61737629D01*
X150733392Y-61550148D01*
X150733388Y-61550141D01*
X150603005Y-61384347D01*
X150603003Y-61384344D01*
X150603000Y-61384341D01*
X150602997Y-61384338D01*
X150602993Y-61384334D01*
X150443592Y-61246212D01*
X150443584Y-61246206D01*
X150260916Y-61140743D01*
X150260918Y-61140743D01*
X150260913Y-61140741D01*
X150061580Y-61071752D01*
X150061578Y-61071751D01*
X150061574Y-61071750D01*
X149852794Y-61041732D01*
X149642109Y-61051767D01*
X149642093Y-61051770D01*
X149578296Y-61067247D01*
X149507380Y-61063869D01*
X149459496Y-61033894D01*
X148768190Y-60342588D01*
X153168786Y-60342588D01*
X153192792Y-60478733D01*
X153198319Y-60510074D01*
X153198319Y-60510075D01*
X153265674Y-60666222D01*
X153265677Y-60666226D01*
X153367233Y-60802640D01*
X153497511Y-60911956D01*
X153649486Y-60988281D01*
X153814967Y-61027500D01*
X153814969Y-61027500D01*
X153942379Y-61027500D01*
X153975229Y-61023660D01*
X154068915Y-61012710D01*
X154228724Y-60954544D01*
X154370812Y-60861092D01*
X154487518Y-60737391D01*
X154572550Y-60590110D01*
X154621325Y-60427189D01*
X154631214Y-60257412D01*
X154601682Y-60089930D01*
X154601680Y-60089925D01*
X154601680Y-60089924D01*
X154534325Y-59933777D01*
X154481344Y-59862611D01*
X154432767Y-59797360D01*
X154302489Y-59688044D01*
X154150514Y-59611719D01*
X153985033Y-59572500D01*
X153857624Y-59572500D01*
X153857621Y-59572500D01*
X153731084Y-59587290D01*
X153571277Y-59645455D01*
X153429183Y-59738911D01*
X153312483Y-59862607D01*
X153312480Y-59862611D01*
X153227452Y-60009884D01*
X153227450Y-60009890D01*
X153178675Y-60172811D01*
X153168786Y-60342588D01*
X148768190Y-60342588D01*
X147625603Y-59200000D01*
X150540715Y-59200000D01*
X150559771Y-59344752D01*
X150615644Y-59479641D01*
X150615649Y-59479649D01*
X150704525Y-59595474D01*
X150769663Y-59645456D01*
X150820357Y-59684355D01*
X150955246Y-59740228D01*
X151100000Y-59759285D01*
X151244754Y-59740228D01*
X151379643Y-59684355D01*
X151495474Y-59595474D01*
X151584355Y-59479643D01*
X151640228Y-59344754D01*
X151659285Y-59200000D01*
X151640228Y-59055246D01*
X151628420Y-59026739D01*
X151614091Y-58992144D01*
X151604500Y-58943927D01*
X151604500Y-57598597D01*
X156842000Y-57598597D01*
X156848505Y-57659093D01*
X156899555Y-57795964D01*
X156899555Y-57795965D01*
X156987095Y-57912904D01*
X157104034Y-58000444D01*
X157240906Y-58051494D01*
X157301402Y-58057999D01*
X157301415Y-58058000D01*
X157946000Y-58058000D01*
X157946000Y-57133674D01*
X158057685Y-57184680D01*
X158164237Y-57200000D01*
X158235763Y-57200000D01*
X158342315Y-57184680D01*
X158454000Y-57133674D01*
X158454000Y-58058000D01*
X159098585Y-58058000D01*
X159098597Y-58057999D01*
X159159093Y-58051494D01*
X159295964Y-58000444D01*
X159295965Y-58000444D01*
X159412904Y-57912904D01*
X159500444Y-57795965D01*
X159500444Y-57795964D01*
X159551494Y-57659093D01*
X159557999Y-57598597D01*
X159558000Y-57598585D01*
X159558000Y-56954000D01*
X158631116Y-56954000D01*
X158659493Y-56909844D01*
X158700000Y-56771889D01*
X158700000Y-56628111D01*
X158659493Y-56490156D01*
X158631116Y-56446000D01*
X159558000Y-56446000D01*
X159558000Y-55801414D01*
X159557999Y-55801402D01*
X159551494Y-55740906D01*
X159500444Y-55604035D01*
X159500444Y-55604034D01*
X159412904Y-55487095D01*
X159295965Y-55399555D01*
X159159093Y-55348505D01*
X159098597Y-55342000D01*
X158831935Y-55342000D01*
X158763814Y-55321998D01*
X158717321Y-55268342D01*
X158707217Y-55198068D01*
X158736711Y-55133488D01*
X158765605Y-55108873D01*
X158855517Y-55053201D01*
X158868462Y-55045186D01*
X159019732Y-54907285D01*
X159143088Y-54743935D01*
X159234328Y-54560701D01*
X159290345Y-54363821D01*
X159309232Y-54160000D01*
X159305830Y-54123292D01*
X159290345Y-53956182D01*
X159290345Y-53956179D01*
X159240951Y-53782576D01*
X159241547Y-53711585D01*
X159273044Y-53659004D01*
X160120050Y-52811998D01*
X160182360Y-52777974D01*
X160225583Y-52776173D01*
X160366955Y-52794785D01*
X160511709Y-52775728D01*
X160646598Y-52719855D01*
X160762429Y-52630974D01*
X160769538Y-52621709D01*
X160826875Y-52579843D01*
X160897746Y-52575621D01*
X160959649Y-52610385D01*
X160992930Y-52673098D01*
X160995500Y-52698414D01*
X160995500Y-54338838D01*
X160975498Y-54406959D01*
X160958599Y-54427928D01*
X160595394Y-54791134D01*
X160324333Y-55062195D01*
X160283458Y-55089507D01*
X160220360Y-55115643D01*
X160220359Y-55115644D01*
X160104526Y-55204526D01*
X160015646Y-55320356D01*
X160015645Y-55320358D01*
X160001570Y-55354338D01*
X159959771Y-55455247D01*
X159940715Y-55599999D01*
X159940715Y-55600000D01*
X159959771Y-55744752D01*
X160015644Y-55879641D01*
X160015649Y-55879649D01*
X160104525Y-55995474D01*
X160220350Y-56084350D01*
X160220357Y-56084355D01*
X160355246Y-56140228D01*
X160500000Y-56159285D01*
X160644754Y-56140228D01*
X160779643Y-56084355D01*
X160895474Y-55995474D01*
X160984355Y-55879643D01*
X161010493Y-55816538D01*
X161037803Y-55775666D01*
X161808804Y-55004665D01*
X161829780Y-54987763D01*
X161833775Y-54985196D01*
X161868009Y-54945686D01*
X161871062Y-54942408D01*
X161882250Y-54931221D01*
X161891739Y-54918543D01*
X161894538Y-54915069D01*
X161928777Y-54875558D01*
X161930750Y-54871236D01*
X161944502Y-54848062D01*
X161947343Y-54844267D01*
X161965608Y-54795294D01*
X161967324Y-54791149D01*
X161989042Y-54743596D01*
X161989717Y-54738896D01*
X161996381Y-54712788D01*
X161998040Y-54708342D01*
X162001768Y-54656211D01*
X162002249Y-54651732D01*
X162004500Y-54636086D01*
X162004500Y-54620276D01*
X162004661Y-54615780D01*
X162008390Y-54563641D01*
X162008389Y-54563635D01*
X162007379Y-54558990D01*
X162004500Y-54532211D01*
X162004500Y-51741378D01*
X162007379Y-51714597D01*
X162008389Y-51709956D01*
X162005630Y-51671383D01*
X162004661Y-51657824D01*
X162004500Y-51653328D01*
X162004500Y-51637512D01*
X162004140Y-51635014D01*
X162002245Y-51621834D01*
X162001770Y-51617411D01*
X161998040Y-51565254D01*
X161996380Y-51560805D01*
X161989717Y-51534697D01*
X161989042Y-51530000D01*
X161977585Y-51504912D01*
X161967330Y-51482456D01*
X161965608Y-51478299D01*
X161956728Y-51454492D01*
X161947343Y-51429329D01*
X161944492Y-51425521D01*
X161930749Y-51402357D01*
X161928777Y-51398038D01*
X161894536Y-51358522D01*
X161891735Y-51355046D01*
X161882250Y-51342375D01*
X161871053Y-51331178D01*
X161868000Y-51327898D01*
X161833775Y-51288400D01*
X161829773Y-51285828D01*
X161808803Y-51268928D01*
X161128284Y-50588409D01*
X161100970Y-50547531D01*
X161074836Y-50484436D01*
X161074832Y-50484431D01*
X160985953Y-50368601D01*
X160985951Y-50368599D01*
X160985950Y-50368598D01*
X160870128Y-50279724D01*
X160870120Y-50279719D01*
X160735231Y-50223846D01*
X160590479Y-50204790D01*
X160445726Y-50223846D01*
X160402571Y-50241722D01*
X160310837Y-50279720D01*
X160310836Y-50279721D01*
X160310835Y-50279721D01*
X160195005Y-50368601D01*
X160106125Y-50484431D01*
X160106124Y-50484433D01*
X160085573Y-50534048D01*
X160050250Y-50619322D01*
X160031194Y-50764074D01*
X160031194Y-50764075D01*
X160050250Y-50908827D01*
X160106123Y-51043716D01*
X160106128Y-51043724D01*
X160195004Y-51159549D01*
X160310829Y-51248425D01*
X160310836Y-51248430D01*
X160373938Y-51274567D01*
X160414814Y-51301881D01*
X160590691Y-51477758D01*
X160624717Y-51540070D01*
X160619652Y-51610885D01*
X160577105Y-51667721D01*
X160510585Y-51692532D01*
X160485150Y-51691775D01*
X160366956Y-51676215D01*
X160366955Y-51676215D01*
X160222202Y-51695271D01*
X160175561Y-51714591D01*
X160087313Y-51751145D01*
X160087312Y-51751146D01*
X160087311Y-51751146D01*
X159971476Y-51840029D01*
X159971046Y-51840591D01*
X159965998Y-51845507D01*
X159965642Y-51845864D01*
X159965637Y-51845859D01*
X159945153Y-51865812D01*
X159920510Y-51883716D01*
X159903657Y-51894043D01*
X159883781Y-51904171D01*
X159883778Y-51904173D01*
X159883777Y-51904173D01*
X159883777Y-51904174D01*
X159860988Y-51926962D01*
X159860987Y-51926962D01*
X159860985Y-51926965D01*
X158699480Y-53088469D01*
X158637168Y-53122494D01*
X158566352Y-53117429D01*
X158564907Y-53116879D01*
X158539591Y-53107072D01*
X158503557Y-53093112D01*
X158401571Y-53074048D01*
X158302347Y-53055500D01*
X158097653Y-53055500D01*
X157896444Y-53093112D01*
X157896439Y-53093113D01*
X157705577Y-53167054D01*
X157705566Y-53167059D01*
X157531536Y-53274814D01*
X157380266Y-53412715D01*
X157256913Y-53576063D01*
X157165671Y-53759301D01*
X157109654Y-53956180D01*
X157090768Y-54159995D01*
X157090768Y-54160004D01*
X157109654Y-54363819D01*
X157157566Y-54532211D01*
X157165672Y-54560701D01*
X157224528Y-54678899D01*
X157256912Y-54743935D01*
X157380266Y-54907284D01*
X157531538Y-55045186D01*
X157531539Y-55045187D01*
X157634395Y-55108873D01*
X157681783Y-55161740D01*
X157693066Y-55231834D01*
X157664662Y-55296901D01*
X157605589Y-55336283D01*
X157568065Y-55342000D01*
X157301402Y-55342000D01*
X157240906Y-55348505D01*
X157104035Y-55399555D01*
X157104034Y-55399555D01*
X156987095Y-55487095D01*
X156899555Y-55604034D01*
X156899555Y-55604035D01*
X156848505Y-55740906D01*
X156842000Y-55801402D01*
X156842000Y-56446000D01*
X157768884Y-56446000D01*
X157740507Y-56490156D01*
X157700000Y-56628111D01*
X157700000Y-56771889D01*
X157740507Y-56909844D01*
X157768884Y-56954000D01*
X156842000Y-56954000D01*
X156842000Y-57598597D01*
X151604500Y-57598597D01*
X151604500Y-52900000D01*
X153616215Y-52900000D01*
X153635271Y-53044752D01*
X153691144Y-53179641D01*
X153691149Y-53179649D01*
X153780025Y-53295474D01*
X153895850Y-53384350D01*
X153895857Y-53384355D01*
X154030746Y-53440228D01*
X154175500Y-53459285D01*
X154320254Y-53440228D01*
X154455143Y-53384355D01*
X154570974Y-53295474D01*
X154659855Y-53179643D01*
X154715728Y-53044754D01*
X154734785Y-52900000D01*
X154715728Y-52755246D01*
X154701814Y-52721654D01*
X154694225Y-52651065D01*
X154726005Y-52587578D01*
X154729100Y-52584370D01*
X155693466Y-51620004D01*
X157090768Y-51620004D01*
X157109654Y-51823819D01*
X157165425Y-52019833D01*
X157165672Y-52020701D01*
X157256912Y-52203935D01*
X157256913Y-52203936D01*
X157380266Y-52367284D01*
X157531536Y-52505185D01*
X157705566Y-52612940D01*
X157705568Y-52612940D01*
X157705573Y-52612944D01*
X157896444Y-52686888D01*
X158097653Y-52724500D01*
X158097655Y-52724500D01*
X158302345Y-52724500D01*
X158302347Y-52724500D01*
X158503556Y-52686888D01*
X158694427Y-52612944D01*
X158868462Y-52505186D01*
X159019732Y-52367285D01*
X159143088Y-52203935D01*
X159234328Y-52020701D01*
X159290345Y-51823821D01*
X159297079Y-51751146D01*
X159309232Y-51620004D01*
X159309232Y-51619995D01*
X159291564Y-51429330D01*
X159290345Y-51416179D01*
X159234328Y-51219299D01*
X159143088Y-51036065D01*
X159073187Y-50943501D01*
X159019733Y-50872715D01*
X158868463Y-50734814D01*
X158694433Y-50627059D01*
X158694428Y-50627057D01*
X158694427Y-50627056D01*
X158674461Y-50619321D01*
X158503559Y-50553113D01*
X158503560Y-50553113D01*
X158503557Y-50553112D01*
X158503556Y-50553112D01*
X158302347Y-50515500D01*
X158097653Y-50515500D01*
X157896444Y-50553112D01*
X157896439Y-50553113D01*
X157705577Y-50627054D01*
X157705566Y-50627059D01*
X157531536Y-50734814D01*
X157380266Y-50872715D01*
X157256913Y-51036063D01*
X157165671Y-51219301D01*
X157109654Y-51416180D01*
X157090768Y-51619995D01*
X157090768Y-51620004D01*
X155693466Y-51620004D01*
X157350603Y-49962866D01*
X157412915Y-49928841D01*
X157483730Y-49933906D01*
X157524584Y-49958847D01*
X157531536Y-49965185D01*
X157705566Y-50072940D01*
X157705568Y-50072940D01*
X157705573Y-50072944D01*
X157896444Y-50146888D01*
X158097653Y-50184500D01*
X158097655Y-50184500D01*
X158302345Y-50184500D01*
X158302347Y-50184500D01*
X158503556Y-50146888D01*
X158694427Y-50072944D01*
X158868462Y-49965186D01*
X159019732Y-49827285D01*
X159143088Y-49663935D01*
X159234328Y-49480701D01*
X159290345Y-49283821D01*
X159307576Y-49097870D01*
X159309232Y-49080004D01*
X159309232Y-49079995D01*
X159290345Y-48876180D01*
X159253901Y-48748092D01*
X159234328Y-48679299D01*
X159143088Y-48496065D01*
X159063682Y-48390914D01*
X159019733Y-48332715D01*
X158868463Y-48194814D01*
X158694433Y-48087059D01*
X158694428Y-48087057D01*
X158694427Y-48087056D01*
X158694422Y-48087054D01*
X158503559Y-48013113D01*
X158503560Y-48013113D01*
X158503557Y-48013112D01*
X158503556Y-48013112D01*
X158302347Y-47975500D01*
X158097653Y-47975500D01*
X157896444Y-48013112D01*
X157896439Y-48013113D01*
X157705577Y-48087054D01*
X157705566Y-48087059D01*
X157531536Y-48194814D01*
X157380266Y-48332715D01*
X157256913Y-48496063D01*
X157256912Y-48496064D01*
X157256912Y-48496065D01*
X157225932Y-48558281D01*
X157165672Y-48679299D01*
X157165670Y-48679302D01*
X157160061Y-48699015D01*
X157138902Y-48738159D01*
X157139671Y-48738653D01*
X157132230Y-48750229D01*
X157115334Y-48771193D01*
X153866694Y-52019833D01*
X153845728Y-52036731D01*
X153841725Y-52039303D01*
X153841723Y-52039305D01*
X153807498Y-52078802D01*
X153804435Y-52082093D01*
X153793253Y-52093274D01*
X153793246Y-52093283D01*
X153783765Y-52105948D01*
X153780946Y-52109446D01*
X153746722Y-52148941D01*
X153744744Y-52153274D01*
X153731015Y-52176413D01*
X153728157Y-52180230D01*
X153728157Y-52180232D01*
X153709887Y-52229213D01*
X153708166Y-52233367D01*
X153686458Y-52280900D01*
X153686457Y-52280904D01*
X153685781Y-52285610D01*
X153679124Y-52311695D01*
X153677460Y-52316157D01*
X153673730Y-52368289D01*
X153673250Y-52372750D01*
X153671001Y-52388408D01*
X153671000Y-52388423D01*
X153671000Y-52404232D01*
X153670839Y-52408728D01*
X153667111Y-52460860D01*
X153668120Y-52465501D01*
X153671000Y-52492282D01*
X153671000Y-52643927D01*
X153661409Y-52692144D01*
X153635272Y-52755245D01*
X153616215Y-52899999D01*
X153616215Y-52900000D01*
X151604500Y-52900000D01*
X151604500Y-52161160D01*
X151624502Y-52093039D01*
X151641400Y-52072070D01*
X153758804Y-49954665D01*
X153779780Y-49937763D01*
X153783775Y-49935196D01*
X153818009Y-49895686D01*
X153821062Y-49892408D01*
X153822953Y-49890517D01*
X153832250Y-49881221D01*
X153841739Y-49868543D01*
X153844538Y-49865069D01*
X153878777Y-49825558D01*
X153880750Y-49821236D01*
X153894502Y-49798062D01*
X153897343Y-49794267D01*
X153915608Y-49745294D01*
X153917324Y-49741149D01*
X153939042Y-49693596D01*
X153939717Y-49688898D01*
X153946382Y-49662786D01*
X153948040Y-49658342D01*
X153949969Y-49631361D01*
X153951769Y-49606204D01*
X153952248Y-49601741D01*
X153954500Y-49586083D01*
X153954500Y-49570266D01*
X153954661Y-49565771D01*
X153958389Y-49513640D01*
X153958388Y-49513635D01*
X153957379Y-49508994D01*
X153954500Y-49482215D01*
X153954500Y-44570735D01*
X153957379Y-44543954D01*
X153958389Y-44539313D01*
X153954661Y-44487181D01*
X153954500Y-44482685D01*
X153954500Y-44466869D01*
X153954140Y-44464371D01*
X153952245Y-44451191D01*
X153951770Y-44446768D01*
X153948040Y-44394611D01*
X153946382Y-44390166D01*
X153939717Y-44364056D01*
X153939042Y-44359357D01*
X153917319Y-44311792D01*
X153915602Y-44307645D01*
X153912943Y-44300516D01*
X153897342Y-44258686D01*
X153897340Y-44258683D01*
X153894495Y-44254882D01*
X153880748Y-44231712D01*
X153878777Y-44227395D01*
X153844549Y-44187893D01*
X153841727Y-44184392D01*
X153832249Y-44171731D01*
X153821053Y-44160535D01*
X153818000Y-44157255D01*
X153783779Y-44117762D01*
X153783775Y-44117757D01*
X153779773Y-44115185D01*
X153758803Y-44098285D01*
X152341405Y-42680887D01*
X152307379Y-42618575D01*
X152304500Y-42591792D01*
X152304500Y-42056072D01*
X152314091Y-42007854D01*
X152324118Y-41983646D01*
X152340228Y-41944754D01*
X152359285Y-41800000D01*
X152340228Y-41655246D01*
X152284355Y-41520358D01*
X152195474Y-41404526D01*
X152195472Y-41404524D01*
X152195471Y-41404523D01*
X152079649Y-41315649D01*
X152079641Y-41315644D01*
X151944752Y-41259771D01*
X151800000Y-41240715D01*
X151655247Y-41259771D01*
X151613572Y-41277034D01*
X151520358Y-41315645D01*
X151520357Y-41315646D01*
X151520356Y-41315646D01*
X151404526Y-41404526D01*
X151315646Y-41520356D01*
X151315645Y-41520358D01*
X151306437Y-41542588D01*
X151259771Y-41655247D01*
X151240715Y-41799999D01*
X151240715Y-41800000D01*
X151259771Y-41944753D01*
X151259772Y-41944754D01*
X151285909Y-42007854D01*
X151295500Y-42056072D01*
X151295500Y-42785168D01*
X151292621Y-42811947D01*
X151291611Y-42816588D01*
X151291611Y-42816593D01*
X151295339Y-42868724D01*
X151295500Y-42873220D01*
X151295500Y-42889033D01*
X151297749Y-42904685D01*
X151298229Y-42909153D01*
X151301960Y-42961297D01*
X151303621Y-42965751D01*
X151310281Y-42991843D01*
X151310958Y-42996549D01*
X151329619Y-43037411D01*
X151332671Y-43044094D01*
X151334391Y-43048249D01*
X151352657Y-43097221D01*
X151352658Y-43097222D01*
X151355504Y-43101024D01*
X151369243Y-43124177D01*
X151371220Y-43128506D01*
X151371222Y-43128509D01*
X151371223Y-43128511D01*
X151405457Y-43168019D01*
X151408262Y-43171500D01*
X151417750Y-43184174D01*
X151417753Y-43184177D01*
X151428927Y-43195351D01*
X151431992Y-43198643D01*
X151458065Y-43228732D01*
X151466225Y-43238149D01*
X151470228Y-43240721D01*
X151491197Y-43257621D01*
X152908595Y-44675018D01*
X152942620Y-44737330D01*
X152945500Y-44764113D01*
X152945500Y-49288838D01*
X152925498Y-49356959D01*
X152908595Y-49377933D01*
X150791194Y-51495333D01*
X150770228Y-51512231D01*
X150766225Y-51514803D01*
X150766223Y-51514805D01*
X150731998Y-51554302D01*
X150728935Y-51557593D01*
X150717753Y-51568774D01*
X150717746Y-51568783D01*
X150708265Y-51581448D01*
X150705446Y-51584946D01*
X150671222Y-51624441D01*
X150669244Y-51628774D01*
X150655515Y-51651913D01*
X150652657Y-51655730D01*
X150652657Y-51655732D01*
X150634387Y-51704713D01*
X150632666Y-51708867D01*
X150610958Y-51756400D01*
X150610957Y-51756404D01*
X150610281Y-51761110D01*
X150603624Y-51787195D01*
X150601960Y-51791657D01*
X150598230Y-51843789D01*
X150597750Y-51848250D01*
X150595501Y-51863908D01*
X150595500Y-51863923D01*
X150595500Y-51879732D01*
X150595339Y-51884228D01*
X150591723Y-51934792D01*
X150591611Y-51936360D01*
X150592620Y-51941001D01*
X150595500Y-51967782D01*
X150595500Y-58943927D01*
X150585909Y-58992144D01*
X150559772Y-59055245D01*
X150540715Y-59199999D01*
X150540715Y-59200000D01*
X147625603Y-59200000D01*
X146241405Y-57815802D01*
X146207379Y-57753490D01*
X146204500Y-57726707D01*
X146204500Y-53886167D01*
X146206285Y-53870000D01*
X146206028Y-53869976D01*
X146206774Y-53862083D01*
X146204531Y-53790701D01*
X146204500Y-53788723D01*
X146204500Y-53758827D01*
X146204500Y-53758822D01*
X146203580Y-53751541D01*
X146203113Y-53745629D01*
X146201580Y-53696800D01*
X146195650Y-53676390D01*
X146191639Y-53657025D01*
X146189272Y-53638285D01*
X146188976Y-53635939D01*
X146170991Y-53590516D01*
X146169073Y-53584914D01*
X146155444Y-53538001D01*
X146144624Y-53519707D01*
X146135927Y-53501955D01*
X146128101Y-53482186D01*
X146128098Y-53482182D01*
X146128099Y-53482182D01*
X146099393Y-53442674D01*
X146096132Y-53437709D01*
X146084481Y-53418008D01*
X146071267Y-53395664D01*
X146071265Y-53395662D01*
X146071264Y-53395660D01*
X146056238Y-53380634D01*
X146043398Y-53365601D01*
X146030904Y-53348405D01*
X146030902Y-53348403D01*
X146027937Y-53345950D01*
X145993253Y-53317257D01*
X145988881Y-53313278D01*
X144573733Y-51898130D01*
X144563563Y-51885435D01*
X144563364Y-51885600D01*
X144558310Y-51879491D01*
X144506241Y-51830595D01*
X144504851Y-51829248D01*
X144483684Y-51808081D01*
X144477880Y-51803579D01*
X144473363Y-51799721D01*
X144437762Y-51766289D01*
X144437763Y-51766289D01*
X144419135Y-51756049D01*
X144402607Y-51745191D01*
X144385202Y-51731690D01*
X144379263Y-51726454D01*
X144091404Y-51438594D01*
X144057379Y-51376282D01*
X144054500Y-51349499D01*
X144054500Y-51036856D01*
X144056285Y-51020689D01*
X144056028Y-51020665D01*
X144056774Y-51012772D01*
X144054531Y-50941390D01*
X144054500Y-50939412D01*
X144054500Y-50909516D01*
X144054500Y-50909511D01*
X144053580Y-50902230D01*
X144053113Y-50896318D01*
X144051580Y-50847489D01*
X144045650Y-50827079D01*
X144041639Y-50807714D01*
X144041417Y-50805953D01*
X144038976Y-50786628D01*
X144020991Y-50741205D01*
X144019073Y-50735603D01*
X144005444Y-50688690D01*
X144001597Y-50682186D01*
X143994625Y-50670397D01*
X143985927Y-50652644D01*
X143978101Y-50632875D01*
X143978098Y-50632871D01*
X143978099Y-50632871D01*
X143949393Y-50593363D01*
X143946132Y-50588398D01*
X143934481Y-50568697D01*
X143921267Y-50546353D01*
X143921265Y-50546351D01*
X143921264Y-50546349D01*
X143906238Y-50531323D01*
X143893398Y-50516290D01*
X143880904Y-50499094D01*
X143880902Y-50499092D01*
X143863180Y-50484431D01*
X143843253Y-50467946D01*
X143838881Y-50463967D01*
X143766405Y-50391491D01*
X143732379Y-50329179D01*
X143729500Y-50302396D01*
X143729500Y-48756780D01*
X143749502Y-48688659D01*
X143803158Y-48642166D01*
X143873432Y-48632062D01*
X143938012Y-48661556D01*
X143944595Y-48667685D01*
X146003946Y-50727036D01*
X146037972Y-50789348D01*
X146032907Y-50860163D01*
X146014815Y-50892833D01*
X146003649Y-50907385D01*
X146003646Y-50907388D01*
X146003645Y-50907391D01*
X145982339Y-50958827D01*
X145947771Y-51042280D01*
X145928715Y-51187032D01*
X145928715Y-51187033D01*
X145947771Y-51331785D01*
X146003644Y-51466674D01*
X146003649Y-51466682D01*
X146092525Y-51582507D01*
X146187955Y-51655733D01*
X146208357Y-51671388D01*
X146343246Y-51727261D01*
X146488000Y-51746318D01*
X146632754Y-51727261D01*
X146767643Y-51671388D01*
X146883474Y-51582507D01*
X146972355Y-51466676D01*
X147028228Y-51331787D01*
X147030754Y-51312597D01*
X147059475Y-51247670D01*
X147118739Y-51208578D01*
X147139226Y-51204120D01*
X147244754Y-51190228D01*
X147379643Y-51134355D01*
X147495474Y-51045474D01*
X147584355Y-50929643D01*
X147640228Y-50794754D01*
X147659285Y-50650000D01*
X147658686Y-50645453D01*
X147644020Y-50534048D01*
X147640228Y-50505246D01*
X147584355Y-50370358D01*
X147495474Y-50254526D01*
X147495472Y-50254524D01*
X147495471Y-50254523D01*
X147379649Y-50165649D01*
X147379641Y-50165644D01*
X147244752Y-50109771D01*
X147116387Y-50092872D01*
X147051460Y-50064149D01*
X147043739Y-50057045D01*
X146706289Y-49719595D01*
X146672263Y-49657283D01*
X146677328Y-49586468D01*
X146719875Y-49529632D01*
X146786395Y-49504821D01*
X146795384Y-49504500D01*
X148332216Y-49504500D01*
X148358996Y-49507378D01*
X148363640Y-49508389D01*
X148398103Y-49505924D01*
X148415772Y-49504661D01*
X148420268Y-49504500D01*
X148436082Y-49504500D01*
X148436083Y-49504500D01*
X148451741Y-49502248D01*
X148456204Y-49501769D01*
X148481361Y-49499969D01*
X148508342Y-49498040D01*
X148512786Y-49496382D01*
X148538898Y-49489717D01*
X148543596Y-49489042D01*
X148591149Y-49467324D01*
X148595284Y-49465612D01*
X148644267Y-49447343D01*
X148648061Y-49444502D01*
X148671236Y-49430750D01*
X148675558Y-49428777D01*
X148715069Y-49394538D01*
X148718543Y-49391739D01*
X148731221Y-49382250D01*
X148742409Y-49371060D01*
X148745686Y-49368009D01*
X148785196Y-49333775D01*
X148787764Y-49329778D01*
X148804665Y-49308804D01*
X150875666Y-47237803D01*
X150916538Y-47210493D01*
X150979643Y-47184355D01*
X151095474Y-47095474D01*
X151184355Y-46979643D01*
X151240228Y-46844754D01*
X151259285Y-46700000D01*
X151254313Y-46662237D01*
X151240228Y-46555247D01*
X151227423Y-46524333D01*
X151184355Y-46420358D01*
X151095474Y-46304526D01*
X151095472Y-46304524D01*
X151095471Y-46304523D01*
X150979649Y-46215649D01*
X150979641Y-46215644D01*
X150844752Y-46159771D01*
X150700000Y-46140715D01*
X150555247Y-46159771D01*
X150487802Y-46187708D01*
X150420358Y-46215645D01*
X150420357Y-46215646D01*
X150420356Y-46215646D01*
X150304526Y-46304526D01*
X150215644Y-46420359D01*
X150215643Y-46420360D01*
X150189507Y-46483458D01*
X150162194Y-46524333D01*
X148227932Y-48458596D01*
X148165622Y-48492620D01*
X148138839Y-48495500D01*
X146661161Y-48495500D01*
X146593040Y-48475498D01*
X146572066Y-48458595D01*
X145541405Y-47427934D01*
X145507379Y-47365622D01*
X145504500Y-47338839D01*
X145504500Y-46156072D01*
X145514091Y-46107854D01*
X145518181Y-46097979D01*
X145540228Y-46044754D01*
X145559285Y-45900000D01*
X145540228Y-45755246D01*
X145484355Y-45620358D01*
X145395474Y-45504526D01*
X145395472Y-45504524D01*
X145395471Y-45504523D01*
X145279649Y-45415649D01*
X145279641Y-45415644D01*
X145144752Y-45359771D01*
X145000000Y-45340715D01*
X144855247Y-45359771D01*
X144829866Y-45370284D01*
X144803717Y-45381116D01*
X144733129Y-45388705D01*
X144669642Y-45356926D01*
X144633414Y-45295868D01*
X144629500Y-45264707D01*
X144629500Y-41401956D01*
X144649502Y-41333835D01*
X144703158Y-41287342D01*
X144739049Y-41277035D01*
X144836539Y-41264201D01*
X144971428Y-41208328D01*
X145087259Y-41119447D01*
X145176140Y-41003616D01*
X145232013Y-40868727D01*
X145251070Y-40723973D01*
X145232013Y-40579219D01*
X145176140Y-40444331D01*
X145087259Y-40328499D01*
X145087257Y-40328497D01*
X145087256Y-40328496D01*
X144971434Y-40239622D01*
X144971426Y-40239617D01*
X144836537Y-40183744D01*
X144691785Y-40164688D01*
X144547032Y-40183744D01*
X144479587Y-40211681D01*
X144412143Y-40239618D01*
X144412142Y-40239619D01*
X144412141Y-40239619D01*
X144329739Y-40302849D01*
X144263518Y-40328449D01*
X144193970Y-40314184D01*
X144153073Y-40279591D01*
X144095474Y-40204526D01*
X144095472Y-40204524D01*
X144095471Y-40204523D01*
X143979649Y-40115649D01*
X143979641Y-40115644D01*
X143844752Y-40059771D01*
X143700000Y-40040715D01*
X143555247Y-40059771D01*
X143487801Y-40087708D01*
X143420358Y-40115645D01*
X143420357Y-40115646D01*
X143420356Y-40115646D01*
X143304526Y-40204526D01*
X143215646Y-40320356D01*
X143215645Y-40320358D01*
X143212273Y-40328499D01*
X143159771Y-40455247D01*
X143140715Y-40599999D01*
X143140715Y-40600000D01*
X143159771Y-40744752D01*
X143215644Y-40879641D01*
X143215649Y-40879649D01*
X143304525Y-40995474D01*
X143371204Y-41046639D01*
X143413072Y-41103977D01*
X143420500Y-41146601D01*
X143420500Y-45663985D01*
X143400498Y-45732106D01*
X143346842Y-45778599D01*
X143276568Y-45788703D01*
X143211988Y-45759209D01*
X143205405Y-45753080D01*
X140800454Y-43348130D01*
X140790284Y-43335435D01*
X140790085Y-43335600D01*
X140785031Y-43329491D01*
X140732962Y-43280595D01*
X140731572Y-43279248D01*
X140710405Y-43258081D01*
X140704601Y-43253579D01*
X140700084Y-43249721D01*
X140664483Y-43216289D01*
X140664484Y-43216289D01*
X140645856Y-43206049D01*
X140629330Y-43195193D01*
X140612537Y-43182167D01*
X140567709Y-43162767D01*
X140562378Y-43160155D01*
X140519580Y-43136627D01*
X140519572Y-43136624D01*
X140498985Y-43131338D01*
X140480281Y-43124934D01*
X140460775Y-43116492D01*
X140460770Y-43116491D01*
X140412520Y-43108849D01*
X140406705Y-43107645D01*
X140359410Y-43095501D01*
X140359406Y-43095500D01*
X140359404Y-43095500D01*
X140359401Y-43095500D01*
X140338147Y-43095500D01*
X140318437Y-43093949D01*
X140297443Y-43090624D01*
X140297442Y-43090623D01*
X140248817Y-43095220D01*
X140242885Y-43095500D01*
X138136167Y-43095500D01*
X138120000Y-43093714D01*
X138119976Y-43093972D01*
X138112083Y-43093225D01*
X138040703Y-43095469D01*
X138038725Y-43095500D01*
X138008819Y-43095500D01*
X138001537Y-43096419D01*
X137995624Y-43096885D01*
X137946801Y-43098419D01*
X137946795Y-43098420D01*
X137926376Y-43104352D01*
X137907026Y-43108359D01*
X137885945Y-43111022D01*
X137885935Y-43111025D01*
X137840530Y-43129002D01*
X137834912Y-43130926D01*
X137788005Y-43144553D01*
X137787998Y-43144556D01*
X137769688Y-43155383D01*
X137751946Y-43164074D01*
X137732188Y-43171897D01*
X137692678Y-43200602D01*
X137687717Y-43203861D01*
X137645664Y-43228732D01*
X137630633Y-43243763D01*
X137615606Y-43256597D01*
X137598407Y-43269094D01*
X137598405Y-43269095D01*
X137567266Y-43306735D01*
X137563270Y-43311126D01*
X136308079Y-44566318D01*
X136308075Y-44566323D01*
X136232166Y-44664185D01*
X136232163Y-44664190D01*
X136166491Y-44815949D01*
X136140624Y-44979277D01*
X136140623Y-44979278D01*
X128150500Y-44979278D01*
X128150500Y-32842588D01*
X129068786Y-32842588D01*
X129074489Y-32874933D01*
X129098319Y-33010074D01*
X129098319Y-33010075D01*
X129165674Y-33166222D01*
X129165677Y-33166226D01*
X129267233Y-33302640D01*
X129397511Y-33411956D01*
X129549486Y-33488281D01*
X129714967Y-33527500D01*
X129714969Y-33527500D01*
X129842379Y-33527500D01*
X129875229Y-33523660D01*
X129968915Y-33512710D01*
X130128724Y-33454544D01*
X130129171Y-33454249D01*
X130129525Y-33454141D01*
X130135283Y-33451250D01*
X130135776Y-33452233D01*
X130197073Y-33433521D01*
X130265403Y-33452794D01*
X130312467Y-33505950D01*
X130323321Y-33576112D01*
X130318024Y-33599145D01*
X130302607Y-33645671D01*
X130302605Y-33645681D01*
X130292000Y-33749483D01*
X130292000Y-34146000D01*
X131368884Y-34146000D01*
X131340507Y-34190156D01*
X131300000Y-34328111D01*
X131300000Y-34471889D01*
X131340507Y-34609844D01*
X131368884Y-34654000D01*
X130292000Y-34654000D01*
X130292000Y-35050516D01*
X130302605Y-35154318D01*
X130302606Y-35154321D01*
X130358342Y-35322525D01*
X130451365Y-35473339D01*
X130451370Y-35473345D01*
X130576654Y-35598629D01*
X130576660Y-35598634D01*
X130727474Y-35691657D01*
X130895675Y-35747393D01*
X130968962Y-35754880D01*
X131034697Y-35781702D01*
X131075496Y-35839805D01*
X131078405Y-35910742D01*
X131042502Y-35971991D01*
X131034045Y-35979270D01*
X130884342Y-36096999D01*
X130884334Y-36097006D01*
X130746212Y-36256407D01*
X130746206Y-36256415D01*
X130640743Y-36439083D01*
X130640739Y-36439092D01*
X130571753Y-36638417D01*
X130571750Y-36638425D01*
X130541732Y-36847205D01*
X130551768Y-37057893D01*
X130551769Y-37057904D01*
X130601498Y-37262886D01*
X130601498Y-37262888D01*
X130601499Y-37262890D01*
X130689124Y-37454762D01*
X130811478Y-37626584D01*
X130964138Y-37772145D01*
X130964140Y-37772146D01*
X130964142Y-37772148D01*
X131059434Y-37833388D01*
X131141587Y-37886184D01*
X131337411Y-37964580D01*
X131544533Y-38004500D01*
X131544537Y-38004500D01*
X132002613Y-38004500D01*
X132002630Y-38004499D01*
X132159969Y-37989474D01*
X132159969Y-37989473D01*
X132159979Y-37989473D01*
X132362368Y-37930047D01*
X132549854Y-37833391D01*
X132715659Y-37703000D01*
X132853792Y-37543587D01*
X132959259Y-37360913D01*
X133028248Y-37161580D01*
X133058267Y-36952793D01*
X133048231Y-36742098D01*
X132998501Y-36537110D01*
X132910876Y-36345238D01*
X132788522Y-36173416D01*
X132635862Y-36027855D01*
X132571721Y-35986634D01*
X132525229Y-35932979D01*
X132515125Y-35862705D01*
X132544618Y-35798125D01*
X132604345Y-35759741D01*
X132627037Y-35755289D01*
X132704324Y-35747393D01*
X132872525Y-35691657D01*
X133023339Y-35598634D01*
X133023345Y-35598629D01*
X133148629Y-35473345D01*
X133148634Y-35473339D01*
X133241657Y-35322525D01*
X133297393Y-35154321D01*
X133297394Y-35154318D01*
X133307999Y-35050516D01*
X133308000Y-35050516D01*
X133308000Y-34654000D01*
X132231116Y-34654000D01*
X132259493Y-34609844D01*
X132300000Y-34471889D01*
X132300000Y-34328111D01*
X132259493Y-34190156D01*
X132231116Y-34146000D01*
X133308000Y-34146000D01*
X133308000Y-33749483D01*
X133297394Y-33645681D01*
X133297393Y-33645678D01*
X133241657Y-33477474D01*
X133148634Y-33326660D01*
X133148629Y-33326654D01*
X133023345Y-33201370D01*
X133023339Y-33201365D01*
X132872525Y-33108342D01*
X132704321Y-33052606D01*
X132704318Y-33052605D01*
X132600516Y-33042000D01*
X132054000Y-33042000D01*
X132054000Y-33966325D01*
X131942315Y-33915320D01*
X131835763Y-33900000D01*
X131764237Y-33900000D01*
X131657685Y-33915320D01*
X131545999Y-33966325D01*
X131546000Y-33042000D01*
X130999483Y-33042000D01*
X130895681Y-33052605D01*
X130895678Y-33052606D01*
X130727473Y-33108343D01*
X130689935Y-33131496D01*
X130621455Y-33150232D01*
X130553717Y-33128971D01*
X130508226Y-33074463D01*
X130499426Y-33004014D01*
X130503081Y-32988127D01*
X130521325Y-32927189D01*
X130531214Y-32757412D01*
X130501682Y-32589930D01*
X130501680Y-32589925D01*
X130501680Y-32589924D01*
X130434325Y-32433777D01*
X130430801Y-32429043D01*
X130332767Y-32297360D01*
X130202489Y-32188044D01*
X130050514Y-32111719D01*
X129885033Y-32072500D01*
X129757624Y-32072500D01*
X129757621Y-32072500D01*
X129631084Y-32087290D01*
X129471277Y-32145455D01*
X129329183Y-32238911D01*
X129212483Y-32362607D01*
X129212480Y-32362611D01*
X129127452Y-32509884D01*
X129127450Y-32509890D01*
X129078675Y-32672811D01*
X129068786Y-32842588D01*
X128150500Y-32842588D01*
X128150500Y-31476500D01*
X128170502Y-31408379D01*
X128224158Y-31361886D01*
X128276500Y-31350500D01*
X137604493Y-31350500D01*
X137672614Y-31370502D01*
G37*
G04 #@! TD.AperFunction*
G04 #@! TA.AperFunction,Conductor*
G36*
X167610883Y-72304730D02*
G01*
X167646088Y-72366384D01*
X167649500Y-72395506D01*
X167649500Y-75723500D01*
X167629498Y-75791621D01*
X167575842Y-75838114D01*
X167523500Y-75849500D01*
X164195507Y-75849500D01*
X164127386Y-75829498D01*
X164080893Y-75775842D01*
X164070789Y-75705568D01*
X164100283Y-75640988D01*
X164160009Y-75602604D01*
X164188913Y-75597673D01*
X164267182Y-75593571D01*
X164630353Y-75536051D01*
X164985510Y-75440887D01*
X164985523Y-75440883D01*
X165328780Y-75309119D01*
X165328788Y-75309115D01*
X165656397Y-75142190D01*
X165656403Y-75142187D01*
X165964782Y-74941924D01*
X166195711Y-74754920D01*
X164766461Y-73325670D01*
X164824477Y-73287768D01*
X165007368Y-73119404D01*
X165126085Y-72966876D01*
X166554920Y-74395711D01*
X166741924Y-74164782D01*
X166942187Y-73856403D01*
X166942190Y-73856397D01*
X167109115Y-73528788D01*
X167109119Y-73528780D01*
X167240883Y-73185523D01*
X167240887Y-73185510D01*
X167336051Y-72830353D01*
X167393571Y-72467182D01*
X167397673Y-72388912D01*
X167421212Y-72321931D01*
X167477228Y-72278310D01*
X167547934Y-72271898D01*
X167610883Y-72304730D01*
G37*
G04 #@! TD.AperFunction*
G04 #@! TA.AperFunction,Conductor*
G36*
X167591621Y-31370502D02*
G01*
X167638114Y-31424158D01*
X167649500Y-31476500D01*
X167649500Y-34804493D01*
X167629498Y-34872614D01*
X167575842Y-34919107D01*
X167505568Y-34929211D01*
X167440988Y-34899717D01*
X167402604Y-34839991D01*
X167397673Y-34811087D01*
X167393571Y-34732817D01*
X167336051Y-34369646D01*
X167240887Y-34014489D01*
X167240883Y-34014476D01*
X167109119Y-33671219D01*
X167109115Y-33671211D01*
X166942190Y-33343602D01*
X166942187Y-33343596D01*
X166741922Y-33035215D01*
X166741918Y-33035210D01*
X166554921Y-32804288D01*
X166554920Y-32804287D01*
X165126084Y-34233122D01*
X165007368Y-34080596D01*
X164824477Y-33912232D01*
X164766461Y-33874328D01*
X166195711Y-32445078D01*
X166195710Y-32445077D01*
X165964789Y-32258081D01*
X165964784Y-32258077D01*
X165656403Y-32057812D01*
X165656397Y-32057809D01*
X165328788Y-31890884D01*
X165328780Y-31890880D01*
X164985523Y-31759116D01*
X164985510Y-31759112D01*
X164630353Y-31663948D01*
X164267182Y-31606428D01*
X164188913Y-31602327D01*
X164121932Y-31578787D01*
X164078311Y-31522772D01*
X164071899Y-31452066D01*
X164104731Y-31389117D01*
X164166385Y-31353912D01*
X164195507Y-31350500D01*
X167523500Y-31350500D01*
X167591621Y-31370502D01*
G37*
G04 #@! TD.AperFunction*
M02*
