G04 #@! TF.GenerationSoftware,KiCad,Pcbnew,5.1.0-5.1.0*
G04 #@! TF.CreationDate,2019-03-27T16:13:27-07:00*
G04 #@! TF.ProjectId,t962,74393632-2e6b-4696-9361-645f70636258,1.2.3*
G04 #@! TF.SameCoordinates,Original*
G04 #@! TF.FileFunction,Paste,Top*
G04 #@! TF.FilePolarity,Positive*
%FSLAX46Y46*%
G04 Gerber Fmt 4.6, Leading zero omitted, Abs format (unit mm)*
G04 Created by KiCad (PCBNEW 5.1.0-5.1.0) date 2019-03-27 16:13:27*
%MOMM*%
%LPD*%
G04 APERTURE LIST*
%ADD10R,0.650000X1.060000*%
%ADD11R,2.000000X3.800000*%
%ADD12R,2.000000X1.500000*%
%ADD13R,0.900000X1.000000*%
%ADD14C,0.100000*%
%ADD15C,0.875000*%
%ADD16R,0.780000X0.780000*%
%ADD17C,0.300000*%
%ADD18R,0.300000X0.850000*%
%ADD19R,0.850000X0.300000*%
%ADD20R,1.900000X1.500000*%
%ADD21R,1.350000X0.400000*%
%ADD22R,0.700000X0.300000*%
%ADD23R,2.600000X2.300000*%
%ADD24R,0.700000X0.450000*%
G04 APERTURE END LIST*
D10*
X154050000Y-52125000D03*
X155000000Y-52125000D03*
X155950000Y-52125000D03*
X155950000Y-49925000D03*
X154050000Y-49925000D03*
X155000000Y-49925000D03*
D11*
X145050000Y-43400000D03*
D12*
X138750000Y-43400000D03*
X138750000Y-45700000D03*
X138750000Y-41100000D03*
D13*
X158700000Y-60250000D03*
X157100000Y-60250000D03*
X158700000Y-64350000D03*
X157100000Y-64350000D03*
D14*
G36*
X153932692Y-41226053D02*
G01*
X153953927Y-41229203D01*
X153974751Y-41234419D01*
X153994963Y-41241651D01*
X154014369Y-41250830D01*
X154032782Y-41261866D01*
X154050025Y-41274654D01*
X154065931Y-41289070D01*
X154080347Y-41304976D01*
X154093135Y-41322219D01*
X154104171Y-41340632D01*
X154113350Y-41360038D01*
X154120582Y-41380250D01*
X154125798Y-41401074D01*
X154128948Y-41422309D01*
X154130001Y-41443750D01*
X154130001Y-41956250D01*
X154128948Y-41977691D01*
X154125798Y-41998926D01*
X154120582Y-42019750D01*
X154113350Y-42039962D01*
X154104171Y-42059368D01*
X154093135Y-42077781D01*
X154080347Y-42095024D01*
X154065931Y-42110930D01*
X154050025Y-42125346D01*
X154032782Y-42138134D01*
X154014369Y-42149170D01*
X153994963Y-42158349D01*
X153974751Y-42165581D01*
X153953927Y-42170797D01*
X153932692Y-42173947D01*
X153911251Y-42175000D01*
X153473751Y-42175000D01*
X153452310Y-42173947D01*
X153431075Y-42170797D01*
X153410251Y-42165581D01*
X153390039Y-42158349D01*
X153370633Y-42149170D01*
X153352220Y-42138134D01*
X153334977Y-42125346D01*
X153319071Y-42110930D01*
X153304655Y-42095024D01*
X153291867Y-42077781D01*
X153280831Y-42059368D01*
X153271652Y-42039962D01*
X153264420Y-42019750D01*
X153259204Y-41998926D01*
X153256054Y-41977691D01*
X153255001Y-41956250D01*
X153255001Y-41443750D01*
X153256054Y-41422309D01*
X153259204Y-41401074D01*
X153264420Y-41380250D01*
X153271652Y-41360038D01*
X153280831Y-41340632D01*
X153291867Y-41322219D01*
X153304655Y-41304976D01*
X153319071Y-41289070D01*
X153334977Y-41274654D01*
X153352220Y-41261866D01*
X153370633Y-41250830D01*
X153390039Y-41241651D01*
X153410251Y-41234419D01*
X153431075Y-41229203D01*
X153452310Y-41226053D01*
X153473751Y-41225000D01*
X153911251Y-41225000D01*
X153932692Y-41226053D01*
X153932692Y-41226053D01*
G37*
D15*
X153692501Y-41700000D03*
D14*
G36*
X152357692Y-41226053D02*
G01*
X152378927Y-41229203D01*
X152399751Y-41234419D01*
X152419963Y-41241651D01*
X152439369Y-41250830D01*
X152457782Y-41261866D01*
X152475025Y-41274654D01*
X152490931Y-41289070D01*
X152505347Y-41304976D01*
X152518135Y-41322219D01*
X152529171Y-41340632D01*
X152538350Y-41360038D01*
X152545582Y-41380250D01*
X152550798Y-41401074D01*
X152553948Y-41422309D01*
X152555001Y-41443750D01*
X152555001Y-41956250D01*
X152553948Y-41977691D01*
X152550798Y-41998926D01*
X152545582Y-42019750D01*
X152538350Y-42039962D01*
X152529171Y-42059368D01*
X152518135Y-42077781D01*
X152505347Y-42095024D01*
X152490931Y-42110930D01*
X152475025Y-42125346D01*
X152457782Y-42138134D01*
X152439369Y-42149170D01*
X152419963Y-42158349D01*
X152399751Y-42165581D01*
X152378927Y-42170797D01*
X152357692Y-42173947D01*
X152336251Y-42175000D01*
X151898751Y-42175000D01*
X151877310Y-42173947D01*
X151856075Y-42170797D01*
X151835251Y-42165581D01*
X151815039Y-42158349D01*
X151795633Y-42149170D01*
X151777220Y-42138134D01*
X151759977Y-42125346D01*
X151744071Y-42110930D01*
X151729655Y-42095024D01*
X151716867Y-42077781D01*
X151705831Y-42059368D01*
X151696652Y-42039962D01*
X151689420Y-42019750D01*
X151684204Y-41998926D01*
X151681054Y-41977691D01*
X151680001Y-41956250D01*
X151680001Y-41443750D01*
X151681054Y-41422309D01*
X151684204Y-41401074D01*
X151689420Y-41380250D01*
X151696652Y-41360038D01*
X151705831Y-41340632D01*
X151716867Y-41322219D01*
X151729655Y-41304976D01*
X151744071Y-41289070D01*
X151759977Y-41274654D01*
X151777220Y-41261866D01*
X151795633Y-41250830D01*
X151815039Y-41241651D01*
X151835251Y-41234419D01*
X151856075Y-41229203D01*
X151877310Y-41226053D01*
X151898751Y-41225000D01*
X152336251Y-41225000D01*
X152357692Y-41226053D01*
X152357692Y-41226053D01*
G37*
D15*
X152117501Y-41700000D03*
D14*
G36*
X153927691Y-42726053D02*
G01*
X153948926Y-42729203D01*
X153969750Y-42734419D01*
X153989962Y-42741651D01*
X154009368Y-42750830D01*
X154027781Y-42761866D01*
X154045024Y-42774654D01*
X154060930Y-42789070D01*
X154075346Y-42804976D01*
X154088134Y-42822219D01*
X154099170Y-42840632D01*
X154108349Y-42860038D01*
X154115581Y-42880250D01*
X154120797Y-42901074D01*
X154123947Y-42922309D01*
X154125000Y-42943750D01*
X154125000Y-43456250D01*
X154123947Y-43477691D01*
X154120797Y-43498926D01*
X154115581Y-43519750D01*
X154108349Y-43539962D01*
X154099170Y-43559368D01*
X154088134Y-43577781D01*
X154075346Y-43595024D01*
X154060930Y-43610930D01*
X154045024Y-43625346D01*
X154027781Y-43638134D01*
X154009368Y-43649170D01*
X153989962Y-43658349D01*
X153969750Y-43665581D01*
X153948926Y-43670797D01*
X153927691Y-43673947D01*
X153906250Y-43675000D01*
X153468750Y-43675000D01*
X153447309Y-43673947D01*
X153426074Y-43670797D01*
X153405250Y-43665581D01*
X153385038Y-43658349D01*
X153365632Y-43649170D01*
X153347219Y-43638134D01*
X153329976Y-43625346D01*
X153314070Y-43610930D01*
X153299654Y-43595024D01*
X153286866Y-43577781D01*
X153275830Y-43559368D01*
X153266651Y-43539962D01*
X153259419Y-43519750D01*
X153254203Y-43498926D01*
X153251053Y-43477691D01*
X153250000Y-43456250D01*
X153250000Y-42943750D01*
X153251053Y-42922309D01*
X153254203Y-42901074D01*
X153259419Y-42880250D01*
X153266651Y-42860038D01*
X153275830Y-42840632D01*
X153286866Y-42822219D01*
X153299654Y-42804976D01*
X153314070Y-42789070D01*
X153329976Y-42774654D01*
X153347219Y-42761866D01*
X153365632Y-42750830D01*
X153385038Y-42741651D01*
X153405250Y-42734419D01*
X153426074Y-42729203D01*
X153447309Y-42726053D01*
X153468750Y-42725000D01*
X153906250Y-42725000D01*
X153927691Y-42726053D01*
X153927691Y-42726053D01*
G37*
D15*
X153687500Y-43200000D03*
D14*
G36*
X152352691Y-42726053D02*
G01*
X152373926Y-42729203D01*
X152394750Y-42734419D01*
X152414962Y-42741651D01*
X152434368Y-42750830D01*
X152452781Y-42761866D01*
X152470024Y-42774654D01*
X152485930Y-42789070D01*
X152500346Y-42804976D01*
X152513134Y-42822219D01*
X152524170Y-42840632D01*
X152533349Y-42860038D01*
X152540581Y-42880250D01*
X152545797Y-42901074D01*
X152548947Y-42922309D01*
X152550000Y-42943750D01*
X152550000Y-43456250D01*
X152548947Y-43477691D01*
X152545797Y-43498926D01*
X152540581Y-43519750D01*
X152533349Y-43539962D01*
X152524170Y-43559368D01*
X152513134Y-43577781D01*
X152500346Y-43595024D01*
X152485930Y-43610930D01*
X152470024Y-43625346D01*
X152452781Y-43638134D01*
X152434368Y-43649170D01*
X152414962Y-43658349D01*
X152394750Y-43665581D01*
X152373926Y-43670797D01*
X152352691Y-43673947D01*
X152331250Y-43675000D01*
X151893750Y-43675000D01*
X151872309Y-43673947D01*
X151851074Y-43670797D01*
X151830250Y-43665581D01*
X151810038Y-43658349D01*
X151790632Y-43649170D01*
X151772219Y-43638134D01*
X151754976Y-43625346D01*
X151739070Y-43610930D01*
X151724654Y-43595024D01*
X151711866Y-43577781D01*
X151700830Y-43559368D01*
X151691651Y-43539962D01*
X151684419Y-43519750D01*
X151679203Y-43498926D01*
X151676053Y-43477691D01*
X151675000Y-43456250D01*
X151675000Y-42943750D01*
X151676053Y-42922309D01*
X151679203Y-42901074D01*
X151684419Y-42880250D01*
X151691651Y-42860038D01*
X151700830Y-42840632D01*
X151711866Y-42822219D01*
X151724654Y-42804976D01*
X151739070Y-42789070D01*
X151754976Y-42774654D01*
X151772219Y-42761866D01*
X151790632Y-42750830D01*
X151810038Y-42741651D01*
X151830250Y-42734419D01*
X151851074Y-42729203D01*
X151872309Y-42726053D01*
X151893750Y-42725000D01*
X152331250Y-42725000D01*
X152352691Y-42726053D01*
X152352691Y-42726053D01*
G37*
D15*
X152112500Y-43200000D03*
D16*
X150500000Y-48100000D03*
X150500000Y-46800000D03*
X149200000Y-48100000D03*
X149200000Y-46800000D03*
D14*
G36*
X151182351Y-48975361D02*
G01*
X151189632Y-48976441D01*
X151196771Y-48978229D01*
X151203701Y-48980709D01*
X151210355Y-48983856D01*
X151216668Y-48987640D01*
X151222579Y-48992024D01*
X151228033Y-48996967D01*
X151232976Y-49002421D01*
X151237360Y-49008332D01*
X151241144Y-49014645D01*
X151244291Y-49021299D01*
X151246771Y-49028229D01*
X151248559Y-49035368D01*
X151249639Y-49042649D01*
X151250000Y-49050000D01*
X151250000Y-49750000D01*
X151249639Y-49757351D01*
X151248559Y-49764632D01*
X151246771Y-49771771D01*
X151244291Y-49778701D01*
X151241144Y-49785355D01*
X151237360Y-49791668D01*
X151232976Y-49797579D01*
X151228033Y-49803033D01*
X151222579Y-49807976D01*
X151216668Y-49812360D01*
X151210355Y-49816144D01*
X151203701Y-49819291D01*
X151196771Y-49821771D01*
X151189632Y-49823559D01*
X151182351Y-49824639D01*
X151175000Y-49825000D01*
X151025000Y-49825000D01*
X151017649Y-49824639D01*
X151010368Y-49823559D01*
X151003229Y-49821771D01*
X150996299Y-49819291D01*
X150989645Y-49816144D01*
X150983332Y-49812360D01*
X150977421Y-49807976D01*
X150971967Y-49803033D01*
X150967024Y-49797579D01*
X150962640Y-49791668D01*
X150958856Y-49785355D01*
X150955709Y-49778701D01*
X150953229Y-49771771D01*
X150951441Y-49764632D01*
X150950361Y-49757351D01*
X150950000Y-49750000D01*
X150950000Y-49050000D01*
X150950361Y-49042649D01*
X150951441Y-49035368D01*
X150953229Y-49028229D01*
X150955709Y-49021299D01*
X150958856Y-49014645D01*
X150962640Y-49008332D01*
X150967024Y-49002421D01*
X150971967Y-48996967D01*
X150977421Y-48992024D01*
X150983332Y-48987640D01*
X150989645Y-48983856D01*
X150996299Y-48980709D01*
X151003229Y-48978229D01*
X151010368Y-48976441D01*
X151017649Y-48975361D01*
X151025000Y-48975000D01*
X151175000Y-48975000D01*
X151182351Y-48975361D01*
X151182351Y-48975361D01*
G37*
D17*
X151100000Y-49400000D03*
D18*
X150600000Y-49400000D03*
X150100000Y-49400000D03*
X149600000Y-49400000D03*
X149100000Y-49400000D03*
D14*
G36*
X148682351Y-48975361D02*
G01*
X148689632Y-48976441D01*
X148696771Y-48978229D01*
X148703701Y-48980709D01*
X148710355Y-48983856D01*
X148716668Y-48987640D01*
X148722579Y-48992024D01*
X148728033Y-48996967D01*
X148732976Y-49002421D01*
X148737360Y-49008332D01*
X148741144Y-49014645D01*
X148744291Y-49021299D01*
X148746771Y-49028229D01*
X148748559Y-49035368D01*
X148749639Y-49042649D01*
X148750000Y-49050000D01*
X148750000Y-49750000D01*
X148749639Y-49757351D01*
X148748559Y-49764632D01*
X148746771Y-49771771D01*
X148744291Y-49778701D01*
X148741144Y-49785355D01*
X148737360Y-49791668D01*
X148732976Y-49797579D01*
X148728033Y-49803033D01*
X148722579Y-49807976D01*
X148716668Y-49812360D01*
X148710355Y-49816144D01*
X148703701Y-49819291D01*
X148696771Y-49821771D01*
X148689632Y-49823559D01*
X148682351Y-49824639D01*
X148675000Y-49825000D01*
X148525000Y-49825000D01*
X148517649Y-49824639D01*
X148510368Y-49823559D01*
X148503229Y-49821771D01*
X148496299Y-49819291D01*
X148489645Y-49816144D01*
X148483332Y-49812360D01*
X148477421Y-49807976D01*
X148471967Y-49803033D01*
X148467024Y-49797579D01*
X148462640Y-49791668D01*
X148458856Y-49785355D01*
X148455709Y-49778701D01*
X148453229Y-49771771D01*
X148451441Y-49764632D01*
X148450361Y-49757351D01*
X148450000Y-49750000D01*
X148450000Y-49050000D01*
X148450361Y-49042649D01*
X148451441Y-49035368D01*
X148453229Y-49028229D01*
X148455709Y-49021299D01*
X148458856Y-49014645D01*
X148462640Y-49008332D01*
X148467024Y-49002421D01*
X148471967Y-48996967D01*
X148477421Y-48992024D01*
X148483332Y-48987640D01*
X148489645Y-48983856D01*
X148496299Y-48980709D01*
X148503229Y-48978229D01*
X148510368Y-48976441D01*
X148517649Y-48975361D01*
X148525000Y-48975000D01*
X148675000Y-48975000D01*
X148682351Y-48975361D01*
X148682351Y-48975361D01*
G37*
D17*
X148600000Y-49400000D03*
D14*
G36*
X148257351Y-48550361D02*
G01*
X148264632Y-48551441D01*
X148271771Y-48553229D01*
X148278701Y-48555709D01*
X148285355Y-48558856D01*
X148291668Y-48562640D01*
X148297579Y-48567024D01*
X148303033Y-48571967D01*
X148307976Y-48577421D01*
X148312360Y-48583332D01*
X148316144Y-48589645D01*
X148319291Y-48596299D01*
X148321771Y-48603229D01*
X148323559Y-48610368D01*
X148324639Y-48617649D01*
X148325000Y-48625000D01*
X148325000Y-48775000D01*
X148324639Y-48782351D01*
X148323559Y-48789632D01*
X148321771Y-48796771D01*
X148319291Y-48803701D01*
X148316144Y-48810355D01*
X148312360Y-48816668D01*
X148307976Y-48822579D01*
X148303033Y-48828033D01*
X148297579Y-48832976D01*
X148291668Y-48837360D01*
X148285355Y-48841144D01*
X148278701Y-48844291D01*
X148271771Y-48846771D01*
X148264632Y-48848559D01*
X148257351Y-48849639D01*
X148250000Y-48850000D01*
X147550000Y-48850000D01*
X147542649Y-48849639D01*
X147535368Y-48848559D01*
X147528229Y-48846771D01*
X147521299Y-48844291D01*
X147514645Y-48841144D01*
X147508332Y-48837360D01*
X147502421Y-48832976D01*
X147496967Y-48828033D01*
X147492024Y-48822579D01*
X147487640Y-48816668D01*
X147483856Y-48810355D01*
X147480709Y-48803701D01*
X147478229Y-48796771D01*
X147476441Y-48789632D01*
X147475361Y-48782351D01*
X147475000Y-48775000D01*
X147475000Y-48625000D01*
X147475361Y-48617649D01*
X147476441Y-48610368D01*
X147478229Y-48603229D01*
X147480709Y-48596299D01*
X147483856Y-48589645D01*
X147487640Y-48583332D01*
X147492024Y-48577421D01*
X147496967Y-48571967D01*
X147502421Y-48567024D01*
X147508332Y-48562640D01*
X147514645Y-48558856D01*
X147521299Y-48555709D01*
X147528229Y-48553229D01*
X147535368Y-48551441D01*
X147542649Y-48550361D01*
X147550000Y-48550000D01*
X148250000Y-48550000D01*
X148257351Y-48550361D01*
X148257351Y-48550361D01*
G37*
D17*
X147900000Y-48700000D03*
D19*
X147900000Y-48200000D03*
X147900000Y-47700000D03*
X147900000Y-47200000D03*
X147900000Y-46700000D03*
D14*
G36*
X148257351Y-46050361D02*
G01*
X148264632Y-46051441D01*
X148271771Y-46053229D01*
X148278701Y-46055709D01*
X148285355Y-46058856D01*
X148291668Y-46062640D01*
X148297579Y-46067024D01*
X148303033Y-46071967D01*
X148307976Y-46077421D01*
X148312360Y-46083332D01*
X148316144Y-46089645D01*
X148319291Y-46096299D01*
X148321771Y-46103229D01*
X148323559Y-46110368D01*
X148324639Y-46117649D01*
X148325000Y-46125000D01*
X148325000Y-46275000D01*
X148324639Y-46282351D01*
X148323559Y-46289632D01*
X148321771Y-46296771D01*
X148319291Y-46303701D01*
X148316144Y-46310355D01*
X148312360Y-46316668D01*
X148307976Y-46322579D01*
X148303033Y-46328033D01*
X148297579Y-46332976D01*
X148291668Y-46337360D01*
X148285355Y-46341144D01*
X148278701Y-46344291D01*
X148271771Y-46346771D01*
X148264632Y-46348559D01*
X148257351Y-46349639D01*
X148250000Y-46350000D01*
X147550000Y-46350000D01*
X147542649Y-46349639D01*
X147535368Y-46348559D01*
X147528229Y-46346771D01*
X147521299Y-46344291D01*
X147514645Y-46341144D01*
X147508332Y-46337360D01*
X147502421Y-46332976D01*
X147496967Y-46328033D01*
X147492024Y-46322579D01*
X147487640Y-46316668D01*
X147483856Y-46310355D01*
X147480709Y-46303701D01*
X147478229Y-46296771D01*
X147476441Y-46289632D01*
X147475361Y-46282351D01*
X147475000Y-46275000D01*
X147475000Y-46125000D01*
X147475361Y-46117649D01*
X147476441Y-46110368D01*
X147478229Y-46103229D01*
X147480709Y-46096299D01*
X147483856Y-46089645D01*
X147487640Y-46083332D01*
X147492024Y-46077421D01*
X147496967Y-46071967D01*
X147502421Y-46067024D01*
X147508332Y-46062640D01*
X147514645Y-46058856D01*
X147521299Y-46055709D01*
X147528229Y-46053229D01*
X147535368Y-46051441D01*
X147542649Y-46050361D01*
X147550000Y-46050000D01*
X148250000Y-46050000D01*
X148257351Y-46050361D01*
X148257351Y-46050361D01*
G37*
D17*
X147900000Y-46200000D03*
D14*
G36*
X148682351Y-45075361D02*
G01*
X148689632Y-45076441D01*
X148696771Y-45078229D01*
X148703701Y-45080709D01*
X148710355Y-45083856D01*
X148716668Y-45087640D01*
X148722579Y-45092024D01*
X148728033Y-45096967D01*
X148732976Y-45102421D01*
X148737360Y-45108332D01*
X148741144Y-45114645D01*
X148744291Y-45121299D01*
X148746771Y-45128229D01*
X148748559Y-45135368D01*
X148749639Y-45142649D01*
X148750000Y-45150000D01*
X148750000Y-45850000D01*
X148749639Y-45857351D01*
X148748559Y-45864632D01*
X148746771Y-45871771D01*
X148744291Y-45878701D01*
X148741144Y-45885355D01*
X148737360Y-45891668D01*
X148732976Y-45897579D01*
X148728033Y-45903033D01*
X148722579Y-45907976D01*
X148716668Y-45912360D01*
X148710355Y-45916144D01*
X148703701Y-45919291D01*
X148696771Y-45921771D01*
X148689632Y-45923559D01*
X148682351Y-45924639D01*
X148675000Y-45925000D01*
X148525000Y-45925000D01*
X148517649Y-45924639D01*
X148510368Y-45923559D01*
X148503229Y-45921771D01*
X148496299Y-45919291D01*
X148489645Y-45916144D01*
X148483332Y-45912360D01*
X148477421Y-45907976D01*
X148471967Y-45903033D01*
X148467024Y-45897579D01*
X148462640Y-45891668D01*
X148458856Y-45885355D01*
X148455709Y-45878701D01*
X148453229Y-45871771D01*
X148451441Y-45864632D01*
X148450361Y-45857351D01*
X148450000Y-45850000D01*
X148450000Y-45150000D01*
X148450361Y-45142649D01*
X148451441Y-45135368D01*
X148453229Y-45128229D01*
X148455709Y-45121299D01*
X148458856Y-45114645D01*
X148462640Y-45108332D01*
X148467024Y-45102421D01*
X148471967Y-45096967D01*
X148477421Y-45092024D01*
X148483332Y-45087640D01*
X148489645Y-45083856D01*
X148496299Y-45080709D01*
X148503229Y-45078229D01*
X148510368Y-45076441D01*
X148517649Y-45075361D01*
X148525000Y-45075000D01*
X148675000Y-45075000D01*
X148682351Y-45075361D01*
X148682351Y-45075361D01*
G37*
D17*
X148600000Y-45500000D03*
D18*
X149100000Y-45500000D03*
X149600000Y-45500000D03*
X150100000Y-45500000D03*
X150600000Y-45500000D03*
D14*
G36*
X151182351Y-45075361D02*
G01*
X151189632Y-45076441D01*
X151196771Y-45078229D01*
X151203701Y-45080709D01*
X151210355Y-45083856D01*
X151216668Y-45087640D01*
X151222579Y-45092024D01*
X151228033Y-45096967D01*
X151232976Y-45102421D01*
X151237360Y-45108332D01*
X151241144Y-45114645D01*
X151244291Y-45121299D01*
X151246771Y-45128229D01*
X151248559Y-45135368D01*
X151249639Y-45142649D01*
X151250000Y-45150000D01*
X151250000Y-45850000D01*
X151249639Y-45857351D01*
X151248559Y-45864632D01*
X151246771Y-45871771D01*
X151244291Y-45878701D01*
X151241144Y-45885355D01*
X151237360Y-45891668D01*
X151232976Y-45897579D01*
X151228033Y-45903033D01*
X151222579Y-45907976D01*
X151216668Y-45912360D01*
X151210355Y-45916144D01*
X151203701Y-45919291D01*
X151196771Y-45921771D01*
X151189632Y-45923559D01*
X151182351Y-45924639D01*
X151175000Y-45925000D01*
X151025000Y-45925000D01*
X151017649Y-45924639D01*
X151010368Y-45923559D01*
X151003229Y-45921771D01*
X150996299Y-45919291D01*
X150989645Y-45916144D01*
X150983332Y-45912360D01*
X150977421Y-45907976D01*
X150971967Y-45903033D01*
X150967024Y-45897579D01*
X150962640Y-45891668D01*
X150958856Y-45885355D01*
X150955709Y-45878701D01*
X150953229Y-45871771D01*
X150951441Y-45864632D01*
X150950361Y-45857351D01*
X150950000Y-45850000D01*
X150950000Y-45150000D01*
X150950361Y-45142649D01*
X150951441Y-45135368D01*
X150953229Y-45128229D01*
X150955709Y-45121299D01*
X150958856Y-45114645D01*
X150962640Y-45108332D01*
X150967024Y-45102421D01*
X150971967Y-45096967D01*
X150977421Y-45092024D01*
X150983332Y-45087640D01*
X150989645Y-45083856D01*
X150996299Y-45080709D01*
X151003229Y-45078229D01*
X151010368Y-45076441D01*
X151017649Y-45075361D01*
X151025000Y-45075000D01*
X151175000Y-45075000D01*
X151182351Y-45075361D01*
X151182351Y-45075361D01*
G37*
D17*
X151100000Y-45500000D03*
D14*
G36*
X152157351Y-46050361D02*
G01*
X152164632Y-46051441D01*
X152171771Y-46053229D01*
X152178701Y-46055709D01*
X152185355Y-46058856D01*
X152191668Y-46062640D01*
X152197579Y-46067024D01*
X152203033Y-46071967D01*
X152207976Y-46077421D01*
X152212360Y-46083332D01*
X152216144Y-46089645D01*
X152219291Y-46096299D01*
X152221771Y-46103229D01*
X152223559Y-46110368D01*
X152224639Y-46117649D01*
X152225000Y-46125000D01*
X152225000Y-46275000D01*
X152224639Y-46282351D01*
X152223559Y-46289632D01*
X152221771Y-46296771D01*
X152219291Y-46303701D01*
X152216144Y-46310355D01*
X152212360Y-46316668D01*
X152207976Y-46322579D01*
X152203033Y-46328033D01*
X152197579Y-46332976D01*
X152191668Y-46337360D01*
X152185355Y-46341144D01*
X152178701Y-46344291D01*
X152171771Y-46346771D01*
X152164632Y-46348559D01*
X152157351Y-46349639D01*
X152150000Y-46350000D01*
X151450000Y-46350000D01*
X151442649Y-46349639D01*
X151435368Y-46348559D01*
X151428229Y-46346771D01*
X151421299Y-46344291D01*
X151414645Y-46341144D01*
X151408332Y-46337360D01*
X151402421Y-46332976D01*
X151396967Y-46328033D01*
X151392024Y-46322579D01*
X151387640Y-46316668D01*
X151383856Y-46310355D01*
X151380709Y-46303701D01*
X151378229Y-46296771D01*
X151376441Y-46289632D01*
X151375361Y-46282351D01*
X151375000Y-46275000D01*
X151375000Y-46125000D01*
X151375361Y-46117649D01*
X151376441Y-46110368D01*
X151378229Y-46103229D01*
X151380709Y-46096299D01*
X151383856Y-46089645D01*
X151387640Y-46083332D01*
X151392024Y-46077421D01*
X151396967Y-46071967D01*
X151402421Y-46067024D01*
X151408332Y-46062640D01*
X151414645Y-46058856D01*
X151421299Y-46055709D01*
X151428229Y-46053229D01*
X151435368Y-46051441D01*
X151442649Y-46050361D01*
X151450000Y-46050000D01*
X152150000Y-46050000D01*
X152157351Y-46050361D01*
X152157351Y-46050361D01*
G37*
D17*
X151800000Y-46200000D03*
D19*
X151800000Y-46700000D03*
X151800000Y-47200000D03*
X151800000Y-47700000D03*
X151800000Y-48200000D03*
D14*
G36*
X152157351Y-48550361D02*
G01*
X152164632Y-48551441D01*
X152171771Y-48553229D01*
X152178701Y-48555709D01*
X152185355Y-48558856D01*
X152191668Y-48562640D01*
X152197579Y-48567024D01*
X152203033Y-48571967D01*
X152207976Y-48577421D01*
X152212360Y-48583332D01*
X152216144Y-48589645D01*
X152219291Y-48596299D01*
X152221771Y-48603229D01*
X152223559Y-48610368D01*
X152224639Y-48617649D01*
X152225000Y-48625000D01*
X152225000Y-48775000D01*
X152224639Y-48782351D01*
X152223559Y-48789632D01*
X152221771Y-48796771D01*
X152219291Y-48803701D01*
X152216144Y-48810355D01*
X152212360Y-48816668D01*
X152207976Y-48822579D01*
X152203033Y-48828033D01*
X152197579Y-48832976D01*
X152191668Y-48837360D01*
X152185355Y-48841144D01*
X152178701Y-48844291D01*
X152171771Y-48846771D01*
X152164632Y-48848559D01*
X152157351Y-48849639D01*
X152150000Y-48850000D01*
X151450000Y-48850000D01*
X151442649Y-48849639D01*
X151435368Y-48848559D01*
X151428229Y-48846771D01*
X151421299Y-48844291D01*
X151414645Y-48841144D01*
X151408332Y-48837360D01*
X151402421Y-48832976D01*
X151396967Y-48828033D01*
X151392024Y-48822579D01*
X151387640Y-48816668D01*
X151383856Y-48810355D01*
X151380709Y-48803701D01*
X151378229Y-48796771D01*
X151376441Y-48789632D01*
X151375361Y-48782351D01*
X151375000Y-48775000D01*
X151375000Y-48625000D01*
X151375361Y-48617649D01*
X151376441Y-48610368D01*
X151378229Y-48603229D01*
X151380709Y-48596299D01*
X151383856Y-48589645D01*
X151387640Y-48583332D01*
X151392024Y-48577421D01*
X151396967Y-48571967D01*
X151402421Y-48567024D01*
X151408332Y-48562640D01*
X151414645Y-48558856D01*
X151421299Y-48555709D01*
X151428229Y-48553229D01*
X151435368Y-48551441D01*
X151442649Y-48550361D01*
X151450000Y-48550000D01*
X152150000Y-48550000D01*
X152157351Y-48550361D01*
X152157351Y-48550361D01*
G37*
D17*
X151800000Y-48700000D03*
D20*
X166437500Y-53000000D03*
D21*
X163737500Y-54650000D03*
X163737500Y-55300000D03*
X163737500Y-52700000D03*
X163737500Y-53350000D03*
X163737500Y-54000000D03*
D20*
X166437500Y-55000000D03*
D14*
G36*
X147377691Y-41551053D02*
G01*
X147398926Y-41554203D01*
X147419750Y-41559419D01*
X147439962Y-41566651D01*
X147459368Y-41575830D01*
X147477781Y-41586866D01*
X147495024Y-41599654D01*
X147510930Y-41614070D01*
X147525346Y-41629976D01*
X147538134Y-41647219D01*
X147549170Y-41665632D01*
X147558349Y-41685038D01*
X147565581Y-41705250D01*
X147570797Y-41726074D01*
X147573947Y-41747309D01*
X147575000Y-41768750D01*
X147575000Y-42206250D01*
X147573947Y-42227691D01*
X147570797Y-42248926D01*
X147565581Y-42269750D01*
X147558349Y-42289962D01*
X147549170Y-42309368D01*
X147538134Y-42327781D01*
X147525346Y-42345024D01*
X147510930Y-42360930D01*
X147495024Y-42375346D01*
X147477781Y-42388134D01*
X147459368Y-42399170D01*
X147439962Y-42408349D01*
X147419750Y-42415581D01*
X147398926Y-42420797D01*
X147377691Y-42423947D01*
X147356250Y-42425000D01*
X146843750Y-42425000D01*
X146822309Y-42423947D01*
X146801074Y-42420797D01*
X146780250Y-42415581D01*
X146760038Y-42408349D01*
X146740632Y-42399170D01*
X146722219Y-42388134D01*
X146704976Y-42375346D01*
X146689070Y-42360930D01*
X146674654Y-42345024D01*
X146661866Y-42327781D01*
X146650830Y-42309368D01*
X146641651Y-42289962D01*
X146634419Y-42269750D01*
X146629203Y-42248926D01*
X146626053Y-42227691D01*
X146625000Y-42206250D01*
X146625000Y-41768750D01*
X146626053Y-41747309D01*
X146629203Y-41726074D01*
X146634419Y-41705250D01*
X146641651Y-41685038D01*
X146650830Y-41665632D01*
X146661866Y-41647219D01*
X146674654Y-41629976D01*
X146689070Y-41614070D01*
X146704976Y-41599654D01*
X146722219Y-41586866D01*
X146740632Y-41575830D01*
X146760038Y-41566651D01*
X146780250Y-41559419D01*
X146801074Y-41554203D01*
X146822309Y-41551053D01*
X146843750Y-41550000D01*
X147356250Y-41550000D01*
X147377691Y-41551053D01*
X147377691Y-41551053D01*
G37*
D15*
X147100000Y-41987500D03*
D14*
G36*
X147377691Y-39976053D02*
G01*
X147398926Y-39979203D01*
X147419750Y-39984419D01*
X147439962Y-39991651D01*
X147459368Y-40000830D01*
X147477781Y-40011866D01*
X147495024Y-40024654D01*
X147510930Y-40039070D01*
X147525346Y-40054976D01*
X147538134Y-40072219D01*
X147549170Y-40090632D01*
X147558349Y-40110038D01*
X147565581Y-40130250D01*
X147570797Y-40151074D01*
X147573947Y-40172309D01*
X147575000Y-40193750D01*
X147575000Y-40631250D01*
X147573947Y-40652691D01*
X147570797Y-40673926D01*
X147565581Y-40694750D01*
X147558349Y-40714962D01*
X147549170Y-40734368D01*
X147538134Y-40752781D01*
X147525346Y-40770024D01*
X147510930Y-40785930D01*
X147495024Y-40800346D01*
X147477781Y-40813134D01*
X147459368Y-40824170D01*
X147439962Y-40833349D01*
X147419750Y-40840581D01*
X147398926Y-40845797D01*
X147377691Y-40848947D01*
X147356250Y-40850000D01*
X146843750Y-40850000D01*
X146822309Y-40848947D01*
X146801074Y-40845797D01*
X146780250Y-40840581D01*
X146760038Y-40833349D01*
X146740632Y-40824170D01*
X146722219Y-40813134D01*
X146704976Y-40800346D01*
X146689070Y-40785930D01*
X146674654Y-40770024D01*
X146661866Y-40752781D01*
X146650830Y-40734368D01*
X146641651Y-40714962D01*
X146634419Y-40694750D01*
X146629203Y-40673926D01*
X146626053Y-40652691D01*
X146625000Y-40631250D01*
X146625000Y-40193750D01*
X146626053Y-40172309D01*
X146629203Y-40151074D01*
X146634419Y-40130250D01*
X146641651Y-40110038D01*
X146650830Y-40090632D01*
X146661866Y-40072219D01*
X146674654Y-40054976D01*
X146689070Y-40039070D01*
X146704976Y-40024654D01*
X146722219Y-40011866D01*
X146740632Y-40000830D01*
X146760038Y-39991651D01*
X146780250Y-39984419D01*
X146801074Y-39979203D01*
X146822309Y-39976053D01*
X146843750Y-39975000D01*
X147356250Y-39975000D01*
X147377691Y-39976053D01*
X147377691Y-39976053D01*
G37*
D15*
X147100000Y-40412500D03*
D14*
G36*
X150927691Y-42726053D02*
G01*
X150948926Y-42729203D01*
X150969750Y-42734419D01*
X150989962Y-42741651D01*
X151009368Y-42750830D01*
X151027781Y-42761866D01*
X151045024Y-42774654D01*
X151060930Y-42789070D01*
X151075346Y-42804976D01*
X151088134Y-42822219D01*
X151099170Y-42840632D01*
X151108349Y-42860038D01*
X151115581Y-42880250D01*
X151120797Y-42901074D01*
X151123947Y-42922309D01*
X151125000Y-42943750D01*
X151125000Y-43456250D01*
X151123947Y-43477691D01*
X151120797Y-43498926D01*
X151115581Y-43519750D01*
X151108349Y-43539962D01*
X151099170Y-43559368D01*
X151088134Y-43577781D01*
X151075346Y-43595024D01*
X151060930Y-43610930D01*
X151045024Y-43625346D01*
X151027781Y-43638134D01*
X151009368Y-43649170D01*
X150989962Y-43658349D01*
X150969750Y-43665581D01*
X150948926Y-43670797D01*
X150927691Y-43673947D01*
X150906250Y-43675000D01*
X150468750Y-43675000D01*
X150447309Y-43673947D01*
X150426074Y-43670797D01*
X150405250Y-43665581D01*
X150385038Y-43658349D01*
X150365632Y-43649170D01*
X150347219Y-43638134D01*
X150329976Y-43625346D01*
X150314070Y-43610930D01*
X150299654Y-43595024D01*
X150286866Y-43577781D01*
X150275830Y-43559368D01*
X150266651Y-43539962D01*
X150259419Y-43519750D01*
X150254203Y-43498926D01*
X150251053Y-43477691D01*
X150250000Y-43456250D01*
X150250000Y-42943750D01*
X150251053Y-42922309D01*
X150254203Y-42901074D01*
X150259419Y-42880250D01*
X150266651Y-42860038D01*
X150275830Y-42840632D01*
X150286866Y-42822219D01*
X150299654Y-42804976D01*
X150314070Y-42789070D01*
X150329976Y-42774654D01*
X150347219Y-42761866D01*
X150365632Y-42750830D01*
X150385038Y-42741651D01*
X150405250Y-42734419D01*
X150426074Y-42729203D01*
X150447309Y-42726053D01*
X150468750Y-42725000D01*
X150906250Y-42725000D01*
X150927691Y-42726053D01*
X150927691Y-42726053D01*
G37*
D15*
X150687500Y-43200000D03*
D14*
G36*
X149352691Y-42726053D02*
G01*
X149373926Y-42729203D01*
X149394750Y-42734419D01*
X149414962Y-42741651D01*
X149434368Y-42750830D01*
X149452781Y-42761866D01*
X149470024Y-42774654D01*
X149485930Y-42789070D01*
X149500346Y-42804976D01*
X149513134Y-42822219D01*
X149524170Y-42840632D01*
X149533349Y-42860038D01*
X149540581Y-42880250D01*
X149545797Y-42901074D01*
X149548947Y-42922309D01*
X149550000Y-42943750D01*
X149550000Y-43456250D01*
X149548947Y-43477691D01*
X149545797Y-43498926D01*
X149540581Y-43519750D01*
X149533349Y-43539962D01*
X149524170Y-43559368D01*
X149513134Y-43577781D01*
X149500346Y-43595024D01*
X149485930Y-43610930D01*
X149470024Y-43625346D01*
X149452781Y-43638134D01*
X149434368Y-43649170D01*
X149414962Y-43658349D01*
X149394750Y-43665581D01*
X149373926Y-43670797D01*
X149352691Y-43673947D01*
X149331250Y-43675000D01*
X148893750Y-43675000D01*
X148872309Y-43673947D01*
X148851074Y-43670797D01*
X148830250Y-43665581D01*
X148810038Y-43658349D01*
X148790632Y-43649170D01*
X148772219Y-43638134D01*
X148754976Y-43625346D01*
X148739070Y-43610930D01*
X148724654Y-43595024D01*
X148711866Y-43577781D01*
X148700830Y-43559368D01*
X148691651Y-43539962D01*
X148684419Y-43519750D01*
X148679203Y-43498926D01*
X148676053Y-43477691D01*
X148675000Y-43456250D01*
X148675000Y-42943750D01*
X148676053Y-42922309D01*
X148679203Y-42901074D01*
X148684419Y-42880250D01*
X148691651Y-42860038D01*
X148700830Y-42840632D01*
X148711866Y-42822219D01*
X148724654Y-42804976D01*
X148739070Y-42789070D01*
X148754976Y-42774654D01*
X148772219Y-42761866D01*
X148790632Y-42750830D01*
X148810038Y-42741651D01*
X148830250Y-42734419D01*
X148851074Y-42729203D01*
X148872309Y-42726053D01*
X148893750Y-42725000D01*
X149331250Y-42725000D01*
X149352691Y-42726053D01*
X149352691Y-42726053D01*
G37*
D15*
X149112500Y-43200000D03*
D13*
X157100000Y-70900000D03*
X158700000Y-70900000D03*
X157100000Y-66800000D03*
X158700000Y-66800000D03*
D22*
X143920000Y-64600000D03*
X140080000Y-64600000D03*
X143920000Y-65100000D03*
X140080000Y-65100000D03*
X143920000Y-65600000D03*
X140080000Y-65600000D03*
X143920000Y-66100000D03*
X140080000Y-66100000D03*
X143920000Y-66600000D03*
X140080000Y-66600000D03*
D23*
X142000000Y-65600000D03*
D14*
G36*
X156152691Y-40426053D02*
G01*
X156173926Y-40429203D01*
X156194750Y-40434419D01*
X156214962Y-40441651D01*
X156234368Y-40450830D01*
X156252781Y-40461866D01*
X156270024Y-40474654D01*
X156285930Y-40489070D01*
X156300346Y-40504976D01*
X156313134Y-40522219D01*
X156324170Y-40540632D01*
X156333349Y-40560038D01*
X156340581Y-40580250D01*
X156345797Y-40601074D01*
X156348947Y-40622309D01*
X156350000Y-40643750D01*
X156350000Y-41156250D01*
X156348947Y-41177691D01*
X156345797Y-41198926D01*
X156340581Y-41219750D01*
X156333349Y-41239962D01*
X156324170Y-41259368D01*
X156313134Y-41277781D01*
X156300346Y-41295024D01*
X156285930Y-41310930D01*
X156270024Y-41325346D01*
X156252781Y-41338134D01*
X156234368Y-41349170D01*
X156214962Y-41358349D01*
X156194750Y-41365581D01*
X156173926Y-41370797D01*
X156152691Y-41373947D01*
X156131250Y-41375000D01*
X155693750Y-41375000D01*
X155672309Y-41373947D01*
X155651074Y-41370797D01*
X155630250Y-41365581D01*
X155610038Y-41358349D01*
X155590632Y-41349170D01*
X155572219Y-41338134D01*
X155554976Y-41325346D01*
X155539070Y-41310930D01*
X155524654Y-41295024D01*
X155511866Y-41277781D01*
X155500830Y-41259368D01*
X155491651Y-41239962D01*
X155484419Y-41219750D01*
X155479203Y-41198926D01*
X155476053Y-41177691D01*
X155475000Y-41156250D01*
X155475000Y-40643750D01*
X155476053Y-40622309D01*
X155479203Y-40601074D01*
X155484419Y-40580250D01*
X155491651Y-40560038D01*
X155500830Y-40540632D01*
X155511866Y-40522219D01*
X155524654Y-40504976D01*
X155539070Y-40489070D01*
X155554976Y-40474654D01*
X155572219Y-40461866D01*
X155590632Y-40450830D01*
X155610038Y-40441651D01*
X155630250Y-40434419D01*
X155651074Y-40429203D01*
X155672309Y-40426053D01*
X155693750Y-40425000D01*
X156131250Y-40425000D01*
X156152691Y-40426053D01*
X156152691Y-40426053D01*
G37*
D15*
X155912500Y-40900000D03*
D14*
G36*
X157727691Y-40426053D02*
G01*
X157748926Y-40429203D01*
X157769750Y-40434419D01*
X157789962Y-40441651D01*
X157809368Y-40450830D01*
X157827781Y-40461866D01*
X157845024Y-40474654D01*
X157860930Y-40489070D01*
X157875346Y-40504976D01*
X157888134Y-40522219D01*
X157899170Y-40540632D01*
X157908349Y-40560038D01*
X157915581Y-40580250D01*
X157920797Y-40601074D01*
X157923947Y-40622309D01*
X157925000Y-40643750D01*
X157925000Y-41156250D01*
X157923947Y-41177691D01*
X157920797Y-41198926D01*
X157915581Y-41219750D01*
X157908349Y-41239962D01*
X157899170Y-41259368D01*
X157888134Y-41277781D01*
X157875346Y-41295024D01*
X157860930Y-41310930D01*
X157845024Y-41325346D01*
X157827781Y-41338134D01*
X157809368Y-41349170D01*
X157789962Y-41358349D01*
X157769750Y-41365581D01*
X157748926Y-41370797D01*
X157727691Y-41373947D01*
X157706250Y-41375000D01*
X157268750Y-41375000D01*
X157247309Y-41373947D01*
X157226074Y-41370797D01*
X157205250Y-41365581D01*
X157185038Y-41358349D01*
X157165632Y-41349170D01*
X157147219Y-41338134D01*
X157129976Y-41325346D01*
X157114070Y-41310930D01*
X157099654Y-41295024D01*
X157086866Y-41277781D01*
X157075830Y-41259368D01*
X157066651Y-41239962D01*
X157059419Y-41219750D01*
X157054203Y-41198926D01*
X157051053Y-41177691D01*
X157050000Y-41156250D01*
X157050000Y-40643750D01*
X157051053Y-40622309D01*
X157054203Y-40601074D01*
X157059419Y-40580250D01*
X157066651Y-40560038D01*
X157075830Y-40540632D01*
X157086866Y-40522219D01*
X157099654Y-40504976D01*
X157114070Y-40489070D01*
X157129976Y-40474654D01*
X157147219Y-40461866D01*
X157165632Y-40450830D01*
X157185038Y-40441651D01*
X157205250Y-40434419D01*
X157226074Y-40429203D01*
X157247309Y-40426053D01*
X157268750Y-40425000D01*
X157706250Y-40425000D01*
X157727691Y-40426053D01*
X157727691Y-40426053D01*
G37*
D15*
X157487500Y-40900000D03*
D14*
G36*
X138477691Y-57176053D02*
G01*
X138498926Y-57179203D01*
X138519750Y-57184419D01*
X138539962Y-57191651D01*
X138559368Y-57200830D01*
X138577781Y-57211866D01*
X138595024Y-57224654D01*
X138610930Y-57239070D01*
X138625346Y-57254976D01*
X138638134Y-57272219D01*
X138649170Y-57290632D01*
X138658349Y-57310038D01*
X138665581Y-57330250D01*
X138670797Y-57351074D01*
X138673947Y-57372309D01*
X138675000Y-57393750D01*
X138675000Y-57831250D01*
X138673947Y-57852691D01*
X138670797Y-57873926D01*
X138665581Y-57894750D01*
X138658349Y-57914962D01*
X138649170Y-57934368D01*
X138638134Y-57952781D01*
X138625346Y-57970024D01*
X138610930Y-57985930D01*
X138595024Y-58000346D01*
X138577781Y-58013134D01*
X138559368Y-58024170D01*
X138539962Y-58033349D01*
X138519750Y-58040581D01*
X138498926Y-58045797D01*
X138477691Y-58048947D01*
X138456250Y-58050000D01*
X137943750Y-58050000D01*
X137922309Y-58048947D01*
X137901074Y-58045797D01*
X137880250Y-58040581D01*
X137860038Y-58033349D01*
X137840632Y-58024170D01*
X137822219Y-58013134D01*
X137804976Y-58000346D01*
X137789070Y-57985930D01*
X137774654Y-57970024D01*
X137761866Y-57952781D01*
X137750830Y-57934368D01*
X137741651Y-57914962D01*
X137734419Y-57894750D01*
X137729203Y-57873926D01*
X137726053Y-57852691D01*
X137725000Y-57831250D01*
X137725000Y-57393750D01*
X137726053Y-57372309D01*
X137729203Y-57351074D01*
X137734419Y-57330250D01*
X137741651Y-57310038D01*
X137750830Y-57290632D01*
X137761866Y-57272219D01*
X137774654Y-57254976D01*
X137789070Y-57239070D01*
X137804976Y-57224654D01*
X137822219Y-57211866D01*
X137840632Y-57200830D01*
X137860038Y-57191651D01*
X137880250Y-57184419D01*
X137901074Y-57179203D01*
X137922309Y-57176053D01*
X137943750Y-57175000D01*
X138456250Y-57175000D01*
X138477691Y-57176053D01*
X138477691Y-57176053D01*
G37*
D15*
X138200000Y-57612500D03*
D14*
G36*
X138477691Y-58751053D02*
G01*
X138498926Y-58754203D01*
X138519750Y-58759419D01*
X138539962Y-58766651D01*
X138559368Y-58775830D01*
X138577781Y-58786866D01*
X138595024Y-58799654D01*
X138610930Y-58814070D01*
X138625346Y-58829976D01*
X138638134Y-58847219D01*
X138649170Y-58865632D01*
X138658349Y-58885038D01*
X138665581Y-58905250D01*
X138670797Y-58926074D01*
X138673947Y-58947309D01*
X138675000Y-58968750D01*
X138675000Y-59406250D01*
X138673947Y-59427691D01*
X138670797Y-59448926D01*
X138665581Y-59469750D01*
X138658349Y-59489962D01*
X138649170Y-59509368D01*
X138638134Y-59527781D01*
X138625346Y-59545024D01*
X138610930Y-59560930D01*
X138595024Y-59575346D01*
X138577781Y-59588134D01*
X138559368Y-59599170D01*
X138539962Y-59608349D01*
X138519750Y-59615581D01*
X138498926Y-59620797D01*
X138477691Y-59623947D01*
X138456250Y-59625000D01*
X137943750Y-59625000D01*
X137922309Y-59623947D01*
X137901074Y-59620797D01*
X137880250Y-59615581D01*
X137860038Y-59608349D01*
X137840632Y-59599170D01*
X137822219Y-59588134D01*
X137804976Y-59575346D01*
X137789070Y-59560930D01*
X137774654Y-59545024D01*
X137761866Y-59527781D01*
X137750830Y-59509368D01*
X137741651Y-59489962D01*
X137734419Y-59469750D01*
X137729203Y-59448926D01*
X137726053Y-59427691D01*
X137725000Y-59406250D01*
X137725000Y-58968750D01*
X137726053Y-58947309D01*
X137729203Y-58926074D01*
X137734419Y-58905250D01*
X137741651Y-58885038D01*
X137750830Y-58865632D01*
X137761866Y-58847219D01*
X137774654Y-58829976D01*
X137789070Y-58814070D01*
X137804976Y-58799654D01*
X137822219Y-58786866D01*
X137840632Y-58775830D01*
X137860038Y-58766651D01*
X137880250Y-58759419D01*
X137901074Y-58754203D01*
X137922309Y-58751053D01*
X137943750Y-58750000D01*
X138456250Y-58750000D01*
X138477691Y-58751053D01*
X138477691Y-58751053D01*
G37*
D15*
X138200000Y-59187500D03*
D14*
G36*
X137052691Y-66026053D02*
G01*
X137073926Y-66029203D01*
X137094750Y-66034419D01*
X137114962Y-66041651D01*
X137134368Y-66050830D01*
X137152781Y-66061866D01*
X137170024Y-66074654D01*
X137185930Y-66089070D01*
X137200346Y-66104976D01*
X137213134Y-66122219D01*
X137224170Y-66140632D01*
X137233349Y-66160038D01*
X137240581Y-66180250D01*
X137245797Y-66201074D01*
X137248947Y-66222309D01*
X137250000Y-66243750D01*
X137250000Y-66756250D01*
X137248947Y-66777691D01*
X137245797Y-66798926D01*
X137240581Y-66819750D01*
X137233349Y-66839962D01*
X137224170Y-66859368D01*
X137213134Y-66877781D01*
X137200346Y-66895024D01*
X137185930Y-66910930D01*
X137170024Y-66925346D01*
X137152781Y-66938134D01*
X137134368Y-66949170D01*
X137114962Y-66958349D01*
X137094750Y-66965581D01*
X137073926Y-66970797D01*
X137052691Y-66973947D01*
X137031250Y-66975000D01*
X136593750Y-66975000D01*
X136572309Y-66973947D01*
X136551074Y-66970797D01*
X136530250Y-66965581D01*
X136510038Y-66958349D01*
X136490632Y-66949170D01*
X136472219Y-66938134D01*
X136454976Y-66925346D01*
X136439070Y-66910930D01*
X136424654Y-66895024D01*
X136411866Y-66877781D01*
X136400830Y-66859368D01*
X136391651Y-66839962D01*
X136384419Y-66819750D01*
X136379203Y-66798926D01*
X136376053Y-66777691D01*
X136375000Y-66756250D01*
X136375000Y-66243750D01*
X136376053Y-66222309D01*
X136379203Y-66201074D01*
X136384419Y-66180250D01*
X136391651Y-66160038D01*
X136400830Y-66140632D01*
X136411866Y-66122219D01*
X136424654Y-66104976D01*
X136439070Y-66089070D01*
X136454976Y-66074654D01*
X136472219Y-66061866D01*
X136490632Y-66050830D01*
X136510038Y-66041651D01*
X136530250Y-66034419D01*
X136551074Y-66029203D01*
X136572309Y-66026053D01*
X136593750Y-66025000D01*
X137031250Y-66025000D01*
X137052691Y-66026053D01*
X137052691Y-66026053D01*
G37*
D15*
X136812500Y-66500000D03*
D14*
G36*
X138627691Y-66026053D02*
G01*
X138648926Y-66029203D01*
X138669750Y-66034419D01*
X138689962Y-66041651D01*
X138709368Y-66050830D01*
X138727781Y-66061866D01*
X138745024Y-66074654D01*
X138760930Y-66089070D01*
X138775346Y-66104976D01*
X138788134Y-66122219D01*
X138799170Y-66140632D01*
X138808349Y-66160038D01*
X138815581Y-66180250D01*
X138820797Y-66201074D01*
X138823947Y-66222309D01*
X138825000Y-66243750D01*
X138825000Y-66756250D01*
X138823947Y-66777691D01*
X138820797Y-66798926D01*
X138815581Y-66819750D01*
X138808349Y-66839962D01*
X138799170Y-66859368D01*
X138788134Y-66877781D01*
X138775346Y-66895024D01*
X138760930Y-66910930D01*
X138745024Y-66925346D01*
X138727781Y-66938134D01*
X138709368Y-66949170D01*
X138689962Y-66958349D01*
X138669750Y-66965581D01*
X138648926Y-66970797D01*
X138627691Y-66973947D01*
X138606250Y-66975000D01*
X138168750Y-66975000D01*
X138147309Y-66973947D01*
X138126074Y-66970797D01*
X138105250Y-66965581D01*
X138085038Y-66958349D01*
X138065632Y-66949170D01*
X138047219Y-66938134D01*
X138029976Y-66925346D01*
X138014070Y-66910930D01*
X137999654Y-66895024D01*
X137986866Y-66877781D01*
X137975830Y-66859368D01*
X137966651Y-66839962D01*
X137959419Y-66819750D01*
X137954203Y-66798926D01*
X137951053Y-66777691D01*
X137950000Y-66756250D01*
X137950000Y-66243750D01*
X137951053Y-66222309D01*
X137954203Y-66201074D01*
X137959419Y-66180250D01*
X137966651Y-66160038D01*
X137975830Y-66140632D01*
X137986866Y-66122219D01*
X137999654Y-66104976D01*
X138014070Y-66089070D01*
X138029976Y-66074654D01*
X138047219Y-66061866D01*
X138065632Y-66050830D01*
X138085038Y-66041651D01*
X138105250Y-66034419D01*
X138126074Y-66029203D01*
X138147309Y-66026053D01*
X138168750Y-66025000D01*
X138606250Y-66025000D01*
X138627691Y-66026053D01*
X138627691Y-66026053D01*
G37*
D15*
X138387500Y-66500000D03*
D14*
G36*
X138577691Y-62976053D02*
G01*
X138598926Y-62979203D01*
X138619750Y-62984419D01*
X138639962Y-62991651D01*
X138659368Y-63000830D01*
X138677781Y-63011866D01*
X138695024Y-63024654D01*
X138710930Y-63039070D01*
X138725346Y-63054976D01*
X138738134Y-63072219D01*
X138749170Y-63090632D01*
X138758349Y-63110038D01*
X138765581Y-63130250D01*
X138770797Y-63151074D01*
X138773947Y-63172309D01*
X138775000Y-63193750D01*
X138775000Y-63631250D01*
X138773947Y-63652691D01*
X138770797Y-63673926D01*
X138765581Y-63694750D01*
X138758349Y-63714962D01*
X138749170Y-63734368D01*
X138738134Y-63752781D01*
X138725346Y-63770024D01*
X138710930Y-63785930D01*
X138695024Y-63800346D01*
X138677781Y-63813134D01*
X138659368Y-63824170D01*
X138639962Y-63833349D01*
X138619750Y-63840581D01*
X138598926Y-63845797D01*
X138577691Y-63848947D01*
X138556250Y-63850000D01*
X138043750Y-63850000D01*
X138022309Y-63848947D01*
X138001074Y-63845797D01*
X137980250Y-63840581D01*
X137960038Y-63833349D01*
X137940632Y-63824170D01*
X137922219Y-63813134D01*
X137904976Y-63800346D01*
X137889070Y-63785930D01*
X137874654Y-63770024D01*
X137861866Y-63752781D01*
X137850830Y-63734368D01*
X137841651Y-63714962D01*
X137834419Y-63694750D01*
X137829203Y-63673926D01*
X137826053Y-63652691D01*
X137825000Y-63631250D01*
X137825000Y-63193750D01*
X137826053Y-63172309D01*
X137829203Y-63151074D01*
X137834419Y-63130250D01*
X137841651Y-63110038D01*
X137850830Y-63090632D01*
X137861866Y-63072219D01*
X137874654Y-63054976D01*
X137889070Y-63039070D01*
X137904976Y-63024654D01*
X137922219Y-63011866D01*
X137940632Y-63000830D01*
X137960038Y-62991651D01*
X137980250Y-62984419D01*
X138001074Y-62979203D01*
X138022309Y-62976053D01*
X138043750Y-62975000D01*
X138556250Y-62975000D01*
X138577691Y-62976053D01*
X138577691Y-62976053D01*
G37*
D15*
X138300000Y-63412500D03*
D14*
G36*
X138577691Y-64551053D02*
G01*
X138598926Y-64554203D01*
X138619750Y-64559419D01*
X138639962Y-64566651D01*
X138659368Y-64575830D01*
X138677781Y-64586866D01*
X138695024Y-64599654D01*
X138710930Y-64614070D01*
X138725346Y-64629976D01*
X138738134Y-64647219D01*
X138749170Y-64665632D01*
X138758349Y-64685038D01*
X138765581Y-64705250D01*
X138770797Y-64726074D01*
X138773947Y-64747309D01*
X138775000Y-64768750D01*
X138775000Y-65206250D01*
X138773947Y-65227691D01*
X138770797Y-65248926D01*
X138765581Y-65269750D01*
X138758349Y-65289962D01*
X138749170Y-65309368D01*
X138738134Y-65327781D01*
X138725346Y-65345024D01*
X138710930Y-65360930D01*
X138695024Y-65375346D01*
X138677781Y-65388134D01*
X138659368Y-65399170D01*
X138639962Y-65408349D01*
X138619750Y-65415581D01*
X138598926Y-65420797D01*
X138577691Y-65423947D01*
X138556250Y-65425000D01*
X138043750Y-65425000D01*
X138022309Y-65423947D01*
X138001074Y-65420797D01*
X137980250Y-65415581D01*
X137960038Y-65408349D01*
X137940632Y-65399170D01*
X137922219Y-65388134D01*
X137904976Y-65375346D01*
X137889070Y-65360930D01*
X137874654Y-65345024D01*
X137861866Y-65327781D01*
X137850830Y-65309368D01*
X137841651Y-65289962D01*
X137834419Y-65269750D01*
X137829203Y-65248926D01*
X137826053Y-65227691D01*
X137825000Y-65206250D01*
X137825000Y-64768750D01*
X137826053Y-64747309D01*
X137829203Y-64726074D01*
X137834419Y-64705250D01*
X137841651Y-64685038D01*
X137850830Y-64665632D01*
X137861866Y-64647219D01*
X137874654Y-64629976D01*
X137889070Y-64614070D01*
X137904976Y-64599654D01*
X137922219Y-64586866D01*
X137940632Y-64575830D01*
X137960038Y-64566651D01*
X137980250Y-64559419D01*
X138001074Y-64554203D01*
X138022309Y-64551053D01*
X138043750Y-64550000D01*
X138556250Y-64550000D01*
X138577691Y-64551053D01*
X138577691Y-64551053D01*
G37*
D15*
X138300000Y-64987500D03*
D14*
G36*
X148877691Y-36976053D02*
G01*
X148898926Y-36979203D01*
X148919750Y-36984419D01*
X148939962Y-36991651D01*
X148959368Y-37000830D01*
X148977781Y-37011866D01*
X148995024Y-37024654D01*
X149010930Y-37039070D01*
X149025346Y-37054976D01*
X149038134Y-37072219D01*
X149049170Y-37090632D01*
X149058349Y-37110038D01*
X149065581Y-37130250D01*
X149070797Y-37151074D01*
X149073947Y-37172309D01*
X149075000Y-37193750D01*
X149075000Y-37631250D01*
X149073947Y-37652691D01*
X149070797Y-37673926D01*
X149065581Y-37694750D01*
X149058349Y-37714962D01*
X149049170Y-37734368D01*
X149038134Y-37752781D01*
X149025346Y-37770024D01*
X149010930Y-37785930D01*
X148995024Y-37800346D01*
X148977781Y-37813134D01*
X148959368Y-37824170D01*
X148939962Y-37833349D01*
X148919750Y-37840581D01*
X148898926Y-37845797D01*
X148877691Y-37848947D01*
X148856250Y-37850000D01*
X148343750Y-37850000D01*
X148322309Y-37848947D01*
X148301074Y-37845797D01*
X148280250Y-37840581D01*
X148260038Y-37833349D01*
X148240632Y-37824170D01*
X148222219Y-37813134D01*
X148204976Y-37800346D01*
X148189070Y-37785930D01*
X148174654Y-37770024D01*
X148161866Y-37752781D01*
X148150830Y-37734368D01*
X148141651Y-37714962D01*
X148134419Y-37694750D01*
X148129203Y-37673926D01*
X148126053Y-37652691D01*
X148125000Y-37631250D01*
X148125000Y-37193750D01*
X148126053Y-37172309D01*
X148129203Y-37151074D01*
X148134419Y-37130250D01*
X148141651Y-37110038D01*
X148150830Y-37090632D01*
X148161866Y-37072219D01*
X148174654Y-37054976D01*
X148189070Y-37039070D01*
X148204976Y-37024654D01*
X148222219Y-37011866D01*
X148240632Y-37000830D01*
X148260038Y-36991651D01*
X148280250Y-36984419D01*
X148301074Y-36979203D01*
X148322309Y-36976053D01*
X148343750Y-36975000D01*
X148856250Y-36975000D01*
X148877691Y-36976053D01*
X148877691Y-36976053D01*
G37*
D15*
X148600000Y-37412500D03*
D14*
G36*
X148877691Y-38551053D02*
G01*
X148898926Y-38554203D01*
X148919750Y-38559419D01*
X148939962Y-38566651D01*
X148959368Y-38575830D01*
X148977781Y-38586866D01*
X148995024Y-38599654D01*
X149010930Y-38614070D01*
X149025346Y-38629976D01*
X149038134Y-38647219D01*
X149049170Y-38665632D01*
X149058349Y-38685038D01*
X149065581Y-38705250D01*
X149070797Y-38726074D01*
X149073947Y-38747309D01*
X149075000Y-38768750D01*
X149075000Y-39206250D01*
X149073947Y-39227691D01*
X149070797Y-39248926D01*
X149065581Y-39269750D01*
X149058349Y-39289962D01*
X149049170Y-39309368D01*
X149038134Y-39327781D01*
X149025346Y-39345024D01*
X149010930Y-39360930D01*
X148995024Y-39375346D01*
X148977781Y-39388134D01*
X148959368Y-39399170D01*
X148939962Y-39408349D01*
X148919750Y-39415581D01*
X148898926Y-39420797D01*
X148877691Y-39423947D01*
X148856250Y-39425000D01*
X148343750Y-39425000D01*
X148322309Y-39423947D01*
X148301074Y-39420797D01*
X148280250Y-39415581D01*
X148260038Y-39408349D01*
X148240632Y-39399170D01*
X148222219Y-39388134D01*
X148204976Y-39375346D01*
X148189070Y-39360930D01*
X148174654Y-39345024D01*
X148161866Y-39327781D01*
X148150830Y-39309368D01*
X148141651Y-39289962D01*
X148134419Y-39269750D01*
X148129203Y-39248926D01*
X148126053Y-39227691D01*
X148125000Y-39206250D01*
X148125000Y-38768750D01*
X148126053Y-38747309D01*
X148129203Y-38726074D01*
X148134419Y-38705250D01*
X148141651Y-38685038D01*
X148150830Y-38665632D01*
X148161866Y-38647219D01*
X148174654Y-38629976D01*
X148189070Y-38614070D01*
X148204976Y-38599654D01*
X148222219Y-38586866D01*
X148240632Y-38575830D01*
X148260038Y-38566651D01*
X148280250Y-38559419D01*
X148301074Y-38554203D01*
X148322309Y-38551053D01*
X148343750Y-38550000D01*
X148856250Y-38550000D01*
X148877691Y-38551053D01*
X148877691Y-38551053D01*
G37*
D15*
X148600000Y-38987500D03*
D23*
X141900000Y-48800000D03*
D22*
X139980000Y-49800000D03*
X143820000Y-49800000D03*
X139980000Y-49300000D03*
X143820000Y-49300000D03*
X139980000Y-48800000D03*
X143820000Y-48800000D03*
X139980000Y-48300000D03*
X143820000Y-48300000D03*
X139980000Y-47800000D03*
X143820000Y-47800000D03*
X143820000Y-52700000D03*
X139980000Y-52700000D03*
X143820000Y-53200000D03*
X139980000Y-53200000D03*
X143820000Y-53700000D03*
X139980000Y-53700000D03*
X143820000Y-54200000D03*
X139980000Y-54200000D03*
X143820000Y-54700000D03*
X139980000Y-54700000D03*
D23*
X141900000Y-53700000D03*
X141900000Y-59700000D03*
D22*
X139980000Y-60700000D03*
X143820000Y-60700000D03*
X139980000Y-60200000D03*
X143820000Y-60200000D03*
X139980000Y-59700000D03*
X143820000Y-59700000D03*
X139980000Y-59200000D03*
X143820000Y-59200000D03*
X139980000Y-58700000D03*
X143820000Y-58700000D03*
D14*
G36*
X136977691Y-47751053D02*
G01*
X136998926Y-47754203D01*
X137019750Y-47759419D01*
X137039962Y-47766651D01*
X137059368Y-47775830D01*
X137077781Y-47786866D01*
X137095024Y-47799654D01*
X137110930Y-47814070D01*
X137125346Y-47829976D01*
X137138134Y-47847219D01*
X137149170Y-47865632D01*
X137158349Y-47885038D01*
X137165581Y-47905250D01*
X137170797Y-47926074D01*
X137173947Y-47947309D01*
X137175000Y-47968750D01*
X137175000Y-48406250D01*
X137173947Y-48427691D01*
X137170797Y-48448926D01*
X137165581Y-48469750D01*
X137158349Y-48489962D01*
X137149170Y-48509368D01*
X137138134Y-48527781D01*
X137125346Y-48545024D01*
X137110930Y-48560930D01*
X137095024Y-48575346D01*
X137077781Y-48588134D01*
X137059368Y-48599170D01*
X137039962Y-48608349D01*
X137019750Y-48615581D01*
X136998926Y-48620797D01*
X136977691Y-48623947D01*
X136956250Y-48625000D01*
X136443750Y-48625000D01*
X136422309Y-48623947D01*
X136401074Y-48620797D01*
X136380250Y-48615581D01*
X136360038Y-48608349D01*
X136340632Y-48599170D01*
X136322219Y-48588134D01*
X136304976Y-48575346D01*
X136289070Y-48560930D01*
X136274654Y-48545024D01*
X136261866Y-48527781D01*
X136250830Y-48509368D01*
X136241651Y-48489962D01*
X136234419Y-48469750D01*
X136229203Y-48448926D01*
X136226053Y-48427691D01*
X136225000Y-48406250D01*
X136225000Y-47968750D01*
X136226053Y-47947309D01*
X136229203Y-47926074D01*
X136234419Y-47905250D01*
X136241651Y-47885038D01*
X136250830Y-47865632D01*
X136261866Y-47847219D01*
X136274654Y-47829976D01*
X136289070Y-47814070D01*
X136304976Y-47799654D01*
X136322219Y-47786866D01*
X136340632Y-47775830D01*
X136360038Y-47766651D01*
X136380250Y-47759419D01*
X136401074Y-47754203D01*
X136422309Y-47751053D01*
X136443750Y-47750000D01*
X136956250Y-47750000D01*
X136977691Y-47751053D01*
X136977691Y-47751053D01*
G37*
D15*
X136700000Y-48187500D03*
D14*
G36*
X136977691Y-46176053D02*
G01*
X136998926Y-46179203D01*
X137019750Y-46184419D01*
X137039962Y-46191651D01*
X137059368Y-46200830D01*
X137077781Y-46211866D01*
X137095024Y-46224654D01*
X137110930Y-46239070D01*
X137125346Y-46254976D01*
X137138134Y-46272219D01*
X137149170Y-46290632D01*
X137158349Y-46310038D01*
X137165581Y-46330250D01*
X137170797Y-46351074D01*
X137173947Y-46372309D01*
X137175000Y-46393750D01*
X137175000Y-46831250D01*
X137173947Y-46852691D01*
X137170797Y-46873926D01*
X137165581Y-46894750D01*
X137158349Y-46914962D01*
X137149170Y-46934368D01*
X137138134Y-46952781D01*
X137125346Y-46970024D01*
X137110930Y-46985930D01*
X137095024Y-47000346D01*
X137077781Y-47013134D01*
X137059368Y-47024170D01*
X137039962Y-47033349D01*
X137019750Y-47040581D01*
X136998926Y-47045797D01*
X136977691Y-47048947D01*
X136956250Y-47050000D01*
X136443750Y-47050000D01*
X136422309Y-47048947D01*
X136401074Y-47045797D01*
X136380250Y-47040581D01*
X136360038Y-47033349D01*
X136340632Y-47024170D01*
X136322219Y-47013134D01*
X136304976Y-47000346D01*
X136289070Y-46985930D01*
X136274654Y-46970024D01*
X136261866Y-46952781D01*
X136250830Y-46934368D01*
X136241651Y-46914962D01*
X136234419Y-46894750D01*
X136229203Y-46873926D01*
X136226053Y-46852691D01*
X136225000Y-46831250D01*
X136225000Y-46393750D01*
X136226053Y-46372309D01*
X136229203Y-46351074D01*
X136234419Y-46330250D01*
X136241651Y-46310038D01*
X136250830Y-46290632D01*
X136261866Y-46272219D01*
X136274654Y-46254976D01*
X136289070Y-46239070D01*
X136304976Y-46224654D01*
X136322219Y-46211866D01*
X136340632Y-46200830D01*
X136360038Y-46191651D01*
X136380250Y-46184419D01*
X136401074Y-46179203D01*
X136422309Y-46176053D01*
X136443750Y-46175000D01*
X136956250Y-46175000D01*
X136977691Y-46176053D01*
X136977691Y-46176053D01*
G37*
D15*
X136700000Y-46612500D03*
D14*
G36*
X147377691Y-36963553D02*
G01*
X147398926Y-36966703D01*
X147419750Y-36971919D01*
X147439962Y-36979151D01*
X147459368Y-36988330D01*
X147477781Y-36999366D01*
X147495024Y-37012154D01*
X147510930Y-37026570D01*
X147525346Y-37042476D01*
X147538134Y-37059719D01*
X147549170Y-37078132D01*
X147558349Y-37097538D01*
X147565581Y-37117750D01*
X147570797Y-37138574D01*
X147573947Y-37159809D01*
X147575000Y-37181250D01*
X147575000Y-37618750D01*
X147573947Y-37640191D01*
X147570797Y-37661426D01*
X147565581Y-37682250D01*
X147558349Y-37702462D01*
X147549170Y-37721868D01*
X147538134Y-37740281D01*
X147525346Y-37757524D01*
X147510930Y-37773430D01*
X147495024Y-37787846D01*
X147477781Y-37800634D01*
X147459368Y-37811670D01*
X147439962Y-37820849D01*
X147419750Y-37828081D01*
X147398926Y-37833297D01*
X147377691Y-37836447D01*
X147356250Y-37837500D01*
X146843750Y-37837500D01*
X146822309Y-37836447D01*
X146801074Y-37833297D01*
X146780250Y-37828081D01*
X146760038Y-37820849D01*
X146740632Y-37811670D01*
X146722219Y-37800634D01*
X146704976Y-37787846D01*
X146689070Y-37773430D01*
X146674654Y-37757524D01*
X146661866Y-37740281D01*
X146650830Y-37721868D01*
X146641651Y-37702462D01*
X146634419Y-37682250D01*
X146629203Y-37661426D01*
X146626053Y-37640191D01*
X146625000Y-37618750D01*
X146625000Y-37181250D01*
X146626053Y-37159809D01*
X146629203Y-37138574D01*
X146634419Y-37117750D01*
X146641651Y-37097538D01*
X146650830Y-37078132D01*
X146661866Y-37059719D01*
X146674654Y-37042476D01*
X146689070Y-37026570D01*
X146704976Y-37012154D01*
X146722219Y-36999366D01*
X146740632Y-36988330D01*
X146760038Y-36979151D01*
X146780250Y-36971919D01*
X146801074Y-36966703D01*
X146822309Y-36963553D01*
X146843750Y-36962500D01*
X147356250Y-36962500D01*
X147377691Y-36963553D01*
X147377691Y-36963553D01*
G37*
D15*
X147100000Y-37400000D03*
D14*
G36*
X147377691Y-38538553D02*
G01*
X147398926Y-38541703D01*
X147419750Y-38546919D01*
X147439962Y-38554151D01*
X147459368Y-38563330D01*
X147477781Y-38574366D01*
X147495024Y-38587154D01*
X147510930Y-38601570D01*
X147525346Y-38617476D01*
X147538134Y-38634719D01*
X147549170Y-38653132D01*
X147558349Y-38672538D01*
X147565581Y-38692750D01*
X147570797Y-38713574D01*
X147573947Y-38734809D01*
X147575000Y-38756250D01*
X147575000Y-39193750D01*
X147573947Y-39215191D01*
X147570797Y-39236426D01*
X147565581Y-39257250D01*
X147558349Y-39277462D01*
X147549170Y-39296868D01*
X147538134Y-39315281D01*
X147525346Y-39332524D01*
X147510930Y-39348430D01*
X147495024Y-39362846D01*
X147477781Y-39375634D01*
X147459368Y-39386670D01*
X147439962Y-39395849D01*
X147419750Y-39403081D01*
X147398926Y-39408297D01*
X147377691Y-39411447D01*
X147356250Y-39412500D01*
X146843750Y-39412500D01*
X146822309Y-39411447D01*
X146801074Y-39408297D01*
X146780250Y-39403081D01*
X146760038Y-39395849D01*
X146740632Y-39386670D01*
X146722219Y-39375634D01*
X146704976Y-39362846D01*
X146689070Y-39348430D01*
X146674654Y-39332524D01*
X146661866Y-39315281D01*
X146650830Y-39296868D01*
X146641651Y-39277462D01*
X146634419Y-39257250D01*
X146629203Y-39236426D01*
X146626053Y-39215191D01*
X146625000Y-39193750D01*
X146625000Y-38756250D01*
X146626053Y-38734809D01*
X146629203Y-38713574D01*
X146634419Y-38692750D01*
X146641651Y-38672538D01*
X146650830Y-38653132D01*
X146661866Y-38634719D01*
X146674654Y-38617476D01*
X146689070Y-38601570D01*
X146704976Y-38587154D01*
X146722219Y-38574366D01*
X146740632Y-38563330D01*
X146760038Y-38554151D01*
X146780250Y-38546919D01*
X146801074Y-38541703D01*
X146822309Y-38538553D01*
X146843750Y-38537500D01*
X147356250Y-38537500D01*
X147377691Y-38538553D01*
X147377691Y-38538553D01*
G37*
D15*
X147100000Y-38975000D03*
D14*
G36*
X136952691Y-54126053D02*
G01*
X136973926Y-54129203D01*
X136994750Y-54134419D01*
X137014962Y-54141651D01*
X137034368Y-54150830D01*
X137052781Y-54161866D01*
X137070024Y-54174654D01*
X137085930Y-54189070D01*
X137100346Y-54204976D01*
X137113134Y-54222219D01*
X137124170Y-54240632D01*
X137133349Y-54260038D01*
X137140581Y-54280250D01*
X137145797Y-54301074D01*
X137148947Y-54322309D01*
X137150000Y-54343750D01*
X137150000Y-54856250D01*
X137148947Y-54877691D01*
X137145797Y-54898926D01*
X137140581Y-54919750D01*
X137133349Y-54939962D01*
X137124170Y-54959368D01*
X137113134Y-54977781D01*
X137100346Y-54995024D01*
X137085930Y-55010930D01*
X137070024Y-55025346D01*
X137052781Y-55038134D01*
X137034368Y-55049170D01*
X137014962Y-55058349D01*
X136994750Y-55065581D01*
X136973926Y-55070797D01*
X136952691Y-55073947D01*
X136931250Y-55075000D01*
X136493750Y-55075000D01*
X136472309Y-55073947D01*
X136451074Y-55070797D01*
X136430250Y-55065581D01*
X136410038Y-55058349D01*
X136390632Y-55049170D01*
X136372219Y-55038134D01*
X136354976Y-55025346D01*
X136339070Y-55010930D01*
X136324654Y-54995024D01*
X136311866Y-54977781D01*
X136300830Y-54959368D01*
X136291651Y-54939962D01*
X136284419Y-54919750D01*
X136279203Y-54898926D01*
X136276053Y-54877691D01*
X136275000Y-54856250D01*
X136275000Y-54343750D01*
X136276053Y-54322309D01*
X136279203Y-54301074D01*
X136284419Y-54280250D01*
X136291651Y-54260038D01*
X136300830Y-54240632D01*
X136311866Y-54222219D01*
X136324654Y-54204976D01*
X136339070Y-54189070D01*
X136354976Y-54174654D01*
X136372219Y-54161866D01*
X136390632Y-54150830D01*
X136410038Y-54141651D01*
X136430250Y-54134419D01*
X136451074Y-54129203D01*
X136472309Y-54126053D01*
X136493750Y-54125000D01*
X136931250Y-54125000D01*
X136952691Y-54126053D01*
X136952691Y-54126053D01*
G37*
D15*
X136712500Y-54600000D03*
D14*
G36*
X138527691Y-54126053D02*
G01*
X138548926Y-54129203D01*
X138569750Y-54134419D01*
X138589962Y-54141651D01*
X138609368Y-54150830D01*
X138627781Y-54161866D01*
X138645024Y-54174654D01*
X138660930Y-54189070D01*
X138675346Y-54204976D01*
X138688134Y-54222219D01*
X138699170Y-54240632D01*
X138708349Y-54260038D01*
X138715581Y-54280250D01*
X138720797Y-54301074D01*
X138723947Y-54322309D01*
X138725000Y-54343750D01*
X138725000Y-54856250D01*
X138723947Y-54877691D01*
X138720797Y-54898926D01*
X138715581Y-54919750D01*
X138708349Y-54939962D01*
X138699170Y-54959368D01*
X138688134Y-54977781D01*
X138675346Y-54995024D01*
X138660930Y-55010930D01*
X138645024Y-55025346D01*
X138627781Y-55038134D01*
X138609368Y-55049170D01*
X138589962Y-55058349D01*
X138569750Y-55065581D01*
X138548926Y-55070797D01*
X138527691Y-55073947D01*
X138506250Y-55075000D01*
X138068750Y-55075000D01*
X138047309Y-55073947D01*
X138026074Y-55070797D01*
X138005250Y-55065581D01*
X137985038Y-55058349D01*
X137965632Y-55049170D01*
X137947219Y-55038134D01*
X137929976Y-55025346D01*
X137914070Y-55010930D01*
X137899654Y-54995024D01*
X137886866Y-54977781D01*
X137875830Y-54959368D01*
X137866651Y-54939962D01*
X137859419Y-54919750D01*
X137854203Y-54898926D01*
X137851053Y-54877691D01*
X137850000Y-54856250D01*
X137850000Y-54343750D01*
X137851053Y-54322309D01*
X137854203Y-54301074D01*
X137859419Y-54280250D01*
X137866651Y-54260038D01*
X137875830Y-54240632D01*
X137886866Y-54222219D01*
X137899654Y-54204976D01*
X137914070Y-54189070D01*
X137929976Y-54174654D01*
X137947219Y-54161866D01*
X137965632Y-54150830D01*
X137985038Y-54141651D01*
X138005250Y-54134419D01*
X138026074Y-54129203D01*
X138047309Y-54126053D01*
X138068750Y-54125000D01*
X138506250Y-54125000D01*
X138527691Y-54126053D01*
X138527691Y-54126053D01*
G37*
D15*
X138287500Y-54600000D03*
D14*
G36*
X138477691Y-51076053D02*
G01*
X138498926Y-51079203D01*
X138519750Y-51084419D01*
X138539962Y-51091651D01*
X138559368Y-51100830D01*
X138577781Y-51111866D01*
X138595024Y-51124654D01*
X138610930Y-51139070D01*
X138625346Y-51154976D01*
X138638134Y-51172219D01*
X138649170Y-51190632D01*
X138658349Y-51210038D01*
X138665581Y-51230250D01*
X138670797Y-51251074D01*
X138673947Y-51272309D01*
X138675000Y-51293750D01*
X138675000Y-51731250D01*
X138673947Y-51752691D01*
X138670797Y-51773926D01*
X138665581Y-51794750D01*
X138658349Y-51814962D01*
X138649170Y-51834368D01*
X138638134Y-51852781D01*
X138625346Y-51870024D01*
X138610930Y-51885930D01*
X138595024Y-51900346D01*
X138577781Y-51913134D01*
X138559368Y-51924170D01*
X138539962Y-51933349D01*
X138519750Y-51940581D01*
X138498926Y-51945797D01*
X138477691Y-51948947D01*
X138456250Y-51950000D01*
X137943750Y-51950000D01*
X137922309Y-51948947D01*
X137901074Y-51945797D01*
X137880250Y-51940581D01*
X137860038Y-51933349D01*
X137840632Y-51924170D01*
X137822219Y-51913134D01*
X137804976Y-51900346D01*
X137789070Y-51885930D01*
X137774654Y-51870024D01*
X137761866Y-51852781D01*
X137750830Y-51834368D01*
X137741651Y-51814962D01*
X137734419Y-51794750D01*
X137729203Y-51773926D01*
X137726053Y-51752691D01*
X137725000Y-51731250D01*
X137725000Y-51293750D01*
X137726053Y-51272309D01*
X137729203Y-51251074D01*
X137734419Y-51230250D01*
X137741651Y-51210038D01*
X137750830Y-51190632D01*
X137761866Y-51172219D01*
X137774654Y-51154976D01*
X137789070Y-51139070D01*
X137804976Y-51124654D01*
X137822219Y-51111866D01*
X137840632Y-51100830D01*
X137860038Y-51091651D01*
X137880250Y-51084419D01*
X137901074Y-51079203D01*
X137922309Y-51076053D01*
X137943750Y-51075000D01*
X138456250Y-51075000D01*
X138477691Y-51076053D01*
X138477691Y-51076053D01*
G37*
D15*
X138200000Y-51512500D03*
D14*
G36*
X138477691Y-52651053D02*
G01*
X138498926Y-52654203D01*
X138519750Y-52659419D01*
X138539962Y-52666651D01*
X138559368Y-52675830D01*
X138577781Y-52686866D01*
X138595024Y-52699654D01*
X138610930Y-52714070D01*
X138625346Y-52729976D01*
X138638134Y-52747219D01*
X138649170Y-52765632D01*
X138658349Y-52785038D01*
X138665581Y-52805250D01*
X138670797Y-52826074D01*
X138673947Y-52847309D01*
X138675000Y-52868750D01*
X138675000Y-53306250D01*
X138673947Y-53327691D01*
X138670797Y-53348926D01*
X138665581Y-53369750D01*
X138658349Y-53389962D01*
X138649170Y-53409368D01*
X138638134Y-53427781D01*
X138625346Y-53445024D01*
X138610930Y-53460930D01*
X138595024Y-53475346D01*
X138577781Y-53488134D01*
X138559368Y-53499170D01*
X138539962Y-53508349D01*
X138519750Y-53515581D01*
X138498926Y-53520797D01*
X138477691Y-53523947D01*
X138456250Y-53525000D01*
X137943750Y-53525000D01*
X137922309Y-53523947D01*
X137901074Y-53520797D01*
X137880250Y-53515581D01*
X137860038Y-53508349D01*
X137840632Y-53499170D01*
X137822219Y-53488134D01*
X137804976Y-53475346D01*
X137789070Y-53460930D01*
X137774654Y-53445024D01*
X137761866Y-53427781D01*
X137750830Y-53409368D01*
X137741651Y-53389962D01*
X137734419Y-53369750D01*
X137729203Y-53348926D01*
X137726053Y-53327691D01*
X137725000Y-53306250D01*
X137725000Y-52868750D01*
X137726053Y-52847309D01*
X137729203Y-52826074D01*
X137734419Y-52805250D01*
X137741651Y-52785038D01*
X137750830Y-52765632D01*
X137761866Y-52747219D01*
X137774654Y-52729976D01*
X137789070Y-52714070D01*
X137804976Y-52699654D01*
X137822219Y-52686866D01*
X137840632Y-52675830D01*
X137860038Y-52666651D01*
X137880250Y-52659419D01*
X137901074Y-52654203D01*
X137922309Y-52651053D01*
X137943750Y-52650000D01*
X138456250Y-52650000D01*
X138477691Y-52651053D01*
X138477691Y-52651053D01*
G37*
D15*
X138200000Y-53087500D03*
D14*
G36*
X136952691Y-60226053D02*
G01*
X136973926Y-60229203D01*
X136994750Y-60234419D01*
X137014962Y-60241651D01*
X137034368Y-60250830D01*
X137052781Y-60261866D01*
X137070024Y-60274654D01*
X137085930Y-60289070D01*
X137100346Y-60304976D01*
X137113134Y-60322219D01*
X137124170Y-60340632D01*
X137133349Y-60360038D01*
X137140581Y-60380250D01*
X137145797Y-60401074D01*
X137148947Y-60422309D01*
X137150000Y-60443750D01*
X137150000Y-60956250D01*
X137148947Y-60977691D01*
X137145797Y-60998926D01*
X137140581Y-61019750D01*
X137133349Y-61039962D01*
X137124170Y-61059368D01*
X137113134Y-61077781D01*
X137100346Y-61095024D01*
X137085930Y-61110930D01*
X137070024Y-61125346D01*
X137052781Y-61138134D01*
X137034368Y-61149170D01*
X137014962Y-61158349D01*
X136994750Y-61165581D01*
X136973926Y-61170797D01*
X136952691Y-61173947D01*
X136931250Y-61175000D01*
X136493750Y-61175000D01*
X136472309Y-61173947D01*
X136451074Y-61170797D01*
X136430250Y-61165581D01*
X136410038Y-61158349D01*
X136390632Y-61149170D01*
X136372219Y-61138134D01*
X136354976Y-61125346D01*
X136339070Y-61110930D01*
X136324654Y-61095024D01*
X136311866Y-61077781D01*
X136300830Y-61059368D01*
X136291651Y-61039962D01*
X136284419Y-61019750D01*
X136279203Y-60998926D01*
X136276053Y-60977691D01*
X136275000Y-60956250D01*
X136275000Y-60443750D01*
X136276053Y-60422309D01*
X136279203Y-60401074D01*
X136284419Y-60380250D01*
X136291651Y-60360038D01*
X136300830Y-60340632D01*
X136311866Y-60322219D01*
X136324654Y-60304976D01*
X136339070Y-60289070D01*
X136354976Y-60274654D01*
X136372219Y-60261866D01*
X136390632Y-60250830D01*
X136410038Y-60241651D01*
X136430250Y-60234419D01*
X136451074Y-60229203D01*
X136472309Y-60226053D01*
X136493750Y-60225000D01*
X136931250Y-60225000D01*
X136952691Y-60226053D01*
X136952691Y-60226053D01*
G37*
D15*
X136712500Y-60700000D03*
D14*
G36*
X138527691Y-60226053D02*
G01*
X138548926Y-60229203D01*
X138569750Y-60234419D01*
X138589962Y-60241651D01*
X138609368Y-60250830D01*
X138627781Y-60261866D01*
X138645024Y-60274654D01*
X138660930Y-60289070D01*
X138675346Y-60304976D01*
X138688134Y-60322219D01*
X138699170Y-60340632D01*
X138708349Y-60360038D01*
X138715581Y-60380250D01*
X138720797Y-60401074D01*
X138723947Y-60422309D01*
X138725000Y-60443750D01*
X138725000Y-60956250D01*
X138723947Y-60977691D01*
X138720797Y-60998926D01*
X138715581Y-61019750D01*
X138708349Y-61039962D01*
X138699170Y-61059368D01*
X138688134Y-61077781D01*
X138675346Y-61095024D01*
X138660930Y-61110930D01*
X138645024Y-61125346D01*
X138627781Y-61138134D01*
X138609368Y-61149170D01*
X138589962Y-61158349D01*
X138569750Y-61165581D01*
X138548926Y-61170797D01*
X138527691Y-61173947D01*
X138506250Y-61175000D01*
X138068750Y-61175000D01*
X138047309Y-61173947D01*
X138026074Y-61170797D01*
X138005250Y-61165581D01*
X137985038Y-61158349D01*
X137965632Y-61149170D01*
X137947219Y-61138134D01*
X137929976Y-61125346D01*
X137914070Y-61110930D01*
X137899654Y-61095024D01*
X137886866Y-61077781D01*
X137875830Y-61059368D01*
X137866651Y-61039962D01*
X137859419Y-61019750D01*
X137854203Y-60998926D01*
X137851053Y-60977691D01*
X137850000Y-60956250D01*
X137850000Y-60443750D01*
X137851053Y-60422309D01*
X137854203Y-60401074D01*
X137859419Y-60380250D01*
X137866651Y-60360038D01*
X137875830Y-60340632D01*
X137886866Y-60322219D01*
X137899654Y-60304976D01*
X137914070Y-60289070D01*
X137929976Y-60274654D01*
X137947219Y-60261866D01*
X137965632Y-60250830D01*
X137985038Y-60241651D01*
X138005250Y-60234419D01*
X138026074Y-60229203D01*
X138047309Y-60226053D01*
X138068750Y-60225000D01*
X138506250Y-60225000D01*
X138527691Y-60226053D01*
X138527691Y-60226053D01*
G37*
D15*
X138287500Y-60700000D03*
D14*
G36*
X157727691Y-41926053D02*
G01*
X157748926Y-41929203D01*
X157769750Y-41934419D01*
X157789962Y-41941651D01*
X157809368Y-41950830D01*
X157827781Y-41961866D01*
X157845024Y-41974654D01*
X157860930Y-41989070D01*
X157875346Y-42004976D01*
X157888134Y-42022219D01*
X157899170Y-42040632D01*
X157908349Y-42060038D01*
X157915581Y-42080250D01*
X157920797Y-42101074D01*
X157923947Y-42122309D01*
X157925000Y-42143750D01*
X157925000Y-42656250D01*
X157923947Y-42677691D01*
X157920797Y-42698926D01*
X157915581Y-42719750D01*
X157908349Y-42739962D01*
X157899170Y-42759368D01*
X157888134Y-42777781D01*
X157875346Y-42795024D01*
X157860930Y-42810930D01*
X157845024Y-42825346D01*
X157827781Y-42838134D01*
X157809368Y-42849170D01*
X157789962Y-42858349D01*
X157769750Y-42865581D01*
X157748926Y-42870797D01*
X157727691Y-42873947D01*
X157706250Y-42875000D01*
X157268750Y-42875000D01*
X157247309Y-42873947D01*
X157226074Y-42870797D01*
X157205250Y-42865581D01*
X157185038Y-42858349D01*
X157165632Y-42849170D01*
X157147219Y-42838134D01*
X157129976Y-42825346D01*
X157114070Y-42810930D01*
X157099654Y-42795024D01*
X157086866Y-42777781D01*
X157075830Y-42759368D01*
X157066651Y-42739962D01*
X157059419Y-42719750D01*
X157054203Y-42698926D01*
X157051053Y-42677691D01*
X157050000Y-42656250D01*
X157050000Y-42143750D01*
X157051053Y-42122309D01*
X157054203Y-42101074D01*
X157059419Y-42080250D01*
X157066651Y-42060038D01*
X157075830Y-42040632D01*
X157086866Y-42022219D01*
X157099654Y-42004976D01*
X157114070Y-41989070D01*
X157129976Y-41974654D01*
X157147219Y-41961866D01*
X157165632Y-41950830D01*
X157185038Y-41941651D01*
X157205250Y-41934419D01*
X157226074Y-41929203D01*
X157247309Y-41926053D01*
X157268750Y-41925000D01*
X157706250Y-41925000D01*
X157727691Y-41926053D01*
X157727691Y-41926053D01*
G37*
D15*
X157487500Y-42400000D03*
D14*
G36*
X156152691Y-41926053D02*
G01*
X156173926Y-41929203D01*
X156194750Y-41934419D01*
X156214962Y-41941651D01*
X156234368Y-41950830D01*
X156252781Y-41961866D01*
X156270024Y-41974654D01*
X156285930Y-41989070D01*
X156300346Y-42004976D01*
X156313134Y-42022219D01*
X156324170Y-42040632D01*
X156333349Y-42060038D01*
X156340581Y-42080250D01*
X156345797Y-42101074D01*
X156348947Y-42122309D01*
X156350000Y-42143750D01*
X156350000Y-42656250D01*
X156348947Y-42677691D01*
X156345797Y-42698926D01*
X156340581Y-42719750D01*
X156333349Y-42739962D01*
X156324170Y-42759368D01*
X156313134Y-42777781D01*
X156300346Y-42795024D01*
X156285930Y-42810930D01*
X156270024Y-42825346D01*
X156252781Y-42838134D01*
X156234368Y-42849170D01*
X156214962Y-42858349D01*
X156194750Y-42865581D01*
X156173926Y-42870797D01*
X156152691Y-42873947D01*
X156131250Y-42875000D01*
X155693750Y-42875000D01*
X155672309Y-42873947D01*
X155651074Y-42870797D01*
X155630250Y-42865581D01*
X155610038Y-42858349D01*
X155590632Y-42849170D01*
X155572219Y-42838134D01*
X155554976Y-42825346D01*
X155539070Y-42810930D01*
X155524654Y-42795024D01*
X155511866Y-42777781D01*
X155500830Y-42759368D01*
X155491651Y-42739962D01*
X155484419Y-42719750D01*
X155479203Y-42698926D01*
X155476053Y-42677691D01*
X155475000Y-42656250D01*
X155475000Y-42143750D01*
X155476053Y-42122309D01*
X155479203Y-42101074D01*
X155484419Y-42080250D01*
X155491651Y-42060038D01*
X155500830Y-42040632D01*
X155511866Y-42022219D01*
X155524654Y-42004976D01*
X155539070Y-41989070D01*
X155554976Y-41974654D01*
X155572219Y-41961866D01*
X155590632Y-41950830D01*
X155610038Y-41941651D01*
X155630250Y-41934419D01*
X155651074Y-41929203D01*
X155672309Y-41926053D01*
X155693750Y-41925000D01*
X156131250Y-41925000D01*
X156152691Y-41926053D01*
X156152691Y-41926053D01*
G37*
D15*
X155912500Y-42400000D03*
D14*
G36*
X136952691Y-49226053D02*
G01*
X136973926Y-49229203D01*
X136994750Y-49234419D01*
X137014962Y-49241651D01*
X137034368Y-49250830D01*
X137052781Y-49261866D01*
X137070024Y-49274654D01*
X137085930Y-49289070D01*
X137100346Y-49304976D01*
X137113134Y-49322219D01*
X137124170Y-49340632D01*
X137133349Y-49360038D01*
X137140581Y-49380250D01*
X137145797Y-49401074D01*
X137148947Y-49422309D01*
X137150000Y-49443750D01*
X137150000Y-49956250D01*
X137148947Y-49977691D01*
X137145797Y-49998926D01*
X137140581Y-50019750D01*
X137133349Y-50039962D01*
X137124170Y-50059368D01*
X137113134Y-50077781D01*
X137100346Y-50095024D01*
X137085930Y-50110930D01*
X137070024Y-50125346D01*
X137052781Y-50138134D01*
X137034368Y-50149170D01*
X137014962Y-50158349D01*
X136994750Y-50165581D01*
X136973926Y-50170797D01*
X136952691Y-50173947D01*
X136931250Y-50175000D01*
X136493750Y-50175000D01*
X136472309Y-50173947D01*
X136451074Y-50170797D01*
X136430250Y-50165581D01*
X136410038Y-50158349D01*
X136390632Y-50149170D01*
X136372219Y-50138134D01*
X136354976Y-50125346D01*
X136339070Y-50110930D01*
X136324654Y-50095024D01*
X136311866Y-50077781D01*
X136300830Y-50059368D01*
X136291651Y-50039962D01*
X136284419Y-50019750D01*
X136279203Y-49998926D01*
X136276053Y-49977691D01*
X136275000Y-49956250D01*
X136275000Y-49443750D01*
X136276053Y-49422309D01*
X136279203Y-49401074D01*
X136284419Y-49380250D01*
X136291651Y-49360038D01*
X136300830Y-49340632D01*
X136311866Y-49322219D01*
X136324654Y-49304976D01*
X136339070Y-49289070D01*
X136354976Y-49274654D01*
X136372219Y-49261866D01*
X136390632Y-49250830D01*
X136410038Y-49241651D01*
X136430250Y-49234419D01*
X136451074Y-49229203D01*
X136472309Y-49226053D01*
X136493750Y-49225000D01*
X136931250Y-49225000D01*
X136952691Y-49226053D01*
X136952691Y-49226053D01*
G37*
D15*
X136712500Y-49700000D03*
D14*
G36*
X138527691Y-49226053D02*
G01*
X138548926Y-49229203D01*
X138569750Y-49234419D01*
X138589962Y-49241651D01*
X138609368Y-49250830D01*
X138627781Y-49261866D01*
X138645024Y-49274654D01*
X138660930Y-49289070D01*
X138675346Y-49304976D01*
X138688134Y-49322219D01*
X138699170Y-49340632D01*
X138708349Y-49360038D01*
X138715581Y-49380250D01*
X138720797Y-49401074D01*
X138723947Y-49422309D01*
X138725000Y-49443750D01*
X138725000Y-49956250D01*
X138723947Y-49977691D01*
X138720797Y-49998926D01*
X138715581Y-50019750D01*
X138708349Y-50039962D01*
X138699170Y-50059368D01*
X138688134Y-50077781D01*
X138675346Y-50095024D01*
X138660930Y-50110930D01*
X138645024Y-50125346D01*
X138627781Y-50138134D01*
X138609368Y-50149170D01*
X138589962Y-50158349D01*
X138569750Y-50165581D01*
X138548926Y-50170797D01*
X138527691Y-50173947D01*
X138506250Y-50175000D01*
X138068750Y-50175000D01*
X138047309Y-50173947D01*
X138026074Y-50170797D01*
X138005250Y-50165581D01*
X137985038Y-50158349D01*
X137965632Y-50149170D01*
X137947219Y-50138134D01*
X137929976Y-50125346D01*
X137914070Y-50110930D01*
X137899654Y-50095024D01*
X137886866Y-50077781D01*
X137875830Y-50059368D01*
X137866651Y-50039962D01*
X137859419Y-50019750D01*
X137854203Y-49998926D01*
X137851053Y-49977691D01*
X137850000Y-49956250D01*
X137850000Y-49443750D01*
X137851053Y-49422309D01*
X137854203Y-49401074D01*
X137859419Y-49380250D01*
X137866651Y-49360038D01*
X137875830Y-49340632D01*
X137886866Y-49322219D01*
X137899654Y-49304976D01*
X137914070Y-49289070D01*
X137929976Y-49274654D01*
X137947219Y-49261866D01*
X137965632Y-49250830D01*
X137985038Y-49241651D01*
X138005250Y-49234419D01*
X138026074Y-49229203D01*
X138047309Y-49226053D01*
X138068750Y-49225000D01*
X138506250Y-49225000D01*
X138527691Y-49226053D01*
X138527691Y-49226053D01*
G37*
D15*
X138287500Y-49700000D03*
D24*
X148565001Y-40350000D03*
X148565001Y-41650000D03*
X150565001Y-41000000D03*
M02*
