%TF.GenerationSoftware,KiCad,Pcbnew,7.0.3-24-g09febce4ce*%
%TF.CreationDate,2023-05-24T02:24:57-07:00*%
%TF.ProjectId,t962,74393632-2e6b-4696-9361-645f70636258,2.0*%
%TF.SameCoordinates,Original*%
%TF.FileFunction,Drillmap*%
%TF.FilePolarity,Positive*%
%FSLAX45Y45*%
G04 Gerber Fmt 4.5, Leading zero omitted, Abs format (unit mm)*
G04 Created by KiCad (PCBNEW 7.0.3-24-g09febce4ce) date 2023-05-24 02:24:57*
%MOMM*%
%LPD*%
G01*
G04 APERTURE LIST*
%ADD10C,0.150000*%
%ADD11C,0.200000*%
%ADD12C,0.065000*%
%ADD13C,0.120000*%
G04 APERTURE END LIST*
D10*
X16790000Y-7610000D02*
X16380000Y-7610000D01*
X16790000Y-3110000D02*
X16790000Y-7610000D01*
X12790000Y-7610000D02*
X16380000Y-7610000D01*
X12790000Y-3110000D02*
X12790000Y-7610000D01*
X16790000Y-3110000D02*
X12790000Y-3110000D01*
D11*
D12*
X16229500Y-4998500D02*
X16294500Y-5063500D01*
X16294500Y-4998500D02*
X16229500Y-5063500D01*
X16229500Y-5576500D02*
X16294500Y-5641500D01*
X16294500Y-5576500D02*
X16229500Y-5641500D01*
D13*
X13040000Y-3280000D02*
G75*
G03*
X13040000Y-3280000I-60000J0D01*
G01*
X15450000Y-6030000D02*
G75*
G03*
X15450000Y-6030000I-60000J0D01*
G01*
X16710000Y-4150000D02*
G75*
G03*
X16710000Y-4150000I-60000J0D01*
G01*
D11*
X13043277Y-7928984D02*
X13043277Y-7728984D01*
X13043277Y-7728984D02*
X13090896Y-7728984D01*
X13090896Y-7728984D02*
X13119467Y-7738508D01*
X13119467Y-7738508D02*
X13138515Y-7757555D01*
X13138515Y-7757555D02*
X13148039Y-7776603D01*
X13148039Y-7776603D02*
X13157562Y-7814698D01*
X13157562Y-7814698D02*
X13157562Y-7843269D01*
X13157562Y-7843269D02*
X13148039Y-7881365D01*
X13148039Y-7881365D02*
X13138515Y-7900412D01*
X13138515Y-7900412D02*
X13119467Y-7919460D01*
X13119467Y-7919460D02*
X13090896Y-7928984D01*
X13090896Y-7928984D02*
X13043277Y-7928984D01*
X13243277Y-7928984D02*
X13243277Y-7795650D01*
X13243277Y-7833746D02*
X13252801Y-7814698D01*
X13252801Y-7814698D02*
X13262324Y-7805174D01*
X13262324Y-7805174D02*
X13281372Y-7795650D01*
X13281372Y-7795650D02*
X13300420Y-7795650D01*
X13367086Y-7928984D02*
X13367086Y-7795650D01*
X13367086Y-7728984D02*
X13357562Y-7738508D01*
X13357562Y-7738508D02*
X13367086Y-7748031D01*
X13367086Y-7748031D02*
X13376610Y-7738508D01*
X13376610Y-7738508D02*
X13367086Y-7728984D01*
X13367086Y-7728984D02*
X13367086Y-7748031D01*
X13490896Y-7928984D02*
X13471848Y-7919460D01*
X13471848Y-7919460D02*
X13462324Y-7900412D01*
X13462324Y-7900412D02*
X13462324Y-7728984D01*
X13595658Y-7928984D02*
X13576610Y-7919460D01*
X13576610Y-7919460D02*
X13567086Y-7900412D01*
X13567086Y-7900412D02*
X13567086Y-7728984D01*
X13824229Y-7928984D02*
X13824229Y-7728984D01*
X13824229Y-7728984D02*
X13890896Y-7871841D01*
X13890896Y-7871841D02*
X13957562Y-7728984D01*
X13957562Y-7728984D02*
X13957562Y-7928984D01*
X14138515Y-7928984D02*
X14138515Y-7824222D01*
X14138515Y-7824222D02*
X14128991Y-7805174D01*
X14128991Y-7805174D02*
X14109943Y-7795650D01*
X14109943Y-7795650D02*
X14071848Y-7795650D01*
X14071848Y-7795650D02*
X14052801Y-7805174D01*
X14138515Y-7919460D02*
X14119467Y-7928984D01*
X14119467Y-7928984D02*
X14071848Y-7928984D01*
X14071848Y-7928984D02*
X14052801Y-7919460D01*
X14052801Y-7919460D02*
X14043277Y-7900412D01*
X14043277Y-7900412D02*
X14043277Y-7881365D01*
X14043277Y-7881365D02*
X14052801Y-7862317D01*
X14052801Y-7862317D02*
X14071848Y-7852793D01*
X14071848Y-7852793D02*
X14119467Y-7852793D01*
X14119467Y-7852793D02*
X14138515Y-7843269D01*
X14233753Y-7795650D02*
X14233753Y-7995650D01*
X14233753Y-7805174D02*
X14252801Y-7795650D01*
X14252801Y-7795650D02*
X14290896Y-7795650D01*
X14290896Y-7795650D02*
X14309943Y-7805174D01*
X14309943Y-7805174D02*
X14319467Y-7814698D01*
X14319467Y-7814698D02*
X14328991Y-7833746D01*
X14328991Y-7833746D02*
X14328991Y-7890888D01*
X14328991Y-7890888D02*
X14319467Y-7909936D01*
X14319467Y-7909936D02*
X14309943Y-7919460D01*
X14309943Y-7919460D02*
X14290896Y-7928984D01*
X14290896Y-7928984D02*
X14252801Y-7928984D01*
X14252801Y-7928984D02*
X14233753Y-7919460D01*
X14414705Y-7909936D02*
X14424229Y-7919460D01*
X14424229Y-7919460D02*
X14414705Y-7928984D01*
X14414705Y-7928984D02*
X14405182Y-7919460D01*
X14405182Y-7919460D02*
X14414705Y-7909936D01*
X14414705Y-7909936D02*
X14414705Y-7928984D01*
X14414705Y-7805174D02*
X14424229Y-7814698D01*
X14424229Y-7814698D02*
X14414705Y-7824222D01*
X14414705Y-7824222D02*
X14405182Y-7814698D01*
X14405182Y-7814698D02*
X14414705Y-7805174D01*
X14414705Y-7805174D02*
X14414705Y-7824222D01*
D12*
X12717500Y-8225000D02*
X12782500Y-8290000D01*
X12782500Y-8225000D02*
X12717500Y-8290000D01*
D11*
X13081372Y-8148984D02*
X13100420Y-8148984D01*
X13100420Y-8148984D02*
X13119467Y-8158508D01*
X13119467Y-8158508D02*
X13128991Y-8168031D01*
X13128991Y-8168031D02*
X13138515Y-8187079D01*
X13138515Y-8187079D02*
X13148039Y-8225174D01*
X13148039Y-8225174D02*
X13148039Y-8272793D01*
X13148039Y-8272793D02*
X13138515Y-8310888D01*
X13138515Y-8310888D02*
X13128991Y-8329936D01*
X13128991Y-8329936D02*
X13119467Y-8339460D01*
X13119467Y-8339460D02*
X13100420Y-8348984D01*
X13100420Y-8348984D02*
X13081372Y-8348984D01*
X13081372Y-8348984D02*
X13062324Y-8339460D01*
X13062324Y-8339460D02*
X13052801Y-8329936D01*
X13052801Y-8329936D02*
X13043277Y-8310888D01*
X13043277Y-8310888D02*
X13033753Y-8272793D01*
X13033753Y-8272793D02*
X13033753Y-8225174D01*
X13033753Y-8225174D02*
X13043277Y-8187079D01*
X13043277Y-8187079D02*
X13052801Y-8168031D01*
X13052801Y-8168031D02*
X13062324Y-8158508D01*
X13062324Y-8158508D02*
X13081372Y-8148984D01*
X13233753Y-8329936D02*
X13243277Y-8339460D01*
X13243277Y-8339460D02*
X13233753Y-8348984D01*
X13233753Y-8348984D02*
X13224229Y-8339460D01*
X13224229Y-8339460D02*
X13233753Y-8329936D01*
X13233753Y-8329936D02*
X13233753Y-8348984D01*
X13414705Y-8148984D02*
X13376610Y-8148984D01*
X13376610Y-8148984D02*
X13357562Y-8158508D01*
X13357562Y-8158508D02*
X13348039Y-8168031D01*
X13348039Y-8168031D02*
X13328991Y-8196603D01*
X13328991Y-8196603D02*
X13319467Y-8234698D01*
X13319467Y-8234698D02*
X13319467Y-8310888D01*
X13319467Y-8310888D02*
X13328991Y-8329936D01*
X13328991Y-8329936D02*
X13338515Y-8339460D01*
X13338515Y-8339460D02*
X13357562Y-8348984D01*
X13357562Y-8348984D02*
X13395658Y-8348984D01*
X13395658Y-8348984D02*
X13414705Y-8339460D01*
X13414705Y-8339460D02*
X13424229Y-8329936D01*
X13424229Y-8329936D02*
X13433753Y-8310888D01*
X13433753Y-8310888D02*
X13433753Y-8263269D01*
X13433753Y-8263269D02*
X13424229Y-8244222D01*
X13424229Y-8244222D02*
X13414705Y-8234698D01*
X13414705Y-8234698D02*
X13395658Y-8225174D01*
X13395658Y-8225174D02*
X13357562Y-8225174D01*
X13357562Y-8225174D02*
X13338515Y-8234698D01*
X13338515Y-8234698D02*
X13328991Y-8244222D01*
X13328991Y-8244222D02*
X13319467Y-8263269D01*
X13614705Y-8148984D02*
X13519467Y-8148984D01*
X13519467Y-8148984D02*
X13509943Y-8244222D01*
X13509943Y-8244222D02*
X13519467Y-8234698D01*
X13519467Y-8234698D02*
X13538515Y-8225174D01*
X13538515Y-8225174D02*
X13586134Y-8225174D01*
X13586134Y-8225174D02*
X13605182Y-8234698D01*
X13605182Y-8234698D02*
X13614705Y-8244222D01*
X13614705Y-8244222D02*
X13624229Y-8263269D01*
X13624229Y-8263269D02*
X13624229Y-8310888D01*
X13624229Y-8310888D02*
X13614705Y-8329936D01*
X13614705Y-8329936D02*
X13605182Y-8339460D01*
X13605182Y-8339460D02*
X13586134Y-8348984D01*
X13586134Y-8348984D02*
X13538515Y-8348984D01*
X13538515Y-8348984D02*
X13519467Y-8339460D01*
X13519467Y-8339460D02*
X13509943Y-8329936D01*
X13748039Y-8148984D02*
X13767086Y-8148984D01*
X13767086Y-8148984D02*
X13786134Y-8158508D01*
X13786134Y-8158508D02*
X13795658Y-8168031D01*
X13795658Y-8168031D02*
X13805182Y-8187079D01*
X13805182Y-8187079D02*
X13814705Y-8225174D01*
X13814705Y-8225174D02*
X13814705Y-8272793D01*
X13814705Y-8272793D02*
X13805182Y-8310888D01*
X13805182Y-8310888D02*
X13795658Y-8329936D01*
X13795658Y-8329936D02*
X13786134Y-8339460D01*
X13786134Y-8339460D02*
X13767086Y-8348984D01*
X13767086Y-8348984D02*
X13748039Y-8348984D01*
X13748039Y-8348984D02*
X13728991Y-8339460D01*
X13728991Y-8339460D02*
X13719467Y-8329936D01*
X13719467Y-8329936D02*
X13709943Y-8310888D01*
X13709943Y-8310888D02*
X13700420Y-8272793D01*
X13700420Y-8272793D02*
X13700420Y-8225174D01*
X13700420Y-8225174D02*
X13709943Y-8187079D01*
X13709943Y-8187079D02*
X13719467Y-8168031D01*
X13719467Y-8168031D02*
X13728991Y-8158508D01*
X13728991Y-8158508D02*
X13748039Y-8148984D01*
X13900420Y-8348984D02*
X13900420Y-8215650D01*
X13900420Y-8234698D02*
X13909943Y-8225174D01*
X13909943Y-8225174D02*
X13928991Y-8215650D01*
X13928991Y-8215650D02*
X13957563Y-8215650D01*
X13957563Y-8215650D02*
X13976610Y-8225174D01*
X13976610Y-8225174D02*
X13986134Y-8244222D01*
X13986134Y-8244222D02*
X13986134Y-8348984D01*
X13986134Y-8244222D02*
X13995658Y-8225174D01*
X13995658Y-8225174D02*
X14014705Y-8215650D01*
X14014705Y-8215650D02*
X14043277Y-8215650D01*
X14043277Y-8215650D02*
X14062324Y-8225174D01*
X14062324Y-8225174D02*
X14071848Y-8244222D01*
X14071848Y-8244222D02*
X14071848Y-8348984D01*
X14167086Y-8348984D02*
X14167086Y-8215650D01*
X14167086Y-8234698D02*
X14176610Y-8225174D01*
X14176610Y-8225174D02*
X14195658Y-8215650D01*
X14195658Y-8215650D02*
X14224229Y-8215650D01*
X14224229Y-8215650D02*
X14243277Y-8225174D01*
X14243277Y-8225174D02*
X14252801Y-8244222D01*
X14252801Y-8244222D02*
X14252801Y-8348984D01*
X14252801Y-8244222D02*
X14262324Y-8225174D01*
X14262324Y-8225174D02*
X14281372Y-8215650D01*
X14281372Y-8215650D02*
X14309943Y-8215650D01*
X14309943Y-8215650D02*
X14328991Y-8225174D01*
X14328991Y-8225174D02*
X14338515Y-8244222D01*
X14338515Y-8244222D02*
X14338515Y-8348984D01*
X14728991Y-8139460D02*
X14557563Y-8396603D01*
X14986134Y-8148984D02*
X15005182Y-8148984D01*
X15005182Y-8148984D02*
X15024229Y-8158508D01*
X15024229Y-8158508D02*
X15033753Y-8168031D01*
X15033753Y-8168031D02*
X15043277Y-8187079D01*
X15043277Y-8187079D02*
X15052801Y-8225174D01*
X15052801Y-8225174D02*
X15052801Y-8272793D01*
X15052801Y-8272793D02*
X15043277Y-8310888D01*
X15043277Y-8310888D02*
X15033753Y-8329936D01*
X15033753Y-8329936D02*
X15024229Y-8339460D01*
X15024229Y-8339460D02*
X15005182Y-8348984D01*
X15005182Y-8348984D02*
X14986134Y-8348984D01*
X14986134Y-8348984D02*
X14967086Y-8339460D01*
X14967086Y-8339460D02*
X14957563Y-8329936D01*
X14957563Y-8329936D02*
X14948039Y-8310888D01*
X14948039Y-8310888D02*
X14938515Y-8272793D01*
X14938515Y-8272793D02*
X14938515Y-8225174D01*
X14938515Y-8225174D02*
X14948039Y-8187079D01*
X14948039Y-8187079D02*
X14957563Y-8168031D01*
X14957563Y-8168031D02*
X14967086Y-8158508D01*
X14967086Y-8158508D02*
X14986134Y-8148984D01*
X15138515Y-8329936D02*
X15148039Y-8339460D01*
X15148039Y-8339460D02*
X15138515Y-8348984D01*
X15138515Y-8348984D02*
X15128991Y-8339460D01*
X15128991Y-8339460D02*
X15138515Y-8329936D01*
X15138515Y-8329936D02*
X15138515Y-8348984D01*
X15271848Y-8148984D02*
X15290896Y-8148984D01*
X15290896Y-8148984D02*
X15309944Y-8158508D01*
X15309944Y-8158508D02*
X15319467Y-8168031D01*
X15319467Y-8168031D02*
X15328991Y-8187079D01*
X15328991Y-8187079D02*
X15338515Y-8225174D01*
X15338515Y-8225174D02*
X15338515Y-8272793D01*
X15338515Y-8272793D02*
X15328991Y-8310888D01*
X15328991Y-8310888D02*
X15319467Y-8329936D01*
X15319467Y-8329936D02*
X15309944Y-8339460D01*
X15309944Y-8339460D02*
X15290896Y-8348984D01*
X15290896Y-8348984D02*
X15271848Y-8348984D01*
X15271848Y-8348984D02*
X15252801Y-8339460D01*
X15252801Y-8339460D02*
X15243277Y-8329936D01*
X15243277Y-8329936D02*
X15233753Y-8310888D01*
X15233753Y-8310888D02*
X15224229Y-8272793D01*
X15224229Y-8272793D02*
X15224229Y-8225174D01*
X15224229Y-8225174D02*
X15233753Y-8187079D01*
X15233753Y-8187079D02*
X15243277Y-8168031D01*
X15243277Y-8168031D02*
X15252801Y-8158508D01*
X15252801Y-8158508D02*
X15271848Y-8148984D01*
X15414706Y-8168031D02*
X15424229Y-8158508D01*
X15424229Y-8158508D02*
X15443277Y-8148984D01*
X15443277Y-8148984D02*
X15490896Y-8148984D01*
X15490896Y-8148984D02*
X15509944Y-8158508D01*
X15509944Y-8158508D02*
X15519467Y-8168031D01*
X15519467Y-8168031D02*
X15528991Y-8187079D01*
X15528991Y-8187079D02*
X15528991Y-8206127D01*
X15528991Y-8206127D02*
X15519467Y-8234698D01*
X15519467Y-8234698D02*
X15405182Y-8348984D01*
X15405182Y-8348984D02*
X15528991Y-8348984D01*
X15709944Y-8148984D02*
X15614706Y-8148984D01*
X15614706Y-8148984D02*
X15605182Y-8244222D01*
X15605182Y-8244222D02*
X15614706Y-8234698D01*
X15614706Y-8234698D02*
X15633753Y-8225174D01*
X15633753Y-8225174D02*
X15681372Y-8225174D01*
X15681372Y-8225174D02*
X15700420Y-8234698D01*
X15700420Y-8234698D02*
X15709944Y-8244222D01*
X15709944Y-8244222D02*
X15719467Y-8263269D01*
X15719467Y-8263269D02*
X15719467Y-8310888D01*
X15719467Y-8310888D02*
X15709944Y-8329936D01*
X15709944Y-8329936D02*
X15700420Y-8339460D01*
X15700420Y-8339460D02*
X15681372Y-8348984D01*
X15681372Y-8348984D02*
X15633753Y-8348984D01*
X15633753Y-8348984D02*
X15614706Y-8339460D01*
X15614706Y-8339460D02*
X15605182Y-8329936D01*
X15890896Y-8148984D02*
X15852801Y-8148984D01*
X15852801Y-8148984D02*
X15833753Y-8158508D01*
X15833753Y-8158508D02*
X15824229Y-8168031D01*
X15824229Y-8168031D02*
X15805182Y-8196603D01*
X15805182Y-8196603D02*
X15795658Y-8234698D01*
X15795658Y-8234698D02*
X15795658Y-8310888D01*
X15795658Y-8310888D02*
X15805182Y-8329936D01*
X15805182Y-8329936D02*
X15814706Y-8339460D01*
X15814706Y-8339460D02*
X15833753Y-8348984D01*
X15833753Y-8348984D02*
X15871848Y-8348984D01*
X15871848Y-8348984D02*
X15890896Y-8339460D01*
X15890896Y-8339460D02*
X15900420Y-8329936D01*
X15900420Y-8329936D02*
X15909944Y-8310888D01*
X15909944Y-8310888D02*
X15909944Y-8263269D01*
X15909944Y-8263269D02*
X15900420Y-8244222D01*
X15900420Y-8244222D02*
X15890896Y-8234698D01*
X15890896Y-8234698D02*
X15871848Y-8225174D01*
X15871848Y-8225174D02*
X15833753Y-8225174D01*
X15833753Y-8225174D02*
X15814706Y-8234698D01*
X15814706Y-8234698D02*
X15805182Y-8244222D01*
X15805182Y-8244222D02*
X15795658Y-8263269D01*
X15986134Y-8148984D02*
X15986134Y-8187079D01*
X16062325Y-8148984D02*
X16062325Y-8187079D01*
X16357563Y-8425174D02*
X16348039Y-8415650D01*
X16348039Y-8415650D02*
X16328991Y-8387079D01*
X16328991Y-8387079D02*
X16319468Y-8368031D01*
X16319468Y-8368031D02*
X16309944Y-8339460D01*
X16309944Y-8339460D02*
X16300420Y-8291841D01*
X16300420Y-8291841D02*
X16300420Y-8253746D01*
X16300420Y-8253746D02*
X16309944Y-8206127D01*
X16309944Y-8206127D02*
X16319468Y-8177555D01*
X16319468Y-8177555D02*
X16328991Y-8158508D01*
X16328991Y-8158508D02*
X16348039Y-8129936D01*
X16348039Y-8129936D02*
X16357563Y-8120412D01*
X16424229Y-8168031D02*
X16433753Y-8158508D01*
X16433753Y-8158508D02*
X16452801Y-8148984D01*
X16452801Y-8148984D02*
X16500420Y-8148984D01*
X16500420Y-8148984D02*
X16519468Y-8158508D01*
X16519468Y-8158508D02*
X16528991Y-8168031D01*
X16528991Y-8168031D02*
X16538515Y-8187079D01*
X16538515Y-8187079D02*
X16538515Y-8206127D01*
X16538515Y-8206127D02*
X16528991Y-8234698D01*
X16528991Y-8234698D02*
X16414706Y-8348984D01*
X16414706Y-8348984D02*
X16538515Y-8348984D01*
X16776610Y-8348984D02*
X16776610Y-8148984D01*
X16862325Y-8348984D02*
X16862325Y-8244222D01*
X16862325Y-8244222D02*
X16852801Y-8225174D01*
X16852801Y-8225174D02*
X16833753Y-8215650D01*
X16833753Y-8215650D02*
X16805182Y-8215650D01*
X16805182Y-8215650D02*
X16786134Y-8225174D01*
X16786134Y-8225174D02*
X16776610Y-8234698D01*
X16986134Y-8348984D02*
X16967087Y-8339460D01*
X16967087Y-8339460D02*
X16957563Y-8329936D01*
X16957563Y-8329936D02*
X16948039Y-8310888D01*
X16948039Y-8310888D02*
X16948039Y-8253746D01*
X16948039Y-8253746D02*
X16957563Y-8234698D01*
X16957563Y-8234698D02*
X16967087Y-8225174D01*
X16967087Y-8225174D02*
X16986134Y-8215650D01*
X16986134Y-8215650D02*
X17014706Y-8215650D01*
X17014706Y-8215650D02*
X17033753Y-8225174D01*
X17033753Y-8225174D02*
X17043277Y-8234698D01*
X17043277Y-8234698D02*
X17052801Y-8253746D01*
X17052801Y-8253746D02*
X17052801Y-8310888D01*
X17052801Y-8310888D02*
X17043277Y-8329936D01*
X17043277Y-8329936D02*
X17033753Y-8339460D01*
X17033753Y-8339460D02*
X17014706Y-8348984D01*
X17014706Y-8348984D02*
X16986134Y-8348984D01*
X17167087Y-8348984D02*
X17148039Y-8339460D01*
X17148039Y-8339460D02*
X17138515Y-8320412D01*
X17138515Y-8320412D02*
X17138515Y-8148984D01*
X17319468Y-8339460D02*
X17300420Y-8348984D01*
X17300420Y-8348984D02*
X17262325Y-8348984D01*
X17262325Y-8348984D02*
X17243277Y-8339460D01*
X17243277Y-8339460D02*
X17233753Y-8320412D01*
X17233753Y-8320412D02*
X17233753Y-8244222D01*
X17233753Y-8244222D02*
X17243277Y-8225174D01*
X17243277Y-8225174D02*
X17262325Y-8215650D01*
X17262325Y-8215650D02*
X17300420Y-8215650D01*
X17300420Y-8215650D02*
X17319468Y-8225174D01*
X17319468Y-8225174D02*
X17328992Y-8244222D01*
X17328992Y-8244222D02*
X17328992Y-8263269D01*
X17328992Y-8263269D02*
X17233753Y-8282317D01*
X17405182Y-8339460D02*
X17424230Y-8348984D01*
X17424230Y-8348984D02*
X17462325Y-8348984D01*
X17462325Y-8348984D02*
X17481373Y-8339460D01*
X17481373Y-8339460D02*
X17490896Y-8320412D01*
X17490896Y-8320412D02*
X17490896Y-8310888D01*
X17490896Y-8310888D02*
X17481373Y-8291841D01*
X17481373Y-8291841D02*
X17462325Y-8282317D01*
X17462325Y-8282317D02*
X17433753Y-8282317D01*
X17433753Y-8282317D02*
X17414706Y-8272793D01*
X17414706Y-8272793D02*
X17405182Y-8253746D01*
X17405182Y-8253746D02*
X17405182Y-8244222D01*
X17405182Y-8244222D02*
X17414706Y-8225174D01*
X17414706Y-8225174D02*
X17433753Y-8215650D01*
X17433753Y-8215650D02*
X17462325Y-8215650D01*
X17462325Y-8215650D02*
X17481373Y-8225174D01*
X17557563Y-8425174D02*
X17567087Y-8415650D01*
X17567087Y-8415650D02*
X17586134Y-8387079D01*
X17586134Y-8387079D02*
X17595658Y-8368031D01*
X17595658Y-8368031D02*
X17605182Y-8339460D01*
X17605182Y-8339460D02*
X17614706Y-8291841D01*
X17614706Y-8291841D02*
X17614706Y-8253746D01*
X17614706Y-8253746D02*
X17605182Y-8206127D01*
X17605182Y-8206127D02*
X17595658Y-8177555D01*
X17595658Y-8177555D02*
X17586134Y-8158508D01*
X17586134Y-8158508D02*
X17567087Y-8129936D01*
X17567087Y-8129936D02*
X17557563Y-8120412D01*
X17919468Y-8425174D02*
X17909944Y-8415650D01*
X17909944Y-8415650D02*
X17890896Y-8387079D01*
X17890896Y-8387079D02*
X17881373Y-8368031D01*
X17881373Y-8368031D02*
X17871849Y-8339460D01*
X17871849Y-8339460D02*
X17862325Y-8291841D01*
X17862325Y-8291841D02*
X17862325Y-8253746D01*
X17862325Y-8253746D02*
X17871849Y-8206127D01*
X17871849Y-8206127D02*
X17881373Y-8177555D01*
X17881373Y-8177555D02*
X17890896Y-8158508D01*
X17890896Y-8158508D02*
X17909944Y-8129936D01*
X17909944Y-8129936D02*
X17919468Y-8120412D01*
X17995658Y-8215650D02*
X17995658Y-8348984D01*
X17995658Y-8234698D02*
X18005182Y-8225174D01*
X18005182Y-8225174D02*
X18024230Y-8215650D01*
X18024230Y-8215650D02*
X18052801Y-8215650D01*
X18052801Y-8215650D02*
X18071849Y-8225174D01*
X18071849Y-8225174D02*
X18081373Y-8244222D01*
X18081373Y-8244222D02*
X18081373Y-8348984D01*
X18205182Y-8348984D02*
X18186134Y-8339460D01*
X18186134Y-8339460D02*
X18176611Y-8329936D01*
X18176611Y-8329936D02*
X18167087Y-8310888D01*
X18167087Y-8310888D02*
X18167087Y-8253746D01*
X18167087Y-8253746D02*
X18176611Y-8234698D01*
X18176611Y-8234698D02*
X18186134Y-8225174D01*
X18186134Y-8225174D02*
X18205182Y-8215650D01*
X18205182Y-8215650D02*
X18233754Y-8215650D01*
X18233754Y-8215650D02*
X18252801Y-8225174D01*
X18252801Y-8225174D02*
X18262325Y-8234698D01*
X18262325Y-8234698D02*
X18271849Y-8253746D01*
X18271849Y-8253746D02*
X18271849Y-8310888D01*
X18271849Y-8310888D02*
X18262325Y-8329936D01*
X18262325Y-8329936D02*
X18252801Y-8339460D01*
X18252801Y-8339460D02*
X18233754Y-8348984D01*
X18233754Y-8348984D02*
X18205182Y-8348984D01*
X18328992Y-8215650D02*
X18405182Y-8215650D01*
X18357563Y-8148984D02*
X18357563Y-8320412D01*
X18357563Y-8320412D02*
X18367087Y-8339460D01*
X18367087Y-8339460D02*
X18386134Y-8348984D01*
X18386134Y-8348984D02*
X18405182Y-8348984D01*
X18624230Y-8215650D02*
X18624230Y-8415650D01*
X18624230Y-8225174D02*
X18643277Y-8215650D01*
X18643277Y-8215650D02*
X18681373Y-8215650D01*
X18681373Y-8215650D02*
X18700420Y-8225174D01*
X18700420Y-8225174D02*
X18709944Y-8234698D01*
X18709944Y-8234698D02*
X18719468Y-8253746D01*
X18719468Y-8253746D02*
X18719468Y-8310888D01*
X18719468Y-8310888D02*
X18709944Y-8329936D01*
X18709944Y-8329936D02*
X18700420Y-8339460D01*
X18700420Y-8339460D02*
X18681373Y-8348984D01*
X18681373Y-8348984D02*
X18643277Y-8348984D01*
X18643277Y-8348984D02*
X18624230Y-8339460D01*
X18833754Y-8348984D02*
X18814706Y-8339460D01*
X18814706Y-8339460D02*
X18805182Y-8320412D01*
X18805182Y-8320412D02*
X18805182Y-8148984D01*
X18995658Y-8348984D02*
X18995658Y-8244222D01*
X18995658Y-8244222D02*
X18986135Y-8225174D01*
X18986135Y-8225174D02*
X18967087Y-8215650D01*
X18967087Y-8215650D02*
X18928992Y-8215650D01*
X18928992Y-8215650D02*
X18909944Y-8225174D01*
X18995658Y-8339460D02*
X18976611Y-8348984D01*
X18976611Y-8348984D02*
X18928992Y-8348984D01*
X18928992Y-8348984D02*
X18909944Y-8339460D01*
X18909944Y-8339460D02*
X18900420Y-8320412D01*
X18900420Y-8320412D02*
X18900420Y-8301365D01*
X18900420Y-8301365D02*
X18909944Y-8282317D01*
X18909944Y-8282317D02*
X18928992Y-8272793D01*
X18928992Y-8272793D02*
X18976611Y-8272793D01*
X18976611Y-8272793D02*
X18995658Y-8263269D01*
X19062325Y-8215650D02*
X19138515Y-8215650D01*
X19090896Y-8148984D02*
X19090896Y-8320412D01*
X19090896Y-8320412D02*
X19100420Y-8339460D01*
X19100420Y-8339460D02*
X19119468Y-8348984D01*
X19119468Y-8348984D02*
X19138515Y-8348984D01*
X19281373Y-8339460D02*
X19262325Y-8348984D01*
X19262325Y-8348984D02*
X19224230Y-8348984D01*
X19224230Y-8348984D02*
X19205182Y-8339460D01*
X19205182Y-8339460D02*
X19195658Y-8320412D01*
X19195658Y-8320412D02*
X19195658Y-8244222D01*
X19195658Y-8244222D02*
X19205182Y-8225174D01*
X19205182Y-8225174D02*
X19224230Y-8215650D01*
X19224230Y-8215650D02*
X19262325Y-8215650D01*
X19262325Y-8215650D02*
X19281373Y-8225174D01*
X19281373Y-8225174D02*
X19290896Y-8244222D01*
X19290896Y-8244222D02*
X19290896Y-8263269D01*
X19290896Y-8263269D02*
X19195658Y-8282317D01*
X19462325Y-8348984D02*
X19462325Y-8148984D01*
X19462325Y-8339460D02*
X19443277Y-8348984D01*
X19443277Y-8348984D02*
X19405182Y-8348984D01*
X19405182Y-8348984D02*
X19386135Y-8339460D01*
X19386135Y-8339460D02*
X19376611Y-8329936D01*
X19376611Y-8329936D02*
X19367087Y-8310888D01*
X19367087Y-8310888D02*
X19367087Y-8253746D01*
X19367087Y-8253746D02*
X19376611Y-8234698D01*
X19376611Y-8234698D02*
X19386135Y-8225174D01*
X19386135Y-8225174D02*
X19405182Y-8215650D01*
X19405182Y-8215650D02*
X19443277Y-8215650D01*
X19443277Y-8215650D02*
X19462325Y-8225174D01*
X19538516Y-8425174D02*
X19548039Y-8415650D01*
X19548039Y-8415650D02*
X19567087Y-8387079D01*
X19567087Y-8387079D02*
X19576611Y-8368031D01*
X19576611Y-8368031D02*
X19586135Y-8339460D01*
X19586135Y-8339460D02*
X19595658Y-8291841D01*
X19595658Y-8291841D02*
X19595658Y-8253746D01*
X19595658Y-8253746D02*
X19586135Y-8206127D01*
X19586135Y-8206127D02*
X19576611Y-8177555D01*
X19576611Y-8177555D02*
X19567087Y-8158508D01*
X19567087Y-8158508D02*
X19548039Y-8129936D01*
X19548039Y-8129936D02*
X19538516Y-8120412D01*
D13*
X12782500Y-8521500D02*
G75*
G03*
X12782500Y-8521500I-60000J0D01*
G01*
D11*
X13148039Y-8612984D02*
X13033753Y-8612984D01*
X13090896Y-8612984D02*
X13090896Y-8412984D01*
X13090896Y-8412984D02*
X13071848Y-8441555D01*
X13071848Y-8441555D02*
X13052801Y-8460603D01*
X13052801Y-8460603D02*
X13033753Y-8470127D01*
X13233753Y-8593936D02*
X13243277Y-8603460D01*
X13243277Y-8603460D02*
X13233753Y-8612984D01*
X13233753Y-8612984D02*
X13224229Y-8603460D01*
X13224229Y-8603460D02*
X13233753Y-8593936D01*
X13233753Y-8593936D02*
X13233753Y-8612984D01*
X13319467Y-8432031D02*
X13328991Y-8422508D01*
X13328991Y-8422508D02*
X13348039Y-8412984D01*
X13348039Y-8412984D02*
X13395658Y-8412984D01*
X13395658Y-8412984D02*
X13414705Y-8422508D01*
X13414705Y-8422508D02*
X13424229Y-8432031D01*
X13424229Y-8432031D02*
X13433753Y-8451079D01*
X13433753Y-8451079D02*
X13433753Y-8470127D01*
X13433753Y-8470127D02*
X13424229Y-8498698D01*
X13424229Y-8498698D02*
X13309943Y-8612984D01*
X13309943Y-8612984D02*
X13433753Y-8612984D01*
X13557562Y-8412984D02*
X13576610Y-8412984D01*
X13576610Y-8412984D02*
X13595658Y-8422508D01*
X13595658Y-8422508D02*
X13605182Y-8432031D01*
X13605182Y-8432031D02*
X13614705Y-8451079D01*
X13614705Y-8451079D02*
X13624229Y-8489174D01*
X13624229Y-8489174D02*
X13624229Y-8536793D01*
X13624229Y-8536793D02*
X13614705Y-8574889D01*
X13614705Y-8574889D02*
X13605182Y-8593936D01*
X13605182Y-8593936D02*
X13595658Y-8603460D01*
X13595658Y-8603460D02*
X13576610Y-8612984D01*
X13576610Y-8612984D02*
X13557562Y-8612984D01*
X13557562Y-8612984D02*
X13538515Y-8603460D01*
X13538515Y-8603460D02*
X13528991Y-8593936D01*
X13528991Y-8593936D02*
X13519467Y-8574889D01*
X13519467Y-8574889D02*
X13509943Y-8536793D01*
X13509943Y-8536793D02*
X13509943Y-8489174D01*
X13509943Y-8489174D02*
X13519467Y-8451079D01*
X13519467Y-8451079D02*
X13528991Y-8432031D01*
X13528991Y-8432031D02*
X13538515Y-8422508D01*
X13538515Y-8422508D02*
X13557562Y-8412984D01*
X13748039Y-8412984D02*
X13767086Y-8412984D01*
X13767086Y-8412984D02*
X13786134Y-8422508D01*
X13786134Y-8422508D02*
X13795658Y-8432031D01*
X13795658Y-8432031D02*
X13805182Y-8451079D01*
X13805182Y-8451079D02*
X13814705Y-8489174D01*
X13814705Y-8489174D02*
X13814705Y-8536793D01*
X13814705Y-8536793D02*
X13805182Y-8574889D01*
X13805182Y-8574889D02*
X13795658Y-8593936D01*
X13795658Y-8593936D02*
X13786134Y-8603460D01*
X13786134Y-8603460D02*
X13767086Y-8612984D01*
X13767086Y-8612984D02*
X13748039Y-8612984D01*
X13748039Y-8612984D02*
X13728991Y-8603460D01*
X13728991Y-8603460D02*
X13719467Y-8593936D01*
X13719467Y-8593936D02*
X13709943Y-8574889D01*
X13709943Y-8574889D02*
X13700420Y-8536793D01*
X13700420Y-8536793D02*
X13700420Y-8489174D01*
X13700420Y-8489174D02*
X13709943Y-8451079D01*
X13709943Y-8451079D02*
X13719467Y-8432031D01*
X13719467Y-8432031D02*
X13728991Y-8422508D01*
X13728991Y-8422508D02*
X13748039Y-8412984D01*
X13900420Y-8612984D02*
X13900420Y-8479650D01*
X13900420Y-8498698D02*
X13909943Y-8489174D01*
X13909943Y-8489174D02*
X13928991Y-8479650D01*
X13928991Y-8479650D02*
X13957563Y-8479650D01*
X13957563Y-8479650D02*
X13976610Y-8489174D01*
X13976610Y-8489174D02*
X13986134Y-8508222D01*
X13986134Y-8508222D02*
X13986134Y-8612984D01*
X13986134Y-8508222D02*
X13995658Y-8489174D01*
X13995658Y-8489174D02*
X14014705Y-8479650D01*
X14014705Y-8479650D02*
X14043277Y-8479650D01*
X14043277Y-8479650D02*
X14062324Y-8489174D01*
X14062324Y-8489174D02*
X14071848Y-8508222D01*
X14071848Y-8508222D02*
X14071848Y-8612984D01*
X14167086Y-8612984D02*
X14167086Y-8479650D01*
X14167086Y-8498698D02*
X14176610Y-8489174D01*
X14176610Y-8489174D02*
X14195658Y-8479650D01*
X14195658Y-8479650D02*
X14224229Y-8479650D01*
X14224229Y-8479650D02*
X14243277Y-8489174D01*
X14243277Y-8489174D02*
X14252801Y-8508222D01*
X14252801Y-8508222D02*
X14252801Y-8612984D01*
X14252801Y-8508222D02*
X14262324Y-8489174D01*
X14262324Y-8489174D02*
X14281372Y-8479650D01*
X14281372Y-8479650D02*
X14309943Y-8479650D01*
X14309943Y-8479650D02*
X14328991Y-8489174D01*
X14328991Y-8489174D02*
X14338515Y-8508222D01*
X14338515Y-8508222D02*
X14338515Y-8612984D01*
X14728991Y-8403460D02*
X14557563Y-8660603D01*
X14986134Y-8412984D02*
X15005182Y-8412984D01*
X15005182Y-8412984D02*
X15024229Y-8422508D01*
X15024229Y-8422508D02*
X15033753Y-8432031D01*
X15033753Y-8432031D02*
X15043277Y-8451079D01*
X15043277Y-8451079D02*
X15052801Y-8489174D01*
X15052801Y-8489174D02*
X15052801Y-8536793D01*
X15052801Y-8536793D02*
X15043277Y-8574889D01*
X15043277Y-8574889D02*
X15033753Y-8593936D01*
X15033753Y-8593936D02*
X15024229Y-8603460D01*
X15024229Y-8603460D02*
X15005182Y-8612984D01*
X15005182Y-8612984D02*
X14986134Y-8612984D01*
X14986134Y-8612984D02*
X14967086Y-8603460D01*
X14967086Y-8603460D02*
X14957563Y-8593936D01*
X14957563Y-8593936D02*
X14948039Y-8574889D01*
X14948039Y-8574889D02*
X14938515Y-8536793D01*
X14938515Y-8536793D02*
X14938515Y-8489174D01*
X14938515Y-8489174D02*
X14948039Y-8451079D01*
X14948039Y-8451079D02*
X14957563Y-8432031D01*
X14957563Y-8432031D02*
X14967086Y-8422508D01*
X14967086Y-8422508D02*
X14986134Y-8412984D01*
X15138515Y-8593936D02*
X15148039Y-8603460D01*
X15148039Y-8603460D02*
X15138515Y-8612984D01*
X15138515Y-8612984D02*
X15128991Y-8603460D01*
X15128991Y-8603460D02*
X15138515Y-8593936D01*
X15138515Y-8593936D02*
X15138515Y-8612984D01*
X15271848Y-8412984D02*
X15290896Y-8412984D01*
X15290896Y-8412984D02*
X15309944Y-8422508D01*
X15309944Y-8422508D02*
X15319467Y-8432031D01*
X15319467Y-8432031D02*
X15328991Y-8451079D01*
X15328991Y-8451079D02*
X15338515Y-8489174D01*
X15338515Y-8489174D02*
X15338515Y-8536793D01*
X15338515Y-8536793D02*
X15328991Y-8574889D01*
X15328991Y-8574889D02*
X15319467Y-8593936D01*
X15319467Y-8593936D02*
X15309944Y-8603460D01*
X15309944Y-8603460D02*
X15290896Y-8612984D01*
X15290896Y-8612984D02*
X15271848Y-8612984D01*
X15271848Y-8612984D02*
X15252801Y-8603460D01*
X15252801Y-8603460D02*
X15243277Y-8593936D01*
X15243277Y-8593936D02*
X15233753Y-8574889D01*
X15233753Y-8574889D02*
X15224229Y-8536793D01*
X15224229Y-8536793D02*
X15224229Y-8489174D01*
X15224229Y-8489174D02*
X15233753Y-8451079D01*
X15233753Y-8451079D02*
X15243277Y-8432031D01*
X15243277Y-8432031D02*
X15252801Y-8422508D01*
X15252801Y-8422508D02*
X15271848Y-8412984D01*
X15509944Y-8479650D02*
X15509944Y-8612984D01*
X15462325Y-8403460D02*
X15414706Y-8546317D01*
X15414706Y-8546317D02*
X15538515Y-8546317D01*
X15595658Y-8412984D02*
X15728991Y-8412984D01*
X15728991Y-8412984D02*
X15643277Y-8612984D01*
X15795658Y-8432031D02*
X15805182Y-8422508D01*
X15805182Y-8422508D02*
X15824229Y-8412984D01*
X15824229Y-8412984D02*
X15871848Y-8412984D01*
X15871848Y-8412984D02*
X15890896Y-8422508D01*
X15890896Y-8422508D02*
X15900420Y-8432031D01*
X15900420Y-8432031D02*
X15909944Y-8451079D01*
X15909944Y-8451079D02*
X15909944Y-8470127D01*
X15909944Y-8470127D02*
X15900420Y-8498698D01*
X15900420Y-8498698D02*
X15786134Y-8612984D01*
X15786134Y-8612984D02*
X15909944Y-8612984D01*
X15986134Y-8412984D02*
X15986134Y-8451079D01*
X16062325Y-8412984D02*
X16062325Y-8451079D01*
X16357563Y-8689174D02*
X16348039Y-8679650D01*
X16348039Y-8679650D02*
X16328991Y-8651079D01*
X16328991Y-8651079D02*
X16319468Y-8632031D01*
X16319468Y-8632031D02*
X16309944Y-8603460D01*
X16309944Y-8603460D02*
X16300420Y-8555841D01*
X16300420Y-8555841D02*
X16300420Y-8517746D01*
X16300420Y-8517746D02*
X16309944Y-8470127D01*
X16309944Y-8470127D02*
X16319468Y-8441555D01*
X16319468Y-8441555D02*
X16328991Y-8422508D01*
X16328991Y-8422508D02*
X16348039Y-8393936D01*
X16348039Y-8393936D02*
X16357563Y-8384412D01*
X16414706Y-8412984D02*
X16538515Y-8412984D01*
X16538515Y-8412984D02*
X16471848Y-8489174D01*
X16471848Y-8489174D02*
X16500420Y-8489174D01*
X16500420Y-8489174D02*
X16519468Y-8498698D01*
X16519468Y-8498698D02*
X16528991Y-8508222D01*
X16528991Y-8508222D02*
X16538515Y-8527270D01*
X16538515Y-8527270D02*
X16538515Y-8574889D01*
X16538515Y-8574889D02*
X16528991Y-8593936D01*
X16528991Y-8593936D02*
X16519468Y-8603460D01*
X16519468Y-8603460D02*
X16500420Y-8612984D01*
X16500420Y-8612984D02*
X16443277Y-8612984D01*
X16443277Y-8612984D02*
X16424229Y-8603460D01*
X16424229Y-8603460D02*
X16414706Y-8593936D01*
X16776610Y-8612984D02*
X16776610Y-8412984D01*
X16862325Y-8612984D02*
X16862325Y-8508222D01*
X16862325Y-8508222D02*
X16852801Y-8489174D01*
X16852801Y-8489174D02*
X16833753Y-8479650D01*
X16833753Y-8479650D02*
X16805182Y-8479650D01*
X16805182Y-8479650D02*
X16786134Y-8489174D01*
X16786134Y-8489174D02*
X16776610Y-8498698D01*
X16986134Y-8612984D02*
X16967087Y-8603460D01*
X16967087Y-8603460D02*
X16957563Y-8593936D01*
X16957563Y-8593936D02*
X16948039Y-8574889D01*
X16948039Y-8574889D02*
X16948039Y-8517746D01*
X16948039Y-8517746D02*
X16957563Y-8498698D01*
X16957563Y-8498698D02*
X16967087Y-8489174D01*
X16967087Y-8489174D02*
X16986134Y-8479650D01*
X16986134Y-8479650D02*
X17014706Y-8479650D01*
X17014706Y-8479650D02*
X17033753Y-8489174D01*
X17033753Y-8489174D02*
X17043277Y-8498698D01*
X17043277Y-8498698D02*
X17052801Y-8517746D01*
X17052801Y-8517746D02*
X17052801Y-8574889D01*
X17052801Y-8574889D02*
X17043277Y-8593936D01*
X17043277Y-8593936D02*
X17033753Y-8603460D01*
X17033753Y-8603460D02*
X17014706Y-8612984D01*
X17014706Y-8612984D02*
X16986134Y-8612984D01*
X17167087Y-8612984D02*
X17148039Y-8603460D01*
X17148039Y-8603460D02*
X17138515Y-8584412D01*
X17138515Y-8584412D02*
X17138515Y-8412984D01*
X17319468Y-8603460D02*
X17300420Y-8612984D01*
X17300420Y-8612984D02*
X17262325Y-8612984D01*
X17262325Y-8612984D02*
X17243277Y-8603460D01*
X17243277Y-8603460D02*
X17233753Y-8584412D01*
X17233753Y-8584412D02*
X17233753Y-8508222D01*
X17233753Y-8508222D02*
X17243277Y-8489174D01*
X17243277Y-8489174D02*
X17262325Y-8479650D01*
X17262325Y-8479650D02*
X17300420Y-8479650D01*
X17300420Y-8479650D02*
X17319468Y-8489174D01*
X17319468Y-8489174D02*
X17328992Y-8508222D01*
X17328992Y-8508222D02*
X17328992Y-8527270D01*
X17328992Y-8527270D02*
X17233753Y-8546317D01*
X17405182Y-8603460D02*
X17424230Y-8612984D01*
X17424230Y-8612984D02*
X17462325Y-8612984D01*
X17462325Y-8612984D02*
X17481373Y-8603460D01*
X17481373Y-8603460D02*
X17490896Y-8584412D01*
X17490896Y-8584412D02*
X17490896Y-8574889D01*
X17490896Y-8574889D02*
X17481373Y-8555841D01*
X17481373Y-8555841D02*
X17462325Y-8546317D01*
X17462325Y-8546317D02*
X17433753Y-8546317D01*
X17433753Y-8546317D02*
X17414706Y-8536793D01*
X17414706Y-8536793D02*
X17405182Y-8517746D01*
X17405182Y-8517746D02*
X17405182Y-8508222D01*
X17405182Y-8508222D02*
X17414706Y-8489174D01*
X17414706Y-8489174D02*
X17433753Y-8479650D01*
X17433753Y-8479650D02*
X17462325Y-8479650D01*
X17462325Y-8479650D02*
X17481373Y-8489174D01*
X17557563Y-8689174D02*
X17567087Y-8679650D01*
X17567087Y-8679650D02*
X17586134Y-8651079D01*
X17586134Y-8651079D02*
X17595658Y-8632031D01*
X17595658Y-8632031D02*
X17605182Y-8603460D01*
X17605182Y-8603460D02*
X17614706Y-8555841D01*
X17614706Y-8555841D02*
X17614706Y-8517746D01*
X17614706Y-8517746D02*
X17605182Y-8470127D01*
X17605182Y-8470127D02*
X17595658Y-8441555D01*
X17595658Y-8441555D02*
X17586134Y-8422508D01*
X17586134Y-8422508D02*
X17567087Y-8393936D01*
X17567087Y-8393936D02*
X17557563Y-8384412D01*
X17919468Y-8689174D02*
X17909944Y-8679650D01*
X17909944Y-8679650D02*
X17890896Y-8651079D01*
X17890896Y-8651079D02*
X17881373Y-8632031D01*
X17881373Y-8632031D02*
X17871849Y-8603460D01*
X17871849Y-8603460D02*
X17862325Y-8555841D01*
X17862325Y-8555841D02*
X17862325Y-8517746D01*
X17862325Y-8517746D02*
X17871849Y-8470127D01*
X17871849Y-8470127D02*
X17881373Y-8441555D01*
X17881373Y-8441555D02*
X17890896Y-8422508D01*
X17890896Y-8422508D02*
X17909944Y-8393936D01*
X17909944Y-8393936D02*
X17919468Y-8384412D01*
X17995658Y-8479650D02*
X17995658Y-8612984D01*
X17995658Y-8498698D02*
X18005182Y-8489174D01*
X18005182Y-8489174D02*
X18024230Y-8479650D01*
X18024230Y-8479650D02*
X18052801Y-8479650D01*
X18052801Y-8479650D02*
X18071849Y-8489174D01*
X18071849Y-8489174D02*
X18081373Y-8508222D01*
X18081373Y-8508222D02*
X18081373Y-8612984D01*
X18205182Y-8612984D02*
X18186134Y-8603460D01*
X18186134Y-8603460D02*
X18176611Y-8593936D01*
X18176611Y-8593936D02*
X18167087Y-8574889D01*
X18167087Y-8574889D02*
X18167087Y-8517746D01*
X18167087Y-8517746D02*
X18176611Y-8498698D01*
X18176611Y-8498698D02*
X18186134Y-8489174D01*
X18186134Y-8489174D02*
X18205182Y-8479650D01*
X18205182Y-8479650D02*
X18233754Y-8479650D01*
X18233754Y-8479650D02*
X18252801Y-8489174D01*
X18252801Y-8489174D02*
X18262325Y-8498698D01*
X18262325Y-8498698D02*
X18271849Y-8517746D01*
X18271849Y-8517746D02*
X18271849Y-8574889D01*
X18271849Y-8574889D02*
X18262325Y-8593936D01*
X18262325Y-8593936D02*
X18252801Y-8603460D01*
X18252801Y-8603460D02*
X18233754Y-8612984D01*
X18233754Y-8612984D02*
X18205182Y-8612984D01*
X18328992Y-8479650D02*
X18405182Y-8479650D01*
X18357563Y-8412984D02*
X18357563Y-8584412D01*
X18357563Y-8584412D02*
X18367087Y-8603460D01*
X18367087Y-8603460D02*
X18386134Y-8612984D01*
X18386134Y-8612984D02*
X18405182Y-8612984D01*
X18624230Y-8479650D02*
X18624230Y-8679650D01*
X18624230Y-8489174D02*
X18643277Y-8479650D01*
X18643277Y-8479650D02*
X18681373Y-8479650D01*
X18681373Y-8479650D02*
X18700420Y-8489174D01*
X18700420Y-8489174D02*
X18709944Y-8498698D01*
X18709944Y-8498698D02*
X18719468Y-8517746D01*
X18719468Y-8517746D02*
X18719468Y-8574889D01*
X18719468Y-8574889D02*
X18709944Y-8593936D01*
X18709944Y-8593936D02*
X18700420Y-8603460D01*
X18700420Y-8603460D02*
X18681373Y-8612984D01*
X18681373Y-8612984D02*
X18643277Y-8612984D01*
X18643277Y-8612984D02*
X18624230Y-8603460D01*
X18833754Y-8612984D02*
X18814706Y-8603460D01*
X18814706Y-8603460D02*
X18805182Y-8584412D01*
X18805182Y-8584412D02*
X18805182Y-8412984D01*
X18995658Y-8612984D02*
X18995658Y-8508222D01*
X18995658Y-8508222D02*
X18986135Y-8489174D01*
X18986135Y-8489174D02*
X18967087Y-8479650D01*
X18967087Y-8479650D02*
X18928992Y-8479650D01*
X18928992Y-8479650D02*
X18909944Y-8489174D01*
X18995658Y-8603460D02*
X18976611Y-8612984D01*
X18976611Y-8612984D02*
X18928992Y-8612984D01*
X18928992Y-8612984D02*
X18909944Y-8603460D01*
X18909944Y-8603460D02*
X18900420Y-8584412D01*
X18900420Y-8584412D02*
X18900420Y-8565365D01*
X18900420Y-8565365D02*
X18909944Y-8546317D01*
X18909944Y-8546317D02*
X18928992Y-8536793D01*
X18928992Y-8536793D02*
X18976611Y-8536793D01*
X18976611Y-8536793D02*
X18995658Y-8527270D01*
X19062325Y-8479650D02*
X19138515Y-8479650D01*
X19090896Y-8412984D02*
X19090896Y-8584412D01*
X19090896Y-8584412D02*
X19100420Y-8603460D01*
X19100420Y-8603460D02*
X19119468Y-8612984D01*
X19119468Y-8612984D02*
X19138515Y-8612984D01*
X19281373Y-8603460D02*
X19262325Y-8612984D01*
X19262325Y-8612984D02*
X19224230Y-8612984D01*
X19224230Y-8612984D02*
X19205182Y-8603460D01*
X19205182Y-8603460D02*
X19195658Y-8584412D01*
X19195658Y-8584412D02*
X19195658Y-8508222D01*
X19195658Y-8508222D02*
X19205182Y-8489174D01*
X19205182Y-8489174D02*
X19224230Y-8479650D01*
X19224230Y-8479650D02*
X19262325Y-8479650D01*
X19262325Y-8479650D02*
X19281373Y-8489174D01*
X19281373Y-8489174D02*
X19290896Y-8508222D01*
X19290896Y-8508222D02*
X19290896Y-8527270D01*
X19290896Y-8527270D02*
X19195658Y-8546317D01*
X19462325Y-8612984D02*
X19462325Y-8412984D01*
X19462325Y-8603460D02*
X19443277Y-8612984D01*
X19443277Y-8612984D02*
X19405182Y-8612984D01*
X19405182Y-8612984D02*
X19386135Y-8603460D01*
X19386135Y-8603460D02*
X19376611Y-8593936D01*
X19376611Y-8593936D02*
X19367087Y-8574889D01*
X19367087Y-8574889D02*
X19367087Y-8517746D01*
X19367087Y-8517746D02*
X19376611Y-8498698D01*
X19376611Y-8498698D02*
X19386135Y-8489174D01*
X19386135Y-8489174D02*
X19405182Y-8479650D01*
X19405182Y-8479650D02*
X19443277Y-8479650D01*
X19443277Y-8479650D02*
X19462325Y-8489174D01*
X19538516Y-8689174D02*
X19548039Y-8679650D01*
X19548039Y-8679650D02*
X19567087Y-8651079D01*
X19567087Y-8651079D02*
X19576611Y-8632031D01*
X19576611Y-8632031D02*
X19586135Y-8603460D01*
X19586135Y-8603460D02*
X19595658Y-8555841D01*
X19595658Y-8555841D02*
X19595658Y-8517746D01*
X19595658Y-8517746D02*
X19586135Y-8470127D01*
X19586135Y-8470127D02*
X19576611Y-8441555D01*
X19576611Y-8441555D02*
X19567087Y-8422508D01*
X19567087Y-8422508D02*
X19548039Y-8393936D01*
X19548039Y-8393936D02*
X19538516Y-8384412D01*
M02*
