G04 #@! TF.GenerationSoftware,KiCad,Pcbnew,5.1.0-5.1.0*
G04 #@! TF.CreationDate,2019-03-27T16:13:27-07:00*
G04 #@! TF.ProjectId,t962,74393632-2e6b-4696-9361-645f70636258,1.2.3*
G04 #@! TF.SameCoordinates,Original*
G04 #@! TF.FileFunction,Copper,L2,Bot*
G04 #@! TF.FilePolarity,Positive*
%FSLAX46Y46*%
G04 Gerber Fmt 4.6, Leading zero omitted, Abs format (unit mm)*
G04 Created by KiCad (PCBNEW 5.1.0-5.1.0) date 2019-03-27 16:13:27*
%MOMM*%
%LPD*%
G04 APERTURE LIST*
%ADD10O,1.700000X1.700000*%
%ADD11R,1.700000X1.700000*%
%ADD12C,0.100000*%
%ADD13C,1.700000*%
%ADD14O,2.000000X1.700000*%
%ADD15R,2.100000X2.100000*%
%ADD16C,2.100000*%
%ADD17C,6.000000*%
%ADD18C,1.450000*%
%ADD19O,1.900000X1.200000*%
%ADD20O,1.700000X2.000000*%
%ADD21C,0.800000*%
%ADD22C,0.200000*%
%ADD23C,0.254000*%
G04 APERTURE END LIST*
D10*
X165862000Y-66548000D03*
X165862000Y-64008000D03*
D11*
X165862000Y-61468000D03*
D12*
G36*
X164474504Y-45151204D02*
G01*
X164498773Y-45154804D01*
X164522571Y-45160765D01*
X164545671Y-45169030D01*
X164567849Y-45179520D01*
X164588893Y-45192133D01*
X164608598Y-45206747D01*
X164626777Y-45223223D01*
X164643253Y-45241402D01*
X164657867Y-45261107D01*
X164670480Y-45282151D01*
X164680970Y-45304329D01*
X164689235Y-45327429D01*
X164695196Y-45351227D01*
X164698796Y-45375496D01*
X164700000Y-45400000D01*
X164700000Y-46600000D01*
X164698796Y-46624504D01*
X164695196Y-46648773D01*
X164689235Y-46672571D01*
X164680970Y-46695671D01*
X164670480Y-46717849D01*
X164657867Y-46738893D01*
X164643253Y-46758598D01*
X164626777Y-46776777D01*
X164608598Y-46793253D01*
X164588893Y-46807867D01*
X164567849Y-46820480D01*
X164545671Y-46830970D01*
X164522571Y-46839235D01*
X164498773Y-46845196D01*
X164474504Y-46848796D01*
X164450000Y-46850000D01*
X162950000Y-46850000D01*
X162925496Y-46848796D01*
X162901227Y-46845196D01*
X162877429Y-46839235D01*
X162854329Y-46830970D01*
X162832151Y-46820480D01*
X162811107Y-46807867D01*
X162791402Y-46793253D01*
X162773223Y-46776777D01*
X162756747Y-46758598D01*
X162742133Y-46738893D01*
X162729520Y-46717849D01*
X162719030Y-46695671D01*
X162710765Y-46672571D01*
X162704804Y-46648773D01*
X162701204Y-46624504D01*
X162700000Y-46600000D01*
X162700000Y-45400000D01*
X162701204Y-45375496D01*
X162704804Y-45351227D01*
X162710765Y-45327429D01*
X162719030Y-45304329D01*
X162729520Y-45282151D01*
X162742133Y-45261107D01*
X162756747Y-45241402D01*
X162773223Y-45223223D01*
X162791402Y-45206747D01*
X162811107Y-45192133D01*
X162832151Y-45179520D01*
X162854329Y-45169030D01*
X162877429Y-45160765D01*
X162901227Y-45154804D01*
X162925496Y-45151204D01*
X162950000Y-45150000D01*
X164450000Y-45150000D01*
X164474504Y-45151204D01*
X164474504Y-45151204D01*
G37*
D13*
X163700000Y-46000000D03*
D14*
X163700000Y-43500000D03*
D11*
X130300000Y-73700000D03*
D10*
X130300000Y-71160000D03*
D15*
X130800000Y-64640000D03*
D16*
X130800000Y-62100000D03*
X130800000Y-59560000D03*
X130800000Y-57020000D03*
X130800000Y-54480000D03*
X130800000Y-51940000D03*
X130800000Y-49400000D03*
X130800000Y-46860000D03*
D17*
X137900000Y-72100000D03*
X163900000Y-72100000D03*
X137900000Y-35100000D03*
X163900000Y-35100000D03*
D18*
X163737500Y-56500000D03*
X163737500Y-51500000D03*
D19*
X166437500Y-57500000D03*
X166437500Y-50500000D03*
D20*
X149800000Y-62300000D03*
D12*
G36*
X152924504Y-61301204D02*
G01*
X152948773Y-61304804D01*
X152972571Y-61310765D01*
X152995671Y-61319030D01*
X153017849Y-61329520D01*
X153038893Y-61342133D01*
X153058598Y-61356747D01*
X153076777Y-61373223D01*
X153093253Y-61391402D01*
X153107867Y-61411107D01*
X153120480Y-61432151D01*
X153130970Y-61454329D01*
X153139235Y-61477429D01*
X153145196Y-61501227D01*
X153148796Y-61525496D01*
X153150000Y-61550000D01*
X153150000Y-63050000D01*
X153148796Y-63074504D01*
X153145196Y-63098773D01*
X153139235Y-63122571D01*
X153130970Y-63145671D01*
X153120480Y-63167849D01*
X153107867Y-63188893D01*
X153093253Y-63208598D01*
X153076777Y-63226777D01*
X153058598Y-63243253D01*
X153038893Y-63257867D01*
X153017849Y-63270480D01*
X152995671Y-63280970D01*
X152972571Y-63289235D01*
X152948773Y-63295196D01*
X152924504Y-63298796D01*
X152900000Y-63300000D01*
X151700000Y-63300000D01*
X151675496Y-63298796D01*
X151651227Y-63295196D01*
X151627429Y-63289235D01*
X151604329Y-63280970D01*
X151582151Y-63270480D01*
X151561107Y-63257867D01*
X151541402Y-63243253D01*
X151523223Y-63226777D01*
X151506747Y-63208598D01*
X151492133Y-63188893D01*
X151479520Y-63167849D01*
X151469030Y-63145671D01*
X151460765Y-63122571D01*
X151454804Y-63098773D01*
X151451204Y-63074504D01*
X151450000Y-63050000D01*
X151450000Y-61550000D01*
X151451204Y-61525496D01*
X151454804Y-61501227D01*
X151460765Y-61477429D01*
X151469030Y-61454329D01*
X151479520Y-61432151D01*
X151492133Y-61411107D01*
X151506747Y-61391402D01*
X151523223Y-61373223D01*
X151541402Y-61356747D01*
X151561107Y-61342133D01*
X151582151Y-61329520D01*
X151604329Y-61319030D01*
X151627429Y-61310765D01*
X151651227Y-61304804D01*
X151675496Y-61301204D01*
X151700000Y-61300000D01*
X152900000Y-61300000D01*
X152924504Y-61301204D01*
X152924504Y-61301204D01*
G37*
D13*
X152300000Y-62300000D03*
D12*
G36*
X132574504Y-33551204D02*
G01*
X132598773Y-33554804D01*
X132622571Y-33560765D01*
X132645671Y-33569030D01*
X132667849Y-33579520D01*
X132688893Y-33592133D01*
X132708598Y-33606747D01*
X132726777Y-33623223D01*
X132743253Y-33641402D01*
X132757867Y-33661107D01*
X132770480Y-33682151D01*
X132780970Y-33704329D01*
X132789235Y-33727429D01*
X132795196Y-33751227D01*
X132798796Y-33775496D01*
X132800000Y-33800000D01*
X132800000Y-35000000D01*
X132798796Y-35024504D01*
X132795196Y-35048773D01*
X132789235Y-35072571D01*
X132780970Y-35095671D01*
X132770480Y-35117849D01*
X132757867Y-35138893D01*
X132743253Y-35158598D01*
X132726777Y-35176777D01*
X132708598Y-35193253D01*
X132688893Y-35207867D01*
X132667849Y-35220480D01*
X132645671Y-35230970D01*
X132622571Y-35239235D01*
X132598773Y-35245196D01*
X132574504Y-35248796D01*
X132550000Y-35250000D01*
X131050000Y-35250000D01*
X131025496Y-35248796D01*
X131001227Y-35245196D01*
X130977429Y-35239235D01*
X130954329Y-35230970D01*
X130932151Y-35220480D01*
X130911107Y-35207867D01*
X130891402Y-35193253D01*
X130873223Y-35176777D01*
X130856747Y-35158598D01*
X130842133Y-35138893D01*
X130829520Y-35117849D01*
X130819030Y-35095671D01*
X130810765Y-35072571D01*
X130804804Y-35048773D01*
X130801204Y-35024504D01*
X130800000Y-35000000D01*
X130800000Y-33800000D01*
X130801204Y-33775496D01*
X130804804Y-33751227D01*
X130810765Y-33727429D01*
X130819030Y-33704329D01*
X130829520Y-33682151D01*
X130842133Y-33661107D01*
X130856747Y-33641402D01*
X130873223Y-33623223D01*
X130891402Y-33606747D01*
X130911107Y-33592133D01*
X130932151Y-33579520D01*
X130954329Y-33569030D01*
X130977429Y-33560765D01*
X131001227Y-33554804D01*
X131025496Y-33551204D01*
X131050000Y-33550000D01*
X132550000Y-33550000D01*
X132574504Y-33551204D01*
X132574504Y-33551204D01*
G37*
D13*
X131800000Y-34400000D03*
D14*
X131800000Y-36900000D03*
D11*
X153200000Y-33700000D03*
D10*
X150660000Y-33700000D03*
X148120000Y-33700000D03*
D11*
X153260000Y-55300000D03*
D10*
X155800000Y-55300000D03*
X158340000Y-55300000D03*
X160880000Y-55300000D03*
D11*
X153600000Y-73300000D03*
D10*
X151060000Y-73300000D03*
X148520000Y-73300000D03*
X145980000Y-73300000D03*
X143440000Y-73300000D03*
D21*
X135400000Y-49700000D03*
X139800000Y-58100000D03*
X139500000Y-63400000D03*
X135500000Y-54600000D03*
X142900000Y-52000000D03*
X149800000Y-41700000D03*
X157500000Y-39379990D03*
X144681609Y-65513445D03*
X154200000Y-40200000D03*
X139371416Y-51602802D03*
X139200000Y-47400000D03*
X137000000Y-41100000D03*
X152600000Y-49400000D03*
X155200000Y-53300000D03*
X146900000Y-55100000D03*
X148300000Y-52100000D03*
X151100000Y-51400000D03*
X135800004Y-66500000D03*
X135400000Y-60700000D03*
X145700026Y-37400000D03*
X157487500Y-44199998D03*
X149450000Y-69575000D03*
X148175000Y-60025000D03*
X158700000Y-62225000D03*
X158700000Y-68775000D03*
X134675000Y-45475000D03*
X155450000Y-64775000D03*
X157300001Y-52925001D03*
X142775000Y-46900000D03*
X142950000Y-57925000D03*
X143000000Y-63950000D03*
X145375000Y-68475000D03*
X152999942Y-53300000D03*
X141200000Y-55450002D03*
X138400000Y-68000000D03*
X141200000Y-61450016D03*
X141199972Y-63300000D03*
X141200000Y-57400000D03*
X141200000Y-51500000D03*
X141500000Y-67350002D03*
X141200000Y-46300004D03*
X154100000Y-38400000D03*
X149700000Y-38400000D03*
X150100000Y-44000000D03*
X152150000Y-44800000D03*
X136800000Y-45000000D03*
X157700000Y-58700000D03*
X161200000Y-52700000D03*
X154725000Y-42700000D03*
X155076256Y-48550000D03*
X152300000Y-40400000D03*
D22*
X141199972Y-62734315D02*
X141199972Y-63300000D01*
X141199972Y-65200028D02*
X141199972Y-63865685D01*
X141199972Y-63865685D02*
X141199972Y-63300000D01*
X141199972Y-61450044D02*
X141200000Y-61450016D01*
X141199972Y-63300000D02*
X141199972Y-61450044D01*
X141200000Y-55450002D02*
X141200000Y-51500000D01*
X141200000Y-61450016D02*
X141200000Y-57400000D01*
X141200000Y-57400000D02*
X141200000Y-55450002D01*
X141200000Y-51500000D02*
X141200000Y-51500000D01*
X140100000Y-66515687D02*
X140100000Y-66300000D01*
X140934315Y-67350002D02*
X140100000Y-66515687D01*
X141500000Y-67350002D02*
X140934315Y-67350002D01*
X138400000Y-68000000D02*
X140100000Y-66300000D01*
X140100000Y-66300000D02*
X141199972Y-65200028D01*
X141200000Y-46300004D02*
X141200000Y-51500000D01*
X153534315Y-38400000D02*
X154100000Y-38400000D01*
X149700000Y-38400000D02*
X153534315Y-38400000D01*
X150100000Y-44000000D02*
X151350000Y-44000000D01*
X151350000Y-44000000D02*
X152150000Y-44800000D01*
X139800000Y-42000000D02*
X136800000Y-45000000D01*
X144100000Y-42000000D02*
X139800000Y-42000000D01*
X146400000Y-52500000D02*
X146400000Y-44300000D01*
X146400000Y-44300000D02*
X144100000Y-42000000D01*
X149900000Y-62200000D02*
X149900000Y-56000000D01*
X149900000Y-56000000D02*
X146400000Y-52500000D01*
X157700000Y-58700000D02*
X160100000Y-58700000D01*
X162330001Y-53830001D02*
X161200000Y-52700000D01*
X160100000Y-58700000D02*
X162330001Y-56469999D01*
X162330001Y-56469999D02*
X162330001Y-53830001D01*
X155076256Y-47449774D02*
X155076256Y-46086759D01*
X160880000Y-55300000D02*
X160880000Y-54880000D01*
X160880000Y-54880000D02*
X155076256Y-49076256D01*
X154725000Y-44080883D02*
X154725000Y-42700000D01*
X155074999Y-44430882D02*
X154725000Y-44080883D01*
X155074999Y-45519817D02*
X155074999Y-44430882D01*
X155076256Y-45521074D02*
X155074999Y-45519817D01*
X155076256Y-46086759D02*
X155076256Y-45521074D01*
X155076256Y-49076256D02*
X155076256Y-48550000D01*
X155076256Y-48550000D02*
X155076256Y-47449774D01*
X152300000Y-43352953D02*
X153874989Y-44927942D01*
X151709999Y-52990001D02*
X151709999Y-59509999D01*
X153874989Y-44927942D02*
X153874989Y-50825011D01*
X152400000Y-60200000D02*
X152400000Y-62200000D01*
X152300000Y-40400000D02*
X152300000Y-43352953D01*
X151709999Y-59509999D02*
X152400000Y-60200000D01*
X153874989Y-50825011D02*
X151709999Y-52990001D01*
D23*
G36*
X135884397Y-32053898D02*
G01*
X135857106Y-32072132D01*
X135520919Y-32541314D01*
X137900000Y-34920395D01*
X140279081Y-32541314D01*
X139942894Y-32072132D01*
X139457735Y-31810000D01*
X162345672Y-31810000D01*
X161884397Y-32053898D01*
X161857106Y-32072132D01*
X161520919Y-32541314D01*
X163900000Y-34920395D01*
X166279081Y-32541314D01*
X165942894Y-32072132D01*
X165457735Y-31810000D01*
X167190000Y-31810000D01*
X167190000Y-33545672D01*
X166946102Y-33084397D01*
X166927868Y-33057106D01*
X166458686Y-32720919D01*
X164079605Y-35100000D01*
X166458686Y-37479081D01*
X166927868Y-37142894D01*
X167190000Y-36657734D01*
X167190000Y-49329021D01*
X167152996Y-49313507D01*
X166914500Y-49265000D01*
X166564500Y-49265000D01*
X166564500Y-50373000D01*
X166584500Y-50373000D01*
X166584500Y-50627000D01*
X166564500Y-50627000D01*
X166564500Y-51735000D01*
X166914500Y-51735000D01*
X167152996Y-51686493D01*
X167190000Y-51670978D01*
X167190001Y-56329022D01*
X167152996Y-56313507D01*
X166914500Y-56265000D01*
X166564500Y-56265000D01*
X166564500Y-57373000D01*
X166584500Y-57373000D01*
X166584500Y-57627000D01*
X166564500Y-57627000D01*
X166564500Y-58735000D01*
X166914500Y-58735000D01*
X167152996Y-58686493D01*
X167190001Y-58670978D01*
X167190001Y-60199490D01*
X167163185Y-60166815D01*
X167066494Y-60087463D01*
X166956180Y-60028498D01*
X166836482Y-59992188D01*
X166712000Y-59979928D01*
X165012000Y-59979928D01*
X164887518Y-59992188D01*
X164767820Y-60028498D01*
X164657506Y-60087463D01*
X164560815Y-60166815D01*
X164481463Y-60263506D01*
X164422498Y-60373820D01*
X164386188Y-60493518D01*
X164373928Y-60618000D01*
X164373928Y-62318000D01*
X164386188Y-62442482D01*
X164422498Y-62562180D01*
X164481463Y-62672494D01*
X164560815Y-62769185D01*
X164657506Y-62848537D01*
X164767820Y-62907502D01*
X164848466Y-62931966D01*
X164764412Y-63007731D01*
X164590359Y-63241080D01*
X164465175Y-63503901D01*
X164420524Y-63651110D01*
X164541845Y-63881000D01*
X165735000Y-63881000D01*
X165735000Y-63861000D01*
X165989000Y-63861000D01*
X165989000Y-63881000D01*
X166009000Y-63881000D01*
X166009000Y-64135000D01*
X165989000Y-64135000D01*
X165989000Y-64155000D01*
X165735000Y-64155000D01*
X165735000Y-64135000D01*
X164541845Y-64135000D01*
X164420524Y-64364890D01*
X164465175Y-64512099D01*
X164590359Y-64774920D01*
X164764412Y-65008269D01*
X164980645Y-65203178D01*
X165097523Y-65272799D01*
X165032986Y-65307294D01*
X164806866Y-65492866D01*
X164621294Y-65718986D01*
X164483401Y-65976966D01*
X164398487Y-66256889D01*
X164369815Y-66548000D01*
X164398487Y-66839111D01*
X164483401Y-67119034D01*
X164621294Y-67377014D01*
X164806866Y-67603134D01*
X165032986Y-67788706D01*
X165290966Y-67926599D01*
X165570889Y-68011513D01*
X165789050Y-68033000D01*
X165934950Y-68033000D01*
X166153111Y-68011513D01*
X166433034Y-67926599D01*
X166691014Y-67788706D01*
X166917134Y-67603134D01*
X167102706Y-67377014D01*
X167190001Y-67213697D01*
X167190001Y-70545674D01*
X166946102Y-70084397D01*
X166927868Y-70057106D01*
X166458686Y-69720919D01*
X164079605Y-72100000D01*
X166458686Y-74479081D01*
X166927868Y-74142894D01*
X167190001Y-73657733D01*
X167190001Y-75390000D01*
X165454328Y-75390000D01*
X165915603Y-75146102D01*
X165942894Y-75127868D01*
X166279081Y-74658686D01*
X163900000Y-72279605D01*
X161520919Y-74658686D01*
X161857106Y-75127868D01*
X162342265Y-75390000D01*
X139454328Y-75390000D01*
X139915603Y-75146102D01*
X139942894Y-75127868D01*
X140279081Y-74658686D01*
X137900000Y-72279605D01*
X135520919Y-74658686D01*
X135857106Y-75127868D01*
X136342265Y-75390000D01*
X128610000Y-75390000D01*
X128610000Y-74550000D01*
X128811928Y-74550000D01*
X128824188Y-74674482D01*
X128860498Y-74794180D01*
X128919463Y-74904494D01*
X128998815Y-75001185D01*
X129095506Y-75080537D01*
X129205820Y-75139502D01*
X129325518Y-75175812D01*
X129450000Y-75188072D01*
X130014250Y-75185000D01*
X130173000Y-75026250D01*
X130173000Y-73827000D01*
X130427000Y-73827000D01*
X130427000Y-75026250D01*
X130585750Y-75185000D01*
X131150000Y-75188072D01*
X131274482Y-75175812D01*
X131394180Y-75139502D01*
X131504494Y-75080537D01*
X131601185Y-75001185D01*
X131680537Y-74904494D01*
X131739502Y-74794180D01*
X131775812Y-74674482D01*
X131788072Y-74550000D01*
X131785000Y-73985750D01*
X131626250Y-73827000D01*
X130427000Y-73827000D01*
X130173000Y-73827000D01*
X128973750Y-73827000D01*
X128815000Y-73985750D01*
X128811928Y-74550000D01*
X128610000Y-74550000D01*
X128610000Y-71160000D01*
X128807815Y-71160000D01*
X128836487Y-71451111D01*
X128921401Y-71731034D01*
X129059294Y-71989014D01*
X129244866Y-72215134D01*
X129274687Y-72239607D01*
X129205820Y-72260498D01*
X129095506Y-72319463D01*
X128998815Y-72398815D01*
X128919463Y-72495506D01*
X128860498Y-72605820D01*
X128824188Y-72725518D01*
X128811928Y-72850000D01*
X128815000Y-73414250D01*
X128973750Y-73573000D01*
X130173000Y-73573000D01*
X130173000Y-73553000D01*
X130427000Y-73553000D01*
X130427000Y-73573000D01*
X131626250Y-73573000D01*
X131785000Y-73414250D01*
X131788072Y-72850000D01*
X131775812Y-72725518D01*
X131739502Y-72605820D01*
X131680537Y-72495506D01*
X131601185Y-72398815D01*
X131504494Y-72319463D01*
X131394180Y-72260498D01*
X131325313Y-72239607D01*
X131355134Y-72215134D01*
X131463090Y-72083589D01*
X134247450Y-72083589D01*
X134314431Y-72796482D01*
X134519204Y-73482609D01*
X134853898Y-74115603D01*
X134872132Y-74142894D01*
X135341314Y-74479081D01*
X137720395Y-72100000D01*
X138079605Y-72100000D01*
X140458686Y-74479081D01*
X140927868Y-74142894D01*
X141190455Y-73656891D01*
X141998519Y-73656891D01*
X142095843Y-73931252D01*
X142244822Y-74181355D01*
X142439731Y-74397588D01*
X142673080Y-74571641D01*
X142935901Y-74696825D01*
X143083110Y-74741476D01*
X143313000Y-74620155D01*
X143313000Y-73427000D01*
X142119186Y-73427000D01*
X141998519Y-73656891D01*
X141190455Y-73656891D01*
X141268237Y-73512932D01*
X141443890Y-72943109D01*
X141998519Y-72943109D01*
X142119186Y-73173000D01*
X143313000Y-73173000D01*
X143313000Y-71979845D01*
X143567000Y-71979845D01*
X143567000Y-73173000D01*
X143587000Y-73173000D01*
X143587000Y-73427000D01*
X143567000Y-73427000D01*
X143567000Y-74620155D01*
X143796890Y-74741476D01*
X143944099Y-74696825D01*
X144206920Y-74571641D01*
X144440269Y-74397588D01*
X144635178Y-74181355D01*
X144704799Y-74064477D01*
X144739294Y-74129014D01*
X144924866Y-74355134D01*
X145150986Y-74540706D01*
X145408966Y-74678599D01*
X145688889Y-74763513D01*
X145907050Y-74785000D01*
X146052950Y-74785000D01*
X146271111Y-74763513D01*
X146551034Y-74678599D01*
X146809014Y-74540706D01*
X147035134Y-74355134D01*
X147220706Y-74129014D01*
X147250000Y-74074209D01*
X147279294Y-74129014D01*
X147464866Y-74355134D01*
X147690986Y-74540706D01*
X147948966Y-74678599D01*
X148228889Y-74763513D01*
X148447050Y-74785000D01*
X148592950Y-74785000D01*
X148811111Y-74763513D01*
X149091034Y-74678599D01*
X149349014Y-74540706D01*
X149575134Y-74355134D01*
X149760706Y-74129014D01*
X149790000Y-74074209D01*
X149819294Y-74129014D01*
X150004866Y-74355134D01*
X150230986Y-74540706D01*
X150488966Y-74678599D01*
X150768889Y-74763513D01*
X150987050Y-74785000D01*
X151132950Y-74785000D01*
X151351111Y-74763513D01*
X151631034Y-74678599D01*
X151889014Y-74540706D01*
X152115134Y-74355134D01*
X152139607Y-74325313D01*
X152160498Y-74394180D01*
X152219463Y-74504494D01*
X152298815Y-74601185D01*
X152395506Y-74680537D01*
X152505820Y-74739502D01*
X152625518Y-74775812D01*
X152750000Y-74788072D01*
X154450000Y-74788072D01*
X154574482Y-74775812D01*
X154694180Y-74739502D01*
X154804494Y-74680537D01*
X154901185Y-74601185D01*
X154980537Y-74504494D01*
X155039502Y-74394180D01*
X155075812Y-74274482D01*
X155088072Y-74150000D01*
X155088072Y-72450000D01*
X155075812Y-72325518D01*
X155039502Y-72205820D01*
X154980537Y-72095506D01*
X154970758Y-72083589D01*
X160247450Y-72083589D01*
X160314431Y-72796482D01*
X160519204Y-73482609D01*
X160853898Y-74115603D01*
X160872132Y-74142894D01*
X161341314Y-74479081D01*
X163720395Y-72100000D01*
X161341314Y-69720919D01*
X160872132Y-70057106D01*
X160531763Y-70687068D01*
X160320834Y-71371327D01*
X160247450Y-72083589D01*
X154970758Y-72083589D01*
X154901185Y-71998815D01*
X154804494Y-71919463D01*
X154694180Y-71860498D01*
X154574482Y-71824188D01*
X154450000Y-71811928D01*
X152750000Y-71811928D01*
X152625518Y-71824188D01*
X152505820Y-71860498D01*
X152395506Y-71919463D01*
X152298815Y-71998815D01*
X152219463Y-72095506D01*
X152160498Y-72205820D01*
X152139607Y-72274687D01*
X152115134Y-72244866D01*
X151889014Y-72059294D01*
X151631034Y-71921401D01*
X151351111Y-71836487D01*
X151132950Y-71815000D01*
X150987050Y-71815000D01*
X150768889Y-71836487D01*
X150488966Y-71921401D01*
X150230986Y-72059294D01*
X150004866Y-72244866D01*
X149819294Y-72470986D01*
X149790000Y-72525791D01*
X149760706Y-72470986D01*
X149575134Y-72244866D01*
X149349014Y-72059294D01*
X149091034Y-71921401D01*
X148811111Y-71836487D01*
X148592950Y-71815000D01*
X148447050Y-71815000D01*
X148228889Y-71836487D01*
X147948966Y-71921401D01*
X147690986Y-72059294D01*
X147464866Y-72244866D01*
X147279294Y-72470986D01*
X147250000Y-72525791D01*
X147220706Y-72470986D01*
X147035134Y-72244866D01*
X146809014Y-72059294D01*
X146551034Y-71921401D01*
X146271111Y-71836487D01*
X146052950Y-71815000D01*
X145907050Y-71815000D01*
X145688889Y-71836487D01*
X145408966Y-71921401D01*
X145150986Y-72059294D01*
X144924866Y-72244866D01*
X144739294Y-72470986D01*
X144704799Y-72535523D01*
X144635178Y-72418645D01*
X144440269Y-72202412D01*
X144206920Y-72028359D01*
X143944099Y-71903175D01*
X143796890Y-71858524D01*
X143567000Y-71979845D01*
X143313000Y-71979845D01*
X143083110Y-71858524D01*
X142935901Y-71903175D01*
X142673080Y-72028359D01*
X142439731Y-72202412D01*
X142244822Y-72418645D01*
X142095843Y-72668748D01*
X141998519Y-72943109D01*
X141443890Y-72943109D01*
X141479166Y-72828673D01*
X141552550Y-72116411D01*
X141485569Y-71403518D01*
X141280796Y-70717391D01*
X140946102Y-70084397D01*
X140927868Y-70057106D01*
X140458686Y-69720919D01*
X138079605Y-72100000D01*
X137720395Y-72100000D01*
X135341314Y-69720919D01*
X134872132Y-70057106D01*
X134531763Y-70687068D01*
X134320834Y-71371327D01*
X134247450Y-72083589D01*
X131463090Y-72083589D01*
X131540706Y-71989014D01*
X131678599Y-71731034D01*
X131763513Y-71451111D01*
X131792185Y-71160000D01*
X131763513Y-70868889D01*
X131678599Y-70588966D01*
X131540706Y-70330986D01*
X131355134Y-70104866D01*
X131129014Y-69919294D01*
X130871034Y-69781401D01*
X130591111Y-69696487D01*
X130372950Y-69675000D01*
X130227050Y-69675000D01*
X130008889Y-69696487D01*
X129728966Y-69781401D01*
X129470986Y-69919294D01*
X129244866Y-70104866D01*
X129059294Y-70330986D01*
X128921401Y-70588966D01*
X128836487Y-70868889D01*
X128807815Y-71160000D01*
X128610000Y-71160000D01*
X128610000Y-69541314D01*
X135520919Y-69541314D01*
X137900000Y-71920395D01*
X140279081Y-69541314D01*
X161520919Y-69541314D01*
X163900000Y-71920395D01*
X166279081Y-69541314D01*
X165942894Y-69072132D01*
X165312932Y-68731763D01*
X164628673Y-68520834D01*
X163916411Y-68447450D01*
X163203518Y-68514431D01*
X162517391Y-68719204D01*
X161884397Y-69053898D01*
X161857106Y-69072132D01*
X161520919Y-69541314D01*
X140279081Y-69541314D01*
X139942894Y-69072132D01*
X139312932Y-68731763D01*
X139174592Y-68689119D01*
X139203937Y-68659774D01*
X139317205Y-68490256D01*
X139395226Y-68301898D01*
X139435000Y-68101939D01*
X139435000Y-68004446D01*
X139992157Y-67447290D01*
X140389061Y-67844195D01*
X140412077Y-67872240D01*
X140523995Y-67964089D01*
X140651681Y-68032339D01*
X140747776Y-68061489D01*
X140840226Y-68153939D01*
X141009744Y-68267207D01*
X141198102Y-68345228D01*
X141398061Y-68385002D01*
X141601939Y-68385002D01*
X141801898Y-68345228D01*
X141990256Y-68267207D01*
X142159774Y-68153939D01*
X142303937Y-68009776D01*
X142417205Y-67840258D01*
X142495226Y-67651900D01*
X142535000Y-67451941D01*
X142535000Y-67248063D01*
X142495226Y-67048104D01*
X142417205Y-66859746D01*
X142303937Y-66690228D01*
X142159774Y-66546065D01*
X141990256Y-66432797D01*
X141801898Y-66354776D01*
X141601939Y-66315002D01*
X141398061Y-66315002D01*
X141198102Y-66354776D01*
X141042845Y-66419086D01*
X141031603Y-66407843D01*
X141694169Y-65745278D01*
X141722209Y-65722266D01*
X141745222Y-65694225D01*
X141745225Y-65694222D01*
X141814058Y-65610349D01*
X141814059Y-65610348D01*
X141882309Y-65482661D01*
X141924337Y-65344113D01*
X141934972Y-65236133D01*
X141934972Y-65236124D01*
X141938527Y-65200029D01*
X141934972Y-65163934D01*
X141934972Y-64028711D01*
X142003909Y-63959774D01*
X142117177Y-63790256D01*
X142195198Y-63601898D01*
X142234972Y-63401939D01*
X142234972Y-63198061D01*
X142195198Y-62998102D01*
X142117177Y-62809744D01*
X142003909Y-62640226D01*
X141934972Y-62571289D01*
X141934972Y-62178755D01*
X142003937Y-62109790D01*
X142117205Y-61940272D01*
X142195226Y-61751914D01*
X142235000Y-61551955D01*
X142235000Y-61348077D01*
X142195226Y-61148118D01*
X142117205Y-60959760D01*
X142003937Y-60790242D01*
X141935000Y-60721305D01*
X141935000Y-58128711D01*
X142003937Y-58059774D01*
X142117205Y-57890256D01*
X142195226Y-57701898D01*
X142235000Y-57501939D01*
X142235000Y-57298061D01*
X142195226Y-57098102D01*
X142117205Y-56909744D01*
X142003937Y-56740226D01*
X141935000Y-56671289D01*
X141935000Y-56178713D01*
X142003937Y-56109776D01*
X142117205Y-55940258D01*
X142195226Y-55751900D01*
X142235000Y-55551941D01*
X142235000Y-55348063D01*
X142195226Y-55148104D01*
X142117205Y-54959746D01*
X142003937Y-54790228D01*
X141935000Y-54721291D01*
X141935000Y-52228711D01*
X142003937Y-52159774D01*
X142117205Y-51990256D01*
X142195226Y-51801898D01*
X142235000Y-51601939D01*
X142235000Y-51398061D01*
X142195226Y-51198102D01*
X142117205Y-51009744D01*
X142003937Y-50840226D01*
X141935000Y-50771289D01*
X141935000Y-47028715D01*
X142003937Y-46959778D01*
X142117205Y-46790260D01*
X142195226Y-46601902D01*
X142235000Y-46401943D01*
X142235000Y-46198065D01*
X142195226Y-45998106D01*
X142117205Y-45809748D01*
X142003937Y-45640230D01*
X141859774Y-45496067D01*
X141690256Y-45382799D01*
X141501898Y-45304778D01*
X141301939Y-45265004D01*
X141098061Y-45265004D01*
X140898102Y-45304778D01*
X140709744Y-45382799D01*
X140540226Y-45496067D01*
X140396063Y-45640230D01*
X140282795Y-45809748D01*
X140204774Y-45998106D01*
X140165000Y-46198065D01*
X140165000Y-46401943D01*
X140204774Y-46601902D01*
X140282795Y-46790260D01*
X140396063Y-46959778D01*
X140465000Y-47028715D01*
X140465001Y-50771288D01*
X140396063Y-50840226D01*
X140282795Y-51009744D01*
X140204774Y-51198102D01*
X140165000Y-51398061D01*
X140165000Y-51601939D01*
X140204774Y-51801898D01*
X140282795Y-51990256D01*
X140396063Y-52159774D01*
X140465001Y-52228712D01*
X140465000Y-54721291D01*
X140396063Y-54790228D01*
X140282795Y-54959746D01*
X140204774Y-55148104D01*
X140165000Y-55348063D01*
X140165000Y-55551941D01*
X140204774Y-55751900D01*
X140282795Y-55940258D01*
X140396063Y-56109776D01*
X140465001Y-56178714D01*
X140465000Y-56671289D01*
X140396063Y-56740226D01*
X140282795Y-56909744D01*
X140204774Y-57098102D01*
X140165000Y-57298061D01*
X140165000Y-57501939D01*
X140204774Y-57701898D01*
X140282795Y-57890256D01*
X140396063Y-58059774D01*
X140465001Y-58128712D01*
X140465000Y-60721305D01*
X140396063Y-60790242D01*
X140282795Y-60959760D01*
X140204774Y-61148118D01*
X140165000Y-61348077D01*
X140165000Y-61551955D01*
X140204774Y-61751914D01*
X140282795Y-61940272D01*
X140396063Y-62109790D01*
X140464973Y-62178700D01*
X140464972Y-62571289D01*
X140396035Y-62640226D01*
X140282767Y-62809744D01*
X140204746Y-62998102D01*
X140164972Y-63198061D01*
X140164972Y-63401939D01*
X140204746Y-63601898D01*
X140282767Y-63790256D01*
X140396035Y-63959774D01*
X140464973Y-64028712D01*
X140464972Y-64895581D01*
X139605811Y-65754743D01*
X139605806Y-65754747D01*
X139605802Y-65754751D01*
X139577763Y-65777762D01*
X139554750Y-65805803D01*
X138395554Y-66965000D01*
X138298061Y-66965000D01*
X138098102Y-67004774D01*
X137909744Y-67082795D01*
X137740226Y-67196063D01*
X137596063Y-67340226D01*
X137482795Y-67509744D01*
X137404774Y-67698102D01*
X137365000Y-67898061D01*
X137365000Y-68101939D01*
X137404774Y-68301898D01*
X137481972Y-68488268D01*
X137203518Y-68514431D01*
X136517391Y-68719204D01*
X135884397Y-69053898D01*
X135857106Y-69072132D01*
X135520919Y-69541314D01*
X128610000Y-69541314D01*
X128610000Y-63590000D01*
X129111928Y-63590000D01*
X129111928Y-65690000D01*
X129124188Y-65814482D01*
X129160498Y-65934180D01*
X129219463Y-66044494D01*
X129298815Y-66141185D01*
X129395506Y-66220537D01*
X129505820Y-66279502D01*
X129625518Y-66315812D01*
X129750000Y-66328072D01*
X131850000Y-66328072D01*
X131974482Y-66315812D01*
X132094180Y-66279502D01*
X132204494Y-66220537D01*
X132301185Y-66141185D01*
X132380537Y-66044494D01*
X132439502Y-65934180D01*
X132475812Y-65814482D01*
X132488072Y-65690000D01*
X132488072Y-63590000D01*
X132475812Y-63465518D01*
X132439502Y-63345820D01*
X132380537Y-63235506D01*
X132301185Y-63138815D01*
X132204494Y-63059463D01*
X132190454Y-63051958D01*
X132293228Y-62898147D01*
X132420246Y-62591496D01*
X132485000Y-62265958D01*
X132485000Y-61934042D01*
X132420246Y-61608504D01*
X132293228Y-61301853D01*
X132108825Y-61025875D01*
X131912950Y-60830000D01*
X132108825Y-60634125D01*
X132293228Y-60358147D01*
X132420246Y-60051496D01*
X132485000Y-59725958D01*
X132485000Y-59394042D01*
X132420246Y-59068504D01*
X132293228Y-58761853D01*
X132108825Y-58485875D01*
X131912950Y-58290000D01*
X132108825Y-58094125D01*
X132293228Y-57818147D01*
X132420246Y-57511496D01*
X132485000Y-57185958D01*
X132485000Y-56854042D01*
X132420246Y-56528504D01*
X132293228Y-56221853D01*
X132108825Y-55945875D01*
X131912950Y-55750000D01*
X132108825Y-55554125D01*
X132293228Y-55278147D01*
X132420246Y-54971496D01*
X132485000Y-54645958D01*
X132485000Y-54314042D01*
X132420246Y-53988504D01*
X132293228Y-53681853D01*
X132108825Y-53405875D01*
X131912950Y-53210000D01*
X132108825Y-53014125D01*
X132293228Y-52738147D01*
X132420246Y-52431496D01*
X132485000Y-52105958D01*
X132485000Y-51774042D01*
X132420246Y-51448504D01*
X132293228Y-51141853D01*
X132108825Y-50865875D01*
X131912950Y-50670000D01*
X132108825Y-50474125D01*
X132293228Y-50198147D01*
X132420246Y-49891496D01*
X132485000Y-49565958D01*
X132485000Y-49234042D01*
X132420246Y-48908504D01*
X132293228Y-48601853D01*
X132108825Y-48325875D01*
X131912950Y-48130000D01*
X132108825Y-47934125D01*
X132293228Y-47658147D01*
X132420246Y-47351496D01*
X132485000Y-47025958D01*
X132485000Y-46694042D01*
X132420246Y-46368504D01*
X132293228Y-46061853D01*
X132108825Y-45785875D01*
X131874125Y-45551175D01*
X131598147Y-45366772D01*
X131291496Y-45239754D01*
X130965958Y-45175000D01*
X130634042Y-45175000D01*
X130308504Y-45239754D01*
X130001853Y-45366772D01*
X129725875Y-45551175D01*
X129491175Y-45785875D01*
X129306772Y-46061853D01*
X129179754Y-46368504D01*
X129115000Y-46694042D01*
X129115000Y-47025958D01*
X129179754Y-47351496D01*
X129306772Y-47658147D01*
X129491175Y-47934125D01*
X129687050Y-48130000D01*
X129491175Y-48325875D01*
X129306772Y-48601853D01*
X129179754Y-48908504D01*
X129115000Y-49234042D01*
X129115000Y-49565958D01*
X129179754Y-49891496D01*
X129306772Y-50198147D01*
X129491175Y-50474125D01*
X129687050Y-50670000D01*
X129491175Y-50865875D01*
X129306772Y-51141853D01*
X129179754Y-51448504D01*
X129115000Y-51774042D01*
X129115000Y-52105958D01*
X129179754Y-52431496D01*
X129306772Y-52738147D01*
X129491175Y-53014125D01*
X129687050Y-53210000D01*
X129491175Y-53405875D01*
X129306772Y-53681853D01*
X129179754Y-53988504D01*
X129115000Y-54314042D01*
X129115000Y-54645958D01*
X129179754Y-54971496D01*
X129306772Y-55278147D01*
X129491175Y-55554125D01*
X129687050Y-55750000D01*
X129491175Y-55945875D01*
X129306772Y-56221853D01*
X129179754Y-56528504D01*
X129115000Y-56854042D01*
X129115000Y-57185958D01*
X129179754Y-57511496D01*
X129306772Y-57818147D01*
X129491175Y-58094125D01*
X129687050Y-58290000D01*
X129491175Y-58485875D01*
X129306772Y-58761853D01*
X129179754Y-59068504D01*
X129115000Y-59394042D01*
X129115000Y-59725958D01*
X129179754Y-60051496D01*
X129306772Y-60358147D01*
X129491175Y-60634125D01*
X129687050Y-60830000D01*
X129491175Y-61025875D01*
X129306772Y-61301853D01*
X129179754Y-61608504D01*
X129115000Y-61934042D01*
X129115000Y-62265958D01*
X129179754Y-62591496D01*
X129306772Y-62898147D01*
X129409546Y-63051958D01*
X129395506Y-63059463D01*
X129298815Y-63138815D01*
X129219463Y-63235506D01*
X129160498Y-63345820D01*
X129124188Y-63465518D01*
X129111928Y-63590000D01*
X128610000Y-63590000D01*
X128610000Y-44898061D01*
X135765000Y-44898061D01*
X135765000Y-45101939D01*
X135804774Y-45301898D01*
X135882795Y-45490256D01*
X135996063Y-45659774D01*
X136140226Y-45803937D01*
X136309744Y-45917205D01*
X136498102Y-45995226D01*
X136698061Y-46035000D01*
X136901939Y-46035000D01*
X137101898Y-45995226D01*
X137290256Y-45917205D01*
X137459774Y-45803937D01*
X137603937Y-45659774D01*
X137717205Y-45490256D01*
X137795226Y-45301898D01*
X137835000Y-45101939D01*
X137835000Y-45004446D01*
X140104447Y-42735000D01*
X143795554Y-42735000D01*
X145665001Y-44604448D01*
X145665000Y-52463895D01*
X145661444Y-52500000D01*
X145665000Y-52536104D01*
X145675635Y-52644084D01*
X145717663Y-52782632D01*
X145785913Y-52910319D01*
X145877762Y-53022237D01*
X145905808Y-53045254D01*
X149165001Y-56304448D01*
X149165000Y-60805592D01*
X148970987Y-60909294D01*
X148744866Y-61094866D01*
X148559294Y-61320986D01*
X148421401Y-61578966D01*
X148336487Y-61858889D01*
X148315000Y-62077050D01*
X148315000Y-62522949D01*
X148336487Y-62741110D01*
X148421401Y-63021033D01*
X148559294Y-63279013D01*
X148744866Y-63505134D01*
X148970986Y-63690706D01*
X149228966Y-63828599D01*
X149508889Y-63913513D01*
X149800000Y-63942185D01*
X150091110Y-63913513D01*
X150371033Y-63828599D01*
X150629013Y-63690706D01*
X150855134Y-63505134D01*
X150907223Y-63441663D01*
X150961595Y-63543386D01*
X151072038Y-63677962D01*
X151206614Y-63788405D01*
X151360150Y-63870472D01*
X151526746Y-63921008D01*
X151700000Y-63938072D01*
X152900000Y-63938072D01*
X153073254Y-63921008D01*
X153239850Y-63870472D01*
X153393386Y-63788405D01*
X153527962Y-63677962D01*
X153638405Y-63543386D01*
X153720472Y-63389850D01*
X153771008Y-63223254D01*
X153788072Y-63050000D01*
X153788072Y-61550000D01*
X153786595Y-61535000D01*
X154021637Y-61535000D01*
X154260236Y-61487540D01*
X154484992Y-61394443D01*
X154687267Y-61259287D01*
X154859287Y-61087267D01*
X154994443Y-60884992D01*
X155087540Y-60660236D01*
X155135000Y-60421637D01*
X155135000Y-60178363D01*
X155087540Y-59939764D01*
X154994443Y-59715008D01*
X154859287Y-59512733D01*
X154687267Y-59340713D01*
X154484992Y-59205557D01*
X154260236Y-59112460D01*
X154021637Y-59065000D01*
X153778363Y-59065000D01*
X153539764Y-59112460D01*
X153315008Y-59205557D01*
X153112733Y-59340713D01*
X152940713Y-59512733D01*
X152865197Y-59625750D01*
X152444999Y-59205553D01*
X152444999Y-56787881D01*
X152974250Y-56785000D01*
X153133000Y-56626250D01*
X153133000Y-55427000D01*
X153113000Y-55427000D01*
X153113000Y-55173000D01*
X153133000Y-55173000D01*
X153133000Y-53973750D01*
X152974250Y-53815000D01*
X152444999Y-53812119D01*
X152444999Y-53294447D01*
X154369182Y-51370265D01*
X154397227Y-51347249D01*
X154489076Y-51235331D01*
X154557326Y-51107644D01*
X154599354Y-50969096D01*
X154609989Y-50861116D01*
X154609989Y-50861107D01*
X154613544Y-50825012D01*
X154609989Y-50788917D01*
X154609989Y-49649435D01*
X158869292Y-53908739D01*
X158631111Y-53836487D01*
X158412950Y-53815000D01*
X158267050Y-53815000D01*
X158048889Y-53836487D01*
X157768966Y-53921401D01*
X157510986Y-54059294D01*
X157284866Y-54244866D01*
X157099294Y-54470986D01*
X157070000Y-54525791D01*
X157040706Y-54470986D01*
X156855134Y-54244866D01*
X156629014Y-54059294D01*
X156371034Y-53921401D01*
X156091111Y-53836487D01*
X155872950Y-53815000D01*
X155727050Y-53815000D01*
X155508889Y-53836487D01*
X155228966Y-53921401D01*
X154970986Y-54059294D01*
X154744866Y-54244866D01*
X154720393Y-54274687D01*
X154699502Y-54205820D01*
X154640537Y-54095506D01*
X154561185Y-53998815D01*
X154464494Y-53919463D01*
X154354180Y-53860498D01*
X154234482Y-53824188D01*
X154110000Y-53811928D01*
X153545750Y-53815000D01*
X153387000Y-53973750D01*
X153387000Y-55173000D01*
X153407000Y-55173000D01*
X153407000Y-55427000D01*
X153387000Y-55427000D01*
X153387000Y-56626250D01*
X153545750Y-56785000D01*
X154110000Y-56788072D01*
X154234482Y-56775812D01*
X154354180Y-56739502D01*
X154464494Y-56680537D01*
X154561185Y-56601185D01*
X154640537Y-56504494D01*
X154699502Y-56394180D01*
X154720393Y-56325313D01*
X154744866Y-56355134D01*
X154970986Y-56540706D01*
X155228966Y-56678599D01*
X155508889Y-56763513D01*
X155727050Y-56785000D01*
X155872950Y-56785000D01*
X156091111Y-56763513D01*
X156371034Y-56678599D01*
X156629014Y-56540706D01*
X156855134Y-56355134D01*
X157040706Y-56129014D01*
X157070000Y-56074209D01*
X157099294Y-56129014D01*
X157284866Y-56355134D01*
X157510986Y-56540706D01*
X157768966Y-56678599D01*
X158048889Y-56763513D01*
X158267050Y-56785000D01*
X158412950Y-56785000D01*
X158631111Y-56763513D01*
X158911034Y-56678599D01*
X159169014Y-56540706D01*
X159395134Y-56355134D01*
X159580706Y-56129014D01*
X159610000Y-56074209D01*
X159639294Y-56129014D01*
X159824866Y-56355134D01*
X160050986Y-56540706D01*
X160308966Y-56678599D01*
X160588889Y-56763513D01*
X160807050Y-56785000D01*
X160952950Y-56785000D01*
X160978023Y-56782531D01*
X159795554Y-57965000D01*
X158428711Y-57965000D01*
X158359774Y-57896063D01*
X158190256Y-57782795D01*
X158001898Y-57704774D01*
X157801939Y-57665000D01*
X157598061Y-57665000D01*
X157398102Y-57704774D01*
X157209744Y-57782795D01*
X157040226Y-57896063D01*
X156896063Y-58040226D01*
X156782795Y-58209744D01*
X156704774Y-58398102D01*
X156665000Y-58598061D01*
X156665000Y-58801939D01*
X156704774Y-59001898D01*
X156782795Y-59190256D01*
X156896063Y-59359774D01*
X157040226Y-59503937D01*
X157209744Y-59617205D01*
X157398102Y-59695226D01*
X157598061Y-59735000D01*
X157801939Y-59735000D01*
X158001898Y-59695226D01*
X158190256Y-59617205D01*
X158359774Y-59503937D01*
X158428711Y-59435000D01*
X160063895Y-59435000D01*
X160100000Y-59438556D01*
X160136105Y-59435000D01*
X160244085Y-59424365D01*
X160382633Y-59382337D01*
X160510320Y-59314087D01*
X160622238Y-59222238D01*
X160645258Y-59194188D01*
X162400313Y-57439133D01*
X162977972Y-57439133D01*
X163040465Y-57675450D01*
X163283178Y-57788850D01*
X163543349Y-57852719D01*
X163810982Y-57864604D01*
X164075791Y-57824048D01*
X164093523Y-57817609D01*
X164894038Y-57817609D01*
X164897909Y-57855282D01*
X164990079Y-58080533D01*
X165124422Y-58283474D01*
X165295775Y-58456307D01*
X165497554Y-58592390D01*
X165722004Y-58686493D01*
X165960500Y-58735000D01*
X166310500Y-58735000D01*
X166310500Y-57627000D01*
X165018769Y-57627000D01*
X164894038Y-57817609D01*
X164093523Y-57817609D01*
X164327600Y-57732609D01*
X164434535Y-57675450D01*
X164497028Y-57439133D01*
X163737500Y-56679605D01*
X162977972Y-57439133D01*
X162400313Y-57439133D01*
X162625605Y-57213842D01*
X162798367Y-57259528D01*
X163557895Y-56500000D01*
X163917105Y-56500000D01*
X164676633Y-57259528D01*
X164904997Y-57199138D01*
X165018769Y-57373000D01*
X166310500Y-57373000D01*
X166310500Y-56265000D01*
X165960500Y-56265000D01*
X165722004Y-56313507D01*
X165497554Y-56407610D01*
X165295775Y-56543693D01*
X165124422Y-56716526D01*
X165061329Y-56811836D01*
X165090219Y-56694151D01*
X165102104Y-56426518D01*
X165061548Y-56161709D01*
X164970109Y-55909900D01*
X164912950Y-55802965D01*
X164676633Y-55740472D01*
X163917105Y-56500000D01*
X163557895Y-56500000D01*
X163543753Y-56485858D01*
X163723358Y-56306253D01*
X163737500Y-56320395D01*
X164497028Y-55560867D01*
X164434535Y-55324550D01*
X164191822Y-55211150D01*
X163931651Y-55147281D01*
X163664018Y-55135396D01*
X163399209Y-55175952D01*
X163147400Y-55267391D01*
X163065001Y-55311435D01*
X163065001Y-53866106D01*
X163068557Y-53830001D01*
X163054366Y-53685916D01*
X163012338Y-53547367D01*
X162944088Y-53419681D01*
X162875254Y-53335807D01*
X162852239Y-53307763D01*
X162824194Y-53284747D01*
X162235000Y-52695554D01*
X162235000Y-52598061D01*
X162203388Y-52439133D01*
X162977972Y-52439133D01*
X163040465Y-52675450D01*
X163283178Y-52788850D01*
X163543349Y-52852719D01*
X163810982Y-52864604D01*
X164075791Y-52824048D01*
X164327600Y-52732609D01*
X164434535Y-52675450D01*
X164497028Y-52439133D01*
X163737500Y-51679605D01*
X162977972Y-52439133D01*
X162203388Y-52439133D01*
X162195226Y-52398102D01*
X162117205Y-52209744D01*
X162003937Y-52040226D01*
X161859774Y-51896063D01*
X161690256Y-51782795D01*
X161501898Y-51704774D01*
X161301939Y-51665000D01*
X161098061Y-51665000D01*
X160898102Y-51704774D01*
X160709744Y-51782795D01*
X160540226Y-51896063D01*
X160396063Y-52040226D01*
X160282795Y-52209744D01*
X160204774Y-52398102D01*
X160165000Y-52598061D01*
X160165000Y-52801939D01*
X160204774Y-53001898D01*
X160282795Y-53190256D01*
X160389704Y-53350257D01*
X158612929Y-51573482D01*
X162372896Y-51573482D01*
X162413452Y-51838291D01*
X162504891Y-52090100D01*
X162562050Y-52197035D01*
X162798367Y-52259528D01*
X163557895Y-51500000D01*
X163917105Y-51500000D01*
X164676633Y-52259528D01*
X164912950Y-52197035D01*
X165026350Y-51954322D01*
X165090219Y-51694151D01*
X165102104Y-51426518D01*
X165066885Y-51196558D01*
X165124422Y-51283474D01*
X165295775Y-51456307D01*
X165497554Y-51592390D01*
X165722004Y-51686493D01*
X165960500Y-51735000D01*
X166310500Y-51735000D01*
X166310500Y-50627000D01*
X165018769Y-50627000D01*
X164904997Y-50800862D01*
X164676633Y-50740472D01*
X163917105Y-51500000D01*
X163557895Y-51500000D01*
X162798367Y-50740472D01*
X162562050Y-50802965D01*
X162448650Y-51045678D01*
X162384781Y-51305849D01*
X162372896Y-51573482D01*
X158612929Y-51573482D01*
X157600314Y-50560867D01*
X162977972Y-50560867D01*
X163737500Y-51320395D01*
X164497028Y-50560867D01*
X164434535Y-50324550D01*
X164191822Y-50211150D01*
X164074672Y-50182391D01*
X164894038Y-50182391D01*
X165018769Y-50373000D01*
X166310500Y-50373000D01*
X166310500Y-49265000D01*
X165960500Y-49265000D01*
X165722004Y-49313507D01*
X165497554Y-49407610D01*
X165295775Y-49543693D01*
X165124422Y-49716526D01*
X164990079Y-49919467D01*
X164897909Y-50144718D01*
X164894038Y-50182391D01*
X164074672Y-50182391D01*
X163931651Y-50147281D01*
X163664018Y-50135396D01*
X163399209Y-50175952D01*
X163147400Y-50267391D01*
X163040465Y-50324550D01*
X162977972Y-50560867D01*
X157600314Y-50560867D01*
X156018721Y-48979274D01*
X156071482Y-48851898D01*
X156111256Y-48651939D01*
X156111256Y-48448061D01*
X156071482Y-48248102D01*
X155993461Y-48059744D01*
X155880193Y-47890226D01*
X155811256Y-47821289D01*
X155811256Y-46850000D01*
X162061928Y-46850000D01*
X162074188Y-46974482D01*
X162110498Y-47094180D01*
X162169463Y-47204494D01*
X162248815Y-47301185D01*
X162345506Y-47380537D01*
X162455820Y-47439502D01*
X162575518Y-47475812D01*
X162700000Y-47488072D01*
X163414250Y-47485000D01*
X163573000Y-47326250D01*
X163573000Y-46127000D01*
X163827000Y-46127000D01*
X163827000Y-47326250D01*
X163985750Y-47485000D01*
X164465000Y-47487061D01*
X164465000Y-47721637D01*
X164512460Y-47960236D01*
X164605557Y-48184992D01*
X164740713Y-48387267D01*
X164912733Y-48559287D01*
X165115008Y-48694443D01*
X165339764Y-48787540D01*
X165578363Y-48835000D01*
X165821637Y-48835000D01*
X166060236Y-48787540D01*
X166284992Y-48694443D01*
X166487267Y-48559287D01*
X166659287Y-48387267D01*
X166794443Y-48184992D01*
X166887540Y-47960236D01*
X166935000Y-47721637D01*
X166935000Y-47478363D01*
X166887540Y-47239764D01*
X166794443Y-47015008D01*
X166659287Y-46812733D01*
X166487267Y-46640713D01*
X166284992Y-46505557D01*
X166060236Y-46412460D01*
X165821637Y-46365000D01*
X165578363Y-46365000D01*
X165339764Y-46412460D01*
X165335699Y-46414144D01*
X165335000Y-46285750D01*
X165176250Y-46127000D01*
X163827000Y-46127000D01*
X163573000Y-46127000D01*
X162223750Y-46127000D01*
X162065000Y-46285750D01*
X162061928Y-46850000D01*
X155811256Y-46850000D01*
X155811256Y-45557179D01*
X155814812Y-45521074D01*
X155810045Y-45472672D01*
X155809999Y-45472206D01*
X155809999Y-44466976D01*
X155813554Y-44430881D01*
X155809999Y-44394786D01*
X155809999Y-44394777D01*
X155799364Y-44286797D01*
X155757336Y-44148249D01*
X155689086Y-44020562D01*
X155597237Y-43908644D01*
X155569186Y-43885623D01*
X155460000Y-43776437D01*
X155460000Y-43500000D01*
X162057815Y-43500000D01*
X162086487Y-43791111D01*
X162171401Y-44071034D01*
X162309294Y-44329014D01*
X162490608Y-44549945D01*
X162455820Y-44560498D01*
X162345506Y-44619463D01*
X162248815Y-44698815D01*
X162169463Y-44795506D01*
X162110498Y-44905820D01*
X162074188Y-45025518D01*
X162061928Y-45150000D01*
X162065000Y-45714250D01*
X162223750Y-45873000D01*
X163573000Y-45873000D01*
X163573000Y-45853000D01*
X163827000Y-45853000D01*
X163827000Y-45873000D01*
X165176250Y-45873000D01*
X165335000Y-45714250D01*
X165338072Y-45150000D01*
X165325812Y-45025518D01*
X165289502Y-44905820D01*
X165230537Y-44795506D01*
X165151185Y-44698815D01*
X165054494Y-44619463D01*
X164944180Y-44560498D01*
X164909392Y-44549945D01*
X165090706Y-44329014D01*
X165228599Y-44071034D01*
X165313513Y-43791111D01*
X165342185Y-43500000D01*
X165313513Y-43208889D01*
X165228599Y-42928966D01*
X165090706Y-42670986D01*
X164905134Y-42444866D01*
X164679014Y-42259294D01*
X164421034Y-42121401D01*
X164141111Y-42036487D01*
X163922950Y-42015000D01*
X163477050Y-42015000D01*
X163258889Y-42036487D01*
X162978966Y-42121401D01*
X162720986Y-42259294D01*
X162494866Y-42444866D01*
X162309294Y-42670986D01*
X162171401Y-42928966D01*
X162086487Y-43208889D01*
X162057815Y-43500000D01*
X155460000Y-43500000D01*
X155460000Y-43428711D01*
X155528937Y-43359774D01*
X155642205Y-43190256D01*
X155720226Y-43001898D01*
X155760000Y-42801939D01*
X155760000Y-42598061D01*
X155720226Y-42398102D01*
X155642205Y-42209744D01*
X155528937Y-42040226D01*
X155384774Y-41896063D01*
X155215256Y-41782795D01*
X155026898Y-41704774D01*
X154826939Y-41665000D01*
X154623061Y-41665000D01*
X154423102Y-41704774D01*
X154234744Y-41782795D01*
X154065226Y-41896063D01*
X153921063Y-42040226D01*
X153807795Y-42209744D01*
X153729774Y-42398102D01*
X153690000Y-42598061D01*
X153690000Y-42801939D01*
X153729774Y-43001898D01*
X153807795Y-43190256D01*
X153921063Y-43359774D01*
X153990000Y-43428711D01*
X153990000Y-44003506D01*
X153035000Y-43048507D01*
X153035000Y-41128711D01*
X153103937Y-41059774D01*
X153217205Y-40890256D01*
X153295226Y-40701898D01*
X153335000Y-40501939D01*
X153335000Y-40298061D01*
X153295226Y-40098102D01*
X153217205Y-39909744D01*
X153103937Y-39740226D01*
X152959774Y-39596063D01*
X152790256Y-39482795D01*
X152601898Y-39404774D01*
X152401939Y-39365000D01*
X152198061Y-39365000D01*
X151998102Y-39404774D01*
X151809744Y-39482795D01*
X151640226Y-39596063D01*
X151496063Y-39740226D01*
X151382795Y-39909744D01*
X151304774Y-40098102D01*
X151265000Y-40298061D01*
X151265000Y-40501939D01*
X151304774Y-40701898D01*
X151382795Y-40890256D01*
X151496063Y-41059774D01*
X151565000Y-41128711D01*
X151565001Y-43297147D01*
X151494085Y-43275635D01*
X151386105Y-43265000D01*
X151350000Y-43261444D01*
X151313895Y-43265000D01*
X150828711Y-43265000D01*
X150759774Y-43196063D01*
X150590256Y-43082795D01*
X150401898Y-43004774D01*
X150201939Y-42965000D01*
X149998061Y-42965000D01*
X149798102Y-43004774D01*
X149609744Y-43082795D01*
X149440226Y-43196063D01*
X149296063Y-43340226D01*
X149182795Y-43509744D01*
X149104774Y-43698102D01*
X149065000Y-43898061D01*
X149065000Y-44101939D01*
X149104774Y-44301898D01*
X149182795Y-44490256D01*
X149296063Y-44659774D01*
X149440226Y-44803937D01*
X149609744Y-44917205D01*
X149798102Y-44995226D01*
X149998061Y-45035000D01*
X150201939Y-45035000D01*
X150401898Y-44995226D01*
X150590256Y-44917205D01*
X150759774Y-44803937D01*
X150828711Y-44735000D01*
X151045554Y-44735000D01*
X151115000Y-44804446D01*
X151115000Y-44901939D01*
X151154774Y-45101898D01*
X151232795Y-45290256D01*
X151346063Y-45459774D01*
X151490226Y-45603937D01*
X151659744Y-45717205D01*
X151848102Y-45795226D01*
X152048061Y-45835000D01*
X152251939Y-45835000D01*
X152451898Y-45795226D01*
X152640256Y-45717205D01*
X152809774Y-45603937D01*
X152953937Y-45459774D01*
X153067205Y-45290256D01*
X153105472Y-45197872D01*
X153139989Y-45232389D01*
X153139990Y-50520563D01*
X151215807Y-52444747D01*
X151187761Y-52467764D01*
X151095912Y-52579682D01*
X151027662Y-52707369D01*
X150998975Y-52801939D01*
X150985634Y-52845916D01*
X150971443Y-52990001D01*
X150974999Y-53026106D01*
X150975000Y-59473884D01*
X150971443Y-59509999D01*
X150985634Y-59654084D01*
X151026768Y-59789680D01*
X151027663Y-59792632D01*
X151095913Y-59920319D01*
X151187762Y-60032237D01*
X151215807Y-60055253D01*
X151665000Y-60504447D01*
X151665000Y-60665375D01*
X151526746Y-60678992D01*
X151360150Y-60729528D01*
X151206614Y-60811595D01*
X151072038Y-60922038D01*
X150961595Y-61056614D01*
X150907223Y-61158337D01*
X150855134Y-61094866D01*
X150635000Y-60914207D01*
X150635000Y-56036094D01*
X150638555Y-55999999D01*
X150635000Y-55963904D01*
X150635000Y-55963895D01*
X150624365Y-55855915D01*
X150582337Y-55717367D01*
X150514087Y-55589680D01*
X150422238Y-55477762D01*
X150394193Y-55454746D01*
X147135000Y-52195554D01*
X147135000Y-44336094D01*
X147138555Y-44299999D01*
X147135000Y-44263904D01*
X147135000Y-44263895D01*
X147124365Y-44155915D01*
X147082337Y-44017367D01*
X147014087Y-43889680D01*
X146922238Y-43777762D01*
X146894193Y-43754746D01*
X144645259Y-41505812D01*
X144622238Y-41477762D01*
X144510320Y-41385913D01*
X144382633Y-41317663D01*
X144244085Y-41275635D01*
X144136105Y-41265000D01*
X144100000Y-41261444D01*
X144063895Y-41265000D01*
X139836105Y-41265000D01*
X139800000Y-41261444D01*
X139655915Y-41275635D01*
X139517366Y-41317663D01*
X139389680Y-41385913D01*
X139277762Y-41477762D01*
X139254746Y-41505807D01*
X136795554Y-43965000D01*
X136698061Y-43965000D01*
X136498102Y-44004774D01*
X136309744Y-44082795D01*
X136140226Y-44196063D01*
X135996063Y-44340226D01*
X135882795Y-44509744D01*
X135804774Y-44698102D01*
X135765000Y-44898061D01*
X128610000Y-44898061D01*
X128610000Y-36900000D01*
X130157815Y-36900000D01*
X130186487Y-37191111D01*
X130271401Y-37471034D01*
X130409294Y-37729014D01*
X130594866Y-37955134D01*
X130820986Y-38140706D01*
X131078966Y-38278599D01*
X131358889Y-38363513D01*
X131577050Y-38385000D01*
X132022950Y-38385000D01*
X132241111Y-38363513D01*
X132521034Y-38278599D01*
X132779014Y-38140706D01*
X133005134Y-37955134D01*
X133190706Y-37729014D01*
X133228297Y-37658686D01*
X135520919Y-37658686D01*
X135857106Y-38127868D01*
X136487068Y-38468237D01*
X137171327Y-38679166D01*
X137883589Y-38752550D01*
X138596482Y-38685569D01*
X139282609Y-38480796D01*
X139628208Y-38298061D01*
X148665000Y-38298061D01*
X148665000Y-38501939D01*
X148704774Y-38701898D01*
X148782795Y-38890256D01*
X148896063Y-39059774D01*
X149040226Y-39203937D01*
X149209744Y-39317205D01*
X149398102Y-39395226D01*
X149598061Y-39435000D01*
X149801939Y-39435000D01*
X150001898Y-39395226D01*
X150190256Y-39317205D01*
X150359774Y-39203937D01*
X150428711Y-39135000D01*
X153371289Y-39135000D01*
X153440226Y-39203937D01*
X153609744Y-39317205D01*
X153798102Y-39395226D01*
X153998061Y-39435000D01*
X154201939Y-39435000D01*
X154401898Y-39395226D01*
X154590256Y-39317205D01*
X154759774Y-39203937D01*
X154903937Y-39059774D01*
X155017205Y-38890256D01*
X155095226Y-38701898D01*
X155135000Y-38501939D01*
X155135000Y-38298061D01*
X155095226Y-38098102D01*
X155017205Y-37909744D01*
X154903937Y-37740226D01*
X154822397Y-37658686D01*
X161520919Y-37658686D01*
X161857106Y-38127868D01*
X162487068Y-38468237D01*
X163171327Y-38679166D01*
X163883589Y-38752550D01*
X164596482Y-38685569D01*
X165282609Y-38480796D01*
X165915603Y-38146102D01*
X165942894Y-38127868D01*
X166279081Y-37658686D01*
X163900000Y-35279605D01*
X161520919Y-37658686D01*
X154822397Y-37658686D01*
X154759774Y-37596063D01*
X154590256Y-37482795D01*
X154401898Y-37404774D01*
X154201939Y-37365000D01*
X153998061Y-37365000D01*
X153798102Y-37404774D01*
X153609744Y-37482795D01*
X153440226Y-37596063D01*
X153371289Y-37665000D01*
X150428711Y-37665000D01*
X150359774Y-37596063D01*
X150190256Y-37482795D01*
X150001898Y-37404774D01*
X149801939Y-37365000D01*
X149598061Y-37365000D01*
X149398102Y-37404774D01*
X149209744Y-37482795D01*
X149040226Y-37596063D01*
X148896063Y-37740226D01*
X148782795Y-37909744D01*
X148704774Y-38098102D01*
X148665000Y-38298061D01*
X139628208Y-38298061D01*
X139915603Y-38146102D01*
X139942894Y-38127868D01*
X140279081Y-37658686D01*
X137900000Y-35279605D01*
X135520919Y-37658686D01*
X133228297Y-37658686D01*
X133328599Y-37471034D01*
X133413513Y-37191111D01*
X133442185Y-36900000D01*
X133413513Y-36608889D01*
X133328599Y-36328966D01*
X133190706Y-36070986D01*
X133009392Y-35850055D01*
X133044180Y-35839502D01*
X133154494Y-35780537D01*
X133251185Y-35701185D01*
X133330537Y-35604494D01*
X133389502Y-35494180D01*
X133425812Y-35374482D01*
X133438072Y-35250000D01*
X133437166Y-35083589D01*
X134247450Y-35083589D01*
X134314431Y-35796482D01*
X134519204Y-36482609D01*
X134853898Y-37115603D01*
X134872132Y-37142894D01*
X135341314Y-37479081D01*
X137720395Y-35100000D01*
X138079605Y-35100000D01*
X140458686Y-37479081D01*
X140927868Y-37142894D01*
X141268237Y-36512932D01*
X141479166Y-35828673D01*
X141552550Y-35116411D01*
X141485569Y-34403518D01*
X141382119Y-34056891D01*
X146678519Y-34056891D01*
X146775843Y-34331252D01*
X146924822Y-34581355D01*
X147119731Y-34797588D01*
X147353080Y-34971641D01*
X147615901Y-35096825D01*
X147763110Y-35141476D01*
X147993000Y-35020155D01*
X147993000Y-33827000D01*
X146799186Y-33827000D01*
X146678519Y-34056891D01*
X141382119Y-34056891D01*
X141280796Y-33717391D01*
X141082896Y-33343109D01*
X146678519Y-33343109D01*
X146799186Y-33573000D01*
X147993000Y-33573000D01*
X147993000Y-32379845D01*
X148247000Y-32379845D01*
X148247000Y-33573000D01*
X148267000Y-33573000D01*
X148267000Y-33827000D01*
X148247000Y-33827000D01*
X148247000Y-35020155D01*
X148476890Y-35141476D01*
X148624099Y-35096825D01*
X148886920Y-34971641D01*
X149120269Y-34797588D01*
X149315178Y-34581355D01*
X149384799Y-34464477D01*
X149419294Y-34529014D01*
X149604866Y-34755134D01*
X149830986Y-34940706D01*
X150088966Y-35078599D01*
X150368889Y-35163513D01*
X150587050Y-35185000D01*
X150732950Y-35185000D01*
X150951111Y-35163513D01*
X151231034Y-35078599D01*
X151489014Y-34940706D01*
X151715134Y-34755134D01*
X151739607Y-34725313D01*
X151760498Y-34794180D01*
X151819463Y-34904494D01*
X151898815Y-35001185D01*
X151995506Y-35080537D01*
X152105820Y-35139502D01*
X152225518Y-35175812D01*
X152350000Y-35188072D01*
X154050000Y-35188072D01*
X154174482Y-35175812D01*
X154294180Y-35139502D01*
X154398784Y-35083589D01*
X160247450Y-35083589D01*
X160314431Y-35796482D01*
X160519204Y-36482609D01*
X160853898Y-37115603D01*
X160872132Y-37142894D01*
X161341314Y-37479081D01*
X163720395Y-35100000D01*
X161341314Y-32720919D01*
X160872132Y-33057106D01*
X160531763Y-33687068D01*
X160320834Y-34371327D01*
X160247450Y-35083589D01*
X154398784Y-35083589D01*
X154404494Y-35080537D01*
X154501185Y-35001185D01*
X154580537Y-34904494D01*
X154639502Y-34794180D01*
X154675812Y-34674482D01*
X154688072Y-34550000D01*
X154688072Y-32850000D01*
X154675812Y-32725518D01*
X154639502Y-32605820D01*
X154580537Y-32495506D01*
X154501185Y-32398815D01*
X154404494Y-32319463D01*
X154294180Y-32260498D01*
X154174482Y-32224188D01*
X154050000Y-32211928D01*
X152350000Y-32211928D01*
X152225518Y-32224188D01*
X152105820Y-32260498D01*
X151995506Y-32319463D01*
X151898815Y-32398815D01*
X151819463Y-32495506D01*
X151760498Y-32605820D01*
X151739607Y-32674687D01*
X151715134Y-32644866D01*
X151489014Y-32459294D01*
X151231034Y-32321401D01*
X150951111Y-32236487D01*
X150732950Y-32215000D01*
X150587050Y-32215000D01*
X150368889Y-32236487D01*
X150088966Y-32321401D01*
X149830986Y-32459294D01*
X149604866Y-32644866D01*
X149419294Y-32870986D01*
X149384799Y-32935523D01*
X149315178Y-32818645D01*
X149120269Y-32602412D01*
X148886920Y-32428359D01*
X148624099Y-32303175D01*
X148476890Y-32258524D01*
X148247000Y-32379845D01*
X147993000Y-32379845D01*
X147763110Y-32258524D01*
X147615901Y-32303175D01*
X147353080Y-32428359D01*
X147119731Y-32602412D01*
X146924822Y-32818645D01*
X146775843Y-33068748D01*
X146678519Y-33343109D01*
X141082896Y-33343109D01*
X140946102Y-33084397D01*
X140927868Y-33057106D01*
X140458686Y-32720919D01*
X138079605Y-35100000D01*
X137720395Y-35100000D01*
X135341314Y-32720919D01*
X134872132Y-33057106D01*
X134531763Y-33687068D01*
X134320834Y-34371327D01*
X134247450Y-35083589D01*
X133437166Y-35083589D01*
X133435000Y-34685750D01*
X133276250Y-34527000D01*
X131927000Y-34527000D01*
X131927000Y-34547000D01*
X131673000Y-34547000D01*
X131673000Y-34527000D01*
X130323750Y-34527000D01*
X130165000Y-34685750D01*
X130161928Y-35250000D01*
X130174188Y-35374482D01*
X130210498Y-35494180D01*
X130269463Y-35604494D01*
X130348815Y-35701185D01*
X130445506Y-35780537D01*
X130555820Y-35839502D01*
X130590608Y-35850055D01*
X130409294Y-36070986D01*
X130271401Y-36328966D01*
X130186487Y-36608889D01*
X130157815Y-36900000D01*
X128610000Y-36900000D01*
X128610000Y-33147869D01*
X128612460Y-33160236D01*
X128705557Y-33384992D01*
X128840713Y-33587267D01*
X129012733Y-33759287D01*
X129215008Y-33894443D01*
X129439764Y-33987540D01*
X129678363Y-34035000D01*
X129921637Y-34035000D01*
X130160236Y-33987540D01*
X130164301Y-33985856D01*
X130165000Y-34114250D01*
X130323750Y-34273000D01*
X131673000Y-34273000D01*
X131673000Y-33073750D01*
X131927000Y-33073750D01*
X131927000Y-34273000D01*
X133276250Y-34273000D01*
X133435000Y-34114250D01*
X133438072Y-33550000D01*
X133425812Y-33425518D01*
X133389502Y-33305820D01*
X133330537Y-33195506D01*
X133251185Y-33098815D01*
X133154494Y-33019463D01*
X133044180Y-32960498D01*
X132924482Y-32924188D01*
X132800000Y-32911928D01*
X132085750Y-32915000D01*
X131927000Y-33073750D01*
X131673000Y-33073750D01*
X131514250Y-32915000D01*
X131035000Y-32912939D01*
X131035000Y-32678363D01*
X130987540Y-32439764D01*
X130894443Y-32215008D01*
X130759287Y-32012733D01*
X130587267Y-31840713D01*
X130541302Y-31810000D01*
X136345672Y-31810000D01*
X135884397Y-32053898D01*
X135884397Y-32053898D01*
G37*
X135884397Y-32053898D02*
X135857106Y-32072132D01*
X135520919Y-32541314D01*
X137900000Y-34920395D01*
X140279081Y-32541314D01*
X139942894Y-32072132D01*
X139457735Y-31810000D01*
X162345672Y-31810000D01*
X161884397Y-32053898D01*
X161857106Y-32072132D01*
X161520919Y-32541314D01*
X163900000Y-34920395D01*
X166279081Y-32541314D01*
X165942894Y-32072132D01*
X165457735Y-31810000D01*
X167190000Y-31810000D01*
X167190000Y-33545672D01*
X166946102Y-33084397D01*
X166927868Y-33057106D01*
X166458686Y-32720919D01*
X164079605Y-35100000D01*
X166458686Y-37479081D01*
X166927868Y-37142894D01*
X167190000Y-36657734D01*
X167190000Y-49329021D01*
X167152996Y-49313507D01*
X166914500Y-49265000D01*
X166564500Y-49265000D01*
X166564500Y-50373000D01*
X166584500Y-50373000D01*
X166584500Y-50627000D01*
X166564500Y-50627000D01*
X166564500Y-51735000D01*
X166914500Y-51735000D01*
X167152996Y-51686493D01*
X167190000Y-51670978D01*
X167190001Y-56329022D01*
X167152996Y-56313507D01*
X166914500Y-56265000D01*
X166564500Y-56265000D01*
X166564500Y-57373000D01*
X166584500Y-57373000D01*
X166584500Y-57627000D01*
X166564500Y-57627000D01*
X166564500Y-58735000D01*
X166914500Y-58735000D01*
X167152996Y-58686493D01*
X167190001Y-58670978D01*
X167190001Y-60199490D01*
X167163185Y-60166815D01*
X167066494Y-60087463D01*
X166956180Y-60028498D01*
X166836482Y-59992188D01*
X166712000Y-59979928D01*
X165012000Y-59979928D01*
X164887518Y-59992188D01*
X164767820Y-60028498D01*
X164657506Y-60087463D01*
X164560815Y-60166815D01*
X164481463Y-60263506D01*
X164422498Y-60373820D01*
X164386188Y-60493518D01*
X164373928Y-60618000D01*
X164373928Y-62318000D01*
X164386188Y-62442482D01*
X164422498Y-62562180D01*
X164481463Y-62672494D01*
X164560815Y-62769185D01*
X164657506Y-62848537D01*
X164767820Y-62907502D01*
X164848466Y-62931966D01*
X164764412Y-63007731D01*
X164590359Y-63241080D01*
X164465175Y-63503901D01*
X164420524Y-63651110D01*
X164541845Y-63881000D01*
X165735000Y-63881000D01*
X165735000Y-63861000D01*
X165989000Y-63861000D01*
X165989000Y-63881000D01*
X166009000Y-63881000D01*
X166009000Y-64135000D01*
X165989000Y-64135000D01*
X165989000Y-64155000D01*
X165735000Y-64155000D01*
X165735000Y-64135000D01*
X164541845Y-64135000D01*
X164420524Y-64364890D01*
X164465175Y-64512099D01*
X164590359Y-64774920D01*
X164764412Y-65008269D01*
X164980645Y-65203178D01*
X165097523Y-65272799D01*
X165032986Y-65307294D01*
X164806866Y-65492866D01*
X164621294Y-65718986D01*
X164483401Y-65976966D01*
X164398487Y-66256889D01*
X164369815Y-66548000D01*
X164398487Y-66839111D01*
X164483401Y-67119034D01*
X164621294Y-67377014D01*
X164806866Y-67603134D01*
X165032986Y-67788706D01*
X165290966Y-67926599D01*
X165570889Y-68011513D01*
X165789050Y-68033000D01*
X165934950Y-68033000D01*
X166153111Y-68011513D01*
X166433034Y-67926599D01*
X166691014Y-67788706D01*
X166917134Y-67603134D01*
X167102706Y-67377014D01*
X167190001Y-67213697D01*
X167190001Y-70545674D01*
X166946102Y-70084397D01*
X166927868Y-70057106D01*
X166458686Y-69720919D01*
X164079605Y-72100000D01*
X166458686Y-74479081D01*
X166927868Y-74142894D01*
X167190001Y-73657733D01*
X167190001Y-75390000D01*
X165454328Y-75390000D01*
X165915603Y-75146102D01*
X165942894Y-75127868D01*
X166279081Y-74658686D01*
X163900000Y-72279605D01*
X161520919Y-74658686D01*
X161857106Y-75127868D01*
X162342265Y-75390000D01*
X139454328Y-75390000D01*
X139915603Y-75146102D01*
X139942894Y-75127868D01*
X140279081Y-74658686D01*
X137900000Y-72279605D01*
X135520919Y-74658686D01*
X135857106Y-75127868D01*
X136342265Y-75390000D01*
X128610000Y-75390000D01*
X128610000Y-74550000D01*
X128811928Y-74550000D01*
X128824188Y-74674482D01*
X128860498Y-74794180D01*
X128919463Y-74904494D01*
X128998815Y-75001185D01*
X129095506Y-75080537D01*
X129205820Y-75139502D01*
X129325518Y-75175812D01*
X129450000Y-75188072D01*
X130014250Y-75185000D01*
X130173000Y-75026250D01*
X130173000Y-73827000D01*
X130427000Y-73827000D01*
X130427000Y-75026250D01*
X130585750Y-75185000D01*
X131150000Y-75188072D01*
X131274482Y-75175812D01*
X131394180Y-75139502D01*
X131504494Y-75080537D01*
X131601185Y-75001185D01*
X131680537Y-74904494D01*
X131739502Y-74794180D01*
X131775812Y-74674482D01*
X131788072Y-74550000D01*
X131785000Y-73985750D01*
X131626250Y-73827000D01*
X130427000Y-73827000D01*
X130173000Y-73827000D01*
X128973750Y-73827000D01*
X128815000Y-73985750D01*
X128811928Y-74550000D01*
X128610000Y-74550000D01*
X128610000Y-71160000D01*
X128807815Y-71160000D01*
X128836487Y-71451111D01*
X128921401Y-71731034D01*
X129059294Y-71989014D01*
X129244866Y-72215134D01*
X129274687Y-72239607D01*
X129205820Y-72260498D01*
X129095506Y-72319463D01*
X128998815Y-72398815D01*
X128919463Y-72495506D01*
X128860498Y-72605820D01*
X128824188Y-72725518D01*
X128811928Y-72850000D01*
X128815000Y-73414250D01*
X128973750Y-73573000D01*
X130173000Y-73573000D01*
X130173000Y-73553000D01*
X130427000Y-73553000D01*
X130427000Y-73573000D01*
X131626250Y-73573000D01*
X131785000Y-73414250D01*
X131788072Y-72850000D01*
X131775812Y-72725518D01*
X131739502Y-72605820D01*
X131680537Y-72495506D01*
X131601185Y-72398815D01*
X131504494Y-72319463D01*
X131394180Y-72260498D01*
X131325313Y-72239607D01*
X131355134Y-72215134D01*
X131463090Y-72083589D01*
X134247450Y-72083589D01*
X134314431Y-72796482D01*
X134519204Y-73482609D01*
X134853898Y-74115603D01*
X134872132Y-74142894D01*
X135341314Y-74479081D01*
X137720395Y-72100000D01*
X138079605Y-72100000D01*
X140458686Y-74479081D01*
X140927868Y-74142894D01*
X141190455Y-73656891D01*
X141998519Y-73656891D01*
X142095843Y-73931252D01*
X142244822Y-74181355D01*
X142439731Y-74397588D01*
X142673080Y-74571641D01*
X142935901Y-74696825D01*
X143083110Y-74741476D01*
X143313000Y-74620155D01*
X143313000Y-73427000D01*
X142119186Y-73427000D01*
X141998519Y-73656891D01*
X141190455Y-73656891D01*
X141268237Y-73512932D01*
X141443890Y-72943109D01*
X141998519Y-72943109D01*
X142119186Y-73173000D01*
X143313000Y-73173000D01*
X143313000Y-71979845D01*
X143567000Y-71979845D01*
X143567000Y-73173000D01*
X143587000Y-73173000D01*
X143587000Y-73427000D01*
X143567000Y-73427000D01*
X143567000Y-74620155D01*
X143796890Y-74741476D01*
X143944099Y-74696825D01*
X144206920Y-74571641D01*
X144440269Y-74397588D01*
X144635178Y-74181355D01*
X144704799Y-74064477D01*
X144739294Y-74129014D01*
X144924866Y-74355134D01*
X145150986Y-74540706D01*
X145408966Y-74678599D01*
X145688889Y-74763513D01*
X145907050Y-74785000D01*
X146052950Y-74785000D01*
X146271111Y-74763513D01*
X146551034Y-74678599D01*
X146809014Y-74540706D01*
X147035134Y-74355134D01*
X147220706Y-74129014D01*
X147250000Y-74074209D01*
X147279294Y-74129014D01*
X147464866Y-74355134D01*
X147690986Y-74540706D01*
X147948966Y-74678599D01*
X148228889Y-74763513D01*
X148447050Y-74785000D01*
X148592950Y-74785000D01*
X148811111Y-74763513D01*
X149091034Y-74678599D01*
X149349014Y-74540706D01*
X149575134Y-74355134D01*
X149760706Y-74129014D01*
X149790000Y-74074209D01*
X149819294Y-74129014D01*
X150004866Y-74355134D01*
X150230986Y-74540706D01*
X150488966Y-74678599D01*
X150768889Y-74763513D01*
X150987050Y-74785000D01*
X151132950Y-74785000D01*
X151351111Y-74763513D01*
X151631034Y-74678599D01*
X151889014Y-74540706D01*
X152115134Y-74355134D01*
X152139607Y-74325313D01*
X152160498Y-74394180D01*
X152219463Y-74504494D01*
X152298815Y-74601185D01*
X152395506Y-74680537D01*
X152505820Y-74739502D01*
X152625518Y-74775812D01*
X152750000Y-74788072D01*
X154450000Y-74788072D01*
X154574482Y-74775812D01*
X154694180Y-74739502D01*
X154804494Y-74680537D01*
X154901185Y-74601185D01*
X154980537Y-74504494D01*
X155039502Y-74394180D01*
X155075812Y-74274482D01*
X155088072Y-74150000D01*
X155088072Y-72450000D01*
X155075812Y-72325518D01*
X155039502Y-72205820D01*
X154980537Y-72095506D01*
X154970758Y-72083589D01*
X160247450Y-72083589D01*
X160314431Y-72796482D01*
X160519204Y-73482609D01*
X160853898Y-74115603D01*
X160872132Y-74142894D01*
X161341314Y-74479081D01*
X163720395Y-72100000D01*
X161341314Y-69720919D01*
X160872132Y-70057106D01*
X160531763Y-70687068D01*
X160320834Y-71371327D01*
X160247450Y-72083589D01*
X154970758Y-72083589D01*
X154901185Y-71998815D01*
X154804494Y-71919463D01*
X154694180Y-71860498D01*
X154574482Y-71824188D01*
X154450000Y-71811928D01*
X152750000Y-71811928D01*
X152625518Y-71824188D01*
X152505820Y-71860498D01*
X152395506Y-71919463D01*
X152298815Y-71998815D01*
X152219463Y-72095506D01*
X152160498Y-72205820D01*
X152139607Y-72274687D01*
X152115134Y-72244866D01*
X151889014Y-72059294D01*
X151631034Y-71921401D01*
X151351111Y-71836487D01*
X151132950Y-71815000D01*
X150987050Y-71815000D01*
X150768889Y-71836487D01*
X150488966Y-71921401D01*
X150230986Y-72059294D01*
X150004866Y-72244866D01*
X149819294Y-72470986D01*
X149790000Y-72525791D01*
X149760706Y-72470986D01*
X149575134Y-72244866D01*
X149349014Y-72059294D01*
X149091034Y-71921401D01*
X148811111Y-71836487D01*
X148592950Y-71815000D01*
X148447050Y-71815000D01*
X148228889Y-71836487D01*
X147948966Y-71921401D01*
X147690986Y-72059294D01*
X147464866Y-72244866D01*
X147279294Y-72470986D01*
X147250000Y-72525791D01*
X147220706Y-72470986D01*
X147035134Y-72244866D01*
X146809014Y-72059294D01*
X146551034Y-71921401D01*
X146271111Y-71836487D01*
X146052950Y-71815000D01*
X145907050Y-71815000D01*
X145688889Y-71836487D01*
X145408966Y-71921401D01*
X145150986Y-72059294D01*
X144924866Y-72244866D01*
X144739294Y-72470986D01*
X144704799Y-72535523D01*
X144635178Y-72418645D01*
X144440269Y-72202412D01*
X144206920Y-72028359D01*
X143944099Y-71903175D01*
X143796890Y-71858524D01*
X143567000Y-71979845D01*
X143313000Y-71979845D01*
X143083110Y-71858524D01*
X142935901Y-71903175D01*
X142673080Y-72028359D01*
X142439731Y-72202412D01*
X142244822Y-72418645D01*
X142095843Y-72668748D01*
X141998519Y-72943109D01*
X141443890Y-72943109D01*
X141479166Y-72828673D01*
X141552550Y-72116411D01*
X141485569Y-71403518D01*
X141280796Y-70717391D01*
X140946102Y-70084397D01*
X140927868Y-70057106D01*
X140458686Y-69720919D01*
X138079605Y-72100000D01*
X137720395Y-72100000D01*
X135341314Y-69720919D01*
X134872132Y-70057106D01*
X134531763Y-70687068D01*
X134320834Y-71371327D01*
X134247450Y-72083589D01*
X131463090Y-72083589D01*
X131540706Y-71989014D01*
X131678599Y-71731034D01*
X131763513Y-71451111D01*
X131792185Y-71160000D01*
X131763513Y-70868889D01*
X131678599Y-70588966D01*
X131540706Y-70330986D01*
X131355134Y-70104866D01*
X131129014Y-69919294D01*
X130871034Y-69781401D01*
X130591111Y-69696487D01*
X130372950Y-69675000D01*
X130227050Y-69675000D01*
X130008889Y-69696487D01*
X129728966Y-69781401D01*
X129470986Y-69919294D01*
X129244866Y-70104866D01*
X129059294Y-70330986D01*
X128921401Y-70588966D01*
X128836487Y-70868889D01*
X128807815Y-71160000D01*
X128610000Y-71160000D01*
X128610000Y-69541314D01*
X135520919Y-69541314D01*
X137900000Y-71920395D01*
X140279081Y-69541314D01*
X161520919Y-69541314D01*
X163900000Y-71920395D01*
X166279081Y-69541314D01*
X165942894Y-69072132D01*
X165312932Y-68731763D01*
X164628673Y-68520834D01*
X163916411Y-68447450D01*
X163203518Y-68514431D01*
X162517391Y-68719204D01*
X161884397Y-69053898D01*
X161857106Y-69072132D01*
X161520919Y-69541314D01*
X140279081Y-69541314D01*
X139942894Y-69072132D01*
X139312932Y-68731763D01*
X139174592Y-68689119D01*
X139203937Y-68659774D01*
X139317205Y-68490256D01*
X139395226Y-68301898D01*
X139435000Y-68101939D01*
X139435000Y-68004446D01*
X139992157Y-67447290D01*
X140389061Y-67844195D01*
X140412077Y-67872240D01*
X140523995Y-67964089D01*
X140651681Y-68032339D01*
X140747776Y-68061489D01*
X140840226Y-68153939D01*
X141009744Y-68267207D01*
X141198102Y-68345228D01*
X141398061Y-68385002D01*
X141601939Y-68385002D01*
X141801898Y-68345228D01*
X141990256Y-68267207D01*
X142159774Y-68153939D01*
X142303937Y-68009776D01*
X142417205Y-67840258D01*
X142495226Y-67651900D01*
X142535000Y-67451941D01*
X142535000Y-67248063D01*
X142495226Y-67048104D01*
X142417205Y-66859746D01*
X142303937Y-66690228D01*
X142159774Y-66546065D01*
X141990256Y-66432797D01*
X141801898Y-66354776D01*
X141601939Y-66315002D01*
X141398061Y-66315002D01*
X141198102Y-66354776D01*
X141042845Y-66419086D01*
X141031603Y-66407843D01*
X141694169Y-65745278D01*
X141722209Y-65722266D01*
X141745222Y-65694225D01*
X141745225Y-65694222D01*
X141814058Y-65610349D01*
X141814059Y-65610348D01*
X141882309Y-65482661D01*
X141924337Y-65344113D01*
X141934972Y-65236133D01*
X141934972Y-65236124D01*
X141938527Y-65200029D01*
X141934972Y-65163934D01*
X141934972Y-64028711D01*
X142003909Y-63959774D01*
X142117177Y-63790256D01*
X142195198Y-63601898D01*
X142234972Y-63401939D01*
X142234972Y-63198061D01*
X142195198Y-62998102D01*
X142117177Y-62809744D01*
X142003909Y-62640226D01*
X141934972Y-62571289D01*
X141934972Y-62178755D01*
X142003937Y-62109790D01*
X142117205Y-61940272D01*
X142195226Y-61751914D01*
X142235000Y-61551955D01*
X142235000Y-61348077D01*
X142195226Y-61148118D01*
X142117205Y-60959760D01*
X142003937Y-60790242D01*
X141935000Y-60721305D01*
X141935000Y-58128711D01*
X142003937Y-58059774D01*
X142117205Y-57890256D01*
X142195226Y-57701898D01*
X142235000Y-57501939D01*
X142235000Y-57298061D01*
X142195226Y-57098102D01*
X142117205Y-56909744D01*
X142003937Y-56740226D01*
X141935000Y-56671289D01*
X141935000Y-56178713D01*
X142003937Y-56109776D01*
X142117205Y-55940258D01*
X142195226Y-55751900D01*
X142235000Y-55551941D01*
X142235000Y-55348063D01*
X142195226Y-55148104D01*
X142117205Y-54959746D01*
X142003937Y-54790228D01*
X141935000Y-54721291D01*
X141935000Y-52228711D01*
X142003937Y-52159774D01*
X142117205Y-51990256D01*
X142195226Y-51801898D01*
X142235000Y-51601939D01*
X142235000Y-51398061D01*
X142195226Y-51198102D01*
X142117205Y-51009744D01*
X142003937Y-50840226D01*
X141935000Y-50771289D01*
X141935000Y-47028715D01*
X142003937Y-46959778D01*
X142117205Y-46790260D01*
X142195226Y-46601902D01*
X142235000Y-46401943D01*
X142235000Y-46198065D01*
X142195226Y-45998106D01*
X142117205Y-45809748D01*
X142003937Y-45640230D01*
X141859774Y-45496067D01*
X141690256Y-45382799D01*
X141501898Y-45304778D01*
X141301939Y-45265004D01*
X141098061Y-45265004D01*
X140898102Y-45304778D01*
X140709744Y-45382799D01*
X140540226Y-45496067D01*
X140396063Y-45640230D01*
X140282795Y-45809748D01*
X140204774Y-45998106D01*
X140165000Y-46198065D01*
X140165000Y-46401943D01*
X140204774Y-46601902D01*
X140282795Y-46790260D01*
X140396063Y-46959778D01*
X140465000Y-47028715D01*
X140465001Y-50771288D01*
X140396063Y-50840226D01*
X140282795Y-51009744D01*
X140204774Y-51198102D01*
X140165000Y-51398061D01*
X140165000Y-51601939D01*
X140204774Y-51801898D01*
X140282795Y-51990256D01*
X140396063Y-52159774D01*
X140465001Y-52228712D01*
X140465000Y-54721291D01*
X140396063Y-54790228D01*
X140282795Y-54959746D01*
X140204774Y-55148104D01*
X140165000Y-55348063D01*
X140165000Y-55551941D01*
X140204774Y-55751900D01*
X140282795Y-55940258D01*
X140396063Y-56109776D01*
X140465001Y-56178714D01*
X140465000Y-56671289D01*
X140396063Y-56740226D01*
X140282795Y-56909744D01*
X140204774Y-57098102D01*
X140165000Y-57298061D01*
X140165000Y-57501939D01*
X140204774Y-57701898D01*
X140282795Y-57890256D01*
X140396063Y-58059774D01*
X140465001Y-58128712D01*
X140465000Y-60721305D01*
X140396063Y-60790242D01*
X140282795Y-60959760D01*
X140204774Y-61148118D01*
X140165000Y-61348077D01*
X140165000Y-61551955D01*
X140204774Y-61751914D01*
X140282795Y-61940272D01*
X140396063Y-62109790D01*
X140464973Y-62178700D01*
X140464972Y-62571289D01*
X140396035Y-62640226D01*
X140282767Y-62809744D01*
X140204746Y-62998102D01*
X140164972Y-63198061D01*
X140164972Y-63401939D01*
X140204746Y-63601898D01*
X140282767Y-63790256D01*
X140396035Y-63959774D01*
X140464973Y-64028712D01*
X140464972Y-64895581D01*
X139605811Y-65754743D01*
X139605806Y-65754747D01*
X139605802Y-65754751D01*
X139577763Y-65777762D01*
X139554750Y-65805803D01*
X138395554Y-66965000D01*
X138298061Y-66965000D01*
X138098102Y-67004774D01*
X137909744Y-67082795D01*
X137740226Y-67196063D01*
X137596063Y-67340226D01*
X137482795Y-67509744D01*
X137404774Y-67698102D01*
X137365000Y-67898061D01*
X137365000Y-68101939D01*
X137404774Y-68301898D01*
X137481972Y-68488268D01*
X137203518Y-68514431D01*
X136517391Y-68719204D01*
X135884397Y-69053898D01*
X135857106Y-69072132D01*
X135520919Y-69541314D01*
X128610000Y-69541314D01*
X128610000Y-63590000D01*
X129111928Y-63590000D01*
X129111928Y-65690000D01*
X129124188Y-65814482D01*
X129160498Y-65934180D01*
X129219463Y-66044494D01*
X129298815Y-66141185D01*
X129395506Y-66220537D01*
X129505820Y-66279502D01*
X129625518Y-66315812D01*
X129750000Y-66328072D01*
X131850000Y-66328072D01*
X131974482Y-66315812D01*
X132094180Y-66279502D01*
X132204494Y-66220537D01*
X132301185Y-66141185D01*
X132380537Y-66044494D01*
X132439502Y-65934180D01*
X132475812Y-65814482D01*
X132488072Y-65690000D01*
X132488072Y-63590000D01*
X132475812Y-63465518D01*
X132439502Y-63345820D01*
X132380537Y-63235506D01*
X132301185Y-63138815D01*
X132204494Y-63059463D01*
X132190454Y-63051958D01*
X132293228Y-62898147D01*
X132420246Y-62591496D01*
X132485000Y-62265958D01*
X132485000Y-61934042D01*
X132420246Y-61608504D01*
X132293228Y-61301853D01*
X132108825Y-61025875D01*
X131912950Y-60830000D01*
X132108825Y-60634125D01*
X132293228Y-60358147D01*
X132420246Y-60051496D01*
X132485000Y-59725958D01*
X132485000Y-59394042D01*
X132420246Y-59068504D01*
X132293228Y-58761853D01*
X132108825Y-58485875D01*
X131912950Y-58290000D01*
X132108825Y-58094125D01*
X132293228Y-57818147D01*
X132420246Y-57511496D01*
X132485000Y-57185958D01*
X132485000Y-56854042D01*
X132420246Y-56528504D01*
X132293228Y-56221853D01*
X132108825Y-55945875D01*
X131912950Y-55750000D01*
X132108825Y-55554125D01*
X132293228Y-55278147D01*
X132420246Y-54971496D01*
X132485000Y-54645958D01*
X132485000Y-54314042D01*
X132420246Y-53988504D01*
X132293228Y-53681853D01*
X132108825Y-53405875D01*
X131912950Y-53210000D01*
X132108825Y-53014125D01*
X132293228Y-52738147D01*
X132420246Y-52431496D01*
X132485000Y-52105958D01*
X132485000Y-51774042D01*
X132420246Y-51448504D01*
X132293228Y-51141853D01*
X132108825Y-50865875D01*
X131912950Y-50670000D01*
X132108825Y-50474125D01*
X132293228Y-50198147D01*
X132420246Y-49891496D01*
X132485000Y-49565958D01*
X132485000Y-49234042D01*
X132420246Y-48908504D01*
X132293228Y-48601853D01*
X132108825Y-48325875D01*
X131912950Y-48130000D01*
X132108825Y-47934125D01*
X132293228Y-47658147D01*
X132420246Y-47351496D01*
X132485000Y-47025958D01*
X132485000Y-46694042D01*
X132420246Y-46368504D01*
X132293228Y-46061853D01*
X132108825Y-45785875D01*
X131874125Y-45551175D01*
X131598147Y-45366772D01*
X131291496Y-45239754D01*
X130965958Y-45175000D01*
X130634042Y-45175000D01*
X130308504Y-45239754D01*
X130001853Y-45366772D01*
X129725875Y-45551175D01*
X129491175Y-45785875D01*
X129306772Y-46061853D01*
X129179754Y-46368504D01*
X129115000Y-46694042D01*
X129115000Y-47025958D01*
X129179754Y-47351496D01*
X129306772Y-47658147D01*
X129491175Y-47934125D01*
X129687050Y-48130000D01*
X129491175Y-48325875D01*
X129306772Y-48601853D01*
X129179754Y-48908504D01*
X129115000Y-49234042D01*
X129115000Y-49565958D01*
X129179754Y-49891496D01*
X129306772Y-50198147D01*
X129491175Y-50474125D01*
X129687050Y-50670000D01*
X129491175Y-50865875D01*
X129306772Y-51141853D01*
X129179754Y-51448504D01*
X129115000Y-51774042D01*
X129115000Y-52105958D01*
X129179754Y-52431496D01*
X129306772Y-52738147D01*
X129491175Y-53014125D01*
X129687050Y-53210000D01*
X129491175Y-53405875D01*
X129306772Y-53681853D01*
X129179754Y-53988504D01*
X129115000Y-54314042D01*
X129115000Y-54645958D01*
X129179754Y-54971496D01*
X129306772Y-55278147D01*
X129491175Y-55554125D01*
X129687050Y-55750000D01*
X129491175Y-55945875D01*
X129306772Y-56221853D01*
X129179754Y-56528504D01*
X129115000Y-56854042D01*
X129115000Y-57185958D01*
X129179754Y-57511496D01*
X129306772Y-57818147D01*
X129491175Y-58094125D01*
X129687050Y-58290000D01*
X129491175Y-58485875D01*
X129306772Y-58761853D01*
X129179754Y-59068504D01*
X129115000Y-59394042D01*
X129115000Y-59725958D01*
X129179754Y-60051496D01*
X129306772Y-60358147D01*
X129491175Y-60634125D01*
X129687050Y-60830000D01*
X129491175Y-61025875D01*
X129306772Y-61301853D01*
X129179754Y-61608504D01*
X129115000Y-61934042D01*
X129115000Y-62265958D01*
X129179754Y-62591496D01*
X129306772Y-62898147D01*
X129409546Y-63051958D01*
X129395506Y-63059463D01*
X129298815Y-63138815D01*
X129219463Y-63235506D01*
X129160498Y-63345820D01*
X129124188Y-63465518D01*
X129111928Y-63590000D01*
X128610000Y-63590000D01*
X128610000Y-44898061D01*
X135765000Y-44898061D01*
X135765000Y-45101939D01*
X135804774Y-45301898D01*
X135882795Y-45490256D01*
X135996063Y-45659774D01*
X136140226Y-45803937D01*
X136309744Y-45917205D01*
X136498102Y-45995226D01*
X136698061Y-46035000D01*
X136901939Y-46035000D01*
X137101898Y-45995226D01*
X137290256Y-45917205D01*
X137459774Y-45803937D01*
X137603937Y-45659774D01*
X137717205Y-45490256D01*
X137795226Y-45301898D01*
X137835000Y-45101939D01*
X137835000Y-45004446D01*
X140104447Y-42735000D01*
X143795554Y-42735000D01*
X145665001Y-44604448D01*
X145665000Y-52463895D01*
X145661444Y-52500000D01*
X145665000Y-52536104D01*
X145675635Y-52644084D01*
X145717663Y-52782632D01*
X145785913Y-52910319D01*
X145877762Y-53022237D01*
X145905808Y-53045254D01*
X149165001Y-56304448D01*
X149165000Y-60805592D01*
X148970987Y-60909294D01*
X148744866Y-61094866D01*
X148559294Y-61320986D01*
X148421401Y-61578966D01*
X148336487Y-61858889D01*
X148315000Y-62077050D01*
X148315000Y-62522949D01*
X148336487Y-62741110D01*
X148421401Y-63021033D01*
X148559294Y-63279013D01*
X148744866Y-63505134D01*
X148970986Y-63690706D01*
X149228966Y-63828599D01*
X149508889Y-63913513D01*
X149800000Y-63942185D01*
X150091110Y-63913513D01*
X150371033Y-63828599D01*
X150629013Y-63690706D01*
X150855134Y-63505134D01*
X150907223Y-63441663D01*
X150961595Y-63543386D01*
X151072038Y-63677962D01*
X151206614Y-63788405D01*
X151360150Y-63870472D01*
X151526746Y-63921008D01*
X151700000Y-63938072D01*
X152900000Y-63938072D01*
X153073254Y-63921008D01*
X153239850Y-63870472D01*
X153393386Y-63788405D01*
X153527962Y-63677962D01*
X153638405Y-63543386D01*
X153720472Y-63389850D01*
X153771008Y-63223254D01*
X153788072Y-63050000D01*
X153788072Y-61550000D01*
X153786595Y-61535000D01*
X154021637Y-61535000D01*
X154260236Y-61487540D01*
X154484992Y-61394443D01*
X154687267Y-61259287D01*
X154859287Y-61087267D01*
X154994443Y-60884992D01*
X155087540Y-60660236D01*
X155135000Y-60421637D01*
X155135000Y-60178363D01*
X155087540Y-59939764D01*
X154994443Y-59715008D01*
X154859287Y-59512733D01*
X154687267Y-59340713D01*
X154484992Y-59205557D01*
X154260236Y-59112460D01*
X154021637Y-59065000D01*
X153778363Y-59065000D01*
X153539764Y-59112460D01*
X153315008Y-59205557D01*
X153112733Y-59340713D01*
X152940713Y-59512733D01*
X152865197Y-59625750D01*
X152444999Y-59205553D01*
X152444999Y-56787881D01*
X152974250Y-56785000D01*
X153133000Y-56626250D01*
X153133000Y-55427000D01*
X153113000Y-55427000D01*
X153113000Y-55173000D01*
X153133000Y-55173000D01*
X153133000Y-53973750D01*
X152974250Y-53815000D01*
X152444999Y-53812119D01*
X152444999Y-53294447D01*
X154369182Y-51370265D01*
X154397227Y-51347249D01*
X154489076Y-51235331D01*
X154557326Y-51107644D01*
X154599354Y-50969096D01*
X154609989Y-50861116D01*
X154609989Y-50861107D01*
X154613544Y-50825012D01*
X154609989Y-50788917D01*
X154609989Y-49649435D01*
X158869292Y-53908739D01*
X158631111Y-53836487D01*
X158412950Y-53815000D01*
X158267050Y-53815000D01*
X158048889Y-53836487D01*
X157768966Y-53921401D01*
X157510986Y-54059294D01*
X157284866Y-54244866D01*
X157099294Y-54470986D01*
X157070000Y-54525791D01*
X157040706Y-54470986D01*
X156855134Y-54244866D01*
X156629014Y-54059294D01*
X156371034Y-53921401D01*
X156091111Y-53836487D01*
X155872950Y-53815000D01*
X155727050Y-53815000D01*
X155508889Y-53836487D01*
X155228966Y-53921401D01*
X154970986Y-54059294D01*
X154744866Y-54244866D01*
X154720393Y-54274687D01*
X154699502Y-54205820D01*
X154640537Y-54095506D01*
X154561185Y-53998815D01*
X154464494Y-53919463D01*
X154354180Y-53860498D01*
X154234482Y-53824188D01*
X154110000Y-53811928D01*
X153545750Y-53815000D01*
X153387000Y-53973750D01*
X153387000Y-55173000D01*
X153407000Y-55173000D01*
X153407000Y-55427000D01*
X153387000Y-55427000D01*
X153387000Y-56626250D01*
X153545750Y-56785000D01*
X154110000Y-56788072D01*
X154234482Y-56775812D01*
X154354180Y-56739502D01*
X154464494Y-56680537D01*
X154561185Y-56601185D01*
X154640537Y-56504494D01*
X154699502Y-56394180D01*
X154720393Y-56325313D01*
X154744866Y-56355134D01*
X154970986Y-56540706D01*
X155228966Y-56678599D01*
X155508889Y-56763513D01*
X155727050Y-56785000D01*
X155872950Y-56785000D01*
X156091111Y-56763513D01*
X156371034Y-56678599D01*
X156629014Y-56540706D01*
X156855134Y-56355134D01*
X157040706Y-56129014D01*
X157070000Y-56074209D01*
X157099294Y-56129014D01*
X157284866Y-56355134D01*
X157510986Y-56540706D01*
X157768966Y-56678599D01*
X158048889Y-56763513D01*
X158267050Y-56785000D01*
X158412950Y-56785000D01*
X158631111Y-56763513D01*
X158911034Y-56678599D01*
X159169014Y-56540706D01*
X159395134Y-56355134D01*
X159580706Y-56129014D01*
X159610000Y-56074209D01*
X159639294Y-56129014D01*
X159824866Y-56355134D01*
X160050986Y-56540706D01*
X160308966Y-56678599D01*
X160588889Y-56763513D01*
X160807050Y-56785000D01*
X160952950Y-56785000D01*
X160978023Y-56782531D01*
X159795554Y-57965000D01*
X158428711Y-57965000D01*
X158359774Y-57896063D01*
X158190256Y-57782795D01*
X158001898Y-57704774D01*
X157801939Y-57665000D01*
X157598061Y-57665000D01*
X157398102Y-57704774D01*
X157209744Y-57782795D01*
X157040226Y-57896063D01*
X156896063Y-58040226D01*
X156782795Y-58209744D01*
X156704774Y-58398102D01*
X156665000Y-58598061D01*
X156665000Y-58801939D01*
X156704774Y-59001898D01*
X156782795Y-59190256D01*
X156896063Y-59359774D01*
X157040226Y-59503937D01*
X157209744Y-59617205D01*
X157398102Y-59695226D01*
X157598061Y-59735000D01*
X157801939Y-59735000D01*
X158001898Y-59695226D01*
X158190256Y-59617205D01*
X158359774Y-59503937D01*
X158428711Y-59435000D01*
X160063895Y-59435000D01*
X160100000Y-59438556D01*
X160136105Y-59435000D01*
X160244085Y-59424365D01*
X160382633Y-59382337D01*
X160510320Y-59314087D01*
X160622238Y-59222238D01*
X160645258Y-59194188D01*
X162400313Y-57439133D01*
X162977972Y-57439133D01*
X163040465Y-57675450D01*
X163283178Y-57788850D01*
X163543349Y-57852719D01*
X163810982Y-57864604D01*
X164075791Y-57824048D01*
X164093523Y-57817609D01*
X164894038Y-57817609D01*
X164897909Y-57855282D01*
X164990079Y-58080533D01*
X165124422Y-58283474D01*
X165295775Y-58456307D01*
X165497554Y-58592390D01*
X165722004Y-58686493D01*
X165960500Y-58735000D01*
X166310500Y-58735000D01*
X166310500Y-57627000D01*
X165018769Y-57627000D01*
X164894038Y-57817609D01*
X164093523Y-57817609D01*
X164327600Y-57732609D01*
X164434535Y-57675450D01*
X164497028Y-57439133D01*
X163737500Y-56679605D01*
X162977972Y-57439133D01*
X162400313Y-57439133D01*
X162625605Y-57213842D01*
X162798367Y-57259528D01*
X163557895Y-56500000D01*
X163917105Y-56500000D01*
X164676633Y-57259528D01*
X164904997Y-57199138D01*
X165018769Y-57373000D01*
X166310500Y-57373000D01*
X166310500Y-56265000D01*
X165960500Y-56265000D01*
X165722004Y-56313507D01*
X165497554Y-56407610D01*
X165295775Y-56543693D01*
X165124422Y-56716526D01*
X165061329Y-56811836D01*
X165090219Y-56694151D01*
X165102104Y-56426518D01*
X165061548Y-56161709D01*
X164970109Y-55909900D01*
X164912950Y-55802965D01*
X164676633Y-55740472D01*
X163917105Y-56500000D01*
X163557895Y-56500000D01*
X163543753Y-56485858D01*
X163723358Y-56306253D01*
X163737500Y-56320395D01*
X164497028Y-55560867D01*
X164434535Y-55324550D01*
X164191822Y-55211150D01*
X163931651Y-55147281D01*
X163664018Y-55135396D01*
X163399209Y-55175952D01*
X163147400Y-55267391D01*
X163065001Y-55311435D01*
X163065001Y-53866106D01*
X163068557Y-53830001D01*
X163054366Y-53685916D01*
X163012338Y-53547367D01*
X162944088Y-53419681D01*
X162875254Y-53335807D01*
X162852239Y-53307763D01*
X162824194Y-53284747D01*
X162235000Y-52695554D01*
X162235000Y-52598061D01*
X162203388Y-52439133D01*
X162977972Y-52439133D01*
X163040465Y-52675450D01*
X163283178Y-52788850D01*
X163543349Y-52852719D01*
X163810982Y-52864604D01*
X164075791Y-52824048D01*
X164327600Y-52732609D01*
X164434535Y-52675450D01*
X164497028Y-52439133D01*
X163737500Y-51679605D01*
X162977972Y-52439133D01*
X162203388Y-52439133D01*
X162195226Y-52398102D01*
X162117205Y-52209744D01*
X162003937Y-52040226D01*
X161859774Y-51896063D01*
X161690256Y-51782795D01*
X161501898Y-51704774D01*
X161301939Y-51665000D01*
X161098061Y-51665000D01*
X160898102Y-51704774D01*
X160709744Y-51782795D01*
X160540226Y-51896063D01*
X160396063Y-52040226D01*
X160282795Y-52209744D01*
X160204774Y-52398102D01*
X160165000Y-52598061D01*
X160165000Y-52801939D01*
X160204774Y-53001898D01*
X160282795Y-53190256D01*
X160389704Y-53350257D01*
X158612929Y-51573482D01*
X162372896Y-51573482D01*
X162413452Y-51838291D01*
X162504891Y-52090100D01*
X162562050Y-52197035D01*
X162798367Y-52259528D01*
X163557895Y-51500000D01*
X163917105Y-51500000D01*
X164676633Y-52259528D01*
X164912950Y-52197035D01*
X165026350Y-51954322D01*
X165090219Y-51694151D01*
X165102104Y-51426518D01*
X165066885Y-51196558D01*
X165124422Y-51283474D01*
X165295775Y-51456307D01*
X165497554Y-51592390D01*
X165722004Y-51686493D01*
X165960500Y-51735000D01*
X166310500Y-51735000D01*
X166310500Y-50627000D01*
X165018769Y-50627000D01*
X164904997Y-50800862D01*
X164676633Y-50740472D01*
X163917105Y-51500000D01*
X163557895Y-51500000D01*
X162798367Y-50740472D01*
X162562050Y-50802965D01*
X162448650Y-51045678D01*
X162384781Y-51305849D01*
X162372896Y-51573482D01*
X158612929Y-51573482D01*
X157600314Y-50560867D01*
X162977972Y-50560867D01*
X163737500Y-51320395D01*
X164497028Y-50560867D01*
X164434535Y-50324550D01*
X164191822Y-50211150D01*
X164074672Y-50182391D01*
X164894038Y-50182391D01*
X165018769Y-50373000D01*
X166310500Y-50373000D01*
X166310500Y-49265000D01*
X165960500Y-49265000D01*
X165722004Y-49313507D01*
X165497554Y-49407610D01*
X165295775Y-49543693D01*
X165124422Y-49716526D01*
X164990079Y-49919467D01*
X164897909Y-50144718D01*
X164894038Y-50182391D01*
X164074672Y-50182391D01*
X163931651Y-50147281D01*
X163664018Y-50135396D01*
X163399209Y-50175952D01*
X163147400Y-50267391D01*
X163040465Y-50324550D01*
X162977972Y-50560867D01*
X157600314Y-50560867D01*
X156018721Y-48979274D01*
X156071482Y-48851898D01*
X156111256Y-48651939D01*
X156111256Y-48448061D01*
X156071482Y-48248102D01*
X155993461Y-48059744D01*
X155880193Y-47890226D01*
X155811256Y-47821289D01*
X155811256Y-46850000D01*
X162061928Y-46850000D01*
X162074188Y-46974482D01*
X162110498Y-47094180D01*
X162169463Y-47204494D01*
X162248815Y-47301185D01*
X162345506Y-47380537D01*
X162455820Y-47439502D01*
X162575518Y-47475812D01*
X162700000Y-47488072D01*
X163414250Y-47485000D01*
X163573000Y-47326250D01*
X163573000Y-46127000D01*
X163827000Y-46127000D01*
X163827000Y-47326250D01*
X163985750Y-47485000D01*
X164465000Y-47487061D01*
X164465000Y-47721637D01*
X164512460Y-47960236D01*
X164605557Y-48184992D01*
X164740713Y-48387267D01*
X164912733Y-48559287D01*
X165115008Y-48694443D01*
X165339764Y-48787540D01*
X165578363Y-48835000D01*
X165821637Y-48835000D01*
X166060236Y-48787540D01*
X166284992Y-48694443D01*
X166487267Y-48559287D01*
X166659287Y-48387267D01*
X166794443Y-48184992D01*
X166887540Y-47960236D01*
X166935000Y-47721637D01*
X166935000Y-47478363D01*
X166887540Y-47239764D01*
X166794443Y-47015008D01*
X166659287Y-46812733D01*
X166487267Y-46640713D01*
X166284992Y-46505557D01*
X166060236Y-46412460D01*
X165821637Y-46365000D01*
X165578363Y-46365000D01*
X165339764Y-46412460D01*
X165335699Y-46414144D01*
X165335000Y-46285750D01*
X165176250Y-46127000D01*
X163827000Y-46127000D01*
X163573000Y-46127000D01*
X162223750Y-46127000D01*
X162065000Y-46285750D01*
X162061928Y-46850000D01*
X155811256Y-46850000D01*
X155811256Y-45557179D01*
X155814812Y-45521074D01*
X155810045Y-45472672D01*
X155809999Y-45472206D01*
X155809999Y-44466976D01*
X155813554Y-44430881D01*
X155809999Y-44394786D01*
X155809999Y-44394777D01*
X155799364Y-44286797D01*
X155757336Y-44148249D01*
X155689086Y-44020562D01*
X155597237Y-43908644D01*
X155569186Y-43885623D01*
X155460000Y-43776437D01*
X155460000Y-43500000D01*
X162057815Y-43500000D01*
X162086487Y-43791111D01*
X162171401Y-44071034D01*
X162309294Y-44329014D01*
X162490608Y-44549945D01*
X162455820Y-44560498D01*
X162345506Y-44619463D01*
X162248815Y-44698815D01*
X162169463Y-44795506D01*
X162110498Y-44905820D01*
X162074188Y-45025518D01*
X162061928Y-45150000D01*
X162065000Y-45714250D01*
X162223750Y-45873000D01*
X163573000Y-45873000D01*
X163573000Y-45853000D01*
X163827000Y-45853000D01*
X163827000Y-45873000D01*
X165176250Y-45873000D01*
X165335000Y-45714250D01*
X165338072Y-45150000D01*
X165325812Y-45025518D01*
X165289502Y-44905820D01*
X165230537Y-44795506D01*
X165151185Y-44698815D01*
X165054494Y-44619463D01*
X164944180Y-44560498D01*
X164909392Y-44549945D01*
X165090706Y-44329014D01*
X165228599Y-44071034D01*
X165313513Y-43791111D01*
X165342185Y-43500000D01*
X165313513Y-43208889D01*
X165228599Y-42928966D01*
X165090706Y-42670986D01*
X164905134Y-42444866D01*
X164679014Y-42259294D01*
X164421034Y-42121401D01*
X164141111Y-42036487D01*
X163922950Y-42015000D01*
X163477050Y-42015000D01*
X163258889Y-42036487D01*
X162978966Y-42121401D01*
X162720986Y-42259294D01*
X162494866Y-42444866D01*
X162309294Y-42670986D01*
X162171401Y-42928966D01*
X162086487Y-43208889D01*
X162057815Y-43500000D01*
X155460000Y-43500000D01*
X155460000Y-43428711D01*
X155528937Y-43359774D01*
X155642205Y-43190256D01*
X155720226Y-43001898D01*
X155760000Y-42801939D01*
X155760000Y-42598061D01*
X155720226Y-42398102D01*
X155642205Y-42209744D01*
X155528937Y-42040226D01*
X155384774Y-41896063D01*
X155215256Y-41782795D01*
X155026898Y-41704774D01*
X154826939Y-41665000D01*
X154623061Y-41665000D01*
X154423102Y-41704774D01*
X154234744Y-41782795D01*
X154065226Y-41896063D01*
X153921063Y-42040226D01*
X153807795Y-42209744D01*
X153729774Y-42398102D01*
X153690000Y-42598061D01*
X153690000Y-42801939D01*
X153729774Y-43001898D01*
X153807795Y-43190256D01*
X153921063Y-43359774D01*
X153990000Y-43428711D01*
X153990000Y-44003506D01*
X153035000Y-43048507D01*
X153035000Y-41128711D01*
X153103937Y-41059774D01*
X153217205Y-40890256D01*
X153295226Y-40701898D01*
X153335000Y-40501939D01*
X153335000Y-40298061D01*
X153295226Y-40098102D01*
X153217205Y-39909744D01*
X153103937Y-39740226D01*
X152959774Y-39596063D01*
X152790256Y-39482795D01*
X152601898Y-39404774D01*
X152401939Y-39365000D01*
X152198061Y-39365000D01*
X151998102Y-39404774D01*
X151809744Y-39482795D01*
X151640226Y-39596063D01*
X151496063Y-39740226D01*
X151382795Y-39909744D01*
X151304774Y-40098102D01*
X151265000Y-40298061D01*
X151265000Y-40501939D01*
X151304774Y-40701898D01*
X151382795Y-40890256D01*
X151496063Y-41059774D01*
X151565000Y-41128711D01*
X151565001Y-43297147D01*
X151494085Y-43275635D01*
X151386105Y-43265000D01*
X151350000Y-43261444D01*
X151313895Y-43265000D01*
X150828711Y-43265000D01*
X150759774Y-43196063D01*
X150590256Y-43082795D01*
X150401898Y-43004774D01*
X150201939Y-42965000D01*
X149998061Y-42965000D01*
X149798102Y-43004774D01*
X149609744Y-43082795D01*
X149440226Y-43196063D01*
X149296063Y-43340226D01*
X149182795Y-43509744D01*
X149104774Y-43698102D01*
X149065000Y-43898061D01*
X149065000Y-44101939D01*
X149104774Y-44301898D01*
X149182795Y-44490256D01*
X149296063Y-44659774D01*
X149440226Y-44803937D01*
X149609744Y-44917205D01*
X149798102Y-44995226D01*
X149998061Y-45035000D01*
X150201939Y-45035000D01*
X150401898Y-44995226D01*
X150590256Y-44917205D01*
X150759774Y-44803937D01*
X150828711Y-44735000D01*
X151045554Y-44735000D01*
X151115000Y-44804446D01*
X151115000Y-44901939D01*
X151154774Y-45101898D01*
X151232795Y-45290256D01*
X151346063Y-45459774D01*
X151490226Y-45603937D01*
X151659744Y-45717205D01*
X151848102Y-45795226D01*
X152048061Y-45835000D01*
X152251939Y-45835000D01*
X152451898Y-45795226D01*
X152640256Y-45717205D01*
X152809774Y-45603937D01*
X152953937Y-45459774D01*
X153067205Y-45290256D01*
X153105472Y-45197872D01*
X153139989Y-45232389D01*
X153139990Y-50520563D01*
X151215807Y-52444747D01*
X151187761Y-52467764D01*
X151095912Y-52579682D01*
X151027662Y-52707369D01*
X150998975Y-52801939D01*
X150985634Y-52845916D01*
X150971443Y-52990001D01*
X150974999Y-53026106D01*
X150975000Y-59473884D01*
X150971443Y-59509999D01*
X150985634Y-59654084D01*
X151026768Y-59789680D01*
X151027663Y-59792632D01*
X151095913Y-59920319D01*
X151187762Y-60032237D01*
X151215807Y-60055253D01*
X151665000Y-60504447D01*
X151665000Y-60665375D01*
X151526746Y-60678992D01*
X151360150Y-60729528D01*
X151206614Y-60811595D01*
X151072038Y-60922038D01*
X150961595Y-61056614D01*
X150907223Y-61158337D01*
X150855134Y-61094866D01*
X150635000Y-60914207D01*
X150635000Y-56036094D01*
X150638555Y-55999999D01*
X150635000Y-55963904D01*
X150635000Y-55963895D01*
X150624365Y-55855915D01*
X150582337Y-55717367D01*
X150514087Y-55589680D01*
X150422238Y-55477762D01*
X150394193Y-55454746D01*
X147135000Y-52195554D01*
X147135000Y-44336094D01*
X147138555Y-44299999D01*
X147135000Y-44263904D01*
X147135000Y-44263895D01*
X147124365Y-44155915D01*
X147082337Y-44017367D01*
X147014087Y-43889680D01*
X146922238Y-43777762D01*
X146894193Y-43754746D01*
X144645259Y-41505812D01*
X144622238Y-41477762D01*
X144510320Y-41385913D01*
X144382633Y-41317663D01*
X144244085Y-41275635D01*
X144136105Y-41265000D01*
X144100000Y-41261444D01*
X144063895Y-41265000D01*
X139836105Y-41265000D01*
X139800000Y-41261444D01*
X139655915Y-41275635D01*
X139517366Y-41317663D01*
X139389680Y-41385913D01*
X139277762Y-41477762D01*
X139254746Y-41505807D01*
X136795554Y-43965000D01*
X136698061Y-43965000D01*
X136498102Y-44004774D01*
X136309744Y-44082795D01*
X136140226Y-44196063D01*
X135996063Y-44340226D01*
X135882795Y-44509744D01*
X135804774Y-44698102D01*
X135765000Y-44898061D01*
X128610000Y-44898061D01*
X128610000Y-36900000D01*
X130157815Y-36900000D01*
X130186487Y-37191111D01*
X130271401Y-37471034D01*
X130409294Y-37729014D01*
X130594866Y-37955134D01*
X130820986Y-38140706D01*
X131078966Y-38278599D01*
X131358889Y-38363513D01*
X131577050Y-38385000D01*
X132022950Y-38385000D01*
X132241111Y-38363513D01*
X132521034Y-38278599D01*
X132779014Y-38140706D01*
X133005134Y-37955134D01*
X133190706Y-37729014D01*
X133228297Y-37658686D01*
X135520919Y-37658686D01*
X135857106Y-38127868D01*
X136487068Y-38468237D01*
X137171327Y-38679166D01*
X137883589Y-38752550D01*
X138596482Y-38685569D01*
X139282609Y-38480796D01*
X139628208Y-38298061D01*
X148665000Y-38298061D01*
X148665000Y-38501939D01*
X148704774Y-38701898D01*
X148782795Y-38890256D01*
X148896063Y-39059774D01*
X149040226Y-39203937D01*
X149209744Y-39317205D01*
X149398102Y-39395226D01*
X149598061Y-39435000D01*
X149801939Y-39435000D01*
X150001898Y-39395226D01*
X150190256Y-39317205D01*
X150359774Y-39203937D01*
X150428711Y-39135000D01*
X153371289Y-39135000D01*
X153440226Y-39203937D01*
X153609744Y-39317205D01*
X153798102Y-39395226D01*
X153998061Y-39435000D01*
X154201939Y-39435000D01*
X154401898Y-39395226D01*
X154590256Y-39317205D01*
X154759774Y-39203937D01*
X154903937Y-39059774D01*
X155017205Y-38890256D01*
X155095226Y-38701898D01*
X155135000Y-38501939D01*
X155135000Y-38298061D01*
X155095226Y-38098102D01*
X155017205Y-37909744D01*
X154903937Y-37740226D01*
X154822397Y-37658686D01*
X161520919Y-37658686D01*
X161857106Y-38127868D01*
X162487068Y-38468237D01*
X163171327Y-38679166D01*
X163883589Y-38752550D01*
X164596482Y-38685569D01*
X165282609Y-38480796D01*
X165915603Y-38146102D01*
X165942894Y-38127868D01*
X166279081Y-37658686D01*
X163900000Y-35279605D01*
X161520919Y-37658686D01*
X154822397Y-37658686D01*
X154759774Y-37596063D01*
X154590256Y-37482795D01*
X154401898Y-37404774D01*
X154201939Y-37365000D01*
X153998061Y-37365000D01*
X153798102Y-37404774D01*
X153609744Y-37482795D01*
X153440226Y-37596063D01*
X153371289Y-37665000D01*
X150428711Y-37665000D01*
X150359774Y-37596063D01*
X150190256Y-37482795D01*
X150001898Y-37404774D01*
X149801939Y-37365000D01*
X149598061Y-37365000D01*
X149398102Y-37404774D01*
X149209744Y-37482795D01*
X149040226Y-37596063D01*
X148896063Y-37740226D01*
X148782795Y-37909744D01*
X148704774Y-38098102D01*
X148665000Y-38298061D01*
X139628208Y-38298061D01*
X139915603Y-38146102D01*
X139942894Y-38127868D01*
X140279081Y-37658686D01*
X137900000Y-35279605D01*
X135520919Y-37658686D01*
X133228297Y-37658686D01*
X133328599Y-37471034D01*
X133413513Y-37191111D01*
X133442185Y-36900000D01*
X133413513Y-36608889D01*
X133328599Y-36328966D01*
X133190706Y-36070986D01*
X133009392Y-35850055D01*
X133044180Y-35839502D01*
X133154494Y-35780537D01*
X133251185Y-35701185D01*
X133330537Y-35604494D01*
X133389502Y-35494180D01*
X133425812Y-35374482D01*
X133438072Y-35250000D01*
X133437166Y-35083589D01*
X134247450Y-35083589D01*
X134314431Y-35796482D01*
X134519204Y-36482609D01*
X134853898Y-37115603D01*
X134872132Y-37142894D01*
X135341314Y-37479081D01*
X137720395Y-35100000D01*
X138079605Y-35100000D01*
X140458686Y-37479081D01*
X140927868Y-37142894D01*
X141268237Y-36512932D01*
X141479166Y-35828673D01*
X141552550Y-35116411D01*
X141485569Y-34403518D01*
X141382119Y-34056891D01*
X146678519Y-34056891D01*
X146775843Y-34331252D01*
X146924822Y-34581355D01*
X147119731Y-34797588D01*
X147353080Y-34971641D01*
X147615901Y-35096825D01*
X147763110Y-35141476D01*
X147993000Y-35020155D01*
X147993000Y-33827000D01*
X146799186Y-33827000D01*
X146678519Y-34056891D01*
X141382119Y-34056891D01*
X141280796Y-33717391D01*
X141082896Y-33343109D01*
X146678519Y-33343109D01*
X146799186Y-33573000D01*
X147993000Y-33573000D01*
X147993000Y-32379845D01*
X148247000Y-32379845D01*
X148247000Y-33573000D01*
X148267000Y-33573000D01*
X148267000Y-33827000D01*
X148247000Y-33827000D01*
X148247000Y-35020155D01*
X148476890Y-35141476D01*
X148624099Y-35096825D01*
X148886920Y-34971641D01*
X149120269Y-34797588D01*
X149315178Y-34581355D01*
X149384799Y-34464477D01*
X149419294Y-34529014D01*
X149604866Y-34755134D01*
X149830986Y-34940706D01*
X150088966Y-35078599D01*
X150368889Y-35163513D01*
X150587050Y-35185000D01*
X150732950Y-35185000D01*
X150951111Y-35163513D01*
X151231034Y-35078599D01*
X151489014Y-34940706D01*
X151715134Y-34755134D01*
X151739607Y-34725313D01*
X151760498Y-34794180D01*
X151819463Y-34904494D01*
X151898815Y-35001185D01*
X151995506Y-35080537D01*
X152105820Y-35139502D01*
X152225518Y-35175812D01*
X152350000Y-35188072D01*
X154050000Y-35188072D01*
X154174482Y-35175812D01*
X154294180Y-35139502D01*
X154398784Y-35083589D01*
X160247450Y-35083589D01*
X160314431Y-35796482D01*
X160519204Y-36482609D01*
X160853898Y-37115603D01*
X160872132Y-37142894D01*
X161341314Y-37479081D01*
X163720395Y-35100000D01*
X161341314Y-32720919D01*
X160872132Y-33057106D01*
X160531763Y-33687068D01*
X160320834Y-34371327D01*
X160247450Y-35083589D01*
X154398784Y-35083589D01*
X154404494Y-35080537D01*
X154501185Y-35001185D01*
X154580537Y-34904494D01*
X154639502Y-34794180D01*
X154675812Y-34674482D01*
X154688072Y-34550000D01*
X154688072Y-32850000D01*
X154675812Y-32725518D01*
X154639502Y-32605820D01*
X154580537Y-32495506D01*
X154501185Y-32398815D01*
X154404494Y-32319463D01*
X154294180Y-32260498D01*
X154174482Y-32224188D01*
X154050000Y-32211928D01*
X152350000Y-32211928D01*
X152225518Y-32224188D01*
X152105820Y-32260498D01*
X151995506Y-32319463D01*
X151898815Y-32398815D01*
X151819463Y-32495506D01*
X151760498Y-32605820D01*
X151739607Y-32674687D01*
X151715134Y-32644866D01*
X151489014Y-32459294D01*
X151231034Y-32321401D01*
X150951111Y-32236487D01*
X150732950Y-32215000D01*
X150587050Y-32215000D01*
X150368889Y-32236487D01*
X150088966Y-32321401D01*
X149830986Y-32459294D01*
X149604866Y-32644866D01*
X149419294Y-32870986D01*
X149384799Y-32935523D01*
X149315178Y-32818645D01*
X149120269Y-32602412D01*
X148886920Y-32428359D01*
X148624099Y-32303175D01*
X148476890Y-32258524D01*
X148247000Y-32379845D01*
X147993000Y-32379845D01*
X147763110Y-32258524D01*
X147615901Y-32303175D01*
X147353080Y-32428359D01*
X147119731Y-32602412D01*
X146924822Y-32818645D01*
X146775843Y-33068748D01*
X146678519Y-33343109D01*
X141082896Y-33343109D01*
X140946102Y-33084397D01*
X140927868Y-33057106D01*
X140458686Y-32720919D01*
X138079605Y-35100000D01*
X137720395Y-35100000D01*
X135341314Y-32720919D01*
X134872132Y-33057106D01*
X134531763Y-33687068D01*
X134320834Y-34371327D01*
X134247450Y-35083589D01*
X133437166Y-35083589D01*
X133435000Y-34685750D01*
X133276250Y-34527000D01*
X131927000Y-34527000D01*
X131927000Y-34547000D01*
X131673000Y-34547000D01*
X131673000Y-34527000D01*
X130323750Y-34527000D01*
X130165000Y-34685750D01*
X130161928Y-35250000D01*
X130174188Y-35374482D01*
X130210498Y-35494180D01*
X130269463Y-35604494D01*
X130348815Y-35701185D01*
X130445506Y-35780537D01*
X130555820Y-35839502D01*
X130590608Y-35850055D01*
X130409294Y-36070986D01*
X130271401Y-36328966D01*
X130186487Y-36608889D01*
X130157815Y-36900000D01*
X128610000Y-36900000D01*
X128610000Y-33147869D01*
X128612460Y-33160236D01*
X128705557Y-33384992D01*
X128840713Y-33587267D01*
X129012733Y-33759287D01*
X129215008Y-33894443D01*
X129439764Y-33987540D01*
X129678363Y-34035000D01*
X129921637Y-34035000D01*
X130160236Y-33987540D01*
X130164301Y-33985856D01*
X130165000Y-34114250D01*
X130323750Y-34273000D01*
X131673000Y-34273000D01*
X131673000Y-33073750D01*
X131927000Y-33073750D01*
X131927000Y-34273000D01*
X133276250Y-34273000D01*
X133435000Y-34114250D01*
X133438072Y-33550000D01*
X133425812Y-33425518D01*
X133389502Y-33305820D01*
X133330537Y-33195506D01*
X133251185Y-33098815D01*
X133154494Y-33019463D01*
X133044180Y-32960498D01*
X132924482Y-32924188D01*
X132800000Y-32911928D01*
X132085750Y-32915000D01*
X131927000Y-33073750D01*
X131673000Y-33073750D01*
X131514250Y-32915000D01*
X131035000Y-32912939D01*
X131035000Y-32678363D01*
X130987540Y-32439764D01*
X130894443Y-32215008D01*
X130759287Y-32012733D01*
X130587267Y-31840713D01*
X130541302Y-31810000D01*
X136345672Y-31810000D01*
X135884397Y-32053898D01*
M02*
