G04 #@! TF.GenerationSoftware,KiCad,Pcbnew,7.0.3-24-g09febce4ce*
G04 #@! TF.CreationDate,2023-05-24T02:24:54-07:00*
G04 #@! TF.ProjectId,t962,74393632-2e6b-4696-9361-645f70636258,2.0*
G04 #@! TF.SameCoordinates,Original*
G04 #@! TF.FileFunction,Legend,Top*
G04 #@! TF.FilePolarity,Positive*
%FSLAX46Y46*%
G04 Gerber Fmt 4.6, Leading zero omitted, Abs format (unit mm)*
G04 Created by KiCad (PCBNEW 7.0.3-24-g09febce4ce) date 2023-05-24 02:24:54*
%MOMM*%
%LPD*%
G01*
G04 APERTURE LIST*
%ADD10C,0.150000*%
%ADD11C,0.300000*%
%ADD12C,0.120000*%
%ADD13C,0.200000*%
G04 APERTURE END LIST*
D10*
X157650000Y-41950000D02*
X156900000Y-41200000D01*
X157650000Y-47500000D02*
X157650000Y-41950000D01*
X156650000Y-55550000D02*
X156950000Y-55850000D01*
X156650000Y-51250000D02*
X156650000Y-55550000D01*
X162052095Y-63764438D02*
X161956857Y-63716819D01*
X161956857Y-63716819D02*
X161814000Y-63716819D01*
X161814000Y-63716819D02*
X161671143Y-63764438D01*
X161671143Y-63764438D02*
X161575905Y-63859676D01*
X161575905Y-63859676D02*
X161528286Y-63954914D01*
X161528286Y-63954914D02*
X161480667Y-64145390D01*
X161480667Y-64145390D02*
X161480667Y-64288247D01*
X161480667Y-64288247D02*
X161528286Y-64478723D01*
X161528286Y-64478723D02*
X161575905Y-64573961D01*
X161575905Y-64573961D02*
X161671143Y-64669200D01*
X161671143Y-64669200D02*
X161814000Y-64716819D01*
X161814000Y-64716819D02*
X161909238Y-64716819D01*
X161909238Y-64716819D02*
X162052095Y-64669200D01*
X162052095Y-64669200D02*
X162099714Y-64621580D01*
X162099714Y-64621580D02*
X162099714Y-64288247D01*
X162099714Y-64288247D02*
X161909238Y-64288247D01*
X162528286Y-64716819D02*
X162528286Y-63716819D01*
X162528286Y-63716819D02*
X163099714Y-64716819D01*
X163099714Y-64716819D02*
X163099714Y-63716819D01*
X163575905Y-64716819D02*
X163575905Y-63716819D01*
X163575905Y-63716819D02*
X163814000Y-63716819D01*
X163814000Y-63716819D02*
X163956857Y-63764438D01*
X163956857Y-63764438D02*
X164052095Y-63859676D01*
X164052095Y-63859676D02*
X164099714Y-63954914D01*
X164099714Y-63954914D02*
X164147333Y-64145390D01*
X164147333Y-64145390D02*
X164147333Y-64288247D01*
X164147333Y-64288247D02*
X164099714Y-64478723D01*
X164099714Y-64478723D02*
X164052095Y-64573961D01*
X164052095Y-64573961D02*
X163956857Y-64669200D01*
X163956857Y-64669200D02*
X163814000Y-64716819D01*
X163814000Y-64716819D02*
X163575905Y-64716819D01*
D11*
X156971429Y-36470828D02*
X156114286Y-36470828D01*
X156542857Y-36470828D02*
X156542857Y-34970828D01*
X156542857Y-34970828D02*
X156400000Y-35185114D01*
X156400000Y-35185114D02*
X156257143Y-35327971D01*
X156257143Y-35327971D02*
X156114286Y-35399400D01*
X157542857Y-35113685D02*
X157614285Y-35042257D01*
X157614285Y-35042257D02*
X157757143Y-34970828D01*
X157757143Y-34970828D02*
X158114285Y-34970828D01*
X158114285Y-34970828D02*
X158257143Y-35042257D01*
X158257143Y-35042257D02*
X158328571Y-35113685D01*
X158328571Y-35113685D02*
X158400000Y-35256542D01*
X158400000Y-35256542D02*
X158400000Y-35399400D01*
X158400000Y-35399400D02*
X158328571Y-35613685D01*
X158328571Y-35613685D02*
X157471428Y-36470828D01*
X157471428Y-36470828D02*
X158400000Y-36470828D01*
X158828571Y-34970828D02*
X159328571Y-36470828D01*
X159328571Y-36470828D02*
X159828571Y-34970828D01*
X156400000Y-37385828D02*
X156685714Y-37385828D01*
X156685714Y-37385828D02*
X156828571Y-37457257D01*
X156828571Y-37457257D02*
X156971428Y-37600114D01*
X156971428Y-37600114D02*
X157042857Y-37885828D01*
X157042857Y-37885828D02*
X157042857Y-38385828D01*
X157042857Y-38385828D02*
X156971428Y-38671542D01*
X156971428Y-38671542D02*
X156828571Y-38814400D01*
X156828571Y-38814400D02*
X156685714Y-38885828D01*
X156685714Y-38885828D02*
X156400000Y-38885828D01*
X156400000Y-38885828D02*
X156257143Y-38814400D01*
X156257143Y-38814400D02*
X156114285Y-38671542D01*
X156114285Y-38671542D02*
X156042857Y-38385828D01*
X156042857Y-38385828D02*
X156042857Y-37885828D01*
X156042857Y-37885828D02*
X156114285Y-37600114D01*
X156114285Y-37600114D02*
X156257143Y-37457257D01*
X156257143Y-37457257D02*
X156400000Y-37385828D01*
X157685714Y-37385828D02*
X157685714Y-38600114D01*
X157685714Y-38600114D02*
X157757143Y-38742971D01*
X157757143Y-38742971D02*
X157828572Y-38814400D01*
X157828572Y-38814400D02*
X157971429Y-38885828D01*
X157971429Y-38885828D02*
X158257143Y-38885828D01*
X158257143Y-38885828D02*
X158400000Y-38814400D01*
X158400000Y-38814400D02*
X158471429Y-38742971D01*
X158471429Y-38742971D02*
X158542857Y-38600114D01*
X158542857Y-38600114D02*
X158542857Y-37385828D01*
X159042858Y-37385828D02*
X159900001Y-37385828D01*
X159471429Y-38885828D02*
X159471429Y-37385828D01*
X161628571Y-39006900D02*
X162771429Y-39006900D01*
X162200000Y-39578328D02*
X162200000Y-38435471D01*
X164628571Y-39006900D02*
X165771429Y-39006900D01*
D10*
X132036779Y-70863866D02*
X132798684Y-70863866D01*
X132417731Y-71244819D02*
X132417731Y-70482914D01*
X133179636Y-70244819D02*
X133798683Y-70244819D01*
X133798683Y-70244819D02*
X133465350Y-70625771D01*
X133465350Y-70625771D02*
X133608207Y-70625771D01*
X133608207Y-70625771D02*
X133703445Y-70673390D01*
X133703445Y-70673390D02*
X133751064Y-70721009D01*
X133751064Y-70721009D02*
X133798683Y-70816247D01*
X133798683Y-70816247D02*
X133798683Y-71054342D01*
X133798683Y-71054342D02*
X133751064Y-71149580D01*
X133751064Y-71149580D02*
X133703445Y-71197200D01*
X133703445Y-71197200D02*
X133608207Y-71244819D01*
X133608207Y-71244819D02*
X133322493Y-71244819D01*
X133322493Y-71244819D02*
X133227255Y-71197200D01*
X133227255Y-71197200D02*
X133179636Y-71149580D01*
X132560588Y-73512438D02*
X132465350Y-73464819D01*
X132465350Y-73464819D02*
X132322493Y-73464819D01*
X132322493Y-73464819D02*
X132179636Y-73512438D01*
X132179636Y-73512438D02*
X132084398Y-73607676D01*
X132084398Y-73607676D02*
X132036779Y-73702914D01*
X132036779Y-73702914D02*
X131989160Y-73893390D01*
X131989160Y-73893390D02*
X131989160Y-74036247D01*
X131989160Y-74036247D02*
X132036779Y-74226723D01*
X132036779Y-74226723D02*
X132084398Y-74321961D01*
X132084398Y-74321961D02*
X132179636Y-74417200D01*
X132179636Y-74417200D02*
X132322493Y-74464819D01*
X132322493Y-74464819D02*
X132417731Y-74464819D01*
X132417731Y-74464819D02*
X132560588Y-74417200D01*
X132560588Y-74417200D02*
X132608207Y-74369580D01*
X132608207Y-74369580D02*
X132608207Y-74036247D01*
X132608207Y-74036247D02*
X132417731Y-74036247D01*
X133036779Y-74464819D02*
X133036779Y-73464819D01*
X133036779Y-73464819D02*
X133608207Y-74464819D01*
X133608207Y-74464819D02*
X133608207Y-73464819D01*
X134084398Y-74464819D02*
X134084398Y-73464819D01*
X134084398Y-73464819D02*
X134322493Y-73464819D01*
X134322493Y-73464819D02*
X134465350Y-73512438D01*
X134465350Y-73512438D02*
X134560588Y-73607676D01*
X134560588Y-73607676D02*
X134608207Y-73702914D01*
X134608207Y-73702914D02*
X134655826Y-73893390D01*
X134655826Y-73893390D02*
X134655826Y-74036247D01*
X134655826Y-74036247D02*
X134608207Y-74226723D01*
X134608207Y-74226723D02*
X134560588Y-74321961D01*
X134560588Y-74321961D02*
X134465350Y-74417200D01*
X134465350Y-74417200D02*
X134322493Y-74464819D01*
X134322493Y-74464819D02*
X134084398Y-74464819D01*
D11*
X149128571Y-65606900D02*
X150271429Y-65606900D01*
X149700000Y-66178328D02*
X149700000Y-65035471D01*
X152128571Y-65606900D02*
X153271429Y-65606900D01*
X134828571Y-32206900D02*
X135971429Y-32206900D01*
X134528571Y-37806900D02*
X135671429Y-37806900D01*
X135100000Y-38378328D02*
X135100000Y-37235471D01*
X129314286Y-41728328D02*
X128457143Y-41728328D01*
X128885714Y-41728328D02*
X128885714Y-40228328D01*
X128885714Y-40228328D02*
X128742857Y-40442614D01*
X128742857Y-40442614D02*
X128600000Y-40585471D01*
X128600000Y-40585471D02*
X128457143Y-40656900D01*
X129885714Y-40371185D02*
X129957142Y-40299757D01*
X129957142Y-40299757D02*
X130100000Y-40228328D01*
X130100000Y-40228328D02*
X130457142Y-40228328D01*
X130457142Y-40228328D02*
X130600000Y-40299757D01*
X130600000Y-40299757D02*
X130671428Y-40371185D01*
X130671428Y-40371185D02*
X130742857Y-40514042D01*
X130742857Y-40514042D02*
X130742857Y-40656900D01*
X130742857Y-40656900D02*
X130671428Y-40871185D01*
X130671428Y-40871185D02*
X129814285Y-41728328D01*
X129814285Y-41728328D02*
X130742857Y-41728328D01*
X131171428Y-40228328D02*
X131671428Y-41728328D01*
X131671428Y-41728328D02*
X132171428Y-40228328D01*
X133814284Y-41728328D02*
X133814284Y-40228328D01*
X134528570Y-40728328D02*
X134528570Y-41728328D01*
X134528570Y-40871185D02*
X134599999Y-40799757D01*
X134599999Y-40799757D02*
X134742856Y-40728328D01*
X134742856Y-40728328D02*
X134957142Y-40728328D01*
X134957142Y-40728328D02*
X135099999Y-40799757D01*
X135099999Y-40799757D02*
X135171428Y-40942614D01*
X135171428Y-40942614D02*
X135171428Y-41728328D01*
D10*
X135073866Y-65157142D02*
X135073866Y-64395238D01*
X135454819Y-64776190D02*
X134692914Y-64776190D01*
X134454819Y-64061904D02*
X134454819Y-63490476D01*
X135454819Y-63776190D02*
X134454819Y-63776190D01*
X134454819Y-63252380D02*
X134454819Y-62633333D01*
X134454819Y-62633333D02*
X134835771Y-62966666D01*
X134835771Y-62966666D02*
X134835771Y-62823809D01*
X134835771Y-62823809D02*
X134883390Y-62728571D01*
X134883390Y-62728571D02*
X134931009Y-62680952D01*
X134931009Y-62680952D02*
X135026247Y-62633333D01*
X135026247Y-62633333D02*
X135264342Y-62633333D01*
X135264342Y-62633333D02*
X135359580Y-62680952D01*
X135359580Y-62680952D02*
X135407200Y-62728571D01*
X135407200Y-62728571D02*
X135454819Y-62823809D01*
X135454819Y-62823809D02*
X135454819Y-63109523D01*
X135454819Y-63109523D02*
X135407200Y-63204761D01*
X135407200Y-63204761D02*
X135359580Y-63252380D01*
X135073866Y-62204761D02*
X135073866Y-61442857D01*
X135073866Y-60157142D02*
X135073866Y-59395238D01*
X135454819Y-59776190D02*
X134692914Y-59776190D01*
X134454819Y-59061904D02*
X134454819Y-58490476D01*
X135454819Y-58776190D02*
X134454819Y-58776190D01*
X134550057Y-58204761D02*
X134502438Y-58157142D01*
X134502438Y-58157142D02*
X134454819Y-58061904D01*
X134454819Y-58061904D02*
X134454819Y-57823809D01*
X134454819Y-57823809D02*
X134502438Y-57728571D01*
X134502438Y-57728571D02*
X134550057Y-57680952D01*
X134550057Y-57680952D02*
X134645295Y-57633333D01*
X134645295Y-57633333D02*
X134740533Y-57633333D01*
X134740533Y-57633333D02*
X134883390Y-57680952D01*
X134883390Y-57680952D02*
X135454819Y-58252380D01*
X135454819Y-58252380D02*
X135454819Y-57633333D01*
X135073866Y-57204761D02*
X135073866Y-56442857D01*
X135073866Y-55057142D02*
X135073866Y-54295238D01*
X135454819Y-54676190D02*
X134692914Y-54676190D01*
X134454819Y-53961904D02*
X134454819Y-53390476D01*
X135454819Y-53676190D02*
X134454819Y-53676190D01*
X135454819Y-52533333D02*
X135454819Y-53104761D01*
X135454819Y-52819047D02*
X134454819Y-52819047D01*
X134454819Y-52819047D02*
X134597676Y-52914285D01*
X134597676Y-52914285D02*
X134692914Y-53009523D01*
X134692914Y-53009523D02*
X134740533Y-53104761D01*
X135073866Y-52104761D02*
X135073866Y-51342857D01*
X135073866Y-50057142D02*
X135073866Y-49295238D01*
X135454819Y-49676190D02*
X134692914Y-49676190D01*
X134454819Y-48961904D02*
X134454819Y-48390476D01*
X135454819Y-48676190D02*
X134454819Y-48676190D01*
X134454819Y-47866666D02*
X134454819Y-47771428D01*
X134454819Y-47771428D02*
X134502438Y-47676190D01*
X134502438Y-47676190D02*
X134550057Y-47628571D01*
X134550057Y-47628571D02*
X134645295Y-47580952D01*
X134645295Y-47580952D02*
X134835771Y-47533333D01*
X134835771Y-47533333D02*
X135073866Y-47533333D01*
X135073866Y-47533333D02*
X135264342Y-47580952D01*
X135264342Y-47580952D02*
X135359580Y-47628571D01*
X135359580Y-47628571D02*
X135407200Y-47676190D01*
X135407200Y-47676190D02*
X135454819Y-47771428D01*
X135454819Y-47771428D02*
X135454819Y-47866666D01*
X135454819Y-47866666D02*
X135407200Y-47961904D01*
X135407200Y-47961904D02*
X135359580Y-48009523D01*
X135359580Y-48009523D02*
X135264342Y-48057142D01*
X135264342Y-48057142D02*
X135073866Y-48104761D01*
X135073866Y-48104761D02*
X134835771Y-48104761D01*
X134835771Y-48104761D02*
X134645295Y-48057142D01*
X134645295Y-48057142D02*
X134550057Y-48009523D01*
X134550057Y-48009523D02*
X134502438Y-47961904D01*
X134502438Y-47961904D02*
X134454819Y-47866666D01*
X135073866Y-47104761D02*
X135073866Y-46342857D01*
X147999999Y-35402438D02*
X147904761Y-35354819D01*
X147904761Y-35354819D02*
X147761904Y-35354819D01*
X147761904Y-35354819D02*
X147619047Y-35402438D01*
X147619047Y-35402438D02*
X147523809Y-35497676D01*
X147523809Y-35497676D02*
X147476190Y-35592914D01*
X147476190Y-35592914D02*
X147428571Y-35783390D01*
X147428571Y-35783390D02*
X147428571Y-35926247D01*
X147428571Y-35926247D02*
X147476190Y-36116723D01*
X147476190Y-36116723D02*
X147523809Y-36211961D01*
X147523809Y-36211961D02*
X147619047Y-36307200D01*
X147619047Y-36307200D02*
X147761904Y-36354819D01*
X147761904Y-36354819D02*
X147857142Y-36354819D01*
X147857142Y-36354819D02*
X147999999Y-36307200D01*
X147999999Y-36307200D02*
X148047618Y-36259580D01*
X148047618Y-36259580D02*
X148047618Y-35926247D01*
X148047618Y-35926247D02*
X147857142Y-35926247D01*
X148476190Y-36354819D02*
X148476190Y-35354819D01*
X148476190Y-35354819D02*
X149047618Y-36354819D01*
X149047618Y-36354819D02*
X149047618Y-35354819D01*
X149523809Y-36354819D02*
X149523809Y-35354819D01*
X149523809Y-35354819D02*
X149761904Y-35354819D01*
X149761904Y-35354819D02*
X149904761Y-35402438D01*
X149904761Y-35402438D02*
X149999999Y-35497676D01*
X149999999Y-35497676D02*
X150047618Y-35592914D01*
X150047618Y-35592914D02*
X150095237Y-35783390D01*
X150095237Y-35783390D02*
X150095237Y-35926247D01*
X150095237Y-35926247D02*
X150047618Y-36116723D01*
X150047618Y-36116723D02*
X149999999Y-36211961D01*
X149999999Y-36211961D02*
X149904761Y-36307200D01*
X149904761Y-36307200D02*
X149761904Y-36354819D01*
X149761904Y-36354819D02*
X149523809Y-36354819D01*
X151619047Y-35831009D02*
X151285714Y-35831009D01*
X151285714Y-36354819D02*
X151285714Y-35354819D01*
X151285714Y-35354819D02*
X151761904Y-35354819D01*
X152142857Y-36354819D02*
X152142857Y-35354819D01*
X152142857Y-35354819D02*
X152714285Y-36354819D01*
X152714285Y-36354819D02*
X152714285Y-35354819D01*
X153952381Y-36354819D02*
X153952381Y-35354819D01*
X153952381Y-35354819D02*
X154190476Y-35354819D01*
X154190476Y-35354819D02*
X154333333Y-35402438D01*
X154333333Y-35402438D02*
X154428571Y-35497676D01*
X154428571Y-35497676D02*
X154476190Y-35592914D01*
X154476190Y-35592914D02*
X154523809Y-35783390D01*
X154523809Y-35783390D02*
X154523809Y-35926247D01*
X154523809Y-35926247D02*
X154476190Y-36116723D01*
X154476190Y-36116723D02*
X154428571Y-36211961D01*
X154428571Y-36211961D02*
X154333333Y-36307200D01*
X154333333Y-36307200D02*
X154190476Y-36354819D01*
X154190476Y-36354819D02*
X153952381Y-36354819D01*
X155619047Y-36450057D02*
X155523809Y-36402438D01*
X155523809Y-36402438D02*
X155428571Y-36307200D01*
X155428571Y-36307200D02*
X155285714Y-36164342D01*
X155285714Y-36164342D02*
X155190476Y-36116723D01*
X155190476Y-36116723D02*
X155095238Y-36116723D01*
X155142857Y-36354819D02*
X155047619Y-36307200D01*
X155047619Y-36307200D02*
X154952381Y-36211961D01*
X154952381Y-36211961D02*
X154904762Y-36021485D01*
X154904762Y-36021485D02*
X154904762Y-35688152D01*
X154904762Y-35688152D02*
X154952381Y-35497676D01*
X154952381Y-35497676D02*
X155047619Y-35402438D01*
X155047619Y-35402438D02*
X155142857Y-35354819D01*
X155142857Y-35354819D02*
X155333333Y-35354819D01*
X155333333Y-35354819D02*
X155428571Y-35402438D01*
X155428571Y-35402438D02*
X155523809Y-35497676D01*
X155523809Y-35497676D02*
X155571428Y-35688152D01*
X155571428Y-35688152D02*
X155571428Y-36021485D01*
X155571428Y-36021485D02*
X155523809Y-36211961D01*
X155523809Y-36211961D02*
X155428571Y-36307200D01*
X155428571Y-36307200D02*
X155333333Y-36354819D01*
X155333333Y-36354819D02*
X155142857Y-36354819D01*
X155702438Y-50538095D02*
X155654819Y-50633333D01*
X155654819Y-50633333D02*
X155654819Y-50776190D01*
X155654819Y-50776190D02*
X155702438Y-50919047D01*
X155702438Y-50919047D02*
X155797676Y-51014285D01*
X155797676Y-51014285D02*
X155892914Y-51061904D01*
X155892914Y-51061904D02*
X156083390Y-51109523D01*
X156083390Y-51109523D02*
X156226247Y-51109523D01*
X156226247Y-51109523D02*
X156416723Y-51061904D01*
X156416723Y-51061904D02*
X156511961Y-51014285D01*
X156511961Y-51014285D02*
X156607200Y-50919047D01*
X156607200Y-50919047D02*
X156654819Y-50776190D01*
X156654819Y-50776190D02*
X156654819Y-50680952D01*
X156654819Y-50680952D02*
X156607200Y-50538095D01*
X156607200Y-50538095D02*
X156559580Y-50490476D01*
X156559580Y-50490476D02*
X156226247Y-50490476D01*
X156226247Y-50490476D02*
X156226247Y-50680952D01*
X156654819Y-50061904D02*
X155654819Y-50061904D01*
X155654819Y-50061904D02*
X156654819Y-49490476D01*
X156654819Y-49490476D02*
X155654819Y-49490476D01*
X156654819Y-49014285D02*
X155654819Y-49014285D01*
X155654819Y-49014285D02*
X155654819Y-48776190D01*
X155654819Y-48776190D02*
X155702438Y-48633333D01*
X155702438Y-48633333D02*
X155797676Y-48538095D01*
X155797676Y-48538095D02*
X155892914Y-48490476D01*
X155892914Y-48490476D02*
X156083390Y-48442857D01*
X156083390Y-48442857D02*
X156226247Y-48442857D01*
X156226247Y-48442857D02*
X156416723Y-48490476D01*
X156416723Y-48490476D02*
X156511961Y-48538095D01*
X156511961Y-48538095D02*
X156607200Y-48633333D01*
X156607200Y-48633333D02*
X156654819Y-48776190D01*
X156654819Y-48776190D02*
X156654819Y-49014285D01*
X156654819Y-47252380D02*
X155654819Y-47252380D01*
X155654819Y-47252380D02*
X155654819Y-47014285D01*
X155654819Y-47014285D02*
X155702438Y-46871428D01*
X155702438Y-46871428D02*
X155797676Y-46776190D01*
X155797676Y-46776190D02*
X155892914Y-46728571D01*
X155892914Y-46728571D02*
X156083390Y-46680952D01*
X156083390Y-46680952D02*
X156226247Y-46680952D01*
X156226247Y-46680952D02*
X156416723Y-46728571D01*
X156416723Y-46728571D02*
X156511961Y-46776190D01*
X156511961Y-46776190D02*
X156607200Y-46871428D01*
X156607200Y-46871428D02*
X156654819Y-47014285D01*
X156654819Y-47014285D02*
X156654819Y-47252380D01*
X156273866Y-46252380D02*
X156273866Y-45490476D01*
X156654819Y-45871428D02*
X155892914Y-45871428D01*
X156654819Y-44252380D02*
X155654819Y-44252380D01*
X155654819Y-44252380D02*
X155654819Y-44014285D01*
X155654819Y-44014285D02*
X155702438Y-43871428D01*
X155702438Y-43871428D02*
X155797676Y-43776190D01*
X155797676Y-43776190D02*
X155892914Y-43728571D01*
X155892914Y-43728571D02*
X156083390Y-43680952D01*
X156083390Y-43680952D02*
X156226247Y-43680952D01*
X156226247Y-43680952D02*
X156416723Y-43728571D01*
X156416723Y-43728571D02*
X156511961Y-43776190D01*
X156511961Y-43776190D02*
X156607200Y-43871428D01*
X156607200Y-43871428D02*
X156654819Y-44014285D01*
X156654819Y-44014285D02*
X156654819Y-44252380D01*
X156273866Y-43252380D02*
X156273866Y-42490476D01*
X156273866Y-41252380D02*
X156273866Y-40490476D01*
X156654819Y-40871428D02*
X155892914Y-40871428D01*
X155654819Y-39538095D02*
X155654819Y-40014285D01*
X155654819Y-40014285D02*
X156131009Y-40061904D01*
X156131009Y-40061904D02*
X156083390Y-40014285D01*
X156083390Y-40014285D02*
X156035771Y-39919047D01*
X156035771Y-39919047D02*
X156035771Y-39680952D01*
X156035771Y-39680952D02*
X156083390Y-39585714D01*
X156083390Y-39585714D02*
X156131009Y-39538095D01*
X156131009Y-39538095D02*
X156226247Y-39490476D01*
X156226247Y-39490476D02*
X156464342Y-39490476D01*
X156464342Y-39490476D02*
X156559580Y-39538095D01*
X156559580Y-39538095D02*
X156607200Y-39585714D01*
X156607200Y-39585714D02*
X156654819Y-39680952D01*
X156654819Y-39680952D02*
X156654819Y-39919047D01*
X156654819Y-39919047D02*
X156607200Y-40014285D01*
X156607200Y-40014285D02*
X156559580Y-40061904D01*
D11*
X160878571Y-62978328D02*
X160378571Y-62264042D01*
X160021428Y-62978328D02*
X160021428Y-61478328D01*
X160021428Y-61478328D02*
X160592857Y-61478328D01*
X160592857Y-61478328D02*
X160735714Y-61549757D01*
X160735714Y-61549757D02*
X160807143Y-61621185D01*
X160807143Y-61621185D02*
X160878571Y-61764042D01*
X160878571Y-61764042D02*
X160878571Y-61978328D01*
X160878571Y-61978328D02*
X160807143Y-62121185D01*
X160807143Y-62121185D02*
X160735714Y-62192614D01*
X160735714Y-62192614D02*
X160592857Y-62264042D01*
X160592857Y-62264042D02*
X160021428Y-62264042D01*
X161450000Y-62906900D02*
X161664286Y-62978328D01*
X161664286Y-62978328D02*
X162021428Y-62978328D01*
X162021428Y-62978328D02*
X162164286Y-62906900D01*
X162164286Y-62906900D02*
X162235714Y-62835471D01*
X162235714Y-62835471D02*
X162307143Y-62692614D01*
X162307143Y-62692614D02*
X162307143Y-62549757D01*
X162307143Y-62549757D02*
X162235714Y-62406900D01*
X162235714Y-62406900D02*
X162164286Y-62335471D01*
X162164286Y-62335471D02*
X162021428Y-62264042D01*
X162021428Y-62264042D02*
X161735714Y-62192614D01*
X161735714Y-62192614D02*
X161592857Y-62121185D01*
X161592857Y-62121185D02*
X161521428Y-62049757D01*
X161521428Y-62049757D02*
X161450000Y-61906900D01*
X161450000Y-61906900D02*
X161450000Y-61764042D01*
X161450000Y-61764042D02*
X161521428Y-61621185D01*
X161521428Y-61621185D02*
X161592857Y-61549757D01*
X161592857Y-61549757D02*
X161735714Y-61478328D01*
X161735714Y-61478328D02*
X162092857Y-61478328D01*
X162092857Y-61478328D02*
X162307143Y-61549757D01*
X162735714Y-61478328D02*
X163592857Y-61478328D01*
X163164285Y-62978328D02*
X163164285Y-61478328D01*
X160035714Y-68878328D02*
X160035714Y-67378328D01*
X160678572Y-68806900D02*
X160892858Y-68878328D01*
X160892858Y-68878328D02*
X161250000Y-68878328D01*
X161250000Y-68878328D02*
X161392858Y-68806900D01*
X161392858Y-68806900D02*
X161464286Y-68735471D01*
X161464286Y-68735471D02*
X161535715Y-68592614D01*
X161535715Y-68592614D02*
X161535715Y-68449757D01*
X161535715Y-68449757D02*
X161464286Y-68306900D01*
X161464286Y-68306900D02*
X161392858Y-68235471D01*
X161392858Y-68235471D02*
X161250000Y-68164042D01*
X161250000Y-68164042D02*
X160964286Y-68092614D01*
X160964286Y-68092614D02*
X160821429Y-68021185D01*
X160821429Y-68021185D02*
X160750000Y-67949757D01*
X160750000Y-67949757D02*
X160678572Y-67806900D01*
X160678572Y-67806900D02*
X160678572Y-67664042D01*
X160678572Y-67664042D02*
X160750000Y-67521185D01*
X160750000Y-67521185D02*
X160821429Y-67449757D01*
X160821429Y-67449757D02*
X160964286Y-67378328D01*
X160964286Y-67378328D02*
X161321429Y-67378328D01*
X161321429Y-67378328D02*
X161535715Y-67449757D01*
X162178571Y-68878328D02*
X162178571Y-67378328D01*
X162178571Y-67378328D02*
X162750000Y-67378328D01*
X162750000Y-67378328D02*
X162892857Y-67449757D01*
X162892857Y-67449757D02*
X162964286Y-67521185D01*
X162964286Y-67521185D02*
X163035714Y-67664042D01*
X163035714Y-67664042D02*
X163035714Y-67878328D01*
X163035714Y-67878328D02*
X162964286Y-68021185D01*
X162964286Y-68021185D02*
X162892857Y-68092614D01*
X162892857Y-68092614D02*
X162750000Y-68164042D01*
X162750000Y-68164042D02*
X162178571Y-68164042D01*
D10*
X142395237Y-70802438D02*
X142299999Y-70754819D01*
X142299999Y-70754819D02*
X142157142Y-70754819D01*
X142157142Y-70754819D02*
X142014285Y-70802438D01*
X142014285Y-70802438D02*
X141919047Y-70897676D01*
X141919047Y-70897676D02*
X141871428Y-70992914D01*
X141871428Y-70992914D02*
X141823809Y-71183390D01*
X141823809Y-71183390D02*
X141823809Y-71326247D01*
X141823809Y-71326247D02*
X141871428Y-71516723D01*
X141871428Y-71516723D02*
X141919047Y-71611961D01*
X141919047Y-71611961D02*
X142014285Y-71707200D01*
X142014285Y-71707200D02*
X142157142Y-71754819D01*
X142157142Y-71754819D02*
X142252380Y-71754819D01*
X142252380Y-71754819D02*
X142395237Y-71707200D01*
X142395237Y-71707200D02*
X142442856Y-71659580D01*
X142442856Y-71659580D02*
X142442856Y-71326247D01*
X142442856Y-71326247D02*
X142252380Y-71326247D01*
X142871428Y-71754819D02*
X142871428Y-70754819D01*
X142871428Y-70754819D02*
X143442856Y-71754819D01*
X143442856Y-71754819D02*
X143442856Y-70754819D01*
X143919047Y-71754819D02*
X143919047Y-70754819D01*
X143919047Y-70754819D02*
X144157142Y-70754819D01*
X144157142Y-70754819D02*
X144299999Y-70802438D01*
X144299999Y-70802438D02*
X144395237Y-70897676D01*
X144395237Y-70897676D02*
X144442856Y-70992914D01*
X144442856Y-70992914D02*
X144490475Y-71183390D01*
X144490475Y-71183390D02*
X144490475Y-71326247D01*
X144490475Y-71326247D02*
X144442856Y-71516723D01*
X144442856Y-71516723D02*
X144395237Y-71611961D01*
X144395237Y-71611961D02*
X144299999Y-71707200D01*
X144299999Y-71707200D02*
X144157142Y-71754819D01*
X144157142Y-71754819D02*
X143919047Y-71754819D01*
X145538095Y-70754819D02*
X146109523Y-70754819D01*
X145823809Y-71754819D02*
X145823809Y-70754819D01*
X146347619Y-70754819D02*
X147014285Y-71754819D01*
X147014285Y-70754819D02*
X146347619Y-71754819D01*
X148728571Y-71754819D02*
X148395238Y-71278628D01*
X148157143Y-71754819D02*
X148157143Y-70754819D01*
X148157143Y-70754819D02*
X148538095Y-70754819D01*
X148538095Y-70754819D02*
X148633333Y-70802438D01*
X148633333Y-70802438D02*
X148680952Y-70850057D01*
X148680952Y-70850057D02*
X148728571Y-70945295D01*
X148728571Y-70945295D02*
X148728571Y-71088152D01*
X148728571Y-71088152D02*
X148680952Y-71183390D01*
X148680952Y-71183390D02*
X148633333Y-71231009D01*
X148633333Y-71231009D02*
X148538095Y-71278628D01*
X148538095Y-71278628D02*
X148157143Y-71278628D01*
X149061905Y-70754819D02*
X149728571Y-71754819D01*
X149728571Y-70754819D02*
X149061905Y-71754819D01*
X150871429Y-71754819D02*
X150871429Y-70754819D01*
X150871429Y-70754819D02*
X151442857Y-71754819D01*
X151442857Y-71754819D02*
X151442857Y-70754819D01*
X152490476Y-71754819D02*
X152157143Y-71278628D01*
X151919048Y-71754819D02*
X151919048Y-70754819D01*
X151919048Y-70754819D02*
X152300000Y-70754819D01*
X152300000Y-70754819D02*
X152395238Y-70802438D01*
X152395238Y-70802438D02*
X152442857Y-70850057D01*
X152442857Y-70850057D02*
X152490476Y-70945295D01*
X152490476Y-70945295D02*
X152490476Y-71088152D01*
X152490476Y-71088152D02*
X152442857Y-71183390D01*
X152442857Y-71183390D02*
X152395238Y-71231009D01*
X152395238Y-71231009D02*
X152300000Y-71278628D01*
X152300000Y-71278628D02*
X151919048Y-71278628D01*
X153680953Y-71754819D02*
X153680953Y-70754819D01*
X153680953Y-70754819D02*
X154252381Y-71754819D01*
X154252381Y-71754819D02*
X154252381Y-70754819D01*
X154728572Y-71754819D02*
X154728572Y-70754819D01*
D11*
X147271428Y-67392614D02*
X146771428Y-67392614D01*
X146771428Y-68178328D02*
X146771428Y-66678328D01*
X146771428Y-66678328D02*
X147485714Y-66678328D01*
X147985714Y-67749757D02*
X148700000Y-67749757D01*
X147842857Y-68178328D02*
X148342857Y-66678328D01*
X148342857Y-66678328D02*
X148842857Y-68178328D01*
X149342856Y-68178328D02*
X149342856Y-66678328D01*
X149342856Y-66678328D02*
X150199999Y-68178328D01*
X150199999Y-68178328D02*
X150199999Y-66678328D01*
X152342857Y-66678328D02*
X152628571Y-66678328D01*
X152628571Y-66678328D02*
X152771428Y-66749757D01*
X152771428Y-66749757D02*
X152914285Y-66892614D01*
X152914285Y-66892614D02*
X152985714Y-67178328D01*
X152985714Y-67178328D02*
X152985714Y-67678328D01*
X152985714Y-67678328D02*
X152914285Y-67964042D01*
X152914285Y-67964042D02*
X152771428Y-68106900D01*
X152771428Y-68106900D02*
X152628571Y-68178328D01*
X152628571Y-68178328D02*
X152342857Y-68178328D01*
X152342857Y-68178328D02*
X152200000Y-68106900D01*
X152200000Y-68106900D02*
X152057142Y-67964042D01*
X152057142Y-67964042D02*
X151985714Y-67678328D01*
X151985714Y-67678328D02*
X151985714Y-67178328D01*
X151985714Y-67178328D02*
X152057142Y-66892614D01*
X152057142Y-66892614D02*
X152200000Y-66749757D01*
X152200000Y-66749757D02*
X152342857Y-66678328D01*
X153628571Y-66678328D02*
X153628571Y-67892614D01*
X153628571Y-67892614D02*
X153700000Y-68035471D01*
X153700000Y-68035471D02*
X153771429Y-68106900D01*
X153771429Y-68106900D02*
X153914286Y-68178328D01*
X153914286Y-68178328D02*
X154200000Y-68178328D01*
X154200000Y-68178328D02*
X154342857Y-68106900D01*
X154342857Y-68106900D02*
X154414286Y-68035471D01*
X154414286Y-68035471D02*
X154485714Y-67892614D01*
X154485714Y-67892614D02*
X154485714Y-66678328D01*
X154985715Y-66678328D02*
X155842858Y-66678328D01*
X155414286Y-68178328D02*
X155414286Y-66678328D01*
D10*
X163316666Y-46504819D02*
X163316666Y-47219104D01*
X163316666Y-47219104D02*
X163269047Y-47361961D01*
X163269047Y-47361961D02*
X163173809Y-47457200D01*
X163173809Y-47457200D02*
X163030952Y-47504819D01*
X163030952Y-47504819D02*
X162935714Y-47504819D01*
X164221428Y-46504819D02*
X164030952Y-46504819D01*
X164030952Y-46504819D02*
X163935714Y-46552438D01*
X163935714Y-46552438D02*
X163888095Y-46600057D01*
X163888095Y-46600057D02*
X163792857Y-46742914D01*
X163792857Y-46742914D02*
X163745238Y-46933390D01*
X163745238Y-46933390D02*
X163745238Y-47314342D01*
X163745238Y-47314342D02*
X163792857Y-47409580D01*
X163792857Y-47409580D02*
X163840476Y-47457200D01*
X163840476Y-47457200D02*
X163935714Y-47504819D01*
X163935714Y-47504819D02*
X164126190Y-47504819D01*
X164126190Y-47504819D02*
X164221428Y-47457200D01*
X164221428Y-47457200D02*
X164269047Y-47409580D01*
X164269047Y-47409580D02*
X164316666Y-47314342D01*
X164316666Y-47314342D02*
X164316666Y-47076247D01*
X164316666Y-47076247D02*
X164269047Y-46981009D01*
X164269047Y-46981009D02*
X164221428Y-46933390D01*
X164221428Y-46933390D02*
X164126190Y-46885771D01*
X164126190Y-46885771D02*
X163935714Y-46885771D01*
X163935714Y-46885771D02*
X163840476Y-46933390D01*
X163840476Y-46933390D02*
X163792857Y-46981009D01*
X163792857Y-46981009D02*
X163745238Y-47076247D01*
X150716666Y-65304819D02*
X150716666Y-66019104D01*
X150716666Y-66019104D02*
X150669047Y-66161961D01*
X150669047Y-66161961D02*
X150573809Y-66257200D01*
X150573809Y-66257200D02*
X150430952Y-66304819D01*
X150430952Y-66304819D02*
X150335714Y-66304819D01*
X151669047Y-65304819D02*
X151192857Y-65304819D01*
X151192857Y-65304819D02*
X151145238Y-65781009D01*
X151145238Y-65781009D02*
X151192857Y-65733390D01*
X151192857Y-65733390D02*
X151288095Y-65685771D01*
X151288095Y-65685771D02*
X151526190Y-65685771D01*
X151526190Y-65685771D02*
X151621428Y-65733390D01*
X151621428Y-65733390D02*
X151669047Y-65781009D01*
X151669047Y-65781009D02*
X151716666Y-65876247D01*
X151716666Y-65876247D02*
X151716666Y-66114342D01*
X151716666Y-66114342D02*
X151669047Y-66209580D01*
X151669047Y-66209580D02*
X151621428Y-66257200D01*
X151621428Y-66257200D02*
X151526190Y-66304819D01*
X151526190Y-66304819D02*
X151288095Y-66304819D01*
X151288095Y-66304819D02*
X151192857Y-66257200D01*
X151192857Y-66257200D02*
X151145238Y-66209580D01*
X135166666Y-39154819D02*
X135166666Y-39869104D01*
X135166666Y-39869104D02*
X135119047Y-40011961D01*
X135119047Y-40011961D02*
X135023809Y-40107200D01*
X135023809Y-40107200D02*
X134880952Y-40154819D01*
X134880952Y-40154819D02*
X134785714Y-40154819D01*
X135547619Y-39154819D02*
X136166666Y-39154819D01*
X136166666Y-39154819D02*
X135833333Y-39535771D01*
X135833333Y-39535771D02*
X135976190Y-39535771D01*
X135976190Y-39535771D02*
X136071428Y-39583390D01*
X136071428Y-39583390D02*
X136119047Y-39631009D01*
X136119047Y-39631009D02*
X136166666Y-39726247D01*
X136166666Y-39726247D02*
X136166666Y-39964342D01*
X136166666Y-39964342D02*
X136119047Y-40059580D01*
X136119047Y-40059580D02*
X136071428Y-40107200D01*
X136071428Y-40107200D02*
X135976190Y-40154819D01*
X135976190Y-40154819D02*
X135690476Y-40154819D01*
X135690476Y-40154819D02*
X135595238Y-40107200D01*
X135595238Y-40107200D02*
X135547619Y-40059580D01*
X148488095Y-55617319D02*
X148488095Y-56426842D01*
X148488095Y-56426842D02*
X148535714Y-56522080D01*
X148535714Y-56522080D02*
X148583333Y-56569700D01*
X148583333Y-56569700D02*
X148678571Y-56617319D01*
X148678571Y-56617319D02*
X148869047Y-56617319D01*
X148869047Y-56617319D02*
X148964285Y-56569700D01*
X148964285Y-56569700D02*
X149011904Y-56522080D01*
X149011904Y-56522080D02*
X149059523Y-56426842D01*
X149059523Y-56426842D02*
X149059523Y-55617319D01*
X149440476Y-55617319D02*
X150107142Y-55617319D01*
X150107142Y-55617319D02*
X149678571Y-56617319D01*
X146954819Y-36066666D02*
X146478628Y-36399999D01*
X146954819Y-36638094D02*
X145954819Y-36638094D01*
X145954819Y-36638094D02*
X145954819Y-36257142D01*
X145954819Y-36257142D02*
X146002438Y-36161904D01*
X146002438Y-36161904D02*
X146050057Y-36114285D01*
X146050057Y-36114285D02*
X146145295Y-36066666D01*
X146145295Y-36066666D02*
X146288152Y-36066666D01*
X146288152Y-36066666D02*
X146383390Y-36114285D01*
X146383390Y-36114285D02*
X146431009Y-36161904D01*
X146431009Y-36161904D02*
X146478628Y-36257142D01*
X146478628Y-36257142D02*
X146478628Y-36638094D01*
X146954819Y-35590475D02*
X146954819Y-35399999D01*
X146954819Y-35399999D02*
X146907200Y-35304761D01*
X146907200Y-35304761D02*
X146859580Y-35257142D01*
X146859580Y-35257142D02*
X146716723Y-35161904D01*
X146716723Y-35161904D02*
X146526247Y-35114285D01*
X146526247Y-35114285D02*
X146145295Y-35114285D01*
X146145295Y-35114285D02*
X146050057Y-35161904D01*
X146050057Y-35161904D02*
X146002438Y-35209523D01*
X146002438Y-35209523D02*
X145954819Y-35304761D01*
X145954819Y-35304761D02*
X145954819Y-35495237D01*
X145954819Y-35495237D02*
X146002438Y-35590475D01*
X146002438Y-35590475D02*
X146050057Y-35638094D01*
X146050057Y-35638094D02*
X146145295Y-35685713D01*
X146145295Y-35685713D02*
X146383390Y-35685713D01*
X146383390Y-35685713D02*
X146478628Y-35638094D01*
X146478628Y-35638094D02*
X146526247Y-35590475D01*
X146526247Y-35590475D02*
X146573866Y-35495237D01*
X146573866Y-35495237D02*
X146573866Y-35304761D01*
X146573866Y-35304761D02*
X146526247Y-35209523D01*
X146526247Y-35209523D02*
X146478628Y-35161904D01*
X146478628Y-35161904D02*
X146383390Y-35114285D01*
X142524819Y-36466666D02*
X142048628Y-36799999D01*
X142524819Y-37038094D02*
X141524819Y-37038094D01*
X141524819Y-37038094D02*
X141524819Y-36657142D01*
X141524819Y-36657142D02*
X141572438Y-36561904D01*
X141572438Y-36561904D02*
X141620057Y-36514285D01*
X141620057Y-36514285D02*
X141715295Y-36466666D01*
X141715295Y-36466666D02*
X141858152Y-36466666D01*
X141858152Y-36466666D02*
X141953390Y-36514285D01*
X141953390Y-36514285D02*
X142001009Y-36561904D01*
X142001009Y-36561904D02*
X142048628Y-36657142D01*
X142048628Y-36657142D02*
X142048628Y-37038094D01*
X141953390Y-35895237D02*
X141905771Y-35990475D01*
X141905771Y-35990475D02*
X141858152Y-36038094D01*
X141858152Y-36038094D02*
X141762914Y-36085713D01*
X141762914Y-36085713D02*
X141715295Y-36085713D01*
X141715295Y-36085713D02*
X141620057Y-36038094D01*
X141620057Y-36038094D02*
X141572438Y-35990475D01*
X141572438Y-35990475D02*
X141524819Y-35895237D01*
X141524819Y-35895237D02*
X141524819Y-35704761D01*
X141524819Y-35704761D02*
X141572438Y-35609523D01*
X141572438Y-35609523D02*
X141620057Y-35561904D01*
X141620057Y-35561904D02*
X141715295Y-35514285D01*
X141715295Y-35514285D02*
X141762914Y-35514285D01*
X141762914Y-35514285D02*
X141858152Y-35561904D01*
X141858152Y-35561904D02*
X141905771Y-35609523D01*
X141905771Y-35609523D02*
X141953390Y-35704761D01*
X141953390Y-35704761D02*
X141953390Y-35895237D01*
X141953390Y-35895237D02*
X142001009Y-35990475D01*
X142001009Y-35990475D02*
X142048628Y-36038094D01*
X142048628Y-36038094D02*
X142143866Y-36085713D01*
X142143866Y-36085713D02*
X142334342Y-36085713D01*
X142334342Y-36085713D02*
X142429580Y-36038094D01*
X142429580Y-36038094D02*
X142477200Y-35990475D01*
X142477200Y-35990475D02*
X142524819Y-35895237D01*
X142524819Y-35895237D02*
X142524819Y-35704761D01*
X142524819Y-35704761D02*
X142477200Y-35609523D01*
X142477200Y-35609523D02*
X142429580Y-35561904D01*
X142429580Y-35561904D02*
X142334342Y-35514285D01*
X142334342Y-35514285D02*
X142143866Y-35514285D01*
X142143866Y-35514285D02*
X142048628Y-35561904D01*
X142048628Y-35561904D02*
X142001009Y-35609523D01*
X142001009Y-35609523D02*
X141953390Y-35704761D01*
X142454819Y-33738094D02*
X141454819Y-33738094D01*
X141454819Y-33738094D02*
X141454819Y-33499999D01*
X141454819Y-33499999D02*
X141502438Y-33357142D01*
X141502438Y-33357142D02*
X141597676Y-33261904D01*
X141597676Y-33261904D02*
X141692914Y-33214285D01*
X141692914Y-33214285D02*
X141883390Y-33166666D01*
X141883390Y-33166666D02*
X142026247Y-33166666D01*
X142026247Y-33166666D02*
X142216723Y-33214285D01*
X142216723Y-33214285D02*
X142311961Y-33261904D01*
X142311961Y-33261904D02*
X142407200Y-33357142D01*
X142407200Y-33357142D02*
X142454819Y-33499999D01*
X142454819Y-33499999D02*
X142454819Y-33738094D01*
X141454819Y-32833332D02*
X141454819Y-32214285D01*
X141454819Y-32214285D02*
X141835771Y-32547618D01*
X141835771Y-32547618D02*
X141835771Y-32404761D01*
X141835771Y-32404761D02*
X141883390Y-32309523D01*
X141883390Y-32309523D02*
X141931009Y-32261904D01*
X141931009Y-32261904D02*
X142026247Y-32214285D01*
X142026247Y-32214285D02*
X142264342Y-32214285D01*
X142264342Y-32214285D02*
X142359580Y-32261904D01*
X142359580Y-32261904D02*
X142407200Y-32309523D01*
X142407200Y-32309523D02*
X142454819Y-32404761D01*
X142454819Y-32404761D02*
X142454819Y-32690475D01*
X142454819Y-32690475D02*
X142407200Y-32785713D01*
X142407200Y-32785713D02*
X142359580Y-32833332D01*
X147104819Y-34038094D02*
X146104819Y-34038094D01*
X146104819Y-34038094D02*
X146104819Y-33799999D01*
X146104819Y-33799999D02*
X146152438Y-33657142D01*
X146152438Y-33657142D02*
X146247676Y-33561904D01*
X146247676Y-33561904D02*
X146342914Y-33514285D01*
X146342914Y-33514285D02*
X146533390Y-33466666D01*
X146533390Y-33466666D02*
X146676247Y-33466666D01*
X146676247Y-33466666D02*
X146866723Y-33514285D01*
X146866723Y-33514285D02*
X146961961Y-33561904D01*
X146961961Y-33561904D02*
X147057200Y-33657142D01*
X147057200Y-33657142D02*
X147104819Y-33799999D01*
X147104819Y-33799999D02*
X147104819Y-34038094D01*
X146200057Y-33085713D02*
X146152438Y-33038094D01*
X146152438Y-33038094D02*
X146104819Y-32942856D01*
X146104819Y-32942856D02*
X146104819Y-32704761D01*
X146104819Y-32704761D02*
X146152438Y-32609523D01*
X146152438Y-32609523D02*
X146200057Y-32561904D01*
X146200057Y-32561904D02*
X146295295Y-32514285D01*
X146295295Y-32514285D02*
X146390533Y-32514285D01*
X146390533Y-32514285D02*
X146533390Y-32561904D01*
X146533390Y-32561904D02*
X147104819Y-33133332D01*
X147104819Y-33133332D02*
X147104819Y-32514285D01*
X146259580Y-56666666D02*
X146307200Y-56714285D01*
X146307200Y-56714285D02*
X146354819Y-56857142D01*
X146354819Y-56857142D02*
X146354819Y-56952380D01*
X146354819Y-56952380D02*
X146307200Y-57095237D01*
X146307200Y-57095237D02*
X146211961Y-57190475D01*
X146211961Y-57190475D02*
X146116723Y-57238094D01*
X146116723Y-57238094D02*
X145926247Y-57285713D01*
X145926247Y-57285713D02*
X145783390Y-57285713D01*
X145783390Y-57285713D02*
X145592914Y-57238094D01*
X145592914Y-57238094D02*
X145497676Y-57190475D01*
X145497676Y-57190475D02*
X145402438Y-57095237D01*
X145402438Y-57095237D02*
X145354819Y-56952380D01*
X145354819Y-56952380D02*
X145354819Y-56857142D01*
X145354819Y-56857142D02*
X145402438Y-56714285D01*
X145402438Y-56714285D02*
X145450057Y-56666666D01*
X145354819Y-55809523D02*
X145354819Y-55999999D01*
X145354819Y-55999999D02*
X145402438Y-56095237D01*
X145402438Y-56095237D02*
X145450057Y-56142856D01*
X145450057Y-56142856D02*
X145592914Y-56238094D01*
X145592914Y-56238094D02*
X145783390Y-56285713D01*
X145783390Y-56285713D02*
X146164342Y-56285713D01*
X146164342Y-56285713D02*
X146259580Y-56238094D01*
X146259580Y-56238094D02*
X146307200Y-56190475D01*
X146307200Y-56190475D02*
X146354819Y-56095237D01*
X146354819Y-56095237D02*
X146354819Y-55904761D01*
X146354819Y-55904761D02*
X146307200Y-55809523D01*
X146307200Y-55809523D02*
X146259580Y-55761904D01*
X146259580Y-55761904D02*
X146164342Y-55714285D01*
X146164342Y-55714285D02*
X145926247Y-55714285D01*
X145926247Y-55714285D02*
X145831009Y-55761904D01*
X145831009Y-55761904D02*
X145783390Y-55809523D01*
X145783390Y-55809523D02*
X145735771Y-55904761D01*
X145735771Y-55904761D02*
X145735771Y-56095237D01*
X145735771Y-56095237D02*
X145783390Y-56190475D01*
X145783390Y-56190475D02*
X145831009Y-56238094D01*
X145831009Y-56238094D02*
X145926247Y-56285713D01*
X165066666Y-58554819D02*
X165066666Y-59269104D01*
X165066666Y-59269104D02*
X165019047Y-59411961D01*
X165019047Y-59411961D02*
X164923809Y-59507200D01*
X164923809Y-59507200D02*
X164780952Y-59554819D01*
X164780952Y-59554819D02*
X164685714Y-59554819D01*
X165685714Y-58983390D02*
X165590476Y-58935771D01*
X165590476Y-58935771D02*
X165542857Y-58888152D01*
X165542857Y-58888152D02*
X165495238Y-58792914D01*
X165495238Y-58792914D02*
X165495238Y-58745295D01*
X165495238Y-58745295D02*
X165542857Y-58650057D01*
X165542857Y-58650057D02*
X165590476Y-58602438D01*
X165590476Y-58602438D02*
X165685714Y-58554819D01*
X165685714Y-58554819D02*
X165876190Y-58554819D01*
X165876190Y-58554819D02*
X165971428Y-58602438D01*
X165971428Y-58602438D02*
X166019047Y-58650057D01*
X166019047Y-58650057D02*
X166066666Y-58745295D01*
X166066666Y-58745295D02*
X166066666Y-58792914D01*
X166066666Y-58792914D02*
X166019047Y-58888152D01*
X166019047Y-58888152D02*
X165971428Y-58935771D01*
X165971428Y-58935771D02*
X165876190Y-58983390D01*
X165876190Y-58983390D02*
X165685714Y-58983390D01*
X165685714Y-58983390D02*
X165590476Y-59031009D01*
X165590476Y-59031009D02*
X165542857Y-59078628D01*
X165542857Y-59078628D02*
X165495238Y-59173866D01*
X165495238Y-59173866D02*
X165495238Y-59364342D01*
X165495238Y-59364342D02*
X165542857Y-59459580D01*
X165542857Y-59459580D02*
X165590476Y-59507200D01*
X165590476Y-59507200D02*
X165685714Y-59554819D01*
X165685714Y-59554819D02*
X165876190Y-59554819D01*
X165876190Y-59554819D02*
X165971428Y-59507200D01*
X165971428Y-59507200D02*
X166019047Y-59459580D01*
X166019047Y-59459580D02*
X166066666Y-59364342D01*
X166066666Y-59364342D02*
X166066666Y-59173866D01*
X166066666Y-59173866D02*
X166019047Y-59078628D01*
X166019047Y-59078628D02*
X165971428Y-59031009D01*
X165971428Y-59031009D02*
X165876190Y-58983390D01*
X154033333Y-58484819D02*
X153700000Y-58008628D01*
X153461905Y-58484819D02*
X153461905Y-57484819D01*
X153461905Y-57484819D02*
X153842857Y-57484819D01*
X153842857Y-57484819D02*
X153938095Y-57532438D01*
X153938095Y-57532438D02*
X153985714Y-57580057D01*
X153985714Y-57580057D02*
X154033333Y-57675295D01*
X154033333Y-57675295D02*
X154033333Y-57818152D01*
X154033333Y-57818152D02*
X153985714Y-57913390D01*
X153985714Y-57913390D02*
X153938095Y-57961009D01*
X153938095Y-57961009D02*
X153842857Y-58008628D01*
X153842857Y-58008628D02*
X153461905Y-58008628D01*
X154366667Y-57484819D02*
X155033333Y-57484819D01*
X155033333Y-57484819D02*
X154604762Y-58484819D01*
X159054819Y-43066666D02*
X158578628Y-43399999D01*
X159054819Y-43638094D02*
X158054819Y-43638094D01*
X158054819Y-43638094D02*
X158054819Y-43257142D01*
X158054819Y-43257142D02*
X158102438Y-43161904D01*
X158102438Y-43161904D02*
X158150057Y-43114285D01*
X158150057Y-43114285D02*
X158245295Y-43066666D01*
X158245295Y-43066666D02*
X158388152Y-43066666D01*
X158388152Y-43066666D02*
X158483390Y-43114285D01*
X158483390Y-43114285D02*
X158531009Y-43161904D01*
X158531009Y-43161904D02*
X158578628Y-43257142D01*
X158578628Y-43257142D02*
X158578628Y-43638094D01*
X158054819Y-42209523D02*
X158054819Y-42399999D01*
X158054819Y-42399999D02*
X158102438Y-42495237D01*
X158102438Y-42495237D02*
X158150057Y-42542856D01*
X158150057Y-42542856D02*
X158292914Y-42638094D01*
X158292914Y-42638094D02*
X158483390Y-42685713D01*
X158483390Y-42685713D02*
X158864342Y-42685713D01*
X158864342Y-42685713D02*
X158959580Y-42638094D01*
X158959580Y-42638094D02*
X159007200Y-42590475D01*
X159007200Y-42590475D02*
X159054819Y-42495237D01*
X159054819Y-42495237D02*
X159054819Y-42304761D01*
X159054819Y-42304761D02*
X159007200Y-42209523D01*
X159007200Y-42209523D02*
X158959580Y-42161904D01*
X158959580Y-42161904D02*
X158864342Y-42114285D01*
X158864342Y-42114285D02*
X158626247Y-42114285D01*
X158626247Y-42114285D02*
X158531009Y-42161904D01*
X158531009Y-42161904D02*
X158483390Y-42209523D01*
X158483390Y-42209523D02*
X158435771Y-42304761D01*
X158435771Y-42304761D02*
X158435771Y-42495237D01*
X158435771Y-42495237D02*
X158483390Y-42590475D01*
X158483390Y-42590475D02*
X158531009Y-42638094D01*
X158531009Y-42638094D02*
X158626247Y-42685713D01*
X166290666Y-68034819D02*
X166290666Y-68749104D01*
X166290666Y-68749104D02*
X166243047Y-68891961D01*
X166243047Y-68891961D02*
X166147809Y-68987200D01*
X166147809Y-68987200D02*
X166004952Y-69034819D01*
X166004952Y-69034819D02*
X165909714Y-69034819D01*
X166814476Y-69034819D02*
X167004952Y-69034819D01*
X167004952Y-69034819D02*
X167100190Y-68987200D01*
X167100190Y-68987200D02*
X167147809Y-68939580D01*
X167147809Y-68939580D02*
X167243047Y-68796723D01*
X167243047Y-68796723D02*
X167290666Y-68606247D01*
X167290666Y-68606247D02*
X167290666Y-68225295D01*
X167290666Y-68225295D02*
X167243047Y-68130057D01*
X167243047Y-68130057D02*
X167195428Y-68082438D01*
X167195428Y-68082438D02*
X167100190Y-68034819D01*
X167100190Y-68034819D02*
X166909714Y-68034819D01*
X166909714Y-68034819D02*
X166814476Y-68082438D01*
X166814476Y-68082438D02*
X166766857Y-68130057D01*
X166766857Y-68130057D02*
X166719238Y-68225295D01*
X166719238Y-68225295D02*
X166719238Y-68463390D01*
X166719238Y-68463390D02*
X166766857Y-68558628D01*
X166766857Y-68558628D02*
X166814476Y-68606247D01*
X166814476Y-68606247D02*
X166909714Y-68653866D01*
X166909714Y-68653866D02*
X167100190Y-68653866D01*
X167100190Y-68653866D02*
X167195428Y-68606247D01*
X167195428Y-68606247D02*
X167243047Y-68558628D01*
X167243047Y-68558628D02*
X167290666Y-68463390D01*
X153561905Y-55704819D02*
X153561905Y-54704819D01*
X153561905Y-54704819D02*
X153800000Y-54704819D01*
X153800000Y-54704819D02*
X153942857Y-54752438D01*
X153942857Y-54752438D02*
X154038095Y-54847676D01*
X154038095Y-54847676D02*
X154085714Y-54942914D01*
X154085714Y-54942914D02*
X154133333Y-55133390D01*
X154133333Y-55133390D02*
X154133333Y-55276247D01*
X154133333Y-55276247D02*
X154085714Y-55466723D01*
X154085714Y-55466723D02*
X154038095Y-55561961D01*
X154038095Y-55561961D02*
X153942857Y-55657200D01*
X153942857Y-55657200D02*
X153800000Y-55704819D01*
X153800000Y-55704819D02*
X153561905Y-55704819D01*
X155085714Y-55704819D02*
X154514286Y-55704819D01*
X154800000Y-55704819D02*
X154800000Y-54704819D01*
X154800000Y-54704819D02*
X154704762Y-54847676D01*
X154704762Y-54847676D02*
X154609524Y-54942914D01*
X154609524Y-54942914D02*
X154514286Y-54990533D01*
X128466666Y-68354819D02*
X128466666Y-69069104D01*
X128466666Y-69069104D02*
X128419047Y-69211961D01*
X128419047Y-69211961D02*
X128323809Y-69307200D01*
X128323809Y-69307200D02*
X128180952Y-69354819D01*
X128180952Y-69354819D02*
X128085714Y-69354819D01*
X129371428Y-68688152D02*
X129371428Y-69354819D01*
X129133333Y-68307200D02*
X128895238Y-69021485D01*
X128895238Y-69021485D02*
X129514285Y-69021485D01*
X141138095Y-38354819D02*
X141138095Y-39164342D01*
X141138095Y-39164342D02*
X141185714Y-39259580D01*
X141185714Y-39259580D02*
X141233333Y-39307200D01*
X141233333Y-39307200D02*
X141328571Y-39354819D01*
X141328571Y-39354819D02*
X141519047Y-39354819D01*
X141519047Y-39354819D02*
X141614285Y-39307200D01*
X141614285Y-39307200D02*
X141661904Y-39259580D01*
X141661904Y-39259580D02*
X141709523Y-39164342D01*
X141709523Y-39164342D02*
X141709523Y-38354819D01*
X142138095Y-38450057D02*
X142185714Y-38402438D01*
X142185714Y-38402438D02*
X142280952Y-38354819D01*
X142280952Y-38354819D02*
X142519047Y-38354819D01*
X142519047Y-38354819D02*
X142614285Y-38402438D01*
X142614285Y-38402438D02*
X142661904Y-38450057D01*
X142661904Y-38450057D02*
X142709523Y-38545295D01*
X142709523Y-38545295D02*
X142709523Y-38640533D01*
X142709523Y-38640533D02*
X142661904Y-38783390D01*
X142661904Y-38783390D02*
X142090476Y-39354819D01*
X142090476Y-39354819D02*
X142709523Y-39354819D01*
X130466666Y-66754819D02*
X130466666Y-67469104D01*
X130466666Y-67469104D02*
X130419047Y-67611961D01*
X130419047Y-67611961D02*
X130323809Y-67707200D01*
X130323809Y-67707200D02*
X130180952Y-67754819D01*
X130180952Y-67754819D02*
X130085714Y-67754819D01*
X130895238Y-66850057D02*
X130942857Y-66802438D01*
X130942857Y-66802438D02*
X131038095Y-66754819D01*
X131038095Y-66754819D02*
X131276190Y-66754819D01*
X131276190Y-66754819D02*
X131371428Y-66802438D01*
X131371428Y-66802438D02*
X131419047Y-66850057D01*
X131419047Y-66850057D02*
X131466666Y-66945295D01*
X131466666Y-66945295D02*
X131466666Y-67040533D01*
X131466666Y-67040533D02*
X131419047Y-67183390D01*
X131419047Y-67183390D02*
X130847619Y-67754819D01*
X130847619Y-67754819D02*
X131466666Y-67754819D01*
X140938095Y-70154819D02*
X140938095Y-69154819D01*
X140938095Y-69631009D02*
X141509523Y-69631009D01*
X141509523Y-70154819D02*
X141509523Y-69154819D01*
X142509523Y-70154819D02*
X141938095Y-70154819D01*
X142223809Y-70154819D02*
X142223809Y-69154819D01*
X142223809Y-69154819D02*
X142128571Y-69297676D01*
X142128571Y-69297676D02*
X142033333Y-69392914D01*
X142033333Y-69392914D02*
X141938095Y-69440533D01*
X159138095Y-75054819D02*
X159138095Y-74054819D01*
X159138095Y-74531009D02*
X159709523Y-74531009D01*
X159709523Y-75054819D02*
X159709523Y-74054819D01*
X160138095Y-74150057D02*
X160185714Y-74102438D01*
X160185714Y-74102438D02*
X160280952Y-74054819D01*
X160280952Y-74054819D02*
X160519047Y-74054819D01*
X160519047Y-74054819D02*
X160614285Y-74102438D01*
X160614285Y-74102438D02*
X160661904Y-74150057D01*
X160661904Y-74150057D02*
X160709523Y-74245295D01*
X160709523Y-74245295D02*
X160709523Y-74340533D01*
X160709523Y-74340533D02*
X160661904Y-74483390D01*
X160661904Y-74483390D02*
X160090476Y-75054819D01*
X160090476Y-75054819D02*
X160709523Y-75054819D01*
X138738095Y-39654819D02*
X138738095Y-38654819D01*
X138738095Y-39131009D02*
X139309523Y-39131009D01*
X139309523Y-39654819D02*
X139309523Y-38654819D01*
X139690476Y-38654819D02*
X140309523Y-38654819D01*
X140309523Y-38654819D02*
X139976190Y-39035771D01*
X139976190Y-39035771D02*
X140119047Y-39035771D01*
X140119047Y-39035771D02*
X140214285Y-39083390D01*
X140214285Y-39083390D02*
X140261904Y-39131009D01*
X140261904Y-39131009D02*
X140309523Y-39226247D01*
X140309523Y-39226247D02*
X140309523Y-39464342D01*
X140309523Y-39464342D02*
X140261904Y-39559580D01*
X140261904Y-39559580D02*
X140214285Y-39607200D01*
X140214285Y-39607200D02*
X140119047Y-39654819D01*
X140119047Y-39654819D02*
X139833333Y-39654819D01*
X139833333Y-39654819D02*
X139738095Y-39607200D01*
X139738095Y-39607200D02*
X139690476Y-39559580D01*
X159938095Y-32354819D02*
X159938095Y-31354819D01*
X159938095Y-31831009D02*
X160509523Y-31831009D01*
X160509523Y-32354819D02*
X160509523Y-31354819D01*
X161414285Y-31688152D02*
X161414285Y-32354819D01*
X161176190Y-31307200D02*
X160938095Y-32021485D01*
X160938095Y-32021485D02*
X161557142Y-32021485D01*
X159966667Y-61007200D02*
X160109524Y-61054819D01*
X160109524Y-61054819D02*
X160347619Y-61054819D01*
X160347619Y-61054819D02*
X160442857Y-61007200D01*
X160442857Y-61007200D02*
X160490476Y-60959580D01*
X160490476Y-60959580D02*
X160538095Y-60864342D01*
X160538095Y-60864342D02*
X160538095Y-60769104D01*
X160538095Y-60769104D02*
X160490476Y-60673866D01*
X160490476Y-60673866D02*
X160442857Y-60626247D01*
X160442857Y-60626247D02*
X160347619Y-60578628D01*
X160347619Y-60578628D02*
X160157143Y-60531009D01*
X160157143Y-60531009D02*
X160061905Y-60483390D01*
X160061905Y-60483390D02*
X160014286Y-60435771D01*
X160014286Y-60435771D02*
X159966667Y-60340533D01*
X159966667Y-60340533D02*
X159966667Y-60245295D01*
X159966667Y-60245295D02*
X160014286Y-60150057D01*
X160014286Y-60150057D02*
X160061905Y-60102438D01*
X160061905Y-60102438D02*
X160157143Y-60054819D01*
X160157143Y-60054819D02*
X160395238Y-60054819D01*
X160395238Y-60054819D02*
X160538095Y-60102438D01*
X160871429Y-60054819D02*
X161109524Y-61054819D01*
X161109524Y-61054819D02*
X161300000Y-60340533D01*
X161300000Y-60340533D02*
X161490476Y-61054819D01*
X161490476Y-61054819D02*
X161728572Y-60054819D01*
X162061905Y-60150057D02*
X162109524Y-60102438D01*
X162109524Y-60102438D02*
X162204762Y-60054819D01*
X162204762Y-60054819D02*
X162442857Y-60054819D01*
X162442857Y-60054819D02*
X162538095Y-60102438D01*
X162538095Y-60102438D02*
X162585714Y-60150057D01*
X162585714Y-60150057D02*
X162633333Y-60245295D01*
X162633333Y-60245295D02*
X162633333Y-60340533D01*
X162633333Y-60340533D02*
X162585714Y-60483390D01*
X162585714Y-60483390D02*
X162014286Y-61054819D01*
X162014286Y-61054819D02*
X162633333Y-61054819D01*
X148033333Y-43954819D02*
X147700000Y-43478628D01*
X147461905Y-43954819D02*
X147461905Y-42954819D01*
X147461905Y-42954819D02*
X147842857Y-42954819D01*
X147842857Y-42954819D02*
X147938095Y-43002438D01*
X147938095Y-43002438D02*
X147985714Y-43050057D01*
X147985714Y-43050057D02*
X148033333Y-43145295D01*
X148033333Y-43145295D02*
X148033333Y-43288152D01*
X148033333Y-43288152D02*
X147985714Y-43383390D01*
X147985714Y-43383390D02*
X147938095Y-43431009D01*
X147938095Y-43431009D02*
X147842857Y-43478628D01*
X147842857Y-43478628D02*
X147461905Y-43478628D01*
X148938095Y-42954819D02*
X148461905Y-42954819D01*
X148461905Y-42954819D02*
X148414286Y-43431009D01*
X148414286Y-43431009D02*
X148461905Y-43383390D01*
X148461905Y-43383390D02*
X148557143Y-43335771D01*
X148557143Y-43335771D02*
X148795238Y-43335771D01*
X148795238Y-43335771D02*
X148890476Y-43383390D01*
X148890476Y-43383390D02*
X148938095Y-43431009D01*
X148938095Y-43431009D02*
X148985714Y-43526247D01*
X148985714Y-43526247D02*
X148985714Y-43764342D01*
X148985714Y-43764342D02*
X148938095Y-43859580D01*
X148938095Y-43859580D02*
X148890476Y-43907200D01*
X148890476Y-43907200D02*
X148795238Y-43954819D01*
X148795238Y-43954819D02*
X148557143Y-43954819D01*
X148557143Y-43954819D02*
X148461905Y-43907200D01*
X148461905Y-43907200D02*
X148414286Y-43859580D01*
X148033333Y-45254819D02*
X147700000Y-44778628D01*
X147461905Y-45254819D02*
X147461905Y-44254819D01*
X147461905Y-44254819D02*
X147842857Y-44254819D01*
X147842857Y-44254819D02*
X147938095Y-44302438D01*
X147938095Y-44302438D02*
X147985714Y-44350057D01*
X147985714Y-44350057D02*
X148033333Y-44445295D01*
X148033333Y-44445295D02*
X148033333Y-44588152D01*
X148033333Y-44588152D02*
X147985714Y-44683390D01*
X147985714Y-44683390D02*
X147938095Y-44731009D01*
X147938095Y-44731009D02*
X147842857Y-44778628D01*
X147842857Y-44778628D02*
X147461905Y-44778628D01*
X148890476Y-44588152D02*
X148890476Y-45254819D01*
X148652381Y-44207200D02*
X148414286Y-44921485D01*
X148414286Y-44921485D02*
X149033333Y-44921485D01*
X146154819Y-40566666D02*
X145678628Y-40899999D01*
X146154819Y-41138094D02*
X145154819Y-41138094D01*
X145154819Y-41138094D02*
X145154819Y-40757142D01*
X145154819Y-40757142D02*
X145202438Y-40661904D01*
X145202438Y-40661904D02*
X145250057Y-40614285D01*
X145250057Y-40614285D02*
X145345295Y-40566666D01*
X145345295Y-40566666D02*
X145488152Y-40566666D01*
X145488152Y-40566666D02*
X145583390Y-40614285D01*
X145583390Y-40614285D02*
X145631009Y-40661904D01*
X145631009Y-40661904D02*
X145678628Y-40757142D01*
X145678628Y-40757142D02*
X145678628Y-41138094D01*
X146154819Y-39614285D02*
X146154819Y-40185713D01*
X146154819Y-39899999D02*
X145154819Y-39899999D01*
X145154819Y-39899999D02*
X145297676Y-39995237D01*
X145297676Y-39995237D02*
X145392914Y-40090475D01*
X145392914Y-40090475D02*
X145440533Y-40185713D01*
X145633333Y-49254819D02*
X145300000Y-48778628D01*
X145061905Y-49254819D02*
X145061905Y-48254819D01*
X145061905Y-48254819D02*
X145442857Y-48254819D01*
X145442857Y-48254819D02*
X145538095Y-48302438D01*
X145538095Y-48302438D02*
X145585714Y-48350057D01*
X145585714Y-48350057D02*
X145633333Y-48445295D01*
X145633333Y-48445295D02*
X145633333Y-48588152D01*
X145633333Y-48588152D02*
X145585714Y-48683390D01*
X145585714Y-48683390D02*
X145538095Y-48731009D01*
X145538095Y-48731009D02*
X145442857Y-48778628D01*
X145442857Y-48778628D02*
X145061905Y-48778628D01*
X145966667Y-48254819D02*
X146585714Y-48254819D01*
X146585714Y-48254819D02*
X146252381Y-48635771D01*
X146252381Y-48635771D02*
X146395238Y-48635771D01*
X146395238Y-48635771D02*
X146490476Y-48683390D01*
X146490476Y-48683390D02*
X146538095Y-48731009D01*
X146538095Y-48731009D02*
X146585714Y-48826247D01*
X146585714Y-48826247D02*
X146585714Y-49064342D01*
X146585714Y-49064342D02*
X146538095Y-49159580D01*
X146538095Y-49159580D02*
X146490476Y-49207200D01*
X146490476Y-49207200D02*
X146395238Y-49254819D01*
X146395238Y-49254819D02*
X146109524Y-49254819D01*
X146109524Y-49254819D02*
X146014286Y-49207200D01*
X146014286Y-49207200D02*
X145966667Y-49159580D01*
X159866667Y-66907200D02*
X160009524Y-66954819D01*
X160009524Y-66954819D02*
X160247619Y-66954819D01*
X160247619Y-66954819D02*
X160342857Y-66907200D01*
X160342857Y-66907200D02*
X160390476Y-66859580D01*
X160390476Y-66859580D02*
X160438095Y-66764342D01*
X160438095Y-66764342D02*
X160438095Y-66669104D01*
X160438095Y-66669104D02*
X160390476Y-66573866D01*
X160390476Y-66573866D02*
X160342857Y-66526247D01*
X160342857Y-66526247D02*
X160247619Y-66478628D01*
X160247619Y-66478628D02*
X160057143Y-66431009D01*
X160057143Y-66431009D02*
X159961905Y-66383390D01*
X159961905Y-66383390D02*
X159914286Y-66335771D01*
X159914286Y-66335771D02*
X159866667Y-66240533D01*
X159866667Y-66240533D02*
X159866667Y-66145295D01*
X159866667Y-66145295D02*
X159914286Y-66050057D01*
X159914286Y-66050057D02*
X159961905Y-66002438D01*
X159961905Y-66002438D02*
X160057143Y-65954819D01*
X160057143Y-65954819D02*
X160295238Y-65954819D01*
X160295238Y-65954819D02*
X160438095Y-66002438D01*
X160771429Y-65954819D02*
X161009524Y-66954819D01*
X161009524Y-66954819D02*
X161200000Y-66240533D01*
X161200000Y-66240533D02*
X161390476Y-66954819D01*
X161390476Y-66954819D02*
X161628572Y-65954819D01*
X162533333Y-66954819D02*
X161961905Y-66954819D01*
X162247619Y-66954819D02*
X162247619Y-65954819D01*
X162247619Y-65954819D02*
X162152381Y-66097676D01*
X162152381Y-66097676D02*
X162057143Y-66192914D01*
X162057143Y-66192914D02*
X161961905Y-66240533D01*
X145038095Y-65054819D02*
X145038095Y-65864342D01*
X145038095Y-65864342D02*
X145085714Y-65959580D01*
X145085714Y-65959580D02*
X145133333Y-66007200D01*
X145133333Y-66007200D02*
X145228571Y-66054819D01*
X145228571Y-66054819D02*
X145419047Y-66054819D01*
X145419047Y-66054819D02*
X145514285Y-66007200D01*
X145514285Y-66007200D02*
X145561904Y-65959580D01*
X145561904Y-65959580D02*
X145609523Y-65864342D01*
X145609523Y-65864342D02*
X145609523Y-65054819D01*
X146514285Y-65054819D02*
X146323809Y-65054819D01*
X146323809Y-65054819D02*
X146228571Y-65102438D01*
X146228571Y-65102438D02*
X146180952Y-65150057D01*
X146180952Y-65150057D02*
X146085714Y-65292914D01*
X146085714Y-65292914D02*
X146038095Y-65483390D01*
X146038095Y-65483390D02*
X146038095Y-65864342D01*
X146038095Y-65864342D02*
X146085714Y-65959580D01*
X146085714Y-65959580D02*
X146133333Y-66007200D01*
X146133333Y-66007200D02*
X146228571Y-66054819D01*
X146228571Y-66054819D02*
X146419047Y-66054819D01*
X146419047Y-66054819D02*
X146514285Y-66007200D01*
X146514285Y-66007200D02*
X146561904Y-65959580D01*
X146561904Y-65959580D02*
X146609523Y-65864342D01*
X146609523Y-65864342D02*
X146609523Y-65626247D01*
X146609523Y-65626247D02*
X146561904Y-65531009D01*
X146561904Y-65531009D02*
X146514285Y-65483390D01*
X146514285Y-65483390D02*
X146419047Y-65435771D01*
X146419047Y-65435771D02*
X146228571Y-65435771D01*
X146228571Y-65435771D02*
X146133333Y-65483390D01*
X146133333Y-65483390D02*
X146085714Y-65531009D01*
X146085714Y-65531009D02*
X146038095Y-65626247D01*
X152657142Y-50759580D02*
X152609523Y-50807200D01*
X152609523Y-50807200D02*
X152466666Y-50854819D01*
X152466666Y-50854819D02*
X152371428Y-50854819D01*
X152371428Y-50854819D02*
X152228571Y-50807200D01*
X152228571Y-50807200D02*
X152133333Y-50711961D01*
X152133333Y-50711961D02*
X152085714Y-50616723D01*
X152085714Y-50616723D02*
X152038095Y-50426247D01*
X152038095Y-50426247D02*
X152038095Y-50283390D01*
X152038095Y-50283390D02*
X152085714Y-50092914D01*
X152085714Y-50092914D02*
X152133333Y-49997676D01*
X152133333Y-49997676D02*
X152228571Y-49902438D01*
X152228571Y-49902438D02*
X152371428Y-49854819D01*
X152371428Y-49854819D02*
X152466666Y-49854819D01*
X152466666Y-49854819D02*
X152609523Y-49902438D01*
X152609523Y-49902438D02*
X152657142Y-49950057D01*
X153609523Y-50854819D02*
X153038095Y-50854819D01*
X153323809Y-50854819D02*
X153323809Y-49854819D01*
X153323809Y-49854819D02*
X153228571Y-49997676D01*
X153228571Y-49997676D02*
X153133333Y-50092914D01*
X153133333Y-50092914D02*
X153038095Y-50140533D01*
X154228571Y-49854819D02*
X154323809Y-49854819D01*
X154323809Y-49854819D02*
X154419047Y-49902438D01*
X154419047Y-49902438D02*
X154466666Y-49950057D01*
X154466666Y-49950057D02*
X154514285Y-50045295D01*
X154514285Y-50045295D02*
X154561904Y-50235771D01*
X154561904Y-50235771D02*
X154561904Y-50473866D01*
X154561904Y-50473866D02*
X154514285Y-50664342D01*
X154514285Y-50664342D02*
X154466666Y-50759580D01*
X154466666Y-50759580D02*
X154419047Y-50807200D01*
X154419047Y-50807200D02*
X154323809Y-50854819D01*
X154323809Y-50854819D02*
X154228571Y-50854819D01*
X154228571Y-50854819D02*
X154133333Y-50807200D01*
X154133333Y-50807200D02*
X154085714Y-50759580D01*
X154085714Y-50759580D02*
X154038095Y-50664342D01*
X154038095Y-50664342D02*
X153990476Y-50473866D01*
X153990476Y-50473866D02*
X153990476Y-50235771D01*
X153990476Y-50235771D02*
X154038095Y-50045295D01*
X154038095Y-50045295D02*
X154085714Y-49950057D01*
X154085714Y-49950057D02*
X154133333Y-49902438D01*
X154133333Y-49902438D02*
X154228571Y-49854819D01*
X137129580Y-59042857D02*
X137177200Y-59090476D01*
X137177200Y-59090476D02*
X137224819Y-59233333D01*
X137224819Y-59233333D02*
X137224819Y-59328571D01*
X137224819Y-59328571D02*
X137177200Y-59471428D01*
X137177200Y-59471428D02*
X137081961Y-59566666D01*
X137081961Y-59566666D02*
X136986723Y-59614285D01*
X136986723Y-59614285D02*
X136796247Y-59661904D01*
X136796247Y-59661904D02*
X136653390Y-59661904D01*
X136653390Y-59661904D02*
X136462914Y-59614285D01*
X136462914Y-59614285D02*
X136367676Y-59566666D01*
X136367676Y-59566666D02*
X136272438Y-59471428D01*
X136272438Y-59471428D02*
X136224819Y-59328571D01*
X136224819Y-59328571D02*
X136224819Y-59233333D01*
X136224819Y-59233333D02*
X136272438Y-59090476D01*
X136272438Y-59090476D02*
X136320057Y-59042857D01*
X137224819Y-58090476D02*
X137224819Y-58661904D01*
X137224819Y-58376190D02*
X136224819Y-58376190D01*
X136224819Y-58376190D02*
X136367676Y-58471428D01*
X136367676Y-58471428D02*
X136462914Y-58566666D01*
X136462914Y-58566666D02*
X136510533Y-58661904D01*
X137224819Y-57138095D02*
X137224819Y-57709523D01*
X137224819Y-57423809D02*
X136224819Y-57423809D01*
X136224819Y-57423809D02*
X136367676Y-57519047D01*
X136367676Y-57519047D02*
X136462914Y-57614285D01*
X136462914Y-57614285D02*
X136510533Y-57709523D01*
X136957142Y-68259580D02*
X136909523Y-68307200D01*
X136909523Y-68307200D02*
X136766666Y-68354819D01*
X136766666Y-68354819D02*
X136671428Y-68354819D01*
X136671428Y-68354819D02*
X136528571Y-68307200D01*
X136528571Y-68307200D02*
X136433333Y-68211961D01*
X136433333Y-68211961D02*
X136385714Y-68116723D01*
X136385714Y-68116723D02*
X136338095Y-67926247D01*
X136338095Y-67926247D02*
X136338095Y-67783390D01*
X136338095Y-67783390D02*
X136385714Y-67592914D01*
X136385714Y-67592914D02*
X136433333Y-67497676D01*
X136433333Y-67497676D02*
X136528571Y-67402438D01*
X136528571Y-67402438D02*
X136671428Y-67354819D01*
X136671428Y-67354819D02*
X136766666Y-67354819D01*
X136766666Y-67354819D02*
X136909523Y-67402438D01*
X136909523Y-67402438D02*
X136957142Y-67450057D01*
X137909523Y-68354819D02*
X137338095Y-68354819D01*
X137623809Y-68354819D02*
X137623809Y-67354819D01*
X137623809Y-67354819D02*
X137528571Y-67497676D01*
X137528571Y-67497676D02*
X137433333Y-67592914D01*
X137433333Y-67592914D02*
X137338095Y-67640533D01*
X138290476Y-67450057D02*
X138338095Y-67402438D01*
X138338095Y-67402438D02*
X138433333Y-67354819D01*
X138433333Y-67354819D02*
X138671428Y-67354819D01*
X138671428Y-67354819D02*
X138766666Y-67402438D01*
X138766666Y-67402438D02*
X138814285Y-67450057D01*
X138814285Y-67450057D02*
X138861904Y-67545295D01*
X138861904Y-67545295D02*
X138861904Y-67640533D01*
X138861904Y-67640533D02*
X138814285Y-67783390D01*
X138814285Y-67783390D02*
X138242857Y-68354819D01*
X138242857Y-68354819D02*
X138861904Y-68354819D01*
X137229580Y-64842857D02*
X137277200Y-64890476D01*
X137277200Y-64890476D02*
X137324819Y-65033333D01*
X137324819Y-65033333D02*
X137324819Y-65128571D01*
X137324819Y-65128571D02*
X137277200Y-65271428D01*
X137277200Y-65271428D02*
X137181961Y-65366666D01*
X137181961Y-65366666D02*
X137086723Y-65414285D01*
X137086723Y-65414285D02*
X136896247Y-65461904D01*
X136896247Y-65461904D02*
X136753390Y-65461904D01*
X136753390Y-65461904D02*
X136562914Y-65414285D01*
X136562914Y-65414285D02*
X136467676Y-65366666D01*
X136467676Y-65366666D02*
X136372438Y-65271428D01*
X136372438Y-65271428D02*
X136324819Y-65128571D01*
X136324819Y-65128571D02*
X136324819Y-65033333D01*
X136324819Y-65033333D02*
X136372438Y-64890476D01*
X136372438Y-64890476D02*
X136420057Y-64842857D01*
X137324819Y-63890476D02*
X137324819Y-64461904D01*
X137324819Y-64176190D02*
X136324819Y-64176190D01*
X136324819Y-64176190D02*
X136467676Y-64271428D01*
X136467676Y-64271428D02*
X136562914Y-64366666D01*
X136562914Y-64366666D02*
X136610533Y-64461904D01*
X136324819Y-63557142D02*
X136324819Y-62938095D01*
X136324819Y-62938095D02*
X136705771Y-63271428D01*
X136705771Y-63271428D02*
X136705771Y-63128571D01*
X136705771Y-63128571D02*
X136753390Y-63033333D01*
X136753390Y-63033333D02*
X136801009Y-62985714D01*
X136801009Y-62985714D02*
X136896247Y-62938095D01*
X136896247Y-62938095D02*
X137134342Y-62938095D01*
X137134342Y-62938095D02*
X137229580Y-62985714D01*
X137229580Y-62985714D02*
X137277200Y-63033333D01*
X137277200Y-63033333D02*
X137324819Y-63128571D01*
X137324819Y-63128571D02*
X137324819Y-63414285D01*
X137324819Y-63414285D02*
X137277200Y-63509523D01*
X137277200Y-63509523D02*
X137229580Y-63557142D01*
X156766666Y-33204819D02*
X156766666Y-33919104D01*
X156766666Y-33919104D02*
X156719047Y-34061961D01*
X156719047Y-34061961D02*
X156623809Y-34157200D01*
X156623809Y-34157200D02*
X156480952Y-34204819D01*
X156480952Y-34204819D02*
X156385714Y-34204819D01*
X157766666Y-34204819D02*
X157195238Y-34204819D01*
X157480952Y-34204819D02*
X157480952Y-33204819D01*
X157480952Y-33204819D02*
X157385714Y-33347676D01*
X157385714Y-33347676D02*
X157290476Y-33442914D01*
X157290476Y-33442914D02*
X157195238Y-33490533D01*
X155654819Y-59009523D02*
X156369104Y-59009523D01*
X156369104Y-59009523D02*
X156511961Y-59057142D01*
X156511961Y-59057142D02*
X156607200Y-59152380D01*
X156607200Y-59152380D02*
X156654819Y-59295237D01*
X156654819Y-59295237D02*
X156654819Y-59390475D01*
X156654819Y-58009523D02*
X156654819Y-58580951D01*
X156654819Y-58295237D02*
X155654819Y-58295237D01*
X155654819Y-58295237D02*
X155797676Y-58390475D01*
X155797676Y-58390475D02*
X155892914Y-58485713D01*
X155892914Y-58485713D02*
X155940533Y-58580951D01*
X155654819Y-57390475D02*
X155654819Y-57295237D01*
X155654819Y-57295237D02*
X155702438Y-57199999D01*
X155702438Y-57199999D02*
X155750057Y-57152380D01*
X155750057Y-57152380D02*
X155845295Y-57104761D01*
X155845295Y-57104761D02*
X156035771Y-57057142D01*
X156035771Y-57057142D02*
X156273866Y-57057142D01*
X156273866Y-57057142D02*
X156464342Y-57104761D01*
X156464342Y-57104761D02*
X156559580Y-57152380D01*
X156559580Y-57152380D02*
X156607200Y-57199999D01*
X156607200Y-57199999D02*
X156654819Y-57295237D01*
X156654819Y-57295237D02*
X156654819Y-57390475D01*
X156654819Y-57390475D02*
X156607200Y-57485713D01*
X156607200Y-57485713D02*
X156559580Y-57533332D01*
X156559580Y-57533332D02*
X156464342Y-57580951D01*
X156464342Y-57580951D02*
X156273866Y-57628570D01*
X156273866Y-57628570D02*
X156035771Y-57628570D01*
X156035771Y-57628570D02*
X155845295Y-57580951D01*
X155845295Y-57580951D02*
X155750057Y-57533332D01*
X155750057Y-57533332D02*
X155702438Y-57485713D01*
X155702438Y-57485713D02*
X155654819Y-57390475D01*
X155596666Y-72754819D02*
X155596666Y-73469104D01*
X155596666Y-73469104D02*
X155549047Y-73611961D01*
X155549047Y-73611961D02*
X155453809Y-73707200D01*
X155453809Y-73707200D02*
X155310952Y-73754819D01*
X155310952Y-73754819D02*
X155215714Y-73754819D01*
X155977619Y-72754819D02*
X156644285Y-72754819D01*
X156644285Y-72754819D02*
X156215714Y-73754819D01*
X150554819Y-38366666D02*
X150078628Y-38699999D01*
X150554819Y-38938094D02*
X149554819Y-38938094D01*
X149554819Y-38938094D02*
X149554819Y-38557142D01*
X149554819Y-38557142D02*
X149602438Y-38461904D01*
X149602438Y-38461904D02*
X149650057Y-38414285D01*
X149650057Y-38414285D02*
X149745295Y-38366666D01*
X149745295Y-38366666D02*
X149888152Y-38366666D01*
X149888152Y-38366666D02*
X149983390Y-38414285D01*
X149983390Y-38414285D02*
X150031009Y-38461904D01*
X150031009Y-38461904D02*
X150078628Y-38557142D01*
X150078628Y-38557142D02*
X150078628Y-38938094D01*
X149650057Y-37985713D02*
X149602438Y-37938094D01*
X149602438Y-37938094D02*
X149554819Y-37842856D01*
X149554819Y-37842856D02*
X149554819Y-37604761D01*
X149554819Y-37604761D02*
X149602438Y-37509523D01*
X149602438Y-37509523D02*
X149650057Y-37461904D01*
X149650057Y-37461904D02*
X149745295Y-37414285D01*
X149745295Y-37414285D02*
X149840533Y-37414285D01*
X149840533Y-37414285D02*
X149983390Y-37461904D01*
X149983390Y-37461904D02*
X150554819Y-38033332D01*
X150554819Y-38033332D02*
X150554819Y-37414285D01*
X144938095Y-46754819D02*
X144938095Y-47564342D01*
X144938095Y-47564342D02*
X144985714Y-47659580D01*
X144985714Y-47659580D02*
X145033333Y-47707200D01*
X145033333Y-47707200D02*
X145128571Y-47754819D01*
X145128571Y-47754819D02*
X145319047Y-47754819D01*
X145319047Y-47754819D02*
X145414285Y-47707200D01*
X145414285Y-47707200D02*
X145461904Y-47659580D01*
X145461904Y-47659580D02*
X145509523Y-47564342D01*
X145509523Y-47564342D02*
X145509523Y-46754819D01*
X146509523Y-47754819D02*
X145938095Y-47754819D01*
X146223809Y-47754819D02*
X146223809Y-46754819D01*
X146223809Y-46754819D02*
X146128571Y-46897676D01*
X146128571Y-46897676D02*
X146033333Y-46992914D01*
X146033333Y-46992914D02*
X145938095Y-47040533D01*
X150538095Y-55754819D02*
X150538095Y-56564342D01*
X150538095Y-56564342D02*
X150585714Y-56659580D01*
X150585714Y-56659580D02*
X150633333Y-56707200D01*
X150633333Y-56707200D02*
X150728571Y-56754819D01*
X150728571Y-56754819D02*
X150919047Y-56754819D01*
X150919047Y-56754819D02*
X151014285Y-56707200D01*
X151014285Y-56707200D02*
X151061904Y-56659580D01*
X151061904Y-56659580D02*
X151109523Y-56564342D01*
X151109523Y-56564342D02*
X151109523Y-55754819D01*
X151490476Y-55754819D02*
X152109523Y-55754819D01*
X152109523Y-55754819D02*
X151776190Y-56135771D01*
X151776190Y-56135771D02*
X151919047Y-56135771D01*
X151919047Y-56135771D02*
X152014285Y-56183390D01*
X152014285Y-56183390D02*
X152061904Y-56231009D01*
X152061904Y-56231009D02*
X152109523Y-56326247D01*
X152109523Y-56326247D02*
X152109523Y-56564342D01*
X152109523Y-56564342D02*
X152061904Y-56659580D01*
X152061904Y-56659580D02*
X152014285Y-56707200D01*
X152014285Y-56707200D02*
X151919047Y-56754819D01*
X151919047Y-56754819D02*
X151633333Y-56754819D01*
X151633333Y-56754819D02*
X151538095Y-56707200D01*
X151538095Y-56707200D02*
X151490476Y-56659580D01*
X145038095Y-59154819D02*
X145038095Y-59964342D01*
X145038095Y-59964342D02*
X145085714Y-60059580D01*
X145085714Y-60059580D02*
X145133333Y-60107200D01*
X145133333Y-60107200D02*
X145228571Y-60154819D01*
X145228571Y-60154819D02*
X145419047Y-60154819D01*
X145419047Y-60154819D02*
X145514285Y-60107200D01*
X145514285Y-60107200D02*
X145561904Y-60059580D01*
X145561904Y-60059580D02*
X145609523Y-59964342D01*
X145609523Y-59964342D02*
X145609523Y-59154819D01*
X146514285Y-59488152D02*
X146514285Y-60154819D01*
X146276190Y-59107200D02*
X146038095Y-59821485D01*
X146038095Y-59821485D02*
X146657142Y-59821485D01*
X136533333Y-45559580D02*
X136485714Y-45607200D01*
X136485714Y-45607200D02*
X136342857Y-45654819D01*
X136342857Y-45654819D02*
X136247619Y-45654819D01*
X136247619Y-45654819D02*
X136104762Y-45607200D01*
X136104762Y-45607200D02*
X136009524Y-45511961D01*
X136009524Y-45511961D02*
X135961905Y-45416723D01*
X135961905Y-45416723D02*
X135914286Y-45226247D01*
X135914286Y-45226247D02*
X135914286Y-45083390D01*
X135914286Y-45083390D02*
X135961905Y-44892914D01*
X135961905Y-44892914D02*
X136009524Y-44797676D01*
X136009524Y-44797676D02*
X136104762Y-44702438D01*
X136104762Y-44702438D02*
X136247619Y-44654819D01*
X136247619Y-44654819D02*
X136342857Y-44654819D01*
X136342857Y-44654819D02*
X136485714Y-44702438D01*
X136485714Y-44702438D02*
X136533333Y-44750057D01*
X136914286Y-44750057D02*
X136961905Y-44702438D01*
X136961905Y-44702438D02*
X137057143Y-44654819D01*
X137057143Y-44654819D02*
X137295238Y-44654819D01*
X137295238Y-44654819D02*
X137390476Y-44702438D01*
X137390476Y-44702438D02*
X137438095Y-44750057D01*
X137438095Y-44750057D02*
X137485714Y-44845295D01*
X137485714Y-44845295D02*
X137485714Y-44940533D01*
X137485714Y-44940533D02*
X137438095Y-45083390D01*
X137438095Y-45083390D02*
X136866667Y-45654819D01*
X136866667Y-45654819D02*
X137485714Y-45654819D01*
X146159580Y-38866666D02*
X146207200Y-38914285D01*
X146207200Y-38914285D02*
X146254819Y-39057142D01*
X146254819Y-39057142D02*
X146254819Y-39152380D01*
X146254819Y-39152380D02*
X146207200Y-39295237D01*
X146207200Y-39295237D02*
X146111961Y-39390475D01*
X146111961Y-39390475D02*
X146016723Y-39438094D01*
X146016723Y-39438094D02*
X145826247Y-39485713D01*
X145826247Y-39485713D02*
X145683390Y-39485713D01*
X145683390Y-39485713D02*
X145492914Y-39438094D01*
X145492914Y-39438094D02*
X145397676Y-39390475D01*
X145397676Y-39390475D02*
X145302438Y-39295237D01*
X145302438Y-39295237D02*
X145254819Y-39152380D01*
X145254819Y-39152380D02*
X145254819Y-39057142D01*
X145254819Y-39057142D02*
X145302438Y-38914285D01*
X145302438Y-38914285D02*
X145350057Y-38866666D01*
X145254819Y-38533332D02*
X145254819Y-37914285D01*
X145254819Y-37914285D02*
X145635771Y-38247618D01*
X145635771Y-38247618D02*
X145635771Y-38104761D01*
X145635771Y-38104761D02*
X145683390Y-38009523D01*
X145683390Y-38009523D02*
X145731009Y-37961904D01*
X145731009Y-37961904D02*
X145826247Y-37914285D01*
X145826247Y-37914285D02*
X146064342Y-37914285D01*
X146064342Y-37914285D02*
X146159580Y-37961904D01*
X146159580Y-37961904D02*
X146207200Y-38009523D01*
X146207200Y-38009523D02*
X146254819Y-38104761D01*
X146254819Y-38104761D02*
X146254819Y-38390475D01*
X146254819Y-38390475D02*
X146207200Y-38485713D01*
X146207200Y-38485713D02*
X146159580Y-38533332D01*
X137333333Y-56459580D02*
X137285714Y-56507200D01*
X137285714Y-56507200D02*
X137142857Y-56554819D01*
X137142857Y-56554819D02*
X137047619Y-56554819D01*
X137047619Y-56554819D02*
X136904762Y-56507200D01*
X136904762Y-56507200D02*
X136809524Y-56411961D01*
X136809524Y-56411961D02*
X136761905Y-56316723D01*
X136761905Y-56316723D02*
X136714286Y-56126247D01*
X136714286Y-56126247D02*
X136714286Y-55983390D01*
X136714286Y-55983390D02*
X136761905Y-55792914D01*
X136761905Y-55792914D02*
X136809524Y-55697676D01*
X136809524Y-55697676D02*
X136904762Y-55602438D01*
X136904762Y-55602438D02*
X137047619Y-55554819D01*
X137047619Y-55554819D02*
X137142857Y-55554819D01*
X137142857Y-55554819D02*
X137285714Y-55602438D01*
X137285714Y-55602438D02*
X137333333Y-55650057D01*
X138190476Y-55888152D02*
X138190476Y-56554819D01*
X137952381Y-55507200D02*
X137714286Y-56221485D01*
X137714286Y-56221485D02*
X138333333Y-56221485D01*
X137259580Y-53066666D02*
X137307200Y-53114285D01*
X137307200Y-53114285D02*
X137354819Y-53257142D01*
X137354819Y-53257142D02*
X137354819Y-53352380D01*
X137354819Y-53352380D02*
X137307200Y-53495237D01*
X137307200Y-53495237D02*
X137211961Y-53590475D01*
X137211961Y-53590475D02*
X137116723Y-53638094D01*
X137116723Y-53638094D02*
X136926247Y-53685713D01*
X136926247Y-53685713D02*
X136783390Y-53685713D01*
X136783390Y-53685713D02*
X136592914Y-53638094D01*
X136592914Y-53638094D02*
X136497676Y-53590475D01*
X136497676Y-53590475D02*
X136402438Y-53495237D01*
X136402438Y-53495237D02*
X136354819Y-53352380D01*
X136354819Y-53352380D02*
X136354819Y-53257142D01*
X136354819Y-53257142D02*
X136402438Y-53114285D01*
X136402438Y-53114285D02*
X136450057Y-53066666D01*
X136354819Y-52161904D02*
X136354819Y-52638094D01*
X136354819Y-52638094D02*
X136831009Y-52685713D01*
X136831009Y-52685713D02*
X136783390Y-52638094D01*
X136783390Y-52638094D02*
X136735771Y-52542856D01*
X136735771Y-52542856D02*
X136735771Y-52304761D01*
X136735771Y-52304761D02*
X136783390Y-52209523D01*
X136783390Y-52209523D02*
X136831009Y-52161904D01*
X136831009Y-52161904D02*
X136926247Y-52114285D01*
X136926247Y-52114285D02*
X137164342Y-52114285D01*
X137164342Y-52114285D02*
X137259580Y-52161904D01*
X137259580Y-52161904D02*
X137307200Y-52209523D01*
X137307200Y-52209523D02*
X137354819Y-52304761D01*
X137354819Y-52304761D02*
X137354819Y-52542856D01*
X137354819Y-52542856D02*
X137307200Y-52638094D01*
X137307200Y-52638094D02*
X137259580Y-52685713D01*
X137333333Y-62359580D02*
X137285714Y-62407200D01*
X137285714Y-62407200D02*
X137142857Y-62454819D01*
X137142857Y-62454819D02*
X137047619Y-62454819D01*
X137047619Y-62454819D02*
X136904762Y-62407200D01*
X136904762Y-62407200D02*
X136809524Y-62311961D01*
X136809524Y-62311961D02*
X136761905Y-62216723D01*
X136761905Y-62216723D02*
X136714286Y-62026247D01*
X136714286Y-62026247D02*
X136714286Y-61883390D01*
X136714286Y-61883390D02*
X136761905Y-61692914D01*
X136761905Y-61692914D02*
X136809524Y-61597676D01*
X136809524Y-61597676D02*
X136904762Y-61502438D01*
X136904762Y-61502438D02*
X137047619Y-61454819D01*
X137047619Y-61454819D02*
X137142857Y-61454819D01*
X137142857Y-61454819D02*
X137285714Y-61502438D01*
X137285714Y-61502438D02*
X137333333Y-61550057D01*
X137904762Y-61883390D02*
X137809524Y-61835771D01*
X137809524Y-61835771D02*
X137761905Y-61788152D01*
X137761905Y-61788152D02*
X137714286Y-61692914D01*
X137714286Y-61692914D02*
X137714286Y-61645295D01*
X137714286Y-61645295D02*
X137761905Y-61550057D01*
X137761905Y-61550057D02*
X137809524Y-61502438D01*
X137809524Y-61502438D02*
X137904762Y-61454819D01*
X137904762Y-61454819D02*
X138095238Y-61454819D01*
X138095238Y-61454819D02*
X138190476Y-61502438D01*
X138190476Y-61502438D02*
X138238095Y-61550057D01*
X138238095Y-61550057D02*
X138285714Y-61645295D01*
X138285714Y-61645295D02*
X138285714Y-61692914D01*
X138285714Y-61692914D02*
X138238095Y-61788152D01*
X138238095Y-61788152D02*
X138190476Y-61835771D01*
X138190476Y-61835771D02*
X138095238Y-61883390D01*
X138095238Y-61883390D02*
X137904762Y-61883390D01*
X137904762Y-61883390D02*
X137809524Y-61931009D01*
X137809524Y-61931009D02*
X137761905Y-61978628D01*
X137761905Y-61978628D02*
X137714286Y-62073866D01*
X137714286Y-62073866D02*
X137714286Y-62264342D01*
X137714286Y-62264342D02*
X137761905Y-62359580D01*
X137761905Y-62359580D02*
X137809524Y-62407200D01*
X137809524Y-62407200D02*
X137904762Y-62454819D01*
X137904762Y-62454819D02*
X138095238Y-62454819D01*
X138095238Y-62454819D02*
X138190476Y-62407200D01*
X138190476Y-62407200D02*
X138238095Y-62359580D01*
X138238095Y-62359580D02*
X138285714Y-62264342D01*
X138285714Y-62264342D02*
X138285714Y-62073866D01*
X138285714Y-62073866D02*
X138238095Y-61978628D01*
X138238095Y-61978628D02*
X138190476Y-61931009D01*
X138190476Y-61931009D02*
X138095238Y-61883390D01*
X153833333Y-47859580D02*
X153785714Y-47907200D01*
X153785714Y-47907200D02*
X153642857Y-47954819D01*
X153642857Y-47954819D02*
X153547619Y-47954819D01*
X153547619Y-47954819D02*
X153404762Y-47907200D01*
X153404762Y-47907200D02*
X153309524Y-47811961D01*
X153309524Y-47811961D02*
X153261905Y-47716723D01*
X153261905Y-47716723D02*
X153214286Y-47526247D01*
X153214286Y-47526247D02*
X153214286Y-47383390D01*
X153214286Y-47383390D02*
X153261905Y-47192914D01*
X153261905Y-47192914D02*
X153309524Y-47097676D01*
X153309524Y-47097676D02*
X153404762Y-47002438D01*
X153404762Y-47002438D02*
X153547619Y-46954819D01*
X153547619Y-46954819D02*
X153642857Y-46954819D01*
X153642857Y-46954819D02*
X153785714Y-47002438D01*
X153785714Y-47002438D02*
X153833333Y-47050057D01*
X154309524Y-47954819D02*
X154500000Y-47954819D01*
X154500000Y-47954819D02*
X154595238Y-47907200D01*
X154595238Y-47907200D02*
X154642857Y-47859580D01*
X154642857Y-47859580D02*
X154738095Y-47716723D01*
X154738095Y-47716723D02*
X154785714Y-47526247D01*
X154785714Y-47526247D02*
X154785714Y-47145295D01*
X154785714Y-47145295D02*
X154738095Y-47050057D01*
X154738095Y-47050057D02*
X154690476Y-47002438D01*
X154690476Y-47002438D02*
X154595238Y-46954819D01*
X154595238Y-46954819D02*
X154404762Y-46954819D01*
X154404762Y-46954819D02*
X154309524Y-47002438D01*
X154309524Y-47002438D02*
X154261905Y-47050057D01*
X154261905Y-47050057D02*
X154214286Y-47145295D01*
X154214286Y-47145295D02*
X154214286Y-47383390D01*
X154214286Y-47383390D02*
X154261905Y-47478628D01*
X154261905Y-47478628D02*
X154309524Y-47526247D01*
X154309524Y-47526247D02*
X154404762Y-47573866D01*
X154404762Y-47573866D02*
X154595238Y-47573866D01*
X154595238Y-47573866D02*
X154690476Y-47526247D01*
X154690476Y-47526247D02*
X154738095Y-47478628D01*
X154738095Y-47478628D02*
X154785714Y-47383390D01*
X136633333Y-51359580D02*
X136585714Y-51407200D01*
X136585714Y-51407200D02*
X136442857Y-51454819D01*
X136442857Y-51454819D02*
X136347619Y-51454819D01*
X136347619Y-51454819D02*
X136204762Y-51407200D01*
X136204762Y-51407200D02*
X136109524Y-51311961D01*
X136109524Y-51311961D02*
X136061905Y-51216723D01*
X136061905Y-51216723D02*
X136014286Y-51026247D01*
X136014286Y-51026247D02*
X136014286Y-50883390D01*
X136014286Y-50883390D02*
X136061905Y-50692914D01*
X136061905Y-50692914D02*
X136109524Y-50597676D01*
X136109524Y-50597676D02*
X136204762Y-50502438D01*
X136204762Y-50502438D02*
X136347619Y-50454819D01*
X136347619Y-50454819D02*
X136442857Y-50454819D01*
X136442857Y-50454819D02*
X136585714Y-50502438D01*
X136585714Y-50502438D02*
X136633333Y-50550057D01*
X137585714Y-51454819D02*
X137014286Y-51454819D01*
X137300000Y-51454819D02*
X137300000Y-50454819D01*
X137300000Y-50454819D02*
X137204762Y-50597676D01*
X137204762Y-50597676D02*
X137109524Y-50692914D01*
X137109524Y-50692914D02*
X137014286Y-50740533D01*
X152204761Y-41550057D02*
X152109523Y-41502438D01*
X152109523Y-41502438D02*
X152014285Y-41407200D01*
X152014285Y-41407200D02*
X151871428Y-41264342D01*
X151871428Y-41264342D02*
X151776190Y-41216723D01*
X151776190Y-41216723D02*
X151680952Y-41216723D01*
X151728571Y-41454819D02*
X151633333Y-41407200D01*
X151633333Y-41407200D02*
X151538095Y-41311961D01*
X151538095Y-41311961D02*
X151490476Y-41121485D01*
X151490476Y-41121485D02*
X151490476Y-40788152D01*
X151490476Y-40788152D02*
X151538095Y-40597676D01*
X151538095Y-40597676D02*
X151633333Y-40502438D01*
X151633333Y-40502438D02*
X151728571Y-40454819D01*
X151728571Y-40454819D02*
X151919047Y-40454819D01*
X151919047Y-40454819D02*
X152014285Y-40502438D01*
X152014285Y-40502438D02*
X152109523Y-40597676D01*
X152109523Y-40597676D02*
X152157142Y-40788152D01*
X152157142Y-40788152D02*
X152157142Y-41121485D01*
X152157142Y-41121485D02*
X152109523Y-41311961D01*
X152109523Y-41311961D02*
X152014285Y-41407200D01*
X152014285Y-41407200D02*
X151919047Y-41454819D01*
X151919047Y-41454819D02*
X151728571Y-41454819D01*
X153109523Y-41454819D02*
X152538095Y-41454819D01*
X152823809Y-41454819D02*
X152823809Y-40454819D01*
X152823809Y-40454819D02*
X152728571Y-40597676D01*
X152728571Y-40597676D02*
X152633333Y-40692914D01*
X152633333Y-40692914D02*
X152538095Y-40740533D01*
D12*
X159850000Y-45200000D02*
X159850000Y-45950000D01*
X166700000Y-43700000D02*
X166700000Y-42360000D01*
X159840000Y-39990000D02*
X159840000Y-45960000D01*
X161650000Y-45950000D02*
X161650000Y-45200000D01*
X167460000Y-45960000D02*
X167460000Y-39990000D01*
X167460000Y-39990000D02*
X159840000Y-39990000D01*
X167450000Y-45950000D02*
X167450000Y-45200000D01*
X160600000Y-40750000D02*
X163650000Y-40750000D01*
X165650000Y-45200000D02*
X165650000Y-45950000D01*
X165650000Y-45950000D02*
X167450000Y-45950000D01*
X160600000Y-43700000D02*
X160600000Y-40750000D01*
X163650000Y-40750000D02*
X165640000Y-40750000D01*
X163150000Y-45950000D02*
X164150000Y-45950000D01*
X164150000Y-45950000D02*
X164150000Y-45200000D01*
X167450000Y-43700000D02*
X166700000Y-43700000D01*
X159850000Y-43700000D02*
X160600000Y-43700000D01*
X159840000Y-45960000D02*
X167460000Y-45960000D01*
X163150000Y-45200000D02*
X163150000Y-45950000D01*
X167750000Y-46250000D02*
X167750000Y-45000000D01*
X167450000Y-45200000D02*
X165650000Y-45200000D01*
X159850000Y-45950000D02*
X161650000Y-45950000D01*
X166500000Y-46250000D02*
X167750000Y-46250000D01*
X164150000Y-45200000D02*
X163150000Y-45200000D01*
X161650000Y-45200000D02*
X159850000Y-45200000D01*
X149050000Y-64000000D02*
X147250000Y-64000000D01*
X151550000Y-64000000D02*
X150550000Y-64000000D01*
X153900000Y-65050000D02*
X155150000Y-65050000D01*
X147250000Y-64750000D02*
X149050000Y-64750000D01*
X154850000Y-64000000D02*
X153050000Y-64000000D01*
X155150000Y-65050000D02*
X155150000Y-63800000D01*
X150550000Y-64000000D02*
X150550000Y-64750000D01*
X147240000Y-64760000D02*
X154860000Y-64760000D01*
X147250000Y-62500000D02*
X148000000Y-62500000D01*
X154850000Y-62500000D02*
X154100000Y-62500000D01*
X151550000Y-64750000D02*
X151550000Y-64000000D01*
X150550000Y-64750000D02*
X151550000Y-64750000D01*
X151050000Y-59550000D02*
X153040000Y-59550000D01*
X148000000Y-62500000D02*
X148000000Y-59550000D01*
X153050000Y-64750000D02*
X154850000Y-64750000D01*
X153050000Y-64000000D02*
X153050000Y-64750000D01*
X148000000Y-59550000D02*
X151050000Y-59550000D01*
X154850000Y-64750000D02*
X154850000Y-64000000D01*
X154860000Y-58790000D02*
X147240000Y-58790000D01*
X154860000Y-64760000D02*
X154860000Y-58790000D01*
X149050000Y-64750000D02*
X149050000Y-64000000D01*
X147240000Y-58790000D02*
X147240000Y-64760000D01*
X154100000Y-62500000D02*
X154100000Y-61160000D01*
X147250000Y-64000000D02*
X147250000Y-64750000D01*
X133500000Y-39450000D02*
X134250000Y-39450000D01*
X132000000Y-32600000D02*
X130660000Y-32600000D01*
X128290000Y-39460000D02*
X134260000Y-39460000D01*
X134250000Y-37650000D02*
X133500000Y-37650000D01*
X134260000Y-31840000D02*
X128290000Y-31840000D01*
X128290000Y-31840000D02*
X128290000Y-39460000D01*
X134250000Y-31850000D02*
X133500000Y-31850000D01*
X129050000Y-38700000D02*
X129050000Y-35650000D01*
X133500000Y-33650000D02*
X134250000Y-33650000D01*
X134250000Y-33650000D02*
X134250000Y-31850000D01*
X132000000Y-38700000D02*
X129050000Y-38700000D01*
X129050000Y-35650000D02*
X129050000Y-33660000D01*
X134250000Y-36150000D02*
X134250000Y-35150000D01*
X134250000Y-35150000D02*
X133500000Y-35150000D01*
X132000000Y-31850000D02*
X132000000Y-32600000D01*
X132000000Y-39450000D02*
X132000000Y-38700000D01*
X134260000Y-39460000D02*
X134260000Y-31840000D01*
X133500000Y-36150000D02*
X134250000Y-36150000D01*
X134550000Y-31550000D02*
X133300000Y-31550000D01*
X133500000Y-31850000D02*
X133500000Y-33650000D01*
X134250000Y-39450000D02*
X134250000Y-37650000D01*
X134550000Y-32800000D02*
X134550000Y-31550000D01*
X133500000Y-35150000D02*
X133500000Y-36150000D01*
X133500000Y-37650000D02*
X133500000Y-39450000D01*
X147615000Y-50752500D02*
X147140000Y-50752500D01*
X151360000Y-50752500D02*
X151360000Y-51227500D01*
X150885000Y-54972500D02*
X151360000Y-54972500D01*
X150885000Y-50752500D02*
X151360000Y-50752500D01*
X147140000Y-50752500D02*
X147140000Y-51227500D01*
X147615000Y-54972500D02*
X147140000Y-54972500D01*
X147140000Y-54972500D02*
X147140000Y-54497500D01*
X145622500Y-36537258D02*
X145622500Y-36062742D01*
X144577500Y-36537258D02*
X144577500Y-36062742D01*
X144022500Y-36537258D02*
X144022500Y-36062742D01*
X142977500Y-36537258D02*
X142977500Y-36062742D01*
X142765000Y-31815000D02*
X142765000Y-34100000D01*
X144235000Y-31815000D02*
X142765000Y-31815000D01*
X144235000Y-34100000D02*
X144235000Y-31815000D01*
X144365000Y-31815000D02*
X144365000Y-34100000D01*
X145835000Y-31815000D02*
X144365000Y-31815000D01*
X145835000Y-34100000D02*
X145835000Y-31815000D01*
X145390000Y-53859420D02*
X145390000Y-54140580D01*
X146410000Y-53859420D02*
X146410000Y-54140580D01*
D13*
X163650000Y-57990000D02*
X164900000Y-57990000D01*
X167620000Y-57990000D02*
X168900000Y-57990000D01*
X168900000Y-57990000D02*
X168900000Y-48410000D01*
X163650000Y-48410000D02*
X164900000Y-48410000D01*
X168900000Y-48410000D02*
X167620000Y-48410000D01*
D12*
X154437258Y-56077500D02*
X153962742Y-56077500D01*
X154437258Y-57122500D02*
X153962742Y-57122500D01*
X159022500Y-45537258D02*
X159022500Y-45062742D01*
X157977500Y-45537258D02*
X157977500Y-45062742D01*
X164532000Y-67878000D02*
X167192000Y-67878000D01*
X164532000Y-62738000D02*
X164532000Y-67878000D01*
X164532000Y-61468000D02*
X164532000Y-60138000D01*
X167192000Y-62738000D02*
X167192000Y-67878000D01*
X164532000Y-60138000D02*
X165862000Y-60138000D01*
X164532000Y-62738000D02*
X167192000Y-62738000D01*
X154300000Y-51340000D02*
X155100000Y-51340000D01*
X154300000Y-54460000D02*
X153500000Y-54460000D01*
X154300000Y-51340000D02*
X153500000Y-51340000D01*
X154300000Y-54460000D02*
X156100000Y-54460000D01*
X131630000Y-73700000D02*
X131630000Y-75030000D01*
X131630000Y-69830000D02*
X128970000Y-69830000D01*
X131630000Y-72430000D02*
X131630000Y-69830000D01*
X131630000Y-72430000D02*
X128970000Y-72430000D01*
X131630000Y-75030000D02*
X130300000Y-75030000D01*
X128970000Y-72430000D02*
X128970000Y-69830000D01*
X137800000Y-39990000D02*
X143810000Y-39990000D01*
X143810000Y-39990000D02*
X143810000Y-41250000D01*
X143810000Y-46810000D02*
X143810000Y-45550000D01*
X140050000Y-46810000D02*
X143810000Y-46810000D01*
X133650000Y-66260000D02*
X133650000Y-45240000D01*
X134410000Y-66500000D02*
X134410000Y-66100000D01*
X127430000Y-45240000D02*
X134170000Y-45240000D01*
X128550000Y-66260000D02*
X128550000Y-45240000D01*
X127430000Y-66260000D02*
X127430000Y-45240000D01*
X134170000Y-66260000D02*
X134170000Y-45240000D01*
X127430000Y-66260000D02*
X134170000Y-66260000D01*
X133770000Y-66500000D02*
X134410000Y-66500000D01*
X157950000Y-60100000D02*
X157850000Y-60100000D01*
X159450000Y-64500000D02*
X159450000Y-60100000D01*
X156350000Y-60100000D02*
X156350000Y-64500000D01*
X157950000Y-64500000D02*
X157850000Y-64500000D01*
X148437258Y-45477500D02*
X147962742Y-45477500D01*
X148437258Y-46522500D02*
X147962742Y-46522500D01*
X147962742Y-48022500D02*
X148437258Y-48022500D01*
X147962742Y-46977500D02*
X148437258Y-46977500D01*
X146577500Y-40962742D02*
X146577500Y-41437258D01*
X147622500Y-40962742D02*
X147622500Y-41437258D01*
X147962742Y-49522500D02*
X148437258Y-49522500D01*
X147962742Y-48477500D02*
X148437258Y-48477500D01*
X157950000Y-66650000D02*
X157850000Y-66650000D01*
X159450000Y-71050000D02*
X159450000Y-66650000D01*
X156350000Y-66650000D02*
X156350000Y-71050000D01*
X157950000Y-71050000D02*
X157850000Y-71050000D01*
D10*
X139230000Y-64750000D02*
X140030000Y-63950000D01*
X140030000Y-63950000D02*
X144770000Y-63950000D01*
X144770000Y-63950000D02*
X144770000Y-67250000D01*
X144770000Y-67250000D02*
X139230000Y-67250000D01*
X139230000Y-67250000D02*
X139230000Y-64750000D01*
D12*
X151459420Y-48490000D02*
X151740580Y-48490000D01*
X151459420Y-49510000D02*
X151740580Y-49510000D01*
X138710000Y-58540580D02*
X138710000Y-58259420D01*
X137690000Y-58540580D02*
X137690000Y-58259420D01*
X137459420Y-67010000D02*
X137740580Y-67010000D01*
X137459420Y-65990000D02*
X137740580Y-65990000D01*
X138810000Y-64340580D02*
X138810000Y-64059420D01*
X137790000Y-64340580D02*
X137790000Y-64059420D01*
X147990000Y-32420000D02*
X147990000Y-35080000D01*
X153130000Y-32420000D02*
X147990000Y-32420000D01*
X154400000Y-32420000D02*
X155730000Y-32420000D01*
X153130000Y-35080000D02*
X147990000Y-35080000D01*
X155730000Y-32420000D02*
X155730000Y-33750000D01*
X153130000Y-32420000D02*
X153130000Y-35080000D01*
X156870000Y-55430000D02*
X156870000Y-47750000D01*
X159530000Y-56700000D02*
X159530000Y-58030000D01*
X159530000Y-47750000D02*
X156870000Y-47750000D01*
X159530000Y-55430000D02*
X156870000Y-55430000D01*
X159530000Y-58030000D02*
X158200000Y-58030000D01*
X159530000Y-55430000D02*
X159530000Y-47750000D01*
X152330000Y-74630000D02*
X142110000Y-74630000D01*
X154930000Y-71970000D02*
X154930000Y-73300000D01*
X152330000Y-71970000D02*
X142110000Y-71970000D01*
X142110000Y-71970000D02*
X142110000Y-74630000D01*
X152330000Y-71970000D02*
X152330000Y-74630000D01*
X153600000Y-71970000D02*
X154930000Y-71970000D01*
X149122500Y-38437258D02*
X149122500Y-37962742D01*
X148077500Y-38437258D02*
X148077500Y-37962742D01*
D10*
X139130000Y-47950000D02*
X139930000Y-47150000D01*
X139930000Y-47150000D02*
X144670000Y-47150000D01*
X144670000Y-47150000D02*
X144670000Y-50450000D01*
X144670000Y-50450000D02*
X139130000Y-50450000D01*
X139130000Y-50450000D02*
X139130000Y-47950000D01*
X139130000Y-52850000D02*
X139930000Y-52050000D01*
X139930000Y-52050000D02*
X144670000Y-52050000D01*
X144670000Y-52050000D02*
X144670000Y-55350000D01*
X144670000Y-55350000D02*
X139130000Y-55350000D01*
X139130000Y-55350000D02*
X139130000Y-52850000D01*
X139130000Y-58850000D02*
X139930000Y-58050000D01*
X139930000Y-58050000D02*
X144670000Y-58050000D01*
X144670000Y-58050000D02*
X144670000Y-61350000D01*
X144670000Y-61350000D02*
X139130000Y-61350000D01*
X139130000Y-61350000D02*
X139130000Y-58850000D01*
D12*
X137210000Y-47540580D02*
X137210000Y-47259420D01*
X136190000Y-47540580D02*
X136190000Y-47259420D01*
X147610000Y-38328080D02*
X147610000Y-38046920D01*
X146590000Y-38328080D02*
X146590000Y-38046920D01*
X137359420Y-55110000D02*
X137640580Y-55110000D01*
X137359420Y-54090000D02*
X137640580Y-54090000D01*
X138710000Y-52440580D02*
X138710000Y-52159420D01*
X137690000Y-52440580D02*
X137690000Y-52159420D01*
X137359420Y-61210000D02*
X137640580Y-61210000D01*
X137359420Y-60190000D02*
X137640580Y-60190000D01*
X151459420Y-48010000D02*
X151740580Y-48010000D01*
X151459420Y-46990000D02*
X151740580Y-46990000D01*
X137359420Y-50210000D02*
X137640580Y-50210000D01*
X137359420Y-49190000D02*
X137640580Y-49190000D01*
X150295001Y-39840000D02*
X150295001Y-40500000D01*
X148885001Y-42160000D02*
X150295001Y-42160000D01*
X150295001Y-41500000D02*
X150295001Y-42160000D01*
X150295001Y-39840000D02*
X148265001Y-39840000D01*
M02*
