G04 #@! TF.GenerationSoftware,KiCad,Pcbnew,7.0.3-24-g09febce4ce*
G04 #@! TF.CreationDate,2023-05-24T02:24:54-07:00*
G04 #@! TF.ProjectId,t962,74393632-2e6b-4696-9361-645f70636258,2.0*
G04 #@! TF.SameCoordinates,Original*
G04 #@! TF.FileFunction,Soldermask,Top*
G04 #@! TF.FilePolarity,Negative*
%FSLAX46Y46*%
G04 Gerber Fmt 4.6, Leading zero omitted, Abs format (unit mm)*
G04 Created by KiCad (PCBNEW 7.0.3-24-g09febce4ce) date 2023-05-24 02:24:54*
%MOMM*%
%LPD*%
G01*
G04 APERTURE LIST*
G04 Aperture macros list*
%AMRoundRect*
0 Rectangle with rounded corners*
0 $1 Rounding radius*
0 $2 $3 $4 $5 $6 $7 $8 $9 X,Y pos of 4 corners*
0 Add a 4 corners polygon primitive as box body*
4,1,4,$2,$3,$4,$5,$6,$7,$8,$9,$2,$3,0*
0 Add four circle primitives for the rounded corners*
1,1,$1+$1,$2,$3*
1,1,$1+$1,$4,$5*
1,1,$1+$1,$6,$7*
1,1,$1+$1,$8,$9*
0 Add four rect primitives between the rounded corners*
20,1,$1+$1,$2,$3,$4,$5,0*
20,1,$1+$1,$4,$5,$6,$7,0*
20,1,$1+$1,$6,$7,$8,$9,0*
20,1,$1+$1,$8,$9,$2,$3,0*%
G04 Aperture macros list end*
%ADD10C,1.301600*%
%ADD11RoundRect,0.300800X0.600000X0.750000X-0.600000X0.750000X-0.600000X-0.750000X0.600000X-0.750000X0*%
%ADD12O,1.801600X2.101600*%
%ADD13RoundRect,0.300800X-0.750000X0.600000X-0.750000X-0.600000X0.750000X-0.600000X0.750000X0.600000X0*%
%ADD14O,2.101600X1.801600*%
%ADD15RoundRect,0.113300X0.350000X0.062500X-0.350000X0.062500X-0.350000X-0.062500X0.350000X-0.062500X0*%
%ADD16RoundRect,0.113300X0.062500X0.350000X-0.062500X0.350000X-0.062500X-0.350000X0.062500X-0.350000X0*%
%ADD17RoundRect,0.050800X1.300000X1.300000X-1.300000X1.300000X-1.300000X-1.300000X1.300000X-1.300000X0*%
%ADD18RoundRect,0.250800X0.275000X-0.200000X0.275000X0.200000X-0.275000X0.200000X-0.275000X-0.200000X0*%
%ADD19RoundRect,0.269550X-0.256250X0.218750X-0.256250X-0.218750X0.256250X-0.218750X0.256250X0.218750X0*%
%ADD20RoundRect,0.275800X-0.250000X0.225000X-0.250000X-0.225000X0.250000X-0.225000X0.250000X0.225000X0*%
%ADD21C,0.751600*%
%ADD22RoundRect,0.050800X0.575000X-0.300000X0.575000X0.300000X-0.575000X0.300000X-0.575000X-0.300000X0*%
%ADD23RoundRect,0.050800X0.575000X-0.150000X0.575000X0.150000X-0.575000X0.150000X-0.575000X-0.150000X0*%
%ADD24O,2.201600X1.151600*%
%ADD25O,2.101600X1.101600*%
%ADD26RoundRect,0.250800X0.200000X0.275000X-0.200000X0.275000X-0.200000X-0.275000X0.200000X-0.275000X0*%
%ADD27RoundRect,0.050800X-0.850000X-0.850000X0.850000X-0.850000X0.850000X0.850000X-0.850000X0.850000X0*%
%ADD28O,1.801600X1.801600*%
%ADD29RoundRect,0.200800X0.512500X0.150000X-0.512500X0.150000X-0.512500X-0.150000X0.512500X-0.150000X0*%
%ADD30RoundRect,0.050800X0.850000X0.850000X-0.850000X0.850000X-0.850000X-0.850000X0.850000X-0.850000X0*%
%ADD31RoundRect,0.050800X-1.000000X-0.750000X1.000000X-0.750000X1.000000X0.750000X-1.000000X0.750000X0*%
%ADD32RoundRect,0.050800X-1.000000X-1.900000X1.000000X-1.900000X1.000000X1.900000X-1.000000X1.900000X0*%
%ADD33RoundRect,0.050800X1.050000X-1.050000X1.050000X1.050000X-1.050000X1.050000X-1.050000X-1.050000X0*%
%ADD34C,2.201600*%
%ADD35C,6.101600*%
%ADD36RoundRect,0.050800X0.450000X0.500000X-0.450000X0.500000X-0.450000X-0.500000X0.450000X-0.500000X0*%
%ADD37RoundRect,0.250800X-0.200000X-0.275000X0.200000X-0.275000X0.200000X0.275000X-0.200000X0.275000X0*%
%ADD38RoundRect,0.250800X-0.275000X0.200000X-0.275000X-0.200000X0.275000X-0.200000X0.275000X0.200000X0*%
%ADD39RoundRect,0.050800X-0.350000X0.150000X-0.350000X-0.150000X0.350000X-0.150000X0.350000X0.150000X0*%
%ADD40RoundRect,0.050800X-1.300000X1.150000X-1.300000X-1.150000X1.300000X-1.150000X1.300000X1.150000X0*%
%ADD41RoundRect,0.275800X-0.225000X-0.250000X0.225000X-0.250000X0.225000X0.250000X-0.225000X0.250000X0*%
%ADD42RoundRect,0.275800X0.250000X-0.225000X0.250000X0.225000X-0.250000X0.225000X-0.250000X-0.225000X0*%
%ADD43RoundRect,0.050800X-0.850000X0.850000X-0.850000X-0.850000X0.850000X-0.850000X0.850000X0.850000X0*%
%ADD44RoundRect,0.050800X-0.350000X0.225000X-0.350000X-0.225000X0.350000X-0.225000X0.350000X0.225000X0*%
G04 APERTURE END LIST*
D10*
X166500000Y-41500000D03*
D11*
X164900000Y-43500000D03*
D12*
X162400000Y-43500000D03*
X149800000Y-62300000D03*
D11*
X152300000Y-62300000D03*
D10*
X153900000Y-60300000D03*
X129800000Y-32800000D03*
D13*
X131800000Y-34400000D03*
D14*
X131800000Y-36900000D03*
D15*
X151187500Y-54112500D03*
X151187500Y-53612500D03*
X151187500Y-53112500D03*
X151187500Y-52612500D03*
X151187500Y-52112500D03*
X151187500Y-51612500D03*
D16*
X150500000Y-50925000D03*
X150000000Y-50925000D03*
X149500000Y-50925000D03*
X149000000Y-50925000D03*
X148500000Y-50925000D03*
X148000000Y-50925000D03*
D15*
X147312500Y-51612500D03*
X147312500Y-52112500D03*
X147312500Y-52612500D03*
X147312500Y-53112500D03*
X147312500Y-53612500D03*
X147312500Y-54112500D03*
D16*
X148000000Y-54800000D03*
X148500000Y-54800000D03*
X149000000Y-54800000D03*
X149500000Y-54800000D03*
X150000000Y-54800000D03*
X150500000Y-54800000D03*
D17*
X149250000Y-52862500D03*
D18*
X145100000Y-37125000D03*
X145100000Y-35475000D03*
X143500000Y-37125000D03*
X143500000Y-35475000D03*
D19*
X143500000Y-32512500D03*
X143500000Y-34087500D03*
X145100000Y-32512500D03*
X145100000Y-34087500D03*
D20*
X145900000Y-53225000D03*
X145900000Y-54775000D03*
D21*
X162620000Y-56090000D03*
X162620000Y-50310000D03*
D22*
X161545000Y-56400000D03*
X161545000Y-55600000D03*
D23*
X161545000Y-54450000D03*
X161545000Y-53450000D03*
X161545000Y-52950000D03*
X161545000Y-51950000D03*
X161545000Y-51450000D03*
X161545000Y-52450000D03*
X161545000Y-53950000D03*
X161545000Y-54950000D03*
D22*
X161545000Y-50800000D03*
X161545000Y-50000000D03*
D24*
X162120000Y-57520000D03*
D25*
X166300000Y-57520000D03*
D24*
X162120000Y-48880000D03*
D25*
X166300000Y-48880000D03*
D26*
X155025000Y-56600000D03*
X153375000Y-56600000D03*
D18*
X158500000Y-46125000D03*
X158500000Y-44475000D03*
D27*
X165862000Y-61468000D03*
D28*
X165862000Y-64008000D03*
X165862000Y-66548000D03*
D29*
X155437500Y-53850000D03*
X155437500Y-52900000D03*
X155437500Y-51950000D03*
X153162500Y-51950000D03*
X153162500Y-52900000D03*
X153162500Y-53850000D03*
D30*
X130300000Y-73700000D03*
D28*
X130300000Y-71160000D03*
D31*
X138750000Y-41100000D03*
X138750000Y-43400000D03*
X138750000Y-45700000D03*
D32*
X145050000Y-43400000D03*
D33*
X130800000Y-64640000D03*
D34*
X130800000Y-62100000D03*
X130800000Y-59560000D03*
X130800000Y-57020000D03*
X130800000Y-54480000D03*
X130800000Y-51940000D03*
X130800000Y-49400000D03*
X130800000Y-46860000D03*
D35*
X137900000Y-72100000D03*
X163900000Y-72100000D03*
X137900000Y-35100000D03*
X163900000Y-35100000D03*
D36*
X157100000Y-64350000D03*
X158700000Y-64350000D03*
X157100000Y-60250000D03*
X158700000Y-60250000D03*
D26*
X149025000Y-46000000D03*
X147375000Y-46000000D03*
D37*
X147375000Y-47500000D03*
X149025000Y-47500000D03*
D38*
X147100000Y-40375000D03*
X147100000Y-42025000D03*
D37*
X147375000Y-49000000D03*
X149025000Y-49000000D03*
D36*
X157100000Y-70900000D03*
X158700000Y-70900000D03*
X157100000Y-66800000D03*
X158700000Y-66800000D03*
D39*
X143920000Y-64600000D03*
X140080000Y-64600000D03*
X143920000Y-65100000D03*
X140080000Y-65100000D03*
X143920000Y-65600000D03*
X140080000Y-65600000D03*
X143920000Y-66100000D03*
X140080000Y-66100000D03*
X143920000Y-66600000D03*
X140080000Y-66600000D03*
D40*
X142000000Y-65600000D03*
D41*
X152375000Y-49000000D03*
X150825000Y-49000000D03*
D42*
X138200000Y-59175000D03*
X138200000Y-57625000D03*
D41*
X136825000Y-66500000D03*
X138375000Y-66500000D03*
D42*
X138300000Y-64975000D03*
X138300000Y-63425000D03*
D43*
X154400000Y-33750000D03*
D28*
X151860000Y-33750000D03*
X149320000Y-33750000D03*
D30*
X158200000Y-56700000D03*
D28*
X158200000Y-54160000D03*
X158200000Y-51620000D03*
X158200000Y-49080000D03*
D43*
X153600000Y-73300000D03*
D28*
X151060000Y-73300000D03*
X148520000Y-73300000D03*
X145980000Y-73300000D03*
X143440000Y-73300000D03*
D18*
X148600000Y-39025000D03*
X148600000Y-37375000D03*
D39*
X143820000Y-47800000D03*
X139980000Y-47800000D03*
X143820000Y-48300000D03*
X139980000Y-48300000D03*
X143820000Y-48800000D03*
X139980000Y-48800000D03*
X143820000Y-49300000D03*
X139980000Y-49300000D03*
X143820000Y-49800000D03*
X139980000Y-49800000D03*
D40*
X141900000Y-48800000D03*
D39*
X143820000Y-52700000D03*
X139980000Y-52700000D03*
X143820000Y-53200000D03*
X139980000Y-53200000D03*
X143820000Y-53700000D03*
X139980000Y-53700000D03*
X143820000Y-54200000D03*
X139980000Y-54200000D03*
X143820000Y-54700000D03*
X139980000Y-54700000D03*
D40*
X141900000Y-53700000D03*
D39*
X143820000Y-58700000D03*
X139980000Y-58700000D03*
X143820000Y-59200000D03*
X139980000Y-59200000D03*
X143820000Y-59700000D03*
X139980000Y-59700000D03*
X143820000Y-60200000D03*
X139980000Y-60200000D03*
X143820000Y-60700000D03*
X139980000Y-60700000D03*
D40*
X141900000Y-59700000D03*
D42*
X136700000Y-48175000D03*
X136700000Y-46625000D03*
X147100000Y-38962500D03*
X147100000Y-37412500D03*
D41*
X136725000Y-54600000D03*
X138275000Y-54600000D03*
D42*
X138200000Y-53075000D03*
X138200000Y-51525000D03*
D41*
X136725000Y-60700000D03*
X138275000Y-60700000D03*
X150825000Y-47500000D03*
X152375000Y-47500000D03*
X136725000Y-49700000D03*
X138275000Y-49700000D03*
D44*
X148565001Y-40350000D03*
X148565001Y-41650000D03*
X150565001Y-41000000D03*
M02*
