G04 #@! TF.GenerationSoftware,KiCad,Pcbnew,5.0.2-5.0.2*
G04 #@! TF.CreationDate,2019-02-08T22:24:12-08:00*
G04 #@! TF.ProjectId,t962,74393632-2e6b-4696-9361-645f70636258,1.2.2*
G04 #@! TF.SameCoordinates,Original*
G04 #@! TF.FileFunction,Legend,Top*
G04 #@! TF.FilePolarity,Positive*
%FSLAX46Y46*%
G04 Gerber Fmt 4.6, Leading zero omitted, Abs format (unit mm)*
G04 Created by KiCad (PCBNEW 5.0.2-5.0.2) date Fri 08 Feb 2019 10:24:12 PM PST*
%MOMM*%
%LPD*%
G01*
G04 APERTURE LIST*
%ADD10C,0.300000*%
%ADD11C,0.150000*%
%ADD12C,0.250000*%
%ADD13C,0.120000*%
G04 APERTURE END LIST*
D10*
X155971428Y-45803571D02*
X155114285Y-45803571D01*
X155542857Y-45803571D02*
X155542857Y-44303571D01*
X155400000Y-44517857D01*
X155257142Y-44660714D01*
X155114285Y-44732142D01*
X156542857Y-44446428D02*
X156614285Y-44375000D01*
X156757142Y-44303571D01*
X157114285Y-44303571D01*
X157257142Y-44375000D01*
X157328571Y-44446428D01*
X157400000Y-44589285D01*
X157400000Y-44732142D01*
X157328571Y-44946428D01*
X156471428Y-45803571D01*
X157400000Y-45803571D01*
X157828571Y-44303571D02*
X158328571Y-45803571D01*
X158828571Y-44303571D01*
X155400000Y-46853571D02*
X155685714Y-46853571D01*
X155828571Y-46925000D01*
X155971428Y-47067857D01*
X156042857Y-47353571D01*
X156042857Y-47853571D01*
X155971428Y-48139285D01*
X155828571Y-48282142D01*
X155685714Y-48353571D01*
X155400000Y-48353571D01*
X155257142Y-48282142D01*
X155114285Y-48139285D01*
X155042857Y-47853571D01*
X155042857Y-47353571D01*
X155114285Y-47067857D01*
X155257142Y-46925000D01*
X155400000Y-46853571D01*
X156685714Y-46853571D02*
X156685714Y-48067857D01*
X156757142Y-48210714D01*
X156828571Y-48282142D01*
X156971428Y-48353571D01*
X157257142Y-48353571D01*
X157400000Y-48282142D01*
X157471428Y-48210714D01*
X157542857Y-48067857D01*
X157542857Y-46853571D01*
X158042857Y-46853571D02*
X158900000Y-46853571D01*
X158471428Y-48353571D02*
X158471428Y-46853571D01*
X159528571Y-43732142D02*
X160671428Y-43732142D01*
X160100000Y-44303571D02*
X160100000Y-43160714D01*
X159528571Y-46282142D02*
X160671428Y-46282142D01*
D11*
X132035595Y-70821428D02*
X132797500Y-70821428D01*
X132416547Y-71202380D02*
X132416547Y-70440476D01*
X133178452Y-70202380D02*
X133797500Y-70202380D01*
X133464166Y-70583333D01*
X133607023Y-70583333D01*
X133702261Y-70630952D01*
X133749880Y-70678571D01*
X133797500Y-70773809D01*
X133797500Y-71011904D01*
X133749880Y-71107142D01*
X133702261Y-71154761D01*
X133607023Y-71202380D01*
X133321309Y-71202380D01*
X133226071Y-71154761D01*
X133178452Y-71107142D01*
X132559404Y-73550000D02*
X132464166Y-73502380D01*
X132321309Y-73502380D01*
X132178452Y-73550000D01*
X132083214Y-73645238D01*
X132035595Y-73740476D01*
X131987976Y-73930952D01*
X131987976Y-74073809D01*
X132035595Y-74264285D01*
X132083214Y-74359523D01*
X132178452Y-74454761D01*
X132321309Y-74502380D01*
X132416547Y-74502380D01*
X132559404Y-74454761D01*
X132607023Y-74407142D01*
X132607023Y-74073809D01*
X132416547Y-74073809D01*
X133035595Y-74502380D02*
X133035595Y-73502380D01*
X133607023Y-74502380D01*
X133607023Y-73502380D01*
X134083214Y-74502380D02*
X134083214Y-73502380D01*
X134321309Y-73502380D01*
X134464166Y-73550000D01*
X134559404Y-73645238D01*
X134607023Y-73740476D01*
X134654642Y-73930952D01*
X134654642Y-74073809D01*
X134607023Y-74264285D01*
X134559404Y-74359523D01*
X134464166Y-74454761D01*
X134321309Y-74502380D01*
X134083214Y-74502380D01*
D10*
X149128571Y-65607142D02*
X150271428Y-65607142D01*
X149700000Y-66178571D02*
X149700000Y-65035714D01*
X152128571Y-65607142D02*
X153271428Y-65607142D01*
X134528571Y-32207142D02*
X135671428Y-32207142D01*
X134528571Y-37807142D02*
X135671428Y-37807142D01*
X135100000Y-38378571D02*
X135100000Y-37235714D01*
X129264285Y-41478571D02*
X128407142Y-41478571D01*
X128835714Y-41478571D02*
X128835714Y-39978571D01*
X128692857Y-40192857D01*
X128550000Y-40335714D01*
X128407142Y-40407142D01*
X129835714Y-40121428D02*
X129907142Y-40050000D01*
X130050000Y-39978571D01*
X130407142Y-39978571D01*
X130550000Y-40050000D01*
X130621428Y-40121428D01*
X130692857Y-40264285D01*
X130692857Y-40407142D01*
X130621428Y-40621428D01*
X129764285Y-41478571D01*
X130692857Y-41478571D01*
X131121428Y-39978571D02*
X131621428Y-41478571D01*
X132121428Y-39978571D01*
X133764285Y-41478571D02*
X133764285Y-39978571D01*
X134478571Y-40478571D02*
X134478571Y-41478571D01*
X134478571Y-40621428D02*
X134550000Y-40550000D01*
X134692857Y-40478571D01*
X134907142Y-40478571D01*
X135050000Y-40550000D01*
X135121428Y-40692857D01*
X135121428Y-41478571D01*
D12*
X153357142Y-38142857D02*
X152957142Y-37571428D01*
X152671428Y-38142857D02*
X152671428Y-36942857D01*
X153128571Y-36942857D01*
X153242857Y-37000000D01*
X153300000Y-37057142D01*
X153357142Y-37171428D01*
X153357142Y-37342857D01*
X153300000Y-37457142D01*
X153242857Y-37514285D01*
X153128571Y-37571428D01*
X152671428Y-37571428D01*
X154328571Y-38085714D02*
X154214285Y-38142857D01*
X153985714Y-38142857D01*
X153871428Y-38085714D01*
X153814285Y-37971428D01*
X153814285Y-37514285D01*
X153871428Y-37400000D01*
X153985714Y-37342857D01*
X154214285Y-37342857D01*
X154328571Y-37400000D01*
X154385714Y-37514285D01*
X154385714Y-37628571D01*
X153814285Y-37742857D01*
X154785714Y-37342857D02*
X155071428Y-38142857D01*
X155357142Y-37342857D01*
X157357142Y-38142857D02*
X156671428Y-38142857D01*
X157014285Y-38142857D02*
X157014285Y-36942857D01*
X156900000Y-37114285D01*
X156785714Y-37228571D01*
X156671428Y-37285714D01*
X157871428Y-38028571D02*
X157928571Y-38085714D01*
X157871428Y-38142857D01*
X157814285Y-38085714D01*
X157871428Y-38028571D01*
X157871428Y-38142857D01*
X158385714Y-37057142D02*
X158442857Y-37000000D01*
X158557142Y-36942857D01*
X158842857Y-36942857D01*
X158957142Y-37000000D01*
X159014285Y-37057142D01*
X159071428Y-37171428D01*
X159071428Y-37285714D01*
X159014285Y-37457142D01*
X158328571Y-38142857D01*
X159071428Y-38142857D01*
X159585714Y-38028571D02*
X159642857Y-38085714D01*
X159585714Y-38142857D01*
X159528571Y-38085714D01*
X159585714Y-38028571D01*
X159585714Y-38142857D01*
X160785714Y-38142857D02*
X160100000Y-38142857D01*
X160442857Y-38142857D02*
X160442857Y-36942857D01*
X160328571Y-37114285D01*
X160214285Y-37228571D01*
X160100000Y-37285714D01*
D11*
X135071428Y-65157142D02*
X135071428Y-64395238D01*
X135452380Y-64776190D02*
X134690476Y-64776190D01*
X134452380Y-64061904D02*
X134452380Y-63490476D01*
X135452380Y-63776190D02*
X134452380Y-63776190D01*
X134452380Y-63252380D02*
X134452380Y-62633333D01*
X134833333Y-62966666D01*
X134833333Y-62823809D01*
X134880952Y-62728571D01*
X134928571Y-62680952D01*
X135023809Y-62633333D01*
X135261904Y-62633333D01*
X135357142Y-62680952D01*
X135404761Y-62728571D01*
X135452380Y-62823809D01*
X135452380Y-63109523D01*
X135404761Y-63204761D01*
X135357142Y-63252380D01*
X135071428Y-62204761D02*
X135071428Y-61442857D01*
X135071428Y-60157142D02*
X135071428Y-59395238D01*
X135452380Y-59776190D02*
X134690476Y-59776190D01*
X134452380Y-59061904D02*
X134452380Y-58490476D01*
X135452380Y-58776190D02*
X134452380Y-58776190D01*
X134547619Y-58204761D02*
X134500000Y-58157142D01*
X134452380Y-58061904D01*
X134452380Y-57823809D01*
X134500000Y-57728571D01*
X134547619Y-57680952D01*
X134642857Y-57633333D01*
X134738095Y-57633333D01*
X134880952Y-57680952D01*
X135452380Y-58252380D01*
X135452380Y-57633333D01*
X135071428Y-57204761D02*
X135071428Y-56442857D01*
X135071428Y-55057142D02*
X135071428Y-54295238D01*
X135452380Y-54676190D02*
X134690476Y-54676190D01*
X134452380Y-53961904D02*
X134452380Y-53390476D01*
X135452380Y-53676190D02*
X134452380Y-53676190D01*
X135452380Y-52533333D02*
X135452380Y-53104761D01*
X135452380Y-52819047D02*
X134452380Y-52819047D01*
X134595238Y-52914285D01*
X134690476Y-53009523D01*
X134738095Y-53104761D01*
X135071428Y-52104761D02*
X135071428Y-51342857D01*
X135071428Y-50057142D02*
X135071428Y-49295238D01*
X135452380Y-49676190D02*
X134690476Y-49676190D01*
X134452380Y-48961904D02*
X134452380Y-48390476D01*
X135452380Y-48676190D02*
X134452380Y-48676190D01*
X134452380Y-47866666D02*
X134452380Y-47771428D01*
X134500000Y-47676190D01*
X134547619Y-47628571D01*
X134642857Y-47580952D01*
X134833333Y-47533333D01*
X135071428Y-47533333D01*
X135261904Y-47580952D01*
X135357142Y-47628571D01*
X135404761Y-47676190D01*
X135452380Y-47771428D01*
X135452380Y-47866666D01*
X135404761Y-47961904D01*
X135357142Y-48009523D01*
X135261904Y-48057142D01*
X135071428Y-48104761D01*
X134833333Y-48104761D01*
X134642857Y-48057142D01*
X134547619Y-48009523D01*
X134500000Y-47961904D01*
X134452380Y-47866666D01*
X135071428Y-47104761D02*
X135071428Y-46342857D01*
X147600000Y-35300000D02*
X147504761Y-35252380D01*
X147361904Y-35252380D01*
X147219047Y-35300000D01*
X147123809Y-35395238D01*
X147076190Y-35490476D01*
X147028571Y-35680952D01*
X147028571Y-35823809D01*
X147076190Y-36014285D01*
X147123809Y-36109523D01*
X147219047Y-36204761D01*
X147361904Y-36252380D01*
X147457142Y-36252380D01*
X147600000Y-36204761D01*
X147647619Y-36157142D01*
X147647619Y-35823809D01*
X147457142Y-35823809D01*
X148076190Y-36252380D02*
X148076190Y-35252380D01*
X148647619Y-36252380D01*
X148647619Y-35252380D01*
X150219047Y-35728571D02*
X149885714Y-35728571D01*
X149885714Y-36252380D02*
X149885714Y-35252380D01*
X150361904Y-35252380D01*
X150742857Y-36252380D02*
X150742857Y-35252380D01*
X151314285Y-36252380D01*
X151314285Y-35252380D01*
X152552380Y-36252380D02*
X152552380Y-35252380D01*
X152790476Y-35252380D01*
X152933333Y-35300000D01*
X153028571Y-35395238D01*
X153076190Y-35490476D01*
X153123809Y-35680952D01*
X153123809Y-35823809D01*
X153076190Y-36014285D01*
X153028571Y-36109523D01*
X152933333Y-36204761D01*
X152790476Y-36252380D01*
X152552380Y-36252380D01*
X154219047Y-36347619D02*
X154123809Y-36300000D01*
X154028571Y-36204761D01*
X153885714Y-36061904D01*
X153790476Y-36014285D01*
X153695238Y-36014285D01*
X153742857Y-36252380D02*
X153647619Y-36204761D01*
X153552380Y-36109523D01*
X153504761Y-35919047D01*
X153504761Y-35585714D01*
X153552380Y-35395238D01*
X153647619Y-35300000D01*
X153742857Y-35252380D01*
X153933333Y-35252380D01*
X154028571Y-35300000D01*
X154123809Y-35395238D01*
X154171428Y-35585714D01*
X154171428Y-35919047D01*
X154123809Y-36109523D01*
X154028571Y-36204761D01*
X153933333Y-36252380D01*
X153742857Y-36252380D01*
X152461904Y-57000000D02*
X152366666Y-56952380D01*
X152223809Y-56952380D01*
X152080952Y-57000000D01*
X151985714Y-57095238D01*
X151938095Y-57190476D01*
X151890476Y-57380952D01*
X151890476Y-57523809D01*
X151938095Y-57714285D01*
X151985714Y-57809523D01*
X152080952Y-57904761D01*
X152223809Y-57952380D01*
X152319047Y-57952380D01*
X152461904Y-57904761D01*
X152509523Y-57857142D01*
X152509523Y-57523809D01*
X152319047Y-57523809D01*
X152938095Y-57952380D02*
X152938095Y-56952380D01*
X153509523Y-57952380D01*
X153509523Y-56952380D01*
X154747619Y-57952380D02*
X154747619Y-56952380D01*
X154985714Y-56952380D01*
X155128571Y-57000000D01*
X155223809Y-57095238D01*
X155271428Y-57190476D01*
X155319047Y-57380952D01*
X155319047Y-57523809D01*
X155271428Y-57714285D01*
X155223809Y-57809523D01*
X155128571Y-57904761D01*
X154985714Y-57952380D01*
X154747619Y-57952380D01*
X155747619Y-57571428D02*
X156509523Y-57571428D01*
X156128571Y-57952380D02*
X156128571Y-57190476D01*
X157747619Y-57952380D02*
X157747619Y-56952380D01*
X157985714Y-56952380D01*
X158128571Y-57000000D01*
X158223809Y-57095238D01*
X158271428Y-57190476D01*
X158319047Y-57380952D01*
X158319047Y-57523809D01*
X158271428Y-57714285D01*
X158223809Y-57809523D01*
X158128571Y-57904761D01*
X157985714Y-57952380D01*
X157747619Y-57952380D01*
X158747619Y-57571428D02*
X159509523Y-57571428D01*
X160747619Y-57571428D02*
X161509523Y-57571428D01*
X161128571Y-57952380D02*
X161128571Y-57190476D01*
X162461904Y-56952380D02*
X161985714Y-56952380D01*
X161938095Y-57428571D01*
X161985714Y-57380952D01*
X162080952Y-57333333D01*
X162319047Y-57333333D01*
X162414285Y-57380952D01*
X162461904Y-57428571D01*
X162509523Y-57523809D01*
X162509523Y-57761904D01*
X162461904Y-57857142D01*
X162414285Y-57904761D01*
X162319047Y-57952380D01*
X162080952Y-57952380D01*
X161985714Y-57904761D01*
X161938095Y-57857142D01*
D10*
X160878571Y-62978571D02*
X160378571Y-62264285D01*
X160021428Y-62978571D02*
X160021428Y-61478571D01*
X160592857Y-61478571D01*
X160735714Y-61550000D01*
X160807142Y-61621428D01*
X160878571Y-61764285D01*
X160878571Y-61978571D01*
X160807142Y-62121428D01*
X160735714Y-62192857D01*
X160592857Y-62264285D01*
X160021428Y-62264285D01*
X161450000Y-62907142D02*
X161664285Y-62978571D01*
X162021428Y-62978571D01*
X162164285Y-62907142D01*
X162235714Y-62835714D01*
X162307142Y-62692857D01*
X162307142Y-62550000D01*
X162235714Y-62407142D01*
X162164285Y-62335714D01*
X162021428Y-62264285D01*
X161735714Y-62192857D01*
X161592857Y-62121428D01*
X161521428Y-62050000D01*
X161450000Y-61907142D01*
X161450000Y-61764285D01*
X161521428Y-61621428D01*
X161592857Y-61550000D01*
X161735714Y-61478571D01*
X162092857Y-61478571D01*
X162307142Y-61550000D01*
X162735714Y-61478571D02*
X163592857Y-61478571D01*
X163164285Y-62978571D02*
X163164285Y-61478571D01*
X160035714Y-68878571D02*
X160035714Y-67378571D01*
X160678571Y-68807142D02*
X160892857Y-68878571D01*
X161250000Y-68878571D01*
X161392857Y-68807142D01*
X161464285Y-68735714D01*
X161535714Y-68592857D01*
X161535714Y-68450000D01*
X161464285Y-68307142D01*
X161392857Y-68235714D01*
X161250000Y-68164285D01*
X160964285Y-68092857D01*
X160821428Y-68021428D01*
X160750000Y-67950000D01*
X160678571Y-67807142D01*
X160678571Y-67664285D01*
X160750000Y-67521428D01*
X160821428Y-67450000D01*
X160964285Y-67378571D01*
X161321428Y-67378571D01*
X161535714Y-67450000D01*
X162178571Y-68878571D02*
X162178571Y-67378571D01*
X162750000Y-67378571D01*
X162892857Y-67450000D01*
X162964285Y-67521428D01*
X163035714Y-67664285D01*
X163035714Y-67878571D01*
X162964285Y-68021428D01*
X162892857Y-68092857D01*
X162750000Y-68164285D01*
X162178571Y-68164285D01*
D11*
X142895238Y-70800000D02*
X142800000Y-70752380D01*
X142657142Y-70752380D01*
X142514285Y-70800000D01*
X142419047Y-70895238D01*
X142371428Y-70990476D01*
X142323809Y-71180952D01*
X142323809Y-71323809D01*
X142371428Y-71514285D01*
X142419047Y-71609523D01*
X142514285Y-71704761D01*
X142657142Y-71752380D01*
X142752380Y-71752380D01*
X142895238Y-71704761D01*
X142942857Y-71657142D01*
X142942857Y-71323809D01*
X142752380Y-71323809D01*
X143371428Y-71752380D02*
X143371428Y-70752380D01*
X143942857Y-71752380D01*
X143942857Y-70752380D01*
X145752380Y-71752380D02*
X145419047Y-71276190D01*
X145180952Y-71752380D02*
X145180952Y-70752380D01*
X145561904Y-70752380D01*
X145657142Y-70800000D01*
X145704761Y-70847619D01*
X145752380Y-70942857D01*
X145752380Y-71085714D01*
X145704761Y-71180952D01*
X145657142Y-71228571D01*
X145561904Y-71276190D01*
X145180952Y-71276190D01*
X146085714Y-70752380D02*
X146752380Y-71752380D01*
X146752380Y-70752380D02*
X146085714Y-71752380D01*
X147752380Y-70752380D02*
X148323809Y-70752380D01*
X148038095Y-71752380D02*
X148038095Y-70752380D01*
X148561904Y-70752380D02*
X149228571Y-71752380D01*
X149228571Y-70752380D02*
X148561904Y-71752380D01*
X150371428Y-71752380D02*
X150371428Y-70752380D01*
X150942857Y-71752380D01*
X150942857Y-70752380D01*
X151990476Y-71752380D02*
X151657142Y-71276190D01*
X151419047Y-71752380D02*
X151419047Y-70752380D01*
X151800000Y-70752380D01*
X151895238Y-70800000D01*
X151942857Y-70847619D01*
X151990476Y-70942857D01*
X151990476Y-71085714D01*
X151942857Y-71180952D01*
X151895238Y-71228571D01*
X151800000Y-71276190D01*
X151419047Y-71276190D01*
X153180952Y-71752380D02*
X153180952Y-70752380D01*
X153752380Y-71752380D01*
X153752380Y-70752380D01*
X154228571Y-71752380D02*
X154228571Y-70752380D01*
D10*
X147271428Y-67392857D02*
X146771428Y-67392857D01*
X146771428Y-68178571D02*
X146771428Y-66678571D01*
X147485714Y-66678571D01*
X147985714Y-67750000D02*
X148700000Y-67750000D01*
X147842857Y-68178571D02*
X148342857Y-66678571D01*
X148842857Y-68178571D01*
X149342857Y-68178571D02*
X149342857Y-66678571D01*
X150200000Y-68178571D01*
X150200000Y-66678571D01*
X152342857Y-66678571D02*
X152628571Y-66678571D01*
X152771428Y-66750000D01*
X152914285Y-66892857D01*
X152985714Y-67178571D01*
X152985714Y-67678571D01*
X152914285Y-67964285D01*
X152771428Y-68107142D01*
X152628571Y-68178571D01*
X152342857Y-68178571D01*
X152200000Y-68107142D01*
X152057142Y-67964285D01*
X151985714Y-67678571D01*
X151985714Y-67178571D01*
X152057142Y-66892857D01*
X152200000Y-66750000D01*
X152342857Y-66678571D01*
X153628571Y-66678571D02*
X153628571Y-67892857D01*
X153700000Y-68035714D01*
X153771428Y-68107142D01*
X153914285Y-68178571D01*
X154200000Y-68178571D01*
X154342857Y-68107142D01*
X154414285Y-68035714D01*
X154485714Y-67892857D01*
X154485714Y-66678571D01*
X154985714Y-66678571D02*
X155842857Y-66678571D01*
X155414285Y-68178571D02*
X155414285Y-66678571D01*
D13*
G04 #@! TO.C,D1*
X156610000Y-51925000D02*
X156610000Y-50125000D01*
X153390000Y-50125000D02*
X153390000Y-52575000D01*
G04 #@! TO.C,J6*
X161240000Y-48560000D02*
X167210000Y-48560000D01*
X167210000Y-48560000D02*
X167210000Y-40940000D01*
X167210000Y-40940000D02*
X161240000Y-40940000D01*
X161240000Y-40940000D02*
X161240000Y-48560000D01*
X161250000Y-45250000D02*
X162000000Y-45250000D01*
X162000000Y-45250000D02*
X162000000Y-44250000D01*
X162000000Y-44250000D02*
X161250000Y-44250000D01*
X161250000Y-44250000D02*
X161250000Y-45250000D01*
X161250000Y-48550000D02*
X162000000Y-48550000D01*
X162000000Y-48550000D02*
X162000000Y-46750000D01*
X162000000Y-46750000D02*
X161250000Y-46750000D01*
X161250000Y-46750000D02*
X161250000Y-48550000D01*
X161250000Y-42750000D02*
X162000000Y-42750000D01*
X162000000Y-42750000D02*
X162000000Y-40950000D01*
X162000000Y-40950000D02*
X161250000Y-40950000D01*
X161250000Y-40950000D02*
X161250000Y-42750000D01*
X163500000Y-48550000D02*
X163500000Y-47800000D01*
X163500000Y-47800000D02*
X164840000Y-47800000D01*
X166450000Y-44750000D02*
X166450000Y-46740000D01*
X163500000Y-40950000D02*
X163500000Y-41700000D01*
X163500000Y-41700000D02*
X166450000Y-41700000D01*
X166450000Y-41700000D02*
X166450000Y-44750000D01*
X160950000Y-47600000D02*
X160950000Y-48850000D01*
X160950000Y-48850000D02*
X162200000Y-48850000D01*
G04 #@! TO.C,J4*
X131630000Y-69830000D02*
X128970000Y-69830000D01*
X131630000Y-72430000D02*
X131630000Y-69830000D01*
X128970000Y-72430000D02*
X128970000Y-69830000D01*
X131630000Y-72430000D02*
X128970000Y-72430000D01*
X131630000Y-73700000D02*
X131630000Y-75030000D01*
X131630000Y-75030000D02*
X130300000Y-75030000D01*
G04 #@! TO.C,U2*
X143810000Y-46810000D02*
X143810000Y-45550000D01*
X143810000Y-39990000D02*
X143810000Y-41250000D01*
X140050000Y-46810000D02*
X143810000Y-46810000D01*
X137800000Y-39990000D02*
X143810000Y-39990000D01*
G04 #@! TO.C,J2*
X133650000Y-66260000D02*
X133650000Y-45240000D01*
X128550000Y-66260000D02*
X128550000Y-45240000D01*
X127430000Y-66260000D02*
X127430000Y-45240000D01*
X134170000Y-66260000D02*
X134170000Y-45240000D01*
X127430000Y-66260000D02*
X134170000Y-66260000D01*
X127430000Y-45240000D02*
X134170000Y-45240000D01*
X133770000Y-66500000D02*
X134410000Y-66500000D01*
X134410000Y-66500000D02*
X134410000Y-66100000D01*
G04 #@! TO.C,SW2*
X157950000Y-64500000D02*
X157850000Y-64500000D01*
X156350000Y-60100000D02*
X156350000Y-64500000D01*
X159450000Y-64500000D02*
X159450000Y-60100000D01*
X157950000Y-60100000D02*
X157850000Y-60100000D01*
G04 #@! TO.C,R5*
X152742222Y-42210000D02*
X153067780Y-42210000D01*
X152742222Y-41190000D02*
X153067780Y-41190000D01*
G04 #@! TO.C,R4*
X153062779Y-43710000D02*
X152737221Y-43710000D01*
X153062779Y-42690000D02*
X152737221Y-42690000D01*
D11*
G04 #@! TO.C,U5*
X147700000Y-49600000D02*
X148225000Y-49600000D01*
X147700000Y-45300000D02*
X148225000Y-45300000D01*
X152000000Y-45300000D02*
X151475000Y-45300000D01*
X152000000Y-49600000D02*
X151475000Y-49600000D01*
X147700000Y-45300000D02*
X147700000Y-45825000D01*
X152000000Y-45300000D02*
X152000000Y-45825000D01*
X147700000Y-49600000D02*
X147700000Y-49075000D01*
D13*
G04 #@! TO.C,J8*
X163437500Y-57900000D02*
X163437500Y-57450000D01*
X165287500Y-57900000D02*
X163437500Y-57900000D01*
X167837500Y-50100000D02*
X167587500Y-50100000D01*
X167837500Y-57900000D02*
X167587500Y-57900000D01*
X165287500Y-50100000D02*
X163437500Y-50100000D01*
X163437500Y-50100000D02*
X163437500Y-50550000D01*
X162887500Y-55700000D02*
X162887500Y-55250000D01*
X162887500Y-55700000D02*
X163337500Y-55700000D01*
G04 #@! TO.C,R1*
X146590000Y-41037221D02*
X146590000Y-41362779D01*
X147610000Y-41037221D02*
X147610000Y-41362779D01*
G04 #@! TO.C,R3*
X150062779Y-43710000D02*
X149737221Y-43710000D01*
X150062779Y-42690000D02*
X149737221Y-42690000D01*
G04 #@! TO.C,SW1*
X157950000Y-66650000D02*
X157850000Y-66650000D01*
X159450000Y-71050000D02*
X159450000Y-66650000D01*
X156350000Y-66650000D02*
X156350000Y-71050000D01*
X157950000Y-71050000D02*
X157850000Y-71050000D01*
D11*
G04 #@! TO.C,U6*
X139230000Y-64750000D02*
X140030000Y-63950000D01*
X140030000Y-63950000D02*
X144770000Y-63950000D01*
X144770000Y-63950000D02*
X144770000Y-67250000D01*
X144770000Y-67250000D02*
X139230000Y-67250000D01*
X139230000Y-67250000D02*
X139230000Y-64750000D01*
D13*
G04 #@! TO.C,C10*
X156537221Y-40390000D02*
X156862779Y-40390000D01*
X156537221Y-41410000D02*
X156862779Y-41410000D01*
G04 #@! TO.C,C11*
X138710000Y-58562779D02*
X138710000Y-58237221D01*
X137690000Y-58562779D02*
X137690000Y-58237221D01*
G04 #@! TO.C,C12*
X137437221Y-65990000D02*
X137762779Y-65990000D01*
X137437221Y-67010000D02*
X137762779Y-67010000D01*
G04 #@! TO.C,C13*
X138810000Y-64362779D02*
X138810000Y-64037221D01*
X137790000Y-64362779D02*
X137790000Y-64037221D01*
G04 #@! TO.C,J5*
X155150000Y-65050000D02*
X155150000Y-63800000D01*
X153900000Y-65050000D02*
X155150000Y-65050000D01*
X148000000Y-59550000D02*
X151050000Y-59550000D01*
X148000000Y-62500000D02*
X148000000Y-59550000D01*
X147250000Y-62500000D02*
X148000000Y-62500000D01*
X151050000Y-59550000D02*
X153040000Y-59550000D01*
X154100000Y-62500000D02*
X154100000Y-61160000D01*
X154850000Y-62500000D02*
X154100000Y-62500000D01*
X147250000Y-64750000D02*
X149050000Y-64750000D01*
X147250000Y-64000000D02*
X147250000Y-64750000D01*
X149050000Y-64000000D02*
X147250000Y-64000000D01*
X149050000Y-64750000D02*
X149050000Y-64000000D01*
X153050000Y-64750000D02*
X154850000Y-64750000D01*
X153050000Y-64000000D02*
X153050000Y-64750000D01*
X154850000Y-64000000D02*
X153050000Y-64000000D01*
X154850000Y-64750000D02*
X154850000Y-64000000D01*
X150550000Y-64750000D02*
X151550000Y-64750000D01*
X150550000Y-64000000D02*
X150550000Y-64750000D01*
X151550000Y-64000000D02*
X150550000Y-64000000D01*
X151550000Y-64750000D02*
X151550000Y-64000000D01*
X147240000Y-64760000D02*
X154860000Y-64760000D01*
X147240000Y-58790000D02*
X147240000Y-64760000D01*
X154860000Y-58790000D02*
X147240000Y-58790000D01*
X154860000Y-64760000D02*
X154860000Y-58790000D01*
G04 #@! TO.C,J3*
X134260000Y-31840000D02*
X128290000Y-31840000D01*
X128290000Y-31840000D02*
X128290000Y-39460000D01*
X128290000Y-39460000D02*
X134260000Y-39460000D01*
X134260000Y-39460000D02*
X134260000Y-31840000D01*
X134250000Y-35150000D02*
X133500000Y-35150000D01*
X133500000Y-35150000D02*
X133500000Y-36150000D01*
X133500000Y-36150000D02*
X134250000Y-36150000D01*
X134250000Y-36150000D02*
X134250000Y-35150000D01*
X134250000Y-31850000D02*
X133500000Y-31850000D01*
X133500000Y-31850000D02*
X133500000Y-33650000D01*
X133500000Y-33650000D02*
X134250000Y-33650000D01*
X134250000Y-33650000D02*
X134250000Y-31850000D01*
X134250000Y-37650000D02*
X133500000Y-37650000D01*
X133500000Y-37650000D02*
X133500000Y-39450000D01*
X133500000Y-39450000D02*
X134250000Y-39450000D01*
X134250000Y-39450000D02*
X134250000Y-37650000D01*
X132000000Y-31850000D02*
X132000000Y-32600000D01*
X132000000Y-32600000D02*
X130660000Y-32600000D01*
X129050000Y-35650000D02*
X129050000Y-33660000D01*
X132000000Y-39450000D02*
X132000000Y-38700000D01*
X132000000Y-38700000D02*
X129050000Y-38700000D01*
X129050000Y-38700000D02*
X129050000Y-35650000D01*
X134550000Y-32800000D02*
X134550000Y-31550000D01*
X134550000Y-31550000D02*
X133300000Y-31550000D01*
G04 #@! TO.C,J1*
X146790000Y-32370000D02*
X146790000Y-35030000D01*
X151930000Y-32370000D02*
X146790000Y-32370000D01*
X151930000Y-35030000D02*
X146790000Y-35030000D01*
X151930000Y-32370000D02*
X151930000Y-35030000D01*
X153200000Y-32370000D02*
X154530000Y-32370000D01*
X154530000Y-32370000D02*
X154530000Y-33700000D01*
G04 #@! TO.C,J10*
X162210000Y-56630000D02*
X162210000Y-53970000D01*
X154530000Y-56630000D02*
X162210000Y-56630000D01*
X154530000Y-53970000D02*
X162210000Y-53970000D01*
X154530000Y-56630000D02*
X154530000Y-53970000D01*
X153260000Y-56630000D02*
X151930000Y-56630000D01*
X151930000Y-56630000D02*
X151930000Y-55300000D01*
G04 #@! TO.C,J7*
X142110000Y-71970000D02*
X142110000Y-74630000D01*
X152330000Y-71970000D02*
X142110000Y-71970000D01*
X152330000Y-74630000D02*
X142110000Y-74630000D01*
X152330000Y-71970000D02*
X152330000Y-74630000D01*
X153600000Y-71970000D02*
X154930000Y-71970000D01*
X154930000Y-71970000D02*
X154930000Y-73300000D01*
G04 #@! TO.C,R2*
X149110000Y-38362779D02*
X149110000Y-38037221D01*
X148090000Y-38362779D02*
X148090000Y-38037221D01*
D11*
G04 #@! TO.C,U1*
X139130000Y-50450000D02*
X139130000Y-47950000D01*
X144670000Y-50450000D02*
X139130000Y-50450000D01*
X144670000Y-47150000D02*
X144670000Y-50450000D01*
X139930000Y-47150000D02*
X144670000Y-47150000D01*
X139130000Y-47950000D02*
X139930000Y-47150000D01*
G04 #@! TO.C,U3*
X139130000Y-52850000D02*
X139930000Y-52050000D01*
X139930000Y-52050000D02*
X144670000Y-52050000D01*
X144670000Y-52050000D02*
X144670000Y-55350000D01*
X144670000Y-55350000D02*
X139130000Y-55350000D01*
X139130000Y-55350000D02*
X139130000Y-52850000D01*
G04 #@! TO.C,U4*
X139130000Y-61350000D02*
X139130000Y-58850000D01*
X144670000Y-61350000D02*
X139130000Y-61350000D01*
X144670000Y-58050000D02*
X144670000Y-61350000D01*
X139930000Y-58050000D02*
X144670000Y-58050000D01*
X139130000Y-58850000D02*
X139930000Y-58050000D01*
D13*
G04 #@! TO.C,C2*
X136190000Y-47562779D02*
X136190000Y-47237221D01*
X137210000Y-47562779D02*
X137210000Y-47237221D01*
G04 #@! TO.C,C3*
X147610000Y-38350279D02*
X147610000Y-38024721D01*
X146590000Y-38350279D02*
X146590000Y-38024721D01*
G04 #@! TO.C,C4*
X137337221Y-54090000D02*
X137662779Y-54090000D01*
X137337221Y-55110000D02*
X137662779Y-55110000D01*
G04 #@! TO.C,C5*
X138710000Y-52462779D02*
X138710000Y-52137221D01*
X137690000Y-52462779D02*
X137690000Y-52137221D01*
G04 #@! TO.C,C8*
X137337221Y-60190000D02*
X137662779Y-60190000D01*
X137337221Y-61210000D02*
X137662779Y-61210000D01*
G04 #@! TO.C,C9*
X156537221Y-42910000D02*
X156862779Y-42910000D01*
X156537221Y-41890000D02*
X156862779Y-41890000D01*
G04 #@! TO.C,C1*
X137337221Y-49190000D02*
X137662779Y-49190000D01*
X137337221Y-50210000D02*
X137662779Y-50210000D01*
G04 #@! TO.C,Q1*
X150295001Y-41500000D02*
X150295001Y-42160000D01*
X150295001Y-39840000D02*
X150295001Y-40500000D01*
X150295001Y-39840000D02*
X148265001Y-39840000D01*
X148885001Y-42160000D02*
X150295001Y-42160000D01*
G04 #@! TO.C,D1*
D11*
X152552380Y-51763095D02*
X151552380Y-51763095D01*
X151552380Y-51525000D01*
X151600000Y-51382142D01*
X151695238Y-51286904D01*
X151790476Y-51239285D01*
X151980952Y-51191666D01*
X152123809Y-51191666D01*
X152314285Y-51239285D01*
X152409523Y-51286904D01*
X152504761Y-51382142D01*
X152552380Y-51525000D01*
X152552380Y-51763095D01*
X152552380Y-50239285D02*
X152552380Y-50810714D01*
X152552380Y-50525000D02*
X151552380Y-50525000D01*
X151695238Y-50620238D01*
X151790476Y-50715476D01*
X151838095Y-50810714D01*
G04 #@! TO.C,J6*
X165966666Y-39552380D02*
X165966666Y-40266666D01*
X165919047Y-40409523D01*
X165823809Y-40504761D01*
X165680952Y-40552380D01*
X165585714Y-40552380D01*
X166871428Y-39552380D02*
X166680952Y-39552380D01*
X166585714Y-39600000D01*
X166538095Y-39647619D01*
X166442857Y-39790476D01*
X166395238Y-39980952D01*
X166395238Y-40361904D01*
X166442857Y-40457142D01*
X166490476Y-40504761D01*
X166585714Y-40552380D01*
X166776190Y-40552380D01*
X166871428Y-40504761D01*
X166919047Y-40457142D01*
X166966666Y-40361904D01*
X166966666Y-40123809D01*
X166919047Y-40028571D01*
X166871428Y-39980952D01*
X166776190Y-39933333D01*
X166585714Y-39933333D01*
X166490476Y-39980952D01*
X166442857Y-40028571D01*
X166395238Y-40123809D01*
G04 #@! TO.C,J4*
X128466666Y-68352380D02*
X128466666Y-69066666D01*
X128419047Y-69209523D01*
X128323809Y-69304761D01*
X128180952Y-69352380D01*
X128085714Y-69352380D01*
X129371428Y-68685714D02*
X129371428Y-69352380D01*
X129133333Y-68304761D02*
X128895238Y-69019047D01*
X129514285Y-69019047D01*
G04 #@! TO.C,U2*
X141138095Y-38352380D02*
X141138095Y-39161904D01*
X141185714Y-39257142D01*
X141233333Y-39304761D01*
X141328571Y-39352380D01*
X141519047Y-39352380D01*
X141614285Y-39304761D01*
X141661904Y-39257142D01*
X141709523Y-39161904D01*
X141709523Y-38352380D01*
X142138095Y-38447619D02*
X142185714Y-38400000D01*
X142280952Y-38352380D01*
X142519047Y-38352380D01*
X142614285Y-38400000D01*
X142661904Y-38447619D01*
X142709523Y-38542857D01*
X142709523Y-38638095D01*
X142661904Y-38780952D01*
X142090476Y-39352380D01*
X142709523Y-39352380D01*
G04 #@! TO.C,J2*
X130466666Y-66752380D02*
X130466666Y-67466666D01*
X130419047Y-67609523D01*
X130323809Y-67704761D01*
X130180952Y-67752380D01*
X130085714Y-67752380D01*
X130895238Y-66847619D02*
X130942857Y-66800000D01*
X131038095Y-66752380D01*
X131276190Y-66752380D01*
X131371428Y-66800000D01*
X131419047Y-66847619D01*
X131466666Y-66942857D01*
X131466666Y-67038095D01*
X131419047Y-67180952D01*
X130847619Y-67752380D01*
X131466666Y-67752380D01*
G04 #@! TO.C,H1*
X140938095Y-70152380D02*
X140938095Y-69152380D01*
X140938095Y-69628571D02*
X141509523Y-69628571D01*
X141509523Y-70152380D02*
X141509523Y-69152380D01*
X142509523Y-70152380D02*
X141938095Y-70152380D01*
X142223809Y-70152380D02*
X142223809Y-69152380D01*
X142128571Y-69295238D01*
X142033333Y-69390476D01*
X141938095Y-69438095D01*
G04 #@! TO.C,H2*
X159138095Y-75052380D02*
X159138095Y-74052380D01*
X159138095Y-74528571D02*
X159709523Y-74528571D01*
X159709523Y-75052380D02*
X159709523Y-74052380D01*
X160138095Y-74147619D02*
X160185714Y-74100000D01*
X160280952Y-74052380D01*
X160519047Y-74052380D01*
X160614285Y-74100000D01*
X160661904Y-74147619D01*
X160709523Y-74242857D01*
X160709523Y-74338095D01*
X160661904Y-74480952D01*
X160090476Y-75052380D01*
X160709523Y-75052380D01*
G04 #@! TO.C,H3*
X140338095Y-32652380D02*
X140338095Y-31652380D01*
X140338095Y-32128571D02*
X140909523Y-32128571D01*
X140909523Y-32652380D02*
X140909523Y-31652380D01*
X141290476Y-31652380D02*
X141909523Y-31652380D01*
X141576190Y-32033333D01*
X141719047Y-32033333D01*
X141814285Y-32080952D01*
X141861904Y-32128571D01*
X141909523Y-32223809D01*
X141909523Y-32461904D01*
X141861904Y-32557142D01*
X141814285Y-32604761D01*
X141719047Y-32652380D01*
X141433333Y-32652380D01*
X141338095Y-32604761D01*
X141290476Y-32557142D01*
G04 #@! TO.C,H4*
X163138095Y-39752380D02*
X163138095Y-38752380D01*
X163138095Y-39228571D02*
X163709523Y-39228571D01*
X163709523Y-39752380D02*
X163709523Y-38752380D01*
X164614285Y-39085714D02*
X164614285Y-39752380D01*
X164376190Y-38704761D02*
X164138095Y-39419047D01*
X164757142Y-39419047D01*
G04 #@! TO.C,SW2*
X159966666Y-61004761D02*
X160109523Y-61052380D01*
X160347619Y-61052380D01*
X160442857Y-61004761D01*
X160490476Y-60957142D01*
X160538095Y-60861904D01*
X160538095Y-60766666D01*
X160490476Y-60671428D01*
X160442857Y-60623809D01*
X160347619Y-60576190D01*
X160157142Y-60528571D01*
X160061904Y-60480952D01*
X160014285Y-60433333D01*
X159966666Y-60338095D01*
X159966666Y-60242857D01*
X160014285Y-60147619D01*
X160061904Y-60100000D01*
X160157142Y-60052380D01*
X160395238Y-60052380D01*
X160538095Y-60100000D01*
X160871428Y-60052380D02*
X161109523Y-61052380D01*
X161300000Y-60338095D01*
X161490476Y-61052380D01*
X161728571Y-60052380D01*
X162061904Y-60147619D02*
X162109523Y-60100000D01*
X162204761Y-60052380D01*
X162442857Y-60052380D01*
X162538095Y-60100000D01*
X162585714Y-60147619D01*
X162633333Y-60242857D01*
X162633333Y-60338095D01*
X162585714Y-60480952D01*
X162014285Y-61052380D01*
X162633333Y-61052380D01*
G04 #@! TO.C,R5*
X152738334Y-40722380D02*
X152405001Y-40246190D01*
X152166905Y-40722380D02*
X152166905Y-39722380D01*
X152547858Y-39722380D01*
X152643096Y-39770000D01*
X152690715Y-39817619D01*
X152738334Y-39912857D01*
X152738334Y-40055714D01*
X152690715Y-40150952D01*
X152643096Y-40198571D01*
X152547858Y-40246190D01*
X152166905Y-40246190D01*
X153643096Y-39722380D02*
X153166905Y-39722380D01*
X153119286Y-40198571D01*
X153166905Y-40150952D01*
X153262143Y-40103333D01*
X153500239Y-40103333D01*
X153595477Y-40150952D01*
X153643096Y-40198571D01*
X153690715Y-40293809D01*
X153690715Y-40531904D01*
X153643096Y-40627142D01*
X153595477Y-40674761D01*
X153500239Y-40722380D01*
X153262143Y-40722380D01*
X153166905Y-40674761D01*
X153119286Y-40627142D01*
G04 #@! TO.C,R4*
X152733333Y-45082380D02*
X152400000Y-44606190D01*
X152161904Y-45082380D02*
X152161904Y-44082380D01*
X152542857Y-44082380D01*
X152638095Y-44130000D01*
X152685714Y-44177619D01*
X152733333Y-44272857D01*
X152733333Y-44415714D01*
X152685714Y-44510952D01*
X152638095Y-44558571D01*
X152542857Y-44606190D01*
X152161904Y-44606190D01*
X153590476Y-44415714D02*
X153590476Y-45082380D01*
X153352380Y-44034761D02*
X153114285Y-44749047D01*
X153733333Y-44749047D01*
G04 #@! TO.C,U5*
X149088095Y-50277380D02*
X149088095Y-51086904D01*
X149135714Y-51182142D01*
X149183333Y-51229761D01*
X149278571Y-51277380D01*
X149469047Y-51277380D01*
X149564285Y-51229761D01*
X149611904Y-51182142D01*
X149659523Y-51086904D01*
X149659523Y-50277380D01*
X150611904Y-50277380D02*
X150135714Y-50277380D01*
X150088095Y-50753571D01*
X150135714Y-50705952D01*
X150230952Y-50658333D01*
X150469047Y-50658333D01*
X150564285Y-50705952D01*
X150611904Y-50753571D01*
X150659523Y-50848809D01*
X150659523Y-51086904D01*
X150611904Y-51182142D01*
X150564285Y-51229761D01*
X150469047Y-51277380D01*
X150230952Y-51277380D01*
X150135714Y-51229761D01*
X150088095Y-51182142D01*
G04 #@! TO.C,J8*
X164866666Y-58552380D02*
X164866666Y-59266666D01*
X164819047Y-59409523D01*
X164723809Y-59504761D01*
X164580952Y-59552380D01*
X164485714Y-59552380D01*
X165485714Y-58980952D02*
X165390476Y-58933333D01*
X165342857Y-58885714D01*
X165295238Y-58790476D01*
X165295238Y-58742857D01*
X165342857Y-58647619D01*
X165390476Y-58600000D01*
X165485714Y-58552380D01*
X165676190Y-58552380D01*
X165771428Y-58600000D01*
X165819047Y-58647619D01*
X165866666Y-58742857D01*
X165866666Y-58790476D01*
X165819047Y-58885714D01*
X165771428Y-58933333D01*
X165676190Y-58980952D01*
X165485714Y-58980952D01*
X165390476Y-59028571D01*
X165342857Y-59076190D01*
X165295238Y-59171428D01*
X165295238Y-59361904D01*
X165342857Y-59457142D01*
X165390476Y-59504761D01*
X165485714Y-59552380D01*
X165676190Y-59552380D01*
X165771428Y-59504761D01*
X165819047Y-59457142D01*
X165866666Y-59361904D01*
X165866666Y-59171428D01*
X165819047Y-59076190D01*
X165771428Y-59028571D01*
X165676190Y-58980952D01*
G04 #@! TO.C,R1*
X145233333Y-40952380D02*
X144900000Y-40476190D01*
X144661904Y-40952380D02*
X144661904Y-39952380D01*
X145042857Y-39952380D01*
X145138095Y-40000000D01*
X145185714Y-40047619D01*
X145233333Y-40142857D01*
X145233333Y-40285714D01*
X145185714Y-40380952D01*
X145138095Y-40428571D01*
X145042857Y-40476190D01*
X144661904Y-40476190D01*
X146185714Y-40952380D02*
X145614285Y-40952380D01*
X145900000Y-40952380D02*
X145900000Y-39952380D01*
X145804761Y-40095238D01*
X145709523Y-40190476D01*
X145614285Y-40238095D01*
G04 #@! TO.C,R3*
X147433333Y-43652380D02*
X147100000Y-43176190D01*
X146861904Y-43652380D02*
X146861904Y-42652380D01*
X147242857Y-42652380D01*
X147338095Y-42700000D01*
X147385714Y-42747619D01*
X147433333Y-42842857D01*
X147433333Y-42985714D01*
X147385714Y-43080952D01*
X147338095Y-43128571D01*
X147242857Y-43176190D01*
X146861904Y-43176190D01*
X147766666Y-42652380D02*
X148385714Y-42652380D01*
X148052380Y-43033333D01*
X148195238Y-43033333D01*
X148290476Y-43080952D01*
X148338095Y-43128571D01*
X148385714Y-43223809D01*
X148385714Y-43461904D01*
X148338095Y-43557142D01*
X148290476Y-43604761D01*
X148195238Y-43652380D01*
X147909523Y-43652380D01*
X147814285Y-43604761D01*
X147766666Y-43557142D01*
G04 #@! TO.C,SW1*
X159866666Y-66904761D02*
X160009523Y-66952380D01*
X160247619Y-66952380D01*
X160342857Y-66904761D01*
X160390476Y-66857142D01*
X160438095Y-66761904D01*
X160438095Y-66666666D01*
X160390476Y-66571428D01*
X160342857Y-66523809D01*
X160247619Y-66476190D01*
X160057142Y-66428571D01*
X159961904Y-66380952D01*
X159914285Y-66333333D01*
X159866666Y-66238095D01*
X159866666Y-66142857D01*
X159914285Y-66047619D01*
X159961904Y-66000000D01*
X160057142Y-65952380D01*
X160295238Y-65952380D01*
X160438095Y-66000000D01*
X160771428Y-65952380D02*
X161009523Y-66952380D01*
X161200000Y-66238095D01*
X161390476Y-66952380D01*
X161628571Y-65952380D01*
X162533333Y-66952380D02*
X161961904Y-66952380D01*
X162247619Y-66952380D02*
X162247619Y-65952380D01*
X162152380Y-66095238D01*
X162057142Y-66190476D01*
X161961904Y-66238095D01*
G04 #@! TO.C,U6*
X145038095Y-65052380D02*
X145038095Y-65861904D01*
X145085714Y-65957142D01*
X145133333Y-66004761D01*
X145228571Y-66052380D01*
X145419047Y-66052380D01*
X145514285Y-66004761D01*
X145561904Y-65957142D01*
X145609523Y-65861904D01*
X145609523Y-65052380D01*
X146514285Y-65052380D02*
X146323809Y-65052380D01*
X146228571Y-65100000D01*
X146180952Y-65147619D01*
X146085714Y-65290476D01*
X146038095Y-65480952D01*
X146038095Y-65861904D01*
X146085714Y-65957142D01*
X146133333Y-66004761D01*
X146228571Y-66052380D01*
X146419047Y-66052380D01*
X146514285Y-66004761D01*
X146561904Y-65957142D01*
X146609523Y-65861904D01*
X146609523Y-65623809D01*
X146561904Y-65528571D01*
X146514285Y-65480952D01*
X146419047Y-65433333D01*
X146228571Y-65433333D01*
X146133333Y-65480952D01*
X146085714Y-65528571D01*
X146038095Y-65623809D01*
G04 #@! TO.C,C10*
X158857142Y-41257142D02*
X158809523Y-41304761D01*
X158666666Y-41352380D01*
X158571428Y-41352380D01*
X158428571Y-41304761D01*
X158333333Y-41209523D01*
X158285714Y-41114285D01*
X158238095Y-40923809D01*
X158238095Y-40780952D01*
X158285714Y-40590476D01*
X158333333Y-40495238D01*
X158428571Y-40400000D01*
X158571428Y-40352380D01*
X158666666Y-40352380D01*
X158809523Y-40400000D01*
X158857142Y-40447619D01*
X159809523Y-41352380D02*
X159238095Y-41352380D01*
X159523809Y-41352380D02*
X159523809Y-40352380D01*
X159428571Y-40495238D01*
X159333333Y-40590476D01*
X159238095Y-40638095D01*
X160428571Y-40352380D02*
X160523809Y-40352380D01*
X160619047Y-40400000D01*
X160666666Y-40447619D01*
X160714285Y-40542857D01*
X160761904Y-40733333D01*
X160761904Y-40971428D01*
X160714285Y-41161904D01*
X160666666Y-41257142D01*
X160619047Y-41304761D01*
X160523809Y-41352380D01*
X160428571Y-41352380D01*
X160333333Y-41304761D01*
X160285714Y-41257142D01*
X160238095Y-41161904D01*
X160190476Y-40971428D01*
X160190476Y-40733333D01*
X160238095Y-40542857D01*
X160285714Y-40447619D01*
X160333333Y-40400000D01*
X160428571Y-40352380D01*
G04 #@! TO.C,C11*
X137127142Y-59042857D02*
X137174761Y-59090476D01*
X137222380Y-59233333D01*
X137222380Y-59328571D01*
X137174761Y-59471428D01*
X137079523Y-59566666D01*
X136984285Y-59614285D01*
X136793809Y-59661904D01*
X136650952Y-59661904D01*
X136460476Y-59614285D01*
X136365238Y-59566666D01*
X136270000Y-59471428D01*
X136222380Y-59328571D01*
X136222380Y-59233333D01*
X136270000Y-59090476D01*
X136317619Y-59042857D01*
X137222380Y-58090476D02*
X137222380Y-58661904D01*
X137222380Y-58376190D02*
X136222380Y-58376190D01*
X136365238Y-58471428D01*
X136460476Y-58566666D01*
X136508095Y-58661904D01*
X137222380Y-57138095D02*
X137222380Y-57709523D01*
X137222380Y-57423809D02*
X136222380Y-57423809D01*
X136365238Y-57519047D01*
X136460476Y-57614285D01*
X136508095Y-57709523D01*
G04 #@! TO.C,C12*
X136957142Y-68257142D02*
X136909523Y-68304761D01*
X136766666Y-68352380D01*
X136671428Y-68352380D01*
X136528571Y-68304761D01*
X136433333Y-68209523D01*
X136385714Y-68114285D01*
X136338095Y-67923809D01*
X136338095Y-67780952D01*
X136385714Y-67590476D01*
X136433333Y-67495238D01*
X136528571Y-67400000D01*
X136671428Y-67352380D01*
X136766666Y-67352380D01*
X136909523Y-67400000D01*
X136957142Y-67447619D01*
X137909523Y-68352380D02*
X137338095Y-68352380D01*
X137623809Y-68352380D02*
X137623809Y-67352380D01*
X137528571Y-67495238D01*
X137433333Y-67590476D01*
X137338095Y-67638095D01*
X138290476Y-67447619D02*
X138338095Y-67400000D01*
X138433333Y-67352380D01*
X138671428Y-67352380D01*
X138766666Y-67400000D01*
X138814285Y-67447619D01*
X138861904Y-67542857D01*
X138861904Y-67638095D01*
X138814285Y-67780952D01*
X138242857Y-68352380D01*
X138861904Y-68352380D01*
G04 #@! TO.C,C13*
X137227142Y-64842857D02*
X137274761Y-64890476D01*
X137322380Y-65033333D01*
X137322380Y-65128571D01*
X137274761Y-65271428D01*
X137179523Y-65366666D01*
X137084285Y-65414285D01*
X136893809Y-65461904D01*
X136750952Y-65461904D01*
X136560476Y-65414285D01*
X136465238Y-65366666D01*
X136370000Y-65271428D01*
X136322380Y-65128571D01*
X136322380Y-65033333D01*
X136370000Y-64890476D01*
X136417619Y-64842857D01*
X137322380Y-63890476D02*
X137322380Y-64461904D01*
X137322380Y-64176190D02*
X136322380Y-64176190D01*
X136465238Y-64271428D01*
X136560476Y-64366666D01*
X136608095Y-64461904D01*
X136322380Y-63557142D02*
X136322380Y-62938095D01*
X136703333Y-63271428D01*
X136703333Y-63128571D01*
X136750952Y-63033333D01*
X136798571Y-62985714D01*
X136893809Y-62938095D01*
X137131904Y-62938095D01*
X137227142Y-62985714D01*
X137274761Y-63033333D01*
X137322380Y-63128571D01*
X137322380Y-63414285D01*
X137274761Y-63509523D01*
X137227142Y-63557142D01*
G04 #@! TO.C,J5*
X147266666Y-57552380D02*
X147266666Y-58266666D01*
X147219047Y-58409523D01*
X147123809Y-58504761D01*
X146980952Y-58552380D01*
X146885714Y-58552380D01*
X148219047Y-57552380D02*
X147742857Y-57552380D01*
X147695238Y-58028571D01*
X147742857Y-57980952D01*
X147838095Y-57933333D01*
X148076190Y-57933333D01*
X148171428Y-57980952D01*
X148219047Y-58028571D01*
X148266666Y-58123809D01*
X148266666Y-58361904D01*
X148219047Y-58457142D01*
X148171428Y-58504761D01*
X148076190Y-58552380D01*
X147838095Y-58552380D01*
X147742857Y-58504761D01*
X147695238Y-58457142D01*
G04 #@! TO.C,J3*
X135166666Y-38952380D02*
X135166666Y-39666666D01*
X135119047Y-39809523D01*
X135023809Y-39904761D01*
X134880952Y-39952380D01*
X134785714Y-39952380D01*
X135547619Y-38952380D02*
X136166666Y-38952380D01*
X135833333Y-39333333D01*
X135976190Y-39333333D01*
X136071428Y-39380952D01*
X136119047Y-39428571D01*
X136166666Y-39523809D01*
X136166666Y-39761904D01*
X136119047Y-39857142D01*
X136071428Y-39904761D01*
X135976190Y-39952380D01*
X135690476Y-39952380D01*
X135595238Y-39904761D01*
X135547619Y-39857142D01*
G04 #@! TO.C,J1*
X155566666Y-33152380D02*
X155566666Y-33866666D01*
X155519047Y-34009523D01*
X155423809Y-34104761D01*
X155280952Y-34152380D01*
X155185714Y-34152380D01*
X156566666Y-34152380D02*
X155995238Y-34152380D01*
X156280952Y-34152380D02*
X156280952Y-33152380D01*
X156185714Y-33295238D01*
X156090476Y-33390476D01*
X155995238Y-33438095D01*
G04 #@! TO.C,J10*
X149390476Y-54752380D02*
X149390476Y-55466666D01*
X149342857Y-55609523D01*
X149247619Y-55704761D01*
X149104761Y-55752380D01*
X149009523Y-55752380D01*
X150390476Y-55752380D02*
X149819047Y-55752380D01*
X150104761Y-55752380D02*
X150104761Y-54752380D01*
X150009523Y-54895238D01*
X149914285Y-54990476D01*
X149819047Y-55038095D01*
X151009523Y-54752380D02*
X151104761Y-54752380D01*
X151200000Y-54800000D01*
X151247619Y-54847619D01*
X151295238Y-54942857D01*
X151342857Y-55133333D01*
X151342857Y-55371428D01*
X151295238Y-55561904D01*
X151247619Y-55657142D01*
X151200000Y-55704761D01*
X151104761Y-55752380D01*
X151009523Y-55752380D01*
X150914285Y-55704761D01*
X150866666Y-55657142D01*
X150819047Y-55561904D01*
X150771428Y-55371428D01*
X150771428Y-55133333D01*
X150819047Y-54942857D01*
X150866666Y-54847619D01*
X150914285Y-54800000D01*
X151009523Y-54752380D01*
G04 #@! TO.C,J7*
X155596666Y-72752380D02*
X155596666Y-73466666D01*
X155549047Y-73609523D01*
X155453809Y-73704761D01*
X155310952Y-73752380D01*
X155215714Y-73752380D01*
X155977619Y-72752380D02*
X156644285Y-72752380D01*
X156215714Y-73752380D01*
G04 #@! TO.C,R2*
X149933333Y-37852380D02*
X149600000Y-37376190D01*
X149361904Y-37852380D02*
X149361904Y-36852380D01*
X149742857Y-36852380D01*
X149838095Y-36900000D01*
X149885714Y-36947619D01*
X149933333Y-37042857D01*
X149933333Y-37185714D01*
X149885714Y-37280952D01*
X149838095Y-37328571D01*
X149742857Y-37376190D01*
X149361904Y-37376190D01*
X150314285Y-36947619D02*
X150361904Y-36900000D01*
X150457142Y-36852380D01*
X150695238Y-36852380D01*
X150790476Y-36900000D01*
X150838095Y-36947619D01*
X150885714Y-37042857D01*
X150885714Y-37138095D01*
X150838095Y-37280952D01*
X150266666Y-37852380D01*
X150885714Y-37852380D01*
G04 #@! TO.C,U1*
X144938095Y-48252380D02*
X144938095Y-49061904D01*
X144985714Y-49157142D01*
X145033333Y-49204761D01*
X145128571Y-49252380D01*
X145319047Y-49252380D01*
X145414285Y-49204761D01*
X145461904Y-49157142D01*
X145509523Y-49061904D01*
X145509523Y-48252380D01*
X146509523Y-49252380D02*
X145938095Y-49252380D01*
X146223809Y-49252380D02*
X146223809Y-48252380D01*
X146128571Y-48395238D01*
X146033333Y-48490476D01*
X145938095Y-48538095D01*
G04 #@! TO.C,U3*
X144938095Y-53152380D02*
X144938095Y-53961904D01*
X144985714Y-54057142D01*
X145033333Y-54104761D01*
X145128571Y-54152380D01*
X145319047Y-54152380D01*
X145414285Y-54104761D01*
X145461904Y-54057142D01*
X145509523Y-53961904D01*
X145509523Y-53152380D01*
X145890476Y-53152380D02*
X146509523Y-53152380D01*
X146176190Y-53533333D01*
X146319047Y-53533333D01*
X146414285Y-53580952D01*
X146461904Y-53628571D01*
X146509523Y-53723809D01*
X146509523Y-53961904D01*
X146461904Y-54057142D01*
X146414285Y-54104761D01*
X146319047Y-54152380D01*
X146033333Y-54152380D01*
X145938095Y-54104761D01*
X145890476Y-54057142D01*
G04 #@! TO.C,U4*
X145038095Y-59152380D02*
X145038095Y-59961904D01*
X145085714Y-60057142D01*
X145133333Y-60104761D01*
X145228571Y-60152380D01*
X145419047Y-60152380D01*
X145514285Y-60104761D01*
X145561904Y-60057142D01*
X145609523Y-59961904D01*
X145609523Y-59152380D01*
X146514285Y-59485714D02*
X146514285Y-60152380D01*
X146276190Y-59104761D02*
X146038095Y-59819047D01*
X146657142Y-59819047D01*
G04 #@! TO.C,C2*
X136533333Y-45557142D02*
X136485714Y-45604761D01*
X136342857Y-45652380D01*
X136247619Y-45652380D01*
X136104761Y-45604761D01*
X136009523Y-45509523D01*
X135961904Y-45414285D01*
X135914285Y-45223809D01*
X135914285Y-45080952D01*
X135961904Y-44890476D01*
X136009523Y-44795238D01*
X136104761Y-44700000D01*
X136247619Y-44652380D01*
X136342857Y-44652380D01*
X136485714Y-44700000D01*
X136533333Y-44747619D01*
X136914285Y-44747619D02*
X136961904Y-44700000D01*
X137057142Y-44652380D01*
X137295238Y-44652380D01*
X137390476Y-44700000D01*
X137438095Y-44747619D01*
X137485714Y-44842857D01*
X137485714Y-44938095D01*
X137438095Y-45080952D01*
X136866666Y-45652380D01*
X137485714Y-45652380D01*
G04 #@! TO.C,C3*
X145233333Y-37657142D02*
X145185714Y-37704761D01*
X145042857Y-37752380D01*
X144947619Y-37752380D01*
X144804761Y-37704761D01*
X144709523Y-37609523D01*
X144661904Y-37514285D01*
X144614285Y-37323809D01*
X144614285Y-37180952D01*
X144661904Y-36990476D01*
X144709523Y-36895238D01*
X144804761Y-36800000D01*
X144947619Y-36752380D01*
X145042857Y-36752380D01*
X145185714Y-36800000D01*
X145233333Y-36847619D01*
X145566666Y-36752380D02*
X146185714Y-36752380D01*
X145852380Y-37133333D01*
X145995238Y-37133333D01*
X146090476Y-37180952D01*
X146138095Y-37228571D01*
X146185714Y-37323809D01*
X146185714Y-37561904D01*
X146138095Y-37657142D01*
X146090476Y-37704761D01*
X145995238Y-37752380D01*
X145709523Y-37752380D01*
X145614285Y-37704761D01*
X145566666Y-37657142D01*
G04 #@! TO.C,C4*
X137333333Y-56457142D02*
X137285714Y-56504761D01*
X137142857Y-56552380D01*
X137047619Y-56552380D01*
X136904761Y-56504761D01*
X136809523Y-56409523D01*
X136761904Y-56314285D01*
X136714285Y-56123809D01*
X136714285Y-55980952D01*
X136761904Y-55790476D01*
X136809523Y-55695238D01*
X136904761Y-55600000D01*
X137047619Y-55552380D01*
X137142857Y-55552380D01*
X137285714Y-55600000D01*
X137333333Y-55647619D01*
X138190476Y-55885714D02*
X138190476Y-56552380D01*
X137952380Y-55504761D02*
X137714285Y-56219047D01*
X138333333Y-56219047D01*
G04 #@! TO.C,C5*
X137257142Y-53066666D02*
X137304761Y-53114285D01*
X137352380Y-53257142D01*
X137352380Y-53352380D01*
X137304761Y-53495238D01*
X137209523Y-53590476D01*
X137114285Y-53638095D01*
X136923809Y-53685714D01*
X136780952Y-53685714D01*
X136590476Y-53638095D01*
X136495238Y-53590476D01*
X136400000Y-53495238D01*
X136352380Y-53352380D01*
X136352380Y-53257142D01*
X136400000Y-53114285D01*
X136447619Y-53066666D01*
X136352380Y-52161904D02*
X136352380Y-52638095D01*
X136828571Y-52685714D01*
X136780952Y-52638095D01*
X136733333Y-52542857D01*
X136733333Y-52304761D01*
X136780952Y-52209523D01*
X136828571Y-52161904D01*
X136923809Y-52114285D01*
X137161904Y-52114285D01*
X137257142Y-52161904D01*
X137304761Y-52209523D01*
X137352380Y-52304761D01*
X137352380Y-52542857D01*
X137304761Y-52638095D01*
X137257142Y-52685714D01*
G04 #@! TO.C,C8*
X137333333Y-62357142D02*
X137285714Y-62404761D01*
X137142857Y-62452380D01*
X137047619Y-62452380D01*
X136904761Y-62404761D01*
X136809523Y-62309523D01*
X136761904Y-62214285D01*
X136714285Y-62023809D01*
X136714285Y-61880952D01*
X136761904Y-61690476D01*
X136809523Y-61595238D01*
X136904761Y-61500000D01*
X137047619Y-61452380D01*
X137142857Y-61452380D01*
X137285714Y-61500000D01*
X137333333Y-61547619D01*
X137904761Y-61880952D02*
X137809523Y-61833333D01*
X137761904Y-61785714D01*
X137714285Y-61690476D01*
X137714285Y-61642857D01*
X137761904Y-61547619D01*
X137809523Y-61500000D01*
X137904761Y-61452380D01*
X138095238Y-61452380D01*
X138190476Y-61500000D01*
X138238095Y-61547619D01*
X138285714Y-61642857D01*
X138285714Y-61690476D01*
X138238095Y-61785714D01*
X138190476Y-61833333D01*
X138095238Y-61880952D01*
X137904761Y-61880952D01*
X137809523Y-61928571D01*
X137761904Y-61976190D01*
X137714285Y-62071428D01*
X137714285Y-62261904D01*
X137761904Y-62357142D01*
X137809523Y-62404761D01*
X137904761Y-62452380D01*
X138095238Y-62452380D01*
X138190476Y-62404761D01*
X138238095Y-62357142D01*
X138285714Y-62261904D01*
X138285714Y-62071428D01*
X138238095Y-61976190D01*
X138190476Y-61928571D01*
X138095238Y-61880952D01*
G04 #@! TO.C,C9*
X158933333Y-42757142D02*
X158885714Y-42804761D01*
X158742857Y-42852380D01*
X158647619Y-42852380D01*
X158504761Y-42804761D01*
X158409523Y-42709523D01*
X158361904Y-42614285D01*
X158314285Y-42423809D01*
X158314285Y-42280952D01*
X158361904Y-42090476D01*
X158409523Y-41995238D01*
X158504761Y-41900000D01*
X158647619Y-41852380D01*
X158742857Y-41852380D01*
X158885714Y-41900000D01*
X158933333Y-41947619D01*
X159409523Y-42852380D02*
X159600000Y-42852380D01*
X159695238Y-42804761D01*
X159742857Y-42757142D01*
X159838095Y-42614285D01*
X159885714Y-42423809D01*
X159885714Y-42042857D01*
X159838095Y-41947619D01*
X159790476Y-41900000D01*
X159695238Y-41852380D01*
X159504761Y-41852380D01*
X159409523Y-41900000D01*
X159361904Y-41947619D01*
X159314285Y-42042857D01*
X159314285Y-42280952D01*
X159361904Y-42376190D01*
X159409523Y-42423809D01*
X159504761Y-42471428D01*
X159695238Y-42471428D01*
X159790476Y-42423809D01*
X159838095Y-42376190D01*
X159885714Y-42280952D01*
G04 #@! TO.C,C1*
X136633333Y-51357142D02*
X136585714Y-51404761D01*
X136442857Y-51452380D01*
X136347619Y-51452380D01*
X136204761Y-51404761D01*
X136109523Y-51309523D01*
X136061904Y-51214285D01*
X136014285Y-51023809D01*
X136014285Y-50880952D01*
X136061904Y-50690476D01*
X136109523Y-50595238D01*
X136204761Y-50500000D01*
X136347619Y-50452380D01*
X136442857Y-50452380D01*
X136585714Y-50500000D01*
X136633333Y-50547619D01*
X137585714Y-51452380D02*
X137014285Y-51452380D01*
X137300000Y-51452380D02*
X137300000Y-50452380D01*
X137204761Y-50595238D01*
X137109523Y-50690476D01*
X137014285Y-50738095D01*
G04 #@! TO.C,Q1*
X150804761Y-39647619D02*
X150709523Y-39600000D01*
X150614285Y-39504761D01*
X150471428Y-39361904D01*
X150376190Y-39314285D01*
X150280952Y-39314285D01*
X150328571Y-39552380D02*
X150233333Y-39504761D01*
X150138095Y-39409523D01*
X150090476Y-39219047D01*
X150090476Y-38885714D01*
X150138095Y-38695238D01*
X150233333Y-38600000D01*
X150328571Y-38552380D01*
X150519047Y-38552380D01*
X150614285Y-38600000D01*
X150709523Y-38695238D01*
X150757142Y-38885714D01*
X150757142Y-39219047D01*
X150709523Y-39409523D01*
X150614285Y-39504761D01*
X150519047Y-39552380D01*
X150328571Y-39552380D01*
X151709523Y-39552380D02*
X151138095Y-39552380D01*
X151423809Y-39552380D02*
X151423809Y-38552380D01*
X151328571Y-38695238D01*
X151233333Y-38790476D01*
X151138095Y-38838095D01*
G04 #@! TD*
M02*
